<svg width="24" height="24" viewBox="0 0 24 24" fill="none" xmlns="http://www.w3.org/2000/svg">
<path fill-rule="evenodd" clip-rule="evenodd" d="M20.5713 0.858398C21.99 0.858549 23.1404 2.01002 23.1406 3.42871V20.5723C23.1402 21.9908 21.9899 23.1415 20.5713 23.1416H3.42773C2.00937 23.1412 0.858813 21.9906 0.858398 20.5723V3.42871C0.858624 2.01019 2.00926 0.858822 3.42773 0.858398H20.5713ZM13.7119 5.99805V7.71387C13.7119 7.99974 13.5689 8.26721 13.3311 8.42578L11.1406 9.88574V10.2861C11.1409 10.7605 11.5256 11.1455 12 11.1455H16.2861C17.7049 11.1457 18.8555 12.296 18.8555 13.7148C18.8551 15.1334 17.7047 16.284 16.2861 16.2842H7.71387C7.23963 16.2844 6.85569 16.6683 6.85547 17.1426C6.8556 17.6169 7.23957 18.0017 7.71387 18.002H12C12.4722 18.002 12.8555 18.3852 12.8555 18.8574C12.8553 19.3294 12.4721 19.7119 12 19.7119H7.71387C6.29516 19.7117 5.14466 18.5613 5.14453 17.1426C5.14476 15.7239 6.29522 14.5735 7.71387 14.5732H16.2861C16.7603 14.573 17.1442 14.189 17.1445 13.7148C17.1445 13.2404 16.7605 12.8557 16.2861 12.8555H12C10.5812 12.8555 9.43095 11.7049 9.43066 10.2861V9.88574L7.23926 8.42578C7.00166 8.26717 6.8584 7.99957 6.8584 7.71387V5.99805H2.56934V20.5723C2.56975 21.0462 2.95378 21.4312 3.42773 21.4316H20.5713C21.0455 21.4315 21.4302 21.0464 21.4307 20.5723V5.99805H13.7119ZM8.56934 5.99805V7.25586L10.2852 8.40039L12.002 7.25586V5.99805H8.56934ZM3.42773 2.57031C2.95366 2.57074 2.56956 2.95459 2.56934 3.42871V4.28711H21.4307V3.42871C21.4304 2.95442 21.0456 2.57046 20.5713 2.57031H3.42773Z" fill="black"/>
</svg>
