<svg width="24" height="24" viewBox="0 0 24 24" fill="none" xmlns="http://www.w3.org/2000/svg">
<path d="M12 1.71582C12.4721 1.7159 12.8544 2.09924 12.8545 2.57129V11.1445H21.4287C21.9007 11.1447 22.2831 11.528 22.2832 12C22.2832 12.4721 21.9008 12.8553 21.4287 12.8555H12.8545V21.4287C12.8544 21.9008 12.4721 22.2831 12 22.2832C11.5278 22.2832 11.1446 21.9008 11.1445 21.4287V12.8555H2.57129C2.09909 12.8555 1.71582 12.4722 1.71582 12C1.71595 11.5279 2.09917 11.1445 2.57129 11.1445H11.1445V2.57129C11.1447 2.0992 11.5279 1.71582 12 1.71582Z" fill="black"/>
</svg>
