<svg width="24" height="24" viewBox="0 0 24 24" fill="none" xmlns="http://www.w3.org/2000/svg">
<path d="M12 17.1445C12.4722 17.1445 12.8555 17.5278 12.8555 18V23.1426C12.8555 23.6148 12.4722 23.998 12 23.998C11.5279 23.998 11.1445 23.6147 11.1445 23.1426V18C11.1445 17.5278 11.5279 17.1446 12 17.1445Z" fill="black"/>
<path d="M6.85645 17.1445C7.32865 17.1445 7.71191 17.5278 7.71191 18V19.7139C7.71191 21.1328 6.56156 22.2832 5.14258 22.2832C4.67059 22.283 4.28718 21.9007 4.28711 21.4287C4.28711 20.9566 4.67054 20.5734 5.14258 20.5732C5.61715 20.5732 6.00195 20.1884 6.00195 19.7139V18C6.00195 17.5281 6.3846 17.145 6.85645 17.1445Z" fill="black"/>
<path d="M17.1426 17.1445C17.6148 17.1445 17.998 17.5278 17.998 18V19.7139C17.998 20.1585 18.3357 20.524 18.7686 20.5684L18.9443 20.5781C19.3754 20.6221 19.7119 20.9861 19.7119 21.4287C19.7118 21.9009 19.3286 22.2832 18.8564 22.2832C17.4378 22.2828 16.2871 21.1326 16.2871 19.7139V18C16.2871 17.5279 16.6705 17.1447 17.1426 17.1445Z" fill="black"/>
<path fill-rule="evenodd" clip-rule="evenodd" d="M21.4287 1.71582C22.8474 1.71595 23.9977 2.86657 23.998 4.28516V12.8574C23.9978 14.2761 22.8474 15.4266 21.4287 15.4268H2.57129C1.15264 15.4265 0.00217961 14.2761 0.00195312 12.8574V4.28516C0.0023111 2.86662 1.15273 1.71605 2.57129 1.71582H21.4287ZM2.57129 3.42676C2.09713 3.42698 1.71325 3.81103 1.71289 4.28516V12.8574C1.71312 13.3317 2.09705 13.7156 2.57129 13.7158H4.28711V11.1426C4.28734 9.72405 5.43797 8.57367 6.85645 8.57324H17.1426C18.5614 8.57324 19.7117 9.72379 19.7119 11.1426V13.7158H21.4287C21.903 13.7157 22.2879 13.3317 22.2881 12.8574V4.28516C22.2877 3.81097 21.9029 3.42689 21.4287 3.42676H2.57129ZM6.85645 10.2842C6.38238 10.2846 5.99827 10.6685 5.99805 11.1426V13.7158H18.002V11.1426C18.0017 10.6682 17.617 10.2842 17.1426 10.2842H6.85645Z" fill="black"/>
</svg>
