<svg width="24" height="24" viewBox="0 0 24 24" fill="none" xmlns="http://www.w3.org/2000/svg">
<path d="M12.0005 7.28735C12.4725 7.28755 12.8559 7.67074 12.8559 8.14281V12.4309H16.2866C16.7583 12.4313 17.1409 12.8136 17.1411 13.2854C17.1411 13.7573 16.7584 14.1404 16.2866 14.1409H12.0005C11.5283 14.1409 11.145 13.7576 11.145 13.2854V8.14281C11.145 7.67061 11.5283 7.28735 12.0005 7.28735Z" fill="black"/>
<path fill-rule="evenodd" clip-rule="evenodd" d="M12.0005 2.5725C17.9162 2.57273 22.7121 7.36957 22.7124 13.2854C22.7122 19.2012 17.9163 23.9971 12.0005 23.9973C6.0844 23.9973 1.28773 19.2013 1.28757 13.2854C1.28781 7.36944 6.08446 2.5725 12.0005 2.5725ZM12.0005 4.28344C7.02886 4.28344 2.99875 8.31384 2.99851 13.2854C2.99866 18.2569 7.02881 22.2873 12.0005 22.2873C16.9719 22.2871 21.0023 18.2568 21.0024 13.2854C21.0022 8.31399 16.9718 4.28366 12.0005 4.28344Z" fill="black"/>
<path d="M5.8325 0.0822671C6.25996 -0.117527 6.76898 0.0671407 6.96921 0.494376C7.16916 0.921955 6.98456 1.43092 6.55711 1.6311C4.554 2.56837 2.83074 4.00772 1.55125 5.78735C1.27561 6.17075 0.741294 6.25829 0.357887 5.98266C-0.0251181 5.70692 -0.112948 5.17255 0.162574 4.7893C1.61099 2.77463 3.56211 1.1446 5.8325 0.0822671Z" fill="black"/>
<path d="M17.0307 0.494376C17.2309 0.0669931 17.7399 -0.117449 18.1675 0.0822671C20.4379 1.14457 22.3889 2.77474 23.8374 4.7893C24.1129 5.17263 24.0253 5.70699 23.6421 5.98266C23.2587 6.25828 22.7243 6.17074 22.4487 5.78735C21.1691 4.00776 19.446 2.56832 17.4428 1.6311C17.0155 1.43084 16.8307 0.921925 17.0307 0.494376Z" fill="black"/>
</svg>
