<svg width="24" height="24" viewBox="0 0 24 24" fill="none" xmlns="http://www.w3.org/2000/svg">
<path d="M12 22.2871C12.4721 22.2872 12.8544 22.6705 12.8545 23.1426C12.8545 23.6147 12.4721 23.998 12 23.998H8.57129C8.09909 23.998 7.71582 23.6148 7.71582 23.1426C7.71595 22.6705 8.09917 22.2871 8.57129 22.2871H12Z" fill="black"/>
<path d="M10.2861 2.57324C10.7582 2.57341 11.1406 2.95661 11.1406 3.42871C11.1405 3.9007 10.7581 4.28402 10.2861 4.28418C7.02347 4.28418 4.28418 7.02347 4.28418 10.2861V16.2861C4.28408 16.9088 4.11079 17.4964 3.8125 18.0039L16.7588 18.002C16.4608 17.4954 16.2882 16.9085 16.2881 16.2861V13C16.2882 12.5279 16.6714 12.1455 17.1436 12.1455C17.6154 12.1458 17.998 12.5281 17.998 13V16.2861C17.9983 17.2144 18.7865 18.002 19.7148 18.002C20.1868 18.0022 20.5693 18.3854 20.5693 18.8574C20.5691 19.3293 20.1867 19.7117 19.7148 19.7119L0.860352 19.7148C0.388321 19.7148 0.00513312 19.3324 0.00488284 18.8604C0.00477554 18.3882 0.388173 18.005 0.860352 18.0049C1.78605 18.0043 2.57392 17.2161 2.57422 16.2861V10.2861C2.57422 6.07907 6.07907 2.57324 10.2861 2.57324Z" fill="black"/>
<path d="M15.3057 5.35938C15.6355 5.35938 15.9363 5.5499 16.0781 5.84766C16.2195 6.14526 16.1774 6.4981 15.9697 6.75391L13.7959 9.43164H15.501C15.9729 9.43187 16.3554 9.81413 16.3555 10.2861C16.3552 10.758 15.9728 11.1414 15.501 11.1416H12C11.6706 11.1416 11.3705 10.9515 11.2285 10.6543C11.0868 10.3567 11.1283 10.0031 11.3359 9.74707L13.5098 7.07031H12.1943C11.7224 7.07024 11.3401 6.68678 11.3398 6.21484C11.3398 5.74268 11.7222 5.35945 12.1943 5.35938H15.3057Z" fill="black"/>
<path d="M22.6768 1.00098C23.0065 1.00102 23.3065 1.19251 23.4482 1.49023C23.5897 1.78784 23.5485 2.14062 23.3408 2.39648L19.7236 6.85059H22.9561C23.4282 6.85067 23.8105 7.2339 23.8105 7.70605C23.81 8.17778 23.4279 8.56047 22.9561 8.56055H17.9277C17.5982 8.56045 17.2981 8.37062 17.1562 8.07324C17.0146 7.77579 17.0563 7.42294 17.2637 7.16699L20.8799 2.71289H18.207C17.7352 2.71269 17.3528 2.32928 17.3525 1.85742C17.3525 1.38534 17.735 1.00118 18.207 1.00098H22.6768Z" fill="black"/>
</svg>
