<svg width="24" height="24" viewBox="0 0 24 24" fill="none" xmlns="http://www.w3.org/2000/svg">
<path d="M11.9997 0.00195312C12.4719 0.00195312 12.8552 0.385218 12.8552 0.857422V21.0771L18.2516 15.6816C18.5855 15.3477 19.1277 15.3477 19.4616 15.6816C19.7951 16.0155 19.7951 16.5568 19.4616 16.8906L12.6042 23.748C12.484 23.868 12.3368 23.944 12.1823 23.9775C12.1781 23.9785 12.1739 23.9796 12.1696 23.9805C12.1139 23.9917 12.0573 23.998 12.0007 23.998C11.9987 23.998 11.9958 23.9971 11.9938 23.9971C11.9388 23.9967 11.8839 23.9914 11.8298 23.9805C11.8255 23.9796 11.8213 23.9785 11.8171 23.9775C11.7675 23.9667 11.7189 23.9513 11.6716 23.9316C11.6627 23.9279 11.6539 23.9239 11.6452 23.9199C11.5793 23.8899 11.5157 23.8523 11.4577 23.8047C11.4359 23.7869 11.4151 23.7679 11.3952 23.748L4.53778 16.8906C4.20404 16.5569 4.20437 16.0156 4.53778 15.6816C4.87168 15.3477 5.41286 15.3477 5.74676 15.6816L11.1442 21.0791V0.857422C11.1442 0.385299 11.5276 0.00208343 11.9997 0.00195312Z" fill="black"/>
</svg>
