<svg width="24" height="24" viewBox="0 0 24 24" fill="none" xmlns="http://www.w3.org/2000/svg">
<path d="M22.6955 13.8425C23.0975 13.5956 23.6239 13.721 23.8713 14.1227C24.1187 14.5248 23.9929 15.0519 23.591 15.2995L13.3703 21.5886C12.5301 22.1055 11.4703 22.1055 10.63 21.5886L0.409341 15.2995C0.00720277 15.052 -0.118369 14.5249 0.129067 14.1227C0.376616 13.7208 0.903779 13.5951 1.30583 13.8425L11.5265 20.1325C11.8172 20.3113 12.1842 20.3113 12.4748 20.1325L22.6955 13.8425Z" fill="black"/>
<path d="M10.6535 2.39617C11.4792 1.88819 12.5212 1.88807 13.3468 2.39617L23.591 8.69988C23.9929 8.94733 24.1184 9.47457 23.8713 9.87664C23.6238 10.2785 23.0975 10.404 22.6955 10.1569L12.4504 3.85223C12.1744 3.68245 11.826 3.68258 11.55 3.85223L1.30583 10.1569C0.90368 10.4044 0.376542 10.2788 0.129067 9.87664C-0.118342 9.4745 0.00722003 8.94735 0.409341 8.69988L10.6535 2.39617Z" fill="black"/>
</svg>
