<svg width="24" height="24" viewBox="0 0 24 24" fill="none" xmlns="http://www.w3.org/2000/svg">
<path d="M15.6816 4.53875C16.0155 4.20486 16.5567 4.20486 16.8906 4.53875L23.7393 11.3874C23.7624 11.4099 23.7842 11.4337 23.8047 11.4587C23.8565 11.5218 23.8977 11.5906 23.9287 11.6628L23.9297 11.6667C24.0615 11.9779 24.0017 12.3515 23.748 12.6052L16.8906 19.4626C16.5569 19.7959 16.0155 19.7957 15.6816 19.4626C15.3478 19.1287 15.3478 18.5865 15.6816 18.2526L21.0781 12.8552H0.857422C0.385218 12.8552 0.00195312 12.4719 0.00195312 11.9997C0.00211645 11.5276 0.385319 11.1442 0.857422 11.1442H21.0781L15.6816 5.74774C15.3478 5.41387 15.3478 4.87266 15.6816 4.53875Z" fill="black"/>
</svg>
