<svg width="24" height="24" viewBox="0 0 24 24" fill="none" xmlns="http://www.w3.org/2000/svg">
<path d="M2.1231 0.128225C2.52513 -0.118919 3.05239 0.00665098 3.29986 0.408498L9.60357 10.6536C10.1116 11.4792 10.1114 12.5203 9.60357 13.346L3.29986 23.5901C3.05237 23.9923 2.52525 24.1179 2.1231 23.8704C1.72129 23.6229 1.5957 23.0966 1.84283 22.6946L8.14751 12.4505C8.31725 12.1744 8.31739 11.8252 8.14751 11.5491L1.84283 1.30498C1.59559 0.902862 1.72104 0.375641 2.1231 0.128225Z" fill="black"/>
<path d="M20.7002 0.408498C20.9479 0.00672495 21.475 -0.119157 21.877 0.128225C22.2789 0.375612 22.4043 0.902933 22.1573 1.30498L15.8672 11.5257C15.6884 11.8163 15.6884 12.1833 15.8672 12.4739L22.1573 22.6946C22.4043 23.0965 22.2784 23.6228 21.877 23.8704C21.4748 24.1179 20.9477 23.9923 20.7002 23.5901L14.4112 13.3694C13.8942 12.5292 13.8941 11.4694 14.4112 10.6292L20.7002 0.408498Z" fill="black"/>
</svg>
