<svg width="24" height="24" viewBox="0 0 24 24" fill="none" xmlns="http://www.w3.org/2000/svg">
<path d="M11.8516 5.4061C12.1997 5.08708 12.7405 5.10979 13.0596 5.45786C13.3783 5.80585 13.3545 6.34684 13.0068 6.66587L7.43555 11.7733C7.08755 12.0922 6.54662 12.0683 6.22754 11.7206C5.90851 11.3725 5.93137 10.8316 6.2793 10.5125L11.8516 5.4061Z" fill="black"/>
<path d="M14.4229 7.76255C14.771 7.44379 15.3119 7.46731 15.6309 7.81528C15.9496 8.16335 15.926 8.70431 15.5781 9.02329L12.5781 11.7733C12.2301 12.0922 11.6892 12.0684 11.3701 11.7206C11.0512 11.3725 11.0749 10.8316 11.4229 10.5125L14.4229 7.76255Z" fill="black"/>
<path d="M16.9941 10.12C17.3422 9.801 17.8831 9.82466 18.2021 10.1727C18.5208 10.5208 18.4974 11.0618 18.1494 11.3807L17.7207 11.7733C17.3727 12.0921 16.8318 12.0683 16.5127 11.7206C16.1939 11.3725 16.2175 10.8316 16.5654 10.5125L16.9941 10.12Z" fill="black"/>
<path fill-rule="evenodd" clip-rule="evenodd" d="M11.4863 1.03208C11.812 0.786389 12.2717 0.803945 12.5781 1.08481L16.2881 4.48423V3.42856C16.2881 2.95636 16.6714 2.5731 17.1436 2.5731H22.2861C22.7581 2.57336 23.1416 2.95652 23.1416 3.42856V20.5721C23.1413 21.9918 21.9874 23.141 20.5703 23.1415H3.43066C2.01341 23.1412 0.858747 21.9919 0.858398 20.5721V11.8973C0.858418 11.1792 1.16011 10.4878 1.69238 9.99985L11.4229 1.08384L11.4863 1.03208ZM2.84863 11.2606C2.67254 11.422 2.57033 11.6545 2.57031 11.8973V20.5721C2.57066 21.0449 2.95522 21.4312 3.43066 21.4315H11.1445V16.286C11.1445 15.8138 11.5279 15.4306 12 15.4305C12.4722 15.4305 12.8555 15.8138 12.8555 16.286V21.4315H20.5703C21.0456 21.4311 21.4313 21.0448 21.4316 20.5721V11.5184L12 2.87388L2.84863 11.2606ZM17.999 6.05259L21.4316 9.19907V4.28403H17.999V6.05259Z" fill="black"/>
</svg>
