<svg width="24" height="24" viewBox="0 0 24 24" fill="none" xmlns="http://www.w3.org/2000/svg">
<g clip-path="url(#clip0_7430_5214)">
<path d="M8.91479 22.2856V1.71436C8.91479 1.24097 9.29883 0.856934 9.77222 0.856934C10.2454 0.857159 10.6287 1.24111 10.6287 1.71436V22.2856C10.6287 22.7589 10.2454 23.1428 9.77222 23.1431C9.29883 23.1431 8.91479 22.759 8.91479 22.2856ZM13.3718 18.8569V5.14307C13.3718 4.66968 13.7559 4.28564 14.2292 4.28564C14.7026 4.28572 15.0867 4.66973 15.0867 5.14307V18.8569C15.0867 19.3303 14.7026 19.7143 14.2292 19.7144C13.7559 19.7144 13.3718 19.3303 13.3718 18.8569ZM-0.000244141 18.8257V5.11084C-9.34683e-05 4.63758 0.383884 4.25439 0.857178 4.25439C1.33047 4.25439 1.71445 4.63758 1.7146 5.11084V18.8257C1.71445 19.2989 1.33047 19.6821 0.857178 19.6821C0.383884 19.6821 -9.37258e-05 19.2989 -0.000244141 18.8257ZM4.45776 14.5718V9.42822C4.45799 8.95512 4.84109 8.57193 5.31421 8.57178C5.78746 8.57178 6.1714 8.95503 6.17163 9.42822V14.5718C6.17148 15.045 5.7875 15.4282 5.31421 15.4282C4.84104 15.4281 4.45791 15.0449 4.45776 14.5718ZM17.8289 14.5718V9.42822C17.8291 8.95507 18.2131 8.57185 18.6863 8.57178C19.1595 8.57178 19.5435 8.95503 19.5437 9.42822V14.5718C19.5436 15.045 19.1596 15.4282 18.6863 15.4282C18.213 15.4281 17.829 15.045 17.8289 14.5718ZM22.2869 13.7144V10.2856C22.2869 9.81246 22.6702 9.42845 23.1433 9.42822C23.6167 9.42822 24.0007 9.81232 24.0007 10.2856V13.7144C24.0007 14.1877 23.6167 14.5718 23.1433 14.5718C22.6701 14.5716 22.2869 14.1876 22.2869 13.7144Z" fill="black"/>
</g>
<defs>
<clipPath id="clip0_7430_5214">
<rect width="24" height="24" fill="white"/>
</clipPath>
</defs>
</svg>
