<svg width="24" height="24" viewBox="0 0 24 24" fill="none" xmlns="http://www.w3.org/2000/svg">
<path d="M17.6162 14.8043C17.9501 14.4704 18.4913 14.4704 18.8252 14.8043L20.915 16.8941C20.9389 16.9165 20.9612 16.9404 20.9824 16.9654C20.9948 16.98 21.0063 16.9951 21.0176 17.0103C21.1228 17.1524 21.1865 17.3279 21.1865 17.5181C21.1864 17.7162 21.1171 17.8975 21.0039 18.0425C20.9825 18.0699 20.9607 18.0974 20.9355 18.1226L18.8262 20.232C18.4924 20.5657 17.9511 20.5655 17.6172 20.232C17.2834 19.8982 17.2827 19.3569 17.6162 19.023L18.2656 18.3736H14.7061C14.234 18.3736 13.8508 17.9902 13.8506 17.5181C13.8506 17.0461 14.2331 16.6629 14.7051 16.6627H18.2656L17.6162 16.0132C17.2825 15.6795 17.2828 15.1382 17.6162 14.8043Z" fill="black"/>
<path fill-rule="evenodd" clip-rule="evenodd" d="M17.5186 11.0377C19.237 11.0378 20.8855 11.721 22.1006 12.9361C23.3156 14.1513 23.999 15.7997 23.999 17.5181L23.9902 17.8394C23.9107 19.4409 23.2398 20.9609 22.1006 22.1002C20.9614 23.2393 19.4413 23.9102 17.8398 23.9898L17.5186 23.9986C15.8002 23.9986 14.1517 23.3151 12.9365 22.1002C11.7973 20.961 11.1264 19.4409 11.0469 17.8394L11.0381 17.5181C11.0381 15.7995 11.7213 14.1513 12.9365 12.9361C14.1518 11.7209 15.8 11.0377 17.5186 11.0377ZM17.5186 12.7486C16.2535 12.7486 15.0401 13.2506 14.1455 14.1451C13.251 15.0396 12.749 16.253 12.749 17.5181C12.7491 18.7831 13.251 19.9967 14.1455 20.8912C15.04 21.7854 16.2537 22.2877 17.5186 22.2877L17.7549 22.2818C18.9337 22.2232 20.053 21.7297 20.8916 20.8912C21.786 19.9967 22.288 18.783 22.2881 17.5181L22.2822 17.2818C22.2238 16.103 21.73 14.9837 20.8916 14.1451C19.9972 13.2506 18.7835 12.7487 17.5186 12.7486Z" fill="black"/>
<path d="M9.77441 0.172417C10.099 -0.0704409 10.5557 -0.0536399 10.8613 0.224175L19.7285 8.2857C20.0778 8.60329 20.1036 9.14432 19.7861 9.49371C19.4685 9.84292 18.9275 9.86878 18.5781 9.55132L10.2861 2.01226L1.99414 9.55132C1.81504 9.71414 1.71293 9.945 1.71289 10.1871V17.9996C1.71289 18.474 2.0969 18.8587 2.57129 18.8589H8.57129C9.04334 18.8591 9.42669 19.2423 9.42676 19.7144C9.42661 20.1864 9.04329 20.5688 8.57129 20.5689H2.57129C1.15251 20.5687 0.00195312 19.4184 0.00195312 17.9996V10.1871C0.00198884 9.46322 0.308149 8.7726 0.84375 8.2857L9.71094 0.224175L9.77441 0.172417Z" fill="black"/>
</svg>
