<svg width="24" height="24" viewBox="0 0 24 24" fill="none" xmlns="http://www.w3.org/2000/svg">
<path d="M19.714 6.85938C20.1861 6.85945 20.5685 7.24269 20.5685 7.71484V21.4287C20.5682 22.8475 19.4179 23.998 17.9991 23.998H5.99913C4.58069 23.9976 3.43006 22.8472 3.4298 21.4287V7.71484C3.4298 7.24277 3.81325 6.85959 4.28527 6.85938C4.75747 6.85938 5.14074 7.24264 5.14074 7.71484V21.4287C5.141 21.9028 5.5251 22.2876 5.99913 22.2881H17.9991C18.4735 22.2881 18.8582 21.9031 18.8585 21.4287V7.71484C18.8585 7.24277 19.242 6.85959 19.714 6.85938Z" fill="black"/>
<path d="M12.0001 8.57324C12.4722 8.57342 12.8556 8.95662 12.8556 9.42871V15.0781L13.9669 13.9668C14.3008 13.6332 14.8421 13.6331 15.1759 13.9668C15.5096 14.3006 15.5095 14.8419 15.1759 15.1758L12.6046 17.7471C12.5649 17.7867 12.5205 17.8212 12.4737 17.8525C12.4311 17.8811 12.387 17.9057 12.3409 17.9258C12.3376 17.9272 12.3345 17.9293 12.3312 17.9307C12.2805 17.952 12.2281 17.9674 12.1749 17.9785L12.171 17.9805C12.058 18.0035 11.9412 18.0035 11.8282 17.9805C11.8243 17.9797 11.8204 17.9784 11.8165 17.9775C11.74 17.9608 11.6653 17.9335 11.5948 17.8955C11.5167 17.8534 11.446 17.7996 11.3849 17.7363L8.82433 15.1758C8.49043 14.8419 8.49043 14.3007 8.82433 13.9668C9.15825 13.6332 9.69951 13.633 10.0333 13.9668L11.1446 15.0781V9.42871C11.1446 8.95651 11.5279 8.57324 12.0001 8.57324Z" fill="black"/>
<path fill-rule="evenodd" clip-rule="evenodd" d="M19.713 0.00195312C20.5217 0.00195312 21.2834 0.383346 21.7687 1.03027C23.039 2.72404 21.8302 5.14062 19.713 5.14062H4.28527C2.16846 5.14032 0.959808 2.72392 2.2296 1.03027C2.71474 0.383418 3.47671 0.0020781 4.28527 0.00195312H19.713ZM4.28527 1.71289C4.01513 1.71301 3.75998 1.83967 3.59777 2.05566C3.17342 2.62201 3.57757 3.43036 4.28527 3.43066H7.71593V1.71289H4.28527ZM9.42687 3.43066H14.5734V1.71289H9.42687V3.43066ZM16.2843 3.43066H19.713C20.4211 3.43066 20.8254 2.62214 20.4005 2.05566C20.2382 1.83961 19.9832 1.71289 19.713 1.71289H16.2843V3.43066Z" fill="black"/>
</svg>
