<svg width="24" height="24" viewBox="0 0 24 24" fill="none" xmlns="http://www.w3.org/2000/svg">
<path d="M9.40332 16.4111C9.71811 16.0592 10.2594 16.029 10.6113 16.3438C10.9933 16.6853 11.4876 16.875 12 16.875C12.5124 16.8749 13.0067 16.6854 13.3887 16.3438C13.7406 16.029 14.2819 16.0592 14.5967 16.4111C14.9112 16.7631 14.8812 17.3044 14.5293 17.6191C13.8339 18.2411 12.933 18.5849 12 18.585C11.067 18.5849 10.1662 18.2411 9.4707 17.6191C9.11876 17.3044 9.08856 16.7631 9.40332 16.4111Z" fill="black"/>
<path d="M9.7959 10.249C10.2681 10.249 10.6514 10.6323 10.6514 11.1045C10.6513 11.7208 10.4056 12.3122 9.96973 12.748C9.53398 13.1836 8.94324 13.4286 8.32715 13.4287C7.71087 13.4287 7.11945 13.1837 6.68359 12.748C6.24776 12.3122 6.00202 11.7208 6.00195 11.1045C6.00195 10.6323 6.38522 10.249 6.85742 10.249C7.32963 10.249 7.71289 10.6323 7.71289 11.1045C7.71296 11.2673 7.77744 11.4239 7.89258 11.5391C8.00774 11.654 8.16439 11.7188 8.32715 11.7188C8.48972 11.7186 8.64568 11.6539 8.76074 11.5391C8.87588 11.4239 8.94134 11.2673 8.94141 11.1045C8.94141 10.6323 9.32373 10.2491 9.7959 10.249Z" fill="black"/>
<path d="M17.1426 10.249C17.6146 10.2493 17.998 10.6325 17.998 11.1045C17.998 11.7207 17.753 12.3123 17.3174 12.748C16.8817 13.1837 16.2899 13.4285 15.6738 13.4287C15.0577 13.4287 14.4661 13.1836 14.0303 12.748C13.5944 12.3122 13.3487 11.7208 13.3486 11.1045C13.3486 10.6323 13.7319 10.249 14.2041 10.249C14.6761 10.2493 15.0596 10.6325 15.0596 11.1045C15.0596 11.2673 15.1241 11.4239 15.2393 11.5391C15.3544 11.6539 15.5112 11.7188 15.6738 11.7188C15.8363 11.7185 15.9925 11.6539 16.1074 11.5391C16.2225 11.4239 16.288 11.2673 16.2881 11.1045C16.2881 10.6323 16.6704 10.2491 17.1426 10.249Z" fill="black"/>
<path fill-rule="evenodd" clip-rule="evenodd" d="M12 1.75586C16.1259 1.75586 20.4539 4.65623 21.1982 9.23926C21.3838 9.28181 21.5664 9.33892 21.7432 9.41211C22.158 9.58395 22.535 9.83592 22.8525 10.1533C23.1702 10.471 23.4228 10.8487 23.5947 11.2637C23.7666 11.6787 23.8554 12.124 23.8555 12.5732C23.8554 13.0224 23.7666 13.4678 23.5947 13.8828C23.4228 14.2977 23.1701 14.6746 22.8525 14.9922C22.5349 15.3098 22.1582 15.5625 21.7432 15.7344C21.5241 15.8251 21.2963 15.8911 21.0645 15.9346C20.4135 17.6896 19.2675 19.2235 17.7568 20.3428C16.0911 21.5768 14.073 22.2432 12 22.2432C9.92697 22.2432 7.90886 21.5768 6.24316 20.3428C4.73243 19.2234 3.5855 17.6897 2.93457 15.9346C2.26228 15.8082 1.63806 15.4827 1.14746 14.9922C0.505959 14.3506 0.144585 13.4805 0.144531 12.5732C0.144596 11.6659 0.505893 10.7949 1.14746 10.1533C1.60535 9.69564 2.17973 9.38087 2.80078 9.23828C3.54551 4.65571 7.87436 1.75586 12 1.75586ZM12 3.4668C8.37881 3.4668 4.72981 6.14703 4.41895 10.0742C4.38374 10.5188 4.01241 10.8613 3.56641 10.8613C3.11259 10.8613 2.67737 11.0424 2.35645 11.3633C2.03561 11.6842 1.85553 12.1195 1.85547 12.5732C1.85552 13.027 2.03563 13.4623 2.35645 13.7832C2.63731 14.064 3.00565 14.2375 3.39746 14.2764L3.56641 14.2842L3.70508 14.2959C4.02212 14.3479 4.28884 14.5758 4.38477 14.8906C4.88171 16.523 5.88971 17.9529 7.26074 18.9688C8.63194 19.9847 10.2934 20.5332 12 20.5332C13.7066 20.5332 15.3681 19.9847 16.7393 18.9688C18.1103 17.9529 19.1183 16.523 19.6152 14.8906L19.667 14.7607C19.8092 14.4728 20.1045 14.2842 20.4336 14.2842C20.6583 14.2842 20.8812 14.2403 21.0889 14.1543C21.2963 14.0683 21.4847 13.942 21.6436 13.7832C21.8024 13.6243 21.9287 13.4351 22.0146 13.2275C22.1005 13.0201 22.1445 12.7977 22.1445 12.5732C22.1445 12.3486 22.1006 12.1255 22.0146 11.918C21.9287 11.7105 21.8023 11.5221 21.6436 11.3633C21.4848 11.2045 21.2963 11.0782 21.0889 10.9922C20.8813 10.9062 20.6583 10.8613 20.4336 10.8613C19.9876 10.8613 19.6163 10.5188 19.5811 10.0742C19.3569 7.24253 17.3972 5.05923 14.9639 4.06152C15.0436 4.37455 15.076 4.69923 15.0537 5.02441C15.0153 5.58381 14.8235 6.12309 14.5 6.58105C14.1764 7.03885 13.7321 7.39905 13.2178 7.62207C12.7034 7.84491 12.1373 7.92251 11.582 7.8457C11.0266 7.76875 10.5029 7.53991 10.0684 7.18555C9.63382 6.83104 9.30513 6.36368 9.11816 5.83496C8.96084 5.38986 9.19366 4.90163 9.63867 4.74414C10.0836 4.58715 10.572 4.81989 10.7295 5.26465C10.8119 5.49784 10.9578 5.704 11.1494 5.86035C11.3409 6.01649 11.5716 6.11742 11.8164 6.15137C12.0613 6.18521 12.3113 6.15103 12.5381 6.05273C12.7648 5.95436 12.9609 5.79558 13.1035 5.59375C13.2461 5.39186 13.3307 5.15379 13.3477 4.90723C13.3644 4.66071 13.3129 4.41373 13.1992 4.19434C13.0855 3.97495 12.9133 3.79049 12.7021 3.66211C12.491 3.53387 12.247 3.46677 12 3.4668Z" fill="black"/>
</svg>
