<svg width="24" height="25" viewBox="0 0 24 25" fill="none" xmlns="http://www.w3.org/2000/svg">
<path fill-rule="evenodd" clip-rule="evenodd" d="M12.25 0C12.7221 0.000132078 13.1055 0.383347 13.1055 0.855469V4.5H21.25C21.7221 4.50013 22.1055 4.88335 22.1055 5.35547C22.1055 5.82759 21.7221 6.21081 21.25 6.21094H20.6055V8.9248L23.2969 14.9814L23.2988 14.9854L23.3516 15.1279C23.3951 15.274 23.411 15.4273 23.3984 15.5801C23.3817 15.7836 23.3145 15.9802 23.2031 16.1514C23.0917 16.3224 22.939 16.4629 22.7598 16.5605C22.5805 16.6581 22.3799 16.7102 22.1758 16.7109H17.3242C17.12 16.7102 16.9186 16.6582 16.7393 16.5605C16.5601 16.463 16.4082 16.3223 16.2969 16.1514C16.1855 15.9802 16.1183 15.7836 16.1016 15.5801C16.0849 15.3766 16.1192 15.1724 16.2012 14.9854L16.2021 14.9814L18.8945 8.92383V6.21094H13.1055V14.0928C13.1885 14.2166 13.3014 14.3881 13.4355 14.5947C13.7218 15.0355 14.1051 15.6425 14.4893 16.3047C14.8719 16.9644 15.2651 17.6937 15.5645 18.375C15.8483 19.0211 16.1055 19.7471 16.1055 20.3555C16.1055 21.3778 15.6985 22.3581 14.9756 23.0811C14.2979 23.7587 13.394 24.1587 12.4414 24.2061L12.25 24.2109C11.2276 24.2109 10.2474 23.8039 9.52441 23.0811C8.80146 22.3581 8.39453 21.3779 8.39453 20.3555C8.39453 19.7471 8.65167 19.0212 8.93555 18.375C9.23486 17.6937 9.62806 16.9644 10.0107 16.3047C10.3949 15.6425 10.7782 15.0355 11.0645 14.5947C11.1987 14.3881 11.3116 14.2166 11.3945 14.0928V6.21094H5.60547V10.5957C5.81687 10.6439 6.02441 10.7106 6.22559 10.7939C6.69309 10.9877 7.11775 11.272 7.47559 11.6299C7.83342 11.9878 8.11782 12.4123 8.31152 12.8799C8.50523 13.3476 8.60547 13.8493 8.60547 14.3555L8.60059 14.5449C8.57886 14.9864 8.48103 15.4218 8.31152 15.8311C8.11782 16.2986 7.83342 16.7232 7.47559 17.0811C7.11775 17.4389 6.69309 17.7233 6.22559 17.917C5.75795 18.1107 5.25616 18.2109 4.75 18.2109C4.24383 18.2109 3.74207 18.1107 3.27441 17.917C2.80688 17.7233 2.38228 17.4389 2.02441 17.0811C1.66654 16.7232 1.3822 16.2986 1.18848 15.8311C1.01895 15.4218 0.921138 14.9864 0.899414 14.5449L0.894531 14.3555C0.894531 13.8492 0.994745 13.3476 1.18848 12.8799C1.3822 12.4123 1.66654 11.9878 2.02441 11.6299C2.38228 11.272 2.80688 10.9877 3.27441 10.7939C3.47554 10.7106 3.68319 10.6458 3.89453 10.5977V6.21094H3.25C2.7778 6.21094 2.39453 5.82767 2.39453 5.35547C2.39453 4.88327 2.7778 4.5 3.25 4.5H11.3945V0.855469C11.3945 0.383265 11.7778 0 12.25 0ZM12.25 15.916C12.0195 16.2797 11.7531 16.7083 11.4893 17.1631C11.1221 17.796 10.7651 18.4636 10.502 19.0625C10.2234 19.6966 10.1055 20.1354 10.1055 20.3555C10.1055 20.9244 10.3311 21.4698 10.7334 21.8721C11.1357 22.2743 11.6812 22.5 12.25 22.5L12.4619 22.4902C12.9529 22.4415 13.4146 22.224 13.7666 21.8721C14.1688 21.4698 14.3945 20.9243 14.3945 20.3555C14.3945 20.1354 14.2766 19.6966 13.998 19.0625C13.7349 18.4636 13.3779 17.796 13.0107 17.1631C12.7469 16.7083 12.4805 16.2797 12.25 15.916ZM4.75 12.2109C4.46839 12.2109 4.18889 12.2663 3.92871 12.374C3.6687 12.4818 3.43244 12.6399 3.2334 12.8389C3.03436 13.0379 2.87635 13.2742 2.76855 13.5342C2.66076 13.7944 2.60547 14.0738 2.60547 14.3555L2.61523 14.5664C2.63592 14.7757 2.68777 14.9817 2.76855 15.1768C2.87635 15.4368 3.03436 15.673 3.2334 15.8721C3.43244 16.0711 3.6687 16.2291 3.92871 16.3369C4.18889 16.4447 4.46839 16.5 4.75 16.5C5.0316 16.5 5.31112 16.4447 5.57129 16.3369C5.83127 16.2291 6.06759 16.0711 6.2666 15.8721C6.46561 15.673 6.62368 15.4368 6.73145 15.1768C6.83922 14.9165 6.89453 14.6371 6.89453 14.3555L6.88477 14.1445C6.86408 13.9352 6.81222 13.7292 6.73145 13.5342C6.62368 13.2742 6.46561 13.0379 6.2666 12.8389C6.06759 12.6399 5.83127 12.4818 5.57129 12.374C5.37631 12.2933 5.17019 12.2414 4.96094 12.2207L4.75 12.2109ZM18.0654 15H21.4336L19.749 11.21L18.0654 15Z" fill="black"/>
</svg>
