<svg width="24" height="24" viewBox="0 0 24 24" fill="none" xmlns="http://www.w3.org/2000/svg">
<path fill-rule="evenodd" clip-rule="evenodd" d="M12.7065 0.601566C13.9441 0.601661 14.9669 1.62483 14.9673 2.86231C14.9673 3.25702 14.9363 3.9719 14.9224 4.53223C14.9194 4.65112 14.9178 4.76461 14.9165 4.86914C15.0212 4.86781 15.1343 4.86625 15.2534 4.86328C15.8137 4.84933 16.5284 4.81935 16.9233 4.81934C18.1611 4.81934 19.1839 5.84234 19.1841 7.08008C19.1841 7.46895 19.1689 8.18307 19.1616 8.76953C19.1604 8.86704 19.1604 8.96146 19.1597 9.05078C19.2561 9.05033 19.3581 9.05162 19.4634 9.05078C20.0529 9.04609 20.7544 9.03614 21.1411 9.03614C22.3786 9.03639 23.4016 10.0594 23.4019 11.2969C23.4019 12.0647 23.4008 12.579 23.4019 13.1445C23.4036 14.0638 22.8196 14.9193 21.9634 15.2539C21.4418 15.4578 14.9866 17.9753 10.4204 19.7568L8.58545 21.5918C8.57617 21.602 8.56792 21.6133 8.55811 21.6231L8.06104 22.1191C8.05414 22.126 8.04668 22.133 8.03955 22.1397C6.33683 23.7263 3.61705 23.6787 1.97119 22.0332C0.325377 20.3874 0.278014 17.6677 1.86475 15.9648L1.88623 15.9424L2.31787 15.5098C2.33685 15.4863 2.35756 15.4633 2.3794 15.4414L4.2417 13.5781C4.82118 12.0921 8.54814 2.54033 8.74365 2.04004C9.07827 1.18404 9.93397 0.600006 10.853 0.601566C11.4186 0.602659 11.9387 0.601566 12.7065 0.601566ZM2.99756 17.2695C2.16273 18.3046 2.22925 19.8719 3.18018 20.8232C4.13148 21.7742 5.69778 21.8396 6.73291 21.0049L2.99756 17.2695ZM4.19287 16.0449L7.95361 19.8057L8.73193 19.0273L7.71533 18.0107C7.70356 17.9992 7.69137 17.9879 7.68018 17.9756L4.97119 15.2666L4.19287 16.0449ZM19.4771 10.7607C19.1771 10.7631 18.8933 10.7645 18.6792 10.7627C18.6488 10.7624 18.6191 10.7612 18.5903 10.7607L9.61475 17.4922L10.1499 18.0273C14.6893 16.2563 20.8335 13.8606 21.3413 13.6621C21.5406 13.5842 21.6913 13.3614 21.6909 13.1475C21.6898 12.58 21.6909 12.06 21.6909 11.2969C21.6907 11.0038 21.4342 10.7464 21.1411 10.7461C20.7621 10.7461 20.0868 10.7559 19.4771 10.7607ZM16.9233 6.5293C16.5525 6.52932 15.9205 6.5577 15.2964 6.57325C15.01 6.58038 14.7267 6.58422 14.4985 6.5791L7.72803 15.6055L8.39404 16.2715L17.4487 9.4795C17.4471 9.273 17.4483 9.01565 17.4517 8.74805C17.4594 8.13007 17.4741 7.45683 17.4741 7.08008C17.474 6.78674 17.2167 6.5293 16.9233 6.5293ZM10.8501 2.3125C10.6364 2.31215 10.4144 2.46312 10.3364 2.66211C10.1532 3.13094 6.84769 11.6013 5.97119 13.8486L6.50733 14.3848L13.2124 5.44336C13.2102 5.40063 13.2086 5.35748 13.2075 5.31543C13.2014 5.0828 13.206 4.78808 13.2134 4.49024C13.2289 3.86594 13.2573 3.23304 13.2573 2.86231C13.2569 2.56921 12.9997 2.3126 12.7065 2.3125C11.9432 2.3125 11.4177 2.3136 10.8501 2.3125Z" fill="black"/>
</svg>
