<svg width="24" height="24" viewBox="0 0 24 24" fill="none" xmlns="http://www.w3.org/2000/svg">
<path fill-rule="evenodd" clip-rule="evenodd" d="M17.1426 0.00195312C17.6148 0.00195312 17.998 0.385218 17.998 0.857422V0.930664C20.43 1.33813 22.2832 3.45326 22.2832 6.00098C22.2828 8.54823 20.4297 10.661 17.998 11.0684V11.1426C17.998 13.4415 16.8647 15.474 15.1279 16.7178L16.2695 22.9902C16.3537 23.4547 16.0455 23.8999 15.5811 23.9844C15.1166 24.0687 14.6715 23.7603 14.5869 23.2959L14.4033 22.2842H7.88184L7.69824 23.2959C7.61369 23.7602 7.16846 24.0686 6.7041 23.9844C6.2398 23.8998 5.93236 23.4546 6.0166 22.9902L6.3252 21.2871C6.32749 21.2733 6.33006 21.2596 6.33301 21.2461L7.15625 16.7178C5.42003 15.474 4.28711 13.4411 4.28711 11.1426C4.28724 10.6706 4.67057 10.2872 5.14258 10.2871H16.2871V0.857422C16.2871 0.3853 16.6705 0.00208524 17.1426 0.00195312ZM13.5449 17.5635C12.7972 17.8434 11.988 17.998 11.1426 17.998C10.2971 17.998 9.48803 17.8435 8.74023 17.5635L8.19336 20.5732H14.0918L13.5449 17.5635ZM6.06934 11.998C6.47679 14.4322 8.59269 16.287 11.1426 16.2871C13.6926 16.2871 15.8084 14.4323 16.2158 11.998H6.06934ZM17.998 9.32324C19.4785 8.94319 20.5728 7.5999 20.5732 6.00098C20.5732 4.40155 19.4789 3.05678 17.998 2.67676V9.32324Z" fill="black"/>
<path d="M13.7148 6.85938C14.1868 6.85972 14.5693 7.24286 14.5693 7.71484C14.5691 8.18661 14.1866 8.56996 13.7148 8.57031H6.85742C6.38538 8.57031 6.00222 8.18682 6.00195 7.71484C6.00195 7.24264 6.38522 6.85938 6.85742 6.85938H13.7148Z" fill="black"/>
</svg>
