<svg width="24" height="24" viewBox="0 0 24 24" fill="none" xmlns="http://www.w3.org/2000/svg">
<path fill-rule="evenodd" clip-rule="evenodd" d="M12 0.858398C13.9971 0.858445 15.8464 1.22009 17.2285 1.83789C17.9186 2.14643 18.5304 2.53603 18.9805 3.01172C19.2962 3.3455 19.5447 3.74092 19.6689 4.18652C20.3071 5.89044 20.7291 7.653 20.9356 9.43457C20.9729 9.54896 20.9844 9.66838 20.9727 9.78516C21.3108 13.1694 20.8736 16.6125 19.6582 19.8438C19.6478 19.8713 19.6352 19.8985 19.6221 19.9248C19.161 20.847 18.2039 21.647 16.9395 22.21C15.6583 22.7803 13.9934 23.1406 12 23.1406C10.0069 23.1406 8.34266 22.7802 7.06153 22.21C5.79696 21.647 4.84004 20.8471 4.37891 19.9248C4.3657 19.8984 4.35318 19.8714 4.34278 19.8438C3.12747 16.6128 2.68943 13.1701 3.02735 9.78613C3.01533 9.66775 3.02697 9.54653 3.06543 9.43066C3.27112 7.65896 3.68972 5.90603 4.32227 4.21094C4.44394 3.75526 4.69711 3.35163 5.01856 3.01172C5.4685 2.53612 6.08055 2.1464 6.77051 1.83789C8.15268 1.22002 10.0027 0.858428 12 0.858398ZM18.79 16.8574C16.6878 17.8892 14.3594 18.404 12 18.3398C9.6403 18.404 7.31135 17.8895 5.20899 16.8574C5.39991 17.643 5.63697 18.4202 5.92188 19.1846C6.15512 19.6299 6.73019 20.1904 7.75684 20.6475C8.78586 21.1055 10.2071 21.4306 12 21.4307C13.7932 21.4306 15.2151 21.1056 16.2441 20.6475C17.2704 20.1905 17.8448 19.6298 18.0781 19.1846C18.363 18.4203 18.5991 17.6429 18.79 16.8574ZM19.3564 11.1777C17.1153 12.4148 14.5765 13.0363 12 12.96C9.42341 13.0362 6.88381 12.415 4.64258 11.1777C4.59589 12.345 4.64858 13.5153 4.80079 14.6758C6.9447 16.0207 9.44078 16.7041 11.9756 16.6309H12.0244C14.5588 16.704 17.0546 16.0213 19.1982 14.6768C19.3507 13.516 19.4031 12.3454 19.3564 11.1777ZM18.7148 6.83984C18.3013 7.20241 17.7918 7.51086 17.2285 7.7627C15.8464 8.38045 13.9971 8.74116 12 8.74121C10.0026 8.74118 8.1527 8.38062 6.77051 7.7627C6.20711 7.51081 5.69778 7.20252 5.28418 6.83984C5.07468 7.6482 4.9141 8.46601 4.80469 9.28906C6.94009 10.6447 9.4375 11.3309 11.9736 11.251H12.0273C14.5631 11.3308 17.0593 10.6443 19.1943 9.28906C19.085 8.46596 18.9243 7.64826 18.7148 6.83984ZM12 2.57031C10.1858 2.57034 8.58349 2.9006 7.46778 3.39941C6.90931 3.64919 6.50911 3.92497 6.26075 4.1875C6.0926 4.36543 6.01051 4.51857 5.97559 4.64551C5.97246 4.65925 5.96869 4.67283 5.96485 4.68652C5.95645 4.72745 5.95313 4.76593 5.95313 4.80078C5.95333 4.95027 6.01707 5.15642 6.26075 5.41406C6.5092 5.67663 6.90912 5.95236 7.46778 6.20215C8.58349 6.70096 10.1858 7.03122 12 7.03125C13.814 7.0312 15.4156 6.70085 16.5313 6.20215C17.0898 5.95241 17.4898 5.67659 17.7383 5.41406C17.982 5.15638 18.0467 4.95029 18.0469 4.80078C18.0469 4.76585 18.0427 4.72754 18.0342 4.68652C18.0304 4.67285 18.0266 4.65923 18.0234 4.64551C17.9882 4.51859 17.9065 4.36541 17.7383 4.1875C17.4898 3.92489 17.09 3.64925 16.5313 3.39941C15.4156 2.90062 13.8142 2.57036 12 2.57031Z" fill="black"/>
</svg>
