<svg width="24" height="24" viewBox="0 0 24 24" fill="none" xmlns="http://www.w3.org/2000/svg">
<path fill-rule="evenodd" clip-rule="evenodd" d="M5.32361 1.58469C5.76811 1.42555 6.25715 1.65683 6.41638 2.10129L6.71912 2.94699C10.8527 1.87389 15.1927 3.72869 16.5687 7.57004C16.7279 8.01448 16.4965 8.50446 16.0521 8.66379C16.0031 8.68133 15.9533 8.69358 15.9037 8.70188C15.9001 8.70248 15.8965 8.70327 15.8929 8.70383C15.8682 8.70765 15.8434 8.71003 15.8187 8.71164C15.8158 8.71184 15.8129 8.71245 15.8099 8.71262C15.718 8.71764 15.6272 8.70783 15.5404 8.6843L14.7748 8.49387C13.7667 8.24291 12.7058 8.62284 12.0863 9.45676L12.0853 9.45578L11.6068 10.1023C11.401 10.3793 11.0482 10.506 10.7133 10.4226L9.93298 10.2273C9.72284 10.1749 9.51041 10.1512 9.30017 10.1521L11.2006 15.4587C11.4642 15.4419 11.7311 15.4304 12.0004 15.4304C15.4118 15.4305 17.566 16.8401 18.8539 18.2888C19.4889 19.0032 19.9049 19.7177 20.1635 20.2546C20.293 20.5236 20.3849 20.7509 20.4447 20.9148C20.4745 20.9964 20.4967 21.0628 20.5121 21.1111C20.5197 21.1351 20.5253 21.1558 20.5297 21.1706C20.5318 21.1778 20.5341 21.1843 20.5355 21.1892L20.5385 21.198C20.5382 21.1986 20.5191 21.2051 19.7152 21.4284L20.5385 21.1999C20.6098 21.4572 20.5573 21.7334 20.3959 21.946C20.2343 22.1585 19.9821 22.2837 19.7152 22.2839H0.857788C0.516555 22.2839 0.207849 22.0806 0.0726319 21.7673C-0.0624673 21.4539 0.00145103 21.0897 0.235718 20.8415L0.857788 21.4284C0.293863 20.8958 0.240364 20.8463 0.235718 20.8415L0.236694 20.8405L0.238647 20.8396C0.239691 20.8384 0.240958 20.8364 0.242554 20.8347C0.245913 20.8312 0.250572 20.8259 0.256226 20.82C0.267675 20.8082 0.284485 20.7921 0.305054 20.7712C0.346561 20.7291 0.406376 20.6685 0.483765 20.5935C0.638666 20.4434 0.864599 20.232 1.15369 19.9802C1.7315 19.477 2.56829 18.8079 3.60974 18.1384C5.14305 17.1527 7.15617 16.1437 9.46521 15.6853L7.68982 10.7263C7.52511 10.8599 7.37479 11.0148 7.24451 11.1902L6.76501 11.8366C6.55916 12.1135 6.20629 12.2394 5.87146 12.156L5.09119 11.9616C4.08314 11.7107 3.0222 12.0906 2.40271 12.9245L1.94275 13.5427C1.87382 13.6436 1.78331 13.73 1.67419 13.7946C1.66741 13.7987 1.66056 13.8025 1.65369 13.8064C1.61347 13.8287 1.57144 13.8489 1.52673 13.865C1.52528 13.8655 1.52331 13.8654 1.52185 13.8659C1.49674 13.8748 1.47144 13.8829 1.44568 13.8894C1.40347 13.9 1.36101 13.9058 1.31873 13.9099C1.306 13.9111 1.29342 13.9141 1.28064 13.9148H1.1908C1.17013 13.9136 1.14969 13.9106 1.12927 13.9079C1.12406 13.9073 1.11885 13.9067 1.11365 13.906C1.09922 13.9038 1.08494 13.901 1.07068 13.8982C0.95005 13.8743 0.832193 13.825 0.726929 13.7468C0.560204 13.6229 0.451057 13.4498 0.40564 13.2624C-0.907811 9.44374 1.26235 5.30438 5.10974 3.52316L4.80701 2.67746C4.64794 2.23296 4.87912 1.74387 5.32361 1.58469ZM12.0004 17.1413C9.08555 17.1414 6.46247 18.3375 4.53455 19.5769C4.00482 19.9174 3.53325 20.2595 3.12732 20.5739H18.3978C18.1974 20.2241 17.9296 19.8239 17.5756 19.4255C16.5778 18.303 14.8739 17.1414 12.0004 17.1413ZM14.1693 6.70969C12.5803 4.64368 9.50326 3.72526 6.47791 4.80832C3.45303 5.89157 1.65703 8.55412 1.73962 11.1589C2.77218 10.3048 4.16546 9.96908 5.50427 10.3025L5.73181 10.3591L5.87244 10.1706C6.90359 8.7826 8.6682 8.15028 10.3461 8.56809L10.5736 8.62473L10.7142 8.43625L10.9154 8.18527C11.7394 7.23411 12.9332 6.7048 14.1693 6.70969Z" fill="black"/>
<path fill-rule="evenodd" clip-rule="evenodd" d="M21.0004 1.71652C21.7953 1.71664 22.5584 2.03332 23.1205 2.59543C23.6822 3.15751 23.9983 3.91988 23.9984 4.71457C23.9983 5.5095 23.6826 6.27257 23.1205 6.83469C22.5584 7.39679 21.7953 7.7125 21.0004 7.71262C20.2057 7.71254 19.4433 7.39645 18.8812 6.83469C18.3191 6.27257 18.0024 5.50952 18.0023 4.71457C18.0024 3.91959 18.3191 3.15757 18.8812 2.59543C19.4434 2.03331 20.2054 1.7166 21.0004 1.71652ZM21.0004 3.42746C20.6589 3.42753 20.3317 3.56298 20.0902 3.80441C19.8488 4.04587 19.7133 4.37311 19.7133 4.71457C19.7134 5.056 19.8488 5.38427 20.0902 5.6257C20.3316 5.86677 20.6592 6.00258 21.0004 6.00266C21.3418 6.00254 21.6701 5.86712 21.9115 5.6257C22.1529 5.38427 22.2884 5.05598 22.2885 4.71457C22.2884 4.3734 22.1526 4.04581 21.9115 3.80441C21.6701 3.563 21.3418 3.42758 21.0004 3.42746Z" fill="black"/>
</svg>
