<svg width="24" height="24" viewBox="0 0 24 24" fill="none" xmlns="http://www.w3.org/2000/svg">
<path fill-rule="evenodd" clip-rule="evenodd" d="M10.2861 0.00195312C12.5286 0.0021616 14.4339 1.43841 15.1367 3.44043C15.2331 3.43392 15.3308 3.43067 15.4287 3.43066C17.7943 3.43093 19.7129 5.34926 19.7129 7.71484C19.7128 8.68022 19.3926 9.57085 18.8535 10.2871H19.7148C21.1335 10.2873 22.2838 11.4379 22.2842 12.8564V18C22.284 19.4187 21.1336 20.5691 19.7148 20.5693H17.1416V21.4287C17.1414 22.8473 15.9908 23.9977 14.5723 23.998H6C4.58137 23.9978 3.43089 22.8474 3.43066 21.4287V14.5713C3.43067 14.5638 3.43145 14.5563 3.43164 14.5488V11.6406C1.91866 10.98 0.858608 9.47236 0.858398 7.71484C0.858398 5.34909 2.7778 3.43066 5.14355 3.43066C5.24111 3.43068 5.33849 3.43396 5.43457 3.44043C6.13733 1.43809 8.04338 0.00201243 10.2861 0.00195312ZM15.4287 11.998H10.2842V14.5713C10.284 16.4634 8.74949 17.9978 6.85742 17.998C6.23226 17.998 5.64609 17.8297 5.1416 17.5371V21.4287C5.14183 21.903 5.52576 22.2869 6 22.2871H14.5723C15.0464 22.2868 15.4304 21.9029 15.4307 21.4287V11.9971L15.4287 11.998ZM17.1416 18.8594H19.7148C20.1892 18.8592 20.5741 18.4743 20.5742 18V12.8564C20.5739 12.3823 20.189 11.9983 19.7148 11.998H17.1416V18.8594ZM10.2861 1.71289C8.59225 1.71296 7.18337 2.94095 6.90527 4.55566C6.86425 4.79363 6.72443 5.0035 6.52051 5.13281C6.31651 5.26204 6.06669 5.29885 5.83398 5.23438C5.6154 5.17368 5.38375 5.14068 5.14355 5.14062C3.72221 5.14062 2.57031 6.2935 2.57031 7.71484C2.57055 8.91249 3.38919 9.92121 4.49902 10.207C4.87656 10.3045 5.1416 10.6452 5.1416 11.0352V14.5713C5.14173 15.519 5.90967 16.2879 6.85742 16.2881C7.80508 16.2878 8.57409 15.519 8.57422 14.5713V11.1436C8.57422 10.6715 8.9567 10.2883 9.42871 10.2881H15.4287C16.8497 10.2878 18.0026 9.13579 18.0029 7.71484C18.0029 6.29365 16.8499 5.14089 15.4287 5.14062C15.1886 5.14066 14.9569 5.1737 14.7383 5.23438C14.5056 5.29896 14.2558 5.26189 14.0518 5.13281C13.8479 5.00353 13.7081 4.79358 13.667 4.55566C13.3889 2.9411 11.9798 1.71313 10.2861 1.71289Z" fill="black"/>
</svg>
