<svg width="24" height="24" viewBox="0 0 24 24" fill="none" xmlns="http://www.w3.org/2000/svg">
<path fill-rule="evenodd" clip-rule="evenodd" d="M21.4287 2.57324C22.3742 2.57337 23.1416 3.34062 23.1416 4.28613V7.71484C23.1412 8.66005 22.374 9.42663 21.4287 9.42676H20.5693V12.002H22.2861C23.2315 12.002 23.998 12.7693 23.998 13.7148V16.2861C23.9978 17.2314 23.2315 17.998 22.2861 17.998H22.2842V20.5713C22.2841 21.0434 21.9009 21.4258 21.4287 21.4258C20.9567 21.4256 20.5733 21.0433 20.5732 20.5713V17.998H3.42773V20.5713C3.42766 21.0433 3.0442 21.4255 2.57227 21.4258C2.10011 21.4258 1.71687 21.0434 1.7168 20.5713V17.998H1.71484C0.769334 17.998 0.00216076 17.2314 0.00195312 16.2861V13.7148C0.00195312 12.7693 0.769251 12.002 1.71484 12.002H3.43066V9.42676H2.57227C1.6269 9.42676 0.859733 8.66013 0.859375 7.71484V4.28613C0.859375 3.34054 1.62668 2.57324 2.57227 2.57324H21.4287ZM22.2861 13.7129H1.71484L1.71387 13.7119L1.71191 13.7139L1.71289 13.7148V16.2861C1.71325 16.2869 1.71285 16.2874 1.71289 16.2861L1.71387 16.2881H2.55469C2.56037 16.288 2.56655 16.2871 2.57227 16.2871C2.57814 16.2871 2.58399 16.288 2.58984 16.2881H21.4111C21.417 16.288 21.4228 16.2871 21.4287 16.2871C21.4345 16.2871 21.4405 16.288 21.4463 16.2881H22.2861L22.2881 16.2861V13.7139L22.2861 13.7129C22.2877 13.7129 22.287 13.7133 22.2861 13.7129ZM5.1416 9.42676V12.002H18.8594V9.42676H5.1416ZM21.4287 4.28418H2.57227L2.57129 4.2832L2.56934 4.28516L2.57031 7.71484L2.57129 7.7168H4.26855C4.27432 7.71668 4.28034 7.71582 4.28613 7.71582C4.29201 7.71582 4.29786 7.71668 4.30371 7.7168H19.6973C19.703 7.71668 19.709 7.71582 19.7148 7.71582C19.7207 7.71582 19.7266 7.71668 19.7324 7.7168H21.4297L21.4316 7.71484V4.28516L21.4297 4.2832C21.4303 4.28356 21.4301 4.28414 21.4287 4.28418Z" fill="black"/>
</svg>
