<svg width="24" height="24" viewBox="0 0 24 24" fill="none" xmlns="http://www.w3.org/2000/svg">
<path fill-rule="evenodd" clip-rule="evenodd" d="M20.5723 9.43001C21.9909 9.43029 23.1413 10.5808 23.1416 11.9993V20.5716C23.1414 21.9902 21.9909 23.1407 20.5723 23.1409H3.42871C2.01008 23.1407 0.859601 21.9903 0.859375 20.5716V11.9993C0.859683 10.5808 2.01012 9.43024 3.42871 9.43001H20.5723ZM18 17.4202C17.2934 18.2949 16.2129 18.8556 15.001 18.8558C13.7887 18.8558 12.7067 18.2952 12 17.4202C11.2934 18.2949 10.2129 18.8556 9.00098 18.8558C7.78869 18.8558 6.70669 18.2952 6 17.4202C5.29344 18.2949 4.21286 18.8556 3.00098 18.8558H2.57031V20.5716C2.57054 21.0459 2.95447 21.4298 3.42871 21.43H20.5723C21.0465 21.4297 21.4314 21.0458 21.4316 20.5716V18.8558H21.001C19.7887 18.8558 18.7067 18.2952 18 17.4202ZM3.42871 11.1409C2.95453 11.1412 2.57062 11.5252 2.57031 11.9993V17.1449H3.00098C4.18521 17.1445 5.14533 16.1846 5.14551 15.0003C5.14551 14.5281 5.52877 14.1449 6.00098 14.1449C6.47288 14.1452 6.85547 14.5283 6.85547 15.0003C6.85565 16.1848 7.81644 17.1449 9.00098 17.1449C10.1852 17.1445 11.1453 16.1846 11.1455 15.0003C11.1455 14.5281 11.5288 14.1449 12.001 14.1449C12.4729 14.1452 12.8555 14.5283 12.8555 15.0003C12.8557 16.1848 13.8164 17.1449 15.001 17.1449C16.1852 17.1445 17.1453 16.1846 17.1455 15.0003C17.1455 14.5281 17.5288 14.1449 18.001 14.1449C18.4729 14.1452 18.8555 14.5283 18.8555 15.0003C18.8557 16.1848 19.8164 17.1449 21.001 17.1449H21.4316V11.9993C21.4313 11.5252 21.0464 11.1412 20.5723 11.1409H3.42871Z" fill="black"/>
<path fill-rule="evenodd" clip-rule="evenodd" d="M3.43066 0.972979C3.7381 0.795746 4.13114 0.825547 4.41016 1.06185L4.41113 1.06282L4.41406 1.06478C4.41556 1.06605 4.4176 1.06767 4.41992 1.06966C4.42507 1.07407 4.43251 1.08051 4.44141 1.08821C4.45951 1.10389 4.48564 1.12628 4.51758 1.15462C4.58147 1.21131 4.67124 1.29325 4.77832 1.39388C4.99149 1.59423 5.27891 1.87717 5.56836 2.20247C5.85493 2.52458 6.16138 2.90732 6.40039 3.30794C6.62773 3.68901 6.85543 4.18655 6.85547 4.71419C6.85547 6.36979 5.51299 7.71211 3.85742 7.71224C2.20187 7.71209 0.859375 6.36978 0.859375 4.71419C0.859419 4.18652 1.08808 3.68901 1.31543 3.30794C1.55447 2.90734 1.86091 2.52454 2.14746 2.20247C2.43698 1.87711 2.72434 1.5942 2.9375 1.39388C3.04455 1.29328 3.13438 1.21127 3.19824 1.15462C3.23 1.12645 3.25541 1.10383 3.27344 1.08821C3.28239 1.08046 3.28976 1.07408 3.29492 1.06966C3.29745 1.06754 3.30021 1.06609 3.30176 1.06478L3.30469 1.06185L3.43066 0.972979ZM3.85742 2.88314C3.72154 3.01854 3.57232 3.17341 3.4248 3.33919C3.17609 3.61874 2.94673 3.91158 2.78418 4.18392C2.6099 4.47603 2.57037 4.65006 2.57031 4.71419C2.57031 5.42537 3.14628 6.00213 3.85742 6.00228C4.56858 6.00214 5.14551 5.42538 5.14551 4.71419C5.14545 4.65006 5.10592 4.47603 4.93164 4.18392C4.76902 3.91138 4.53896 3.61895 4.29004 3.33919C4.14238 3.17324 3.99342 3.01865 3.85742 2.88314Z" fill="black"/>
<path fill-rule="evenodd" clip-rule="evenodd" d="M11.5732 0.972979C11.8806 0.795632 12.2737 0.825651 12.5527 1.06185L12.5537 1.06282L12.5566 1.06478C12.5581 1.06602 12.5602 1.06773 12.5625 1.06966C12.5676 1.07404 12.5751 1.08056 12.584 1.08821C12.602 1.10386 12.6283 1.12634 12.6602 1.15462C12.724 1.21127 12.8139 1.2933 12.9209 1.39388C13.134 1.59419 13.4215 1.87723 13.7109 2.20247C13.9975 2.52453 14.304 2.90739 14.543 3.30794C14.7703 3.68901 14.998 4.18655 14.998 4.71419C14.998 6.36987 13.6557 7.71224 12 7.71224C10.3446 7.71195 9.00195 6.36969 9.00195 4.71419C9.002 4.18652 9.23066 3.68901 9.45801 3.30794C9.69706 2.90728 10.0034 2.52459 10.29 2.20247C10.5796 1.87706 10.8669 1.59424 11.0801 1.39388C11.1872 1.29323 11.2769 1.21131 11.3408 1.15462C11.3726 1.1264 11.398 1.10386 11.416 1.08821C11.425 1.08041 11.4323 1.07411 11.4375 1.06966C11.4401 1.06746 11.4427 1.06611 11.4443 1.06478L11.4473 1.06185L11.5732 0.972979ZM12 2.88314C11.8641 3.01858 11.7149 3.17336 11.5674 3.33919C11.3186 3.6188 11.0893 3.91153 10.9268 4.18392C10.7525 4.47603 10.713 4.65006 10.7129 4.71419C10.7129 5.42529 11.289 6.00199 12 6.00228C12.7113 6.00228 13.2881 5.42546 13.2881 4.71419C13.288 4.65006 13.2485 4.47603 13.0742 4.18392C12.9116 3.91143 12.6815 3.61889 12.4326 3.33919C12.285 3.1733 12.136 3.01861 12 2.88314Z" fill="black"/>
<path fill-rule="evenodd" clip-rule="evenodd" d="M19.7168 0.972979C20.0242 0.795863 20.4173 0.825594 20.6963 1.06185L20.6973 1.06282L20.7002 1.06478C20.7017 1.06602 20.7038 1.06773 20.7061 1.06966C20.7112 1.07407 20.7187 1.08058 20.7275 1.08821C20.7456 1.10389 20.7719 1.12636 20.8037 1.15462C20.8676 1.2113 20.9574 1.29332 21.0645 1.39388C21.2776 1.59422 21.5651 1.87723 21.8545 2.20247C22.141 2.52455 22.4475 2.90737 22.6865 3.30794C22.9138 3.68899 23.1416 4.18659 23.1416 4.71419C23.1416 6.36969 21.7991 7.71197 20.1436 7.71224C18.4879 7.71209 17.1455 6.36976 17.1455 4.71419C17.1456 4.18652 17.3742 3.68901 17.6016 3.30794C17.8406 2.90738 18.1471 2.52451 18.4336 2.20247C18.7231 1.87717 19.0105 1.59417 19.2236 1.39388C19.3306 1.29334 19.4205 1.21125 19.4844 1.15462C19.5161 1.12651 19.5416 1.1038 19.5596 1.08821C19.5685 1.08052 19.5759 1.07406 19.5811 1.06966C19.5835 1.06761 19.5864 1.06607 19.5879 1.06478L19.5908 1.06185L19.7168 0.972979ZM20.1436 2.88314C20.0077 3.01851 19.8584 3.17346 19.7109 3.33919C19.4623 3.6187 19.2329 3.91161 19.0703 4.18392C18.896 4.47603 18.8565 4.65006 18.8564 4.71419C18.8564 5.42539 19.4324 6.00213 20.1436 6.00228C20.8547 6.00201 21.4316 5.42532 21.4316 4.71419C21.4316 4.65007 21.392 4.47597 21.2178 4.18392C21.0552 3.91142 20.8251 3.61891 20.5762 3.33919C20.4286 3.17329 20.2795 3.01862 20.1436 2.88314Z" fill="black"/>
</svg>
