<svg width="24" height="24" viewBox="0 0 24 24" fill="none" xmlns="http://www.w3.org/2000/svg">
<path d="M18 3.71582C18.472 3.71602 18.8553 4.09932 18.8555 4.57129C18.8555 5.04337 18.472 5.42656 18 5.42676H6C5.5278 5.42676 5.14453 5.04349 5.14453 4.57129C5.14466 4.0992 5.52788 3.71582 6 3.71582H18Z" fill="black"/>
<path fill-rule="evenodd" clip-rule="evenodd" d="M19.7139 0.00195312C21.1326 0.00208511 22.283 1.15259 22.2832 2.57129V21.4287C22.2831 22.8475 21.1326 23.9979 19.7139 23.998H4.28516C2.86645 23.9978 1.71595 22.8474 1.71582 21.4287V2.57129C1.71605 1.15264 2.86651 0.00217923 4.28516 0.00195312H19.7139ZM4.28516 1.71289C3.81092 1.71312 3.42698 2.09705 3.42676 2.57129V21.4287C3.42689 21.903 3.81086 22.2879 4.28516 22.2881H19.7139C20.1882 22.288 20.5731 21.9031 20.5732 21.4287V2.57129C20.573 2.09699 20.1882 1.71302 19.7139 1.71289H4.28516Z" fill="black"/>
</svg>
