<svg width="24" height="24" viewBox="0 0 24 24" fill="none" xmlns="http://www.w3.org/2000/svg">
<path fill-rule="evenodd" clip-rule="evenodd" d="M13.7139 0.00195312C14.1861 0.00195332 14.5693 0.385219 14.5693 0.857422V6.04297C14.5694 6.42054 14.672 6.79146 14.8662 7.11523L16.5996 10.0049C16.9533 10.5944 17.1406 11.2695 17.1406 11.957V20.2041C17.1405 22.2992 15.4418 23.998 13.3467 23.998H10.6523C8.55743 23.9978 6.85853 22.2991 6.8584 20.2041V11.957C6.85842 11.2696 7.04578 10.5944 7.39941 10.0049L9.13379 7.11523C9.3279 6.79155 9.43062 6.4204 9.43066 6.04297V0.857422C9.43066 0.385346 9.81313 0.00216049 10.2852 0.00195312H13.7139ZM8.56934 19.7129V20.2041C8.56947 21.3546 9.50184 22.2878 10.6523 22.2881H13.3467C14.4974 22.288 15.4305 21.3548 15.4307 20.2041V19.7129H8.56934ZM8.56934 18.002H15.4307V13.7129H8.56934V18.002ZM11.1406 6.04297C11.1406 6.73044 10.9533 7.4056 10.5996 7.99512L8.86621 10.8848C8.67203 11.2085 8.56935 11.5795 8.56934 11.957V12.002H15.4307V11.957C15.4306 11.5794 15.3281 11.2086 15.1338 10.8848L13.3994 7.99512C13.0458 7.40562 12.8584 6.73041 12.8584 6.04297V1.71289H11.1406V6.04297Z" fill="black"/>
</svg>
