<svg width="24" height="24" viewBox="0 0 24 24" fill="none" xmlns="http://www.w3.org/2000/svg">
<path fill-rule="evenodd" clip-rule="evenodd" d="M12 0.00195312C18.6262 0.00195312 23.9979 5.3739 23.998 12C23.9979 18.6262 18.6262 23.998 12 23.998C10.2124 23.998 8.51442 23.605 6.98828 22.9023L1.00977 23.9844C0.707057 24.039 0.398198 23.9267 0.201172 23.6904C0.00427639 23.4543 -0.0512062 23.1306 0.0566406 22.8428L1.77344 18.2754C0.650714 16.4493 0.00199905 14.2991 0.00195312 12C0.00210413 5.37407 5.3741 0.00223608 12 0.00195312ZM12 1.71289C6.31851 1.71317 1.71304 6.31848 1.71289 12C1.71294 14.0841 2.33173 16.0214 3.39551 17.6406C3.57665 17.8694 3.63515 18.1844 3.52344 18.4766L3.52441 18.4775L2.1875 22.0332L6.95312 21.1719L6.96191 21.1699L6.9707 21.1689C7.18209 21.1329 7.38873 21.1779 7.55859 21.2812C8.90223 21.9255 10.4076 22.288 12 22.2881C17.6818 22.2881 22.288 17.6818 22.2881 12C22.2879 6.3183 17.6818 1.71289 12 1.71289Z" fill="black"/>
</svg>
