<svg width="24" height="24" viewBox="0 0 24 24" fill="none" xmlns="http://www.w3.org/2000/svg">
<path d="M7.73047 16.1172C8.20267 16.1172 8.58594 16.5005 8.58594 16.9727C8.58581 17.4447 8.20259 17.8281 7.73047 17.8281H6.50684C6.03483 17.828 5.6515 17.4447 5.65137 16.9727C5.65137 16.5005 6.03474 16.1173 6.50684 16.1172H7.73047Z" fill="black"/>
<path d="M17.5146 16.1172C17.9866 16.1175 18.3701 16.5006 18.3701 16.9727C18.37 17.4446 17.9865 17.8279 17.5146 17.8281H16.291C15.8189 17.8281 15.4357 17.4447 15.4355 16.9727C15.4355 16.5005 15.8188 16.1172 16.291 16.1172H17.5146Z" fill="black"/>
<path fill-rule="evenodd" clip-rule="evenodd" d="M16.665 0.599609C19.0308 0.599609 20.9482 2.51903 20.9482 4.88477V5.80371H21.3711C22.655 5.80398 23.6963 6.84586 23.6963 8.12988V10.1182C23.6959 10.5898 23.3135 10.9723 22.8418 10.9727C22.3698 10.9727 21.9867 10.59 21.9863 10.1182V8.12988C21.9863 7.79019 21.7105 7.51491 21.3711 7.51465H20.9482V18.3428C20.948 19.7613 19.7978 20.9121 18.3789 20.9121H18.3701V22.9082C18.3701 23.3803 17.9867 23.7626 17.5146 23.7627C17.0425 23.7627 16.6592 23.3804 16.6592 22.9082V20.9121H7.3623V22.9082C7.36229 23.3804 6.97903 23.7627 6.50684 23.7627C6.03475 23.7626 5.65138 23.3803 5.65137 22.9082V20.9121H5.61914C4.20059 20.9118 3.05007 19.7611 3.0498 18.3428V7.51465H2.64551C2.3058 7.51478 2.03027 7.79014 2.03027 8.12988V10.1182C2.02987 10.59 1.64676 10.9727 1.1748 10.9727C0.702962 10.9725 0.31974 10.5899 0.319336 10.1182V8.12988C0.319336 6.84574 1.36139 5.80384 2.64551 5.80371H3.0498V4.88477C3.0498 2.5191 4.96834 0.599741 7.33398 0.599609H16.665ZM4.76074 18.3428C4.76101 18.8168 5.14509 19.2018 5.61914 19.2021H6.48926C6.49511 19.202 6.50096 19.2012 6.50684 19.2012C6.51263 19.2012 6.51864 19.202 6.52441 19.2021H17.4971C17.5028 19.202 17.5089 19.2012 17.5146 19.2012C17.5205 19.2012 17.5264 19.202 17.5322 19.2021H18.3789C18.8533 19.2021 19.238 18.817 19.2383 18.3428V14.8418H4.76074V18.3428ZM4.76074 13.1309H19.2383V7.51465H4.76074V13.1309ZM7.33398 2.31152C5.91275 2.31166 4.76074 3.4635 4.76074 4.88477V5.80371H19.2383V4.88477C19.2383 3.4634 18.0864 2.31152 16.665 2.31152H7.33398Z" fill="black"/>
</svg>
