<svg width="24" height="24" viewBox="0 0 24 24" fill="none" xmlns="http://www.w3.org/2000/svg">
<path fill-rule="evenodd" clip-rule="evenodd" d="M8.57129 12.8594C9.99 12.8595 11.1404 14.01 11.1406 15.4287V20.5723C11.1402 21.9908 9.98988 23.1415 8.57129 23.1416H3.42773C2.00921 23.1414 0.858813 21.9908 0.858398 20.5723V15.4287C0.858624 14.0101 2.00909 12.8596 3.42773 12.8594H8.57129ZM3.42773 14.5703C2.9535 14.5705 2.56956 14.9545 2.56934 15.4287V20.5723C2.56975 21.0463 2.95361 21.4314 3.42773 21.4316H8.57129C9.04548 21.4315 9.43025 21.0464 9.43066 20.5723V15.4287C9.43044 14.9544 9.04559 14.5705 8.57129 14.5703H3.42773Z" fill="black"/>
<path d="M16.2852 0.00195312C16.9664 0.00195312 17.6198 0.273129 18.1016 0.754883C18.5831 1.23653 18.8544 1.88993 18.8545 2.57129V3.71094L21.5713 2.24805L21.6689 2.20312C21.9293 2.10264 22.2104 2.06675 22.4873 2.09961C22.764 2.13252 23.0291 2.23274 23.2588 2.3916L23.4229 2.52051C23.5781 2.65861 23.7072 2.82436 23.8037 3.00977C23.9312 3.25507 23.998 3.52839 23.9971 3.80566V11.6172L23.9863 11.8252C23.9624 12.0321 23.9002 12.2335 23.8037 12.4189C23.675 12.6662 23.488 12.8786 23.2588 13.0371C23.0291 13.1959 22.764 13.2962 22.4873 13.3291C22.2105 13.3619 21.9292 13.327 21.6689 13.2266C21.6356 13.2137 21.6027 13.1986 21.5713 13.1816L18.8545 11.7178V12.8574C18.8544 13.5388 18.5832 14.1921 18.1016 14.6738C17.6198 15.1555 16.9664 15.4268 16.2852 15.4268H14.7822C14.3102 15.4266 13.9269 15.0433 13.9268 14.5713C13.927 14.0994 14.3103 13.7169 14.7822 13.7168H16.2852C16.513 13.7168 16.7316 13.6258 16.8926 13.4648C17.0537 13.3037 17.1445 13.0851 17.1445 12.8574V10.2861C17.1445 9.98527 17.3033 9.7061 17.5615 9.55176C17.8198 9.39769 18.1405 9.39056 18.4053 9.5332L22.2871 11.624V3.80371L18.4053 5.89551C18.1404 6.03807 17.8198 6.03109 17.5615 5.87695C17.3033 5.72275 17.1448 5.44425 17.1445 5.14355V2.57129C17.1444 2.34363 17.0537 2.125 16.8926 1.96387C16.7316 1.80289 16.513 1.71289 16.2852 1.71289H5.99902C5.77137 1.71307 5.5526 1.80287 5.3916 1.96387C5.23071 2.1249 5.14074 2.34366 5.14062 2.57129V8.72852C5.14049 9.20061 4.75728 9.58398 4.28516 9.58398C3.81315 9.58385 3.42982 9.20053 3.42969 8.72852V2.57129C3.4298 1.89012 3.70106 1.23659 4.18262 0.754883C4.6643 0.273214 5.31784 0.00212866 5.99902 0.00195312H16.2852Z" fill="black"/>
</svg>
