<svg width="24" height="24" viewBox="0 0 24 24" fill="none" xmlns="http://www.w3.org/2000/svg">
<path fill-rule="evenodd" clip-rule="evenodd" d="M12.6855 5.23633C13.1578 5.23633 13.541 5.61959 13.541 6.0918V10.2061C13.5408 10.678 13.1576 11.0615 12.6855 11.0615H4.45703C3.9851 11.0614 3.60183 10.678 3.60156 10.2061V6.0918C3.60156 5.61967 3.98494 5.23646 4.45703 5.23633H12.6855ZM9.42676 9.35156H11.8311V6.94727H9.42676V9.35156ZM5.3125 9.35156H7.71582V6.94727H5.3125V9.35156Z" fill="black"/>
<path fill-rule="evenodd" clip-rule="evenodd" d="M12.6865 2.49316C14.3679 2.49336 15.981 3.16168 17.1699 4.35059C18.3588 5.53959 19.0272 7.15257 19.0273 8.83398V17.5791H22.2861C22.7582 17.5792 23.1416 17.9624 23.1416 18.4346C23.1413 18.9065 22.7581 19.2899 22.2861 19.29L10.6943 19.2891C10.5392 19.9233 10.2135 20.5092 9.74414 20.9785C9.0695 21.6531 8.15424 22.0321 7.2002 22.0322C6.24622 22.0322 5.33089 21.653 4.65625 20.9785C4.18701 20.5092 3.86147 19.9232 3.70605 19.2891H3.08594C2.49574 19.289 1.92914 19.0549 1.51172 18.6377C1.09418 18.2202 0.858398 17.653 0.858398 17.0625V4.71973C0.858487 4.12936 1.09426 3.56297 1.51172 3.14551C1.92915 2.7282 2.49569 2.49325 3.08594 2.49316H12.6865ZM7.2002 16.5469C6.69959 16.5469 6.21922 16.7456 5.86523 17.0996C5.51127 17.4536 5.3125 17.9339 5.3125 18.4346C5.31258 18.9351 5.51134 19.4156 5.86523 19.7695C6.21919 20.1233 6.69974 20.3222 7.2002 20.3223C7.70072 20.3222 8.1812 20.1234 8.53516 19.7695C8.88913 19.4156 9.08781 18.9352 9.08789 18.4346C9.08789 17.934 8.88901 17.4536 8.53516 17.0996C8.1812 16.7457 7.70072 16.547 7.2002 16.5469ZM3.08594 4.2041C2.94921 4.20419 2.81745 4.25788 2.7207 4.35449C2.62393 4.45126 2.5704 4.58288 2.57031 4.71973V17.0625C2.57031 17.1993 2.62409 17.3309 2.7207 17.4277C2.81745 17.5244 2.94921 17.579 3.08594 17.5791H3.70605C3.86154 16.9453 4.18718 16.3597 4.65625 15.8906C5.33092 15.216 6.24607 14.836 7.2002 14.8359C8.15424 14.836 9.0695 15.216 9.74414 15.8906C10.2131 16.3597 10.5391 16.9452 10.6943 17.5791H17.3174V8.83398C17.3173 7.60609 16.8291 6.42789 15.9609 5.55957C15.0927 4.69135 13.9144 4.2043 12.6865 4.2041H3.08594Z" fill="black"/>
</svg>
