<svg width="24" height="24" viewBox="0 0 24 24" fill="none" xmlns="http://www.w3.org/2000/svg">
<path fill-rule="evenodd" clip-rule="evenodd" d="M4.44531 1.22131C4.71767 0.835723 5.25102 0.74397 5.63672 1.01623L17.0713 9.08752H21.3711C21.8401 9.08752 22.2903 9.27437 22.6221 9.60607C22.9538 9.93776 23.1406 10.3879 23.1406 10.857V21.3717C23.1406 21.8409 22.9538 22.291 22.6221 22.6227C22.2904 22.9542 21.8402 23.1412 21.3711 23.1412H17.7139C17.2448 23.1411 16.7945 22.9543 16.4629 22.6227C16.1313 22.291 15.9444 21.8408 15.9443 21.3717V10.3844L4.65039 2.41271C4.26478 2.14036 4.17305 1.60702 4.44531 1.22131ZM17.6553 21.2672V21.3717C17.6553 21.3872 17.6609 21.4026 17.6719 21.4137C17.6829 21.4247 17.6984 21.4311 17.7139 21.4313H21.3711C21.3866 21.4313 21.402 21.4246 21.4131 21.4137C21.4241 21.4026 21.4306 21.3873 21.4307 21.3717V17.4918L17.6553 21.2672ZM17.6553 17.1529V18.8492L21.4307 15.0738V13.3776L17.6553 17.1529ZM17.6553 14.735L21.4307 10.9596V10.857C21.4306 10.8493 21.4287 10.8417 21.4258 10.8346L21.4131 10.8151C21.4021 10.8041 21.3868 10.7985 21.3711 10.7985H17.6553V14.735Z" fill="black"/>
<path fill-rule="evenodd" clip-rule="evenodd" d="M6.44043 9.08752C6.90769 9.08761 7.36415 9.23514 7.74316 9.50842C8.11049 9.7734 8.38698 10.1446 8.53809 10.5709L9.53223 13.1227L11.0615 14.652C11.4783 15.0693 11.7128 15.6354 11.7129 16.2252V18.1715C11.7129 18.7619 11.478 19.3282 11.0605 19.7457C10.8528 19.9535 10.6078 20.1153 10.3418 20.2262V20.9137C10.3418 21.504 10.1068 22.0704 9.68945 22.4879C9.27203 22.9053 8.70555 23.1401 8.11523 23.1403C7.52495 23.1402 6.95845 22.9053 6.54102 22.4879C6.12369 22.0704 5.88867 21.504 5.88867 20.9137V20.3981H1.71484C1.24268 20.3981 0.859438 20.0147 0.859375 19.5426C0.859631 19.0706 1.2428 18.6881 1.71484 18.6881H6.72656C6.73225 18.688 6.73843 18.6871 6.74414 18.6871H9.49219C9.62692 18.6855 9.75617 18.6321 9.85156 18.5367C9.94828 18.4399 10.0029 18.3083 10.0029 18.1715V16.2252C10.0029 16.0885 9.94818 15.9567 9.85156 15.86L8.44727 14.4557H1.71484C1.24268 14.4557 0.859438 14.0724 0.859375 13.6002C0.859375 13.128 1.24264 12.7447 1.71484 12.7447H7.5498L6.94531 11.191C6.9402 11.1779 6.93512 11.1644 6.93066 11.151C6.89644 11.0484 6.83086 10.9585 6.74316 10.8951C6.6553 10.8318 6.54875 10.7985 6.44043 10.7985H1.71484C1.24268 10.7985 0.859438 10.4151 0.859375 9.94299C0.859375 9.47078 1.24264 9.08752 1.71484 9.08752H6.44043ZM7.59961 20.9137C7.59961 21.0505 7.65336 21.1821 7.75 21.2789C7.84675 21.3756 7.97848 21.4302 8.11523 21.4303C8.25202 21.4302 8.38373 21.3757 8.48047 21.2789C8.57713 21.1821 8.63184 21.0505 8.63184 20.9137V20.3981H7.59961V20.9137Z" fill="black"/>
<path d="M8.11523 15.4869C8.58717 15.4872 8.97063 15.8704 8.9707 16.3424C8.9707 16.8144 8.58721 17.1976 8.11523 17.1979H6.74414C6.27194 17.1979 5.88867 16.8146 5.88867 16.3424C5.88874 15.8703 6.27198 15.4869 6.74414 15.4869H8.11523Z" fill="black"/>
</svg>
