<svg width="24" height="24" viewBox="0 0 24 24" fill="none" xmlns="http://www.w3.org/2000/svg">
<path d="M7.75488 15.4873C8.22697 15.4874 8.61035 15.8707 8.61035 16.3428C8.61022 16.8148 8.22689 17.1981 7.75488 17.1982H6.38379C5.91167 17.1982 5.52845 16.8149 5.52832 16.3428C5.52832 15.8706 5.91159 15.4873 6.38379 15.4873H7.75488Z" fill="black"/>
<path d="M17.6162 15.4873C18.0883 15.4874 18.4717 15.8707 18.4717 16.3428C18.4715 16.8148 18.0882 17.1981 17.6162 17.1982H16.2451C15.773 17.1982 15.3898 16.8149 15.3896 16.3428C15.3896 15.8706 15.7729 15.4873 16.2451 15.4873H17.6162Z" fill="black"/>
<path fill-rule="evenodd" clip-rule="evenodd" d="M16.7256 9.08789C17.1928 9.08793 17.6483 9.23559 18.0273 9.50879C18.3949 9.77381 18.6721 10.1448 18.8232 10.5713L19.8154 13.1211L21.3467 14.6514C21.7636 15.0687 21.9979 15.6357 21.998 16.2256V18.1719C21.9979 18.7622 21.7631 19.3287 21.3457 19.7461C21.1379 19.9538 20.893 20.1158 20.627 20.2266V20.9141C20.6269 21.5045 20.3921 22.0708 19.9746 22.4883C19.5571 22.9057 18.9908 23.1406 18.4004 23.1406C17.8101 23.1405 17.2436 22.9056 16.8262 22.4883C16.4089 22.0708 16.1739 21.5043 16.1738 20.9141V20.3984H7.82617V20.9141C7.82611 21.5045 7.59131 22.0708 7.17383 22.4883C6.75632 22.9056 6.18995 23.1406 5.59961 23.1406C5.00938 23.1404 4.44276 22.9057 4.02539 22.4883C3.60816 22.0708 3.37311 21.5043 3.37305 20.9141V20.2266C3.10702 20.1157 2.86199 19.9538 2.6543 19.7461C2.23702 19.3287 2.00208 18.7621 2.00195 18.1719V16.2256C2.00208 15.6357 2.23745 15.0687 2.6543 14.6514L4.18164 13.123L5.17578 10.5713C5.32685 10.145 5.60434 9.77382 5.97168 9.50879C6.35058 9.2356 6.80633 9.08808 7.27344 9.08789H16.7256ZM5.08398 20.9141C5.08405 21.0508 5.13783 21.1825 5.23438 21.2793C5.33106 21.376 5.4629 21.4305 5.59961 21.4307C5.73643 21.4307 5.86802 21.376 5.96484 21.2793C6.06164 21.1825 6.11615 21.0509 6.11621 20.9141V20.3984H5.08398V20.9141ZM17.8848 20.9141C17.8848 21.0508 17.9386 21.1825 18.0352 21.2793C18.1319 21.376 18.2636 21.4306 18.4004 21.4307C18.5373 21.4306 18.6688 21.3761 18.7656 21.2793C18.8624 21.1825 18.9169 21.0509 18.917 20.9141V20.3984H17.8848V20.9141ZM3.86328 15.8613L3.8623 15.8604C3.76612 15.9571 3.71295 16.0892 3.71289 16.2256V18.1719C3.71302 18.3086 3.76669 18.4404 3.86328 18.5371C3.95835 18.6321 4.08746 18.6855 4.22168 18.6875H6.97168C6.97875 18.6875 6.98614 18.6883 6.99316 18.6885H17.0078C17.0149 18.6883 17.0221 18.6875 17.0293 18.6875H19.7773C19.9121 18.6861 20.0412 18.6324 20.1367 18.5371C20.2335 18.4404 20.288 18.3087 20.2881 18.1719V16.2256L20.2783 16.125C20.2586 16.0256 20.2094 15.9331 20.1367 15.8604L18.7324 14.4561H5.26855L3.86328 15.8613ZM7.27344 10.7988C7.16534 10.799 7.05938 10.8323 6.97168 10.8955C6.88406 10.9588 6.8184 11.0488 6.78418 11.1514C6.77976 11.1646 6.77458 11.1784 6.76953 11.1914L6.16504 12.7451H17.835L17.2305 11.1914C17.2254 11.1783 17.2203 11.1647 17.2158 11.1514C17.1816 11.0486 17.1152 10.9589 17.0273 10.8955C16.9395 10.8323 16.8338 10.7988 16.7256 10.7988H7.27344Z" fill="black"/>
<path fill-rule="evenodd" clip-rule="evenodd" d="M8.57129 0.858398C9.52539 0.85848 10.4406 1.23941 11.1152 1.91406C11.5841 2.38305 11.9101 2.96791 12.0654 3.60156H18.1719C18.6439 3.60171 19.0262 3.98503 19.0264 4.45703V6.51465C19.0261 6.98654 18.6438 7.36899 18.1719 7.36914C17.6999 7.36907 17.3167 6.98659 17.3164 6.51465V5.3125H16.2842V5.82812C16.2842 6.30033 15.9009 6.68359 15.4287 6.68359C14.9565 6.68359 14.5732 6.30033 14.5732 5.82812V5.3125H12.0654C11.9102 5.94655 11.5844 6.53276 11.1152 7.00195C10.4406 7.67634 9.52519 8.05558 8.57129 8.05566C7.61738 8.05557 6.70195 7.67637 6.02734 7.00195C5.3528 6.32741 4.97287 5.41193 4.97266 4.45801C4.97266 3.504 5.35288 2.58875 6.02734 1.91406C6.70199 1.23942 7.61721 0.858496 8.57129 0.858398ZM8.57129 2.57031C8.07073 2.57041 7.59028 2.76909 7.23633 3.12305C6.88255 3.47705 6.68359 3.95752 6.68359 4.45801C6.6838 4.95841 6.88247 5.43911 7.23633 5.79297C7.59025 6.14669 8.0709 6.34561 8.57129 6.3457C9.07167 6.34562 9.55232 6.14667 9.90625 5.79297C10.2601 5.43911 10.4588 4.95841 10.459 4.45801C10.459 3.95749 10.2601 3.47705 9.90625 3.12305C9.55228 2.76908 9.07187 2.57039 8.57129 2.57031Z" fill="black"/>
</svg>
