<svg width="24" height="24" viewBox="0 0 24 24" fill="none" xmlns="http://www.w3.org/2000/svg">
<path d="M2.21439 10.4795C2.67533 10.3771 3.13244 10.668 3.2349 11.1289L4.45756 16.6309H6.5142C7.10457 16.6309 7.6709 16.8658 8.08842 17.2832C8.50587 17.7007 8.74067 18.2671 8.74076 18.8574V22.2861C8.74063 22.7582 8.35741 23.1416 7.88529 23.1416C7.41353 23.1412 7.03093 22.758 7.0308 22.2861V18.8574C7.0307 18.7206 6.9762 18.589 6.87943 18.4922C6.7826 18.3955 6.65104 18.3418 6.5142 18.3418H4.41654L3.22221 22.5215C3.09231 22.9753 2.61848 23.2381 2.16459 23.1084C1.71116 22.9784 1.44839 22.5054 1.57767 22.0518L2.8892 17.46L1.56498 11.5C1.46261 11.0392 1.75363 10.5821 2.21439 10.4795Z" fill="black"/>
<path fill-rule="evenodd" clip-rule="evenodd" d="M11.9995 0.858398C12.3598 0.858408 12.7133 0.949326 13.0318 1.11621L22.2544 5.12109C22.2722 5.12881 22.29 5.13758 22.3072 5.14648C22.5753 5.28532 22.7962 5.49903 22.9429 5.76074L23.0015 5.87598L23.0494 5.99512C23.1504 6.27753 23.1674 6.58464 23.0962 6.87793C23.0148 7.21279 22.823 7.51134 22.5523 7.72461C22.2813 7.93772 21.9458 8.05418 21.6011 8.05469H12.856V12.5166H16.8013C17.2733 12.5168 17.6558 12.9 17.6558 13.3721C17.6555 13.8439 17.2732 14.2273 16.8013 14.2275H12.856V22.2861C12.856 22.7583 12.4727 23.1416 12.0005 23.1416C11.5284 23.1416 11.1451 22.7583 11.1451 22.2861V14.2275H7.20072C6.72871 14.2275 6.34552 13.844 6.34525 13.3721C6.34525 12.8999 6.72855 12.5166 7.20072 12.5166H11.1451V8.05469H2.39799C2.05318 8.05414 1.71778 7.93787 1.44682 7.72461C1.17603 7.5113 0.984335 7.21288 0.90287 6.87793C0.821539 6.54296 0.854909 6.18975 0.997597 5.87598L1.05619 5.76074C1.20286 5.4992 1.42405 5.28531 1.69193 5.14648L1.74369 5.12109L10.9663 1.11621C11.285 0.949119 11.6391 0.85845 11.9995 0.858398ZM11.9995 2.57031C11.9111 2.57036 11.8237 2.59247 11.7466 2.63574C11.7215 2.64987 11.695 2.6633 11.6685 2.6748L3.21928 6.34473H20.7798L12.3306 2.6748C12.304 2.66323 12.2778 2.64997 12.2525 2.63574C12.1753 2.5924 12.0881 2.57032 11.9995 2.57031Z" fill="black"/>
<path d="M20.7671 11.1289C20.8696 10.6682 21.3259 10.3773 21.7867 10.4795C22.2474 10.5821 22.5384 11.0392 22.4361 11.5L21.1119 17.46L22.4234 22.0518C22.5528 22.5056 22.2903 22.9787 21.8365 23.1084C21.3826 23.2381 20.9098 22.9752 20.7798 22.5215L19.5855 18.3418H17.4869C17.35 18.3419 17.2184 18.3954 17.1216 18.4922C17.0249 18.589 16.9713 18.7206 16.9712 18.8574V22.2861C16.9711 22.7582 16.5878 23.1415 16.1158 23.1416C15.6436 23.1416 15.2604 22.7582 15.2603 22.2861V18.8574C15.2604 18.2671 15.4952 17.7007 15.9126 17.2832C16.3301 16.8657 16.8965 16.631 17.4869 16.6309H19.5445L20.7671 11.1289Z" fill="black"/>
</svg>
