<svg width="24" height="24" viewBox="0 0 24 24" fill="none" xmlns="http://www.w3.org/2000/svg">
<path d="M3.09516 15.9673L6.39887 16.2115C6.86962 16.2463 7.22255 16.6567 7.18793 17.1275C7.15311 17.5983 6.7437 17.9522 6.2729 17.9175L4.57954 17.7915C6.10834 19.9916 8.65379 21.4301 11.5336 21.4302C13.0619 21.4302 14.4942 21.0259 15.7299 20.3189C16.1396 20.085 16.6615 20.2269 16.8959 20.6363C17.1304 21.046 16.9882 21.5687 16.5786 21.8033C15.0911 22.6543 13.3675 23.1401 11.5336 23.1402C8.00744 23.1401 4.90193 21.3457 3.07758 18.6226L2.25727 20.2456C2.04408 20.6667 1.53006 20.8355 1.10883 20.6226C0.687545 20.4094 0.518755 19.8945 0.73188 19.4732L2.26899 16.4341L2.3354 16.3247C2.5069 16.0837 2.79406 15.9451 3.09516 15.9673Z" fill="black"/>
<path d="M15.4614 4.47416C15.6984 4.06607 16.222 3.92684 16.6303 4.16361C19.6629 5.92234 21.7053 9.20655 21.7055 12.9683C21.7055 14.5925 21.3218 16.1286 20.644 17.4917L22.4575 17.3921C22.9288 17.3661 23.3326 17.7275 23.3588 18.1988C23.3848 18.6701 23.0236 19.073 22.5522 19.0992L19.1518 19.2876C18.8297 19.3055 18.5284 19.1401 18.3676 18.8648C18.3578 18.8489 18.349 18.8324 18.3403 18.816C18.3386 18.8127 18.336 18.8095 18.3344 18.8062L18.3247 18.7857C18.3229 18.782 18.3205 18.7786 18.3188 18.7749L16.894 15.8228C16.6889 15.3976 16.8673 14.8865 17.2924 14.6812C17.7175 14.4761 18.2286 14.6538 18.434 15.0787L19.1723 16.6089C19.6987 15.5064 19.9956 14.2726 19.9956 12.9683C19.9953 9.84083 18.2989 7.10848 15.7719 5.6431C15.3634 5.40623 15.2245 4.88265 15.4614 4.47416Z" fill="black"/>
<path d="M10.1342 0.141152C10.5294 -0.116981 11.0594 -0.00576565 11.3178 0.389199L13.1811 3.23978C13.1886 3.25121 13.1938 3.26423 13.2006 3.27592C13.2063 3.28593 13.2119 3.29594 13.2172 3.30619C13.3661 3.5847 13.3521 3.92451 13.1723 4.189L11.309 6.92826C11.0434 7.31841 10.5118 7.41935 10.1215 7.15385C9.73132 6.8883 9.6297 6.3567 9.89497 5.96635L10.8666 4.53568C6.5055 4.87584 3.07305 8.51987 3.0727 12.9683C3.0727 13.4404 2.68931 13.8236 2.21723 13.8238C1.74503 13.8238 1.36176 13.4405 1.36176 12.9683C1.36212 7.57607 5.5586 3.16592 10.8637 2.82084L9.88618 1.32475C9.62822 0.92958 9.73924 0.399445 10.1342 0.141152Z" fill="black"/>
</svg>
