<svg width="24" height="24" viewBox="0 0 24 24" fill="none" xmlns="http://www.w3.org/2000/svg">
<path d="M12 8.57324C12.4722 8.57324 12.8555 8.95651 12.8555 9.42871V11.1455H14.5713C15.0434 11.1455 15.4267 11.5279 15.4268 12C15.4266 12.4721 15.0434 12.8555 14.5713 12.8555H12C11.528 12.8553 11.1447 12.472 11.1445 12V9.42871C11.1445 8.95659 11.5279 8.57337 12 8.57324Z" fill="black"/>
<path fill-rule="evenodd" clip-rule="evenodd" d="M12.001 4.28711C16.2598 4.28752 19.7128 7.74107 19.7129 12C19.7127 16.2589 16.2598 19.7115 12.001 19.7119C7.74177 19.7119 4.28824 16.2592 4.28809 12C4.28822 7.74081 7.74176 4.28711 12.001 4.28711ZM12.001 5.99805C8.68616 5.99805 5.99916 8.68522 5.99902 12C5.99917 15.3148 8.68618 18.002 12.001 18.002C15.3154 18.0015 18.0028 15.3145 18.0029 12C18.0028 8.68547 15.3154 5.99846 12.001 5.99805Z" fill="black"/>
<path fill-rule="evenodd" clip-rule="evenodd" d="M21.4287 0.00195312C22.8475 0.00208511 23.9978 1.15259 23.998 2.57129V21.4287C23.9979 22.8475 22.8475 23.9979 21.4287 23.998H2.57129C1.15259 23.9978 0.00208511 22.8475 0.00195312 21.4287V2.57129C0.00217917 1.15264 1.15264 0.00217917 2.57129 0.00195312H21.4287ZM2.57129 1.71289C2.09705 1.71312 1.71312 2.09705 1.71289 2.57129V21.4287C1.71302 21.903 2.09698 22.2879 2.57129 22.2881H21.4287C21.9031 22.288 22.288 21.9031 22.2881 21.4287V2.57129C22.2879 2.09698 21.903 1.71302 21.4287 1.71289H2.57129Z" fill="black"/>
</svg>
