<svg width="24" height="24" viewBox="0 0 24 24" fill="none" xmlns="http://www.w3.org/2000/svg">
<path fill-rule="evenodd" clip-rule="evenodd" d="M12.8564 6.85938C14.2753 6.85938 15.4256 8.00985 15.4258 9.42871V16.2852C15.4258 17.7042 14.2754 18.8545 12.8564 18.8545H8.56836V20.5732H10.2852C10.7572 20.5733 11.1395 20.9567 11.1396 21.4287C11.1395 21.9007 10.7572 22.2831 10.2852 22.2832H5.14258C4.67058 22.2831 4.28726 21.9007 4.28711 21.4287C4.28724 20.9567 4.67057 20.5734 5.14258 20.5732H6.8584V18.8545H2.57031C1.15165 18.8541 0.000976562 17.7039 0.000976562 16.2852V9.42871C0.00110852 8.01008 1.15172 6.85973 2.57031 6.85938H12.8564ZM2.57031 8.56934C2.09613 8.56969 1.71205 8.95448 1.71191 9.42871V16.2852C1.71191 16.7595 2.09604 17.1442 2.57031 17.1445H12.8564C13.331 17.1445 13.7158 16.7597 13.7158 16.2852V9.42871C13.7157 8.95426 13.3309 8.56934 12.8564 8.56934H2.57031Z" fill="black"/>
<path d="M22.2852 1.71582C23.2305 1.7159 23.9969 2.48324 23.9971 3.42871V20.5713C23.9971 21.5168 23.2306 22.2831 22.2852 22.2832H15.4277C14.9558 22.283 14.5734 21.9007 14.5732 21.4287C14.5734 20.9567 14.9558 20.5734 15.4277 20.5732H22.2861L22.2871 20.5723V11.1406H17.999C17.5271 11.1403 17.1445 10.7572 17.1445 10.2852C17.1449 9.81343 17.5273 9.43095 17.999 9.43066H22.2871V3.42773L22.2852 3.42578C22.2868 3.42579 22.2861 3.42616 22.2852 3.42578L13.7139 3.42676L13.7129 3.42578L13.7109 3.42773L13.7119 4.28516C13.7119 4.75736 13.3286 5.14062 12.8564 5.14062C12.3844 5.14049 12.001 4.75728 12.001 4.28516V3.42871C12.0011 2.48332 12.7685 1.71595 13.7139 1.71582H22.2852Z" fill="black"/>
<path d="M19.7139 5.14453C20.1858 5.14479 20.5682 5.52807 20.5684 6C20.5683 6.47198 20.1858 6.85423 19.7139 6.85449H16.2852C15.8131 6.85436 15.4298 6.47206 15.4297 6C15.4298 5.52799 15.8131 5.14466 16.2852 5.14453H19.7139Z" fill="black"/>
</svg>
