<svg width="24" height="24" viewBox="0 0 24 24" fill="none" xmlns="http://www.w3.org/2000/svg">
<path fill-rule="evenodd" clip-rule="evenodd" d="M21.4287 2.57324C22.8474 2.57337 23.9978 3.72387 23.998 5.14258V17.1426C23.9979 18.5614 22.8475 19.7118 21.4287 19.7119H12.8555V22.2871H17.1436C17.6154 22.2875 17.9979 22.6707 17.998 23.1426C17.998 23.6146 17.6155 23.9977 17.1436 23.998H6.85742C6.38522 23.998 6.00195 23.6148 6.00195 23.1426C6.00209 22.6705 6.3853 22.2871 6.85742 22.2871H11.1445V19.7119H2.57129C1.15259 19.7117 0.00208511 18.5613 0.00195312 17.1426V5.14258C0.00217918 3.72393 1.15264 2.57347 2.57129 2.57324H21.4287ZM2.57129 4.28418C2.09705 4.28441 1.71312 4.66834 1.71289 5.14258V17.1426C1.71302 17.6169 2.09699 18.0017 2.57129 18.002H21.4287C21.9031 18.0018 22.288 17.617 22.2881 17.1426V5.14258C22.2879 4.66828 21.903 4.28431 21.4287 4.28418H2.57129Z" fill="black"/>
</svg>
