<svg width="24" height="24" viewBox="0 0 24 24" fill="none" xmlns="http://www.w3.org/2000/svg">
<path d="M7.71387 4.28755C8.18585 4.28781 8.56934 4.67098 8.56934 5.14302V6.85884H10.2852C10.7572 6.85897 11.1406 7.24218 11.1406 7.7143C11.1406 8.18642 10.7572 8.56964 10.2852 8.56977H5.99902C5.52479 8.57 5.14085 8.95393 5.14062 9.42817V18.0004C5.14086 18.4747 5.52479 18.8586 5.99902 18.8588H14.5713C15.0454 18.8585 15.4294 18.4746 15.4297 18.0004V14.5717C15.4297 14.0995 15.813 13.7163 16.2852 13.7163C16.7572 13.7164 17.1406 14.0996 17.1406 14.5717V15.4301H18.8564C19.3285 15.4303 19.7119 15.8135 19.7119 16.2856C19.7119 16.7577 19.3285 17.1409 18.8564 17.1411H17.1406V18.0004C17.1404 19.419 15.9898 20.5694 14.5713 20.5698H13.7119V22.2856C13.7119 22.7577 13.3285 23.1409 12.8564 23.1411C12.3842 23.1411 12.001 22.7578 12.001 22.2856V20.5698H8.56934V22.2856C8.56932 22.7576 8.18584 23.1408 7.71387 23.1411C7.24167 23.1411 6.85841 22.7578 6.8584 22.2856V20.5698H5.99902C4.58039 20.5695 3.42993 19.4191 3.42969 18.0004V17.1411H1.71387C1.24167 17.1411 0.857434 16.7578 0.857422 16.2856C0.857422 15.8134 1.24166 15.4301 1.71387 15.4301H3.42969V11.9985H1.71387C1.24175 11.9985 0.857566 11.6151 0.857422 11.143C0.857422 10.6708 1.24166 10.2875 1.71387 10.2875H3.42969V9.42817C3.42991 8.00953 4.58038 6.85906 5.99902 6.85884H6.8584V5.14302C6.8584 4.67081 7.24166 4.28755 7.71387 4.28755Z" fill="black"/>
<path fill-rule="evenodd" clip-rule="evenodd" d="M12.8564 10.2875C13.3284 10.2878 13.7119 10.671 13.7119 11.143V16.2856C13.7118 16.7575 13.3283 17.1408 12.8564 17.1411H7.71387C7.24175 17.1411 6.85854 16.7577 6.8584 16.2856V11.143C6.8584 10.6708 7.24166 10.2875 7.71387 10.2875H12.8564ZM8.56934 15.4311H12.002V11.9985H8.56934V15.4311Z" fill="black"/>
<path fill-rule="evenodd" clip-rule="evenodd" d="M17.0479 0.399852C17.2469 0.0855881 17.6264 -0.0642861 17.9863 0.0297346C19.5648 0.44211 20.9464 1.39938 21.8877 2.73188C22.824 4.05742 23.264 5.66966 23.1318 7.28657C23.1068 8.45944 22.6309 9.57838 21.8008 10.4086C20.9622 11.2473 19.8284 11.7256 18.6426 11.7416H18.6318C17.438 11.7416 16.2925 11.2674 15.4482 10.4233C14.6566 9.63166 14.1899 8.57525 14.1348 7.46235L14.1289 7.2397C14.0901 6.48247 14.2621 5.72886 14.6279 5.06391C15.0027 4.38286 15.5648 3.82228 16.2471 3.44966L16.3408 3.40571C16.5654 3.31656 16.82 3.32657 17.0391 3.43598C17.2891 3.56112 17.4626 3.80092 17.5029 4.07759C17.5222 4.20969 17.5886 4.32873 17.6875 4.41743C17.8225 4.01084 17.8763 3.57901 17.8379 3.1479C17.7807 2.50732 17.5284 1.89952 17.1152 1.40669C16.8761 1.12157 16.8489 0.714288 17.0479 0.399852ZM19.541 2.99653C19.6291 3.98577 19.4115 4.97847 18.918 5.84028C18.7774 6.08574 18.5242 6.24606 18.2422 6.26802C17.6659 6.31262 17.094 6.13674 16.6426 5.77583C16.546 5.69859 16.4579 5.61259 16.376 5.52192C16.2821 5.63555 16.1977 5.75786 16.126 5.88813C15.9083 6.28371 15.8087 6.73347 15.8379 7.18403C15.8391 7.2024 15.8389 7.22128 15.8389 7.2397C15.8389 7.98005 16.1338 8.68977 16.6572 9.21333C17.1793 9.73543 17.8868 10.029 18.625 10.0307C19.3635 10.0193 20.0694 9.72203 20.5918 9.19966C21.1152 8.67605 21.4138 7.96828 21.4238 7.22798L21.4268 7.16645C21.5313 5.94282 21.1997 4.72131 20.4912 3.71821C20.209 3.3187 19.8739 2.96433 19.498 2.66255C19.5157 2.77312 19.531 2.88447 19.541 2.99653Z" fill="black"/>
</svg>
