<svg width="24" height="24" viewBox="0 0 24 24" fill="none" xmlns="http://www.w3.org/2000/svg">
<path d="M18.001 3.42969C18.4731 3.42981 18.8565 3.81401 18.8565 4.28613V19.7148C18.8561 20.1867 18.4729 20.5692 18.001 20.5693C17.529 20.5693 17.1459 20.1868 17.1455 19.7148V4.28613C17.1455 3.81393 17.5288 3.42969 18.001 3.42969Z" fill="black"/>
<path d="M23.1436 3.42969C23.6158 3.42969 23.999 3.81393 23.999 4.28613V19.7148C23.9987 20.1868 23.6156 20.5693 23.1436 20.5693C22.6717 20.5692 22.2884 20.1867 22.2881 19.7148V4.28613C22.2881 3.81402 22.6715 3.42983 23.1436 3.42969Z" fill="black"/>
<path fill-rule="evenodd" clip-rule="evenodd" d="M0.00294511 6.39844C-0.00320178 4.78285 1.82895 3.78679 3.18361 4.59863C3.99105 5.0828 11.2309 9.86717 11.9131 10.3027C13.174 11.1085 13.1424 12.9811 11.9131 13.7666C11.2372 14.1982 3.99705 18.9489 3.18361 19.4365C1.8136 20.2577 -0.00245135 19.2274 0.00294511 17.6377C0.00643968 16.7193 0.00648952 7.33495 0.00294511 6.39844ZM2.3047 6.06543C2.20708 6.00691 2.06455 5.99856 1.91896 6.08008C1.77493 6.16086 1.71349 6.28119 1.71388 6.3916C1.71744 7.33095 1.71739 16.7191 1.71388 17.6436C1.71368 17.7464 1.7734 17.8705 1.92091 17.9541C2.06704 18.0367 2.20769 18.0279 2.3047 17.9697C3.09811 17.494 10.2418 12.8054 10.9922 12.3262C11.0743 12.2737 11.1369 12.1705 11.1377 12.0342C11.1383 11.9006 11.0788 11.7997 10.9922 11.7441C10.2197 11.2509 3.09662 6.54033 2.3047 6.06543Z" fill="black"/>
</svg>
