<svg width="24" height="24" viewBox="0 0 24 24" fill="none" xmlns="http://www.w3.org/2000/svg">
<path fill-rule="evenodd" clip-rule="evenodd" d="M0.858398 3.29215C0.858813 1.21402 3.19869 -0.00379741 4.90137 1.18766L17.3408 9.89566C18.8017 10.9185 18.8018 13.0818 17.3408 14.1046L4.90137 22.8127C3.19854 24.0042 0.858398 22.7856 0.858398 20.7072V3.29215ZM3.9209 2.58902C3.35155 2.1907 2.56975 2.59739 2.56934 3.29215V20.7072C2.56934 21.4023 3.35139 21.8098 3.9209 21.4113L16.3604 12.7043C16.849 12.3622 16.8489 11.6382 16.3604 11.2961L3.9209 2.58902Z" fill="black"/>
<path d="M22.2852 0.858554C22.7573 0.858554 23.1404 1.24197 23.1406 1.71402V22.2853C23.1406 22.7575 22.7574 23.1408 22.2852 23.1408C21.8131 23.1406 21.4297 22.7574 21.4297 22.2853V1.71402C21.4299 1.24205 21.8132 0.858686 22.2852 0.858554Z" fill="black"/>
</svg>
