<svg width="24" height="24" viewBox="0 0 24 24" fill="none" xmlns="http://www.w3.org/2000/svg">
<path d="M6.52643 16.7891C6.91924 16.5272 7.44998 16.6327 7.71197 17.0254L8.2569 17.8438C8.74728 18.5795 8.65066 19.5594 8.02545 20.1846C7.90976 20.3003 7.81949 20.3891 7.73834 20.4805C7.6592 20.5696 7.61392 20.6343 7.58893 20.6807C7.56692 20.7216 7.56878 20.7319 7.5694 20.7217C7.57015 20.7058 7.56407 20.7149 7.58795 20.7627L8.26568 22.1172C8.47673 22.5395 8.30517 23.0535 7.88287 23.2646C7.46067 23.4756 6.94666 23.3048 6.73541 22.8828L6.05865 21.5273C5.75008 20.9102 5.83499 20.33 6.08404 19.8682C6.29388 19.4793 6.63391 19.1581 6.81647 18.9756C6.8653 18.9268 6.87228 18.8495 6.83404 18.792L6.28912 17.9746C6.02726 17.5818 6.13379 17.0511 6.52643 16.7891Z" fill="black"/>
<path d="M11.5274 16.7891C11.9202 16.5273 12.451 16.6328 12.713 17.0254L13.2579 17.8438C13.7481 18.5794 13.6515 19.5594 13.0264 20.1846C12.9107 20.3003 12.8205 20.3891 12.7393 20.4805C12.6601 20.5697 12.6149 20.6343 12.5899 20.6807C12.5779 20.7029 12.5723 20.7158 12.5704 20.7217C12.5711 20.7058 12.565 20.7149 12.5889 20.7627L13.2667 22.1172C13.4775 22.5394 13.3059 23.0535 12.8838 23.2646C12.4617 23.4757 11.9477 23.3048 11.7364 22.8828L11.0596 21.5273C10.751 20.9101 10.8359 20.33 11.085 19.8682C11.2949 19.4792 11.6349 19.1581 11.8174 18.9756C11.8661 18.9268 11.8731 18.8494 11.835 18.792L11.2901 17.9746C11.0282 17.5818 11.1346 17.051 11.5274 16.7891Z" fill="black"/>
<path d="M16.5264 16.7891C16.9192 16.5273 17.45 16.6328 17.712 17.0254L18.2569 17.8438C18.7471 18.5794 18.6505 19.5594 18.0254 20.1846C17.9097 20.3003 17.8195 20.3891 17.7383 20.4805C17.6591 20.5697 17.6139 20.6343 17.5889 20.6807C17.5769 20.7029 17.5713 20.7158 17.5694 20.7217C17.5702 20.7058 17.5641 20.7149 17.5879 20.7627L18.2657 22.1172C18.4765 22.5394 18.3049 23.0535 17.8829 23.2646C17.4607 23.4757 16.9467 23.3048 16.7354 22.8828L16.0587 21.5273C15.75 20.9101 15.8349 20.33 16.084 19.8682C16.2939 19.4792 16.6339 19.1581 16.8165 18.9756C16.8652 18.9268 16.8721 18.8494 16.834 18.792L16.2891 17.9746C16.0272 17.5818 16.1337 17.051 16.5264 16.7891Z" fill="black"/>
<path d="M7.78131 10.4414C8.25351 10.4414 8.63678 10.8247 8.63678 11.2969C8.63678 11.7691 8.25351 12.1523 7.78131 12.1523H5.67193C5.19976 12.1523 4.81647 11.7691 4.81647 11.2969C4.81647 10.8247 5.19976 10.4414 5.67193 10.4414H7.78131Z" fill="black"/>
<path d="M12.7032 10.4414C13.1754 10.4414 13.5587 10.8247 13.5587 11.2969C13.5587 11.7691 13.1754 12.1523 12.7032 12.1523H10.5938C10.1216 12.1523 9.73834 11.7691 9.73834 11.2969C9.73834 10.8247 10.1216 10.4414 10.5938 10.4414H12.7032Z" fill="black"/>
<path d="M18.7032 10.4414C19.1754 10.4414 19.5587 10.8247 19.5587 11.2969C19.5587 11.7691 19.1754 12.1523 18.7032 12.1523H18.0938C17.6216 12.1523 17.2383 11.7691 17.2383 11.2969C17.2383 10.8247 17.6216 10.4414 18.0938 10.4414H18.7032Z" fill="black"/>
<path fill-rule="evenodd" clip-rule="evenodd" d="M16.9219 0.597656C17.3941 0.597656 17.7774 0.980922 17.7774 1.45312V3.85156L22.7413 7.7959C22.7852 7.83081 22.8261 7.87025 22.8624 7.91309C23.2148 8.32935 23.4064 8.85822 23.4024 9.40332V12.7217C23.4024 13.9598 22.3788 14.9834 21.1407 14.9834H2.85943C1.62134 14.9833 0.598693 13.9598 0.598693 12.7217V9.42188C0.594866 8.89456 0.774821 8.38324 1.10553 7.97363C1.13029 7.94044 1.15736 7.90912 1.18658 7.87988L1.19537 7.87109C1.20251 7.8642 1.21046 7.8582 1.21783 7.85156C1.23149 7.83918 1.24441 7.82595 1.25885 7.81445L6.22272 3.85449V1.45312C6.22272 0.980941 6.60601 0.597689 7.07818 0.597656C7.55039 0.597656 7.93365 0.980922 7.93365 1.45312V3.41016H16.0665V1.45312C16.0665 0.980941 16.4498 0.597689 16.9219 0.597656ZM2.30865 9.41211V12.7217C2.30865 13.0154 2.56573 13.2733 2.85943 13.2734H21.1407C21.4344 13.2734 21.6924 13.0154 21.6924 12.7217V9.39355C21.6926 9.37549 21.6901 9.35768 21.6885 9.33984H2.31354C2.31068 9.36373 2.30837 9.38778 2.30865 9.41211ZM4.23248 7.62891H19.7823L16.6241 5.12109H7.37604L4.23248 7.62891Z" fill="black"/>
</svg>
