<svg width="24" height="24" viewBox="0 0 24 24" fill="none" xmlns="http://www.w3.org/2000/svg">
<path d="M17.1436 3.43066C17.6158 3.43066 17.999 3.81393 17.999 4.28613V23.1436C17.9986 23.6154 17.6155 23.998 17.1436 23.998C16.6717 23.9979 16.2885 23.6153 16.2881 23.1436V4.28613C16.2881 3.81401 16.6715 3.4308 17.1436 3.43066Z" fill="black"/>
<path d="M20.5723 3.43066C21.0445 3.43066 21.4277 3.81393 21.4277 4.28613V23.1436C21.4273 23.6154 21.0442 23.998 20.5723 23.998C20.1003 23.998 19.7172 23.6154 19.7168 23.1436V4.28613C19.7168 3.81393 20.1001 3.43066 20.5723 3.43066Z" fill="black"/>
<path d="M7.11133 9.68164C7.44523 9.34781 7.98644 9.34777 8.32031 9.68164C8.65363 10.0156 8.65396 10.5569 8.32031 10.8906L6.35156 12.8594H12.8584C13.3304 12.8597 13.7129 13.2428 13.7129 13.7148C13.7126 14.1866 13.3302 14.57 12.8584 14.5703H6.35156L8.32031 16.5391C8.65351 16.873 8.65398 17.4144 8.32031 17.748C7.98664 18.0816 7.44526 18.0812 7.11133 17.748L3.68262 14.3193C3.34874 13.9855 3.34879 13.4443 3.68262 13.1104L7.11133 9.68164Z" fill="black"/>
<path d="M22.2861 0.00195312C22.7583 0.00195312 23.1416 0.385218 23.1416 0.857422C23.1415 1.32951 22.7583 1.71289 22.2861 1.71289H1.71484C1.24283 1.71276 0.859507 1.32943 0.859375 0.857422C0.859375 0.3853 1.24275 0.00208524 1.71484 0.00195312H22.2861Z" fill="black"/>
</svg>
