<svg width="24" height="24" viewBox="0 0 24 24" fill="none" xmlns="http://www.w3.org/2000/svg">
<path d="M3.42773 3.43066C3.89994 3.43066 4.2832 3.81393 4.2832 4.28613V23.1436C4.28279 23.6154 3.89968 23.998 3.42773 23.998C2.9559 23.9979 2.57268 23.6153 2.57227 23.1436V4.28613C2.57227 3.81401 2.95564 3.4308 3.42773 3.43066Z" fill="black"/>
<path d="M20.5713 3.43066C21.0433 3.43093 21.4268 3.81409 21.4268 4.28613V23.1436C21.4263 23.6152 21.043 23.9978 20.5713 23.998C20.0993 23.998 19.7162 23.6154 19.7158 23.1436V4.28613C19.7158 3.81393 20.0991 3.43066 20.5713 3.43066Z" fill="black"/>
<path d="M8.09668 10.2178C8.4894 9.95613 9.02024 10.0616 9.28223 10.4541L10.9971 13.0254C11.0873 13.1609 11.1327 13.3131 11.1387 13.4648C11.1461 13.6394 11.1014 13.8181 10.9971 13.9746L9.28223 16.5459C9.02029 16.9384 8.48943 17.0448 8.09668 16.7832C7.70384 16.5213 7.59843 15.9896 7.86035 15.5967L9.25781 13.5L7.86035 11.4033C7.59852 11.0106 7.70415 10.4798 8.09668 10.2178Z" fill="black"/>
<path d="M14.7168 10.4541C14.9788 10.0614 15.5095 9.9559 15.9023 10.2178C16.2949 10.4798 16.4015 11.0106 16.1396 11.4033L14.7412 13.5L16.1396 15.5967C16.4014 15.9895 16.2951 16.5213 15.9023 16.7832C15.5096 17.0449 14.9787 16.9385 14.7168 16.5459L13.0029 13.9746C12.9558 13.9039 12.9196 13.8273 12.8955 13.7471C12.8917 13.7345 12.8889 13.7217 12.8857 13.709C12.8754 13.6678 12.8665 13.6263 12.8623 13.584C12.8614 13.5749 12.8619 13.5657 12.8613 13.5566C12.8565 13.4846 12.8594 13.4117 12.873 13.3398C12.8759 13.325 12.8802 13.3105 12.8838 13.2959C12.9002 13.2291 12.9247 13.1635 12.958 13.1006C12.9708 13.0763 12.9848 13.0524 13 13.0293L14.7168 10.4541Z" fill="black"/>
<path d="M22.2852 0.00195312C22.7572 0.00208524 23.1406 0.3853 23.1406 0.857422C23.1405 1.32943 22.7572 1.71276 22.2852 1.71289H1.71387C1.24175 1.71289 0.858531 1.32951 0.858398 0.857422C0.858398 0.385218 1.24166 0.00195312 1.71387 0.00195312H22.2852Z" fill="black"/>
</svg>
