<svg width="24" height="24" viewBox="0 0 24 24" fill="none" xmlns="http://www.w3.org/2000/svg">
<path d="M3.42969 3.43066C3.90167 3.43093 4.28516 3.81409 4.28516 4.28613V23.1436C4.28474 23.6152 3.90141 23.9978 3.42969 23.998C2.95774 23.998 2.57463 23.6154 2.57422 23.1436V4.28613C2.57422 3.81393 2.95748 3.43066 3.42969 3.43066Z" fill="black"/>
<path d="M6.85742 3.43066C7.32963 3.43066 7.71289 3.81393 7.71289 4.28613V23.1436C7.71248 23.6154 7.32937 23.998 6.85742 23.998C6.38559 23.9979 6.00237 23.6153 6.00195 23.1436V4.28613C6.00195 3.81401 6.38533 3.4308 6.85742 3.43066Z" fill="black"/>
<path d="M10.2861 3.43066C10.7583 3.43066 11.1416 3.81393 11.1416 4.28613V23.1436C11.1412 23.6154 10.7581 23.998 10.2861 23.998C9.8143 23.9979 9.43108 23.6153 9.43066 23.1436V4.28613C9.43066 3.81401 9.81404 3.4308 10.2861 3.43066Z" fill="black"/>
<path d="M13.7148 3.43066C14.187 3.43066 14.5703 3.81393 14.5703 4.28613V23.1436C14.5699 23.6154 14.1868 23.998 13.7148 23.998C13.2429 23.998 12.8598 23.6154 12.8594 23.1436V4.28613C12.8594 3.81393 13.2426 3.43066 13.7148 3.43066Z" fill="black"/>
<path d="M17.1436 3.43066C17.6156 3.4308 17.999 3.81401 17.999 4.28613V23.1436C17.9986 23.6153 17.6154 23.9979 17.1436 23.998C16.6716 23.998 16.2885 23.6154 16.2881 23.1436V4.28613C16.2881 3.81393 16.6714 3.43066 17.1436 3.43066Z" fill="black"/>
<path d="M20.5723 3.43066C21.0444 3.4308 21.4277 3.81401 21.4277 4.28613V23.1436C21.4273 23.6153 21.0441 23.9979 20.5723 23.998C20.1003 23.998 19.7172 23.6154 19.7168 23.1436V4.28613C19.7168 3.81393 20.1001 3.43066 20.5723 3.43066Z" fill="black"/>
<path d="M22.2861 0.00195312C22.7583 0.00195312 23.1416 0.385218 23.1416 0.857422C23.1415 1.32951 22.7583 1.71289 22.2861 1.71289H1.71484C1.24272 1.71289 0.859507 1.32951 0.859375 0.857422C0.859375 0.385218 1.24264 0.00195312 1.71484 0.00195312H22.2861Z" fill="black"/>
</svg>
