<svg width="24" height="24" viewBox="0 0 24 24" fill="none" xmlns="http://www.w3.org/2000/svg">
<path d="M3.42871 3.43066C3.90091 3.43066 4.28418 3.81393 4.28418 4.28613V23.1436C4.28377 23.6154 3.90066 23.998 3.42871 23.998C2.95687 23.9979 2.57366 23.6153 2.57324 23.1436V4.28613C2.57324 3.81401 2.95662 3.4308 3.42871 3.43066Z" fill="black"/>
<path d="M20.5723 3.43066C21.0442 3.43093 21.4277 3.81409 21.4277 4.28613V23.1436C21.4273 23.6152 21.044 23.9978 20.5723 23.998C20.1003 23.998 19.7172 23.6154 19.7168 23.1436V4.28613C19.7168 3.81393 20.1001 3.43066 20.5723 3.43066Z" fill="black"/>
<path d="M9.5752 10.4541C9.8372 10.0615 10.3679 9.95591 10.7607 10.2178C11.1531 10.4798 11.2598 11.0106 10.998 11.4033L9.59961 13.5L10.998 15.5967C11.2597 15.9894 11.1533 16.5212 10.7607 16.7832C10.368 17.0449 9.83717 16.9384 9.5752 16.5459L7.87012 13.9883C7.78626 13.8675 7.7349 13.7281 7.7207 13.584C7.71682 13.5443 7.71611 13.5044 7.71777 13.4648C7.71946 13.4231 7.72357 13.3813 7.73145 13.3398C7.73426 13.325 7.73859 13.3105 7.74219 13.2959C7.75547 13.2418 7.77355 13.1884 7.79785 13.1367C7.81828 13.0931 7.84224 13.0508 7.87012 13.0107L9.5752 10.4541Z" fill="black"/>
<path d="M13.2402 10.2178C13.633 9.95599 14.1638 10.0616 14.4258 10.4541L16.1406 13.0254C16.2309 13.1609 16.2762 13.3131 16.2822 13.4648C16.2839 13.5045 16.2832 13.5442 16.2793 13.584C16.2751 13.6263 16.2663 13.6678 16.2559 13.709C16.2327 13.8009 16.1962 13.8912 16.1406 13.9746L14.4258 16.5459C14.1638 16.9384 13.633 17.0449 13.2402 16.7832C12.8474 16.5213 12.742 15.9896 13.0039 15.5967L14.4014 13.5L13.0039 11.4033C12.7421 11.0106 12.8477 10.4798 13.2402 10.2178Z" fill="black"/>
<path d="M22.2861 0.00195312C22.7582 0.00208524 23.1416 0.3853 23.1416 0.857422C23.1415 1.32943 22.7581 1.71276 22.2861 1.71289H1.71484C1.24272 1.71289 0.859507 1.32951 0.859375 0.857422C0.859375 0.385218 1.24264 0.00195312 1.71484 0.00195312H22.2861Z" fill="black"/>
</svg>
