<svg width="24" height="24" viewBox="0 0 24 24" fill="none" xmlns="http://www.w3.org/2000/svg">
<path d="M17.1436 3.43066C17.6158 3.43066 17.999 3.81393 17.999 4.28613V23.1436C17.9986 23.6154 17.6155 23.998 17.1436 23.998C16.6717 23.998 16.2885 23.6154 16.2881 23.1436V4.28613C16.2881 3.81397 16.6714 3.43073 17.1436 3.43066Z" fill="black"/>
<path d="M20.5723 3.43066C21.0445 3.43066 21.4277 3.81393 21.4277 4.28613V23.1436C21.4273 23.6154 21.0442 23.998 20.5723 23.998C20.1003 23.998 19.7172 23.6154 19.7168 23.1436V4.28613C19.7168 3.81393 20.1001 3.43066 20.5723 3.43066Z" fill="black"/>
<path d="M22.2861 0.00195312C22.7583 0.00195312 23.1416 0.385218 23.1416 0.857422C23.1415 1.32951 22.7583 1.71289 22.2861 1.71289H1.71484C1.24283 1.71276 0.859507 1.32943 0.859375 0.857422C0.859375 0.3853 1.24275 0.00208524 1.71484 0.00195312H22.2861Z" fill="black"/>
</svg>
