<svg width="24" height="24" viewBox="0 0 24 24" fill="none" xmlns="http://www.w3.org/2000/svg">
<path d="M17.1426 3.43066C17.6148 3.43066 17.998 3.81393 17.998 4.28613V23.1436C17.9976 23.6154 17.6145 23.998 17.1426 23.998C16.6706 23.998 16.2875 23.6154 16.2871 23.1436V4.28613C16.2871 3.81393 16.6704 3.43066 17.1426 3.43066Z" fill="black"/>
<path d="M20.5713 3.43066C21.0434 3.43073 21.4268 3.81397 21.4268 4.28613V23.1436C21.4263 23.6154 21.0432 23.998 20.5713 23.998C20.0993 23.998 19.7162 23.6154 19.7158 23.1436V4.28613C19.7158 3.81393 20.0991 3.43066 20.5713 3.43066Z" fill="black"/>
<path d="M8.82422 9.68164C9.15812 9.34774 9.6993 9.34774 10.0332 9.68164L13.4619 13.1104C13.7952 13.4443 13.7956 13.9856 13.4619 14.3193L10.0332 17.748C9.69948 18.0816 9.1581 18.0813 8.82422 17.748C8.49039 17.4142 8.49052 16.873 8.82422 16.5391L10.793 14.5703H4.28516C3.81323 14.5702 3.42995 14.1867 3.42969 13.7148C3.42969 13.2427 3.81306 12.8595 4.28516 12.8594H10.793L8.82422 10.8906C8.49034 10.5567 8.49038 10.0155 8.82422 9.68164Z" fill="black"/>
<path d="M22.2852 0.00195312C22.7574 0.00195312 23.1406 0.385218 23.1406 0.857422C23.1405 1.32951 22.7573 1.71289 22.2852 1.71289H1.71387C1.2418 1.71282 0.85853 1.32947 0.858398 0.857422C0.858398 0.385259 1.24172 0.00201919 1.71387 0.00195312H22.2852Z" fill="black"/>
</svg>
