<svg width="24" height="24" viewBox="0 0 24 24" fill="none" xmlns="http://www.w3.org/2000/svg">
<path fill-rule="evenodd" clip-rule="evenodd" d="M10.2583 1.30221C11.2425 0.39373 12.7604 0.393727 13.7446 1.30221L22.3266 9.22409C23.4462 10.2576 23.4812 12.0158 22.4038 13.0932C22.119 13.3779 21.7836 13.5824 21.4272 13.7124V22.2856C21.4271 22.7577 21.0439 23.1401 20.5718 23.1401H16.2866C15.8146 23.1399 15.4312 22.7576 15.4311 22.2856V17.9995C15.431 16.1049 13.8951 14.5688 12.0005 14.5688C10.1061 14.5691 8.57 16.1051 8.56981 17.9995V22.2856C8.56972 22.7576 8.18727 23.1399 7.71532 23.1401H3.42919C2.9572 23.1399 2.57381 22.7576 2.57372 22.2856V13.7124C2.21794 13.5824 1.88344 13.3775 1.59911 13.0932C0.521659 12.0158 0.556603 10.2576 1.67626 9.22409L10.2583 1.30221ZM5.29051 13.1899C4.99164 13.4588 4.64661 13.6451 4.28465 13.7563V21.4301H6.85985V17.9995C6.86004 15.1607 9.16167 12.8591 12.0005 12.8589C14.8395 12.8589 17.1409 15.1605 17.1411 17.9995V21.4301H19.7173V13.7563C19.3556 13.6451 19.0111 13.4586 18.7124 13.1899L12.0015 7.15085L5.29051 13.1899ZM12.5845 2.55905C12.2553 2.25521 11.7476 2.25521 11.4184 2.55905L2.83641 10.4809C2.43054 10.8556 2.41775 11.4925 2.80809 11.8833C2.98728 12.0624 3.21901 12.1575 3.45555 12.1674H3.55321C3.76702 12.1549 3.97649 12.0718 4.14696 11.9184L11.4292 5.36471L11.4927 5.31296C11.816 5.07317 12.269 5.09046 12.5737 5.36471L19.8559 11.9184C20.0265 12.0718 20.2358 12.155 20.4497 12.1674H20.5493C20.7851 12.157 21.0162 12.0619 21.1948 11.8833C21.5851 11.4926 21.5722 10.8556 21.1665 10.4809L12.5845 2.55905Z" fill="black"/>
</svg>
