<svg width="24" height="24" viewBox="0 0 24 24" fill="none" xmlns="http://www.w3.org/2000/svg">
<path d="M12.8574 12.0021C13.3294 12.0024 13.7119 12.3856 13.7119 12.8576C13.7117 13.3295 13.3293 13.7128 12.8574 13.7131H12C11.5279 13.7131 11.1447 13.3297 11.1445 12.8576C11.1445 12.3854 11.5278 12.0021 12 12.0021H12.8574Z" fill="black"/>
<path fill-rule="evenodd" clip-rule="evenodd" d="M14.207 0.290213C15.7549 0.0690951 17.1406 1.27062 17.1406 2.83416V21.1662C17.1406 22.7295 15.7556 23.9309 14.208 23.7101L5.63574 22.4855C4.37029 22.3045 3.42972 21.22 3.42969 19.9416V4.05877C3.42969 2.78035 4.37027 1.69589 5.63574 1.51482L14.207 0.290213ZM14.4492 1.98357L5.87793 3.20818C5.45475 3.26878 5.14062 3.63124 5.14062 4.05877V19.9416C5.14066 20.3691 5.45477 20.7316 5.87793 20.7922L14.4492 22.0168C14.9669 22.0907 15.4296 21.6891 15.4297 21.1662V2.83416C15.4297 2.31124 14.9669 1.90962 14.4492 1.98357Z" fill="black"/>
<path d="M19.7139 1.71599C21.1326 1.71599 22.2829 2.86662 22.2832 4.28533V19.714C22.2832 21.133 21.1328 22.2834 19.7139 22.2834C19.2419 22.2832 18.8585 21.9009 18.8584 21.4289C18.8585 20.9568 19.2418 20.5735 19.7139 20.5734C20.1884 20.5734 20.5732 20.1886 20.5732 19.714V4.28533C20.5729 3.81103 20.1882 3.42693 19.7139 3.42693C19.2418 3.4268 18.8584 3.04358 18.8584 2.57146C18.8585 2.09942 19.2418 1.71613 19.7139 1.71599Z" fill="black"/>
</svg>
