<svg width="24" height="24" viewBox="0 0 24 24" fill="none" xmlns="http://www.w3.org/2000/svg">
<path d="M14.2295 19.3198C14.7015 19.3199 15.084 19.7031 15.084 20.1752C15.084 20.6473 14.7015 21.0305 14.2295 21.0307H9.77148C9.2993 21.0307 8.91604 20.6474 8.91602 20.1752C8.91602 19.703 9.29928 19.3198 9.77148 19.3198H14.2295Z" fill="black"/>
<path fill-rule="evenodd" clip-rule="evenodd" d="M9.68457 0.461353C10.7911 0.00374323 12.0093 -0.115525 13.1836 0.11858C14.3578 0.352728 15.4368 0.929939 16.2832 1.77678C17.1296 2.62379 17.7061 3.70392 17.9395 4.87835C18.0139 5.25313 18.0499 5.63105 18.0518 6.00627C18.0526 6.02191 18.0547 6.03828 18.0547 6.05413V21.6567C18.0547 22.9382 16.9954 23.9975 15.7139 23.9975H8.28418C7.0028 23.9973 5.9434 22.9381 5.94336 21.6567V16.4555C5.9447 14.8504 6.58338 13.3108 7.71875 12.1762C8.85421 11.0417 10.3939 10.4039 11.999 10.4037C12.8584 10.4037 13.6985 10.1487 14.4131 9.67131C15.8558 8.70747 16.5997 6.91321 16.2617 5.21135C16.0942 4.3686 15.6806 3.59358 15.0732 2.98577C14.4659 2.37813 13.6912 1.96335 12.8486 1.79534C12.0063 1.62754 11.1326 1.71328 10.3389 2.04143C9.54482 2.36982 8.86561 2.92693 8.3877 3.64104C7.90991 4.35507 7.65413 5.195 7.65332 6.05413C7.65296 6.52627 7.26997 6.90888 6.79785 6.90862C6.32576 6.90813 5.943 6.52527 5.94336 6.05315C5.94436 4.8558 6.29997 3.685 6.96582 2.68987C7.63174 1.69477 8.57812 0.918992 9.68457 0.461353ZM16.3447 10.2699C16.0507 10.5756 15.723 10.8529 15.3633 11.0932C14.3675 11.7584 13.1966 12.1137 11.999 12.1137C10.8473 12.1138 9.74251 12.5712 8.92773 13.3852C8.11291 14.1994 7.65431 15.3046 7.65332 16.4565C7.65227 17.8346 7.65332 20.8459 7.65332 21.6567C7.65336 21.9937 7.94719 22.2873 8.28418 22.2875H15.7139C16.051 22.2875 16.3447 21.9938 16.3447 21.6567V10.2699Z" fill="black"/>
</svg>
