<svg width="24" height="24" viewBox="0 0 24 24" fill="none" xmlns="http://www.w3.org/2000/svg">
<path d="M17.1426 16.2871C17.6146 16.2873 17.9971 16.6705 17.9971 17.1426C17.9969 17.6145 17.6145 17.9978 17.1426 17.998H6.85645C6.38449 17.9978 6.00111 17.6145 6.00098 17.1426C6.00098 16.6705 6.38441 16.2873 6.85645 16.2871H17.1426Z" fill="black"/>
<path fill-rule="evenodd" clip-rule="evenodd" d="M11.999 6.00195C12.2485 6.00195 12.486 6.11138 12.6484 6.30078L17.791 12.3008C18.0083 12.5543 18.0585 12.9115 17.9189 13.2148C17.7794 13.5178 17.4761 13.7127 17.1426 13.7129H6.85645C6.52281 13.7127 6.21962 13.5179 6.08008 13.2148C5.94061 12.9116 5.98996 12.5543 6.20703 12.3008L11.3506 6.30078L11.4141 6.2334C11.5715 6.0857 11.7809 6.00212 11.999 6.00195ZM8.71582 12.002H15.2832L11.999 8.1709L8.71582 12.002Z" fill="black"/>
<path fill-rule="evenodd" clip-rule="evenodd" d="M19.3467 0.858398C21.4417 0.858487 23.1405 2.55827 23.1406 4.65332V19.3477C23.1403 21.4425 21.4416 23.1415 19.3467 23.1416H4.65234C2.55751 23.1414 0.858749 21.4425 0.858398 19.3477V4.65332C0.858562 2.55836 2.55739 0.858626 4.65234 0.858398H19.3467ZM4.65234 2.57031C3.5018 2.57054 2.5695 3.50276 2.56934 4.65332V19.3477C2.56969 20.4981 3.50192 21.4314 4.65234 21.4316H19.3467C20.4972 21.4316 21.4303 20.4981 21.4307 19.3477V4.65332C21.4305 3.50268 20.4973 2.5704 19.3467 2.57031H4.65234Z" fill="black"/>
</svg>
