<svg width="24" height="24" viewBox="0 0 24 24" fill="none" xmlns="http://www.w3.org/2000/svg">
<path fill-rule="evenodd" clip-rule="evenodd" d="M14.1104 2.00391C14.5825 2.00397 14.9658 2.38721 14.9658 2.85938V3.41016H15.5166C15.9887 3.41022 16.3721 3.79346 16.3721 4.26562C16.3721 4.73779 15.9887 5.12103 15.5166 5.12109H14.3936L9.34082 8.91016V22.5469C9.34082 23.019 8.9575 23.4023 8.48535 23.4023C8.01315 23.4023 7.62988 23.0191 7.62988 22.5469V8.91016L2.57715 5.12109H1.4541C0.981898 5.12109 0.598633 4.73783 0.598633 4.26562C0.598633 3.79342 0.981898 3.41016 1.4541 3.41016H2.00488V2.85938C2.00488 2.38717 2.38815 2.00391 2.86035 2.00391C3.3325 2.00397 3.71582 2.38721 3.71582 2.85938V3.41016H4.81738V2.85938C4.81738 2.38717 5.20065 2.00391 5.67285 2.00391C6.145 2.00397 6.52832 2.38721 6.52832 2.85938V3.41016H10.4424V2.85938C10.4424 2.38717 10.8256 2.00391 11.2979 2.00391C11.77 2.00397 12.1533 2.38721 12.1533 2.85938V3.41016H13.2549V2.85938C13.2549 2.38717 13.6381 2.00391 14.1104 2.00391ZM8.48438 7.41602L11.5459 5.12109H5.4248L8.48438 7.41602Z" fill="black"/>
<path fill-rule="evenodd" clip-rule="evenodd" d="M21.1416 9.03516C21.6137 9.03522 21.9971 9.41846 21.9971 9.89062V10.4414H22.5479C23.02 10.4415 23.4033 10.8247 23.4033 11.2969C23.4033 11.769 23.02 12.1523 22.5479 12.1523H21.4951L17.7783 15.8691V22.5469C17.7783 23.019 17.395 23.4023 16.9229 23.4023C16.4506 23.4023 16.0674 23.0191 16.0674 22.5469V15.8691L12.3506 12.1523H11.2979C10.8256 12.1523 10.4424 11.7691 10.4424 11.2969C10.4424 10.8247 10.8256 10.4414 11.2979 10.4414H11.8486V9.89062C11.8486 9.41842 12.2319 9.03516 12.7041 9.03516C13.1762 9.03522 13.5596 9.41846 13.5596 9.89062V10.4414H20.2861V9.89062C20.2861 9.41842 20.6694 9.03516 21.1416 9.03516ZM16.9229 14.3066L19.0771 12.1523H14.7686L16.9229 14.3066Z" fill="black"/>
</svg>
