<svg width="24" height="24" viewBox="0 0 24 24" fill="none" xmlns="http://www.w3.org/2000/svg">
<path d="M18.8574 14.5732C19.3295 14.5734 19.7129 14.9566 19.7129 15.4287C19.7128 15.9007 19.3294 16.284 18.8574 16.2842H13.7148C13.2427 16.2842 12.8595 15.9008 12.8594 15.4287C12.8594 14.9565 13.2426 14.5732 13.7148 14.5732H18.8574Z" fill="black"/>
<path d="M10.2861 14.5732C10.758 14.5735 11.1415 14.9568 11.1416 15.4287C11.1414 15.9006 10.758 16.2829 10.2861 16.2832H5.14355C4.67149 16.2832 4.28831 15.9007 4.28809 15.4287C4.28822 14.9566 4.67143 14.5732 5.14355 14.5732H10.2861Z" fill="black"/>
<path d="M12.001 4.28711C12.4727 4.28752 12.8553 4.67074 12.8555 5.14258V10.2852C12.8555 10.7571 12.4728 11.1402 12.001 11.1406C11.5288 11.1406 11.1455 10.7574 11.1455 10.2852V5.14258C11.1456 4.67049 11.5289 4.28711 12.001 4.28711Z" fill="black"/>
<path fill-rule="evenodd" clip-rule="evenodd" d="M19.3477 0.858398C21.4426 0.858619 23.1414 2.55835 23.1416 4.65332V19.3477C23.1412 21.4425 21.4425 23.1414 19.3477 23.1416H4.65332C2.55843 23.1414 0.859725 21.4425 0.859375 19.3477V4.65332C0.859538 2.55832 2.55831 0.85856 4.65332 0.858398H19.3477ZM4.65332 2.57031C3.50272 2.57047 2.57048 3.50272 2.57031 4.65332V19.3477C2.57066 20.4981 3.50284 21.4315 4.65332 21.4316H19.3477C20.4981 21.4314 21.4313 20.4981 21.4316 19.3477V4.65332C21.4315 3.50276 20.4982 2.57053 19.3477 2.57031H4.65332Z" fill="black"/>
</svg>
