<svg width="24" height="24" viewBox="0 0 24 24" fill="none" xmlns="http://www.w3.org/2000/svg">
<path d="M9.55957 10.7227C10.2068 10.7884 10.7118 11.3355 10.7119 12C10.7118 12.6645 10.2067 13.2106 9.55957 13.2764C9.51653 13.2807 9.4729 13.2832 9.42871 13.2832C9.38728 13.2832 9.34609 13.2812 9.30566 13.2773C8.69749 13.2196 8.21289 12.7379 8.15137 12.1309L8.14941 12.0938C8.14605 12.063 8.14453 12.0317 8.14453 12C8.14453 11.968 8.14501 11.9363 8.14844 11.9053L8.15137 11.8682C8.2133 11.2616 8.69778 10.7794 9.30566 10.7217C9.34608 10.7178 9.3873 10.7158 9.42871 10.7158L9.55957 10.7227Z" fill="black"/>
<path d="M14.7021 10.7227C15.3494 10.7883 15.8544 11.3354 15.8545 12C15.8544 12.7088 15.2801 13.2831 14.5713 13.2832C13.9066 13.2832 13.3596 12.7782 13.2939 12.1309L13.2871 12L13.2939 11.8682C13.36 11.2212 13.9069 10.7158 14.5713 10.7158L14.7021 10.7227Z" fill="black"/>
<path fill-rule="evenodd" clip-rule="evenodd" d="M12 4.28711C16.2591 4.28726 19.7118 7.74091 19.7119 12C19.7118 16.249 16.2754 19.6945 12.0303 19.7109C12.0202 19.7113 12.0101 19.7129 12 19.7129C11.9893 19.7129 11.9784 19.7113 11.9678 19.7109C7.72339 19.6936 4.28726 16.2484 4.28711 12C4.28724 7.74081 7.74078 4.28711 12 4.28711ZM12.8555 7.71387C12.8555 8.18599 12.4721 8.5692 12 8.56934C11.5278 8.56934 11.1445 8.18607 11.1445 7.71387V6.05957C8.23501 6.47479 5.99817 8.97569 5.99805 12C5.99818 15.0242 8.23512 17.5241 11.1445 17.9395V16.2861C11.1445 15.8139 11.5278 15.4307 12 15.4307C12.4721 15.4308 12.8555 15.814 12.8555 16.2861V17.9395C15.7648 17.524 18.0018 15.0241 18.002 12C18.0018 8.97579 15.7649 6.4749 12.8555 6.05957V7.71387Z" fill="black"/>
<path fill-rule="evenodd" clip-rule="evenodd" d="M20.5713 0.858398C21.99 0.85855 23.1404 2.01002 23.1406 3.42871V20.5723C23.1402 21.9908 21.9899 23.1415 20.5713 23.1416H3.42773C2.00932 23.1412 0.858813 21.9907 0.858398 20.5723V3.42871C0.858625 2.01015 2.0092 0.858756 3.42773 0.858398H20.5713ZM3.42773 2.57031C2.95361 2.57067 2.56956 2.95455 2.56934 3.42871V20.5723C2.56975 21.0463 2.95372 21.4313 3.42773 21.4316H20.5713C21.0455 21.4315 21.4302 21.0464 21.4307 20.5723V3.42871C21.4304 2.95443 21.0456 2.57046 20.5713 2.57031H3.42773Z" fill="black"/>
</svg>
