<svg width="24" height="24" viewBox="0 0 24 24" fill="none" xmlns="http://www.w3.org/2000/svg">
<path d="M9.42871 9.43066C9.9008 9.4308 10.2842 9.81401 10.2842 10.2861V13.7148C10.2838 14.1867 9.90059 14.5692 9.42871 14.5693C8.95672 14.5693 8.57358 14.1868 8.57324 13.7148V10.2861C8.57324 9.81393 8.95651 9.43066 9.42871 9.43066Z" fill="black"/>
<path d="M14.5713 9.43066C15.0434 9.4308 15.4268 9.81401 15.4268 10.2861V13.7148C15.4264 14.1867 15.0432 14.5692 14.5713 14.5693C14.0994 14.5692 13.7171 14.1867 13.7168 13.7148V10.2861C13.7168 9.81402 14.0992 9.43081 14.5713 9.43066Z" fill="black"/>
<path fill-rule="evenodd" clip-rule="evenodd" d="M12 4.28711C16.2591 4.28726 19.7118 7.74091 19.7119 12C19.7118 16.2591 16.2591 19.7118 12 19.7119C7.74091 19.7118 4.28726 16.2591 4.28711 12C4.28724 7.74089 7.74089 4.28724 12 4.28711ZM12 5.99805C8.6853 5.99818 5.99818 8.6853 5.99805 12C5.9982 15.3147 8.68531 18.0018 12 18.002C15.3147 18.0018 18.0018 15.3147 18.002 12C18.0018 8.68531 15.3147 5.9982 12 5.99805Z" fill="black"/>
<path fill-rule="evenodd" clip-rule="evenodd" d="M19.3477 0.858398C21.4425 0.85875 23.1414 2.55843 23.1416 4.65332V19.3477C23.1412 21.4424 21.4424 23.1413 19.3477 23.1416H4.65332C2.55843 23.1414 0.858749 21.4425 0.858398 19.3477V4.65332C0.858562 2.55832 2.55831 0.85856 4.65332 0.858398H19.3477ZM4.65332 2.57031C3.50272 2.57047 2.57048 3.50272 2.57031 4.65332V19.3477C2.57066 20.4981 3.50284 21.4315 4.65332 21.4316H19.3477C20.498 21.4313 21.4313 20.498 21.4316 19.3477V4.65332C21.4315 3.50284 20.4981 2.57066 19.3477 2.57031H4.65332Z" fill="black"/>
</svg>
