<svg width="24" height="24" viewBox="0 0 24 24" fill="none" xmlns="http://www.w3.org/2000/svg">
<path d="M16.5391 4.53809C16.8729 4.20434 17.4142 4.20446 17.748 4.53809C18.0819 4.87197 18.0819 5.41319 17.748 5.74707L16.0342 7.46191C15.7003 7.79579 15.1581 7.79574 14.8242 7.46191L13.1104 5.74707C12.7767 5.41315 12.7765 4.8719 13.1104 4.53809C13.4442 4.20427 13.9854 4.20443 14.3193 4.53809L15.4287 5.64648L16.5391 4.53809Z" fill="black"/>
<path d="M7.96777 4.53809C8.3017 4.20455 8.84396 4.20431 9.17773 4.53809L10.8916 6.25195C11.2253 6.58574 11.2251 7.12803 10.8916 7.46191C10.5578 7.79545 10.0165 7.79527 9.68262 7.46191L8.57227 6.35156L7.46289 7.46191C7.1291 7.7954 6.58774 7.79532 6.25391 7.46191C5.92001 7.12802 5.92001 6.58585 6.25391 6.25195L7.96777 4.53809Z" fill="black"/>
<path fill-rule="evenodd" clip-rule="evenodd" d="M19.3477 0.858398C21.4427 0.858485 23.1414 2.55827 23.1416 4.65332V19.3477C23.1413 21.4425 21.4426 23.1415 19.3477 23.1416H4.65332C2.55854 23.1413 0.859727 21.4424 0.859375 19.3477V4.65332C0.859537 2.55839 2.55843 0.858694 4.65332 0.858398H19.3477ZM8.08203 11.1416C6.93154 11.1419 5.99919 12.0741 5.99902 13.2246V21.4316H11.1455V11.1416H8.08203ZM12.8564 21.4316H18.0029V13.2246C18.0028 12.0739 17.0697 11.1416 15.9189 11.1416H12.8564V21.4316ZM4.65332 2.57031C3.50283 2.57061 2.57047 3.5028 2.57031 4.65332V19.3477C2.57063 20.3732 3.31219 21.2234 4.28809 21.3965V13.2246C4.28825 11.1297 5.98714 9.43096 8.08203 9.43066H15.9189C18.0141 9.43066 19.7127 11.1295 19.7129 13.2246V21.3965C20.6892 21.2236 21.4313 20.3735 21.4316 19.3477V4.65332C21.4315 3.50267 20.4983 2.5704 19.3477 2.57031H4.65332Z" fill="black"/>
</svg>
