<svg width="24" height="24" viewBox="0 0 24 24" fill="none" xmlns="http://www.w3.org/2000/svg">
<path fill-rule="evenodd" clip-rule="evenodd" d="M12.001 6.56738C13.7369 6.56771 15.1445 7.97589 15.1445 9.71191V14.2891C15.1443 16.0249 13.7368 17.4323 12.001 17.4326C10.2649 17.4326 8.85663 16.0251 8.85645 14.2891V9.71191C8.85645 7.97569 10.2648 6.56738 12.001 6.56738ZM12.001 8.27832C11.2092 8.27832 10.5674 8.9201 10.5674 9.71191V14.2891C10.5676 15.0807 11.2093 15.7227 12.001 15.7227C12.7924 15.7223 13.4344 15.0805 13.4346 14.2891V9.71191C13.4346 8.9203 12.7925 8.27865 12.001 8.27832Z" fill="black"/>
<path d="M3.94043 6.43164C5.25519 6.43199 6.58632 7.25845 7.03516 8.52832C7.19196 8.97321 6.95841 9.46173 6.51367 9.61914C6.0686 9.77642 5.58035 9.54261 5.42285 9.09766C5.24342 8.59021 4.61803 8.14295 3.94043 8.14258C3.15335 8.14258 2.507 8.78712 2.50684 9.48926C2.50695 10.0443 2.8844 10.5285 3.42285 10.6631C4.341 10.8926 3.70513 10.7337 4.71582 10.9863C6.10722 11.3344 7.08398 12.5852 7.08398 14.0195V14.1533C7.0838 15.8891 5.67615 17.2964 3.94043 17.2969C2.6256 17.2969 1.29485 16.471 0.845703 15.2012C0.688379 14.7561 0.921203 14.2678 1.36621 14.1104C1.81118 13.9533 2.29954 14.1861 2.45703 14.6309C2.63665 15.1384 3.2626 15.5869 3.94043 15.5869C4.73174 15.5865 5.37384 14.9447 5.37402 14.1533V14.0195C5.37402 13.3698 4.93096 12.8033 4.30078 12.6455C3.29003 12.3928 3.92623 12.5519 3.00781 12.3223C1.70816 11.9973 0.795033 10.8289 0.794922 9.48926C0.795073 7.75892 2.29499 6.43164 3.94043 6.43164Z" fill="black"/>
<path d="M20.0615 6.43164C21.3764 6.43179 22.7074 7.25822 23.1562 8.52832C23.3133 8.97342 23.0798 9.46186 22.6348 9.61914C22.1897 9.77625 21.7013 9.54269 21.5439 9.09766C21.3646 8.59014 20.7394 8.14274 20.0615 8.14258C19.2746 8.14271 18.6281 8.78722 18.6279 9.48926C18.628 10.0442 19.0054 10.5284 19.5439 10.6631C20.463 10.8928 19.8266 10.7337 20.8369 10.9863C22.2285 11.3343 23.2051 12.585 23.2051 14.0195V14.1533C23.2049 15.8892 21.7976 17.2967 20.0615 17.2969C18.7466 17.2968 17.4159 16.4709 16.9668 15.2012C16.8095 14.7562 17.0425 14.268 17.4873 14.1104C17.9324 13.953 18.4206 14.1859 18.5781 14.6309C18.7577 15.1386 19.3837 15.5868 20.0615 15.5869C20.8532 15.5867 21.4949 14.9449 21.4951 14.1533V14.0195C21.4951 13.3697 21.0523 12.8031 20.4219 12.6455C19.411 12.3928 20.0482 12.552 19.1289 12.3223C17.8293 11.9972 16.9171 10.8288 16.917 9.48926C16.9171 7.75898 18.4163 6.43177 20.0615 6.43164Z" fill="black"/>
</svg>
