<svg width="24" height="24" viewBox="0 0 24 24" fill="none" xmlns="http://www.w3.org/2000/svg">
<path d="M17.9395 4.26758C18.4117 4.26758 18.7949 4.65084 18.7949 5.12305C18.7948 5.59514 18.4116 5.97852 17.9395 5.97852H16.0645C15.5924 5.97838 15.2091 5.59506 15.209 5.12305C15.209 4.65092 15.5924 4.26771 16.0645 4.26758H17.9395Z" fill="black"/>
<path fill-rule="evenodd" clip-rule="evenodd" d="M18 0.858398C20.3657 0.858474 22.2832 2.77785 22.2832 5.14355C22.2829 7.21604 20.811 8.94348 18.8555 9.33984V18.002H19.7139C21.1327 18.002 22.283 19.1525 22.2832 20.5713C22.2831 21.9902 21.1328 23.1406 19.7139 23.1406H4.28516C2.86656 23.1403 1.71595 21.9899 1.71582 20.5713C1.71605 19.1527 2.86663 18.0023 4.28516 18.002H5.14453V9.33984C3.18897 8.94336 1.71612 7.21593 1.71582 5.14355C1.71582 2.77788 3.63436 0.85853 6 0.858398H18ZM4.28516 19.7129C3.81103 19.7133 3.42698 20.0971 3.42676 20.5713C3.42689 21.0455 3.81097 21.4303 4.28516 21.4307H19.7139C20.1884 21.4307 20.5731 21.0457 20.5732 20.5713C20.573 20.0969 20.1883 19.7129 19.7139 19.7129H4.28516ZM6.85547 18.002H17.1445V9.42676H15.4268V9.42871C15.4266 11.0255 14.3338 12.3671 12.8555 12.7471V13.7139C12.8555 14.1861 12.4722 14.5693 12 14.5693C11.5278 14.5693 11.1445 14.1861 11.1445 13.7139V12.7471C9.66603 12.3672 8.57337 11.0256 8.57324 9.42871V9.42676H6.85547V18.002ZM10.2842 9.42871C10.2843 10.3765 11.0522 11.1445 12 11.1445C12.9478 11.1444 13.7166 10.3765 13.7168 9.42871V9.42676H10.2842V9.42871ZM6 2.57031C4.57877 2.57044 3.42676 3.72229 3.42676 5.14355C3.42709 6.54394 4.54591 7.68006 5.93848 7.71289C5.9588 7.71144 5.97931 7.71094 6 7.71094C6.03405 7.71094 6.06757 7.71292 6.10059 7.7168H9.41113C9.4169 7.71668 9.42292 7.71582 9.42871 7.71582C9.43459 7.71582 9.44044 7.71668 9.44629 7.7168H14.5537C14.5595 7.71668 14.5655 7.71582 14.5713 7.71582C14.5772 7.71582 14.583 7.71668 14.5889 7.7168H18C19.4211 7.71672 20.5729 6.56456 20.5732 5.14355C20.5732 3.72226 19.4213 2.57039 18 2.57031H6Z" fill="black"/>
</svg>
