<svg width="24" height="24" viewBox="0 0 24 24" fill="none" xmlns="http://www.w3.org/2000/svg">
<path d="M22.2861 1.71582C22.758 1.71618 23.1405 2.09942 23.1406 2.57129C23.1406 3.04327 22.758 3.4264 22.2861 3.42676H12.8555V11.1445H18.8574C19.3294 11.1448 19.7119 11.528 19.7119 12C19.7119 12.472 19.3294 12.8552 18.8574 12.8555H12.8555V23.1426C12.8555 23.6147 12.4721 23.9979 12 23.998C11.5278 23.998 11.1445 23.6148 11.1445 23.1426V2.57129C11.1447 2.0992 11.5279 1.71582 12 1.71582H22.2861Z" fill="black"/>
<path fill-rule="evenodd" clip-rule="evenodd" d="M4.28516 0.00195312C6.17748 0.00195312 7.71184 1.53641 7.71191 3.42871C7.71178 5.32097 6.17744 6.85547 4.28516 6.85547C2.39304 6.85526 0.85853 5.32084 0.858398 3.42871C0.858474 1.53653 2.39301 0.00216034 4.28516 0.00195312ZM4.28516 1.71289C3.33742 1.7131 2.56941 2.48094 2.56934 3.42871C2.56947 4.37643 3.33745 5.1453 4.28516 5.14551C5.23304 5.14551 6.00182 4.37656 6.00195 3.42871C6.00188 2.48081 5.23307 1.71289 4.28516 1.71289Z" fill="black"/>
</svg>
