<svg width="24" height="24" viewBox="0 0 24 24" fill="none" xmlns="http://www.w3.org/2000/svg">
<path fill-rule="evenodd" clip-rule="evenodd" d="M11.3955 1.11004C11.7294 0.776145 12.2716 0.776145 12.6055 1.11004C13.4465 1.95091 21.9316 9.65905 22.3076 10.0036C22.8387 10.4903 23.1416 11.1771 23.1416 11.8972V13.7477C23.1423 13.7648 23.1419 13.7816 23.1416 13.7985V18.8708C23.1435 18.8996 23.1426 18.9283 23.1416 18.9567V20.572C23.1414 21.9907 21.991 23.1411 20.5723 23.1413H3.42871C2.01006 23.1411 0.85956 21.9907 0.859375 20.572V11.8972C0.859394 11.177 1.16251 10.4902 1.69336 10.0036C2.06983 9.65851 10.554 1.95133 11.3955 1.11004ZM5.63281 18.0016C5.27211 17.9702 5.12562 18.1319 4.51367 18.7692C4.24969 19.0441 3.88671 19.4012 3.38965 19.6325C3.13639 19.7503 2.86394 19.8274 2.57031 19.86V20.572C2.5705 21.0462 2.95444 21.4311 3.42871 21.4313H20.5723C21.0466 21.4312 21.4315 21.0463 21.4316 20.572V19.8259C21.146 19.7958 20.881 19.7244 20.6348 19.6091C20.1375 19.3759 19.8031 19.0106 19.5693 18.7321C19.0156 18.0723 18.9676 17.9897 18.7021 18.0036C18.362 18.0215 18.1413 18.2138 17.6504 18.7184C17.2301 19.1505 16.5352 19.8944 15.3828 19.8493C14.2974 19.8066 13.6718 19.0744 13.2998 18.6638C12.8641 18.1829 12.68 18.024 12.3906 18.0026C12.0547 17.978 11.827 18.1405 11.2969 18.6608C10.8518 19.0977 10.1059 19.8906 8.91113 19.8493C7.81337 19.8111 7.14909 19.1299 6.72266 18.7097C6.24534 18.2393 6.00651 18.0344 5.63281 18.0016ZM5.62793 12.8581C5.26707 12.827 5.12019 12.9893 4.50879 13.6257C4.24478 13.9004 3.88185 14.2569 3.38477 14.488C3.13292 14.605 2.862 14.6815 2.57031 14.7145V18.1179C2.60553 18.1061 2.63892 18.0957 2.66895 18.0817C2.85792 17.9937 3.03512 17.84 3.28027 17.5847C3.68722 17.1608 4.43849 16.1814 5.78125 16.2985C6.8558 16.3924 7.50881 17.0839 7.92285 17.4919C8.38765 17.9499 8.61578 18.128 8.9707 18.1403C9.32364 18.1525 9.56236 17.9675 10.0996 17.4401C10.552 16.996 11.306 16.2093 12.5146 16.2975C13.5844 16.3759 14.2022 17.1122 14.5674 17.5153C14.9965 17.989 15.1736 18.1304 15.4502 18.1413C15.7526 18.153 15.9515 18.0116 16.4238 17.5261C16.8255 17.1132 17.4983 16.3544 18.6123 16.2956C19.923 16.2268 20.5715 17.2672 20.8789 17.6335C21.0756 17.8677 21.2133 17.9923 21.3604 18.0612C21.3811 18.0709 21.4054 18.0777 21.4316 18.0866V14.6804C21.1455 14.6504 20.8803 14.5781 20.6338 14.4626C20.1366 14.2295 19.8021 13.8649 19.5684 13.5866C19.0147 12.9272 18.9667 12.8441 18.7012 12.8581C18.361 12.8762 18.14 13.0687 17.6494 13.5729C17.2292 14.0049 16.535 14.7481 15.3828 14.7038C14.2973 14.6618 13.6715 13.9307 13.2988 13.5202C12.8625 13.0396 12.6775 12.8802 12.3877 12.8591C12.0517 12.8348 11.824 12.9974 11.2949 13.5163C10.8502 13.9525 10.1047 14.744 8.91113 14.7038C7.81274 14.6665 7.14694 13.9862 6.71973 13.5661C6.24178 13.0962 6.0024 12.8906 5.62793 12.8581ZM12 2.89227C9.82667 4.9213 3.14585 10.9909 2.84863 11.2634C2.67111 11.4261 2.57033 11.6563 2.57031 11.8972V12.9723C2.60363 12.961 2.63543 12.9505 2.66406 12.9372C2.85304 12.8493 3.03117 12.6963 3.27637 12.4411C3.68343 12.0173 4.4345 11.0378 5.77637 11.154C6.85102 11.2473 7.50421 11.9396 7.91895 12.3473C8.38467 12.8053 8.61406 12.9828 8.96973 12.9948C9.32248 13.0065 9.56053 12.8214 10.0967 12.2956C10.5489 11.852 11.3034 11.0658 12.5107 11.153C13.5808 11.2305 14.1986 11.9678 14.5645 12.3708C14.9943 12.8443 15.1721 12.9851 15.4492 12.9958C15.7519 13.0073 15.9516 12.8659 16.4238 12.3806C16.8256 11.9675 17.4978 11.2089 18.6113 11.1501C19.9218 11.081 20.5704 12.1207 20.8779 12.487C21.0748 12.7214 21.2123 12.8457 21.3594 12.9147C21.3805 12.9246 21.4049 12.932 21.4316 12.9411V11.8972C21.4316 11.6563 21.3298 11.427 21.1523 11.2643C20.8589 10.9955 14.1734 4.92142 12 2.89227Z" fill="black"/>
</svg>
