<svg width="24" height="24" viewBox="0 0 24 24" fill="none" xmlns="http://www.w3.org/2000/svg">
<path fill-rule="evenodd" clip-rule="evenodd" d="M21.4297 1.71582C22.8483 1.71602 23.9987 2.86661 23.999 4.28516V21.4287C23.9989 21.9005 23.6163 22.2828 23.1445 22.2832C22.6724 22.2832 22.2892 21.9008 22.2891 21.4287V4.28516C22.2887 3.81101 21.9039 3.42696 21.4297 3.42676H8.57031V21.4287C8.57018 21.9008 8.18697 22.2842 7.71484 22.2842C7.70897 22.2842 7.70311 22.2833 7.69727 22.2832L0.857422 22.2842C0.474206 22.284 0.149349 22.0313 0.0410156 21.6836C0.0159104 21.6032 0.00295777 21.5174 0.00292969 21.4287V4.28516C0.00328762 2.86662 1.1537 1.71605 2.57227 1.71582H21.4297ZM2.57227 3.42676C2.09811 3.42698 1.71422 3.81103 1.71387 4.28516V20.5732H6.85938V12.8555H5.14355C4.67146 12.8553 4.28809 12.4721 4.28809 12C4.28809 11.5279 4.67146 11.1447 5.14355 11.1445H6.85938V3.42676H2.57227Z" fill="black"/>
<path d="M13.9678 7.9668C14.3016 7.63309 14.8429 7.63313 15.1768 7.9668C15.5105 8.30066 15.5105 8.8419 15.1768 9.17578L13.208 11.1445H19.7158C20.1877 11.1449 20.5703 11.528 20.5703 12C20.5703 12.472 20.1877 12.8551 19.7158 12.8555H13.208L15.1768 14.8242C15.5104 15.1581 15.5105 15.6994 15.1768 16.0332C14.8429 16.367 14.3017 16.3669 13.9678 16.0332L10.5391 12.6045C10.2054 12.2706 10.2053 11.7294 10.5391 11.3955L13.9678 7.9668Z" fill="black"/>
</svg>
