<svg width="24" height="24" viewBox="0 0 24 24" fill="none" xmlns="http://www.w3.org/2000/svg">
<path fill-rule="evenodd" clip-rule="evenodd" d="M21.4277 1.71582C22.8464 1.71595 23.9967 2.86656 23.9971 4.28516V21.4111C23.9972 21.4169 23.998 21.4229 23.998 21.4287C23.998 21.6226 23.9312 21.8001 23.8223 21.9434C23.8073 21.9631 23.792 21.9826 23.7754 22.001C23.7395 22.0405 23.6999 22.0761 23.6572 22.1084C23.6229 22.1345 23.5879 22.16 23.5498 22.1807C23.5014 22.2069 23.45 22.2285 23.3965 22.2451C23.3429 22.2618 23.287 22.2734 23.2295 22.2793C23.2009 22.2822 23.1719 22.2832 23.1426 22.2832L16.2852 22.2842C16.1375 22.2842 15.9982 22.2466 15.877 22.1807C15.8287 22.1544 15.7833 22.1236 15.7412 22.0889C15.5509 21.932 15.4298 21.6944 15.4297 21.4287V3.42676H2.57031C2.09616 3.42698 1.71227 3.81103 1.71191 4.28516V21.4287C1.71176 21.9007 1.32844 22.2831 0.856445 22.2832C0.384334 22.2832 0.00112608 21.9008 0.000976562 21.4287V4.28516C0.00133447 2.86662 1.15175 1.71605 2.57031 1.71582H21.4277ZM17.1406 11.1445H18.8564C19.3285 11.1447 19.7119 11.5279 19.7119 12C19.7119 12.4721 19.3285 12.8553 18.8564 12.8555H17.1406V20.5732H22.2871V4.28516C22.2868 3.81097 21.902 3.42689 21.4277 3.42676H17.1406V11.1445Z" fill="black"/>
<path d="M6.14551 8.9541C6.40751 8.56146 6.93826 8.45591 7.33105 8.71777C7.72343 8.97984 7.83011 9.51063 7.56836 9.90332L6.16992 12L7.56836 14.0967C7.83002 14.4894 7.7236 15.0212 7.33105 15.2832C6.93831 15.5449 6.40748 15.4384 6.14551 15.0459L4.44043 12.4883C4.35658 12.3675 4.30522 12.2281 4.29102 12.084C4.28714 12.0443 4.28643 12.0044 4.28809 11.9648C4.28978 11.9231 4.29389 11.8813 4.30176 11.8398C4.30458 11.825 4.30891 11.8105 4.3125 11.7959C4.32578 11.7418 4.34386 11.6884 4.36816 11.6367C4.38859 11.5931 4.41255 11.5508 4.44043 11.5107L6.14551 8.9541Z" fill="black"/>
<path d="M9.81055 8.71777C10.2033 8.45599 10.7341 8.56159 10.9961 8.9541L12.7109 11.5254C12.8012 11.6609 12.8465 11.8131 12.8525 11.9648C12.8542 12.0045 12.8535 12.0442 12.8496 12.084C12.8454 12.1263 12.8366 12.1678 12.8262 12.209C12.803 12.3009 12.7665 12.3912 12.7109 12.4746L10.9961 15.0459C10.7341 15.4384 10.2033 15.5449 9.81055 15.2832C9.4177 15.0213 9.3123 14.4896 9.57422 14.0967L10.9717 12L9.57422 9.90332C9.31239 9.51057 9.41802 8.97981 9.81055 8.71777Z" fill="black"/>
</svg>
