<svg width="24" height="24" viewBox="0 0 24 24" fill="none" xmlns="http://www.w3.org/2000/svg">
<path fill-rule="evenodd" clip-rule="evenodd" d="M21.4297 1.71582C22.8482 1.71608 23.9987 2.86665 23.999 4.28516V21.4287L23.9951 21.5156C23.9789 21.6758 23.9166 21.8218 23.8242 21.9434C23.8092 21.9631 23.794 21.9826 23.7773 22.001C23.6759 22.1129 23.5463 22.1992 23.3984 22.2451C23.3183 22.2701 23.2329 22.2831 23.1445 22.2832H16.2871L16.2861 22.2842C16.2568 22.2842 16.2278 22.2822 16.1992 22.2793C16.1131 22.2705 16.0307 22.2492 15.9541 22.2168C15.9028 22.1951 15.8542 22.1685 15.8086 22.1377C15.7858 22.1223 15.7633 22.1064 15.7422 22.0889C15.5521 21.932 15.4317 21.6942 15.4316 21.4287V3.42676H2.57227C2.09811 3.42698 1.71423 3.81103 1.71387 4.28516V21.4287C1.71372 21.9006 1.33029 22.2829 0.858398 22.2832C0.386287 22.2832 0.00210264 21.9008 0.00195312 21.4287V4.28516C0.00231094 2.86662 1.1537 1.71605 2.57227 1.71582H21.4297ZM17.1426 11.1445H18.8584C19.3304 11.1448 19.7139 11.528 19.7139 12C19.7139 12.472 19.3304 12.8552 18.8584 12.8555H17.1426V20.5732H22.2891V4.28516C22.2887 3.81105 21.9038 3.42702 21.4297 3.42676H17.1426V11.1445Z" fill="black"/>
</svg>
