<svg width="24" height="24" viewBox="0 0 24 24" fill="none" xmlns="http://www.w3.org/2000/svg">
<path fill-rule="evenodd" clip-rule="evenodd" d="M21.4287 1.71582C22.8474 1.71595 23.9977 2.86656 23.998 4.28516V21.4287L23.9941 21.5156C23.9779 21.6758 23.9156 21.8218 23.8232 21.9434C23.8082 21.9631 23.793 21.9826 23.7764 22.001C23.6749 22.1129 23.5453 22.1992 23.3975 22.2451C23.3173 22.2701 23.232 22.2831 23.1436 22.2832H16.2861L16.2852 22.2842C16.2558 22.2842 16.2268 22.2822 16.1982 22.2793C16.1121 22.2705 16.0297 22.2492 15.9531 22.2168C15.9019 22.1951 15.8532 22.1685 15.8076 22.1377C15.7848 22.1223 15.7624 22.1064 15.7412 22.0889C15.5511 21.932 15.4307 21.6942 15.4307 21.4287V3.42676H2.57129C2.09713 3.42698 1.71325 3.81103 1.71289 4.28516V21.4287C1.71274 21.9007 1.32942 22.2831 0.857422 22.2832C0.385311 22.2832 0.00210264 21.9008 0.00195312 21.4287V4.28516C0.00231104 2.86662 1.15273 1.71605 2.57129 1.71582H21.4287ZM17.1416 11.1445H18.8574C19.3295 11.1447 19.7129 11.5279 19.7129 12C19.7129 12.4721 19.3295 12.8553 18.8574 12.8555H17.1416V20.5732H22.2881V4.28516C22.2877 3.81097 21.9029 3.42689 21.4287 3.42676H17.1416V11.1445Z" fill="black"/>
<path d="M7.11035 7.9668C7.44428 7.63333 7.98558 7.63304 8.31934 7.9668C8.6529 8.30057 8.65273 8.84191 8.31934 9.17578L6.35059 11.1445H12.8574C13.3295 11.1447 13.7119 11.5279 13.7119 12C13.7119 12.4721 13.3295 12.8553 12.8574 12.8555H6.35059L8.31934 14.8242C8.65278 15.158 8.65276 15.6994 8.31934 16.0332C7.98554 16.3669 7.44425 16.3667 7.11035 16.0332L3.68164 12.6045C3.34777 12.2706 3.34781 11.7294 3.68164 11.3955L7.11035 7.9668Z" fill="black"/>
</svg>
