<svg width="24" height="24" viewBox="0 0 24 24" fill="none" xmlns="http://www.w3.org/2000/svg">
<path fill-rule="evenodd" clip-rule="evenodd" d="M21.4287 1.71582C22.8475 1.71582 23.9977 2.86648 23.998 4.28516V21.4287C23.9979 21.9006 23.6155 22.283 23.1436 22.2832C22.6714 22.2832 22.2882 21.9008 22.2881 21.4287V4.28516C22.2877 3.81089 21.9031 3.42676 21.4287 3.42676H8.57031V21.4287C8.57018 21.9007 8.18685 22.284 7.71484 22.2842C7.70905 22.2842 7.70303 22.2833 7.69727 22.2832L0.857422 22.2842C0.591831 22.2841 0.353966 22.1629 0.197266 21.9727C0.0752147 21.825 0.00201853 21.6352 0.00195312 21.4287V4.28516C0.002311 2.86662 1.15273 1.71605 2.57129 1.71582H21.4287ZM2.57129 3.42676C2.09713 3.42698 1.71325 3.81103 1.71289 4.28516V20.5732H6.85938V12.8555H5.14355C4.67135 12.8555 4.28809 12.4722 4.28809 12C4.28809 11.5278 4.67135 11.1445 5.14355 11.1445H6.85938V3.42676H2.57129Z" fill="black"/>
</svg>
