<svg width="24" height="24" viewBox="0 0 24 24" fill="none" xmlns="http://www.w3.org/2000/svg">
<path d="M5.90527 11.9404C6.97627 11.9406 8.00338 12.3668 8.76074 13.124C9.35785 13.7211 9.9549 14.3182 10.6143 14.9775C11.3004 15.6636 11.5116 16.6444 11.25 17.5127H16.5117C18.449 17.513 20.0193 19.0842 20.0195 21.0215C20.0195 22.2264 19.0428 23.203 17.8379 23.2031H7.58105C6.6362 23.2031 5.7209 22.8722 4.99512 22.2676C4.42285 21.7907 1.67582 19.5023 1.10352 19.0254C0.74084 18.7231 0.691859 18.183 0.994141 17.8203C1.2965 17.4579 1.83658 17.4087 2.19922 17.7109C2.77167 18.188 5.51763 20.4763 6.08984 20.9531C6.50852 21.302 7.03625 21.4932 7.58105 21.4932H17.8379C18.0982 21.493 18.3096 21.2821 18.3096 21.0215C18.3094 20.0287 17.5047 19.224 16.5117 19.2236H9.50781C8.65068 19.4652 7.69215 19.2496 7.01758 18.5752C6.3581 17.9157 6.48265 18.0403 5.82324 17.3809C5.48939 17.047 5.48944 16.5058 5.82324 16.1719C6.15717 15.8382 6.69842 15.838 7.03223 16.1719C7.69166 16.8314 7.56709 16.7068 8.22656 17.3662C8.55205 17.6914 9.07974 17.6914 9.40527 17.3662C9.7306 17.0406 9.73078 16.512 9.40527 16.1865C8.74586 15.5271 8.14887 14.9301 7.55176 14.333C7.11508 13.8964 6.52275 13.6515 5.90527 13.6514H1.65137C1.17916 13.6514 0.795898 13.2681 0.795898 12.7959C0.796031 12.3238 1.17925 11.9404 1.65137 11.9404H5.90527Z" fill="black"/>
<path fill-rule="evenodd" clip-rule="evenodd" d="M15.1855 0.795898C18.9552 0.795989 22.0107 3.85249 22.0107 7.62207V7.96094H22.3486C22.8208 7.96094 23.2041 8.3442 23.2041 8.81641C23.2038 9.28839 22.8207 9.67188 22.3486 9.67188H8.01953C7.54749 9.67188 7.16433 9.28839 7.16406 8.81641C7.16406 8.3442 7.54733 7.96094 8.01953 7.96094H8.35938V7.62207C8.35938 3.85243 11.4159 0.795898 15.1855 0.795898ZM15.1855 2.50684C12.3603 2.50684 10.0703 4.79683 10.0703 7.62207V7.96094H20.3008V7.62207C20.3008 4.79689 18.0107 2.50693 15.1855 2.50684Z" fill="black"/>
</svg>
