<svg width="24" height="24" viewBox="0 0 24 24" fill="none" xmlns="http://www.w3.org/2000/svg">
<path fill-rule="evenodd" clip-rule="evenodd" d="M0.857422 6.00195C2.27626 6.00195 3.42653 7.1525 3.42676 8.57129V9.42871C3.42689 9.90317 3.81164 10.2881 4.28613 10.2881H5.98145C5.98755 10.288 5.99389 10.2871 6 10.2871H21.4287C22.8474 10.2872 23.9977 11.4379 23.998 12.8564V17.1426C23.998 18.2611 23.2819 19.2097 22.2842 19.5625V19.7148C22.2839 21.6069 20.7495 23.1405 18.8574 23.1406C16.9653 23.1405 15.4309 21.6069 15.4307 19.7148V19.7119H11.998V19.7148C11.9978 21.607 10.4635 23.1406 8.57129 23.1406C6.67928 23.1404 5.14481 21.6068 5.14453 19.7148V19.5625C4.14668 19.2097 3.43066 18.2611 3.43066 17.1426V12.8564C3.43075 12.5202 3.49669 12.1996 3.61426 11.9053C2.52168 11.6096 1.71691 10.6148 1.7168 9.42871V8.57129C1.71657 8.09691 1.33185 7.71289 0.857422 7.71289C0.3853 7.71289 0.0020852 7.32951 0.00195312 6.85742C0.00195312 6.38522 0.385218 6.00195 0.857422 6.00195ZM6.85547 19.7148C6.85575 20.6624 7.62368 21.4305 8.57129 21.4307C9.51907 21.4307 10.2878 20.6626 10.2881 19.7148V19.7119H6.85547V19.7148ZM17.1416 19.7119V19.7148C17.1419 20.6625 17.9097 21.4306 18.8574 21.4307C19.8051 21.4305 20.5739 20.6625 20.5742 19.7148V19.7119H17.1416ZM6 11.998C5.52584 11.9983 5.14196 12.3823 5.1416 12.8564V17.1426C5.1416 17.617 5.52562 18.0017 6 18.002H8.57324V14.5713C8.57337 14.0993 8.9567 13.716 9.42871 13.7158C9.90083 13.7158 10.284 14.0992 10.2842 14.5713V18.002H17.1445V14.5713C17.1447 14.0993 17.528 13.716 18 13.7158C18.4721 13.7158 18.8553 14.0992 18.8555 14.5713V18.002H21.4287C21.9032 18.0018 22.2881 17.6171 22.2881 17.1426V12.8564C22.2877 12.3823 21.9029 11.9982 21.4287 11.998H6Z" fill="black"/>
<path fill-rule="evenodd" clip-rule="evenodd" d="M13.7148 1.71582C16.7368 1.71606 19.2364 3.95197 19.6514 6.85938H20.5713C21.0435 6.85938 21.4268 7.24264 21.4268 7.71484C21.4265 8.18682 21.0433 8.57031 20.5713 8.57031H6.85742C6.38538 8.57031 6.00222 8.18682 6.00195 7.71484C6.00195 7.24264 6.38522 6.85938 6.85742 6.85938H7.77734C8.19241 3.9519 10.6927 1.71596 13.7148 1.71582ZM13.7148 3.42676C11.6397 3.42689 9.90891 4.90112 9.5127 6.85938H17.917C17.5207 4.90119 15.7899 3.42699 13.7148 3.42676Z" fill="black"/>
</svg>
