<svg width="24" height="24" viewBox="0 0 24 24" fill="none" xmlns="http://www.w3.org/2000/svg">
<path d="M16.9229 13.2539C17.3949 13.254 17.7783 13.6373 17.7783 14.1094C17.7783 14.5815 17.3949 14.9647 16.9229 14.9648H12.7041C12.2319 14.9648 11.8486 14.5816 11.8486 14.1094C11.8486 13.6372 12.2319 13.2539 12.7041 13.2539H16.9229Z" fill="black"/>
<path fill-rule="evenodd" clip-rule="evenodd" d="M20.834 10.4414C22.2526 10.4417 23.4031 11.5922 23.4033 13.0107V19.4268C23.4031 20.8453 22.2526 21.9958 20.834 21.9961H20.5908V22.5469C20.5908 23.019 20.2074 23.4022 19.7354 23.4023C19.2631 23.4023 18.8799 23.0191 18.8799 22.5469V21.9961H10.7471V22.5469C10.7471 23.019 10.3637 23.4022 9.8916 23.4023C9.4194 23.4023 9.03613 23.0191 9.03613 22.5469V21.9961H8.79297C7.37433 21.9959 6.22386 20.8454 6.22363 19.4268V13.0107C6.22386 11.5921 7.37432 10.4416 8.79297 10.4414H20.834ZM8.79297 12.1523C8.31873 12.1526 7.9348 12.5365 7.93457 13.0107V19.4268C7.9348 19.901 8.31873 20.2849 8.79297 20.2852H20.834C21.3081 20.2848 21.6931 19.9009 21.6934 19.4268V13.0107C21.6931 12.5366 21.3081 12.1527 20.834 12.1523H8.79297Z" fill="black"/>
<path fill-rule="evenodd" clip-rule="evenodd" d="M7.0791 0.597656C7.67873 0.597721 8.25373 0.836733 8.67773 1.26074C8.89224 1.47528 9.05927 1.72843 9.17188 2.00391H19.7354C20.335 2.00397 20.91 2.24298 21.334 2.66699C21.758 3.09105 21.9971 3.66596 21.9971 4.26562V7.07812C21.9971 7.67779 21.758 8.2527 21.334 8.67676C20.91 9.10077 20.335 9.33978 19.7354 9.33984H9.8916C9.29194 9.33984 8.71702 9.10075 8.29297 8.67676C7.8689 8.25269 7.62988 7.67785 7.62988 7.07812V2.85938C7.62988 2.71323 7.57205 2.57309 7.46875 2.46973C7.36543 2.3664 7.22521 2.30866 7.0791 2.30859H1.4541C0.981898 2.30859 0.598633 1.92533 0.598633 1.45312C0.598633 0.980922 0.981898 0.597656 1.4541 0.597656H7.0791ZM9.34082 7.07812C9.34082 7.22433 9.39857 7.36439 9.50195 7.46777C9.60532 7.57108 9.74546 7.62891 9.8916 7.62891H11.8486V3.71484H9.34082V7.07812ZM17.7783 7.62891H19.7354C19.8815 7.62884 20.0217 7.57109 20.125 7.46777C20.2283 7.36441 20.2861 7.22427 20.2861 7.07812V4.26562C20.2861 4.11948 20.2283 3.97934 20.125 3.87598C20.0217 3.77266 19.8815 3.71491 19.7354 3.71484H17.7783V7.62891ZM13.5596 7.62891H16.0674V3.71484H13.5596V7.62891Z" fill="black"/>
</svg>
