<svg width="24" height="24" viewBox="0 0 24 24" fill="none" xmlns="http://www.w3.org/2000/svg">
<path d="M7.54457 7.74902C8.01661 7.74921 8.40004 8.1324 8.40004 8.60449V9.73047H9.52601C9.99789 9.73086 10.3805 10.114 10.3805 10.5859C10.3802 11.0577 9.99773 11.441 9.52601 11.4414H8.40004V12.5664C8.39983 13.0383 8.01648 13.4207 7.54457 13.4209C7.07249 13.4209 6.68931 13.0384 6.6891 12.5664V11.4414H5.5641C5.09206 11.4414 4.7089 11.0579 4.70863 10.5859C4.70863 10.1137 5.0919 9.73047 5.5641 9.73047H6.6891V8.60449C6.6891 8.13229 7.07237 7.74902 7.54457 7.74902Z" fill="black"/>
<path d="M15.3961 10.2959C16.1026 10.2961 16.6754 10.8697 16.6754 11.5762C16.6751 12.282 16.103 12.8548 15.3971 12.8555C15.3953 12.8555 15.3921 12.8545 15.3903 12.8545C14.7317 12.8511 14.1893 12.3503 14.1237 11.707L14.1168 11.5762L14.1237 11.4453C14.186 10.8301 14.6847 10.3438 15.3053 10.2998H15.3082L15.3961 10.2959Z" fill="black"/>
<path d="M18.0729 7.75586C18.7181 7.82154 19.2213 8.36698 19.2213 9.0293C19.2211 9.69145 18.718 10.2362 18.0729 10.3018L17.942 10.3086C17.2797 10.3083 16.7352 9.80469 16.6696 9.16016L16.6627 9.0293L16.6696 8.89844C16.7349 8.25355 17.2795 7.74933 17.942 7.74902L18.0729 7.75586Z" fill="black"/>
<path fill-rule="evenodd" clip-rule="evenodd" d="M16.736 3.50391C19.7919 3.50411 22.3594 5.80345 22.6969 8.84082L23.403 15.2002C23.7166 18.0248 21.5056 20.4961 18.6637 20.4961C16.8578 20.4959 15.2068 19.4745 14.3991 17.8594L14.0192 17.0996H9.98207L9.60219 17.8594C8.79436 19.4745 7.14357 20.4961 5.33754 20.4961C2.49565 20.496 0.284742 18.0247 0.59828 15.2002L1.30433 8.84082C1.64183 5.80335 4.21012 3.50398 7.26625 3.50391H16.736ZM7.26625 5.21582C5.08159 5.21589 3.246 6.85804 3.00453 9.0293L2.2975 15.3896C2.09677 17.2011 3.51499 18.7851 5.33754 18.7852C6.4958 18.7851 7.55469 18.1306 8.07289 17.0947L8.6891 15.8623C8.8339 15.5729 9.13012 15.3898 9.45375 15.3896H14.5475L14.6676 15.3984C14.943 15.4375 15.1854 15.6091 15.3121 15.8623L15.9284 17.0947C16.4465 18.1306 17.5055 18.785 18.6637 18.7852C20.4863 18.7852 21.9046 17.2011 21.7037 15.3896L20.9967 9.0293C20.7553 6.85814 18.9205 5.21602 16.736 5.21582H7.26625Z" fill="black"/>
</svg>
