<svg width="24" height="24" viewBox="0 0 24 24" fill="none" xmlns="http://www.w3.org/2000/svg">
<path d="M11.7109 17.6238C11.9296 17.545 12.1733 17.5586 12.3838 17.6638L14.0977 18.5212C14.5196 18.7325 14.6913 19.2456 14.4805 19.6677C14.2694 20.0899 13.7553 20.2614 13.333 20.0505L12.001 19.3835L10.6699 20.0505C10.2476 20.2617 9.7337 20.0899 9.52246 19.6677C9.3115 19.2456 9.48237 18.7325 9.9043 18.5212L11.6191 17.6638L11.7109 17.6238Z" fill="black"/>
<path fill-rule="evenodd" clip-rule="evenodd" d="M11.5801 0.970455C11.884 0.798475 12.2691 0.827047 12.5459 1.05639L22.2754 9.11792C22.2863 9.12694 22.2972 9.13668 22.3076 9.14624C22.8387 9.6329 23.1415 10.3198 23.1416 11.0398V20.572C23.1413 21.9907 21.991 23.1412 20.5723 23.1414H3.42871C2.01023 23.141 0.859655 21.9906 0.859375 20.572V11.0398C0.859472 10.3198 1.16272 9.63279 1.69336 9.14624L1.72559 9.11792L11.4551 1.05639L11.5801 0.970455ZM2.83887 10.4158C2.66755 10.5778 2.57041 10.8036 2.57031 11.0398V20.572C2.57059 21.0461 2.95461 21.431 3.42871 21.4314H5.14551V12.8572C5.14564 11.9117 5.9129 11.1443 6.8584 11.1443H17.1436C18.0888 11.1444 18.8563 11.9117 18.8564 12.8572V21.4314H20.5723C21.0466 21.4312 21.4314 21.0463 21.4316 20.572V11.0398C21.4315 10.8031 21.333 10.5778 21.1611 10.4158L12 2.82397L2.83887 10.4158ZM6.85645 21.4314H17.1455V16.2839H6.85547L6.85645 21.4314ZM6.8584 12.8552L6.85742 12.8542L6.85547 12.8562V14.573H17.1455V12.8572L17.1465 12.8562L17.1445 12.8542L6.8584 12.8552Z" fill="black"/>
</svg>
