<svg width="24" height="24" viewBox="0 0 24 24" fill="none" xmlns="http://www.w3.org/2000/svg">
<path fill-rule="evenodd" clip-rule="evenodd" d="M11.5791 0.970435C11.8831 0.798501 12.2681 0.827028 12.5449 1.05637L22.2744 9.1179C22.2852 9.12687 22.2963 9.13673 22.3066 9.14622C22.8376 9.63286 23.1405 10.3199 23.1406 11.0398V20.572C23.1403 21.9906 21.9899 23.1411 20.5713 23.1413H3.42773C2.00914 23.1411 0.858679 21.9906 0.858398 20.572V11.0398C0.858496 10.3197 1.16158 9.63278 1.69238 9.14622L1.72461 9.1179L11.4541 1.05637L11.5791 0.970435ZM2.83789 10.4157C2.66642 10.5778 2.56943 10.8035 2.56934 11.0398V20.572C2.56962 21.0462 2.95353 21.4311 3.42773 21.4314H5.14453V12.8572C5.14467 11.9117 5.91192 11.1443 6.85742 11.1443H17.1426C18.0877 11.1445 18.8553 11.9118 18.8555 12.8572V21.4314H20.5713C21.0455 21.4311 21.4304 21.0462 21.4307 20.572V11.0398C21.4306 10.8032 21.3318 10.5778 21.1602 10.4157L11.999 2.82395L2.83789 10.4157ZM6.85547 19.7126V21.4314H17.1445V19.7126H6.85547ZM6.85449 18.0017H17.1445V16.2839H6.85449V18.0017ZM6.85742 12.8552L6.85645 12.8542L6.85449 12.8562V14.573H17.1445V12.8572L17.1455 12.8562L17.1436 12.8542L6.85742 12.8552Z" fill="black"/>
</svg>
