<svg width="24" height="24" viewBox="0 0 24 24" fill="none" xmlns="http://www.w3.org/2000/svg">
<path fill-rule="evenodd" clip-rule="evenodd" d="M0.857422 1.71582C1.32954 1.71582 1.71276 2.0992 1.71289 2.57129V3.43164H4.28418C5.70157 3.4319 6.85547 4.5808 6.85547 6.00098V11.9902C6.85551 11.9935 6.85645 11.9967 6.85645 12C6.85645 12.0026 6.85549 12.0052 6.85547 12.0078L6.85645 18.001C6.85596 19.4192 5.70537 20.5698 4.28711 20.5703H1.71289V21.4287C1.71274 21.9008 1.32953 22.2832 0.857422 22.2832C0.385423 22.2831 0.00210348 21.9007 0.00195312 21.4287V2.57129C0.00208514 2.09928 0.385412 1.71595 0.857422 1.71582ZM1.71289 18.8594H4.28711C4.76096 18.8589 5.14502 18.4748 5.14551 18.001V12.8555H3.42969C2.95748 12.8555 2.57422 12.4722 2.57422 12C2.57422 11.5278 2.95748 11.1445 3.42969 11.1445H5.14551V6.00098C5.14551 5.52793 4.75989 5.14187 4.28418 5.1416H1.71289V18.8594Z" fill="black"/>
<path fill-rule="evenodd" clip-rule="evenodd" d="M23.1436 1.71582C23.6156 1.71595 23.9989 2.09928 23.999 2.57129V21.4287C23.9989 21.9007 23.6156 22.2831 23.1436 22.2832C22.6714 22.2832 22.2882 21.9008 22.2881 21.4287V20.5693H19.7178C18.3003 20.5693 17.1458 19.4201 17.1455 18V6C17.1457 4.58135 18.2962 3.43089 19.7148 3.43066H22.2881V2.57129C22.2882 2.0992 22.6714 1.71582 23.1436 1.71582ZM19.7148 5.1416C19.2406 5.14183 18.8567 5.52576 18.8564 6V11.1445H20.5723C21.0442 11.1448 21.4277 11.528 21.4277 12C21.4277 12.472 21.0442 12.8552 20.5723 12.8555H18.8564V18C18.8567 18.473 19.242 18.8594 19.7178 18.8594H22.2881V5.1416H19.7148Z" fill="black"/>
</svg>
