<svg width="24" height="24" viewBox="0 0 24 24" fill="none" xmlns="http://www.w3.org/2000/svg">
<path fill-rule="evenodd" clip-rule="evenodd" d="M12 0.00195312C18.626 0.00221703 23.9979 5.37406 23.998 12C23.9979 18.626 18.626 23.9978 12 23.998C5.37398 23.9979 0.00110851 18.6261 0.000976562 12C0.00112757 5.37399 5.37399 0.00210413 12 0.00195312ZM3.09082 17.1416C4.86936 20.217 8.19188 22.288 12 22.2881C15.8081 22.2879 19.1305 20.217 20.9092 17.1416H3.09082ZM12 1.71289C6.3184 1.71304 1.71304 6.3184 1.71289 12C1.71292 13.2032 1.9212 14.3574 2.30078 15.4307H11.5166L16.4102 7.27539C16.6531 6.87048 17.1781 6.7385 17.583 6.98145C17.9874 7.22446 18.1186 7.74959 17.876 8.1543L13.5107 15.4307H21.6992C22.0788 14.3575 22.2881 13.2032 22.2881 12C22.2879 6.31846 17.6816 1.71315 12 1.71289Z" fill="black"/>
</svg>
