<svg width="24" height="24" viewBox="0 0 24 24" fill="none" xmlns="http://www.w3.org/2000/svg">
<path fill-rule="evenodd" clip-rule="evenodd" d="M10.835 0.739115C11.0793 0.581856 11.3868 0.559387 11.6514 0.679545L19.3828 4.19419C19.6987 4.33807 19.8973 4.65882 19.8838 5.00572C19.87 5.35242 19.6474 5.65655 19.3213 5.77525L12.1533 8.38169V21.6649C13.6583 21.5878 14.9796 21.3146 15.9473 20.9276C16.5231 20.6972 16.9327 20.4441 17.1836 20.2069C17.4324 19.9715 17.4688 19.8106 17.4688 19.7333C17.4686 19.6294 17.3941 19.3662 16.875 19.0135C16.3766 18.675 15.6079 18.3589 14.6191 18.1297C14.1592 18.0231 13.8729 17.5634 13.9795 17.1034C14.0864 16.6439 14.5452 16.3574 15.0049 16.4637C16.115 16.721 17.1036 17.102 17.8359 17.5995C18.5468 18.0825 19.1786 18.7952 19.1787 19.7333C19.1787 20.4321 18.8204 21.012 18.3584 21.4491C17.8982 21.8842 17.2781 22.2374 16.583 22.5155C15.1872 23.0738 13.3165 23.3992 11.2949 23.3993C9.27351 23.3992 7.40361 23.0737 6.00781 22.5155C5.31232 22.2373 4.69181 21.8844 4.23145 21.4491C3.76925 21.012 3.41016 20.4323 3.41016 19.7333C3.4103 18.7953 4.04494 18.0831 4.75586 17.6004C5.48857 17.1031 6.47702 16.7214 7.58789 16.4637C8.04757 16.3575 8.50753 16.6437 8.61426 17.1034C8.72091 17.5632 8.43332 18.0228 7.97363 18.1297C6.98425 18.3593 6.21487 18.6768 5.71582 19.0155C5.19585 19.3686 5.12222 19.6309 5.12207 19.7333C5.12207 19.8106 5.15709 19.9713 5.40625 20.2069C5.65722 20.4441 6.06648 20.6971 6.64258 20.9276C7.61169 21.3152 8.93475 21.5883 10.4424 21.6649V1.45787C10.4424 1.16719 10.5906 0.896501 10.835 0.739115ZM12.1533 6.56236L16.7695 4.88365L12.1533 2.78501V6.56236Z" fill="black"/>
</svg>
