<svg width="24" height="24" viewBox="0 0 24 24" fill="none" xmlns="http://www.w3.org/2000/svg">
<path fill-rule="evenodd" clip-rule="evenodd" d="M20.5723 0.858398C21.9908 0.858812 23.1414 2.01018 23.1416 3.42871V20.5723C23.1412 21.9906 21.9906 23.1412 20.5723 23.1416H3.42871C2.01018 23.1414 0.858813 21.9908 0.858398 20.5723V3.42871C0.858624 2.01007 2.01007 0.858625 3.42871 0.858398H20.5723ZM2.57031 15.8555V20.5723C2.57073 21.0463 2.95459 21.4314 3.42871 21.4316H7.71582V11.9961L2.57031 15.8555ZM16.2842 13.2852V21.4316H20.5723C21.0462 21.4312 21.4312 21.0462 21.4316 20.5723V9.42383L16.2842 13.2852ZM9.42676 21.4316H14.5732V13.4492L9.42676 11.5195V21.4316ZM3.42871 2.57031C2.95447 2.57054 2.57054 2.95447 2.57031 3.42871V13.7188L8.09375 9.57617C8.21188 9.49643 8.35097 9.44587 8.50098 9.43359C8.50488 9.43327 8.50878 9.43289 8.5127 9.43262C8.53207 9.4313 8.55159 9.43067 8.57129 9.43066H8.5957C8.6045 9.43091 8.61327 9.4321 8.62207 9.43262C8.64179 9.43377 8.66133 9.43503 8.68066 9.4375C8.68719 9.43834 8.69368 9.43944 8.7002 9.44043C8.72296 9.44387 8.74544 9.44793 8.76758 9.45312C8.77709 9.45536 8.78643 9.45836 8.7959 9.46094C8.83397 9.47128 8.87146 9.48277 8.90723 9.49805L15.29 11.8926L21.4316 7.28711V3.42871C21.4314 2.95459 21.0463 2.57073 20.5723 2.57031H3.42871Z" fill="black"/>
</svg>
