<svg width="24" height="24" viewBox="0 0 24 24" fill="none" xmlns="http://www.w3.org/2000/svg">
<path d="M14.1085 13.2539C14.5805 13.2541 14.964 13.6373 14.964 14.1094C14.964 14.5814 14.5805 14.9646 14.1085 14.9648H9.88975C9.41755 14.9648 9.03428 14.5816 9.03428 14.1094C9.03428 13.6372 9.41755 13.2539 9.88975 13.2539H14.1085Z" fill="black"/>
<path fill-rule="evenodd" clip-rule="evenodd" d="M12.2159 0.603516C13.296 0.657211 14.3216 1.10961 15.0899 1.87793C15.9095 2.69756 16.3702 3.80968 16.3702 4.96875V9.03516C17.3277 9.03511 18.0481 9.03523 18.3419 9.03516C20.0773 9.03488 21.6054 10.2905 21.9415 11.9932C22.07 12.6442 22.3328 13.9744 22.6056 15.3555C22.8784 16.7369 23.1605 18.1699 23.3292 19.0244C23.7706 21.2615 22.0118 23.4019 19.7315 23.4023C17.9888 23.4025 6.00599 23.4025 4.2628 23.4023C1.98251 23.402 0.223733 21.2616 0.665141 19.0244C0.833821 18.1699 1.11695 16.7369 1.38975 15.3555C1.6625 13.9744 1.9253 12.6442 2.05381 11.9932C2.38995 10.2905 3.91697 9.03482 5.65245 9.03516C5.94679 9.03523 6.66844 9.03511 7.62803 9.03516V4.96875C7.62803 3.80959 8.08865 2.69758 8.90831 1.87793C9.72794 1.0584 10.8401 0.597656 11.9991 0.597656L12.2159 0.603516ZM5.65245 10.7461C4.73378 10.7458 3.9095 11.4229 3.73155 12.3242C3.60302 12.9753 3.34027 14.3062 3.06749 15.6875C2.7947 17.0688 2.51153 18.5011 2.34288 19.3555C2.11002 20.5357 3.05984 21.6911 4.2628 21.6914C4.59363 21.6914 5.29329 21.6914 6.22178 21.6914V10.7461C5.96817 10.7461 5.77396 10.7461 5.65245 10.7461ZM7.93272 21.6914C10.4046 21.6914 13.5946 21.6914 16.0655 21.6914V10.7461C13.7432 10.7462 10.2563 10.7462 7.93272 10.7461V21.6914ZM17.7765 21.6914C18.7029 21.6914 19.4014 21.6914 19.7315 21.6914C20.9344 21.6911 21.8852 20.5357 21.6524 19.3555C21.4838 18.5012 21.2006 17.0688 20.9278 15.6875C20.6551 14.3063 20.3923 12.9754 20.2638 12.3242C20.0859 11.4231 19.2613 10.7462 18.3429 10.7461C18.222 10.7461 18.0286 10.7461 17.7765 10.7461V21.6914ZM11.9991 2.30859C11.2936 2.30859 10.6172 2.58905 10.1183 3.08789C9.6193 3.58685 9.33897 4.26311 9.33897 4.96875V9.03516C11.017 9.03519 12.9817 9.03519 14.6593 9.03516V4.96875C14.6593 4.2632 14.3788 3.58684 13.88 3.08789C13.4434 2.65133 12.8709 2.38179 12.2618 2.32129L11.9991 2.30859Z" fill="black"/>
</svg>
