<svg width="24" height="24" viewBox="0 0 24 24" fill="none" xmlns="http://www.w3.org/2000/svg">
<path fill-rule="evenodd" clip-rule="evenodd" d="M11.9981 0.00195312C12.4703 0.00195312 12.8536 0.385218 12.8536 0.857422V6.85938H13.712C15.1308 6.85938 16.2811 8.00993 16.2813 9.42871V11.7793L19.044 16.752C19.9952 18.4643 18.7567 20.5691 16.7979 20.5693H16.1954C15.7992 22.5252 14.071 23.998 11.9981 23.998C9.92535 23.9979 8.19624 22.5252 7.7999 20.5693H7.19639C5.23735 20.5693 3.9989 18.4645 4.95029 16.752L7.71397 11.7773V9.42871C7.71419 8.01018 8.86481 6.85979 10.2833 6.85938H11.1427V0.857422C11.1427 0.385251 11.526 0.00200629 11.9981 0.00195312ZM9.57334 20.5693C9.92595 21.5698 10.877 22.2879 11.9981 22.2881C13.1193 22.288 14.0702 21.5697 14.4229 20.5693H9.57334ZM10.2833 8.57031C9.80922 8.57072 9.42513 8.95459 9.4249 9.42871V12.001C9.42473 12.169 9.3751 12.3249 9.29111 12.457L6.44541 17.583C6.12737 18.1557 6.54125 18.8594 7.19639 18.8594H16.7979C17.4528 18.8591 17.8667 18.1556 17.5489 17.583L14.6788 12.415C14.6036 12.2796 14.5693 12.1327 14.5714 11.9883V9.42871C14.5712 8.95433 14.1864 8.57031 13.712 8.57031H10.2833Z" fill="black"/>
</svg>
