<svg width="24" height="24" viewBox="0 0 24 24" fill="none" xmlns="http://www.w3.org/2000/svg">
<path fill-rule="evenodd" clip-rule="evenodd" d="M11.999 1.53516C12.35 1.53518 12.6959 1.61759 13.0098 1.77441C13.3237 1.93138 13.597 2.15958 13.8076 2.44043L15.0625 4.11328C16.3081 4.11331 19.4139 4.11331 19.9883 4.11328C21.0579 4.11355 21.9953 4.88295 22.2051 5.93164C22.3396 6.60431 22.8378 9.32588 23.3828 11.8174C23.438 12.07 23.3759 12.3346 23.2139 12.5361C23.0517 12.7376 22.8064 12.8552 22.5479 12.8555H21.9951V20.9883H22.5459C23.018 20.9883 23.4014 21.3716 23.4014 21.8438C23.4014 22.3159 23.018 22.6992 22.5459 22.6992H1.45215C0.979945 22.6992 0.59668 22.316 0.59668 21.8438C0.59668 21.3715 0.979945 20.9883 1.45215 20.9883H2.00293V12.8555H1.45215C1.19335 12.8555 0.948432 12.7377 0.786133 12.5361C0.623834 12.3345 0.561887 12.0702 0.617188 11.8174C1.16208 9.32589 1.65958 6.60391 1.79395 5.93164C2.0037 4.88258 2.94193 4.11322 4.01172 4.11328C4.58667 4.11331 7.68957 4.11331 8.93555 4.11328L10.1904 2.44043C10.4011 2.15958 10.6743 1.93138 10.9883 1.77441C11.3021 1.6176 11.6481 1.53516 11.999 1.53516ZM3.71387 20.9883H6.22168V12.8555H3.71387V20.9883ZM11.999 3.24609C11.9136 3.24609 11.8294 3.26557 11.7529 3.30371C11.6764 3.34198 11.6089 3.39745 11.5576 3.46582L7.93262 8.29883V20.9883H9.03418V16.2188C9.03418 14.9805 10.0577 13.957 11.2959 13.957H12.7021C13.9403 13.9571 14.9639 14.9806 14.9639 16.2188V20.9883H16.0654V8.29883L12.4404 3.46582C12.3892 3.39745 12.3216 3.34199 12.2451 3.30371C12.1686 3.26556 12.0844 3.24611 11.999 3.24609ZM11.2959 15.668C11.0021 15.668 10.7451 15.925 10.7451 16.2188V20.9883H13.2529V16.2188C13.2529 15.925 12.9959 15.668 12.7021 15.668H11.2959ZM17.7764 20.9883H20.2842V12.8555H17.7764V20.9883ZM4.01172 5.82422C3.75719 5.8242 3.52074 6.01709 3.4707 6.2666C3.36259 6.80752 2.96473 8.95373 2.50586 11.1445H6.22168V8.01562C6.22168 7.83063 6.28256 7.65093 6.39355 7.50293L7.65234 5.82422C6.2369 5.82423 4.43619 5.82424 4.01172 5.82422ZM17.6045 7.50293C17.7155 7.65092 17.7764 7.83065 17.7764 8.01562V11.1445H21.4932C21.0343 8.95385 20.6364 6.80736 20.5283 6.2666C20.4782 6.01723 20.2425 5.8245 19.9883 5.82422C19.5643 5.82424 17.7617 5.82423 16.3457 5.82422L17.6045 7.50293Z" fill="black"/>
</svg>
