<svg width="24" height="24" viewBox="0 0 24 24" fill="none" xmlns="http://www.w3.org/2000/svg">
<path fill-rule="evenodd" clip-rule="evenodd" d="M10.6338 1.92058C11.4696 1.39531 12.5324 1.39527 13.3682 1.92058L16.6543 3.98601C17.4018 4.45622 17.8563 5.27769 17.8564 6.16081V9.48113C17.8564 9.66224 17.8357 9.84092 17.7988 10.0143C17.9959 10.0788 18.1877 10.1665 18.3682 10.28L21.6543 12.3454C22.4018 12.8156 22.8563 13.6371 22.8564 14.5202V17.8405C22.8562 18.7236 22.4019 19.5452 21.6543 20.0153L18.3682 22.0807C17.5325 22.606 16.4695 22.6058 15.6338 22.0807L12.3477 20.0153C12.2235 19.9372 12.1082 19.8478 12.001 19.7516C11.8937 19.8479 11.7786 19.9371 11.6543 20.0153L8.36816 22.0807C7.53251 22.606 6.46953 22.6058 5.63379 22.0807L2.34766 20.0153C1.6 19.5452 1.14574 18.7236 1.14551 17.8405V14.5202C1.14561 13.6369 1.59989 12.8155 2.34766 12.3454L5.63379 10.28C5.81407 10.1667 6.0053 10.0788 6.20215 10.0143C6.16535 9.84098 6.14556 9.66217 6.14551 9.48113V6.16081C6.14561 5.27752 6.59989 4.45617 7.34766 3.98601L10.6338 1.92058ZM7.45801 11.7272C7.17868 11.5519 6.82328 11.5519 6.54395 11.7272L3.25781 13.7926C3.00772 13.9498 2.85655 14.2248 2.85645 14.5202V17.8405C2.85668 18.1357 3.00783 18.4109 3.25781 18.568L6.54395 20.6335C6.82323 20.8086 7.1788 20.8088 7.45801 20.6335L10.7441 18.568C10.9941 18.4109 11.1453 18.1357 11.1455 17.8405V14.5202C11.1454 14.225 10.994 13.9499 10.7441 13.7926L7.45801 11.7272ZM17.458 11.7272C17.1787 11.5518 16.8233 11.5519 16.5439 11.7272L13.2578 13.7926C13.0077 13.9498 12.8565 14.2248 12.8564 14.5202V17.8405C12.8567 18.1357 13.0078 18.4109 13.2578 18.568L16.5439 20.6335C16.8232 20.8086 17.1788 20.8088 17.458 20.6335L20.7441 18.568C20.9941 18.4109 21.1453 18.1357 21.1455 17.8405V14.5202C21.1454 14.225 20.994 13.9499 20.7441 13.7926L17.458 11.7272ZM12.458 3.36784C12.1787 3.19248 11.8233 3.19251 11.5439 3.36784L8.25781 5.43327C8.00772 5.59047 7.85655 5.86544 7.85645 6.16081V9.48113C7.85668 9.77636 8.00783 10.0515 8.25781 10.2087L11.5439 12.2741C11.8232 12.4492 12.1788 12.4494 12.458 12.2741L15.7441 10.2087C15.9941 10.0515 16.1453 9.77633 16.1455 9.48113V6.16081C16.1454 5.86561 15.994 5.59052 15.7441 5.43327L12.458 3.36784Z" fill="black"/>
</svg>
