<svg width="24" height="24" viewBox="0 0 24 24" fill="none" xmlns="http://www.w3.org/2000/svg">
<path fill-rule="evenodd" clip-rule="evenodd" d="M20.0312 13.0513C20.3671 12.7773 20.8627 12.7969 21.1758 13.1099L22.8896 14.8238C23.2235 15.1577 23.2235 15.6998 22.8896 16.0337C22.5558 16.367 22.0144 16.3673 21.6807 16.0337L20.5703 14.9234L19.6367 15.856L20.748 16.9664C21.0818 17.3002 21.0817 17.8425 20.748 18.1763C20.4142 18.5102 19.872 18.5101 19.5381 18.1763L18.4277 17.065L16.6641 18.8296C16.9661 19.3401 17.1405 19.9349 17.1406 20.5709C17.1406 22.4631 15.6063 23.9976 13.7139 23.9976C11.8217 23.9974 10.2871 22.463 10.2871 20.5709C10.2874 18.6789 11.8218 17.1443 13.7139 17.1441C14.3498 17.1441 14.9456 17.3177 15.4561 17.6197L19.9668 13.1099L20.0312 13.0513ZM13.7139 18.855C12.7663 18.8552 11.9983 19.6233 11.998 20.5709C11.998 21.5186 12.7661 22.2874 13.7139 22.2877C14.6618 22.2877 15.4307 21.5188 15.4307 20.5709C15.4304 19.6232 14.6616 18.855 13.7139 18.855Z" fill="black"/>
<path d="M9.77441 0.172417C10.099 -0.0704409 10.5557 -0.0536399 10.8613 0.224175L19.7285 8.2857L19.9189 8.4771C20.336 8.94522 20.5693 9.55364 20.5693 10.1871V11.1265C20.5693 11.5985 20.1868 11.9817 19.7148 11.982C19.2426 11.982 18.8594 11.5987 18.8594 11.1265V10.1871C18.8593 9.94519 18.7571 9.71422 18.5781 9.55132L10.2861 2.01226L1.99414 9.55132C1.81504 9.71414 1.71293 9.945 1.71289 10.1871V17.9996C1.71289 18.474 2.0969 18.8587 2.57129 18.8589H7.71484C8.18676 18.8592 8.56927 19.2424 8.56934 19.7144C8.56919 20.1863 8.18671 20.5686 7.71484 20.5689H2.57129C1.15251 20.5687 0.00195312 19.4184 0.00195312 17.9996V10.1871C0.00198884 9.46322 0.308149 8.7726 0.84375 8.2857L9.71094 0.224175L9.77441 0.172417Z" fill="black"/>
</svg>
