<svg width="24" height="24" viewBox="0 0 24 24" fill="none" xmlns="http://www.w3.org/2000/svg">
<path fill-rule="evenodd" clip-rule="evenodd" d="M18.4268 12.8591C21.5025 12.8591 23.9959 15.3528 23.9961 18.4285C23.996 21.5042 21.5026 23.9978 18.4268 23.9978C15.3513 23.9974 12.8575 21.504 12.8574 18.4285C12.8576 15.3531 15.3514 12.8595 18.4268 12.8591ZM15.1611 16.3728C14.7858 16.9679 14.5684 17.6729 14.5684 18.4285C14.5685 20.5596 16.2957 22.2875 18.4268 22.2878C19.1825 22.2878 19.8872 22.0695 20.4824 21.6941L15.1611 16.3728ZM18.4268 14.5701C17.6706 14.5702 16.9655 14.7879 16.3701 15.1638L21.6914 20.4851C22.0674 19.8896 22.2861 19.1848 22.2861 18.4285C22.2859 16.2972 20.5581 14.5701 18.4268 14.5701Z" fill="black"/>
<path d="M9.77344 0.172609C10.098 -0.07015 10.5548 -0.0534115 10.8604 0.224367L19.7275 8.28589L19.918 8.4773C20.335 8.94541 20.5683 9.55389 20.5684 10.1873C20.5682 10.6591 20.1856 11.0413 19.7139 11.0417C19.2418 11.0417 18.8586 10.6593 18.8584 10.1873C18.8584 9.94544 18.756 9.71442 18.5771 9.55152L10.2852 2.01245L1.99316 9.55152C1.81404 9.71435 1.71193 9.94517 1.71191 10.1873V17.9998C1.71191 18.4742 2.09593 18.8589 2.57031 18.8591H9.42773C9.89969 18.8594 10.2832 19.2426 10.2832 19.7146C10.2831 20.1865 9.89962 20.5688 9.42773 20.5691H2.57031C1.15154 20.5689 0 19.4186 0 17.9998V10.1873C1.75586e-05 9.46339 0.307156 8.77281 0.842773 8.28589L9.70996 0.224367L9.77344 0.172609Z" fill="black"/>
</svg>
