<svg width="25" height="25" viewBox="0 0 25 25" fill="none" xmlns="http://www.w3.org/2000/svg">
<path d="M17.9512 18.569C18.4135 18.6095 18.7917 18.9421 18.9014 19.3815C18.9278 19.4639 18.9424 19.5521 18.9424 19.6432C18.9423 19.7331 18.9281 19.8196 18.9023 19.901C18.7947 20.3386 18.4219 20.6708 17.9629 20.7155C17.9306 20.7192 17.8975 20.7213 17.8643 20.7214L17.8574 20.7204C17.8258 20.7204 17.7944 20.7198 17.7637 20.7165C17.2515 20.669 16.8427 20.2635 16.791 19.7526L16.7852 19.6432L16.791 19.5329C16.8446 19.0038 17.2813 18.5887 17.8184 18.5661C17.8312 18.5655 17.8444 18.5641 17.8574 18.5641H17.8643L17.9512 18.569Z" fill="black"/>
<path d="M17.8643 14.5758C18.3363 14.576 18.7197 14.9592 18.7197 15.4313V17.2165C18.7195 17.6884 18.3362 18.0718 17.8643 18.0719C17.3922 18.0719 17.009 17.6885 17.0088 17.2165V15.4313C17.0088 14.9591 17.3921 14.5758 17.8643 14.5758Z" fill="black"/>
<path fill-rule="evenodd" clip-rule="evenodd" d="M17.9014 9.77604C18.2625 9.77609 18.6161 9.88407 18.916 10.0856C19.1951 10.2731 19.4153 10.5347 19.5547 10.8395L24.7236 20.3219L24.7246 20.3249C24.8795 20.6113 24.9609 20.9324 24.9609 21.2585C24.9609 21.5774 24.8818 21.8909 24.7334 22.1725L24.7344 22.1735C24.5804 22.4752 24.3455 22.7283 24.0576 22.905L24.0566 22.9059C23.7681 23.0823 23.436 23.1754 23.0977 23.1755H12.6162C12.2777 23.1755 11.945 23.0826 11.6562 22.9059C11.3735 22.7327 11.1443 22.4848 10.9902 22.1911L10.9883 22.1921C10.8333 21.9054 10.752 21.5843 10.752 21.2585C10.752 20.9327 10.8333 20.6114 10.9883 20.3249L10.9932 20.3171L16.2471 10.8405C16.3865 10.5353 16.6074 10.2733 16.8867 10.0856C17.1866 9.88422 17.54 9.77607 17.9014 9.77604ZM17.9014 11.487C17.8798 11.487 17.8588 11.4936 17.8408 11.5055C17.823 11.5175 17.809 11.5345 17.8008 11.5544C17.7881 11.5856 17.7732 11.6167 17.7568 11.6462L12.4922 21.1374L12.4932 21.1383C12.4733 21.1751 12.4629 21.2167 12.4629 21.2585C12.4629 21.2792 12.4647 21.3 12.4697 21.32L12.4932 21.3786L12.502 21.3962C12.5125 21.4167 12.5288 21.4345 12.5488 21.4469C12.5689 21.4592 12.5926 21.4655 12.6162 21.4655H23.0977C23.1211 21.4655 23.1449 21.4593 23.165 21.4469C23.1849 21.4344 23.2016 21.4164 23.2119 21.3962L23.2207 21.3786C23.2406 21.3417 23.251 21.3 23.251 21.2585C23.2509 21.2169 23.2407 21.1753 23.2207 21.1383L18.0439 11.6413C18.0287 11.6133 18.015 11.5838 18.0029 11.5544C17.9948 11.5346 17.9807 11.5176 17.9629 11.5055L17.9619 11.5046C17.9443 11.4928 17.9229 11.487 17.9014 11.487Z" fill="black"/>
<path d="M10.2021 0.208662C10.5267 -0.0344735 10.9833 -0.0173999 11.2891 0.26042L18.2168 6.55827C18.5661 6.87592 18.592 7.4169 18.2744 7.76628C17.9568 8.11532 17.4157 8.14135 17.0664 7.8239L10.7139 2.04851L2.05176 9.92351C1.85824 10.0999 1.74805 10.3501 1.74805 10.612V18.7507C1.74843 19.2643 2.16503 19.6812 2.67871 19.6813H8.03516C8.50727 19.6813 8.89047 20.0637 8.89062 20.5358C8.89039 21.0078 8.50722 21.3913 8.03516 21.3913H2.67871C1.22064 21.3911 0.0374909 20.2087 0.0371094 18.7507V10.612C0.0371094 9.86812 0.352034 9.15833 0.902344 8.65788L10.1387 0.26042L10.2021 0.208662Z" fill="black"/>
</svg>
