<svg width="24" height="24" viewBox="0 0 24 24" fill="none" xmlns="http://www.w3.org/2000/svg">
<path fill-rule="evenodd" clip-rule="evenodd" d="M18.4121 12.1207C18.8682 12.1207 19.3198 12.2108 19.7412 12.3853C20.1627 12.5599 20.5465 12.8157 20.8691 13.1382C21.1917 13.4608 21.4475 13.8447 21.6221 14.2662C21.7965 14.6875 21.8867 15.1392 21.8867 15.5953C21.8867 16.0513 21.7965 16.503 21.6221 16.9244C21.4475 17.3458 21.1917 17.7297 20.8691 18.0523C20.6533 18.2681 20.4091 18.4524 20.1455 18.6041C20.6848 18.7919 21.1944 19.067 21.6514 19.4224C22.5775 20.143 23.2378 21.1522 23.5264 22.2896C23.6422 22.747 23.3645 23.2124 22.9072 23.3287C22.4498 23.4445 21.9853 23.1669 21.8691 22.7095C21.6741 21.9409 21.2274 21.259 20.6016 20.772C19.9757 20.2852 19.205 20.0213 18.4121 20.0211C17.619 20.0211 16.8477 20.2851 16.2217 20.772C15.5957 21.259 15.1502 21.9409 14.9551 22.7095C14.839 23.167 14.3734 23.4443 13.916 23.3287C13.4584 23.2126 13.1809 22.7472 13.2969 22.2896C13.5855 21.1521 14.2456 20.143 15.1719 19.4224C15.629 19.0668 16.138 18.7909 16.6777 18.6031C16.4146 18.4515 16.1706 18.2678 15.9551 18.0523C15.6325 17.7297 15.3767 17.3458 15.2021 16.9244C15.0277 16.503 14.9375 16.0513 14.9375 15.5953C14.9375 15.1392 15.0277 14.6875 15.2021 14.2662C15.3767 13.8447 15.6325 13.4608 15.9551 13.1382C16.2777 12.8156 16.6615 12.5599 17.083 12.3853C17.5044 12.2108 17.956 12.1207 18.4121 12.1207ZM18.4121 13.8316C18.1805 13.8316 17.9513 13.8768 17.7373 13.9654C17.5233 14.054 17.3288 14.1844 17.165 14.3482C17.0012 14.512 16.8709 14.7065 16.7822 14.9205C16.6937 15.1344 16.6484 15.3637 16.6484 15.5953C16.6485 15.8268 16.6937 16.0562 16.7822 16.2701C16.8709 16.4841 17.0013 16.6786 17.165 16.8423C17.3288 17.0061 17.5233 17.1365 17.7373 17.2252C17.9513 17.3137 18.1805 17.3599 18.4121 17.3599C18.6437 17.3599 18.873 17.3137 19.0869 17.2252C19.3009 17.1365 19.4954 17.0061 19.6592 16.8423C19.823 16.6785 19.9533 16.4841 20.042 16.2701C20.1306 16.0562 20.1767 15.8268 20.1768 15.5953C20.1768 15.3637 20.1306 15.1344 20.042 14.9205C19.9533 14.7065 19.823 14.512 19.6592 14.3482C19.4954 14.1844 19.3009 14.054 19.0869 13.9654C18.873 13.8768 18.6437 13.8316 18.4121 13.8316Z" fill="black"/>
<path d="M9.77344 0.172423C10.098 -0.070551 10.5547 -0.053519 10.8604 0.224181L19.7275 8.2857C20.0769 8.60334 20.1028 9.14431 19.7852 9.49371C19.4675 9.84291 18.9265 9.86884 18.5771 9.55133L10.2852 2.01227L1.99316 9.55133C1.8141 9.71414 1.71195 9.94504 1.71191 10.1871V17.9996C1.71191 18.4739 2.09604 18.8586 2.57031 18.8589H11.1426C11.6145 18.8592 11.997 19.2424 11.9971 19.7144C11.9969 20.1864 11.6145 20.5687 11.1426 20.5689H2.57031C1.15165 20.5685 0.000976562 19.4184 0.000976562 17.9996V10.1871C0.00101543 9.46326 0.307215 8.7726 0.842773 8.2857L9.70996 0.224181L9.77344 0.172423Z" fill="black"/>
</svg>
