<svg width="24" height="24" viewBox="0 0 24 24" fill="none" xmlns="http://www.w3.org/2000/svg">
<path d="M13.8877 11.4878C14.171 11.11 14.7072 11.0336 15.085 11.3169C15.4619 11.6003 15.5387 12.1357 15.2559 12.5132L10.1123 19.3706C9.82904 19.7479 9.29364 19.8243 8.91602 19.5415C8.5383 19.2582 8.46193 18.722 8.74512 18.3442L13.8877 11.4878Z" fill="black"/>
<path d="M14.5713 16.7163L14.7031 16.7231C15.3501 16.7891 15.8545 17.336 15.8545 18.0005C15.8543 18.6648 15.3501 19.211 14.7031 19.2768L14.5713 19.2837L14.4482 19.2778C13.8403 19.2199 13.3555 18.7381 13.2939 18.1313L13.2871 18.0005L13.2939 17.8686C13.3569 17.2511 13.8583 16.7635 14.4814 16.7202C14.511 16.7171 14.541 16.7163 14.5713 16.7163Z" fill="black"/>
<path d="M9.55957 11.5796C10.2067 11.6453 10.7118 12.1924 10.7119 12.8569C10.7118 13.5657 10.1374 14.14 9.42871 14.1401C9.3981 14.1401 9.36767 14.1384 9.33789 14.1352C8.71485 14.0917 8.21396 13.6054 8.15137 12.9878L8.14453 12.8569L8.15137 12.7251C8.21744 12.0782 8.76437 11.5727 9.42871 11.5727L9.55957 11.5796Z" fill="black"/>
<path fill-rule="evenodd" clip-rule="evenodd" d="M10.415 1.27978C11.2764 0.350801 12.7237 0.3507 13.585 1.27978C14.7155 2.4994 16.6508 4.69364 18.3086 7.10986C19.1373 8.31779 19.9087 9.5985 20.4756 10.854C21.0378 12.0994 21.4267 13.3807 21.4268 14.5718C21.4266 19.7775 17.2058 23.9974 12 23.9976C6.79412 23.9975 2.57345 19.7776 2.57324 14.5718C2.57326 13.3807 2.96215 12.0994 3.52441 10.854C4.0913 9.59841 4.86357 8.31786 5.69238 7.10986C7.35008 4.69378 9.28451 2.49936 10.415 1.27978ZM12.3311 2.44189C12.1465 2.24294 11.8535 2.24296 11.6689 2.44189C10.5632 3.63472 8.69148 5.75937 7.10156 8.07665C6.30662 9.2353 5.59424 10.4257 5.08301 11.5581C4.56721 12.7007 4.2842 13.7262 4.28418 14.5718C4.28439 18.8332 7.73853 22.2875 12 22.2876C16.2614 22.2875 19.7166 18.8331 19.7168 14.5718C19.7168 13.7262 19.4328 12.7007 18.917 11.5581C18.4058 10.4257 17.6934 9.23533 16.8984 8.07665C15.3086 5.75941 13.4368 3.63475 12.3311 2.44189Z" fill="black"/>
</svg>
