<svg width="24" height="24" viewBox="0 0 24 24" fill="none" xmlns="http://www.w3.org/2000/svg">
<path d="M11.999 10.2871C12.4711 10.2871 12.8544 10.6705 12.8545 11.1426V16.2871H14.5703C15.0424 16.2871 15.4256 16.6705 15.4258 17.1426C15.4258 17.6148 15.0425 17.998 14.5703 17.998H9.42773C8.95564 17.9979 8.57227 17.6147 8.57227 17.1426C8.5724 16.6706 8.95572 16.2872 9.42773 16.2871H11.1445V11.998H10.2852C9.81295 11.998 9.42969 11.6148 9.42969 11.1426C9.42982 10.6705 9.81303 10.2871 10.2852 10.2871H11.999Z" fill="black"/>
<path d="M12 5.57324L12.1309 5.58008C12.778 5.64595 13.2832 6.19289 13.2832 6.85742C13.283 7.5218 12.7779 8.06804 12.1309 8.13379L12 8.14062L11.876 8.13477C11.2682 8.07677 10.7843 7.59494 10.7227 6.98828L10.7158 6.85742L10.7227 6.72559C10.7856 6.10814 11.2861 5.62053 11.9092 5.57715C11.9388 5.57403 11.9695 5.57324 12 5.57324Z" fill="black"/>
<path fill-rule="evenodd" clip-rule="evenodd" d="M11.999 0.00195312C18.6253 0.00195312 23.9969 5.3739 23.9971 12C23.9969 18.6262 18.6253 23.998 11.999 23.998C5.37312 23.9978 0.00110851 18.626 0.000976562 12C0.00112757 5.37407 5.37313 0.00223608 11.999 0.00195312ZM11.999 1.71289C6.31753 1.71317 1.71207 6.31848 1.71191 12C1.71205 17.6816 6.31752 22.2878 11.999 22.2881C17.6809 22.2881 22.287 17.6818 22.2871 12C22.287 6.3183 17.6808 1.71289 11.999 1.71289Z" fill="black"/>
</svg>
