<svg width="24" height="24" viewBox="0 0 24 24" fill="none" xmlns="http://www.w3.org/2000/svg">
<path fill-rule="evenodd" clip-rule="evenodd" d="M9.48099 0.612305C10.1596 0.679673 10.7973 0.98036 11.2837 1.4668C11.8217 2.00473 12.1294 2.72779 12.149 3.48633C12.6149 3.44743 13.0864 3.45808 13.5552 3.52148C14.9732 3.71334 16.2883 4.36928 17.2945 5.38672C18.3004 6.40415 18.9418 7.72658 19.1177 9.14648C19.2658 10.3426 19.0747 11.5517 18.5767 12.6396L22.7486 16.8086C23.1602 17.235 23.3885 17.8067 23.3833 18.3994C23.378 18.992 23.1403 19.5595 22.7212 19.9785C22.3021 20.3975 21.7347 20.6353 21.1421 20.6406C20.5494 20.6458 19.9777 20.4175 19.5513 20.0059C19.5479 20.0026 19.5439 19.9985 19.5406 19.9951L15.3824 15.8379C14.8118 16.0988 14.2055 16.2771 13.5816 16.3633C13.114 16.4278 12.6825 16.1003 12.6177 15.6328C12.5533 15.1653 12.8797 14.7337 13.3472 14.6689C13.9694 14.583 14.569 14.3749 15.1099 14.0557L15.2398 13.9932C15.5503 13.8744 15.9075 13.9455 16.149 14.1865L20.7427 18.7793C20.8462 18.8773 20.9839 18.9318 21.1265 18.9307C21.2709 18.9294 21.4101 18.8716 21.5122 18.7695C21.6143 18.6674 21.672 18.5281 21.6734 18.3838C21.6745 18.2396 21.6182 18.0999 21.5181 17.9961L16.9263 13.4082C16.6503 13.1325 16.5963 12.7041 16.7945 12.3682C17.3297 11.4614 17.5497 10.4024 17.4204 9.35742C17.291 8.31232 16.8189 7.33879 16.0786 6.58984C15.338 5.84087 14.3695 5.35804 13.3257 5.2168C12.7448 5.13825 12.1584 5.1676 11.5952 5.2998C11.9684 5.66241 12.2986 6.06994 12.5767 6.51562C13.218 7.54375 13.5587 8.73164 13.5591 9.94336C13.5595 11.3802 13.0814 12.7771 12.2017 13.9131C11.46 14.8707 10.4671 15.5958 9.34036 16.0156V21.1445C9.34027 21.7441 9.1012 22.3192 8.67728 22.7432C8.25323 23.1671 7.67828 23.4053 7.07864 23.4053C6.47902 23.4053 5.90405 23.1671 5.48001 22.7432C5.05611 22.3192 4.81701 21.7441 4.81693 21.1445V16.0176C3.89769 15.6752 3.06462 15.1279 2.38431 14.4131C1.5489 13.5353 0.976577 12.4398 0.731964 11.2529C0.48753 10.0663 0.580405 8.83461 1.00052 7.69824C1.42083 6.56168 2.152 5.56545 3.10989 4.82324C4.01598 4.12123 5.09122 3.67315 6.22513 3.52246C6.23557 2.75077 6.54585 2.01327 7.09232 1.4668C7.64823 0.910879 8.40183 0.597668 9.18802 0.597656L9.48099 0.612305ZM7.93411 7.15039C8.20926 7.26306 8.46291 7.42822 8.67728 7.64258C9.10128 8.06664 9.34036 8.64154 9.34036 9.24121C9.3403 9.84084 9.10129 10.4158 8.67728 10.8398C8.25322 11.2638 7.6783 11.5029 7.07864 11.5029C6.47899 11.5029 5.90406 11.2638 5.48001 10.8398C5.056 10.4158 4.81699 9.84084 4.81693 9.24121C4.81693 8.64156 5.05603 8.06663 5.48001 7.64258C5.69459 7.428 5.9477 7.26029 6.22318 7.14746V5.25391C5.47237 5.39079 4.76287 5.70522 4.15677 6.1748C3.4518 6.72111 2.91438 7.45452 2.60501 8.29102C2.29564 9.12767 2.22676 10.0345 2.40677 10.9082C2.58682 11.7818 3.0087 12.5873 3.62357 13.2334C4.23857 13.8796 5.02253 14.3404 5.88626 14.5635C6.26364 14.6609 6.52771 15.0019 6.52786 15.3916V21.1445C6.52795 21.2905 6.58579 21.4309 6.689 21.5342C6.79235 21.6374 6.93254 21.6953 7.07864 21.6953C7.22477 21.6953 7.36493 21.6375 7.46829 21.5342C7.57153 21.4309 7.62934 21.2906 7.62943 21.1445V15.3916C7.62958 15.0019 7.89365 14.6609 8.27103 14.5635C9.29506 14.2991 10.2025 13.7024 10.8501 12.8662C11.4976 12.03 11.8484 11.0019 11.8482 9.94434C11.8479 9.05232 11.5976 8.17776 11.1255 7.4209C10.6535 6.66427 9.97901 6.05464 9.17825 5.66211C8.7825 5.46818 8.36362 5.33114 7.93411 5.25293V7.15039ZM7.07864 8.69043C6.93246 8.69044 6.79236 8.74819 6.689 8.85156C6.58571 8.95493 6.52786 9.09508 6.52786 9.24121C6.52793 9.38732 6.58567 9.52754 6.689 9.63086C6.79235 9.73417 6.93251 9.79198 7.07864 9.79199C7.22478 9.79199 7.36493 9.73415 7.46829 9.63086C7.57161 9.52754 7.62936 9.38732 7.62943 9.24121C7.62943 9.09506 7.57161 8.95493 7.46829 8.85156C7.39082 8.77409 7.2929 8.72141 7.18704 8.7002L7.07864 8.69043ZM9.18802 2.30859C8.85535 2.30861 8.53653 2.44055 8.3013 2.67578C8.0753 2.90179 7.94499 3.20496 7.93509 3.52344C8.60661 3.61306 9.26305 3.8071 9.87943 4.10254C10.0635 4.01407 10.2513 3.93468 10.4419 3.86426V3.5625C10.4419 3.22982 10.31 2.91102 10.0747 2.67578C9.86892 2.46997 9.59916 2.34298 9.31204 2.31445L9.18802 2.30859Z" fill="black"/>
</svg>
