<svg width="24" height="24" viewBox="0 0 24 24" fill="none" xmlns="http://www.w3.org/2000/svg">
<path fill-rule="evenodd" clip-rule="evenodd" d="M11.1436 0.858398H13.7158C18.9217 0.858596 23.1425 5.08025 23.1426 10.2861C23.1423 15.2034 19.3761 19.2393 14.5713 19.6719V21.4307H19.7158C20.1879 21.4309 20.5713 21.8141 20.5713 22.2861C20.571 22.758 20.1877 23.1414 19.7158 23.1416H7.71582C7.24378 23.1416 6.86062 22.7581 6.86035 22.2861C6.86035 21.8139 7.24362 21.4307 7.71582 21.4307H12.8604V18.8574C12.8604 18.3852 13.2436 18.002 13.7158 18.002C13.7201 18.002 13.7243 18.0019 13.7285 18.002C17.984 17.9949 21.4324 14.5432 21.4326 10.2861C21.4325 6.02465 17.9773 2.57051 13.7158 2.57031H11.1436C9.0678 2.5705 7.33693 4.04482 6.94141 6.00391C10.2154 6.04853 12.8563 8.71545 12.8564 12C12.8563 12.4718 12.4737 12.855 12.002 12.8555H1.71582C1.2437 12.8555 0.860484 12.4721 0.860352 12C0.860476 9.27148 2.6829 6.9694 5.17676 6.24219C5.48476 3.21866 8.03885 0.858602 11.1436 0.858398ZM6.8584 7.71289C4.78312 7.71302 3.05245 9.18704 2.65625 11.1455H11.0615C10.6654 9.18703 8.93367 7.71306 6.8584 7.71289Z" fill="black"/>
<path d="M2.66504 15.0459C2.87633 14.624 3.38939 14.4532 3.81152 14.6641C4.23388 14.8752 4.40551 15.3892 4.19434 15.8115L3.33691 17.5254C3.12563 17.9475 2.61169 18.1193 2.18945 17.9082C1.76741 17.697 1.59675 17.1829 1.80762 16.7607L2.66504 15.0459Z" fill="black"/>
<path d="M6.8584 14.5732C7.33055 14.5733 7.71387 14.9565 7.71387 15.4287V17.1426C7.71374 17.6146 7.33046 17.998 6.8584 17.998C6.38628 17.998 6.00306 17.6147 6.00293 17.1426V15.4287C6.00293 14.9565 6.38619 14.5732 6.8584 14.5732Z" fill="black"/>
<path d="M9.9043 14.6641C10.3265 14.453 10.8405 14.6239 11.0518 15.0459L11.9092 16.7607C12.12 17.183 11.9485 17.6971 11.5264 17.9082C11.1042 18.119 10.5911 17.9473 10.3799 17.5254L9.52246 15.8115C9.31135 15.3893 9.48223 14.8754 9.9043 14.6641Z" fill="black"/>
</svg>
