<svg width="24" height="24" viewBox="0 0 24 24" fill="none" xmlns="http://www.w3.org/2000/svg">
<path d="M13.7129 17.1445C14.185 17.1446 14.5674 17.5278 14.5674 18C14.5674 18.4722 14.185 18.8554 13.7129 18.8555H10.2842C9.81214 18.8553 9.42871 18.4721 9.42871 18C9.42871 17.5279 9.81214 17.1447 10.2842 17.1445H13.7129Z" fill="black"/>
<path fill-rule="evenodd" clip-rule="evenodd" d="M11.999 0.00195312C15.7849 0.00201911 18.8545 3.07155 18.8545 6.85742C18.8544 7.32947 18.4711 7.71282 17.999 7.71289H16.2832V9.42871C16.2831 9.90072 15.8997 10.284 15.4277 10.2842C14.9556 10.2842 14.5724 9.9008 14.5723 9.42871V7.71289H12.8545V13.7158H19.7129C21.1316 13.7158 22.2819 14.8665 22.2822 16.2852V21.4287C22.2821 22.8476 21.1318 23.998 19.7129 23.998H4.28418C2.86549 23.9978 1.71499 22.8474 1.71484 21.4287V16.2852C1.7152 14.8666 2.86562 13.716 4.28418 13.7158H11.1436V7.71289H5.99902C5.5269 7.71289 5.14369 7.32951 5.14355 6.85742C5.14355 3.07151 8.21311 0.00195312 11.999 0.00195312ZM4.28418 15.4268C3.81002 15.427 3.42614 15.811 3.42578 16.2852V21.4287C3.42593 21.903 3.80989 22.2879 4.28418 22.2881H19.7129C20.1874 22.2881 20.5721 21.9032 20.5723 21.4287V16.2852C20.5719 15.8109 20.1872 15.4268 19.7129 15.4268H4.28418ZM11.999 1.71289C9.44902 1.71289 7.33325 3.56769 6.92578 6.00195H17.0723C16.6648 3.56773 14.549 1.71295 11.999 1.71289Z" fill="black"/>
</svg>
