<svg width="24" height="24" viewBox="0 0 24 24" fill="none" xmlns="http://www.w3.org/2000/svg">
<path fill-rule="evenodd" clip-rule="evenodd" d="M11.2994 0.597656C11.7716 0.597656 12.1548 0.980922 12.1548 1.45312V2.00391H14.233L14.4566 2.01562C14.8998 2.05975 15.3209 2.23345 15.6656 2.51562L15.8306 2.66602L15.857 2.69336L16.8209 3.74707L17.0757 3.49316C17.3175 3.25058 17.6264 3.08577 17.9625 3.01953C18.258 2.96141 18.5633 2.98197 18.8472 3.07812L18.9673 3.12305L18.9722 3.12598L22.358 4.58691C22.6156 4.6978 22.8413 4.87027 23.0171 5.08887C23.1931 5.30763 23.3128 5.56611 23.3658 5.8418C23.4187 6.11753 23.4032 6.40249 23.3209 6.6709C23.2384 6.93915 23.0915 7.18338 22.8931 7.38184L19.1949 11.0801C18.9964 11.2787 18.7523 11.4262 18.4839 11.5088C18.2154 11.5913 17.9298 11.6067 17.6539 11.5537C17.378 11.5007 17.1188 11.3812 16.9 11.2051C16.7358 11.0729 16.5982 10.9115 16.4927 10.7305L16.398 10.543L14.9419 7.15234V7.15039C14.8067 6.83339 14.77 6.48271 14.8365 6.14453C14.9031 5.80647 15.0698 5.49596 15.315 5.25391L15.6109 4.95703L14.6167 3.87109C14.514 3.77112 14.3765 3.71496 14.233 3.71484H12.1548V21.6914H17.6275C18.0997 21.6914 18.483 22.0747 18.483 22.5469C18.483 23.0191 18.0997 23.4023 17.6275 23.4023H4.97124C4.49918 23.4022 4.11577 23.019 4.11577 22.5469C4.11577 22.0748 4.49918 21.6916 4.97124 21.6914H10.4439V7.93359H9.77202C9.62603 7.9337 9.48565 7.99152 9.38237 8.09473L8.51909 8.96387L8.77397 9.21875C9.01705 9.46159 9.18344 9.7722 9.24956 10.1094C9.31557 10.4464 9.27937 10.7958 9.14604 11.1123L9.14507 11.1143L7.66167 14.6133L7.66069 14.6123C7.55059 14.8725 7.37899 15.1021 7.15972 15.2803C6.93995 15.4587 6.67874 15.5805 6.40093 15.6348C6.12331 15.6889 5.83649 15.6743 5.56597 15.5918C5.29528 15.5091 5.04831 15.3613 4.84819 15.1611L1.10796 11.4209L1.10894 11.4199C0.911148 11.2225 0.762787 10.9806 0.679248 10.7139C0.595731 10.4471 0.578572 10.1638 0.628467 9.88867C0.678418 9.61358 0.794395 9.35424 0.966357 9.13379C1.13845 8.91332 1.36195 8.7374 1.61675 8.62207L1.62065 8.62012L5.06792 7.08203C5.38706 6.93991 5.74294 6.89746 6.08647 6.96094C6.38706 7.01655 6.66716 7.1506 6.898 7.34863L6.9937 7.4375L7.31011 7.75488L8.17144 6.8877L8.17437 6.88477C8.59823 6.46133 9.17288 6.2228 9.77202 6.22266H10.4439V1.45312C10.4439 0.981024 10.8273 0.597823 11.2994 0.597656ZM2.32183 10.1797L2.31499 10.1855C2.31318 10.1879 2.31162 10.1914 2.31108 10.1943C2.31064 10.1971 2.31026 10.2004 2.31108 10.2031C2.31198 10.2059 2.31392 10.2088 2.31597 10.2109L6.05718 13.9521C6.05915 13.9541 6.06231 13.9552 6.06499 13.9561C6.06769 13.9569 6.071 13.9575 6.07378 13.957C6.07651 13.9565 6.0794 13.9549 6.08159 13.9531C6.08375 13.9513 6.08537 13.9489 6.08647 13.9463L6.08745 13.9453L7.5689 10.4482C7.5702 10.4451 7.57238 10.4418 7.57183 10.4385C7.57115 10.4351 7.56935 10.4312 7.56694 10.4287L6.72808 9.59082C6.72205 9.58517 6.71542 9.58007 6.70952 9.57422C6.70263 9.56737 6.6966 9.55975 6.68999 9.55273L5.78472 8.64746C5.78217 8.64531 5.77824 8.64319 5.77495 8.64258C5.77153 8.64201 5.76738 8.64123 5.76421 8.64258L2.32183 10.1797ZM18.2867 4.7002L18.2847 4.70312L16.5162 6.4707C16.5153 6.47168 16.5145 6.47342 16.5142 6.47461C16.5139 6.47605 16.5137 6.4782 16.5142 6.47949L17.9693 9.86816C17.9699 9.86953 17.9711 9.87211 17.9722 9.87305C17.9733 9.87387 17.9748 9.87466 17.9761 9.875C17.9775 9.87527 17.9796 9.87448 17.981 9.87402C17.9823 9.87363 17.9839 9.87293 17.9849 9.87207L21.6841 6.17285C21.6851 6.17187 21.6857 6.17025 21.6861 6.16895C21.6865 6.16769 21.6863 6.16632 21.6861 6.16504C21.6858 6.16356 21.686 6.16134 21.6851 6.16016C21.6841 6.15896 21.6826 6.15783 21.6812 6.15723H21.6792L18.2994 4.69727H18.2925C18.2905 4.69776 18.2881 4.69875 18.2867 4.7002Z" fill="black"/>
</svg>
