<svg width="24" height="24" viewBox="0 0 24 24" fill="none" xmlns="http://www.w3.org/2000/svg">
<path d="M14.706 12.7946C14.736 12.7946 14.7657 12.7955 14.7949 12.7985L14.8291 12.8005C15.4377 12.8622 15.9131 13.3768 15.9131 14.0016C15.913 14.6679 15.3723 15.2086 14.706 15.2087L14.5898 15.2028C14.0185 15.1482 13.5636 14.695 13.5058 14.1247L13.499 14.0016L13.5058 13.8786C13.5644 13.3004 14.031 12.8428 14.6132 12.7985C14.6437 12.7952 14.6747 12.7946 14.706 12.7946Z" fill="black"/>
<path fill-rule="evenodd" clip-rule="evenodd" d="M11.4199 7.40398C12.8603 7.404 14.0282 8.57207 14.0283 10.0124C14.0282 11.4528 12.8603 12.6208 11.4199 12.6208C9.97954 12.6207 8.81153 11.4527 8.81149 10.0124C8.8116 8.57212 9.97957 7.40408 11.4199 7.40398ZM11.4199 9.11492C10.924 9.11502 10.5225 9.5165 10.5224 10.0124C10.5225 10.5083 10.924 10.9107 11.4199 10.9108C11.9159 10.9108 12.3183 10.5084 12.3183 10.0124C12.3182 9.51646 11.9158 9.11494 11.4199 9.11492Z" fill="black"/>
<path d="M12.7568 3.41179C13.3653 3.47361 13.8408 3.98822 13.8408 4.61296C13.8406 5.27911 13.2999 5.81984 12.6338 5.82L12.5175 5.81414C11.9461 5.75962 11.4915 5.30624 11.4336 4.73601L11.4267 4.61296L11.4336 4.48992C11.4952 3.88146 12.0087 3.40593 12.6338 3.40593L12.7568 3.41179Z" fill="black"/>
<path fill-rule="evenodd" clip-rule="evenodd" d="M13.7861 0.0035891C14.8595 0.00476769 15.8325 0.779002 16.0742 1.82488C16.229 2.49476 19.3738 15.7864 19.4804 16.2438C19.6445 16.9481 19.463 17.705 18.999 18.2594L19 18.2604C18.4591 18.9136 18.2827 19.506 18.3134 19.9802C18.34 20.3868 18.5246 20.8021 18.9267 21.1843L19.1123 21.3464L19.1162 21.3493C19.5022 21.662 19.5809 22.1012 19.5673 22.403C19.5538 22.7027 19.4528 22.9825 19.3271 23.1979L19.3252 23.1969C19.0434 23.6859 18.5126 23.996 17.9472 23.9977C17.68 23.9985 6.33462 23.9985 6.06637 23.9977C5.5095 23.9959 4.98705 23.6946 4.70212 23.2184L4.70016 23.2204C4.69571 23.2133 4.69183 23.2052 4.68747 23.1979C4.68577 23.195 4.68332 23.1921 4.68161 23.1891L4.68356 23.1882C4.55487 22.9724 4.45425 22.7012 4.43844 22.4108C4.42182 22.1033 4.50099 21.6624 4.88766 21.3493L4.89255 21.3464C5.42461 20.9214 5.6601 20.4448 5.6904 19.9802C5.72119 19.5061 5.5456 18.9136 5.00485 18.2604L5.00583 18.2594C4.8176 18.0346 4.67616 17.776 4.58493 17.5016C4.57293 17.4699 4.56285 17.4374 4.55465 17.404C4.44785 17.0293 4.43375 16.6288 4.5234 16.2438C4.63057 15.7839 7.77327 2.50566 7.93063 1.82488C8.175 0.767478 9.13349 0.00447018 10.2187 0.0035891C10.9069 0.00303075 13.1098 0.00304008 13.7861 0.0035891ZM6.92087 18.0553C7.27107 18.7105 7.44138 19.4002 7.39645 20.0915C7.34216 20.9243 6.98123 21.6738 6.39157 22.2878C8.08445 22.2883 15.8951 22.2883 17.6123 22.2878C17.0227 21.6738 16.6617 20.9242 16.6074 20.0915C16.5625 19.4002 16.7325 18.7105 17.083 18.0553H6.92087ZM10.2197 1.71355C9.93014 1.71396 9.66187 1.92754 9.59665 2.20964C9.45357 2.82869 6.73086 14.3356 6.2568 16.3444H17.747C17.2724 14.3332 14.5496 2.82168 14.4082 2.20964C14.3456 1.93885 14.0622 1.71387 13.7841 1.71355C13.1087 1.713 10.9069 1.71299 10.2197 1.71355Z" fill="black"/>
</svg>
