<svg width="24" height="24" viewBox="0 0 24 24" fill="none" xmlns="http://www.w3.org/2000/svg">
<path d="M7.96741 14.8239C8.30126 14.4901 8.84347 14.4902 9.17737 14.8239C9.51093 15.1577 9.51082 15.699 9.17737 16.0329L7.46252 17.7477C7.12868 18.0813 6.58738 18.0813 6.25354 17.7477C5.91979 17.4138 5.91969 16.8716 6.25354 16.5378L7.96741 14.8239Z" fill="black"/>
<path d="M12.2535 10.5378C12.5873 10.2043 13.1287 10.2044 13.4625 10.5378C13.7964 10.8717 13.7964 11.4138 13.4625 11.7477L11.7487 13.4616C11.4148 13.7955 10.8726 13.7955 10.5387 13.4616C10.2053 13.1278 10.2052 12.5864 10.5387 12.2526L12.2535 10.5378Z" fill="black"/>
<path d="M16.5387 6.25261C16.8725 5.91879 17.4148 5.91887 17.7487 6.25261C18.0823 6.58644 18.0822 7.12774 17.7487 7.46159L16.0338 9.17644C15.7 9.50992 15.1586 9.51001 14.8248 9.17644C14.4911 8.84252 14.491 8.30032 14.8248 7.96647L16.5387 6.25261Z" fill="black"/>
<path fill-rule="evenodd" clip-rule="evenodd" d="M19.5153 0.954756C19.8491 0.620865 20.3913 0.620886 20.7252 0.954756C21.0588 1.28859 21.0588 1.82991 20.7252 2.16374L19.3405 3.54753L20.4518 4.65788L21.8356 3.27507C22.1695 2.94118 22.7116 2.9412 23.0455 3.27507C23.3791 3.6089 23.3791 4.15022 23.0455 4.48405L21.5367 5.99187C21.9521 6.93394 21.777 8.07366 21.0055 8.84538L8.84534 21.0055C8.07391 21.7767 6.93462 21.9524 5.9928 21.5378L4.48596 23.0456C4.15213 23.3791 3.61081 23.3791 3.27698 23.0456C2.94335 22.7117 2.94317 22.1694 3.27698 21.8356L4.65881 20.4528L3.54846 19.3425L2.16565 20.7262C1.83181 21.0597 1.29046 21.0597 0.956663 20.7262C0.622824 20.3924 0.622864 19.8502 0.956663 19.5163L2.4635 18.0085C2.04815 17.0667 2.22426 15.9277 2.99573 15.1559L15.1559 2.99577C15.927 2.2248 17.065 2.04838 18.0065 2.46257L19.5153 0.954756ZM17.5797 4.20476C17.2442 3.86945 16.7004 3.86947 16.3649 4.20476L4.20471 16.3649C3.86952 16.7004 3.86944 17.2443 4.20471 17.5798L6.42053 19.7956C6.75609 20.1309 7.30084 20.131 7.63635 19.7956L19.7955 7.6364C20.131 7.3009 20.1309 6.75616 19.7955 6.42058L17.5797 4.20476Z" fill="black"/>
</svg>
