<svg width="24" height="24" viewBox="0 0 24 24" fill="none" xmlns="http://www.w3.org/2000/svg">
<path d="M12.001 12.6084C12.3257 12.6084 12.6486 12.6414 12.915 12.708C13.0417 12.7397 13.2054 12.791 13.3574 12.8809C13.4528 12.9373 13.8563 13.1912 13.8564 13.7139C13.8564 14.2364 13.4532 14.4902 13.3574 14.5469C13.2055 14.6367 13.0417 14.688 12.915 14.7197C12.6486 14.7863 12.3257 14.8193 12.001 14.8193C11.6762 14.8193 11.3534 14.7863 11.0869 14.7197C10.9603 14.6881 10.7966 14.6367 10.6445 14.5469C10.5553 14.4941 10.1949 14.2679 10.1504 13.8086L10.1455 13.7139L10.1504 13.6191C10.1951 13.16 10.5554 12.9336 10.6445 12.8809C10.7965 12.7911 10.9603 12.7397 11.0869 12.708C11.3533 12.6415 11.6763 12.6084 12.001 12.6084Z" fill="black"/>
<path fill-rule="evenodd" clip-rule="evenodd" d="M12.001 5.14453C15.1469 5.14453 18.032 5.58471 20.1602 6.32129C21.22 6.68815 22.1387 7.14542 22.8096 7.69434C23.4566 8.22385 23.9694 8.92626 23.9961 9.78711C23.998 9.81025 24 9.8338 24 9.85742V14.1436C24 14.1593 23.9979 14.1749 23.9971 14.1904C23.9788 15.0616 23.4623 15.7725 22.8096 16.3066C22.1388 16.8554 21.2197 17.3119 20.1602 17.6787C18.032 18.4153 15.1468 18.8555 12.001 18.8555C8.8553 18.8554 5.97075 18.4153 3.84277 17.6787C2.78288 17.3118 1.8632 16.8556 1.19238 16.3066C0.56945 15.7968 0.0699834 15.1261 0.00976562 14.3086L0.00292969 14.1436V9.85742C0.00292969 8.96461 0.528032 8.23817 1.19238 7.69434C1.86318 7.14536 2.7829 6.6882 3.84277 6.32129C5.97074 5.58477 8.85537 5.14459 12.001 5.14453ZM12.001 11.1416C8.99331 11.1417 6.30599 11.5643 4.40137 12.2236C3.4453 12.5546 2.73212 12.9299 2.27539 13.3037C1.81277 13.6825 1.71387 13.9715 1.71387 14.1436C1.71416 14.3158 1.81292 14.6049 2.27539 14.9834C2.73216 15.3572 3.44529 15.7315 4.40137 16.0625C6.30599 16.7218 8.99331 17.1454 12.001 17.1455C15.0086 17.1455 17.6959 16.7217 19.6006 16.0625C20.5564 15.7316 21.2697 15.357 21.7266 14.9834C22.189 14.6049 22.2888 14.3158 22.2891 14.1436C22.2891 13.9714 22.1897 13.6828 21.7266 13.3037C21.2697 12.9299 20.5569 12.5547 19.6006 12.2236C17.6958 11.5644 15.0087 11.1416 12.001 11.1416ZM12.001 6.85547C8.99331 6.85553 6.30599 7.27821 4.40137 7.9375C3.44522 8.26853 2.73215 8.64377 2.27539 9.01758C1.81257 9.39647 1.71387 9.68536 1.71387 9.85742V11.6025C2.3102 11.2179 3.03587 10.8868 3.84277 10.6074C5.97074 9.8709 8.85537 9.43072 12.001 9.43066C15.1469 9.43066 18.032 9.87081 20.1602 10.6074C20.9672 10.8868 21.6929 11.2178 22.2891 11.6025V9.85742C22.2891 9.68531 22.1897 9.39663 21.7266 9.01758C21.2697 8.64379 20.5568 8.26849 19.6006 7.9375C17.6959 7.27827 15.0086 6.85547 12.001 6.85547Z" fill="black"/>
</svg>
