<svg width="24" height="24" viewBox="0 0 24 24" fill="none" xmlns="http://www.w3.org/2000/svg">
<path d="M6.14941 16.5518C6.88292 16.6264 7.45586 17.2469 7.45605 18C7.45581 18.7531 6.88289 19.3727 6.14941 19.4473L6.00098 19.4551L5.86133 19.4482C5.17255 19.3826 4.62388 18.8368 4.55371 18.1494L4.5459 18L4.55371 17.8516C4.62823 17.118 5.24782 16.5451 6.00098 16.5449L6.14941 16.5518Z" fill="black"/>
<path fill-rule="evenodd" clip-rule="evenodd" d="M8.57227 12.8594C9.99098 12.8595 11.1414 14.01 11.1416 15.4287V20.5723C11.1412 21.9908 9.99086 23.1415 8.57227 23.1416H3.42871C2.01018 23.1414 0.859789 21.9908 0.859375 20.5723V15.4287C0.859601 14.0101 2.01007 12.8596 3.42871 12.8594H8.57227ZM3.42871 14.5703C2.95447 14.5705 2.57054 14.9545 2.57031 15.4287V20.5723C2.57073 21.0463 2.95459 21.4314 3.42871 21.4316H8.57227C9.04645 21.4315 9.43123 21.0464 9.43164 20.5723V15.4287C9.43141 14.9544 9.04657 14.5705 8.57227 14.5703H3.42871Z" fill="black"/>
<path d="M18.1494 16.5518C18.8829 16.6264 19.4559 17.2469 19.4561 18C19.4558 18.7531 18.8829 19.3727 18.1494 19.4473L18.001 19.4551L17.8613 19.4482C17.1726 19.3826 16.6239 18.8368 16.5537 18.1494L16.5459 18L16.5537 17.8516C16.6282 17.118 17.2478 16.5451 18.001 16.5449L18.1494 16.5518Z" fill="black"/>
<path fill-rule="evenodd" clip-rule="evenodd" d="M20.5723 12.8594C21.991 12.8595 23.1414 14.01 23.1416 15.4287V20.5723C23.1412 21.9908 21.9909 23.1415 20.5723 23.1416H15.4287C14.0102 23.1414 12.8598 21.9908 12.8594 20.5723V15.4287C12.8596 14.0101 14.0101 12.8596 15.4287 12.8594H20.5723ZM15.4287 14.5703C14.9545 14.5705 14.5705 14.9545 14.5703 15.4287V20.5723C14.5707 21.0463 14.9546 21.4314 15.4287 21.4316H20.5723C21.0465 21.4315 21.4312 21.0464 21.4316 20.5723V15.4287C21.4314 14.9544 21.0466 14.5705 20.5723 14.5703H15.4287Z" fill="black"/>
<path d="M12.1494 4.55176C12.8829 4.62637 13.4559 5.24687 13.4561 6C13.4558 6.75308 12.8829 7.3727 12.1494 7.44727L12.001 7.45508L11.8613 7.44824C11.1726 7.38264 10.6239 6.83684 10.5537 6.14941L10.5459 6L10.5537 5.85156C10.6282 5.11802 11.2478 4.54512 12.001 4.54492L12.1494 4.55176Z" fill="black"/>
<path fill-rule="evenodd" clip-rule="evenodd" d="M14.5723 0.858398C15.991 0.858549 17.1414 2.01002 17.1416 3.42871V8.57227C17.1412 9.9908 15.9909 11.1415 14.5723 11.1416H9.42871C8.01018 11.1414 6.85979 9.99075 6.85938 8.57227V3.42871C6.8596 2.01007 8.01007 0.858624 9.42871 0.858398H14.5723ZM9.42871 2.57031C8.95447 2.57054 8.57054 2.95447 8.57031 3.42871V8.57227C8.57073 9.04634 8.95459 9.43141 9.42871 9.43164H14.5723C15.0465 9.43149 15.4312 9.04639 15.4316 8.57227V3.42871C15.4314 2.95443 15.0466 2.57046 14.5723 2.57031H9.42871Z" fill="black"/>
</svg>
