<svg width="24" height="24" viewBox="0 0 24 24" fill="none" xmlns="http://www.w3.org/2000/svg">
<path fill-rule="evenodd" clip-rule="evenodd" d="M12 4.14453C15.2334 4.1448 17.8553 6.76665 17.8555 10C17.8555 10.0673 17.8519 10.1345 17.8496 10.2012C17.8581 10.2861 17.8528 10.3723 17.835 10.458C17.6013 13.4775 15.0793 15.8552 12 15.8555C8.76638 15.8555 6.14453 13.2337 6.14453 10C6.14466 6.76649 8.76646 4.14453 12 4.14453ZM13.8525 6.70898C13.8523 8.08944 12.6127 8.93555 11.4971 8.93555C11.3246 8.93561 11.1482 9.0032 11.0225 9.1123C10.9037 9.21552 10.8526 9.33303 10.8525 9.45215C10.8525 9.61898 10.8609 9.77327 10.8672 9.99414C10.8729 10.1956 10.875 10.4316 10.8525 10.6729C10.8069 11.1618 10.6509 11.7575 10.1348 12.2295C9.75786 12.574 9.33269 12.728 8.94141 12.7979C9.69913 13.6257 10.7891 14.1445 12 14.1445C12.8595 14.1444 13.6574 13.8825 14.3193 13.4346C14.317 13.405 14.3164 13.3836 14.3135 13.3682C14.3127 13.364 14.3113 13.3603 14.3105 13.3574C14.3015 13.3513 14.288 13.3458 14.2725 13.3457C13.1465 13.3456 12.1447 12.4341 12.1445 11.2451C12.1448 10.0562 13.1466 9.14467 14.2725 9.14453H15.8262C15.9032 9.14496 15.9801 9.14782 16.0566 9.15332C15.796 7.89788 14.9683 6.85053 13.8525 6.29199V6.70898ZM14.2725 10.8555C14.0356 10.8556 13.8557 11.055 13.8555 11.2451C13.8556 11.4353 14.0355 11.6356 14.2725 11.6357C14.7342 11.6359 15.1816 11.8156 15.5137 12.1406C15.5209 12.1477 15.5271 12.1559 15.5342 12.1631C15.7746 11.7709 15.9514 11.3361 16.0508 10.8721C16.042 10.8709 16.0332 10.8692 16.0244 10.8682L15.8174 10.8555H14.2725ZM12 5.85547C9.71086 5.85547 7.8556 7.71089 7.85547 10C7.85547 10.3967 7.9116 10.7803 8.01562 11.1436C8.62925 11.143 8.82006 11.1133 8.98047 10.9668C9.06133 10.8928 9.12561 10.7794 9.15039 10.5146C9.16304 10.3791 9.16341 10.2256 9.1582 10.042C9.15354 9.87777 9.14161 9.64922 9.1416 9.45215C9.14176 8.07171 10.3814 7.22571 11.4971 7.22559C11.6695 7.22559 11.8459 7.15789 11.9717 7.04883C12.0906 6.94559 12.1415 6.82814 12.1416 6.70898V5.8584C12.0946 5.85682 12.0474 5.85547 12 5.85547Z" fill="black"/>
<path fill-rule="evenodd" clip-rule="evenodd" d="M11.998 0.00195312C17.6336 0.00195312 22.1748 4.65492 22.1748 10.3594C22.1747 13.7655 20.4856 16.7022 18.5859 18.9355C16.6802 21.1759 14.4887 22.7965 13.3115 23.5879C12.5134 24.1243 11.4837 24.1244 10.6855 23.5879C9.50843 22.7966 7.31619 21.1763 5.41016 18.9355C3.51048 16.7022 1.82137 13.7655 1.82129 10.3594C1.82131 4.65505 6.36256 0.00216414 11.998 0.00195312ZM11.998 1.71289C7.33774 1.7131 3.53225 5.56838 3.53223 10.3594C3.53231 13.1918 4.94203 15.7462 6.71289 17.8281C8.47735 19.9024 10.5284 21.4219 11.6396 22.1689C11.8608 22.3175 12.1362 22.3175 12.3574 22.1689C13.4687 21.4218 15.5198 19.9023 17.2842 17.8281C19.055 15.7462 20.4648 13.1918 20.4648 10.3594C20.4648 5.56826 16.6584 1.71289 11.998 1.71289Z" fill="black"/>
</svg>
