<svg width="24" height="24" viewBox="0 0 24 24" fill="none" xmlns="http://www.w3.org/2000/svg">
<path d="M15.8496 9.43066C16.3218 9.43066 16.7061 9.81393 16.7061 10.2861C16.7058 10.7581 16.3225 11.1405 15.8506 11.1406H8.15234C7.68056 11.1403 7.29806 10.7579 7.29785 10.2861C7.29785 9.81394 7.68114 9.43069 8.15332 9.43066H15.8496Z" fill="black"/>
<path fill-rule="evenodd" clip-rule="evenodd" d="M12.002 0.00195312C17.6373 0.00222189 22.1787 4.65508 22.1787 10.3594C22.1786 13.7655 20.4895 16.7022 18.5898 18.9355C16.6841 21.1759 14.4927 22.7964 13.3154 23.5879C12.5174 24.1244 11.4876 24.1241 10.6895 23.5879C9.51241 22.7966 7.32006 21.1762 5.41406 18.9355C3.51438 16.7022 1.8243 13.7655 1.82422 10.3594C1.82424 4.65497 6.36635 0.00202975 12.002 0.00195312ZM12.002 1.71289C7.34154 1.71297 3.53616 5.5683 3.53613 10.3594C3.53621 13.1918 4.94593 15.7462 6.7168 17.8281C8.48122 19.9022 10.5324 21.422 11.6436 22.1689C11.8648 22.3173 12.1402 22.3176 12.3613 22.1689C13.4727 21.4218 15.5238 19.9023 17.2881 17.8281C19.0589 15.7463 20.4687 13.1917 20.4688 10.3594C20.4687 5.56843 16.6621 1.71316 12.002 1.71289Z" fill="black"/>
</svg>
