<svg width="24" height="24" viewBox="0 0 24 24" fill="none" xmlns="http://www.w3.org/2000/svg">
<path d="M11.998 13.7158C12.4702 13.7158 12.8534 14.0992 12.8535 14.5713V18C12.8534 18.4721 12.4702 18.8545 11.998 18.8545C11.526 18.8544 11.1427 18.4721 11.1426 18V14.5713C11.1427 14.0993 11.526 13.716 11.998 13.7158Z" fill="black"/>
<path fill-rule="evenodd" clip-rule="evenodd" d="M11.998 0.00195312C13.816 0.00195312 15.5602 0.724335 16.8457 2.00977L17.0801 2.25684C18.2187 3.51432 18.8535 5.1531 18.8535 6.85742V8.57324H19.7129C21.1315 8.57351 22.282 9.72397 22.2822 11.1426V21.4287C22.2821 22.8474 21.1316 23.9978 19.7129 23.998H4.28418C2.86549 23.9978 1.714 22.8475 1.71387 21.4287V11.1426C1.71409 9.72394 2.86554 8.57347 4.28418 8.57324H17.1436V6.85742C17.1436 5.49296 16.6015 4.18453 15.6367 3.21973C14.6719 2.25485 13.3626 1.71289 11.998 1.71289C10.6338 1.71307 9.32505 2.25501 8.36035 3.21973C8.02649 3.55308 7.48513 3.55325 7.15137 3.21973C6.81755 2.88591 6.81772 2.34369 7.15137 2.00977C8.43673 0.724524 10.1804 0.00213622 11.998 0.00195312ZM4.28418 10.2842C3.80995 10.2844 3.42601 10.6683 3.42578 11.1426V21.4287C3.42591 21.903 3.80988 22.2879 4.28418 22.2881H19.7129C20.1872 22.2878 20.5721 21.903 20.5723 21.4287V11.1426C20.572 10.6684 20.1871 10.2844 19.7129 10.2842H4.28418Z" fill="black"/>
</svg>
