<svg width="24" height="24" viewBox="0 0 24 24" fill="none" xmlns="http://www.w3.org/2000/svg">
<path d="M11.999 13.7158C12.471 13.716 12.8544 14.0993 12.8545 14.5713V18C12.8544 18.4721 12.4711 18.8544 11.999 18.8545C11.5269 18.8545 11.1436 18.4721 11.1436 18V14.5713C11.1437 14.0992 11.5269 13.7158 11.999 13.7158Z" fill="black"/>
<path fill-rule="evenodd" clip-rule="evenodd" d="M11.999 0.00195312C13.817 0.00201778 15.5612 0.724252 16.8467 2.00977C18.1322 3.29532 18.8545 5.03952 18.8545 6.85742V8.57324H19.7129C21.1318 8.57324 22.282 9.72381 22.2822 11.1426V21.4287C22.2821 22.8476 21.1318 23.998 19.7129 23.998H4.28418C2.8655 23.9978 1.71498 22.8475 1.71484 21.4287V11.1426C1.71507 9.72394 2.86554 8.57347 4.28418 8.57324H5.14355V6.85742C5.14355 5.03936 5.8658 3.29532 7.15137 2.00977C8.43692 0.724195 10.181 0.00195314 11.999 0.00195312ZM4.28418 10.2842C3.80995 10.2844 3.42601 10.6683 3.42578 11.1426V21.4287C3.42591 21.903 3.80988 22.2879 4.28418 22.2881H19.7129C20.1874 22.2881 20.5721 21.9032 20.5723 21.4287V11.1426C20.572 10.6682 20.1873 10.2842 19.7129 10.2842H4.28418ZM11.999 1.71289C10.6345 1.71289 9.32619 2.25485 8.36133 3.21973C7.39645 4.18459 6.85449 5.49288 6.85449 6.85742V8.57324H17.1436V6.85742C17.1436 5.49297 16.6015 4.18453 15.6367 3.21973C14.6719 2.25491 13.3635 1.71296 11.999 1.71289Z" fill="black"/>
</svg>
