<svg width="24" height="24" viewBox="0 0 24 24" fill="none" xmlns="http://www.w3.org/2000/svg">
<path d="M18.8584 0.00195312C20.277 0.00229293 21.4275 1.15272 21.4277 2.57129V7.71484C21.4275 8.18664 21.0441 8.56907 20.5723 8.56934C20.1004 8.56919 19.7181 8.18671 19.7178 7.71484V2.57129C19.7175 2.09711 19.3326 1.71323 18.8584 1.71289H5.14355C4.66932 1.71312 4.28538 2.09705 4.28516 2.57129V21.4287C4.28529 21.903 4.66926 22.2879 5.14355 22.2881H10.2871C10.759 22.2885 11.1416 22.6716 11.1416 23.1436C11.1412 23.6152 10.7587 23.9976 10.2871 23.998H5.14355C3.72487 23.9978 2.57337 22.8475 2.57324 21.4287V2.57129C2.57347 1.15264 3.72492 0.00217917 5.14355 0.00195312H18.8584Z" fill="black"/>
<path fill-rule="evenodd" clip-rule="evenodd" d="M18.8574 11.1445C20.9865 11.1445 22.7129 12.8709 22.7129 15V16.3428C23.4517 16.5328 23.9989 17.2021 23.999 18V22.2852C23.999 23.2306 23.2315 23.9979 22.2861 23.998H15.4297C14.4841 23.998 13.7168 23.2306 13.7168 22.2852V18C13.7169 17.2023 14.2633 16.5329 15.002 16.3428V15C15.002 12.871 16.7285 11.1447 18.8574 11.1445ZM21.873 17.9971C21.8679 17.9972 21.8626 17.998 21.8574 17.998C21.8519 17.998 21.8463 17.9972 21.8408 17.9971H15.8584L15.8574 17.998L15.8555 17.9971L15.4297 17.998L15.4287 17.9971L15.4268 17.999L15.4277 22.2852L15.4268 22.2861L15.4287 22.2881L22.2861 22.2871L22.2871 22.2881L22.2891 22.2861V17.999L22.2871 17.9971H21.873ZM18.8574 12.8555C17.6729 12.8556 16.7129 13.8154 16.7129 15V16.2871H21.002V15C21.002 13.8153 20.0421 12.8555 18.8574 12.8555Z" fill="black"/>
<path d="M9.42871 12.002C9.90091 12.002 10.2842 12.3852 10.2842 12.8574C10.284 13.3295 9.90083 13.7129 9.42871 13.7129H7.71484C7.24272 13.7129 6.85951 13.3295 6.85938 12.8574C6.85938 12.3852 7.24264 12.002 7.71484 12.002H9.42871Z" fill="black"/>
</svg>
