<svg width="24" height="24" viewBox="0 0 24 24" fill="none" xmlns="http://www.w3.org/2000/svg">
<path d="M18.8564 12.8594C19.3286 12.8594 19.7119 13.2426 19.7119 13.7148C19.7116 14.1868 19.3285 14.5703 18.8564 14.5703H16.2852C15.8131 14.5703 15.43 14.1868 15.4297 13.7148C15.4297 13.2426 15.813 12.8594 16.2852 12.8594H18.8564Z" fill="black"/>
<path d="M6.01074 10.7158C6.71428 10.7219 7.2821 11.295 7.28223 12C7.28215 12.6774 6.7579 13.2304 6.09277 13.2783C6.0623 13.2816 6.03135 13.2832 6 13.2832C5.96964 13.2832 5.93872 13.2814 5.90918 13.2783C5.28597 13.2349 4.78526 12.7486 4.72266 12.1309L4.71582 12L4.72266 11.8682C4.7885 11.2234 5.33174 10.7191 5.99316 10.7158H6.01074Z" fill="black"/>
<path d="M10.2852 10.7158C10.9939 10.7158 11.5682 11.2912 11.5684 12C11.5683 12.6773 11.0438 13.2293 10.3789 13.2773C10.3481 13.2807 10.3168 13.2832 10.2852 13.2832C10.2545 13.2832 10.2242 13.2815 10.1943 13.2783C9.57135 13.2347 9.0704 12.7484 9.00781 12.1309L9.00098 12L9.00781 11.8682C9.07384 11.2213 9.62085 10.7159 10.2852 10.7158Z" fill="black"/>
<path fill-rule="evenodd" clip-rule="evenodd" d="M21.4277 5.14453C22.8466 5.14453 23.9968 6.2951 23.9971 7.71387V16.2861C23.9968 17.7049 22.8466 18.8555 21.4277 18.8555H2.57031C1.15173 18.8552 0.00120221 17.7048 0.000976562 16.2861V7.71387C0.00120273 6.29527 1.15172 5.14482 2.57031 5.14453H21.4277ZM2.57031 6.85547C2.09613 6.85576 1.71214 7.23967 1.71191 7.71387V16.2861C1.71214 16.7603 2.09612 17.1442 2.57031 17.1445H21.4277C21.9022 17.1445 22.2869 16.7605 22.2871 16.2861V7.71387C22.2869 7.23949 21.9022 6.85547 21.4277 6.85547H2.57031Z" fill="black"/>
</svg>
