<svg width="24" height="24" viewBox="0 0 24 24" fill="none" xmlns="http://www.w3.org/2000/svg">
<path fill-rule="evenodd" clip-rule="evenodd" d="M16.2861 0.00195312C16.7583 0.00202781 17.1406 0.385264 17.1406 0.857422V5.14453H21.4297C21.9017 5.14481 22.2842 5.52797 22.2842 6V16.2861C22.284 16.758 21.9015 17.1403 21.4297 17.1406H12.8564V23.1436C12.856 23.6153 12.4728 23.9978 12.001 23.998C11.529 23.998 11.1459 23.6154 11.1455 23.1436V17.1406H2.57227C2.1002 17.1406 1.71702 16.7581 1.7168 16.2861V11.1426C1.71687 9.55195 2.34888 8.02612 3.47363 6.90137C4.59837 5.77669 6.12427 5.14461 7.71484 5.14453H15.4307V1.71289H12.8574C12.3854 1.71276 12.0021 1.32943 12.002 0.857422C12.002 0.3853 12.3853 0.00208524 12.8574 0.00195312H16.2861ZM7.71484 6.85547C6.57779 6.85554 5.48765 7.30734 4.68359 8.11133C3.87953 8.91539 3.42781 10.0055 3.42773 11.1426V15.4307H20.5742V6.85547H17.1406V11.1436C17.1403 11.6154 16.7581 11.998 16.2861 11.998C15.8143 11.9979 15.431 11.6154 15.4307 11.1436V6.85547H7.71484Z" fill="black"/>
</svg>
