<svg width="24" height="24" viewBox="0 0 24 24" fill="none" xmlns="http://www.w3.org/2000/svg">
<path fill-rule="evenodd" clip-rule="evenodd" d="M17.1436 14.5732C18.5622 14.5735 19.7127 15.724 19.7129 17.1426C19.7128 18.5613 18.5622 19.7117 17.1436 19.7119C15.7249 19.7117 14.5744 18.5613 14.5742 17.1426C14.5744 15.7239 15.7249 14.5735 17.1436 14.5732ZM17.1436 16.2842C16.6693 16.2844 16.2854 16.6683 16.2852 17.1426C16.2853 17.6169 16.6693 18.0017 17.1436 18.002C17.6178 18.0017 18.0028 17.6169 18.0029 17.1426C18.0027 16.6684 17.6178 16.2844 17.1436 16.2842Z" fill="black"/>
<path d="M15.4297 4.28711C15.9016 4.28737 16.285 4.67065 16.2852 5.14258V6.85645C16.2852 7.32849 15.9017 7.71165 15.4297 7.71191C14.9575 7.71191 14.5742 7.32865 14.5742 6.85645V5.14258C14.5744 4.67049 14.9576 4.28711 15.4297 4.28711Z" fill="black"/>
<path d="M18.8574 4.28711C19.3295 4.28711 19.7128 4.67049 19.7129 5.14258V6.85645C19.7129 7.32865 19.3296 7.71191 18.8574 7.71191C18.3853 7.71178 18.002 7.32857 18.002 6.85645V5.14258C18.0021 4.67057 18.3854 4.28724 18.8574 4.28711Z" fill="black"/>
<path fill-rule="evenodd" clip-rule="evenodd" d="M20.5723 0.858398C21.991 0.858549 23.1414 2.01002 23.1416 3.42871V20.5723C23.1412 21.9908 21.9909 23.1415 20.5723 23.1416H1.71484C1.2428 23.1416 0.859639 22.7581 0.859375 22.2861C0.85945 21.814 1.24269 21.4316 1.71484 21.4316H11.1455V10.2861C11.1454 9.81163 10.7607 9.42676 10.2861 9.42676H5.99902V11.1445H6.85742C8.27626 11.1445 9.42653 12.2951 9.42676 13.7139V17.1426C9.42676 18.5616 8.2764 19.7119 6.85742 19.7119H3.42871C2.00993 19.7117 0.859375 18.5614 0.859375 17.1426V13.7139C0.859601 12.2952 2.01007 11.1448 3.42871 11.1445H4.28809V9.42676H1.71484C1.2429 9.42676 0.85979 9.04412 0.859375 8.57227V5.14355C0.859375 2.7778 2.7778 0.858398 5.14355 0.858398H20.5723ZM5.14355 2.57031C3.72221 2.57031 2.57031 3.72221 2.57031 5.14355V7.7168H5.12598C5.13174 7.71668 5.13776 7.71582 5.14355 7.71582C5.14943 7.71582 5.15528 7.71668 5.16113 7.7168H10.2861C11.7051 7.7168 12.8554 8.86722 12.8555 10.2861V21.4316H20.5723C21.0465 21.4315 21.4312 21.0464 21.4316 20.5723V3.42871C21.4314 2.95443 21.0466 2.57046 20.5723 2.57031H5.14355ZM3.42871 12.8555C2.95447 12.8557 2.57054 13.2396 2.57031 13.7139V17.1426C2.57031 17.617 2.95433 18.0017 3.42871 18.002H4.28809V12.8555H3.42871ZM5.99902 18.002H6.85742C7.33199 18.002 7.7168 17.6171 7.7168 17.1426V13.7139C7.71657 13.2395 7.33185 12.8555 6.85742 12.8555H5.99902V18.002Z" fill="black"/>
</svg>
