<svg width="24" height="24" viewBox="0 0 24 24" fill="none" xmlns="http://www.w3.org/2000/svg">
<path fill-rule="evenodd" clip-rule="evenodd" d="M11.5703 0.00195312C12.9206 0.00201733 14.2584 0.26842 15.5059 0.785156C16.7533 1.30194 17.8871 2.05988 18.8418 3.01465C19.7965 3.9695 20.5546 5.10312 21.0713 6.35059C21.588 7.5981 21.8535 8.9358 21.8535 10.2861C21.8533 10.758 21.4708 11.1403 20.999 11.1406C20.5269 11.1406 20.1438 10.7582 20.1436 10.2861C20.1436 9.1604 19.922 8.04499 19.4912 7.00488C19.0604 5.96492 18.4287 5.01965 17.6328 4.22363C16.8369 3.42773 15.8914 2.79609 14.8516 2.36523C14.0759 2.04396 13.258 1.83839 12.4258 1.75488V18.8574C12.4258 18.8679 12.4242 18.8783 12.4238 18.8887C12.4069 21.7132 10.1126 23.9978 7.28418 23.998C4.44529 23.9979 2.1428 21.6963 2.14258 18.8574C2.14271 16.0185 4.44524 13.716 7.28418 13.7158C8.60228 13.7159 9.80497 14.2124 10.7148 15.0283V0.857422C10.7148 0.385218 11.0981 0.00195312 11.5703 0.00195312ZM7.28418 15.4268C5.38965 15.4269 3.85365 16.9629 3.85352 18.8574C3.85374 20.7519 5.38971 22.288 7.28418 22.2881C9.17857 22.2879 10.7146 20.7518 10.7148 18.8574C10.7147 16.9629 9.17863 15.427 7.28418 15.4268Z" fill="black"/>
</svg>
