<svg width="24" height="24" viewBox="0 0 24 24" fill="none" xmlns="http://www.w3.org/2000/svg">
<path fill-rule="evenodd" clip-rule="evenodd" d="M21.0674 0.928514C22.1418 0.615957 23.1484 1.46444 23.1543 2.4959V2.50176L23.1396 15.0437C23.1408 15.084 23.1426 15.1243 23.1426 15.1648C23.1425 17.3848 21.3429 19.1842 19.123 19.1844C16.9031 19.1842 15.1027 17.3848 15.1025 15.1648C15.1027 12.945 16.9031 11.1445 19.123 11.1443C19.9826 11.1444 20.7791 11.4151 21.4326 11.8748L21.4375 7.58379L8.90137 11.0662L8.89844 19.0799C8.89857 19.0935 8.89941 19.1072 8.89941 19.1209C8.89927 21.3408 7.09983 23.1403 4.87988 23.1404C2.65985 23.1404 0.859516 21.3408 0.859375 19.1209C0.859383 16.9008 2.65982 15.1004 4.87988 15.1004C5.73933 15.1004 6.53508 15.3713 7.18848 15.8309L7.19141 10.4969C7.18623 10.442 7.18611 10.3874 7.19141 10.3338L7.19434 6.09551C7.1983 5.40161 7.66624 4.68791 8.39941 4.48418L21.0674 0.928514ZM4.87988 16.8113C3.60419 16.8113 2.57032 17.8452 2.57031 19.1209C2.57045 20.3965 3.60432 21.4305 4.87988 21.4305C6.14951 21.4304 7.17889 20.4059 7.18848 19.1385L7.1875 19.1209V19.0818C7.16663 17.8243 6.14245 16.8114 4.87988 16.8113ZM19.123 12.8553C17.8476 12.8554 16.8136 13.8893 16.8135 15.1648C16.8136 16.4404 17.8476 17.4743 19.123 17.4744C20.3986 17.4743 21.4325 16.4403 21.4326 15.1648C21.4325 13.8894 20.3986 12.8554 19.123 12.8553ZM8.90332 6.11894L8.90137 9.29082L21.4395 5.8084L21.4434 2.59746L8.90332 6.11894Z" fill="black"/>
</svg>
