<svg width="24" height="24" viewBox="0 0 24 24" fill="none" xmlns="http://www.w3.org/2000/svg">
<path d="M5.29646 10.7568C5.53031 10.3471 6.05245 10.2042 6.46248 10.4375C6.87266 10.6713 7.01642 11.1943 6.78279 11.6045C6.28461 12.4787 5.99963 13.4906 5.99959 14.5713V18.002H11.1461V17.1426C11.1462 16.6705 11.5294 16.2871 12.0015 16.2871C12.4735 16.2873 12.8569 16.6706 12.857 17.1426V18.002H13.7154C13.8927 18.002 14.0573 18.0559 14.1939 18.1484C14.2391 18.179 14.2814 18.2136 14.3199 18.252C14.3395 18.2715 14.358 18.2921 14.3756 18.3135C14.4974 18.4611 14.5708 18.6502 14.5709 18.8564C14.5709 18.9665 14.5482 19.0713 14.5103 19.168C14.451 19.3196 14.3504 19.4497 14.2213 19.5449C14.2035 19.558 14.1853 19.5703 14.1666 19.582C14.0354 19.6639 13.8813 19.7128 13.7154 19.7129H4.28669C3.81245 19.7131 3.42852 20.097 3.4283 20.5713V21.4287C3.42843 21.903 3.8124 22.2879 4.28669 22.2881H18.0015C18.4735 22.2883 18.856 22.6715 18.856 23.1436C18.8557 23.6153 18.4733 23.9978 18.0015 23.998H4.28669C2.86801 23.9978 1.71749 22.8475 1.71736 21.4287V20.5713C1.71758 19.1526 2.86807 18.0022 4.28669 18.002H4.28865V14.5713C4.28869 13.1858 4.65508 11.8822 5.29646 10.7568Z" fill="black"/>
<path fill-rule="evenodd" clip-rule="evenodd" d="M0.253492 0.25293C0.58739 -0.0809686 1.12858 -0.0809686 1.46248 0.25293L8.774 7.56445C9.75611 7.11175 10.8495 6.85944 11.9996 6.85938C16.2587 6.85954 19.7115 10.3131 19.7115 14.5723V18.501L23.7486 22.5381C24.0825 22.872 24.0825 23.4142 23.7486 23.748C23.4147 24.0817 22.8725 24.0818 22.5386 23.748L0.253492 1.46191C-0.080336 1.12809 -0.0801948 0.586845 0.253492 0.25293ZM11.9996 8.57031C11.3314 8.57036 10.6896 8.67894 10.0904 8.87988L18.0015 16.791V14.5723C18.0015 11.2575 15.3143 8.57048 11.9996 8.57031Z" fill="black"/>
<path d="M20.8248 2.82422C21.1587 2.49032 21.7008 2.49032 22.0347 2.82422C22.3683 3.15806 22.3683 3.69937 22.0347 4.0332L19.6099 6.45801C19.2761 6.79139 18.7347 6.79151 18.401 6.45801C18.0671 6.12418 18.0673 5.58196 18.401 5.24805L20.8248 2.82422Z" fill="black"/>
<path d="M12.0015 0.00195312C12.4736 0.00212032 12.857 0.385321 12.857 0.857422V4.28613C12.8568 4.75806 12.4735 5.14046 12.0015 5.14062C11.5295 5.14062 11.1463 4.75816 11.1461 4.28613V0.857422C11.1461 0.385218 11.5293 0.00195312 12.0015 0.00195312Z" fill="black"/>
</svg>
