<svg width="24" height="24" viewBox="0 0 24 24" fill="none" xmlns="http://www.w3.org/2000/svg">
<path d="M9.42616 14.9071C9.65375 14.4934 10.1736 14.3426 10.5873 14.5701C11.0009 14.7977 11.1517 15.3176 10.9242 15.7313L8.13808 20.7977C8.03261 20.9899 8.01568 21.1926 8.05507 21.3455C8.09151 21.4863 8.17126 21.5831 8.29726 21.6365C9.56745 22.1756 11.1072 22.3365 12.5121 22.2762C13.717 22.2189 14.4138 21.4821 14.6303 20.4383C14.726 19.976 15.1787 19.6786 15.641 19.7742C16.1034 19.87 16.4008 20.3226 16.3051 20.785C15.9524 22.4867 14.6816 23.8847 12.5941 23.9842H12.5902C11.0341 24.0515 9.21414 23.8839 7.62831 23.2108C6.25496 22.6277 6.05318 21.0411 6.64003 19.9735L9.42616 14.9071Z" fill="black"/>
<path fill-rule="evenodd" clip-rule="evenodd" d="M11.4105 0.0154553C12.9667 -0.051836 14.7866 0.11579 16.3725 0.788893C17.7458 1.372 17.9477 2.95864 17.3607 4.0262L14.3461 9.50569C14.3961 9.55272 14.4445 9.60127 14.4916 9.6512L16.8519 8.35335C18.3037 7.55481 19.9888 7.36996 21.3803 7.86018C22.7275 8.33508 23.7595 9.43928 23.9545 11.0721L23.9818 11.4061L23.9828 11.41C24.0497 12.9662 23.8816 14.7858 23.2084 16.3719C22.6253 17.7455 21.0387 17.9473 19.9711 17.3602L16.8529 15.6453L23.7465 22.5379C24.0801 22.8718 24.0802 23.4141 23.7465 23.7479C23.4127 24.0817 22.8704 24.0815 22.5365 23.7479L9.58046 10.7908C9.57899 10.7894 9.57705 10.7884 9.57558 10.7869C9.57383 10.7852 9.57242 10.7828 9.5707 10.7811L0.25136 1.46174C-0.0825384 1.12785 -0.0825384 0.586658 0.25136 0.25276C0.585265 -0.0810574 1.12647 -0.0811113 1.46034 0.25276L8.3539 7.14534C7.55536 5.69338 7.37006 4.00849 7.86073 2.61702C8.36757 1.18007 9.59036 0.102027 11.4066 0.0154553H11.4105ZM20.8119 9.47249C19.9401 9.16541 18.7607 9.25486 17.6762 9.85139L15.3178 11.1483C15.3874 11.4209 15.4252 11.7065 15.4252 11.9998C15.4252 12.2927 15.3873 12.5773 15.3178 12.8494L20.7953 15.8621C20.9876 15.9678 21.1911 15.9856 21.3441 15.9461C21.4848 15.9097 21.5807 15.8298 21.6342 15.7039C22.1734 14.4335 22.3338 12.893 22.2738 11.4871L22.2582 11.2899C22.1485 10.3319 21.5862 9.74539 20.8119 9.47249ZM11.9984 10.284C11.8428 10.284 11.6927 10.3043 11.5502 10.3426L13.6547 12.4471C13.693 12.3047 13.7152 12.1552 13.7152 11.9998C13.7152 11.6985 13.6379 11.417 13.5033 11.1727C13.3463 10.888 13.1103 10.6519 12.8256 10.4949C12.5812 10.3602 12.2999 10.284 11.9984 10.284ZM11.4877 1.72249C10.4125 1.77384 9.76535 2.3604 9.47402 3.18635C9.16671 4.05813 9.25556 5.23666 9.85195 6.32112L11.1488 8.67952C11.4209 8.60988 11.7057 8.57311 11.9984 8.57307C12.2918 8.57307 12.5774 8.6096 12.85 8.67952L15.8627 3.20198C15.9682 3.00977 15.9851 2.8071 15.9457 2.65413C15.9093 2.51333 15.8295 2.4166 15.7035 2.36311C14.433 1.82398 12.8927 1.66207 11.4877 1.72249Z" fill="black"/>
<path d="M1.26406 6.69612C1.50842 6.29236 2.03391 6.16292 2.43788 6.40706C2.84178 6.65125 2.97179 7.17685 2.72792 7.58088C1.90242 8.94677 1.6455 10.82 1.72402 12.5125L1.73964 12.7088C1.84906 13.6674 2.41234 14.2532 3.18691 14.5262C4.05869 14.8333 5.2371 14.7437 6.32167 14.1473L8.26991 13.076C8.68349 12.8487 9.20343 12.9995 9.43105 13.4129C9.65859 13.8265 9.50756 14.3463 9.09413 14.574L7.14687 15.6463C5.69521 16.4446 4.00987 16.6296 2.61855 16.1395C1.18125 15.6329 0.102439 14.4103 0.0160083 12.5936C-0.0702973 10.7354 0.191073 8.47148 1.26406 6.69612Z" fill="black"/>
</svg>
