<svg width="24" height="24" viewBox="0 0 24 24" fill="none" xmlns="http://www.w3.org/2000/svg">
<path d="M23.1436 19.7163C23.6156 19.7165 23.998 20.0997 23.998 20.5717C23.9979 21.0437 23.6155 21.427 23.1436 21.4272H0.857422C0.385407 21.4271 0.00207792 21.0437 0.00195312 20.5717C0.00195312 20.0996 0.38533 19.7164 0.857422 19.7163H23.1436Z" fill="black"/>
<path fill-rule="evenodd" clip-rule="evenodd" d="M10.2441 3.26802C11.2324 2.34165 12.7705 2.34165 13.7588 3.26802L23.1377 12.061C24.8368 13.6539 23.7098 16.505 21.3809 16.5053H2.62207C0.293139 16.5051 -0.833733 13.654 0.865234 12.061L10.2441 3.26802ZM12.5889 4.51606C12.2583 4.20632 11.7436 4.20623 11.4131 4.51606L2.03418 13.309C1.46649 13.8418 1.84343 14.7942 2.62207 14.7944H21.3809C22.1596 14.7941 22.536 13.8417 21.9678 13.309L12.5889 4.51606Z" fill="black"/>
</svg>
