<svg width="24" height="24" viewBox="0 0 24 24" fill="none" xmlns="http://www.w3.org/2000/svg">
<path d="M17.1431 8.57324C17.6151 8.57339 17.9975 8.9566 17.9975 9.42871V11.1426C17.9974 13.2152 16.5254 14.9442 14.5698 15.3408V23.1426C14.5697 23.6147 14.1865 23.998 13.7143 23.998C13.2422 23.998 12.859 23.6147 12.8589 23.1426V15.3408C10.903 14.9443 9.43028 13.2153 9.43016 11.1426V9.42871C9.43016 8.95651 9.81343 8.57325 10.2856 8.57324C10.7578 8.57324 11.1411 8.95651 11.1411 9.42871V11.1426C11.1412 12.2635 11.8588 13.2143 12.8589 13.5674V9.42871C12.8589 8.95651 13.2421 8.57325 13.7143 8.57324C14.1865 8.57324 14.5698 8.95651 14.5698 9.42871V13.5674C15.5699 13.2143 16.2875 12.2635 16.2876 11.1426V9.42871C16.2876 8.95651 16.6709 8.57325 17.1431 8.57324Z" fill="black"/>
<path fill-rule="evenodd" clip-rule="evenodd" d="M19.7143 8.57324C21.0375 8.57324 21.9063 9.50149 22.4468 10.4922C22.9941 11.4957 23.3353 12.7807 23.5552 13.9902C23.7776 15.2137 23.8881 16.4287 23.9429 17.332C23.9703 17.785 23.9838 18.1636 23.9907 18.4297C23.9942 18.5627 23.9957 18.6685 23.9966 18.7412C23.997 18.7774 23.9974 18.8057 23.9975 18.8252V18.8574C23.9973 19.3294 23.6151 19.7118 23.1431 19.7119H20.5698V23.1436C20.5695 23.6155 20.1863 23.998 19.7143 23.998C19.2424 23.998 18.8592 23.6155 18.8589 23.1436V9.42871C18.8589 8.95651 19.2421 8.57325 19.7143 8.57324ZM20.5698 18.002H22.2651C22.2579 17.8327 22.2484 17.6422 22.2358 17.4355C22.1834 16.5713 22.0795 15.4291 21.8735 14.2959C21.6649 13.1485 21.3626 12.0758 20.9458 11.3115C20.8205 11.0818 20.6934 10.8997 20.5698 10.7549V18.002Z" fill="black"/>
<path fill-rule="evenodd" clip-rule="evenodd" d="M4.71434 0.00195312C5.18655 0.00195312 5.56981 0.385218 5.56981 0.857422V2.26953C6.02611 2.40527 6.43506 2.64802 6.77196 2.9668L7.99755 2.25977C8.40642 2.02388 8.92943 2.16349 9.16552 2.57227C9.40159 2.98119 9.26094 3.50412 8.85204 3.74023L7.62743 4.44629C7.68072 4.66997 7.71237 4.90261 7.71239 5.14258C7.71239 5.38223 7.68056 5.61449 7.62743 5.83789L8.85204 6.5459C9.26092 6.78198 9.40151 7.30495 9.16552 7.71387C8.92932 8.12237 8.4063 8.26222 7.99755 8.02637L6.77196 7.31836C6.43511 7.63706 6.02603 7.87891 5.56981 8.01465V9.42871C5.56955 9.90069 5.18638 10.2842 4.71434 10.2842C4.24231 10.2842 3.85914 9.90069 3.85888 9.42871V8.01465C3.40262 7.87894 2.99266 7.63802 2.65575 7.31934L1.43212 8.02637C1.02339 8.26219 0.500354 8.12233 0.264149 7.71387C0.0281291 7.30507 0.168037 6.78212 0.576649 6.5459L1.80028 5.83887C1.74702 5.61522 1.7163 5.38252 1.7163 5.14258C1.71632 4.90265 1.747 4.66994 1.80028 4.44629L0.576649 3.74023C0.167922 3.50406 0.0281023 2.98111 0.264149 2.57227C0.500324 2.16354 1.02327 2.02372 1.43212 2.25977L2.65575 2.96582C2.99272 2.64706 3.40254 2.40524 3.85888 2.26953V0.857422C3.85888 0.385221 4.24214 0.00195674 4.71434 0.00195312ZM4.71434 3.85547C4.0033 3.85562 3.42739 4.43154 3.42723 5.14258C3.42723 5.85375 4.00321 6.43051 4.71434 6.43066C5.4255 6.43054 6.00243 5.85376 6.00243 5.14258C6.00228 4.43152 5.42541 3.8556 4.71434 3.85547Z" fill="black"/>
</svg>
