<svg width="24" height="24" viewBox="0 0 24 24" fill="none" xmlns="http://www.w3.org/2000/svg">
<path d="M14.5703 12.4307C15.0425 12.4307 15.4258 12.8139 15.4258 13.2861C15.4255 13.7581 15.0424 14.1416 14.5703 14.1416H9.42773C8.95581 14.1415 8.57253 13.758 8.57227 13.2861C8.57227 12.814 8.95564 12.4308 9.42773 12.4307H14.5703Z" fill="black"/>
<path fill-rule="evenodd" clip-rule="evenodd" d="M18.4287 9.00195C18.9006 9.00237 19.2832 9.38547 19.2832 9.85742V18.4287C19.2831 18.9005 18.9005 19.2838 18.4287 19.2842H5.57129C5.09917 19.2842 4.71595 18.9008 4.71582 18.4287V9.85742C4.71582 9.38522 5.09909 9.00195 5.57129 9.00195H18.4287ZM6.42676 17.5742H17.5732V10.7129H6.42676V17.5742Z" fill="black"/>
<path d="M6.13086 4.29395C6.77812 4.35959 7.28306 4.90672 7.2832 5.57129C7.28313 6.25051 6.75561 6.80436 6.08789 6.84961C6.059 6.85256 6.02968 6.85449 6 6.85449L5.91211 6.85059L5.90918 6.84961C5.28617 6.80598 4.78525 6.31971 4.72266 5.70215L4.71582 5.57129L4.72266 5.43945C4.78871 4.79256 5.33568 4.28714 6 4.28711L6.13086 4.29395Z" fill="black"/>
<path d="M13.8447 4.29395C14.492 4.35962 14.9969 4.90674 14.9971 5.57129C14.997 6.28007 14.4227 6.85442 13.7139 6.85449L13.626 6.85059L13.623 6.84961C13 6.80601 12.4991 6.31974 12.4365 5.70215L12.4297 5.57129L12.4365 5.43945C12.5026 4.79253 13.0495 4.28711 13.7139 4.28711L13.8447 4.29395Z" fill="black"/>
<path d="M18.1309 4.29395C18.7782 4.35959 19.2831 4.90678 19.2832 5.57129C19.2831 6.25045 18.7557 6.80436 18.0879 6.84961C18.059 6.85256 18.0297 6.85449 18 6.85449L17.9121 6.85059L17.9092 6.84961C17.2861 6.80598 16.7852 6.31967 16.7227 5.70215L16.7158 5.57129L16.7227 5.43945C16.7887 4.79262 17.3356 4.28714 18 4.28711L18.1309 4.29395Z" fill="black"/>
<path fill-rule="evenodd" clip-rule="evenodd" d="M22.2852 0.858398C22.7572 0.85853 23.1406 1.24272 23.1406 1.71484V22.2861C23.1404 22.758 22.7571 23.1415 22.2852 23.1416H1.71387C1.24183 23.1416 0.858663 22.7581 0.858398 22.2861V1.71484C0.858398 1.24264 1.24166 0.858398 1.71387 0.858398H22.2852ZM2.56934 21.4316H21.4307V2.57031H2.56934V21.4316Z" fill="black"/>
</svg>
