<svg width="24" height="24" viewBox="0 0 24 24" fill="none" xmlns="http://www.w3.org/2000/svg">
<path fill-rule="evenodd" clip-rule="evenodd" d="M21.4268 10.2877C21.899 10.2877 22.2822 10.6709 22.2822 11.1432C22.282 11.6152 21.8988 11.9986 21.4268 11.9986H20.3799L19.9502 13.7164H22.2842C22.6158 13.7165 22.9179 13.9092 23.0586 14.2096C23.1989 14.5097 23.1533 14.8641 22.9414 15.1187L18.8535 20.024V22.2877H20.5693C21.0415 22.2877 21.4248 22.6709 21.4248 23.1432C21.4246 23.6152 21.0414 23.9986 20.5693 23.9986H15.4268C14.9548 23.9985 14.5715 23.6151 14.5713 23.1432C14.5713 22.671 14.9547 22.2878 15.4268 22.2877H17.1426V20.023L13.0557 15.1187C12.8437 14.8641 12.7981 14.5097 12.9385 14.2096C13.0792 13.9091 13.3811 13.7164 13.7129 13.7164H18.1885L18.8828 10.9361C18.978 10.5555 19.3206 10.2877 19.7129 10.2877H21.4268ZM17.998 18.3795L20.459 15.4273H15.5391L17.998 18.3795Z" fill="black"/>
<path d="M9.77246 0.172449C10.097 -0.0705065 10.5537 -0.0535883 10.8594 0.224207L18.6182 7.27792C18.9675 7.59553 18.9933 8.13652 18.6758 8.48593C18.3581 8.83528 17.8172 8.86115 17.4678 8.54354L10.2842 2.01229L1.99219 9.55136C1.81309 9.71417 1.71098 9.94504 1.71094 10.1871V17.9996C1.71094 18.474 2.09495 18.8587 2.56934 18.859H11.998C12.4702 18.859 12.8534 19.2423 12.8535 19.7144C12.8534 20.1865 12.4702 20.5689 11.998 20.5689H2.56934C1.15056 20.5687 0 19.4185 0 17.9996V10.1871C4.02816e-05 9.46326 0.306199 8.77263 0.841797 8.28573L9.70898 0.224207L9.77246 0.172449Z" fill="black"/>
</svg>
