<svg width="24" height="24" viewBox="0 0 24 24" fill="none" xmlns="http://www.w3.org/2000/svg">
<path fill-rule="evenodd" clip-rule="evenodd" d="M12.0006 0.795898C12.4787 0.795898 12.9525 0.890357 13.3942 1.07324C13.8359 1.25622 14.2377 1.5252 14.5758 1.86328C14.9137 2.20128 15.182 2.6024 15.3649 3.04395C15.5478 3.48567 15.6422 3.95939 15.6422 4.4375C15.6422 4.91558 15.5478 5.38936 15.3649 5.83105C15.2349 6.14483 15.0607 6.43723 14.8502 6.70215L21.5416 22.0068C21.657 22.2711 21.6321 22.5761 21.4743 22.8174C21.3163 23.0587 21.0468 23.2041 20.7584 23.2041H3.24477C2.95639 23.204 2.68687 23.0587 2.52895 22.8174C2.37113 22.5761 2.3462 22.2711 2.46157 22.0068L9.152 6.70312C8.94111 6.43805 8.76644 6.14505 8.63637 5.83105C8.45344 5.38939 8.35906 4.91555 8.35903 4.4375C8.35904 3.95949 8.45349 3.48558 8.63637 3.04395C8.8193 2.60235 9.08847 2.20131 9.42641 1.86328C9.7644 1.5253 10.1655 1.25623 10.6071 1.07324C11.0487 0.890321 11.5226 0.795969 12.0006 0.795898ZM7.71352 21.4941H19.4518L17.9586 18.0791L7.71352 21.4941ZM7.27114 15.2734L4.93422 20.6172L17.2702 16.5049L15.528 12.5215L7.27114 15.2734ZM13.3942 7.80176C12.9525 7.98462 12.4786 8.0791 12.0006 8.0791C11.5226 8.07903 11.0487 7.98468 10.6071 7.80176C10.5873 7.79356 10.5681 7.78393 10.5485 7.77539L8.19301 13.1631L14.8395 10.9473L13.4528 7.77441C13.4332 7.78294 13.4139 7.79357 13.3942 7.80176ZM12.0006 2.50684C11.7472 2.50691 11.4955 2.55633 11.2614 2.65332C11.0273 2.75037 10.8145 2.89311 10.6354 3.07227C10.4563 3.25146 10.3134 3.46418 10.2164 3.69824C10.1195 3.93241 10.07 4.18405 10.07 4.4375C10.07 4.69103 10.1194 4.94252 10.2164 5.17676C10.3135 5.41093 10.4562 5.62347 10.6354 5.80273C10.8146 5.98191 11.0273 6.12463 11.2614 6.22168C11.4955 6.31867 11.7472 6.36907 12.0006 6.36914C12.2541 6.36914 12.5057 6.31861 12.7399 6.22168C12.974 6.12469 13.1866 5.98188 13.3659 5.80273C13.5451 5.62353 13.6878 5.41087 13.7848 5.17676C13.8818 4.94252 13.9322 4.69103 13.9323 4.4375C13.9323 4.18395 13.8818 3.9325 13.7848 3.69824C13.6878 3.46406 13.5451 3.25151 13.3659 3.07227C13.1866 2.89304 12.9741 2.75034 12.7399 2.65332C12.5057 2.55634 12.2541 2.50684 12.0006 2.50684Z" fill="black"/>
</svg>
