<svg width="24" height="24" viewBox="0 0 24 24" fill="none" xmlns="http://www.w3.org/2000/svg">
<path d="M9.42871 6.85938C9.9008 6.85951 10.2842 7.24272 10.2842 7.71484V16.2861C10.2839 16.758 9.90064 17.1415 9.42871 17.1416C8.95667 17.1416 8.57351 16.7581 8.57324 16.2861V7.71484C8.57324 7.24264 8.95651 6.85938 9.42871 6.85938Z" fill="black"/>
<path d="M14.5713 6.85938C15.0435 6.85938 15.4268 7.24264 15.4268 7.71484V16.2861C15.4265 16.7581 15.0433 17.1416 14.5713 17.1416C14.0994 17.1415 13.7161 16.758 13.7158 16.2861V7.71484C13.7158 7.24272 14.0992 6.85951 14.5713 6.85938Z" fill="black"/>
<path fill-rule="evenodd" clip-rule="evenodd" d="M12 0.00195312C18.626 0.00208508 23.9979 5.37398 23.998 12C23.9979 18.626 18.626 23.9979 12 23.998C5.37398 23.9979 0.00208508 18.626 0.00195312 12C0.00210413 5.37399 5.37399 0.00210413 12 0.00195312ZM12 1.71289C6.31839 1.71304 1.71304 6.31839 1.71289 12C1.71302 17.6816 6.31838 22.2879 12 22.2881C17.6816 22.288 22.288 17.6816 22.2881 12C22.2879 6.31838 17.6816 1.71302 12 1.71289Z" fill="black"/>
</svg>
