<svg width="24" height="24" viewBox="0 0 24 24" fill="none" xmlns="http://www.w3.org/2000/svg">
<path fill-rule="evenodd" clip-rule="evenodd" d="M14.4482 12.8594C18.3016 12.8594 21.4256 15.9836 21.4258 19.8369C21.4255 21.6613 19.9464 23.1414 18.1221 23.1416H5.87695C4.05249 23.1415 2.57253 21.6613 2.57227 19.8369C2.57247 15.9838 5.69668 12.8597 9.5498 12.8594H14.4482ZM9.5498 14.5703C6.64109 14.5706 4.28341 16.9282 4.2832 19.8369C4.28347 20.7169 4.9969 21.4315 5.87695 21.4316H18.1221C19.002 21.4314 19.7156 20.7169 19.7158 19.8369C19.7156 16.928 17.3572 14.5704 14.4482 14.5703H9.5498Z" fill="black"/>
<path fill-rule="evenodd" clip-rule="evenodd" d="M11.999 0.858398C14.8382 0.858398 17.1396 3.16183 17.1396 6.00098C17.1392 8.8397 14.8379 11.1416 11.999 11.1416C9.16036 11.1414 6.85889 8.83957 6.8584 6.00098C6.8584 3.16196 9.16006 0.858606 11.999 0.858398ZM11.999 2.57031C10.1045 2.57052 8.56836 4.10637 8.56836 6.00098C8.56885 7.89517 10.1048 9.43143 11.999 9.43164C13.8935 9.43164 15.4292 7.8953 15.4297 6.00098C15.4297 4.10624 13.8938 2.57031 11.999 2.57031Z" fill="black"/>
</svg>
