<svg width="24" height="24" viewBox="0 0 24 24" fill="none" xmlns="http://www.w3.org/2000/svg">
<path d="M3.43066 15.4297C3.9027 15.4299 4.28613 15.8141 4.28613 16.2861V21.4287C4.28587 21.9006 3.90254 22.284 3.43066 22.2842C2.95862 22.2842 2.57546 21.9007 2.5752 21.4287V16.2861C2.5752 15.8139 2.95846 15.4297 3.43066 15.4297Z" fill="black"/>
<path d="M7.71582 18.8594C8.18802 18.8594 8.57129 19.2426 8.57129 19.7148V21.4287C8.57102 21.9007 8.18786 22.2842 7.71582 22.2842C7.24384 22.2841 6.86062 21.9006 6.86035 21.4287V19.7148C6.86035 19.2427 7.24367 18.8594 7.71582 18.8594Z" fill="black"/>
<path d="M12.002 18.8594C12.474 18.8595 12.8574 19.2427 12.8574 19.7148V21.4287C12.8572 21.9006 12.4739 22.284 12.002 22.2842C11.5299 22.2842 11.1467 21.9007 11.1465 21.4287V19.7148C11.1465 19.2426 11.5297 18.8594 12.002 18.8594Z" fill="black"/>
<path d="M16.2871 18.8594C16.7593 18.8594 17.1426 19.2426 17.1426 19.7148V21.4287C17.1423 21.9007 16.7592 22.2842 16.2871 22.2842C15.8152 22.284 15.4319 21.9006 15.4316 21.4287V19.7148C15.4316 19.2427 15.815 18.8595 16.2871 18.8594Z" fill="black"/>
<path d="M20.5732 18.8594C21.0454 18.8594 21.4287 19.2427 21.4287 19.7148V21.4287C21.4284 21.9006 21.0452 22.2841 20.5732 22.2842C20.1012 22.2842 19.718 21.9007 19.7178 21.4287V19.7148C19.7178 19.2426 20.101 18.8594 20.5732 18.8594Z" fill="black"/>
</svg>
