<svg width="24" height="24" viewBox="0 0 24 24" fill="none" xmlns="http://www.w3.org/2000/svg">
<path d="M3.42969 15.4307C3.90189 15.4307 4.28516 15.8139 4.28516 16.2861V21.4287C4.28489 21.9007 3.90173 22.2842 3.42969 22.2842C2.95765 22.2842 2.57448 21.9007 2.57422 21.4287V16.2861C2.57422 15.8139 2.95748 15.4307 3.42969 15.4307Z" fill="black"/>
<path d="M7.71582 12.002C8.1878 12.0022 8.57129 12.3854 8.57129 12.8574V21.4287C8.57116 21.9006 8.18772 22.2839 7.71582 22.2842C7.2437 22.2842 6.86048 21.9008 6.86035 21.4287V12.8574C6.86035 12.3852 7.24362 12.002 7.71582 12.002Z" fill="black"/>
<path d="M12.001 8.57324C12.4732 8.57324 12.8564 8.95651 12.8564 9.42871V21.4287C12.8563 21.9008 12.4731 22.2842 12.001 22.2842C11.529 22.284 11.1456 21.9007 11.1455 21.4287V9.42871C11.1455 8.95659 11.5289 8.57337 12.001 8.57324Z" fill="black"/>
<path d="M16.2871 5.14453C16.7592 5.14466 17.1426 5.52788 17.1426 6V21.4287C17.1425 21.9008 16.7592 22.2831 16.2871 22.2832C15.815 22.2832 15.4317 21.9009 15.4316 21.4287V6C15.4316 5.5278 15.8149 5.14453 16.2871 5.14453Z" fill="black"/>
<path d="M20.5723 1.71582C21.0444 1.71582 21.4276 2.0992 21.4277 2.57129V21.4287C21.4276 21.9008 21.0444 22.2832 20.5723 22.2832C20.1003 22.2831 19.7169 21.9007 19.7168 21.4287V2.57129C19.7169 2.09928 20.1003 1.71595 20.5723 1.71582Z" fill="black"/>
</svg>
