<svg width="24" height="24" viewBox="0 0 24 24" fill="none" xmlns="http://www.w3.org/2000/svg">
<path d="M3.42831 15.4307C3.90052 15.4307 4.28378 15.8139 4.28378 16.2861V21.4287C4.28378 21.9009 3.90052 22.2842 3.42831 22.2842C2.95625 22.284 2.57284 21.9008 2.57284 21.4287V16.2861C2.57284 15.814 2.95625 15.4308 3.42831 15.4307Z" fill="black"/>
<path d="M7.71445 15.4307C8.18634 15.4308 8.56956 15.8133 8.56991 16.2852V21.4287C8.56991 21.9009 8.18656 22.2841 7.71445 22.2842C7.24224 22.2842 6.85898 21.9009 6.85898 21.4287V16.2852C6.85933 15.8133 7.24246 15.4307 7.71445 15.4307Z" fill="black"/>
<path d="M16.2857 5.14551C16.7577 5.14561 17.1409 5.52808 17.1412 6V21.4287C17.1412 21.9009 16.7579 22.2841 16.2857 22.2842C15.8136 22.2841 15.4312 21.9009 15.4312 21.4287V6C15.4315 5.52806 15.8137 5.14557 16.2857 5.14551Z" fill="black"/>
<path d="M11.9996 13.7158C12.4716 13.7159 12.8549 14.0993 12.8551 14.5713V21.4287C12.8549 21.9007 12.4716 22.2831 11.9996 22.2832C11.5277 22.283 11.1452 21.9007 11.1451 21.4287V14.5713C11.1452 14.0993 11.5277 13.7161 11.9996 13.7158Z" fill="black"/>
<path d="M20.5719 1.71582C21.0438 1.71609 21.4262 2.09936 21.4264 2.57129V21.4287C21.4262 21.9006 21.0438 22.2829 20.5719 22.2832C20.0998 22.2832 19.7165 21.9008 19.7164 21.4287V2.57129C19.7165 2.0992 20.0997 1.71582 20.5719 1.71582Z" fill="black"/>
<path d="M9.68027 2.39551C10.0141 2.06168 10.5563 2.06182 10.8902 2.39551C11.2238 2.72935 11.2238 3.27065 10.8902 3.60449L7.85214 6.6416L10.8892 9.67188C11.2235 10.0054 11.2237 10.5466 10.8902 10.8809C10.5567 11.2147 10.0154 11.2161 9.68124 10.8828L6.64218 7.85156L3.60409 10.8906C3.27023 11.224 2.72888 11.2242 2.39511 10.8906C2.06149 10.5568 2.06149 10.0145 2.39511 9.68066L5.43222 6.64258L2.39609 3.61426C2.06204 3.28099 2.06135 2.73962 2.39413 2.40527C2.72755 2.07107 3.26881 2.07008 3.60312 2.40332L6.6412 5.43359L9.68027 2.39551Z" fill="black"/>
</svg>
