<svg width="24" height="24" viewBox="0 0 24 24" fill="none" xmlns="http://www.w3.org/2000/svg">
<path fill-rule="evenodd" clip-rule="evenodd" d="M4.21587 8.15321C9.36389 7.16355 14.6529 7.16596 19.7969 8.16103C19.8025 8.16208 19.809 8.16277 19.8145 8.16396C21.0037 8.41966 22.0686 9.07749 22.8292 10.0263L22.9678 10.2069C23.6367 11.1191 23.9964 12.2241 23.9913 13.3593L24.0001 14.2352C24.0001 14.2416 24.0001 14.2484 24.0001 14.2548C23.9925 14.8706 23.7443 15.4596 23.3086 15.8954C22.8731 16.3309 22.284 16.5793 21.668 16.5868C21.6635 16.5869 21.658 16.5868 21.6534 16.5868L17.9131 16.5702H17.9102C17.3724 16.5659 16.8547 16.3764 16.4424 16.038L16.2725 15.8837C15.8385 15.4495 15.5925 14.8626 15.587 14.2489L15.5733 14.1239C15.5479 14.0014 15.4869 13.8882 15.3975 13.7987C15.2783 13.6795 15.1165 13.6112 14.9473 13.6093L9.04498 13.6142C8.96299 13.6136 8.88084 13.6289 8.80474 13.66C8.72855 13.6913 8.65899 13.7385 8.60064 13.7968C8.54235 13.8551 8.49623 13.9247 8.4649 14.0009C8.43362 14.0771 8.41751 14.1589 8.41802 14.2411V14.2548C8.41213 14.8692 8.16481 15.457 7.73052 15.8915C7.29602 16.326 6.7074 16.5731 6.09283 16.579L2.33599 16.5819C1.71992 16.5754 1.13021 16.3281 0.69439 15.8925C0.258584 15.4567 0.0114752 14.8671 0.00493649 14.2509C0.0048701 14.2445 0.00485992 14.2377 0.00493649 14.2313L0.0147021 13.3554C0.011077 12.1443 0.422566 10.9677 1.18072 10.0224C1.94208 9.07325 3.0074 8.41456 4.19634 8.15712C4.20256 8.15578 4.20965 8.15441 4.21587 8.15321ZM19.4639 9.83778C14.5414 8.88668 9.48054 8.88381 4.55376 9.82899C3.75017 10.004 3.0298 10.4506 2.5147 11.0927C1.99891 11.736 1.7199 12.5368 1.72466 13.3602C1.72469 13.3653 1.72472 13.3708 1.72466 13.3759L1.71392 14.2323C1.7157 14.4016 1.7842 14.5632 1.90337 14.6825C2.02241 14.8015 2.18367 14.8689 2.35259 14.871L6.0772 14.869L6.20025 14.8563C6.32069 14.8313 6.43302 14.771 6.52154 14.6825C6.60994 14.594 6.66941 14.4817 6.69439 14.3612L6.70806 14.2382C6.7079 13.9341 6.76736 13.6329 6.88287 13.3515C7.00018 13.0658 7.1733 12.8052 7.39166 12.5868C7.60992 12.3687 7.86985 12.1962 8.15533 12.079C8.43907 11.9626 8.74321 11.903 9.04986 11.9042L14.9659 11.8993C15.5817 11.906 16.1709 12.1534 16.6065 12.5888C16.9878 12.9701 17.2256 13.4694 17.2833 14.0009L17.2969 14.2304V14.2323C17.2982 14.3985 17.3645 14.5576 17.4815 14.6747C17.5985 14.7917 17.7576 14.8589 17.9239 14.8602L21.6475 14.8759C21.8166 14.8737 21.9794 14.8066 22.0997 14.6864C22.2196 14.5663 22.2879 14.4037 22.2901 14.2343L22.2813 13.3768C22.2813 13.372 22.2813 13.367 22.2813 13.3622C22.2874 12.5387 22.0095 11.7383 21.4952 11.0966C20.9826 10.457 20.2653 10.0122 19.4639 9.83778Z" fill="black"/>
</svg>
