<svg width="24" height="24" viewBox="0 0 24 24" fill="none" xmlns="http://www.w3.org/2000/svg">
<path d="M3.42676 15.4307C3.89896 15.4307 4.28223 15.8139 4.28223 16.2861V21.4287C4.28196 21.9007 3.8988 22.2842 3.42676 22.2842C2.95483 22.284 2.57155 21.9006 2.57129 21.4287V16.2861C2.57129 15.814 2.95467 15.4308 3.42676 15.4307Z" fill="black"/>
<path d="M7.71289 12.002C8.18498 12.0021 8.56836 12.3853 8.56836 12.8574V21.4287C8.56823 21.9007 8.1849 22.284 7.71289 22.2842C7.24077 22.2842 6.85755 21.9008 6.85742 21.4287V12.8574C6.85742 12.3852 7.24069 12.002 7.71289 12.002Z" fill="black"/>
<path d="M11.998 8.57324C12.4703 8.57324 12.8535 8.95651 12.8535 9.42871V21.4287C12.8534 21.9008 12.4702 22.2842 11.998 22.2842C11.526 22.284 11.1427 21.9007 11.1426 21.4287V9.42871C11.1426 8.95659 11.526 8.57337 11.998 8.57324Z" fill="black"/>
<path d="M16.2842 18.8594C16.7563 18.8595 17.1396 19.2427 17.1396 19.7148V21.4287C17.1394 21.9006 16.7561 22.284 16.2842 22.2842C15.8121 22.2842 15.429 21.9007 15.4287 21.4287V19.7148C15.4287 19.2426 15.812 18.8594 16.2842 18.8594Z" fill="black"/>
<path d="M20.5703 18.8594C21.0423 18.8596 21.4258 19.2428 21.4258 19.7148V21.4287C21.4255 21.9005 21.0421 22.2839 20.5703 22.2842C20.0983 22.2842 19.7151 21.9007 19.7148 21.4287V19.7148C19.7148 19.2426 20.0981 18.8594 20.5703 18.8594Z" fill="black"/>
</svg>
