<svg width="24" height="24" viewBox="0 0 24 24" fill="none" xmlns="http://www.w3.org/2000/svg">
<path fill-rule="evenodd" clip-rule="evenodd" d="M2.50069 0.0712107C3.12687 0.0793731 3.94621 0.112518 4.81124 0.203047C5.67234 0.293188 6.60237 0.442159 7.4421 0.686445C8.15874 0.894977 8.88834 1.195 9.446 1.64934L9.67452 1.85441L9.72139 1.90422C10.577 2.90043 11.0241 4.18372 10.9743 5.49602C10.9443 6.2852 10.7343 7.04899 10.3708 7.73527C10.7094 8.0909 11.0236 8.46148 11.3093 8.85246C11.9719 9.75951 12.4726 10.7568 12.8044 11.8788C13.3301 11.0259 13.9722 10.2534 14.6228 9.62199C13.8145 7.81766 14.4279 5.64662 15.9929 4.4091C16.507 4.00263 17.1962 3.76308 17.8571 3.61613C18.536 3.46527 19.2759 3.39298 19.9636 3.37492C20.651 3.3569 21.3146 3.39278 21.8454 3.46867C22.1084 3.5063 22.3623 3.55699 22.5778 3.62492C22.6851 3.65876 22.8023 3.70296 22.9138 3.76164C22.9891 3.80132 23.0985 3.8663 23.2028 3.96672L23.3044 4.08L23.3884 4.205C23.4592 4.32951 23.4952 4.44999 23.5153 4.53312C23.5449 4.65545 23.5588 4.77978 23.5651 4.89152C23.5779 5.11551 23.5638 5.37082 23.5358 5.63176C23.4793 6.15842 23.3522 6.80212 23.1696 7.45793C22.9869 8.11433 22.7422 8.8083 22.4411 9.43059C22.147 10.0385 21.767 10.6464 21.2858 11.0654C19.6589 12.4815 17.205 12.4109 15.6442 11.0165C14.6655 12.0127 13.8051 13.3113 13.447 14.5732H17.8982C18.9185 14.5732 19.7126 15.4605 19.6003 16.4745C19.5439 16.9834 19.1156 20.8489 19.0202 21.7109C18.8767 23.0069 17.7549 24.0056 16.4509 23.998C15.5879 23.9927 10.1235 23.9927 9.26046 23.998C7.95645 24.0057 6.83459 23.007 6.69112 21.7109C6.59575 20.8491 6.16741 16.9833 6.11104 16.4745C5.99869 15.4605 6.79296 14.5732 7.81319 14.5732H11.5446C11.4182 12.6124 10.8486 11.1208 9.92842 9.86125C9.74029 9.60374 9.53528 9.35481 9.31514 9.11125C8.40282 9.95945 7.21545 10.4565 5.96651 10.5038C4.65455 10.5533 3.37168 10.1054 2.37569 9.24992C2.35937 9.2359 2.34306 9.22119 2.32784 9.20598C1.75789 8.63588 1.37374 7.79157 1.10518 6.95793C0.829378 6.10161 0.642963 5.14917 0.526081 4.26945C0.409107 3.38884 0.358173 2.5532 0.362018 1.9218C0.363928 1.61097 0.379031 1.32231 0.413776 1.09367C0.43018 0.98584 0.457765 0.845068 0.510456 0.710859C0.536235 0.645335 0.584866 0.537295 0.672565 0.429609C0.759874 0.322608 0.947036 0.144215 1.24874 0.101484C1.41704 0.0777843 1.90441 0.0634509 2.50069 0.0712107ZM7.81124 16.2861C7.86754 16.7942 8.29602 20.6622 8.39132 21.5234C8.4386 21.9493 8.82218 22.2906 9.25069 22.288C10.1213 22.2827 15.5902 22.2827 16.4607 22.288C16.8891 22.2906 17.2727 21.9493 17.32 21.5234C17.4154 20.6623 17.8438 16.794 17.9001 16.2861V16.2841H7.81124V16.2861ZM20.0085 5.08488C19.3992 5.10088 18.7732 5.16495 18.2282 5.28605C17.6653 5.4112 17.2704 5.57931 17.0534 5.7509C15.8751 6.68277 15.6322 8.33981 16.489 9.42961C17.3706 10.5504 19.0872 10.7115 20.1628 9.77531C20.3896 9.57778 20.6478 9.20977 20.9011 8.68645C21.1475 8.17719 21.3597 7.58271 21.5222 6.99895C21.6848 6.41467 21.791 5.86484 21.8357 5.44914C21.8456 5.35665 21.8506 5.27457 21.8542 5.20402C21.7827 5.18956 21.6985 5.17469 21.6032 5.16105C21.1834 5.10106 20.6176 5.06891 20.0085 5.08488ZM2.07589 1.78215C2.07472 1.82903 2.0723 1.87967 2.07198 1.93254C2.06869 2.47516 2.11342 3.23097 2.22139 4.04387C2.32956 4.85809 2.49713 5.70385 2.73214 6.43352C2.96945 7.17023 3.24677 7.69404 3.5212 7.97844C4.18575 8.536 5.03428 8.82759 5.90206 8.79484C6.70574 8.76438 7.47119 8.4562 8.07296 7.92961C7.2526 7.24784 6.28913 6.59605 5.18331 5.93254C4.77894 5.68954 4.64687 5.16437 4.88936 4.75969C5.13215 4.35517 5.65746 4.22358 6.06221 4.46574C7.15334 5.12041 8.15787 5.79068 9.04854 6.5175C9.1772 6.17179 9.25207 5.80542 9.26632 5.43059C9.29912 4.56206 9.00641 3.71357 8.44796 3.04875C8.16988 2.78601 7.67199 2.5339 6.96456 2.32805C6.2587 2.1227 5.43799 1.98853 4.63253 1.90422C3.831 1.82035 3.06541 1.78785 2.47823 1.78019C2.33174 1.7783 2.19659 1.78147 2.07589 1.78215Z" fill="black"/>
</svg>
