<svg width="24" height="24" viewBox="0 0 24 24" fill="none" xmlns="http://www.w3.org/2000/svg">
<path d="M22.2861 5.14453C22.7579 5.14502 23.1406 5.5281 23.1406 6V20.5713C23.1406 21.2526 22.8693 21.906 22.3877 22.3877C21.9061 22.8693 21.2525 23.1405 20.5713 23.1406H6C5.52794 23.1406 5.14476 22.7581 5.14453 22.2861C5.14453 21.8139 5.5278 21.4307 6 21.4307H20.5713C20.7989 21.4305 21.0177 21.3397 21.1787 21.1787C21.3397 21.0176 21.4307 20.799 21.4307 20.5713V6C21.4307 5.5278 21.8139 5.14453 22.2861 5.14453Z" fill="black"/>
<path fill-rule="evenodd" clip-rule="evenodd" d="M9.99219 4.93164C11.1266 4.94251 12.2311 5.30154 13.1543 5.96094C14.0774 6.62045 14.7762 7.54851 15.1543 8.61816C15.3111 9.06309 15.0776 9.55159 14.6328 9.70898C14.1878 9.86623 13.6996 9.63229 13.542 9.1875C13.2808 8.44883 12.7976 7.80803 12.1602 7.35254C11.7606 7.0672 11.3118 6.8625 10.8398 6.74805V11.9619C10.8492 12.0576 10.8545 12.1548 10.8545 12.2529C10.8544 13.8869 9.52947 15.2118 7.89551 15.2119C6.26162 15.2117 4.93666 13.8868 4.93652 12.2529C4.93674 10.6191 6.26166 9.29415 7.89551 9.29395C8.33615 9.29398 8.75316 9.39261 9.12891 9.56543V5.78613C9.12891 5.55797 9.22071 5.33928 9.38281 5.17871C9.54484 5.01825 9.76417 4.92956 9.99219 4.93164ZM7.89551 11.0049C7.20608 11.0051 6.64767 11.5635 6.64746 12.2529C6.64759 12.9424 7.20602 13.5017 7.89551 13.502C8.54387 13.5018 9.0762 13.0072 9.1377 12.375C9.13204 12.3354 9.12894 12.295 9.12891 12.2539V12.0654C9.03829 11.465 8.5213 11.005 7.89551 11.0049Z" fill="black"/>
<path fill-rule="evenodd" clip-rule="evenodd" d="M16.8359 0.858398C18.1872 0.85853 19.2832 1.95542 19.2832 3.30664V16.8369C19.2829 18.188 18.1871 19.284 16.8359 19.2842H3.30566C1.95453 19.2842 0.858662 18.1881 0.858398 16.8369V3.30664C0.858419 1.95533 1.95435 0.858419 3.30566 0.858398H16.8359ZM3.30566 2.57031C2.89876 2.57033 2.56936 2.89974 2.56934 3.30664V16.8369C2.5696 17.2437 2.89889 17.5742 3.30566 17.5742H16.8359C17.2427 17.5741 17.573 17.2436 17.5732 16.8369V3.30664C17.5732 2.89978 17.2428 2.57044 16.8359 2.57031H3.30566Z" fill="black"/>
</svg>
