<svg width="24" height="24" viewBox="0 0 24 24" fill="none" xmlns="http://www.w3.org/2000/svg">
<path d="M16.1104 8.82422C16.4443 8.49044 16.9855 8.49036 17.3193 8.82422L19.8906 11.3955L19.9492 11.46C19.9576 11.4703 19.9648 11.4816 19.9727 11.4922C20.078 11.6344 20.1416 11.8096 20.1416 12C20.1416 12.1901 20.0777 12.3648 19.9727 12.5068C19.9646 12.5177 19.9578 12.5295 19.9492 12.54C19.9311 12.5623 19.9114 12.5837 19.8906 12.6045L17.3193 15.1758C16.9855 15.5096 16.4443 15.5094 16.1104 15.1758C15.7765 14.8419 15.7765 14.3007 16.1104 13.9668L17.2217 12.8555H13.2861C12.8139 12.8555 12.4307 12.4722 12.4307 12C12.4307 11.5278 12.8139 11.1445 13.2861 11.1445H17.2217L16.1104 10.0332C15.7765 9.6993 15.7765 9.15812 16.1104 8.82422Z" fill="black"/>
<path fill-rule="evenodd" clip-rule="evenodd" d="M21.4287 2.57324C22.8474 2.57337 23.9978 3.72387 23.998 5.14258V18.8574C23.9978 20.2761 22.8474 21.4266 21.4287 21.4268H2.57129C1.15263 21.4265 0.00216099 20.2761 0.00195312 18.8574V5.14258C0.00217773 3.72393 1.15264 2.57347 2.57129 2.57324H21.4287ZM2.57129 4.28418C2.09705 4.28441 1.71312 4.66834 1.71289 5.14258V18.8574C1.7131 19.3317 2.09704 19.7166 2.57129 19.7168H4.45801V4.28418H2.57129ZM6.16895 19.7168H8.91504V4.28418H6.16895V19.7168ZM10.626 19.7168H21.4287C21.903 19.7167 22.2879 19.3317 22.2881 18.8574V5.14258C22.2879 4.66828 21.903 4.28431 21.4287 4.28418H10.626V19.7168Z" fill="black"/>
</svg>
