<svg width="24" height="24" viewBox="0 0 24 24" fill="none" xmlns="http://www.w3.org/2000/svg">
<path d="M4.53747 19.9674C4.87138 19.6336 5.4126 19.6335 5.74645 19.9674C6.08004 20.3012 6.08013 20.8425 5.74645 21.1763L5.49353 21.4283L5.74645 21.6812C6.08007 22.0152 6.08026 22.5564 5.74645 22.8902C5.41265 23.224 4.87138 23.2238 4.53747 22.8902L3.68884 22.0416C3.68604 22.0389 3.68282 22.0365 3.68005 22.0338C3.4089 21.7626 3.35843 21.3544 3.5277 21.0318C3.56688 20.9571 3.61726 20.8866 3.68005 20.8238L4.53747 19.9674Z" fill="black"/>
<path d="M11.3949 19.9674C11.7288 19.6336 12.27 19.6335 12.6039 19.9674C12.9373 20.3012 12.9375 20.8426 12.6039 21.1763L12.3509 21.4283L12.6039 21.6812C12.9375 22.0151 12.9376 22.5564 12.6039 22.8902C12.2701 23.224 11.7288 23.2238 11.3949 22.8902L10.5463 22.0416C10.5435 22.0389 10.5402 22.0365 10.5375 22.0338C10.4091 21.9054 10.3308 21.7458 10.3011 21.5797C10.2922 21.5296 10.2865 21.479 10.2865 21.4283C10.2865 21.4009 10.2878 21.3735 10.2904 21.3463C10.3087 21.1556 10.3914 20.9699 10.5375 20.8238L11.3949 19.9674Z" fill="black"/>
<path d="M18.2513 19.9674C18.5852 19.6336 19.1265 19.6335 19.4603 19.9674C19.794 20.3012 19.794 20.8425 19.4603 21.1763L19.2074 21.4283L19.4603 21.6812C19.7939 22.0152 19.7941 22.5564 19.4603 22.8902C19.1265 23.2239 18.5852 23.2238 18.2513 22.8902L17.4027 22.0416C17.3999 22.0389 17.3967 22.0365 17.3939 22.0338C17.1228 21.7626 17.0724 21.3544 17.2416 21.0318C17.2807 20.9571 17.3312 20.8866 17.3939 20.8238L18.2513 19.9674Z" fill="black"/>
<path d="M18.8558 15.4303C19.6311 15.4303 20.3749 15.7389 20.9232 16.2867C21.3108 16.6741 21.0396 16.4021 21.4261 16.7887C21.6539 17.0164 21.9626 17.1451 22.2845 17.1451C22.4608 17.1451 22.627 17.1088 22.7875 17.0357C23.217 16.8403 23.7235 17.0302 23.9193 17.4596C24.115 17.8893 23.9252 18.3966 23.4955 18.5924C23.1126 18.7666 22.7052 18.855 22.2845 18.8551C21.5091 18.855 20.7646 18.547 20.2162 17.9986C19.8272 17.6097 20.1027 17.8849 19.7142 17.4967C19.4864 17.2692 19.1776 17.1412 18.8558 17.1412C18.534 17.1412 18.2252 17.2691 17.9974 17.4967C17.6086 17.8854 17.8853 17.6088 17.4955 17.9986C16.9471 18.5471 16.2027 18.8551 15.4271 18.8551C14.6517 18.855 13.908 18.5468 13.3597 17.9986C12.9719 17.6107 13.2452 17.884 12.8578 17.4967C12.63 17.2691 12.3203 17.1412 11.9984 17.1412C11.6766 17.1413 11.3677 17.2691 11.14 17.4967C10.7522 17.8844 11.0262 17.6104 10.6381 17.9986C10.0897 18.547 9.34527 18.8551 8.5697 18.8551C7.79436 18.8549 7.05056 18.5469 6.50231 17.9986C6.11441 17.6107 6.38803 17.8842 6.00036 17.4967C5.77271 17.2692 5.46373 17.1413 5.14196 17.1412C4.82003 17.1412 4.51032 17.269 4.28259 17.4967C3.89497 17.8842 4.16875 17.6105 3.78063 17.9986C3.23232 18.5469 2.48866 18.855 1.71325 18.8551C1.29257 18.855 0.884252 18.7666 0.501338 18.5924C0.0720936 18.3967 -0.117661 17.89 0.0775096 17.4605C0.273094 17.031 0.780638 16.8404 1.21032 17.0357C1.37078 17.1087 1.53698 17.1451 1.71325 17.1451C2.0351 17.145 2.344 17.0172 2.57165 16.7896C2.95934 16.4019 2.6855 16.6747 3.0736 16.2867C3.6219 15.7386 4.3665 15.4303 5.14196 15.4303C5.91723 15.4304 6.66113 15.7389 7.20935 16.2867C7.59739 16.6746 7.32384 16.4021 7.7113 16.7896C7.93889 17.0172 8.24792 17.1449 8.5697 17.1451C8.89171 17.1451 9.20134 17.0174 9.42907 16.7896C9.81675 16.4019 9.54293 16.6747 9.93103 16.2867C10.4792 15.7388 11.2231 15.4304 11.9984 15.4303C12.7739 15.4303 13.5184 15.7387 14.0668 16.2867C14.4548 16.6746 14.1813 16.4021 14.5687 16.7896C14.7964 17.0172 15.1053 17.145 15.4271 17.1451C15.749 17.1451 16.0578 17.0172 16.2855 16.7896C16.6715 16.4036 16.4012 16.6738 16.7884 16.2867C17.3368 15.7388 18.0806 15.4303 18.8558 15.4303Z" fill="black"/>
<path d="M13.1088 0.252522C13.4426 -0.0813102 13.9838 -0.0811785 14.3177 0.252522C14.6516 0.58642 14.6516 1.12761 14.3177 1.46151L11.9545 3.82576C10.59 5.19025 10.336 7.24734 11.1976 8.86873C11.3921 9.23459 11.6445 9.57926 11.9545 9.88924L15.1742 13.1099C15.5081 13.4438 15.5081 13.985 15.1742 14.3189C14.8403 14.6527 14.299 14.6528 13.9652 14.3189L10.7445 11.0982C10.5889 10.9426 10.444 10.7798 10.309 10.6119L7.46032 13.4625C7.12649 13.796 6.58516 13.796 6.25134 13.4625C5.91757 13.1286 5.91752 12.5864 6.25134 12.2525L9.41735 9.08553C8.55467 6.92622 8.99516 4.36653 10.7445 2.61678L13.1088 0.252522Z" fill="black"/>
<path fill-rule="evenodd" clip-rule="evenodd" d="M17.142 3.43026C19.034 3.43043 20.5685 4.96496 20.5687 6.85701C20.5687 8.74929 19.0341 10.2836 17.142 10.2838C15.2497 10.2837 13.7152 8.74934 13.7152 6.85701C13.7155 4.9649 15.2498 3.43033 17.142 3.43026ZM17.142 5.14119C16.1942 5.14127 15.4264 5.90931 15.4261 6.85701C15.4261 7.80493 16.1941 8.57374 17.142 8.57381C18.0897 8.57364 18.8588 7.80486 18.8588 6.85701C18.8585 5.90939 18.0896 5.14137 17.142 5.14119Z" fill="black"/>
</svg>
