<svg width="24" height="24" viewBox="0 0 24 24" fill="none" xmlns="http://www.w3.org/2000/svg">
<path d="M18.0014 18.4316C18.4732 18.4321 18.8558 18.8143 18.8559 19.2861C18.8562 20.4706 19.8169 21.4316 21.0014 21.4316C21.3315 21.4315 21.6423 21.3571 21.9194 21.2256C22.3458 21.023 22.8564 21.2044 23.059 21.6309C23.2611 22.0571 23.0798 22.5669 22.6537 22.7695C22.152 23.0079 21.5907 23.1415 21.0014 23.1416C19.7891 23.1416 18.7071 22.581 18.0004 21.7061C17.2939 22.5807 16.2133 23.1414 15.0014 23.1416C13.7891 23.1416 12.7071 22.581 12.0004 21.7061C11.2939 22.5807 10.2133 23.1414 9.0014 23.1416C7.78914 23.1416 6.70711 22.581 6.00042 21.7061C5.29388 22.5807 4.21325 23.1414 3.0014 23.1416C2.41195 23.1416 1.84991 23.0079 1.34808 22.7695C0.921973 22.5669 0.740583 22.0572 0.942802 21.6309C1.14545 21.2043 1.65594 21.0229 2.08245 21.2256C2.35963 21.3571 2.67112 21.4316 3.0014 21.4316C4.18553 21.4312 5.14566 20.4703 5.14593 19.2861C5.146 18.814 5.52924 18.4316 6.0014 18.4316C6.47319 18.4321 6.85581 18.8143 6.85589 19.2861C6.85615 20.4706 7.81691 21.4316 9.0014 21.4316C10.1855 21.4312 11.1457 20.4703 11.1459 19.2861C11.146 18.814 11.5292 18.4316 12.0014 18.4316C12.4732 18.4321 12.8558 18.8143 12.8559 19.2861C12.8562 20.4706 13.8169 21.4316 15.0014 21.4316C16.1855 21.4312 17.1457 20.4703 17.1459 19.2861C17.146 18.814 17.5292 18.4316 18.0014 18.4316Z" fill="black"/>
<path fill-rule="evenodd" clip-rule="evenodd" d="M13.7153 0.858398C15.6074 0.858597 17.1419 2.39395 17.142 4.28613V15.4287C17.1418 15.9006 16.7584 16.284 16.2866 16.2842C15.8146 16.2841 15.4323 15.9006 15.4321 15.4287V13.7129H8.57073V15.4287C8.57047 15.9006 8.18713 16.284 7.71526 16.2842C7.24322 16.2842 6.86006 15.9007 6.85979 15.4287V4.28613C6.85972 3.3384 6.09166 2.57059 5.14397 2.57031C4.67193 2.57031 4.28877 2.18682 4.28851 1.71484C4.28851 1.24264 4.67177 0.858398 5.14397 0.858398C7.03606 0.858673 8.57066 2.394 8.57073 4.28613V6.85938H15.4321V4.28613C15.432 3.33836 14.663 2.57051 13.7153 2.57031C13.2432 2.57031 12.8601 2.18682 12.8598 1.71484C12.8598 1.24264 13.2431 0.858398 13.7153 0.858398ZM8.57073 12.0029H15.4321V8.57031H8.57073V12.0029Z" fill="black"/>
</svg>
