<svg width="24" height="24" viewBox="0 0 24 24" fill="none" xmlns="http://www.w3.org/2000/svg">
<path d="M15.252 8.82422C15.5858 8.49034 16.127 8.49039 16.4609 8.82422C16.7947 9.15813 16.7948 9.69935 16.4609 10.0332L15.3496 11.1445H19.2852C19.7574 11.1445 20.1406 11.5278 20.1406 12C20.1406 12.4722 19.7574 12.8555 19.2852 12.8555H15.3496L16.4609 13.9668C16.7948 14.3007 16.7948 14.8419 16.4609 15.1758C16.127 15.5097 15.5859 15.5097 15.252 15.1758L12.6807 12.6045C12.5258 12.4497 12.4297 12.2361 12.4297 12C12.4297 11.7639 12.5258 11.5503 12.6807 11.3955L15.252 8.82422Z" fill="black"/>
<path fill-rule="evenodd" clip-rule="evenodd" d="M21.4277 2.57324C22.8466 2.57324 23.9968 3.72379 23.9971 5.14258V18.8574C23.9969 20.2762 22.8466 21.4268 21.4277 21.4268H2.57031C1.15177 21.4264 0.00118438 20.276 0.000976562 18.8574V5.14258C0.00120116 3.72401 1.15178 2.5736 2.57031 2.57324H21.4277ZM2.57031 4.28418C2.09618 4.28454 1.71214 4.66842 1.71191 5.14258V18.8574C1.71212 19.3316 2.09617 19.7164 2.57031 19.7168H4.45801V4.28418H2.57031ZM6.16895 19.7168H8.91406V4.28418H6.16895V19.7168ZM10.625 19.7168H21.4277C21.9022 19.7168 22.2869 19.3318 22.2871 18.8574V5.14258C22.2869 4.6682 21.9022 4.28418 21.4277 4.28418H10.625V19.7168Z" fill="black"/>
</svg>
