<svg width="24" height="24" viewBox="0 0 24 24" fill="none" xmlns="http://www.w3.org/2000/svg">
<path d="M16.1104 8.82422C16.4443 8.49044 16.9855 8.49036 17.3193 8.82422L19.8906 11.3955L19.9492 11.46C19.9576 11.4703 19.9648 11.4816 19.9727 11.4922C20.078 11.6344 20.1416 11.8096 20.1416 12C20.1416 12.1901 20.0777 12.3648 19.9727 12.5068C19.9477 12.5406 19.9212 12.5739 19.8906 12.6045L17.3193 15.1758C16.9855 15.5096 16.4443 15.5094 16.1104 15.1758C15.7765 14.8419 15.7765 14.3007 16.1104 13.9668L17.2217 12.8555H13.2861C12.8139 12.8555 12.4307 12.4722 12.4307 12C12.4307 11.5278 12.8139 11.1445 13.2861 11.1445H17.2217L16.1104 10.0332C15.7765 9.6993 15.7765 9.15812 16.1104 8.82422Z" fill="black"/>
<path fill-rule="evenodd" clip-rule="evenodd" d="M12 0.00195312C12.8204 0.00196956 13.6229 0.0848053 14.3984 0.242188C16.1724 0.602323 17.8045 1.35384 19.1992 2.40137C22.1113 4.58878 23.998 8.07436 23.998 12C23.998 15.9257 22.1114 19.4112 19.1992 21.5986C17.8045 22.6462 16.1725 23.3977 14.3984 23.7578C13.6229 23.9152 12.8204 23.998 12 23.998C11.1932 23.998 10.4041 23.917 9.64062 23.7646C9.61682 23.761 9.59343 23.7565 9.57031 23.751C7.80829 23.3884 6.18733 22.6401 4.80078 21.5986C4.7966 21.5955 4.79226 21.592 4.78809 21.5889C4.78023 21.5827 4.77228 21.5767 4.76465 21.5703C1.87337 19.3812 0.00203103 15.9092 0.00195312 12C0.00204226 8.09061 1.87309 4.61775 4.76465 2.42871C4.77228 2.42232 4.78023 2.41629 4.78809 2.41016C4.79218 2.40707 4.79668 2.40445 4.80078 2.40137C6.1892 1.35849 7.81235 0.609117 9.57715 0.24707C9.59166 0.243721 9.60631 0.240881 9.62109 0.238281C10.3906 0.0834185 11.1864 0.0019717 12 0.00195312ZM12 1.71289C11.5338 1.7129 11.0752 1.74598 10.626 1.80566V22.1934C11.0752 22.2533 11.5338 22.2881 12 22.2881C12.7056 22.2881 13.3943 22.2169 14.0586 22.082C15.5776 21.7737 16.9763 21.1302 18.1729 20.2314C20.6733 18.3531 22.288 15.365 22.2881 12C22.288 8.63502 20.6733 5.6469 18.1729 3.76855C16.9763 2.86981 15.5776 2.22633 14.0586 1.91797C13.3943 1.78315 12.7056 1.71291 12 1.71289ZM8.91504 2.18262C7.92742 2.49268 7.00386 2.94789 6.16895 3.52344V20.4746C7.00392 21.0503 7.9273 21.5053 8.91504 21.8154V2.18262ZM4.45801 5.00391C2.7538 6.8403 1.71296 9.29847 1.71289 12C1.71295 14.7014 2.75397 17.1588 4.45801 18.9951V5.00391Z" fill="black"/>
</svg>
