<svg width="24" height="24" viewBox="0 0 24 24" fill="none" xmlns="http://www.w3.org/2000/svg">
<path d="M15.252 8.82422C15.5858 8.49034 16.127 8.49039 16.4609 8.82422C16.7947 9.15813 16.7948 9.69935 16.4609 10.0332L15.3496 11.1445H19.2852C19.7574 11.1445 20.1406 11.5278 20.1406 12C20.1406 12.4722 19.7574 12.8555 19.2852 12.8555H15.3496L16.4609 13.9668C16.7948 14.3007 16.7948 14.8419 16.4609 15.1758C16.127 15.5097 15.5859 15.5097 15.252 15.1758L12.6807 12.6045C12.5258 12.4497 12.4297 12.2361 12.4297 12C12.4297 11.7639 12.5258 11.5503 12.6807 11.3955L15.252 8.82422Z" fill="black"/>
<path fill-rule="evenodd" clip-rule="evenodd" d="M11.999 0.00195312C12.8194 0.00195312 13.6219 0.0848143 14.3975 0.242188C16.1716 0.602297 17.8035 1.3538 19.1982 2.40137C22.1105 4.58876 23.997 8.07424 23.9971 12C23.997 15.9257 22.1104 19.4112 19.1982 21.5986C17.8035 22.6462 16.1715 23.3977 14.3975 23.7578C13.6219 23.9152 12.8194 23.998 11.999 23.998C11.1904 23.998 10.3999 23.9167 9.63477 23.7637C9.61526 23.7606 9.59619 23.7563 9.57715 23.752C7.81222 23.3899 6.18831 22.6416 4.7998 21.5986C4.79574 21.5956 4.79214 21.5919 4.78809 21.5889C4.77966 21.5823 4.77087 21.5762 4.7627 21.5693C1.87221 19.3802 0.00105445 15.9085 0.000976562 12C0.00106568 8.09124 1.87194 4.61879 4.7627 2.42969C4.76464 2.42805 4.76659 2.42642 4.76855 2.4248L4.7998 2.40137C6.18969 1.35739 7.81507 0.606735 9.58203 0.245117C9.59333 0.242588 9.60475 0.240358 9.61621 0.238281C10.387 0.0828814 11.184 0.00198803 11.999 0.00195312ZM11.999 1.71289C11.5327 1.71291 11.0743 1.74595 10.625 1.80566V22.1934C11.0743 22.2534 11.5327 22.2881 11.999 22.2881C12.7046 22.2881 13.3933 22.2168 14.0576 22.082C15.5766 21.7737 16.9753 21.1301 18.1719 20.2314C20.6723 18.3531 22.287 15.365 22.2871 12C22.287 8.6349 20.6725 5.64689 18.1719 3.76855C16.9752 2.86977 15.5767 2.22631 14.0576 1.91797C13.3933 1.78315 12.7046 1.71289 11.999 1.71289ZM8.91406 2.18262C7.92692 2.49258 7.00352 2.94725 6.16895 3.52246V20.4756C7.00359 21.051 7.9268 21.5054 8.91406 21.8154V2.18262ZM4.45801 5.00293C2.75338 6.83941 1.71199 9.29809 1.71191 12C1.71198 14.7017 2.75354 17.1597 4.45801 18.9961V5.00293Z" fill="black"/>
</svg>
