<svg width="24" height="24" viewBox="0 0 24 24" fill="none" xmlns="http://www.w3.org/2000/svg">
<path fill-rule="evenodd" clip-rule="evenodd" d="M12.0007 18.002C13.4193 18.0022 14.5698 19.1526 14.57 20.5713C14.5699 21.99 13.4194 23.1404 12.0007 23.1406C10.582 23.1404 9.43149 21.99 9.43136 20.5713C9.43158 19.1526 10.582 18.0022 12.0007 18.002ZM12.0007 19.7129C11.5265 19.7131 11.1425 20.0971 11.1423 20.5713C11.1424 21.0456 11.5264 21.4304 12.0007 21.4307C12.475 21.4304 12.8599 21.0456 12.8601 20.5713C12.8598 20.097 12.4749 19.7131 12.0007 19.7129Z" fill="black"/>
<path d="M6.85714 19.7158C7.32926 19.7158 7.71248 20.0992 7.71261 20.5713C7.71261 21.0435 7.32934 21.4268 6.85714 21.4268H5.14327C4.67111 21.4267 4.2878 21.0435 4.2878 20.5713C4.28793 20.0992 4.67119 19.7159 5.14327 19.7158H6.85714Z" fill="black"/>
<path d="M18.8581 19.7158C19.3301 19.716 19.7135 20.0993 19.7136 20.5713C19.7136 21.0434 19.3301 21.4265 18.8581 21.4268H17.1442C16.672 21.4268 16.2888 21.0435 16.2888 20.5713C16.2889 20.0992 16.6721 19.7158 17.1442 19.7158H18.8581Z" fill="black"/>
<path d="M6.54757 15.1182C6.88147 14.7843 7.42363 14.7843 7.75753 15.1182L8.96944 16.3301C9.30311 16.664 9.30326 17.2062 8.96944 17.54C8.63562 17.8738 8.09339 17.8737 7.75948 17.54L6.54757 16.3281C6.21368 15.9942 6.21371 15.4521 6.54757 15.1182Z" fill="black"/>
<path d="M16.2439 15.1182C16.5778 14.7843 17.1199 14.7843 17.4538 15.1182C17.7876 15.4521 17.7877 15.9943 17.4538 16.3281L16.2419 17.54C15.908 17.8737 15.3658 17.8738 15.0319 17.54C14.6981 17.2062 14.6982 16.664 15.0319 16.3301L16.2439 15.1182Z" fill="black"/>
<path d="M12.0007 12.8594C12.4728 12.8595 12.8562 13.2427 12.8562 13.7148V15.4287C12.8559 15.9006 12.4727 16.2841 12.0007 16.2842C11.5287 16.2842 11.1455 15.9007 11.1452 15.4287V13.7148C11.1452 13.2426 11.5285 12.8594 12.0007 12.8594Z" fill="black"/>
<path d="M18.0007 6.92969C18.4726 6.92991 18.856 7.3132 18.8562 7.78516C18.8562 8.96972 19.8162 9.92954 21.0007 9.92969C21.601 9.92958 22.1428 9.68436 22.5329 9.28613C22.8633 8.94928 23.4047 8.94345 23.7419 9.27344C24.079 9.60379 24.0847 10.1461 23.7546 10.4834C23.056 11.1964 22.0789 11.6405 21.0007 11.6406C19.7885 11.6405 18.7073 11.08 18.0007 10.2051C17.2941 11.0799 16.2128 11.6405 15.0007 11.6406C13.7885 11.6405 12.7073 11.08 12.0007 10.2051C11.2941 11.0799 10.2128 11.6405 9.00069 11.6406C7.78845 11.6405 6.70732 11.08 6.00069 10.2051C5.29408 11.0799 4.21278 11.6405 3.00069 11.6406C1.92256 11.6405 0.946402 11.1962 0.247764 10.4834C-0.0826988 10.1461 -0.0778165 9.6039 0.259482 9.27344C0.596721 8.94348 1.13812 8.94924 1.46847 9.28613C1.85868 9.68438 2.40046 9.92961 3.00069 9.92969C4.18516 9.92947 5.1462 8.96967 5.1462 7.78516C5.14633 7.31316 5.5287 6.92984 6.00069 6.92969C6.47263 6.92991 6.85603 7.3132 6.85616 7.78516C6.85616 8.96972 7.81617 9.92954 9.00069 9.92969C10.1852 9.92947 11.1462 8.96967 11.1462 7.78516C11.1463 7.31316 11.5287 6.92984 12.0007 6.92969C12.4726 6.92991 12.856 7.3132 12.8562 7.78516C12.8562 8.96972 13.8162 9.92954 15.0007 9.92969C16.1852 9.92947 17.1462 8.96967 17.1462 7.78516C17.1463 7.31316 17.5287 6.92984 18.0007 6.92969Z" fill="black"/>
<path d="M18.0007 0.929688C18.4726 0.929908 18.856 1.3132 18.8562 1.78516C18.8562 2.96972 19.8162 3.92954 21.0007 3.92969C21.601 3.92958 22.1428 3.68436 22.5329 3.28613C22.8633 2.94928 23.4047 2.94345 23.7419 3.27344C24.079 3.60379 24.0847 4.14609 23.7546 4.4834C23.056 5.19641 22.0789 5.64051 21.0007 5.64062C19.7885 5.64054 18.7073 5.08004 18.0007 4.20508C17.2941 5.07989 16.2128 5.6405 15.0007 5.64062C13.7885 5.64054 12.7073 5.08004 12.0007 4.20508C11.2941 5.07989 10.2128 5.6405 9.00069 5.64062C7.78845 5.64054 6.70732 5.08004 6.00069 4.20508C5.29408 5.07989 4.21278 5.6405 3.00069 5.64062C1.92256 5.64055 0.946402 5.19625 0.247764 4.4834C-0.0826988 4.1461 -0.0778165 3.6039 0.259482 3.27344C0.596721 2.94348 1.13812 2.94924 1.46847 3.28613C1.85868 3.68438 2.40046 3.92961 3.00069 3.92969C4.18516 3.92947 5.1462 2.96967 5.1462 1.78516C5.14633 1.31316 5.5287 0.929838 6.00069 0.929688C6.47263 0.929908 6.85603 1.3132 6.85616 1.78516C6.85616 2.96972 7.81617 3.92954 9.00069 3.92969C10.1852 3.92947 11.1462 2.96967 11.1462 1.78516C11.1463 1.31316 11.5287 0.929838 12.0007 0.929688C12.4726 0.929908 12.856 1.3132 12.8562 1.78516C12.8562 2.96972 13.8162 3.92954 15.0007 3.92969C16.1852 3.92947 17.1462 2.96967 17.1462 1.78516C17.1463 1.31316 17.5287 0.929838 18.0007 0.929688Z" fill="black"/>
</svg>
