<svg width="24" height="24" viewBox="0 0 24 24" fill="none" xmlns="http://www.w3.org/2000/svg">
<path d="M7.35742 6.50195C7.82963 6.50195 8.21289 6.88522 8.21289 7.35742V16.6436C8.21266 17.1156 7.82949 17.498 7.35742 17.498C6.88547 17.4979 6.50218 17.1155 6.50195 16.6436V7.35742C6.50195 6.8853 6.88533 6.50209 7.35742 6.50195Z" fill="black"/>
<path fill-rule="evenodd" clip-rule="evenodd" d="M15.1328 7.33203C16.1718 6.73249 17.5043 7.49991 17.501 8.70312C17.4995 9.25071 17.4848 14.7879 17.4863 15.3271C17.4892 16.5297 16.1571 17.2978 15.1182 16.6982C14.6244 16.4131 10.3343 13.57 9.94629 13.3193C8.99765 12.7066 8.99802 11.2954 9.94629 10.6826L12.5039 9.01758C13.6883 8.24809 14.8849 7.47517 15.1328 7.33203ZM15.79 8.93652C14.9187 9.48266 11.897 11.4522 11.0537 12.001C11.8997 12.5561 14.9086 14.5459 15.7764 15.0947C15.7771 14.0019 15.7872 10.0308 15.79 8.93652Z" fill="black"/>
<path fill-rule="evenodd" clip-rule="evenodd" d="M12.001 0.000976562C18.6272 0.000976562 23.9989 5.3739 23.999 12C23.9988 18.6261 18.6271 23.998 12.001 23.998C5.37521 23.9977 0.00319358 18.6259 0.00292969 12C0.00308069 5.37411 5.37513 0.00132548 12.001 0.000976562ZM12.001 1.71289C6.31954 1.71324 1.71402 6.31852 1.71387 12C1.71413 17.6815 6.31961 22.2877 12.001 22.2881C17.6827 22.2881 22.2888 17.6817 22.2891 12C22.2889 6.3183 17.6828 1.71289 12.001 1.71289Z" fill="black"/>
</svg>
