<svg width="24" height="24" viewBox="0 0 24 24" fill="none" xmlns="http://www.w3.org/2000/svg">
<path d="M18.8564 11.1445C19.3285 11.1447 19.7119 11.5279 19.7119 12C19.7119 12.4721 19.3285 12.8553 18.8564 12.8555H17.1426C16.6704 12.8555 16.2871 12.4722 16.2871 12C16.2871 11.5278 16.6704 11.1445 17.1426 11.1445H18.8564Z" fill="black"/>
<path fill-rule="evenodd" clip-rule="evenodd" d="M17.1416 0.858398C17.5957 0.858398 18.0314 1.04033 18.3525 1.36133L18.4668 1.4873C18.716 1.79179 18.8545 2.17507 18.8545 2.57227V7.71582H21.4277C22.109 7.71582 22.7633 7.98689 23.2451 8.46875C23.7266 8.95039 23.997 9.60387 23.9971 10.2852V17.1426C23.9971 17.824 23.7259 18.4772 23.2441 18.959C22.7624 19.4407 22.1091 19.7119 21.4277 19.7119H18.8545V21.4287C18.8544 21.8258 18.7159 22.2093 18.4668 22.5137L18.3525 22.6396C18.0316 22.96 17.5955 23.1416 17.1416 23.1416H6.85645C6.45935 23.1415 6.07589 23.0031 5.77148 22.7539L5.64551 22.6396C5.32462 22.3187 5.14368 21.8826 5.14355 21.4287V19.7119H2.57031C1.88907 19.7118 1.23551 19.4414 0.753906 18.96C0.272021 18.4781 0.000976562 17.8239 0.000976562 17.1426V10.2852C0.00108741 9.60391 0.272218 8.95048 0.753906 8.46875C1.2356 7.98707 1.88908 7.71596 2.57031 7.71582H5.14355V2.57227C5.14355 2.11838 5.32469 1.68237 5.64551 1.36133L5.77148 1.24805C6.07606 0.998484 6.45927 0.858484 6.85645 0.858398H17.1416ZM6.85449 21.4307H17.1436V17.1416H6.85449V21.4307ZM2.57031 9.42676C2.34262 9.4269 2.12392 9.51671 1.96289 9.67773C1.80188 9.83879 1.71202 10.0574 1.71191 10.2852V17.1426C1.71191 17.3704 1.80201 17.589 1.96289 17.75C2.124 17.9111 2.34269 18.0018 2.57031 18.002H5.14355V16.2861C5.14355 15.8141 5.52699 15.4309 5.99902 15.4307H17.999C18.4712 15.4307 18.8545 15.8139 18.8545 16.2861V18.002H21.4277C21.6555 18.002 21.8741 17.9111 22.0352 17.75C22.1963 17.5889 22.2871 17.3704 22.2871 17.1426V10.2852C22.287 10.0575 22.1963 9.83888 22.0352 9.67773C21.8742 9.51685 21.6555 9.42676 21.4277 9.42676H2.57031ZM6.85449 7.71582H17.1436V2.57031H6.85449V7.71582Z" fill="black"/>
</svg>
