<svg width="24" height="24" viewBox="0 0 24 24" fill="none" xmlns="http://www.w3.org/2000/svg">
<path d="M3.82617 10.4023C4.29826 10.4025 4.68164 10.7857 4.68164 11.2578V12.7432C4.68138 13.2151 4.2981 13.5985 3.82617 13.5986C3.35413 13.5986 2.97097 13.2151 2.9707 12.7432V11.2578C2.9707 10.7856 3.35397 10.4023 3.82617 10.4023Z" fill="black"/>
<path d="M6.79883 10.4023C7.27103 10.4023 7.6543 10.7856 7.6543 11.2578V12.7432C7.65403 13.2151 7.27087 13.5986 6.79883 13.5986C6.3269 13.5985 5.94362 13.2151 5.94336 12.7432V11.2578C5.94336 10.7857 6.32674 10.4025 6.79883 10.4023Z" fill="black"/>
<path fill-rule="evenodd" clip-rule="evenodd" d="M15.7129 3.71582C17.8117 3.71591 19.6254 4.93395 20.4883 6.70117C21.3865 6.77615 22.2338 7.16649 22.876 7.80859C23.5933 8.52613 23.9971 9.5 23.9971 10.5146V14.9717C23.9969 15.5921 23.7504 16.1881 23.3115 16.627C22.8726 17.0658 22.2767 17.3124 21.6562 17.3125H21.0273V19.4287C21.0272 19.9008 20.644 20.2832 20.1719 20.2832C19.6998 20.2832 19.3165 19.9008 19.3164 19.4287V17.3125H4.68164V19.4287C4.68151 19.9007 4.29818 20.2831 3.82617 20.2832C3.35405 20.2832 2.97084 19.9008 2.9707 19.4287V17.3125H2.3418C1.72156 17.3124 1.12634 17.0654 0.6875 16.627C0.248648 16.1881 0.00114326 15.5922 0.000976562 14.9717V10.5146C0.000976562 9.49984 0.404513 8.52618 1.12207 7.80859C1.83967 7.091 2.81329 6.6875 3.82812 6.6875H10.9434C11.8089 4.92756 13.6193 3.71586 15.7129 3.71582ZM3.82812 8.39844C3.26681 8.39844 2.72796 8.62067 2.33105 9.01758C1.93418 9.41448 1.71191 9.95337 1.71191 10.5146V14.9717C1.71208 15.1387 1.77838 15.2999 1.89648 15.418C2.01456 15.5356 2.17497 15.6024 2.3418 15.6025H3.80859C3.81436 15.6024 3.82037 15.6016 3.82617 15.6016C3.83205 15.6016 3.8379 15.6024 3.84375 15.6025H20.1543C20.1601 15.6024 20.166 15.6016 20.1719 15.6016C20.1778 15.6016 20.1836 15.6024 20.1895 15.6025H21.6562C21.8234 15.6024 21.9844 15.536 22.1025 15.418C22.2206 15.2999 22.2869 15.1388 22.2871 14.9717V10.5146C22.2871 9.95356 22.0636 9.41446 21.667 9.01758C21.4748 8.82547 21.2489 8.67424 21.0039 8.56934C21.0169 8.72066 21.0254 8.87365 21.0254 9.02832C21.0254 11.9621 18.6466 14.3407 15.7129 14.3408C12.7791 14.3408 10.4004 11.9621 10.4004 9.02832C10.4004 8.81514 10.4141 8.60505 10.4385 8.39844H3.82812ZM15.7129 5.42676C13.7236 5.42682 12.1114 7.039 12.1113 9.02832C12.1113 11.0177 13.7235 12.6308 15.7129 12.6309C17.7022 12.6307 19.3154 11.0177 19.3154 9.02832C19.3154 7.03904 17.7022 5.42689 15.7129 5.42676Z" fill="black"/>
</svg>
