<svg width="24" height="24" viewBox="0 0 24 24" fill="none" xmlns="http://www.w3.org/2000/svg">
<path fill-rule="evenodd" clip-rule="evenodd" d="M12.001 6.85938C14.8399 6.8596 17.1416 9.16198 17.1416 12.001C17.1411 14.8396 14.8396 17.1414 12.001 17.1416C9.16214 17.1416 6.85987 14.8397 6.85938 12.001C6.85938 9.16184 9.16184 6.85938 12.001 6.85938ZM12.001 8.57031C10.1062 8.57031 8.57031 10.1062 8.57031 12.001C8.5708 13.8953 10.1066 15.4316 12.001 15.4316C13.8952 15.4314 15.4312 13.8951 15.4316 12.001C15.4316 10.1064 13.8955 8.57054 12.001 8.57031Z" fill="black"/>
<path fill-rule="evenodd" clip-rule="evenodd" d="M12 0.000976562C18.6262 0.000976562 23.9979 5.3739 23.998 12C23.9978 18.6261 18.6262 23.998 12 23.998C5.37418 23.9978 0.00221702 18.6259 0.00195312 12C0.00210413 5.37407 5.3741 0.0012595 12 0.000976562ZM12 1.71289C6.31851 1.71317 1.71304 6.31848 1.71289 12C1.71315 17.6815 6.31857 22.2878 12 22.2881C17.6817 22.2881 22.2878 17.6817 22.2881 12C22.2879 6.3183 17.6818 1.71289 12 1.71289Z" fill="black"/>
</svg>
