<svg width="24" height="24" viewBox="0 0 24 24" fill="none" xmlns="http://www.w3.org/2000/svg">
<path d="M7.71484 4.28809C8.18682 4.28835 8.57031 4.67151 8.57031 5.14355V6.00098C8.5699 6.47266 8.18657 6.85521 7.71484 6.85547C7.2429 6.85547 6.85979 6.47283 6.85938 6.00098V5.14355C6.85938 4.67135 7.24264 4.28809 7.71484 4.28809Z" fill="black"/>
<path fill-rule="evenodd" clip-rule="evenodd" d="M18 0.000976562C19.4186 0.00124044 20.5691 1.15268 20.5693 2.57129V19.7148C20.5689 21.1333 19.4185 22.2839 18 22.2842H17.998V23.1426C17.998 23.6148 17.6148 23.998 17.1426 23.998C16.6705 23.9979 16.2871 23.6147 16.2871 23.1426V22.2842H7.71289V23.1426C7.71289 23.6147 7.32951 23.9979 6.85742 23.998C6.38522 23.998 6.00195 23.6148 6.00195 23.1426V22.2842H6C4.58149 22.284 3.4301 21.1334 3.42969 19.7148V2.57129C3.42991 1.15264 4.58137 0.00120285 6 0.000976562H18ZM5.1416 19.7148C5.14202 20.1889 5.52588 20.574 6 20.5742H6.83984C6.84561 20.5741 6.85162 20.5732 6.85742 20.5732C6.8633 20.5732 6.86915 20.5741 6.875 20.5742H17.125C17.1309 20.5741 17.1367 20.5732 17.1426 20.5732C17.1484 20.5732 17.1544 20.5741 17.1602 20.5742H18C18.4741 20.574 18.859 20.1889 18.8594 19.7148V11.1416H5.1416V19.7148ZM6 1.71289C5.52577 1.71312 5.14183 2.09705 5.1416 2.57129V9.43066H18.8594V2.57129C18.8591 2.09706 18.4742 1.71315 18 1.71289H6Z" fill="black"/>
</svg>
