<svg width="24" height="24" viewBox="0 0 24 24" fill="none" xmlns="http://www.w3.org/2000/svg">
<path d="M11.998 0.000976562C18.6242 0.000995647 23.9959 5.37391 23.9961 12C23.9958 18.6261 18.6242 23.998 11.998 23.998C6.32401 23.9979 1.57145 20.0596 0.321289 14.7686C0.212761 14.3091 0.497675 13.848 0.957031 13.7393C1.41642 13.6309 1.87675 13.9156 1.98535 14.375C3.05725 18.9119 7.13471 22.288 11.998 22.2881C17.6797 22.2881 22.2859 17.6817 22.2861 12C22.286 6.31831 17.6798 1.71291 11.998 1.71289C8.19024 1.71298 4.86502 3.78198 3.08594 6.85938H5.1416C5.61361 6.8596 5.99609 7.24278 5.99609 7.71484C5.99587 8.18672 5.61347 8.56911 5.1416 8.56934H0.855469C0.383405 8.56934 0.000226126 8.18685 0 7.71484V3.42871C0 2.95651 0.383265 2.57324 0.855469 2.57324C1.32767 2.57324 1.71094 2.95651 1.71094 3.42871V5.82129C3.80913 2.33522 7.63066 0.00106354 11.998 0.000976562Z" fill="black"/>
</svg>
