<svg width="24" height="24" viewBox="0 0 24 24" fill="none" xmlns="http://www.w3.org/2000/svg">
<path fill-rule="evenodd" clip-rule="evenodd" d="M15.7354 7.23145C16.2687 6.94549 16.8465 7.0404 17.2578 7.30566C17.6785 7.57721 17.9993 8.06906 17.9971 8.65039C17.995 9.16335 17.995 14.8239 17.9971 15.3496C17.9993 15.942 17.6706 16.4345 17.2441 16.7021C16.8067 16.9766 16.1831 17.0605 15.6299 16.7061C15.2933 16.4903 13.1255 14.9759 11.7871 14.041C11.7861 14.7166 11.7857 15.2183 11.7861 15.3496C11.7882 15.9307 11.4676 16.4227 11.0469 16.6943C10.6082 16.9774 9.98051 17.066 9.41895 16.7061C8.93665 16.3969 4.90811 13.5694 4.54199 13.3193C3.64714 12.7077 3.63362 11.322 4.54199 10.7012L6.94434 9.01465C8.06029 8.23081 9.18884 7.44146 9.41895 7.29395L9.52148 7.2334C10.0391 6.95522 10.6053 7.03751 11.0146 7.28613C11.4404 7.5449 11.7723 8.02398 11.7861 8.60645C11.7895 8.75005 11.7868 9.27491 11.7871 9.97363L13.1465 9.02051C14.2606 8.23783 15.3901 7.44764 15.6299 7.29395L15.7354 7.23145ZM10.0771 8.91504C9.15178 9.55053 6.40122 11.4886 5.65332 12.0098C6.39602 12.5253 9.14504 14.4493 10.0762 15.085C10.0767 13.9487 10.0832 10.0394 10.0771 8.91504ZM16.2871 8.91602C15.3557 9.55505 12.6101 11.4899 11.8643 12.0098C12.609 12.5266 15.3592 14.4512 16.2871 15.085C16.2857 13.9516 16.2857 10.0481 16.2871 8.91602Z" fill="black"/>
<path fill-rule="evenodd" clip-rule="evenodd" d="M12 0.000976562C15.1819 0.00104124 18.2344 1.26662 20.4844 3.5166C22.734 5.76652 23.998 8.81834 23.998 12C23.9979 15.1819 22.7343 18.2345 20.4844 20.4844C18.2344 22.7343 15.1819 23.998 12 23.998C8.81834 23.998 5.76652 22.734 3.5166 20.4844C1.26668 18.2345 0.00208249 15.1819 0.00195312 12C0.00202712 8.81813 1.26671 5.76656 3.5166 3.5166C5.76657 1.26663 8.81807 0.00105056 12 0.000976562ZM12 1.71289C9.27159 1.71296 6.65487 2.7963 4.72559 4.72559C2.79638 6.65486 1.71296 9.27165 1.71289 12C1.71302 14.7282 2.79653 17.3452 4.72559 19.2744C6.65483 21.2035 9.27176 22.288 12 22.2881C14.7284 22.288 17.3451 21.2036 19.2744 19.2744C21.2036 17.3452 22.288 14.7283 22.2881 12C22.288 9.27176 21.2035 6.65483 19.2744 4.72559C17.3452 2.79647 14.7283 1.71296 12 1.71289Z" fill="black"/>
</svg>
