<svg width="24" height="24" viewBox="0 0 24 24" fill="none" xmlns="http://www.w3.org/2000/svg">
<path d="M6.85645 15.4301C7.32842 15.4303 7.71191 15.8135 7.71191 16.2855V19.7142C7.7118 20.1862 7.32836 20.5685 6.85645 20.5687C6.38431 20.5687 6.00109 20.1864 6.00098 19.7142V16.2855C6.00098 15.8133 6.38424 15.4301 6.85645 15.4301Z" fill="black"/>
<path d="M11.999 15.4301C12.4711 15.4302 12.8545 15.8134 12.8545 16.2855V19.7142C12.8544 20.1863 12.471 20.5686 11.999 20.5687C11.5269 20.5687 11.1437 20.1864 11.1436 19.7142V16.2855C11.1436 15.8133 11.5268 15.4301 11.999 15.4301Z" fill="black"/>
<path d="M17.1416 15.4301C17.6138 15.4301 17.9971 15.8133 17.9971 16.2855V19.7142C17.997 20.1864 17.6137 20.5687 17.1416 20.5687C16.6696 20.5686 16.2862 20.1863 16.2861 19.7142V16.2855C16.2861 15.8134 16.6695 15.4302 17.1416 15.4301Z" fill="black"/>
<path fill-rule="evenodd" clip-rule="evenodd" d="M17.7129 8.32753C19.7495 8.32794 21.4027 9.96963 21.4238 12.0014H21.4277C21.8998 12.0015 22.2822 12.3847 22.2822 12.8568V21.4281C22.2822 22.8471 21.1318 23.9974 19.7129 23.9974H4.28418C2.86542 23.9972 1.71488 22.8469 1.71484 21.4281V12.8568C1.71484 12.3846 2.09811 12.0014 2.57031 12.0014H2.57324C2.59443 9.96938 4.24818 8.32753 6.28516 8.32753C7.43395 8.32769 8.46078 8.85039 9.1416 9.6703C9.82267 8.84997 10.8508 8.3276 12 8.32753C13.1483 8.32761 14.1746 8.85011 14.8555 9.66932C15.5366 8.84975 16.5643 8.32753 17.7129 8.32753ZM3.42578 21.4281C3.42582 21.9025 3.80982 22.2873 4.28418 22.2875H19.7129C20.1874 22.2875 20.5722 21.9027 20.5723 21.4281V13.7123H3.42578V21.4281ZM6.28516 10.0385C5.19261 10.0385 4.30621 10.9138 4.28516 12.0014H8.28516C8.26411 10.914 7.37747 10.0387 6.28516 10.0385ZM12 10.0385C10.9076 10.0386 10.021 10.9139 10 12.0014H14C13.9789 10.9139 13.0924 10.0386 12 10.0385ZM17.7129 10.0385C16.6203 10.0385 15.733 10.9138 15.7119 12.0014H19.7129C19.6918 10.9141 18.8051 10.0389 17.7129 10.0385Z" fill="black"/>
<path d="M4.53711 0.252332C4.87098 -0.0815364 5.41219 -0.0814766 5.74609 0.252332C6.43901 0.945248 6.85279 1.58283 6.96289 2.24257C7.07747 2.93003 6.82929 3.46482 6.65625 3.81093C6.46221 4.19902 6.37512 4.35171 6.35449 4.558C6.33935 4.70965 6.35746 4.99698 6.70996 5.52577C6.97178 5.91866 6.86551 6.44942 6.47266 6.71132C6.07982 6.97275 5.54891 6.86671 5.28711 6.47401C4.78277 5.71743 4.58727 5.03985 4.65234 4.38807C4.71202 3.79121 4.99965 3.30081 5.12695 3.04628C5.27531 2.74955 5.29571 2.6399 5.27637 2.52382C5.2523 2.37998 5.12936 2.05357 4.53711 1.46132C4.20335 1.12746 4.2034 0.586213 4.53711 0.252332Z" fill="black"/>
<path d="M10.5371 0.252332C10.871 -0.0815364 11.4122 -0.0814766 11.7461 0.252332C12.439 0.945248 12.8528 1.58283 12.9629 2.24257C13.0775 2.93003 12.8293 3.46482 12.6562 3.81093C12.4622 4.19902 12.3751 4.35171 12.3545 4.558C12.3393 4.70965 12.3575 4.99698 12.71 5.52577C12.9718 5.91866 12.8655 6.44942 12.4727 6.71132C12.0798 6.97275 11.5489 6.86671 11.2871 6.47401C10.7828 5.71743 10.5873 5.03985 10.6523 4.38807C10.712 3.79121 10.9996 3.30081 11.127 3.04628C11.2753 2.74955 11.2957 2.6399 11.2764 2.52382C11.2523 2.37998 11.1294 2.05357 10.5371 1.46132C10.2034 1.12746 10.2034 0.586213 10.5371 0.252332Z" fill="black"/>
<path d="M16.5371 0.252332C16.871 -0.0815364 17.4122 -0.0814766 17.7461 0.252332C18.439 0.945248 18.8528 1.58283 18.9629 2.24257C19.0775 2.93003 18.8293 3.46482 18.6562 3.81093C18.4622 4.19902 18.3751 4.35171 18.3545 4.558C18.3393 4.70965 18.3575 4.99698 18.71 5.52577C18.9718 5.91866 18.8655 6.44942 18.4727 6.71132C18.0798 6.97275 17.5489 6.86671 17.2871 6.47401C16.7828 5.71743 16.5873 5.03985 16.6523 4.38807C16.712 3.79121 16.9996 3.30081 17.127 3.04628C17.2753 2.74955 17.2957 2.6399 17.2764 2.52382C17.2523 2.37998 17.1294 2.05357 16.5371 1.46132C16.2034 1.12746 16.2034 0.586213 16.5371 0.252332Z" fill="black"/>
</svg>
