<svg width="24" height="24" viewBox="0 0 24 24" fill="none" xmlns="http://www.w3.org/2000/svg">
<path fill-rule="evenodd" clip-rule="evenodd" d="M17.999 15.8281C18.4531 15.8281 18.8889 16.009 19.21 16.3301C19.2777 16.3979 19.3377 16.4717 19.3926 16.5488C19.4675 16.6541 19.5318 16.7661 19.5811 16.8848C19.6237 16.9879 19.6568 17.0951 19.6787 17.2051C19.7007 17.3147 19.7119 17.4276 19.7119 17.541C19.7119 17.6543 19.7007 17.7665 19.6787 17.876C19.613 18.2049 19.4506 18.5102 19.21 18.751C19.0973 18.8636 18.9698 18.9578 18.833 19.0342C18.7749 19.0666 18.7156 19.0966 18.6543 19.1221C18.4486 19.2073 18.2259 19.2529 17.999 19.2529C17.9951 19.2529 17.9912 19.252 17.9873 19.252C17.5379 19.2487 17.1072 19.0689 16.7891 18.751C16.4683 18.4301 16.2873 17.9947 16.2871 17.541C16.2871 17.087 16.468 16.6512 16.7891 16.3301C17.0889 16.0302 17.4887 15.8542 17.9102 15.832H17.9121L17.999 15.8281ZM17.998 17.542H18.001V17.5391H17.998V17.542Z" fill="black"/>
<path fill-rule="evenodd" clip-rule="evenodd" d="M18.3555 11.085C18.7011 11.086 19.0384 11.1917 19.3232 11.3877C19.6078 11.5836 19.8266 11.861 19.9512 12.1826L20.2129 12.8574L20.9492 13.2812L21.6709 13.1719L21.6846 13.1699C22.0218 13.1242 22.3652 13.1793 22.6709 13.3291C22.9387 13.4602 23.167 13.6585 23.334 13.9033L23.4014 14.0117L23.4033 14.0156L23.7432 14.6094C23.9187 14.9082 24.0001 15.254 23.9756 15.6006C23.9511 15.9443 23.8228 16.2731 23.6084 16.5439L23.6094 16.5449L23.1631 17.1123V17.9629L23.6201 18.5303L23.623 18.5342C23.8391 18.8053 23.9687 19.1361 23.9932 19.4824L23.9971 19.6123C23.9956 19.9107 23.915 20.2043 23.7646 20.4639L23.7656 20.4648L23.4209 21.0684L23.4189 21.0723C23.2484 21.3669 22.9931 21.6033 22.6875 21.7529C22.3816 21.9028 22.0388 21.9587 21.7021 21.9131L21.6885 21.9121L20.9658 21.8008L20.2295 22.2246L19.9688 22.9004C19.8441 23.2225 19.6248 23.5004 19.3398 23.6963L19.3389 23.6953C19.0544 23.8907 18.7175 23.997 18.3721 23.998H17.6436C17.2977 23.997 16.9595 23.8912 16.6748 23.6953C16.3907 23.4997 16.1715 23.2226 16.0469 22.9004L15.7852 22.2246L15.0488 21.8008L14.3281 21.9111L14.3135 21.9141C13.9768 21.9596 13.6331 21.9039 13.3271 21.7539C13.0217 21.6041 12.7679 21.3662 12.5977 21.0723L12.5947 21.0684L12.25 20.4648L12.251 20.4639C12.079 20.1671 11.9994 19.8256 12.0234 19.4834C12.0479 19.1374 12.1763 18.8057 12.3926 18.5342L12.8359 17.9688V17.1191L12.3789 16.5527L12.376 16.5488C12.1598 16.2775 12.0304 15.9468 12.0059 15.6006C11.9814 15.2545 12.0624 14.9086 12.2383 14.6094L12.5781 14.0156L12.5801 14.0107C12.7505 13.7164 13.0051 13.4788 13.3105 13.3291C13.5779 13.1981 13.8743 13.1393 14.1699 13.1572L14.2969 13.1699L14.3105 13.1719L15.0342 13.2822L15.7861 12.8555L16.0469 12.1826C16.1714 11.8607 16.3906 11.5834 16.6748 11.3877C16.9597 11.1916 17.2978 11.086 17.6436 11.085H18.3555ZM17.6445 12.7969C17.6437 12.7976 17.643 12.7988 17.6426 12.7998L17.6416 12.8008L17.2715 13.7578C17.2002 13.9412 17.0676 14.0952 16.8965 14.1924L15.6211 14.916C15.4541 15.0107 15.2591 15.0465 15.0693 15.0176L14.0654 14.8643L14.0625 14.8652C14.0615 14.8659 14.0601 14.8672 14.0596 14.8682L13.7178 15.4668L13.7119 15.4766V15.4824L14.3564 16.2812C14.4788 16.4332 14.5459 16.6233 14.5459 16.8184V18.2656C14.5458 18.4569 14.4814 18.6435 14.3633 18.7939L13.7344 19.5947L13.7305 19.5996C13.7298 19.6005 13.7286 19.6023 13.7285 19.6035L13.7295 19.6074L13.7354 19.6162L14.0781 20.2158L14.0801 20.2178C14.0807 20.218 14.0819 20.2188 14.083 20.2188L15.0869 20.0664L15.2305 20.0566C15.3743 20.0591 15.5165 20.0974 15.6426 20.1699L16.9004 20.8936L17.0195 20.9766C17.1312 21.0692 17.2185 21.1894 17.2715 21.3262L17.6416 22.2832L17.6426 22.2842C17.6429 22.285 17.6435 22.2864 17.6445 22.2871C17.6456 22.2878 17.6472 22.2881 17.6484 22.2881H18.3672C18.3682 22.2881 18.3699 22.2878 18.3711 22.2871L18.374 22.2832L18.7441 21.3262C18.8147 21.144 18.9459 20.991 19.1152 20.8936L20.374 20.1699L20.5039 20.1094C20.6389 20.0596 20.785 20.0445 20.9287 20.0664L21.9326 20.2188C21.9338 20.2188 21.9349 20.2189 21.9355 20.2188L21.9385 20.2158L22.2812 19.6162L22.2861 19.6074C22.2866 19.6066 22.2871 19.6048 22.2871 19.6035L22.2861 19.6006L21.6426 18.8027C21.5201 18.6508 21.4532 18.4607 21.4531 18.2656V16.8184C21.4531 16.6271 21.5177 16.4406 21.6357 16.29L22.2646 15.4883L22.2686 15.4834C22.2691 15.4828 22.2694 15.481 22.2695 15.4795C22.2695 15.4787 22.2692 15.4769 22.2686 15.4756L22.2637 15.4668L21.9209 14.8672L21.9189 14.8652C21.9179 14.8648 21.9154 14.8641 21.9141 14.8643L20.9121 15.0176C20.7206 15.0467 20.5243 15.0096 20.3564 14.9131L19.0986 14.1895C18.9295 14.0921 18.7982 13.9397 18.7275 13.7578L18.3564 12.8008C18.3558 12.7993 18.3544 12.7975 18.3535 12.7969L18.3496 12.7959H17.6484L17.6445 12.7969Z" fill="black"/>
<path fill-rule="evenodd" clip-rule="evenodd" d="M10.2852 0.000976562C12.9664 0.000991031 15.4327 0.419783 17.2598 1.12402C18.1704 1.47505 18.9662 1.91433 19.5488 2.44531C20.1317 2.97661 20.5693 3.66756 20.5693 4.49219V8.57227C20.569 9.04417 20.1858 9.42669 19.7139 9.42676C19.2419 9.42676 18.8587 9.04421 18.8584 8.57227V7.0625C18.3914 7.36519 17.8501 7.63181 17.2598 7.85938C15.4328 8.56355 12.9663 8.98143 10.2852 8.98145C7.60394 8.98143 5.13757 8.56359 3.31055 7.85938C2.72007 7.63177 2.17897 7.36523 1.71191 7.0625V10.2861L1.71582 10.3516C1.73491 10.5131 1.82819 10.7296 2.09863 10.9971C2.41068 11.3056 2.9075 11.6274 3.5957 11.9238C4.96845 12.515 6.93905 12.9379 9.20801 13.041C9.67942 13.0626 10.0446 13.4622 10.0234 13.9336C10.0017 14.4051 9.60143 14.7705 9.12988 14.749C6.71805 14.6394 4.532 14.1888 2.91895 13.4941C2.48184 13.3059 2.07545 13.0928 1.71191 12.8574V16.0811C1.71216 16.2493 1.79097 16.4923 2.10742 16.8018C2.42719 17.1144 2.93633 17.4383 3.63867 17.7363C5.03946 18.3306 7.04663 18.7512 9.35059 18.8418C9.82233 18.8603 10.1903 19.2578 10.1719 19.7295C10.1531 20.2011 9.75488 20.5693 9.2832 20.5508C6.83499 20.4545 4.61195 20.0068 2.9707 19.3105C2.15224 18.9633 1.43611 18.5367 0.912109 18.0244C0.385659 17.5096 0.00124237 16.853 0.000976562 16.0811V4.49219C0.000976562 3.66755 0.438632 2.97661 1.02148 2.44531C1.60413 1.91433 2.39995 1.47504 3.31055 1.12402C5.13758 0.419798 7.60391 0.000989244 10.2852 0.000976562ZM10.2852 1.71289C7.75938 1.7129 5.51115 2.10868 3.92578 2.71973C3.13039 3.02634 2.54432 3.37045 2.17285 3.70898C1.80212 4.04701 1.71191 4.31352 1.71191 4.49219C1.71224 4.67089 1.80254 4.93687 2.17285 5.27441C2.54438 5.61293 3.13038 5.95708 3.92578 6.26367C5.51114 6.87471 7.7594 7.2705 10.2852 7.27051C12.8109 7.27049 15.0592 6.8747 16.6445 6.26367C17.4397 5.95716 18.025 5.61284 18.3965 5.27441C18.767 4.93677 18.8581 4.67093 18.8584 4.49219C18.8584 4.31347 18.7675 4.04716 18.3965 3.70898C18.025 3.37048 17.4399 3.02631 16.6445 2.71973C15.0592 2.10864 12.811 1.71291 10.2852 1.71289Z" fill="black"/>
</svg>
