<svg width="24" height="24" viewBox="0 0 24 24" fill="none" xmlns="http://www.w3.org/2000/svg">
<path d="M6.08789 15.4346C6.08918 15.4347 6.09051 15.4344 6.0918 15.4346C6.99493 15.4821 7.71289 16.2286 7.71289 17.1436C7.71248 18.0887 6.94538 18.8555 6 18.8555C5.97033 18.8554 5.941 18.8536 5.91211 18.8506C5.90882 18.8502 5.90563 18.849 5.90234 18.8486C5.00269 18.7975 4.28725 18.0548 4.28711 17.1426C4.28711 17.1109 4.28863 17.0796 4.29199 17.0488C4.33931 16.1781 5.03641 15.4816 5.90723 15.4346C5.93788 15.4312 5.96945 15.4307 6.00098 15.4307L6.08789 15.4346Z" fill="black"/>
<path d="M18.8574 16.2881C19.3296 16.2881 19.7129 16.6714 19.7129 17.1436C19.7126 17.6155 19.3295 17.999 18.8574 17.999H12.8574C12.3855 17.9989 12.0022 17.6155 12.002 17.1436C12.002 16.6714 12.3853 16.2882 12.8574 16.2881H18.8574Z" fill="black"/>
<path d="M6.17578 5.15332C7.03906 5.24113 7.71289 5.97097 7.71289 6.85742C7.71275 7.74374 7.03897 8.47282 6.17578 8.56055L6.00098 8.56934L6 8.56836C5.99674 8.56836 5.99349 8.5684 5.99023 8.56836L5.82617 8.56055C4.99106 8.47593 4.33455 7.79112 4.29199 6.94434C4.28909 6.91575 4.28713 6.88677 4.28711 6.85742C4.28711 6.82592 4.28867 6.79429 4.29199 6.76367C4.34075 5.86167 5.08687 5.14453 6.00098 5.14453L6.17578 5.15332Z" fill="black"/>
<path d="M18.8574 6.00195C19.3296 6.00195 19.7129 6.38522 19.7129 6.85742C19.7126 7.3294 19.3295 7.71289 18.8574 7.71289H12.8574C12.3855 7.71276 12.0022 7.32932 12.002 6.85742C12.002 6.3853 12.3853 6.00209 12.8574 6.00195H18.8574Z" fill="black"/>
<path fill-rule="evenodd" clip-rule="evenodd" d="M20.5723 0.858398C21.991 0.858549 23.1414 2.01004 23.1416 3.42871V10.2861C23.1415 10.9458 22.8902 11.5451 22.4814 12C22.9034 12.4701 23.1415 13.0788 23.1416 13.7139V20.5713C23.1416 21.2526 22.8703 21.906 22.3887 22.3877C21.907 22.8694 21.2536 23.1406 20.5723 23.1406H3.42871C2.74742 23.1405 2.09394 22.8701 1.6123 22.3887C1.1304 21.9068 0.859375 21.2526 0.859375 20.5713V13.7139C0.859478 13.079 1.09672 12.4701 1.51855 12C1.11001 11.5452 0.859498 10.9455 0.859375 10.2861V3.42871C0.859601 2.01007 2.01007 0.858625 3.42871 0.858398H20.5723ZM3.42871 12.8555C3.20098 12.8556 2.98236 12.9454 2.82129 13.1064C2.66024 13.2675 2.57042 13.4861 2.57031 13.7139V20.5713C2.57031 20.7991 2.66037 21.0177 2.82129 21.1787C2.98243 21.3398 3.20105 21.4306 3.42871 21.4307H20.5723C20.8 21.4306 21.0186 21.3398 21.1797 21.1787C21.3407 21.0176 21.4316 20.799 21.4316 20.5713V13.7139C21.4315 13.4862 21.3408 13.2676 21.1797 13.1064C21.0187 12.9455 20.8001 12.8555 20.5723 12.8555H3.42871ZM3.42871 2.57031C2.95448 2.57054 2.57054 2.95448 2.57031 3.42871V10.2861C2.57058 10.7603 2.9545 11.1443 3.42871 11.1445H20.5723C21.0466 11.1444 21.4314 10.7604 21.4316 10.2861V3.42871C21.4314 2.95442 21.0466 2.57046 20.5723 2.57031H3.42871Z" fill="black"/>
</svg>
