<svg width="24" height="24" viewBox="0 0 24 24" fill="none" xmlns="http://www.w3.org/2000/svg">
<path d="M17.1455 19.502C17.7345 19.5039 18.2109 19.9828 18.2109 20.5723C18.2105 21.156 17.7427 21.6288 17.1621 21.6396C17.1555 21.6398 17.1482 21.6416 17.1416 21.6416C16.5885 21.6412 16.1333 21.2203 16.0781 20.6816L16.0723 20.5723L16.0781 20.4629C16.1325 19.9255 16.5849 19.5053 17.1357 19.502H17.1455Z" fill="black"/>
<path d="M17.1523 15.4307C17.6243 15.4309 18.0078 15.8141 18.0078 16.2861V18C18.0075 18.4718 17.6242 18.8552 17.1523 18.8555C16.6803 18.8555 16.2971 18.472 16.2969 18V16.2861C16.2969 15.8139 16.6801 15.4307 17.1523 15.4307Z" fill="black"/>
<path fill-rule="evenodd" clip-rule="evenodd" d="M17.1836 11.0664C17.4932 11.0664 17.7968 11.1476 18.0645 11.2998L18.1768 11.3691L18.1777 11.3701C18.4521 11.5547 18.6684 11.8121 18.8047 12.1123L23.7637 21.209L23.7646 21.2109C23.9163 21.4914 23.9951 21.8059 23.9951 22.124C23.995 22.4353 23.9179 22.7418 23.7725 23.0176L23.7744 23.0186C23.6237 23.3135 23.3938 23.5607 23.1123 23.7334L23.1113 23.7344C22.829 23.9069 22.5039 23.999 22.1729 23.999H12.1094C11.7783 23.9989 11.4533 23.9071 11.1709 23.7344C10.8945 23.5649 10.6693 23.3224 10.5186 23.0352L10.5176 23.0361C10.5165 23.0342 10.5165 23.0313 10.5156 23.0293C10.5136 23.0254 10.5099 23.0215 10.5078 23.0176L10.5088 23.0166C10.3638 22.7414 10.2863 22.4351 10.2861 22.124C10.2861 21.8056 10.3661 21.4911 10.5176 21.2109L10.5215 21.2031L15.5664 12.1045C15.7028 11.8075 15.9186 11.553 16.1904 11.3701C16.4839 11.1729 16.83 11.0665 17.1836 11.0664ZM17.1445 12.7891C17.133 12.7969 17.1234 12.8085 17.1182 12.8213C17.1055 12.8523 17.0905 12.8828 17.0742 12.9121L12.0215 22.0244C12.0053 22.0546 11.9971 22.0896 11.9971 22.124C11.9971 22.1411 11.9988 22.1584 12.0029 22.1748L12.0215 22.2227L12.0312 22.2402C12.0383 22.254 12.049 22.2668 12.0625 22.2754C12.0762 22.2838 12.0932 22.289 12.1094 22.2891H22.1729C22.1889 22.289 22.2049 22.2837 22.2188 22.2754C22.2326 22.2667 22.2438 22.254 22.251 22.2402C22.2539 22.2345 22.2576 22.2284 22.2607 22.2227C22.2768 22.1929 22.285 22.1586 22.2852 22.124C22.2852 22.0902 22.277 22.0567 22.2617 22.0273L17.29 12.9072C17.275 12.8796 17.2619 12.8505 17.25 12.8213C17.2445 12.8079 17.2343 12.7969 17.2227 12.7891C17.2109 12.7813 17.1973 12.7773 17.1836 12.7773C17.1697 12.7775 17.156 12.7813 17.1445 12.7891Z" fill="black"/>
<path fill-rule="evenodd" clip-rule="evenodd" d="M10.2852 0.000976562C12.9662 0.00104175 15.4328 0.419826 17.2598 1.12402C18.1702 1.47501 18.9663 1.91443 19.5488 2.44531C20.1147 2.96128 20.5413 3.62765 20.5654 4.4209C20.5673 4.44425 20.5684 4.46834 20.5684 4.49219V9.00098C20.568 9.47286 20.1849 9.85547 19.7129 9.85547C19.241 9.85534 18.8578 9.47277 18.8574 9.00098V7.06348C18.3906 7.36593 17.8497 7.63194 17.2598 7.85938C15.4328 8.56357 12.9662 8.98138 10.2852 8.98145C7.60415 8.98145 5.13755 8.56348 3.31055 7.85938C2.72044 7.63191 2.17878 7.36597 1.71191 7.06348V10.2861L1.71582 10.3564C1.73807 10.5316 1.84825 10.7724 2.17285 11.0684C2.54439 11.4068 3.13062 11.7521 3.92578 12.0586C5.51113 12.6695 7.75973 13.0654 10.2852 13.0654C10.5631 13.0654 10.839 13.0602 11.1104 13.0508C11.5818 13.035 11.9777 13.4044 11.9941 13.876C12.0102 14.3475 11.6405 14.7432 11.1689 14.7598C10.8778 14.7699 10.5828 14.7754 10.2852 14.7754C7.60412 14.7754 5.13755 14.3574 3.31055 13.6533C2.72038 13.4258 2.17887 13.1597 1.71191 12.8574V16.0811C1.71214 16.2364 1.77851 16.4521 2.03418 16.7266C2.2947 17.006 2.71434 17.3038 3.30566 17.5869C4.48727 18.1526 6.20389 18.5892 8.22656 18.7695C8.69655 18.8118 9.04382 19.2272 9.00195 19.6973C8.9598 20.1672 8.54419 20.5143 8.07422 20.4727C5.91875 20.2804 3.98786 19.8089 2.56738 19.1289C1.85839 18.7894 1.23733 18.379 0.783203 17.8916C0.324833 17.3995 0.00024431 16.7874 0 16.0811V4.49219C0 3.6674 0.438478 2.97665 1.02148 2.44531C1.60419 1.91429 2.39985 1.47506 3.31055 1.12402C5.13758 0.419848 7.60399 0.000976562 10.2852 0.000976562ZM10.2852 1.71289C7.75947 1.71289 5.51116 2.10873 3.92578 2.71973C3.13027 3.02636 2.54437 3.37042 2.17285 3.70898C1.80186 4.04714 1.71191 4.31347 1.71191 4.49219C1.71224 4.67089 1.80254 4.93687 2.17285 5.27441C2.54439 5.61283 3.13062 5.95717 3.92578 6.26367C5.51114 6.8746 7.75964 7.27051 10.2852 7.27051C12.8108 7.27044 15.0593 6.87472 16.6445 6.26367C17.4398 5.9571 18.025 5.61289 18.3965 5.27441C18.7576 4.94529 18.8525 4.68434 18.8574 4.50586V4.4834C18.8546 4.30484 18.7615 4.04182 18.3965 3.70898C18.0251 3.37055 17.4396 3.02626 16.6445 2.71973C15.0593 2.10868 12.8108 1.71296 10.2852 1.71289Z" fill="black"/>
</svg>
