<svg width="24" height="24" viewBox="0 0 24 24" fill="none" xmlns="http://www.w3.org/2000/svg">
<path d="M13.1113 14.8242C13.4452 14.4903 13.9864 14.4904 14.3203 14.8242L17.5732 18.0771L20.8262 14.833C21.1605 14.4996 21.7017 14.5007 22.0352 14.835C22.3684 15.1693 22.3684 15.7105 22.0342 16.0439L18.7822 19.2861L22.0342 22.5381C22.3681 22.872 22.3681 23.4141 22.0342 23.748C21.7003 24.0814 21.1589 24.0817 20.8252 23.748L17.5723 20.4941L14.3193 23.7402C13.9851 24.073 13.4436 24.0722 13.1104 23.7383C12.7771 23.4041 12.7784 22.8628 13.1123 22.5293L16.3633 19.2852L13.1113 16.0332C12.7775 15.6993 12.7775 15.1581 13.1113 14.8242Z" fill="black"/>
<path fill-rule="evenodd" clip-rule="evenodd" d="M10.2871 0.000976562C12.9683 0.000991031 15.4347 0.419819 17.2617 1.12402C18.1724 1.47505 18.9681 1.91431 19.5508 2.44531C20.113 2.95773 20.5378 3.61814 20.5674 4.4043C20.5703 4.43302 20.5713 4.4627 20.5713 4.49219V11.5723C20.571 12.0442 20.1878 12.4268 19.7158 12.4268C19.2439 12.4267 18.8607 12.0442 18.8604 11.5723V7.0625C18.3934 7.36514 17.852 7.63184 17.2617 7.85938C15.4347 8.5635 12.9681 8.98143 10.2871 8.98145C7.60596 8.98141 5.13948 8.56358 3.3125 7.85938C2.72201 7.63176 2.18092 7.36525 1.71387 7.0625V10.2861L1.71777 10.3516C1.73686 10.5131 1.83012 10.7296 2.10059 10.9971C2.4126 11.3056 2.90943 11.6274 3.59766 11.9238C4.97036 12.5149 6.94106 12.9378 9.20996 13.041C9.68137 13.0626 10.0466 13.4622 10.0254 13.9336C10.0037 14.4051 9.60338 14.7705 9.13184 14.749C6.72006 14.6393 4.53391 14.1888 2.9209 13.4941C2.48378 13.3059 2.07741 13.0928 1.71387 12.8574V16.0811C1.71412 16.2493 1.79293 16.4923 2.10938 16.8018C2.42911 17.1144 2.93826 17.4383 3.64062 17.7363C5.04137 18.3306 7.04864 18.7512 9.35254 18.8418C9.82428 18.8603 10.1922 19.2578 10.1738 19.7295C10.155 20.2011 9.75683 20.5693 9.28516 20.5508C6.837 20.4544 4.61386 20.0068 2.97266 19.3105C2.15418 18.9633 1.43804 18.5367 0.914062 18.0244C0.387612 17.5096 0.00319547 16.853 0.00292969 16.0811V4.49219C0.00292969 3.66761 0.440652 2.97659 1.02344 2.44531C1.60604 1.91437 2.40199 1.47503 3.3125 1.12402C5.13948 0.419819 7.60596 0.00101461 10.2871 0.000976562ZM10.2871 1.71289C7.76143 1.71293 5.51305 2.1087 3.92773 2.71973C3.13245 3.02632 2.54624 3.37049 2.1748 3.70898C1.80419 4.04695 1.71387 4.31354 1.71387 4.49219C1.71419 4.67089 1.80449 4.93687 2.1748 5.27441C2.5463 5.61295 3.13232 5.95706 3.92773 6.26367C5.51305 6.8747 7.76143 7.27047 10.2871 7.27051C12.8127 7.27049 15.0611 6.87466 16.6465 6.26367C17.4416 5.9572 18.0269 5.6128 18.3984 5.27441C18.7689 4.93677 18.86 4.67093 18.8604 4.49219C18.8604 4.31344 18.7696 4.04722 18.3984 3.70898C18.0269 3.37047 17.4419 3.02632 16.6465 2.71973C15.0611 2.10867 12.8129 1.71291 10.2871 1.71289Z" fill="black"/>
</svg>
