<svg width="24" height="24" viewBox="0 0 24 24" fill="none" xmlns="http://www.w3.org/2000/svg">
<path d="M17.998 17.5742C18.4703 17.5742 18.8535 17.9575 18.8535 18.4297C18.8538 19.614 19.8137 20.5741 20.998 20.5742C21.5984 20.5742 22.1401 20.3288 22.5303 19.9307C22.8606 19.5935 23.4019 19.5879 23.7393 19.918C24.0763 20.2484 24.0823 20.7907 23.752 21.1279C23.0533 21.8409 22.0763 22.2852 20.998 22.2852C19.7859 22.2851 18.7047 21.7244 17.998 20.8496C17.2914 21.7243 16.2102 22.2852 14.998 22.2852C13.7859 22.2851 12.7047 21.7244 11.998 20.8496C11.2914 21.7243 10.2102 22.2852 8.99805 22.2852C7.78592 22.2851 6.70468 21.7244 5.99805 20.8496C5.29135 21.7243 4.21016 22.2852 2.99805 22.2852C1.92 22.2851 0.943744 21.8407 0.245117 21.1279C-0.0852656 20.7907 -0.0802213 20.2485 0.256836 19.918C0.594052 19.5877 1.13536 19.5937 1.46582 19.9307C1.85602 20.3288 2.3979 20.5741 2.99805 20.5742C4.18254 20.5742 5.14329 19.6141 5.14355 18.4297C5.14355 17.9576 5.52597 17.5744 5.99805 17.5742C6.47025 17.5742 6.85352 17.9575 6.85352 18.4297C6.85378 19.614 7.81368 20.5741 8.99805 20.5742C10.1825 20.5742 11.1433 19.6141 11.1436 18.4297C11.1436 17.9576 11.526 17.5744 11.998 17.5742C12.4703 17.5742 12.8535 17.9575 12.8535 18.4297C12.8538 19.614 13.8137 20.5741 14.998 20.5742C16.1825 20.5742 17.1433 19.6141 17.1436 18.4297C17.1436 17.9576 17.526 17.5744 17.998 17.5742Z" fill="black"/>
<path d="M13.8643 12.2861C14.1167 11.8871 14.6449 11.7681 15.0439 12.0205C16.1653 12.7301 16.7916 14.0965 17.0098 14.9492C17.1264 15.4064 16.8506 15.8731 16.3936 15.9902C15.9363 16.1072 15.4708 15.8302 15.3535 15.373C15.1861 14.719 14.725 13.8426 14.1299 13.4658C13.7309 13.2134 13.612 12.6852 13.8643 12.2861Z" fill="black"/>
<path fill-rule="evenodd" clip-rule="evenodd" d="M8.57031 0.858398C9.04221 0.858756 9.4248 1.24286 9.4248 1.71484V9.14355C10.2404 9.27354 11.1966 9.55669 12.0615 9.89746C12.5009 10.0706 12.7171 10.5675 12.5439 11.0068C12.3706 11.4457 11.8737 11.6613 11.4346 11.4883C10.7214 11.2073 10.0075 10.9954 9.4248 10.8789V13.7148C9.42454 14.1866 9.04205 14.57 8.57031 14.5703H4.28418C3.81214 14.5703 3.42898 14.1868 3.42871 13.7148V11.999H0.855469C0.383428 11.999 0.000264101 11.6155 0 11.1436C0 10.6714 0.383265 10.2881 0.855469 10.2881H3.42871V5.1416H0.855469C0.383265 5.1416 0 4.75834 0 4.28613C0 3.81393 0.383265 3.43066 0.855469 3.43066H3.42871V1.71484C3.42871 1.24264 3.81198 0.858398 4.28418 0.858398H8.57031ZM5.13965 12.8594H7.71484V2.57031H5.13965V12.8594Z" fill="black"/>
<path d="M16.7656 8.61035C17.0542 8.2366 17.5911 8.16754 17.9648 8.45605C18.2934 8.70963 18.7332 9.07866 19.1504 9.50781C19.5586 9.92775 19.9911 10.4517 20.252 11.0186C20.449 11.4474 20.2618 11.956 19.833 12.1533C19.4042 12.3503 18.8956 12.162 18.6982 11.7334C18.556 11.4244 18.2787 11.0633 17.9248 10.6992C17.5797 10.3442 17.2048 10.0294 16.9199 9.80957C16.5463 9.52114 16.4775 8.98412 16.7656 8.61035Z" fill="black"/>
<path d="M10.8701 5.97363C10.989 5.51673 11.4552 5.24265 11.9121 5.36133C12.8354 5.60143 13.9454 5.98877 14.9189 6.47559C15.3408 6.68689 15.5117 7.19995 15.3008 7.62207C15.0897 8.04423 14.5765 8.21563 14.1543 8.00488C13.3056 7.58049 12.3114 7.2312 11.4824 7.01562C11.0255 6.89681 10.7514 6.43057 10.8701 5.97363Z" fill="black"/>
</svg>
