<svg width="24" height="24" viewBox="0 0 24 24" fill="none" xmlns="http://www.w3.org/2000/svg">
<path fill-rule="evenodd" clip-rule="evenodd" d="M12.5059 5.05172C12.7418 4.78706 13.1168 4.69511 13.4482 4.82126C13.7797 4.94748 13.9988 5.26546 13.999 5.62008V9.17868H17.1445C17.4809 9.17894 17.7859 9.3768 17.9238 9.68356C18.0616 9.99068 18.0068 10.351 17.7832 10.6025L11.4971 17.664C11.2612 17.929 10.8863 18.0205 10.5547 17.8945C10.2231 17.7683 10.003 17.4505 10.0029 17.0957V13.5371H6.8584C6.52167 13.5371 6.21603 13.3394 6.07812 13.0322C5.94042 12.725 5.99587 12.3647 6.21973 12.1132L12.5059 5.05172ZM8.76367 11.8271H10.8584C11.3302 11.8272 11.7135 12.2098 11.7139 12.6816V14.8486L15.2383 10.8886H13.1445C12.6725 10.8886 12.2893 10.5062 12.2891 10.0341V7.86618L8.76367 11.8271Z" fill="black"/>
<path fill-rule="evenodd" clip-rule="evenodd" d="M11.9932 0.597623C14.9665 0.570626 17.9515 1.12238 20.6836 2.37301C21.4781 2.73671 22.0029 3.55983 21.9971 4.43356C21.9935 4.96767 21.9971 9.30471 21.9971 11.5654C21.997 13.9943 21.2607 16.3668 19.8857 18.3691C18.5107 20.3713 16.5608 21.9101 14.2939 22.7822C13.2591 23.1803 12.5059 23.3825 11.7705 23.3496C11.0513 23.3173 10.4202 23.0562 9.70801 22.7822C7.44116 21.9101 5.49122 20.3713 4.11621 18.3691C2.74125 16.3669 2.00491 13.9943 2.00488 11.5654C2.00486 9.30438 2.00943 4.96938 2.00586 4.43551C2.00003 3.56388 2.52219 2.7376 3.31836 2.37301C6.05857 1.11861 9.04239 0.624445 11.9932 0.597623ZM12.0088 2.30758C9.23158 2.33283 6.49846 2.79876 4.03027 3.92868C3.84978 4.01143 3.71456 4.22121 3.71582 4.42379C3.71944 4.9649 3.7158 9.3139 3.71582 11.5654C3.71584 13.6488 4.34696 15.6839 5.52637 17.4013C6.70577 19.1186 8.37793 20.4385 10.3223 21.1865C11.1237 21.4948 11.4658 21.6234 11.8467 21.6406C12.2117 21.6569 12.6883 21.5679 13.6797 21.1865C15.6241 20.4385 17.2961 19.1186 18.4756 17.4013C19.655 15.6839 20.2861 13.6488 20.2861 11.5654C20.2862 9.31366 20.2825 4.96297 20.2861 4.42184C20.2874 4.22118 20.1541 4.0122 19.9717 3.92868C17.4953 2.79504 14.7635 2.28258 12.0088 2.30758Z" fill="black"/>
</svg>
