<svg width="24" height="24" viewBox="0 0 24 24" fill="none" xmlns="http://www.w3.org/2000/svg">
<path d="M13.1113 6.25192C13.4451 5.91831 13.9864 5.91843 14.3203 6.25192C14.6541 6.58576 14.654 7.12701 14.3203 7.4609L12.8574 8.92379V10.2871H14.2197L15.6826 8.82418C16.0165 8.49039 16.5587 8.49032 16.8926 8.82418C17.2259 9.15799 17.226 9.69938 16.8926 10.0332L15.7822 11.1425L16.8926 12.2529C17.2259 12.5867 17.226 13.1281 16.8926 13.4619C16.5587 13.7957 16.0165 13.7956 15.6826 13.4619L14.2188 11.998H12.8574V13.3603L14.3203 14.8232C14.6542 15.1571 14.6541 15.6993 14.3203 16.0332C13.9865 16.3667 13.4452 16.3666 13.1113 16.0332L12.001 14.9228L10.8916 16.0332C10.5578 16.3667 10.0164 16.3667 9.68262 16.0332C9.34907 15.6992 9.34884 15.157 9.68262 14.8232L11.1465 13.3593V11.998H9.78516L8.32031 13.4619C7.98642 13.7955 7.44516 13.7956 7.11133 13.4619C6.7776 13.128 6.77767 12.5868 7.11133 12.2529L8.21973 11.1425L7.11133 10.0332C6.77758 9.69931 6.7776 9.15806 7.11133 8.82418C7.44519 8.49032 7.98641 8.49039 8.32031 8.82418L9.78418 10.2871H11.1465V8.92477L9.68262 7.4609C9.34907 7.12698 9.34884 6.5857 9.68262 6.25192C10.0164 5.91824 10.5577 5.9184 10.8916 6.25192L12.001 7.36032L13.1113 6.25192Z" fill="black"/>
<path fill-rule="evenodd" clip-rule="evenodd" d="M11.9941 0.597621C14.9674 0.570656 17.9525 1.12235 20.6846 2.37301C21.4789 2.73676 22.0039 3.5599 21.998 4.43356C21.9945 4.96767 21.9981 9.30471 21.998 11.5654C21.998 13.9943 21.2617 16.3669 19.8867 18.3691C18.5117 20.3713 16.5618 21.91 14.2949 22.7822C13.26 23.1803 12.5068 23.3824 11.7715 23.3496C11.0523 23.3174 10.4211 23.0561 9.70898 22.7822C7.4421 21.9101 5.49223 20.3713 4.11719 18.3691C2.74218 16.3668 2.00589 13.9943 2.00586 11.5654C2.00584 9.30439 2.0104 4.9694 2.00684 4.43551C2.00101 3.5638 2.52305 2.73755 3.31934 2.37301C6.05957 1.11864 9.04336 0.624417 11.9941 0.597621ZM12.0098 2.30758C9.23254 2.3328 6.49946 2.79879 4.03125 3.92868C3.85065 4.01136 3.71554 4.22113 3.7168 4.42379C3.72041 4.96492 3.71678 9.31391 3.7168 11.5654C3.71682 13.6488 4.3479 15.6839 5.52734 17.4013C6.70679 19.1186 8.37887 20.4385 10.3232 21.1865C11.1247 21.4948 11.4667 21.6234 11.8477 21.6406C12.2126 21.6569 12.6893 21.5678 13.6807 21.1865C15.625 20.4385 17.2972 19.1186 18.4766 17.4013C19.656 15.6839 20.2871 13.6488 20.2871 11.5654C20.2871 9.31365 20.2835 4.96296 20.2871 4.42184C20.2884 4.22126 20.155 4.01227 19.9727 3.92868C17.4963 2.79501 14.7644 2.28261 12.0098 2.30758Z" fill="black"/>
</svg>
