<svg width="24" height="24" viewBox="0 0 24 24" fill="none" xmlns="http://www.w3.org/2000/svg">
<path d="M10.2217 0.672852C10.6923 0.637078 11.1025 0.98941 11.1387 1.45996C11.1743 1.93059 10.8222 2.342 10.3516 2.37793C8.1492 2.54602 6.00474 3.02484 4.03027 3.92871C3.8498 4.01154 3.71447 4.22222 3.71582 4.4248C3.71943 4.9698 3.7158 9.31626 3.71582 11.5664C3.71598 13.6496 4.34705 15.6842 5.52637 17.4014C6.70579 19.1186 8.3779 20.4385 10.3223 21.1865C11.1238 21.4948 11.4658 21.6244 11.8467 21.6416C12.2117 21.6579 12.6883 21.5678 13.6797 21.1865C15.624 20.4386 17.2962 19.1185 18.4756 17.4014C19.1208 16.4619 19.6027 15.4272 19.9062 14.3418C20.0334 13.8871 20.5052 13.621 20.96 13.748C21.4145 13.8753 21.6798 14.3471 21.5527 14.8018C21.1989 16.0672 20.6379 17.2738 19.8857 18.3691C18.5107 20.3711 16.5607 21.9102 14.2939 22.7822C13.2591 23.1803 12.5058 23.3825 11.7705 23.3496C11.0513 23.3173 10.4202 23.0562 9.70801 22.7822C7.44122 21.9101 5.49122 20.3712 4.11621 18.3691C2.74143 16.3671 2.00504 13.995 2.00488 11.5664C2.00486 9.30605 2.00942 4.97113 2.00586 4.43555C2.00014 3.56407 2.52237 2.73862 3.31836 2.37402C5.51138 1.37007 7.86035 0.853074 10.2217 0.672852Z" fill="black"/>
<path d="M19.3564 4.12402C19.6721 3.77299 20.2123 3.74405 20.5635 4.05957C20.9145 4.3752 20.9434 4.91546 20.6279 5.2666L18.2012 7.9668C17.9117 8.28888 17.4263 8.34406 17.0723 8.09473L15.4668 6.96289C15.0808 6.69092 14.9878 6.1575 15.2598 5.77148C15.5317 5.38564 16.0652 5.29358 16.4512 5.56543L17.4365 6.25879L19.3564 4.12402Z" fill="black"/>
<path fill-rule="evenodd" clip-rule="evenodd" d="M18.001 0.000976562C21.3133 0.00110851 23.9989 2.68768 23.999 6C23.9988 9.31222 21.3132 11.9979 18.001 11.998C14.6887 11.9979 12.0032 9.31221 12.0029 6C12.0031 2.6877 14.6887 0.0011273 18.001 0.000976562ZM18.001 1.71289C15.6331 1.71304 13.714 3.6321 13.7139 6C13.7141 8.3678 15.6331 10.2879 18.001 10.2881C20.3688 10.288 22.2888 8.36781 22.2891 6C22.2889 3.63209 20.3689 1.71302 18.001 1.71289Z" fill="black"/>
</svg>
