<svg width="24" height="24" viewBox="0 0 24 24" fill="none" xmlns="http://www.w3.org/2000/svg">
<path fill-rule="evenodd" clip-rule="evenodd" d="M12.1279 5.15426C12.2464 5.17214 12.3328 5.21065 12.3691 5.22751C12.4317 5.25655 12.4806 5.28728 12.5088 5.30661C12.5656 5.34566 12.6123 5.38646 12.6416 5.41305C12.7039 5.46965 12.769 5.53777 12.8291 5.60348C12.953 5.73904 13.1079 5.92327 13.2793 6.13864C13.6243 6.57223 14.0626 7.16519 14.4941 7.81833C14.9243 8.4693 15.3595 9.19745 15.6904 9.8984C16.0084 10.572 16.2822 11.3279 16.2822 12C16.2822 14.3655 14.3645 16.2828 11.999 16.2832C9.63328 16.2832 7.71486 14.3657 7.71484 12C7.71484 11.3279 7.98962 10.5721 8.30762 9.8984C8.63854 9.19743 9.07378 8.46928 9.50391 7.81833C9.93549 7.16517 10.3738 6.57219 10.7188 6.13864C10.8902 5.92321 11.0451 5.73901 11.1689 5.60348C11.229 5.53774 11.2941 5.46963 11.3564 5.41305C11.3859 5.38637 11.4325 5.34559 11.4893 5.30661C11.5176 5.28721 11.5663 5.25653 11.6289 5.22751C11.6778 5.20486 11.8145 5.1445 11.999 5.1445L12.1279 5.15426ZM11.999 7.27731C11.6931 7.66633 11.3093 8.1886 10.9307 8.76169C10.5262 9.37377 10.1374 10.0276 9.85352 10.6289C9.5568 11.2575 9.42578 11.7254 9.42578 12C9.4258 13.4213 10.5777 14.5732 11.999 14.5732C13.4201 14.5729 14.5722 13.4211 14.5723 12C14.5723 11.7254 14.4403 11.2576 14.1436 10.6289C13.8598 10.0277 13.4718 9.37372 13.0674 8.76169C12.6888 8.18872 12.3049 7.66633 11.999 7.27731Z" fill="black"/>
<path fill-rule="evenodd" clip-rule="evenodd" d="M11.9902 0.597623C14.9635 0.570626 17.9486 1.12238 20.6807 2.37301C21.4751 2.73671 22 3.55983 21.9941 4.43356C21.9906 4.96767 21.9942 9.30471 21.9941 11.5654C21.9941 13.9943 21.2578 16.3668 19.8828 18.3691C18.5078 20.3713 16.5579 21.9101 14.291 22.7822C13.2561 23.1803 12.5029 23.3825 11.7676 23.3496C11.0484 23.3173 10.4173 23.0562 9.70508 22.7822C7.43823 21.9101 5.48829 20.3713 4.11328 18.3691C2.73832 16.3669 2.00198 13.9943 2.00195 11.5654C2.00193 9.30438 2.0065 4.96938 2.00293 4.43551C1.9971 3.56388 2.51926 2.7376 3.31543 2.37301C6.05564 1.11861 9.03946 0.624445 11.9902 0.597623ZM12.0059 2.30758C9.22865 2.33283 6.49553 2.79876 4.02734 3.92868C3.84685 4.01143 3.71163 4.22121 3.71289 4.42379C3.71651 4.9649 3.71287 9.3139 3.71289 11.5654C3.71292 13.6488 4.34403 15.6839 5.52344 17.4013C6.70284 19.1186 8.375 20.4385 10.3193 21.1865C11.1208 21.4948 11.4629 21.6234 11.8438 21.6406C12.2087 21.6569 12.6853 21.5679 13.6768 21.1865C15.6211 20.4385 17.2932 19.1186 18.4727 17.4013C19.6521 15.6839 20.2832 13.6488 20.2832 11.5654C20.2832 9.31366 20.2796 4.96297 20.2832 4.42184C20.2845 4.22118 20.1512 4.0122 19.9688 3.92868C17.4924 2.79504 14.7606 2.28258 12.0059 2.30758Z" fill="black"/>
</svg>
