<svg width="24" height="24" viewBox="0 0 24 24" fill="none" xmlns="http://www.w3.org/2000/svg">
<path fill-rule="evenodd" clip-rule="evenodd" d="M10.2833 4.88184C10.4822 4.56737 10.8617 4.41776 11.2217 4.51172C13.0149 4.97972 14.585 6.06647 15.6543 7.58008C16.719 9.08727 17.2183 10.9212 17.0665 12.7598C17.0387 14.081 16.5026 15.3412 15.5674 16.2764C14.6232 17.2204 13.3478 17.7593 12.0127 17.7773H12.001C11.3355 17.7772 10.6763 17.6464 10.0616 17.3916C9.44676 17.1367 8.88752 16.7627 8.41704 16.292C7.94679 15.8214 7.57383 15.2622 7.31938 14.6475C7.07215 14.0499 6.94257 13.41 6.9356 12.7637L6.92681 12.4375C6.93134 11.6773 7.12531 10.9279 7.49321 10.2588C7.9137 9.49428 8.54391 8.86557 9.30962 8.44727L9.40435 8.40332C9.62892 8.31418 9.88256 8.32321 10.1016 8.43262C10.3519 8.55788 10.5254 8.79817 10.5655 9.0752C10.5942 9.27364 10.6981 9.45469 10.8545 9.58008C10.8935 9.61126 10.935 9.63907 10.9786 9.66211C11.1849 9.12734 11.2671 8.54958 11.2159 7.97363C11.1476 7.20658 10.8454 6.47874 10.3506 5.88867C10.1116 5.60371 10.0846 5.19624 10.2833 4.88184ZM12.8077 7.11133C12.8599 7.3445 12.8976 7.58238 12.919 7.82227C13.0181 8.93776 12.7737 10.0576 12.2168 11.0293C12.076 11.2747 11.8222 11.4344 11.5401 11.4561C10.9077 11.5044 10.2802 11.3106 9.7852 10.9141C9.64 10.7977 9.51095 10.6647 9.39653 10.5215C9.24035 10.6909 9.1034 10.8791 8.99126 11.083C8.72807 11.5618 8.60708 12.1062 8.64263 12.6514C8.64383 12.6699 8.64459 12.6894 8.64458 12.708C8.64445 13.1488 8.73094 13.5858 8.89946 13.9932C9.06806 14.4005 9.31539 14.7712 9.627 15.083C9.93873 15.3949 10.3095 15.6427 10.7168 15.8115C11.1218 15.9793 11.5558 16.0653 11.9942 16.0664C12.8822 16.0533 13.7303 15.6954 14.3584 15.0674C14.9874 14.4384 15.3462 13.5886 15.3584 12.6992L15.3614 12.6377C15.485 11.1932 15.0943 9.75056 14.2579 8.56641C13.8569 7.99884 13.3647 7.50894 12.8077 7.11133Z" fill="black"/>
<path fill-rule="evenodd" clip-rule="evenodd" d="M12.0069 0.598633C14.7998 0.575191 17.5681 1.10278 20.1534 2.15039L20.669 2.36719L20.6827 2.37305C21.4771 2.73675 22.002 3.55986 21.9961 4.43359C21.9944 4.70046 21.9962 9.30544 21.9961 11.5654C21.9961 13.9944 21.2599 16.3669 19.8848 18.3691C18.3211 20.646 16.1573 22.001 13.792 22.9688L13.3165 23.1572C12.5222 23.4627 11.6481 23.4821 10.8438 23.2148L10.6836 23.1572C8.13392 22.1775 5.78318 20.7978 4.11528 18.3691C2.74027 16.3669 2.00495 13.9944 2.00493 11.5654C2.00491 9.30546 2.0067 4.70052 2.00493 4.43359C1.99909 3.55988 2.52299 2.73676 3.31743 2.37305L3.3311 2.36719C6.06188 1.1759 9.01314 0.573781 11.9922 0.598633C11.9948 0.59861 11.9975 0.598654 12 0.598633C12.0026 0.598655 12.0053 0.597646 12.0079 0.597656L12.0069 0.598633ZM11.9922 2.30762C9.25161 2.28275 6.53607 2.83506 4.02349 3.92969C3.84369 4.01479 3.7136 4.22311 3.71489 4.42188C3.71671 4.69427 3.71487 9.31325 3.71489 11.5654C3.71491 13.6488 4.34599 15.684 5.52544 17.4014C6.9213 19.4338 8.91603 20.6467 11.2969 21.5615C11.7493 21.7355 12.2508 21.7355 12.7032 21.5615C15.0841 20.6467 17.0788 19.4337 18.4747 17.4014C19.6541 15.684 20.2862 13.6488 20.2862 11.5654C20.2862 9.31325 20.2844 4.69427 20.2862 4.42188C20.2875 4.22278 20.1559 4.01453 19.9756 3.92969C17.4633 2.83531 14.7482 2.28274 12.0079 2.30762C12.0027 2.30766 11.9974 2.30766 11.9922 2.30762Z" fill="black"/>
</svg>
