<svg width="24" height="24" viewBox="0 0 24 24" fill="none" xmlns="http://www.w3.org/2000/svg">
<path fill-rule="evenodd" clip-rule="evenodd" d="M8.22808 1.72461C8.50356 1.76348 8.74575 1.93527 8.87261 2.18848C9.44717 3.33592 10.6327 4.12099 11.9996 4.12109C13.3665 4.12109 14.5519 3.33597 15.1265 2.18848L15.188 2.08496C15.3462 1.85627 15.6081 1.71586 15.8912 1.71582H17.2896C17.9709 1.71582 18.6252 1.98688 19.107 2.46875L23.7476 7.10938C24.0813 7.44316 24.0811 7.98446 23.7476 8.31836L20.3189 11.7471C19.985 12.0809 19.4438 12.0809 19.1099 11.7471L18.855 11.4922V19.7139C18.855 20.3953 18.5839 21.0495 18.1021 21.5312C17.6204 22.0127 16.967 22.2832 16.2857 22.2832H7.71441C7.03294 22.2832 6.37875 22.0129 5.89703 21.5312C5.41519 21.0494 5.14507 20.3952 5.14507 19.7139V11.4922L4.89019 11.7471C4.55629 12.0809 4.01509 12.081 3.68121 11.7471L0.252496 8.31836C-0.0811892 7.98446 -0.0812822 7.44321 0.252496 7.10938L4.89312 2.46875C5.37483 1.98705 6.0283 1.71595 6.70953 1.71582H8.10797L8.22808 1.72461ZM6.70953 3.42676C6.48183 3.42689 6.26312 3.51672 6.10211 3.67773L2.06597 7.71387L4.2857 9.93359L5.39507 8.82422C5.63952 8.57977 6.0073 8.50651 6.32671 8.63867C6.64621 8.77101 6.85504 9.0829 6.85504 9.42871V19.7139C6.85504 19.9415 6.94526 20.1603 7.10601 20.3213C7.26723 20.4825 7.48664 20.5732 7.71441 20.5732H16.2857C16.5135 20.5732 16.732 20.4823 16.8931 20.3213C17.0541 20.1602 17.1451 19.9416 17.1451 19.7139V9.42871C17.1451 9.08302 17.3531 8.77109 17.6724 8.63867C17.9919 8.50634 18.3595 8.57973 18.6041 8.82422L19.7134 9.93359L21.9332 7.71387L17.897 3.67773C17.736 3.51686 17.5174 3.42676 17.2896 3.42676H16.3834C15.4595 4.87019 13.8433 5.83105 11.9996 5.83105C10.1558 5.83096 8.5396 4.87023 7.61578 3.42676H6.70953Z" fill="black"/>
</svg>
