<svg width="24" height="24" viewBox="0 0 24 24" fill="none" xmlns="http://www.w3.org/2000/svg">
<path d="M3.10341 20.167C3.25276 19.7191 3.73749 19.4767 4.18544 19.626C4.63325 19.7754 4.87571 20.2601 4.72645 20.708L4.02333 22.8174C3.87403 23.2653 3.38921 23.5076 2.9413 23.3584C2.49333 23.2091 2.25096 22.7243 2.40028 22.2764L3.10341 20.167Z" fill="black"/>
<path d="M9.53993 19.582C10.012 19.5822 10.3954 19.9654 10.3954 20.4375V22.5469C10.3954 23.019 10.012 23.4022 9.53993 23.4023C9.06773 23.4023 8.68446 23.0191 8.68446 22.5469V20.4375C8.68446 19.9653 9.06773 19.582 9.53993 19.582Z" fill="black"/>
<path d="M14.8944 19.626C15.3423 19.4768 15.8272 19.7191 15.9765 20.167L16.6796 22.2764C16.8288 22.7242 16.5864 23.209 16.1386 23.3584C15.6906 23.5077 15.2059 23.2653 15.0565 22.8174L14.3534 20.708C14.2041 20.26 14.4465 19.7753 14.8944 19.626Z" fill="black"/>
<path fill-rule="evenodd" clip-rule="evenodd" d="M15.4862 0.606445C17.0878 0.68595 18.6077 1.35686 19.747 2.49609C20.9621 3.71132 21.6454 5.35958 21.6454 7.07812V22.5469C21.6454 23.019 21.262 23.4022 20.7899 23.4023C20.3177 23.4023 19.9345 23.0191 19.9345 22.5469V7.07812C19.9345 5.8131 19.4325 4.59962 18.538 3.70508C17.6994 2.86645 16.5802 2.37295 15.4013 2.31445L15.1649 2.30859C13.8999 2.30859 12.6864 2.8106 11.7919 3.70508C11.0813 4.41569 10.6182 5.32753 10.4579 6.30664C11.4623 6.49137 12.3956 6.97677 13.1278 7.70898C14.0793 8.66049 14.6141 9.95129 14.6141 11.2969C14.6141 11.769 14.2308 12.1522 13.7587 12.1523H5.32118C4.84898 12.1523 4.46571 11.7691 4.46571 11.2969C4.46571 9.95123 5.00053 8.6605 5.95204 7.70898C6.71152 6.94955 7.68716 6.45653 8.73427 6.28809C8.90972 4.86074 9.55543 3.52356 10.5829 2.49609C11.7981 1.28093 13.4464 0.597656 15.1649 0.597656L15.4862 0.606445ZM9.53993 7.93359C8.64786 7.93359 7.79184 8.28722 7.16102 8.91797C6.73616 9.34283 6.43726 9.87014 6.287 10.4414H12.7929C12.6426 9.87017 12.3437 9.34283 11.9188 8.91797C11.2881 8.2872 10.432 7.93365 9.53993 7.93359Z" fill="black"/>
<path d="M5.21278 13.8389C5.36213 13.3909 5.84686 13.1485 6.29481 13.2979C6.74263 13.4472 6.98508 13.932 6.83583 14.3799L6.1327 16.4893C5.9834 16.9372 5.49859 17.1795 5.05067 17.0303C4.6027 16.8809 4.36033 16.3962 4.50966 15.9482L5.21278 13.8389Z" fill="black"/>
<path d="M9.53993 13.2539C10.012 13.254 10.3954 13.6372 10.3954 14.1094V16.2188C10.3954 16.6909 10.012 17.0741 9.53993 17.0742C9.06773 17.0742 8.68446 16.691 8.68446 16.2188V14.1094C8.68446 13.6372 9.06773 13.2539 9.53993 13.2539Z" fill="black"/>
<path d="M12.785 13.2979C13.233 13.1487 13.7178 13.391 13.8671 13.8389L14.5702 15.9482C14.7195 16.3961 14.477 16.8809 14.0292 17.0303C13.5812 17.1796 13.0965 16.9372 12.9472 16.4893L12.244 14.3799C12.0947 13.9319 12.3371 13.4472 12.785 13.2979Z" fill="black"/>
</svg>
