<svg width="24" height="24" viewBox="0 0 24 24" fill="none" xmlns="http://www.w3.org/2000/svg">
<path d="M7.0752 11.1445C7.54723 11.1447 7.93066 11.5279 7.93066 12C7.93066 12.4721 7.54723 12.8553 7.0752 12.8555H5.66895C5.52283 12.8555 5.38266 12.9133 5.2793 13.0166C5.17592 13.12 5.11816 13.26 5.11816 13.4062L5.12109 13.5107C5.15866 14.0186 5.48151 14.3069 6.18164 14.832C6.84117 15.3267 7.93066 16.0909 7.93066 17.625C7.93066 18.2246 7.69153 18.7996 7.26758 19.2236C6.8436 19.6476 6.26853 19.8866 5.66895 19.8867H4.2627C3.79049 19.8867 3.40723 19.5035 3.40723 19.0312C3.40723 18.559 3.79049 18.1758 4.2627 18.1758H5.66895C5.81501 18.1757 5.9553 18.1179 6.05859 18.0146C6.16186 17.9113 6.21973 17.7711 6.21973 17.625C6.21973 17.05 5.90283 16.7592 5.15625 16.1992C4.5379 15.7355 3.54178 15.0349 3.41992 13.6846L3.40723 13.4062C3.40723 12.8065 3.64625 12.2317 4.07031 11.8076C4.49436 11.3837 5.06931 11.1445 5.66895 11.1445H7.0752Z" fill="black"/>
<path fill-rule="evenodd" clip-rule="evenodd" d="M10.8838 11.1592C11.5623 11.2266 12.2002 11.5273 12.6865 12.0137C13.2423 12.5696 13.5557 13.3233 13.5557 14.1094L13.541 14.4023C13.4737 15.0809 13.1729 15.7187 12.6865 16.2051C12.1667 16.7249 11.4736 17.0286 10.7432 17.0664V19.0312C10.7432 19.5033 10.3597 19.8865 9.8877 19.8867C9.41549 19.8867 9.03223 19.5035 9.03223 19.0312V12C9.03223 11.5574 9.36868 11.1933 9.7998 11.1494C9.8286 11.1465 9.85813 11.1445 9.8877 11.1445H10.5908L10.8838 11.1592ZM10.7432 15.3525C11.0194 15.3187 11.2786 15.195 11.4775 14.9961C11.6833 14.7903 11.8104 14.5204 11.8389 14.2334L11.8447 14.1094C11.8447 13.7768 11.7127 13.4579 11.4775 13.2227C11.2786 13.0237 11.0195 12.8991 10.7432 12.8652V15.3525Z" fill="black"/>
<path fill-rule="evenodd" clip-rule="evenodd" d="M16.9189 11.1445C17.5185 11.1446 18.0936 11.3836 18.5176 11.8076C18.9415 12.2317 19.1807 12.8066 19.1807 13.4062V19.0312C19.1807 19.5033 18.7972 19.8865 18.3252 19.8867C17.853 19.8867 17.4697 19.5035 17.4697 19.0312V17.0742H16.3682V19.0312C16.3682 19.5033 15.9847 19.8865 15.5127 19.8867C15.0405 19.8867 14.6572 19.5035 14.6572 19.0312V13.4062C14.6572 12.8065 14.8962 12.2317 15.3203 11.8076C15.7444 11.3837 16.3193 11.1445 16.9189 11.1445ZM16.9189 12.8555C16.7728 12.8555 16.6327 12.9133 16.5293 13.0166C16.4259 13.12 16.3682 13.2601 16.3682 13.4062V15.3633H17.4697V13.4062C17.4697 13.2601 17.4119 13.12 17.3086 13.0166C17.2053 12.9133 17.065 12.8556 16.9189 12.8555Z" fill="black"/>
<path fill-rule="evenodd" clip-rule="evenodd" d="M22.5439 1.30078C23.016 1.30098 23.3994 1.68417 23.3994 2.15625C23.3994 2.62833 23.016 3.01152 22.5439 3.01172H19.1807V8.33203H21.6104C21.6114 8.33219 21.6131 8.333 21.6143 8.33301H21.6455C21.6624 8.33358 21.6839 8.33519 21.708 8.33691C21.7563 8.34038 21.82 8.34613 21.8936 8.3584C22.0374 8.3824 22.2429 8.43249 22.458 8.54004C22.6763 8.64932 22.9206 8.82686 23.1084 9.1084C23.3 9.39581 23.3994 9.74109 23.3994 10.125V20.9102C23.3994 20.9113 23.3984 20.9128 23.3984 20.9141V20.9453C23.3979 20.9622 23.3963 20.9835 23.3945 21.0078C23.3911 21.0561 23.3853 21.1196 23.373 21.1934C23.3491 21.3372 23.299 21.5426 23.1914 21.7578C23.0822 21.9761 22.9046 22.2203 22.623 22.4082C22.3357 22.5998 21.9903 22.6992 21.6064 22.6992H2.38379C2.38276 22.6992 2.38105 22.6984 2.37988 22.6982H2.34863C2.33178 22.6977 2.31029 22.6961 2.28613 22.6943C2.23789 22.6909 2.1742 22.6851 2.10059 22.6729C1.95676 22.6489 1.75129 22.5987 1.53613 22.4912C1.31778 22.382 1.07363 22.2044 0.885742 21.9229C0.694114 21.6354 0.594727 21.2902 0.594727 20.9062V10.125H1.4502C0.65868 10.125 0.59915 10.1254 0.594727 10.125V10.1211C0.594733 10.12 0.595693 10.1184 0.595703 10.1172V10.0859C0.596269 10.069 0.597874 10.0477 0.599609 10.0234C0.603071 9.97512 0.608801 9.91165 0.621094 9.83789C0.645079 9.69401 0.695115 9.48868 0.802734 9.27344C0.912006 9.05507 1.0895 8.81091 1.37109 8.62305C1.65848 8.43153 2.00382 8.33203 2.3877 8.33203H4.81348V3.01172H1.4502C0.977992 3.01172 0.594727 2.62845 0.594727 2.15625C0.594727 1.68405 0.977992 1.30078 1.4502 1.30078H22.5439ZM2.3291 10.0479C2.3211 10.0666 2.31315 10.0918 2.30859 10.1191C2.3075 10.1257 2.30619 10.1313 2.30566 10.1357V20.9062C2.30566 20.9326 2.30853 20.9512 2.31055 20.9639C2.32932 20.9719 2.35447 20.9808 2.38184 20.9854C2.3898 20.9867 2.39669 20.9878 2.40137 20.9883H21.6064C21.6327 20.9882 21.6514 20.9844 21.6641 20.9824C21.672 20.9637 21.681 20.9392 21.6855 20.9121C21.687 20.9034 21.688 20.8964 21.6885 20.8916V10.125C21.6885 10.0979 21.6847 10.0791 21.6826 10.0664C21.664 10.0586 21.6391 10.0504 21.6123 10.0459C21.6044 10.0446 21.5975 10.0435 21.5928 10.043H2.3877C2.36092 10.043 2.3418 10.0458 2.3291 10.0479ZM6.52441 3.01172V8.33203H17.4697V3.01172H6.52441Z" fill="black"/>
</svg>
