<svg width="24" height="24" viewBox="0 0 24 24" fill="none" xmlns="http://www.w3.org/2000/svg">
<path d="M19.7136 20.5732C20.1857 20.5734 20.5681 20.9566 20.5681 21.4287C20.5681 22.8476 19.4177 23.9979 17.9988 23.998H5.9988C4.58001 23.9978 3.42946 22.8475 3.42946 21.4287C3.42946 20.9565 3.81273 20.5732 4.28493 20.5732C4.75702 20.5734 5.1404 20.9566 5.1404 21.4287C5.1404 21.9031 5.52442 22.2879 5.9988 22.2881H17.9988C18.4733 22.288 18.8582 21.9032 18.8582 21.4287C18.8582 20.9565 19.2414 20.5732 19.7136 20.5732Z" fill="black"/>
<path fill-rule="evenodd" clip-rule="evenodd" d="M18.1638 0.000976562C19.4834 0.00145753 20.5882 1.0033 20.7195 2.31641L22.0916 16.0303C22.2425 17.5423 21.0545 18.8551 19.5349 18.8555H4.46657C2.94667 18.8555 1.75895 17.5426 1.90993 16.0303L3.28102 2.31641C3.41237 1.00298 4.51769 0.000976562 5.83766 0.000976562H18.1638ZM5.83766 1.71289C5.3962 1.71289 5.02612 2.04706 4.9822 2.48633L3.6111 16.2002C3.56079 16.7059 3.95834 17.1455 4.46657 17.1455H19.5349C20.0428 17.1452 20.4397 16.7056 20.3894 16.2002L19.0183 2.48633C18.9744 2.04738 18.6049 1.71337 18.1638 1.71289H5.83766Z" fill="black"/>
</svg>
