<svg width="24" height="24" viewBox="0 0 24 24" fill="none" xmlns="http://www.w3.org/2000/svg">
<g clip-path="url(#clip0_7418_3858)">
<path d="M8.57324 10.2881C9.04533 10.2882 9.42871 10.6714 9.42871 11.1436V12.8574C9.42845 13.3293 9.04517 13.7128 8.57324 13.7129C8.1012 13.7129 7.71804 13.3294 7.71777 12.8574V11.1436C7.71777 10.6714 8.10104 10.2881 8.57324 10.2881Z" fill="black"/>
<path d="M15.4307 10.2881C15.9026 10.2884 16.2861 10.6715 16.2861 11.1436V12.8574C16.2859 13.3292 15.9025 13.7126 15.4307 13.7129C14.9586 13.7129 14.5755 13.3294 14.5752 12.8574V11.1436C14.5752 10.6714 14.9585 10.2881 15.4307 10.2881Z" fill="black"/>
<path fill-rule="evenodd" clip-rule="evenodd" d="M20.5713 0.858398C21.99 0.85855 23.1404 2.01002 23.1406 3.42871V20.5723C23.1403 21.7426 22.3568 22.7282 21.2861 23.0381C21.059 23.1038 20.8196 23.1416 20.5713 23.1416H3.42773C2.00932 23.1412 0.858813 21.9907 0.858398 20.5723V3.42871C0.858626 2.01015 2.0092 0.858757 3.42773 0.858398H20.5713ZM3.42773 2.57031C2.95361 2.57067 2.56956 2.95455 2.56934 3.42871V20.5723C2.56975 21.0463 2.95372 21.4313 3.42773 21.4316H11.1445V2.57031H3.42773ZM12.8555 21.4316H20.5713C20.601 21.4316 20.6303 21.4297 20.6592 21.4268C20.7746 21.415 20.8831 21.38 20.9805 21.3271C21.1023 21.261 21.206 21.1661 21.2832 21.0518C21.3296 20.9832 21.3665 20.9079 21.3916 20.8271C21.4167 20.7466 21.4306 20.661 21.4307 20.5723V3.42871C21.4306 3.30998 21.4059 3.19656 21.3623 3.09375C21.3405 3.04248 21.3141 2.99383 21.2832 2.94824C21.206 2.83416 21.1021 2.73985 20.9805 2.67383C20.9561 2.6606 20.931 2.64856 20.9053 2.6377C20.8283 2.60517 20.7457 2.58302 20.6592 2.57422L20.5713 2.57031H12.8555V21.4316Z" fill="black"/>
</g>
<defs>
<clipPath id="clip0_7418_3858">
<rect width="24" height="24" fill="white"/>
</clipPath>
</defs>
</svg>
