<svg width="24" height="24" viewBox="0 0 24 24" fill="none" xmlns="http://www.w3.org/2000/svg">
<path d="M14.8249 0.252377C15.1588 -0.0813827 15.7 -0.0814753 16.0339 0.252377C16.3676 0.58624 16.3676 1.1275 16.0339 1.46136L12.8561 4.6391V11.144H19.361L22.5388 7.96624C22.8725 7.6326 23.4139 7.63275 23.7477 7.96624C24.0815 8.3001 24.0815 8.84134 23.7477 9.17523L20.9235 11.9994L23.7477 14.8237C24.0814 15.1576 24.0815 15.6988 23.7477 16.0326C23.4139 16.3664 22.8726 16.3663 22.5388 16.0326L19.361 12.8549H12.8561V19.3608L16.0339 22.5385C16.3675 22.8724 16.3676 23.4137 16.0339 23.7475C15.7 24.0813 15.1588 24.0812 14.8249 23.7475L12.0007 20.9233L9.17645 23.7475C8.84256 24.0812 8.30133 24.0813 7.96746 23.7475C7.63361 23.4136 7.6337 22.8724 7.96746 22.5385L11.1452 19.3608V12.8549H4.64032L1.46258 16.0326C1.12872 16.3664 0.587461 16.3664 0.253597 16.0326C-0.0802546 15.6988 -0.080162 15.1576 0.253597 14.8237L3.07782 11.9994L0.253597 9.17523C-0.0803007 8.84133 -0.0803007 8.30014 0.253597 7.96624C0.58753 7.63277 1.12883 7.63249 1.46258 7.96624L4.64032 11.144H11.1452V4.6391L7.96746 1.46136C7.63359 1.12748 7.63363 0.58628 7.96746 0.252377C8.30136 -0.0815215 8.84255 -0.0815214 9.17645 0.252377L12.0007 3.0766L14.8249 0.252377Z" fill="black"/>
<path d="M7.96746 14.8237C8.30132 14.4901 8.84264 14.4901 9.17645 14.8237C9.51025 15.1575 9.51004 15.6987 9.17645 16.0326L6.60516 18.6039C6.27126 18.9378 5.73007 18.9378 5.39618 18.6039C5.06247 18.27 5.06234 17.7288 5.39618 17.395L7.96746 14.8237Z" fill="black"/>
<path d="M14.8249 14.8237C15.1588 14.4901 15.7001 14.49 16.0339 14.8237L18.6052 17.395C18.939 17.7288 18.9388 18.27 18.6052 18.6039C18.2713 18.9378 17.7301 18.9378 17.3962 18.6039L14.8249 16.0326C14.4911 15.6987 14.491 15.1575 14.8249 14.8237Z" fill="black"/>
<path d="M5.39618 5.39495C5.73006 5.0614 6.27135 5.06128 6.60516 5.39495L9.17645 7.96624C9.51025 8.30004 9.51004 8.84131 9.17645 9.17523C8.84255 9.50913 8.30136 9.50913 7.96746 9.17523L5.39618 6.60394C5.0624 6.27003 5.06232 5.72881 5.39618 5.39495Z" fill="black"/>
<path d="M17.3962 5.39495C17.73 5.06142 18.2713 5.06135 18.6052 5.39495C18.939 5.72875 18.9388 6.27002 18.6052 6.60394L16.0339 9.17523C15.7 9.50913 15.1588 9.50913 14.8249 9.17523C14.4912 8.84131 14.4911 8.30008 14.8249 7.96624L17.3962 5.39495Z" fill="black"/>
</svg>
