<svg width="24" height="24" viewBox="0 0 24 24" fill="none" xmlns="http://www.w3.org/2000/svg">
<path d="M23.1412 3.43066C23.6134 3.43074 23.9957 3.81398 23.9957 4.28613C23.9954 4.75806 23.6132 5.14153 23.1412 5.1416H15.651C14.5005 5.14189 13.5681 6.07409 13.568 7.22461V10.2881H13.609C15.4265 10.2883 16.6698 12.1249 15.9947 13.8125L15.69 14.5742H23.1412C23.6133 14.5744 23.9967 14.9576 23.9967 15.4297C23.9962 15.9014 23.613 16.284 23.1412 16.2842H14.4274C14.1438 16.2842 13.8784 16.1429 13.7193 15.9082C13.5605 15.6734 13.5282 15.3746 13.6334 15.1113L14.4068 13.1768C14.6326 12.6124 14.2168 11.9992 13.609 11.999H12.7125C12.2383 11.9992 11.8543 12.3832 11.8541 12.8574V18.4795C11.8544 18.8491 12.0904 19.178 12.441 19.2949L16.1481 20.5303C16.2355 20.5594 16.3274 20.5742 16.4195 20.5742H23.1412C23.6133 20.5744 23.9967 20.9576 23.9967 21.4297C23.9962 21.9014 23.613 22.284 23.1412 22.2842H16.4957L15.0318 23.748C14.6981 24.0815 14.1567 24.0814 13.8229 23.748C13.489 23.4141 13.489 22.872 13.8229 22.5381L14.5572 21.8027L11.9 20.917C10.8512 20.5672 10.1434 19.585 10.1432 18.4795V12.8574C10.1434 11.739 10.8592 10.7893 11.857 10.4365V7.22461C11.8572 5.12968 13.5561 3.43095 15.651 3.43066H23.1412Z" fill="black"/>
<path d="M19.5699 6.85938C20.0421 6.85938 20.4254 7.24264 20.4254 7.71484V12.001C20.4249 12.4728 20.0418 12.8555 19.5699 12.8555C19.098 12.8555 18.715 12.4728 18.7145 12.001V7.71484C18.7145 7.24264 19.0977 6.85938 19.5699 6.85938Z" fill="black"/>
<path fill-rule="evenodd" clip-rule="evenodd" d="M4.71348 0.000976562C5.18569 0.000976562 5.56895 0.385218 5.56895 0.857422V2.26953C6.02551 2.40531 6.43505 2.64779 6.77208 2.9668L7.99766 2.25977C8.40654 2.02401 8.92961 2.16347 9.16563 2.57227C9.40158 2.98111 9.26087 3.50409 8.85216 3.74023L7.62657 4.44727C7.67972 4.67068 7.71151 4.90292 7.71153 5.14258C7.71153 5.38225 7.67971 5.61447 7.62657 5.83789L8.85216 6.5459C9.26074 6.78209 9.40155 7.30508 9.16563 7.71387C8.92957 8.12242 8.40643 8.26195 7.99766 8.02637L6.7711 7.31836C6.43423 7.63705 6.0252 7.87894 5.56895 8.01465V9.42871C5.56869 9.90069 5.18552 10.2842 4.71348 10.2842C4.24155 10.2841 3.85828 9.90061 3.85802 9.42871V8.01465C3.40179 7.87891 2.99177 7.63803 2.65489 7.31934L1.43126 8.02637C1.02251 8.26195 0.49937 8.12237 0.263289 7.71387C0.0273377 7.30519 0.167451 6.78221 0.575789 6.5459L1.79942 5.83887C1.74617 5.61524 1.71544 5.3825 1.71544 5.14258C1.71546 4.90267 1.74615 4.66992 1.79942 4.44629L0.575789 3.74023C0.167404 3.504 0.0274756 2.98097 0.263289 2.57227C0.499396 2.16365 1.02246 2.02401 1.43126 2.25977L2.65489 2.96582C2.99183 2.64706 3.40171 2.40527 3.85802 2.26953V0.857422C3.85802 0.385297 4.24139 0.00110367 4.71348 0.000976562ZM4.71348 3.85547C4.00244 3.85562 3.42653 4.43154 3.42638 5.14258C3.42638 5.85375 4.00235 6.43051 4.71348 6.43066C5.42474 6.43066 6.00157 5.85384 6.00157 5.14258C6.00142 4.43145 5.42465 3.85547 4.71348 3.85547Z" fill="black"/>
</svg>
