<svg width="24" height="24" viewBox="0 0 24 24" fill="none" xmlns="http://www.w3.org/2000/svg">
<path d="M9.42871 5.14453C9.9008 5.14466 10.2842 5.52788 10.2842 6V10.2861C10.284 10.7581 9.90066 11.1405 9.42871 11.1406C8.95665 11.1406 8.57347 10.7581 8.57324 10.2861V6C8.57324 5.5278 8.95651 5.14453 9.42871 5.14453Z" fill="black"/>
<path d="M14.5713 5.14453C15.0435 5.14453 15.4268 5.5278 15.4268 6V10.2861C15.4265 10.7581 15.0434 11.1406 14.5713 11.1406C14.0993 11.1405 13.716 10.7581 13.7158 10.2861V6C13.7158 5.52788 14.0992 5.14466 14.5713 5.14453Z" fill="black"/>
<path fill-rule="evenodd" clip-rule="evenodd" d="M18.4893 1.71582C20.5844 1.71582 22.283 3.41466 22.2832 5.50977V8.72168C23.2814 9.07423 23.9979 10.0238 23.998 11.1426V16.7646C23.998 17.8704 23.2902 18.8524 22.2412 19.2021L19.582 20.0879L20.3193 20.8242C20.6529 21.1581 20.6531 21.7004 20.3193 22.0342C19.9855 22.3677 19.4432 22.3677 19.1094 22.0342L17.6455 20.5693H6.35547L4.89062 22.0342C4.55696 22.3675 4.01551 22.3672 3.68164 22.0342C3.34774 21.7003 3.34774 21.1581 3.68164 20.8242L4.41699 20.0879L1.75879 19.2021C0.709863 18.8523 0.00199445 17.8704 0.00195312 16.7646V11.1426C0.00213128 10.0241 0.717886 9.07445 1.71582 8.72168V5.50977C1.71598 3.41484 3.41487 1.71611 5.50977 1.71582H18.4893ZM2.57129 10.2842C2.09705 10.2844 1.71312 10.6683 1.71289 11.1426V16.7646C1.71293 17.1345 1.94898 17.4631 2.2998 17.5801L6.00684 18.8154C6.09431 18.8445 6.18613 18.8594 6.27832 18.8594H17.7217C17.814 18.8593 17.9066 18.8446 17.9941 18.8154L21.7002 17.5801C22.0509 17.4631 22.288 17.1344 22.2881 16.7646V11.1426C22.2879 10.6683 21.903 10.2843 21.4287 10.2842H20.5322C19.9245 10.2843 19.5088 10.8976 19.7344 11.4619L20.5088 13.3965C20.614 13.6597 20.5816 13.9585 20.4229 14.1934C20.2639 14.4281 19.9984 14.5692 19.7148 14.5693H4.28613C4.00247 14.5693 3.73719 14.4282 3.57812 14.1934C3.4192 13.9585 3.38685 13.6598 3.49219 13.3965L4.26562 11.4619C4.49126 10.8976 4.07551 10.2843 3.46777 10.2842H2.57129ZM5.50977 3.42676C4.35928 3.42705 3.42692 4.35925 3.42676 5.50977V8.57324H3.46777C5.28529 8.57341 6.52848 10.4101 5.85352 12.0977L5.54883 12.8594H18.4512L18.1465 12.0977C17.4714 10.41 18.7146 8.57332 20.5322 8.57324H20.5732V5.50977C20.5731 4.35907 19.64 3.42676 18.4893 3.42676H5.50977Z" fill="black"/>
</svg>
