<svg width="24" height="24" viewBox="0 0 24 24" fill="none" xmlns="http://www.w3.org/2000/svg">
<path fill-rule="evenodd" clip-rule="evenodd" d="M15.5498 0.858398C19.1167 0.858652 22.0332 3.63414 22.2646 7.14258C23.2865 7.62034 23.996 8.65505 23.9961 9.85742V15.4287C23.9959 17.1849 22.9383 18.6933 21.4258 19.3545V22.2861C21.4254 22.7579 21.0421 23.1404 20.5703 23.1406C20.0983 23.1406 19.7152 22.758 19.7148 22.2861V19.7119L19.7129 19.7129H4.28418L4.28223 19.7119V22.2861C4.28189 22.758 3.89875 23.1406 3.42676 23.1406C2.95488 23.1405 2.57163 22.758 2.57129 22.2861V19.3545C1.05836 18.6934 0.000195975 17.1851 0 15.4287V10.7148C0 9.51896 0.701888 8.48901 1.71484 8.00781V7.59277C1.71484 3.87449 4.72996 0.858398 8.44824 0.858398H15.5498ZM20.998 8.57031C20.287 8.57046 19.7111 9.14638 19.7109 9.85742V13.7148C19.7107 14.1868 19.3275 14.5703 18.8555 14.5703H5.1416C4.66956 14.5703 4.2864 14.1868 4.28613 13.7148V10.7148C4.28613 10.0036 3.70931 9.42676 2.99805 9.42676C2.28691 9.42691 1.71094 10.0037 1.71094 10.7148V15.4287C1.7112 16.8498 2.863 18.0029 4.28418 18.0029H19.7129C21.1339 18.0028 22.2859 16.8497 22.2861 15.4287V9.85742C22.286 9.14629 21.7092 8.57031 20.998 8.57031ZM12.8535 12.8594H18V9.85742C18.0001 8.36381 19.0929 7.12454 20.5225 6.89648C20.1836 4.45219 18.0873 2.57055 15.5498 2.57031H12.8535V12.8594ZM8.44824 2.57031C5.67436 2.57031 3.42578 4.8189 3.42578 7.59277V7.74707C4.87884 7.9547 5.99609 9.20442 5.99609 10.7148V12.8594H11.1426V2.57031H8.44824Z" fill="black"/>
</svg>
