<svg width="24" height="24" viewBox="0 0 24 24" fill="none" xmlns="http://www.w3.org/2000/svg">
<path d="M6.46094 4.02441C6.93314 4.02441 7.31641 4.40768 7.31641 4.87988V7.18848H8.04199C8.5141 7.18859 8.89648 7.57181 8.89648 8.04395C8.89648 8.51608 8.5141 8.8993 8.04199 8.89941H7.31641V19.1221C7.31591 19.5939 6.93284 19.9766 6.46094 19.9766C5.98904 19.9766 5.60596 19.5939 5.60547 19.1221V8.89941H4.87695C4.40486 8.89928 4.02148 8.51607 4.02148 8.04395C4.02148 7.57182 4.40486 7.18861 4.87695 7.18848H5.60547V4.87988C5.60547 4.40768 5.98873 4.02441 6.46094 4.02441Z" fill="black"/>
<path d="M11.999 4.02441C12.4711 4.02455 12.8545 4.40776 12.8545 4.87988V15.8926H13.5801C14.0522 15.8927 14.4346 16.2759 14.4346 16.748C14.4343 17.22 14.052 17.6034 13.5801 17.6035H12.8545V19.1221C12.854 19.5938 12.4708 19.9764 11.999 19.9766C11.5271 19.9766 11.1441 19.5939 11.1436 19.1221V17.6035H10.415C9.94311 17.6034 9.55983 17.2199 9.55957 16.748C9.55957 16.2759 9.94295 15.8927 10.415 15.8926H11.1436V4.87988C11.1436 4.40768 11.5268 4.02441 11.999 4.02441Z" fill="black"/>
<path d="M17.5371 4.02441C18.0092 4.02455 18.3926 4.40776 18.3926 4.87988V9.5625H19.1221C19.594 9.56288 19.9766 9.946 19.9766 10.418C19.9763 10.8897 19.5938 11.2731 19.1221 11.2734H18.3926V19.1221C18.3921 19.5938 18.0089 19.9764 17.5371 19.9766C17.0652 19.9766 16.6821 19.5939 16.6816 19.1221V11.2734H15.957C15.485 11.2734 15.1018 10.8899 15.1016 10.418C15.1016 9.94577 15.4848 9.5625 15.957 9.5625H16.6816V4.87988C16.6816 4.40768 17.0649 4.02441 17.5371 4.02441Z" fill="black"/>
<path fill-rule="evenodd" clip-rule="evenodd" d="M20.5703 0.858398C21.989 0.858549 23.1394 2.01002 23.1396 3.42871V20.5723C23.1392 21.9908 21.9889 23.1415 20.5703 23.1416H3.42676C2.00834 23.1412 0.857836 21.9907 0.857422 20.5723V3.42871C0.857648 2.01015 2.00822 0.858756 3.42676 0.858398H20.5703ZM3.42676 2.57031C2.95263 2.57067 2.56859 2.95455 2.56836 3.42871V20.5723C2.56877 21.0463 2.95275 21.4313 3.42676 21.4316H20.5703C21.0445 21.4315 21.4293 21.0464 21.4297 20.5723V3.42871C21.4295 2.95443 21.0446 2.57046 20.5703 2.57031H3.42676Z" fill="black"/>
</svg>
