<svg width="24" height="24" viewBox="0 0 24 24" fill="none" xmlns="http://www.w3.org/2000/svg">
<path d="M12.1328 7.29395C12.7801 7.35967 13.2852 7.90762 13.2852 8.57227C13.2848 9.28079 12.7105 9.85534 12.002 9.85547L11.8789 9.84961C11.2709 9.79195 10.7864 9.30993 10.7246 8.70312L10.7178 8.57227L10.7246 8.44043C10.7905 7.79339 11.3375 7.28809 12.002 7.28809L12.1328 7.29395Z" fill="black"/>
<path fill-rule="evenodd" clip-rule="evenodd" d="M12.002 3.43066C14.8409 3.43089 17.1426 5.73327 17.1426 8.57227C17.1421 11.4108 14.8406 13.7127 12.002 13.7129C9.16323 13.7128 6.86084 11.4109 6.86035 8.57227C6.86035 5.73321 9.16293 3.4308 12.002 3.43066ZM12.002 5.1416C10.1073 5.14173 8.57129 6.67762 8.57129 8.57227C8.57178 10.4665 10.1076 12.0028 12.002 12.0029C13.8962 12.0027 15.4321 10.4664 15.4326 8.57227C15.4326 6.67767 13.8965 5.14183 12.002 5.1416Z" fill="black"/>
<path fill-rule="evenodd" clip-rule="evenodd" d="M16.7773 0.000976562C18.8723 0.00121474 20.5702 1.70094 20.5703 3.7959V13.3477C20.5698 15.4423 18.8721 17.1404 16.7773 17.1406H12.8574V20.0869L16.7275 22.4092C17.1323 22.6522 17.2633 23.1782 17.0205 23.583C16.7775 23.9875 16.2524 24.1187 15.8477 23.876L12.001 21.5674L8.15527 23.876C7.7505 24.1184 7.22531 23.9876 6.98242 23.583C6.7396 23.1782 6.87163 22.6522 7.27637 22.4092L11.1465 20.0869V17.1406H7.22559C5.1309 17.1403 3.43214 15.4423 3.43164 13.3477V3.7959C3.4318 1.70097 5.13069 0.00126994 7.22559 0.000976562H16.7773ZM7.22559 1.71289C6.0751 1.71318 5.14274 2.64538 5.14258 3.7959V13.3477C5.14308 14.4979 6.07531 15.4304 7.22559 15.4307H16.7773C17.9277 15.4304 18.8598 14.4979 18.8604 13.3477V3.7959C18.8602 2.64535 17.9279 1.71313 16.7773 1.71289H7.22559Z" fill="black"/>
</svg>
