<svg width="24" height="24" viewBox="0 0 24 24" fill="none" xmlns="http://www.w3.org/2000/svg">
<path d="M12.002 13.2881C12.7092 13.2901 13.2812 13.8646 13.2812 14.5723C13.2809 15.277 12.7132 15.8483 12.0098 15.8545C12.006 15.8545 12.0018 15.8555 11.998 15.8555C11.3338 15.8552 10.7875 15.3501 10.7217 14.7031L10.7148 14.5723L10.7217 14.4404C10.7873 13.7961 11.3295 13.2923 11.9902 13.2881H12.002Z" fill="black"/>
<path fill-rule="evenodd" clip-rule="evenodd" d="M11.998 8.57324C15.3105 8.57324 17.9959 11.2589 17.9961 14.5713C17.9961 17.8839 15.3106 20.5693 11.998 20.5693C8.68567 20.5692 6 17.8838 6 14.5713C6.00015 11.259 8.68575 8.57339 11.998 8.57324ZM11.998 10.2842C9.63016 10.2843 7.71109 12.2034 7.71094 14.5713C7.71094 16.9394 9.63005 18.8592 11.998 18.8594C14.3662 18.8594 16.2861 16.9395 16.2861 14.5713C16.286 12.2033 14.3661 10.2842 11.998 10.2842Z" fill="black"/>
<path d="M12.002 3.9043C12.7092 3.90627 13.2812 4.4808 13.2812 5.18848C13.2809 5.89325 12.7132 6.46454 12.0098 6.4707C12.006 6.47075 12.0018 6.47168 11.998 6.47168C11.3338 6.47143 10.7875 5.96629 10.7217 5.31934L10.7148 5.18848L10.7217 5.05664C10.7873 4.4123 11.3295 3.90849 11.9902 3.9043H12.002Z" fill="black"/>
<path fill-rule="evenodd" clip-rule="evenodd" d="M19.7129 0.000976562C21.1315 0.00124044 22.282 1.15267 22.2822 2.57129V21.4287C22.282 22.8473 21.1315 23.9978 19.7129 23.998H4.28418C2.86558 23.9978 1.71413 22.8474 1.71387 21.4287V2.57129C1.71409 1.15264 2.86555 0.00120267 4.28418 0.000976562H19.7129ZM4.28418 1.71289C3.80995 1.71312 3.42601 2.09705 3.42578 2.57129V21.4287C3.42604 21.9029 3.80996 22.2879 4.28418 22.2881H19.7129C20.1871 22.2878 20.572 21.9029 20.5723 21.4287V2.57129C20.572 2.09707 20.1871 1.71315 19.7129 1.71289H4.28418Z" fill="black"/>
</svg>
