<svg width="24" height="24" viewBox="0 0 24 24" fill="none" xmlns="http://www.w3.org/2000/svg">
<path d="M15.4292 16.2881C15.9012 16.2882 16.2836 16.6714 16.2836 17.1436C16.2834 17.6154 15.9011 17.9989 15.4292 17.999H12.8559V21.4297C12.8554 21.9015 12.4723 22.2842 12.0004 22.2842C11.5286 22.2841 11.1455 21.9014 11.145 21.4297V17.999H8.57173C8.09985 17.9988 7.71653 17.6154 7.71627 17.1436C7.71627 16.6715 8.09969 16.2883 8.57173 16.2881H15.4292Z" fill="black"/>
<path d="M6.53853 12.3125C7.00905 11.9289 7.6882 11.9288 8.15865 12.3125L8.2563 12.4004L8.3442 12.498C8.75514 13.0021 8.72589 13.7459 8.2563 14.2158C8.2325 14.2396 8.20688 14.2608 8.18111 14.2812C7.67685 14.7145 6.91682 14.6935 6.43892 14.2158C5.93784 13.7146 5.93795 12.9016 6.43892 12.4004L6.50435 12.3418C6.50739 12.3393 6.51008 12.3364 6.51314 12.334L6.53853 12.3125Z" fill="black"/>
<path d="M15.8442 12.3125C16.3146 11.9288 16.9938 11.929 17.4643 12.3125L17.4848 12.3311C17.5122 12.3524 17.5388 12.3752 17.5639 12.4004C18.065 12.9017 18.0651 13.7146 17.5639 14.2158C17.0858 14.6937 16.325 14.7151 15.8208 14.2812C15.7952 14.261 15.7702 14.2394 15.7465 14.2158C15.2458 13.7146 15.2457 12.9016 15.7465 12.4004L15.8442 12.3125Z" fill="black"/>
<path d="M12.1313 10.2939C12.7788 10.3595 13.2836 10.9075 13.2836 11.5723C13.2833 12.2809 12.7091 12.8555 12.0004 12.8555L11.8774 12.8496C11.2696 12.7917 10.7848 12.3098 10.7231 11.7031L10.7163 11.5723L10.7231 11.4404C10.789 10.7935 11.3362 10.2883 12.0004 10.2881L12.1313 10.2939Z" fill="black"/>
<path d="M3.50533 9.28125C3.97584 8.89788 4.65507 8.89764 5.12544 9.28125L5.2231 9.36914L5.31099 9.4668C5.69752 9.94076 5.69441 10.6268 5.3022 11.0977C5.27918 11.1278 5.25459 11.158 5.22701 11.1855C4.72576 11.6862 3.91267 11.6864 3.41158 11.1855C2.93857 10.7125 2.9126 9.96133 3.33248 9.45703C3.35554 9.42678 3.38004 9.39678 3.40767 9.36914L3.50533 9.28125Z" fill="black"/>
<path d="M18.7739 9.36914C19.2438 8.89987 19.9866 8.8707 20.4907 9.28125L20.5102 9.29883C20.5382 9.32058 20.5656 9.34441 20.5913 9.37012C21.092 9.87139 21.0922 10.6844 20.5913 11.1855C20.1128 11.6635 19.3505 11.6844 18.8461 11.249C18.821 11.229 18.7961 11.2078 18.7729 11.1846C18.2723 10.6834 18.2731 9.87026 18.7739 9.36914Z" fill="black"/>
<path d="M12.1313 6.00781C12.7788 6.07338 13.2836 6.62137 13.2836 7.28613C13.2833 7.99474 12.7091 8.56934 12.0004 8.56934L11.8774 8.56348C11.2696 8.50556 10.7848 8.02363 10.7231 7.41699L10.7163 7.28613L10.7231 7.1543C10.789 6.50737 11.3362 6.00213 12.0004 6.00195L12.1313 6.00781Z" fill="black"/>
<path d="M0.477984 6.25098C0.948482 5.86744 1.62765 5.86736 2.0981 6.25098L2.19576 6.33887L2.28365 6.43652C2.69489 6.94058 2.66549 7.6843 2.19576 8.1543C2.17245 8.1776 2.1477 8.1987 2.12252 8.21875C1.61831 8.6535 0.85682 8.63339 0.378375 8.15527C-0.122662 7.65415 -0.122426 6.84112 0.378375 6.33984L0.443804 6.28125L0.446734 6.27832L0.477984 6.25098Z" fill="black"/>
<path d="M21.9047 6.25098C22.3753 5.86716 23.0544 5.8677 23.5249 6.25098L23.5502 6.27344C23.5757 6.29365 23.5999 6.31632 23.6235 6.33984C24.1249 6.84109 24.1248 7.65303 23.6235 8.1543C23.1449 8.63267 22.3834 8.65399 21.8794 8.21875C21.8544 8.19883 21.8302 8.17742 21.8071 8.1543C21.3064 7.65316 21.3064 6.84104 21.8071 6.33984L21.9047 6.25098Z" fill="black"/>
<path d="M12.0004 1.71582C12.7093 1.71582 13.2836 2.29111 13.2836 3C13.2836 3.70883 12.7093 4.2832 12.0004 4.2832C11.3359 4.28303 10.7887 3.77812 10.7231 3.13086L10.7163 3L10.7231 2.86816C10.789 2.22124 11.3362 1.716 12.0004 1.71582Z" fill="black"/>
</svg>
