<svg width="24" height="24" viewBox="0 0 24 24" fill="none" xmlns="http://www.w3.org/2000/svg">
<path fill-rule="evenodd" clip-rule="evenodd" d="M10.3914 1.48787C11.039 0.134098 12.9803 0.190694 13.6024 1.48787L16.3289 6.98006L16.3445 7.01326C16.3457 7.0158 16.3488 7.02178 16.3543 7.02889C16.3603 7.03657 16.3683 7.04421 16.3748 7.0494C16.376 7.05029 16.3777 7.05078 16.3787 7.05135C16.3821 7.0518 16.3861 7.05279 16.3895 7.0533L22.4061 7.93123C23.8892 8.13257 24.4301 9.98429 23.3983 10.9771L23.3992 10.9781L19.0623 15.2808C19.0562 15.2869 19.05 15.2935 19.0438 15.2994C19.0422 15.3009 19.0357 15.3083 19.0311 15.3219L19.0272 15.3472L19.0281 15.3512L20.074 21.4019L20.0926 21.5416C20.2326 22.9636 18.679 23.9299 17.4617 23.2857L12.0662 20.4469C12.0264 20.4275 11.9674 20.4283 11.9275 20.4478L11.9266 20.4469L6.53204 23.2867L6.53106 23.2857C5.22498 23.9759 3.67166 22.8441 3.91974 21.4049L4.96564 15.2847L4.96661 15.2789C4.96691 15.2763 4.96706 15.2667 4.96271 15.2535C4.958 15.2396 4.9514 15.2314 4.95001 15.2301L4.94024 15.2213L0.551573 10.9869L0.552549 10.9859C-0.503139 9.97546 0.0866606 8.09007 1.59161 7.93026L7.60528 7.0533L7.61505 7.05233C7.61634 7.05146 7.61822 7.05074 7.61993 7.0494C7.62654 7.0442 7.63335 7.03668 7.63946 7.02889C7.64534 7.02137 7.64909 7.01573 7.65021 7.01326L7.66583 6.98006L10.3914 1.48787ZM11.9432 2.21346C11.9407 2.21491 11.9397 2.21674 11.9393 2.21737C11.9386 2.21814 11.9356 2.22144 11.9324 2.22811C11.9293 2.23484 11.926 2.24196 11.9227 2.24862L9.19708 7.73983L9.19513 7.73885C8.96258 8.23362 8.47158 8.66491 7.8504 8.74471L7.85138 8.74569L1.83478 9.62264C1.81586 9.6254 1.79621 9.628 1.77716 9.62948C1.7683 9.63022 1.76449 9.63142 1.76446 9.63143C1.76397 9.63166 1.76251 9.63273 1.76056 9.63436C1.75471 9.63937 1.742 9.65406 1.73321 9.67928C1.72443 9.70486 1.72512 9.72738 1.72735 9.73885L1.73419 9.75155L1.73907 9.75643L6.12774 13.9898C6.55287 14.3929 6.75059 14.9944 6.65021 15.5719L6.65118 15.5728L5.60528 21.692V21.6949C5.60373 21.7038 5.60429 21.7087 5.60724 21.7154C5.612 21.7261 5.62464 21.7436 5.6463 21.7594C5.66784 21.7749 5.68858 21.7815 5.70099 21.7828C5.70903 21.7836 5.71777 21.7832 5.73321 21.775L5.73614 21.773L11.1531 18.9234L11.1746 18.9127C11.6251 18.6917 12.1523 18.664 12.6219 18.8297L12.8192 18.9127L12.8406 18.9234L18.2576 21.773L18.2615 21.775C18.2716 21.7803 18.2799 21.7819 18.2918 21.7808C18.3076 21.7793 18.3303 21.772 18.3524 21.7564C18.3741 21.7411 18.3841 21.725 18.3875 21.7174C18.3891 21.7141 18.3919 21.7093 18.3895 21.6949L18.3885 21.6939L17.3436 15.6461C17.2416 15.071 17.439 14.4721 17.8592 14.068L17.8582 14.067L22.1951 9.76424L22.2127 9.74666C22.2169 9.74275 22.2189 9.741 22.2205 9.73397C22.223 9.72247 22.2235 9.7004 22.2156 9.67537C22.2079 9.65109 22.1961 9.6368 22.1902 9.63143C22.188 9.6294 22.1859 9.62778 22.1854 9.62752C22.1839 9.62691 22.18 9.62541 22.1736 9.62459C22.1692 9.62401 22.1644 9.62329 22.16 9.62264L16.1424 8.74569C15.5217 8.66531 15.0299 8.23339 14.7977 7.73885L14.7967 7.73983L12.0711 2.24862C12.0678 2.24198 12.0645 2.23483 12.0613 2.22811C12.059 2.22305 12.0576 2.21997 12.0516 2.21639C12.0414 2.21051 12.0205 2.2039 11.994 2.20369C11.9676 2.20356 11.9499 2.20957 11.9432 2.21346Z" fill="black"/>
</svg>
