<svg width="24" height="24" viewBox="0 0 24 24" fill="none" xmlns="http://www.w3.org/2000/svg">
<path fill-rule="evenodd" clip-rule="evenodd" d="M14.5703 6.85938C15.9889 6.85966 17.1394 8.01011 17.1396 9.42871V14.5723C17.1392 15.9907 15.9888 17.1413 14.5703 17.1416H9.42676C8.00824 17.1414 6.85784 15.9907 6.85742 14.5723V9.42871C6.85765 8.01007 8.00812 6.8596 9.42676 6.85938H14.5703ZM9.42676 8.57031C8.95253 8.57054 8.56859 8.95448 8.56836 9.42871V14.5723C8.56877 15.0463 8.95264 15.4314 9.42676 15.4316H14.5703C15.0444 15.4314 15.4293 15.0463 15.4297 14.5723V9.42871C15.4295 8.95452 15.0445 8.5706 14.5703 8.57031H9.42676Z" fill="black"/>
<path fill-rule="evenodd" clip-rule="evenodd" d="M11.998 0.000976562C18.6243 0.000976562 23.9959 5.3739 23.9961 12C23.9958 18.6261 18.6242 23.998 11.998 23.998C5.37211 23.9979 0.000263901 18.626 0 12C0.000151007 5.37399 5.37204 0.00112757 11.998 0.000976562ZM11.998 1.71289C6.31644 1.71304 1.71109 6.3184 1.71094 12C1.7112 17.6816 6.31651 22.2879 11.998 22.2881C17.6798 22.2881 22.2859 17.6817 22.2861 12C22.286 6.3183 17.6799 1.71289 11.998 1.71289Z" fill="black"/>
</svg>
