<svg width="24" height="24" viewBox="0 0 24 24" fill="none" xmlns="http://www.w3.org/2000/svg">
<path d="M18.002 18.002C18.474 18.0021 18.8574 18.3853 18.8574 18.8574C18.8572 19.3293 18.4739 19.7128 18.002 19.7129H6.00195C5.52991 19.7129 5.14675 19.3294 5.14648 18.8574C5.14648 18.3852 5.52975 18.002 6.00195 18.002H18.002Z" fill="black"/>
<path d="M18.002 14.5732C18.474 14.5734 18.8574 14.9566 18.8574 15.4287C18.8574 15.9008 18.474 16.284 18.002 16.2842H6.00195C5.52975 16.2842 5.14648 15.9009 5.14648 15.4287C5.14648 14.9565 5.52975 14.5732 6.00195 14.5732H18.002Z" fill="black"/>
<path d="M18.002 11.1445C18.474 11.1447 18.8574 11.5279 18.8574 12C18.8574 12.4721 18.474 12.8553 18.002 12.8555H6.00195C5.52975 12.8555 5.14648 12.4722 5.14648 12C5.14648 11.5278 5.52975 11.1445 6.00195 11.1445H18.002Z" fill="black"/>
<path d="M18.002 7.71582C18.474 7.71595 18.8574 8.09917 18.8574 8.57129C18.8574 9.04341 18.474 9.42663 18.002 9.42676H6.00195C5.52975 9.42676 5.14648 9.04349 5.14648 8.57129C5.14648 8.09909 5.52975 7.71582 6.00195 7.71582H18.002Z" fill="black"/>
<path d="M18.002 4.28809C18.474 4.28822 18.8574 4.67143 18.8574 5.14355C18.8572 5.61545 18.4739 5.99889 18.002 5.99902H6.00195C5.52991 5.99902 5.14675 5.61553 5.14648 5.14355C5.14648 4.67135 5.52975 4.28809 6.00195 4.28809H18.002Z" fill="black"/>
<path fill-rule="evenodd" clip-rule="evenodd" d="M18.4912 0.858398C20.5863 0.858464 22.285 2.55825 22.2852 4.65332V22.2861C22.2849 22.758 21.9025 23.1414 21.4307 23.1416H2.57324C2.1012 23.1416 1.71804 22.7581 1.71777 22.2861V4.65332C1.71793 2.55831 3.41671 0.85856 5.51172 0.858398H18.4912ZM5.51172 2.57031C4.36112 2.57047 3.42887 3.50272 3.42871 4.65332V21.4316H20.5752V4.65332C20.575 3.50266 19.6419 2.57038 18.4912 2.57031H5.51172Z" fill="black"/>
</svg>
