<svg width="24" height="24" viewBox="0 0 24 24" fill="none" xmlns="http://www.w3.org/2000/svg">
<path fill-rule="evenodd" clip-rule="evenodd" d="M21.4287 13.7158C21.9006 13.7162 22.2832 14.0993 22.2832 14.5713V20.5713C22.2832 21.9901 21.1326 23.1404 19.7139 23.1406H4.28516C2.86637 23.1404 1.71582 21.9901 1.71582 20.5713V14.5713C1.71582 14.0991 2.09909 13.7158 2.57129 13.7158C3.04327 13.7161 3.42676 14.0992 3.42676 14.5713V20.5713C3.42676 21.0457 3.81078 21.4304 4.28516 21.4307H7.71582V18.9111C7.71582 16.5455 9.63426 14.627 12 14.627C14.3654 14.6273 16.2832 16.5457 16.2832 18.9111V21.4307H19.7139C20.1882 21.4304 20.5732 21.0457 20.5732 20.5713V14.5713C20.5732 14.0991 20.9565 13.7158 21.4287 13.7158ZM12 16.3379C10.5786 16.3379 9.42676 17.4899 9.42676 18.9111V21.4307H14.5732V18.9111C14.5732 17.4901 13.4211 16.3382 12 16.3379Z" fill="black"/>
<path fill-rule="evenodd" clip-rule="evenodd" d="M18.8145 0.858398C19.8164 0.858493 20.7276 1.44262 21.1475 2.35254L23.0615 6.49902C23.0899 6.56048 23.1099 6.62607 23.123 6.69434C23.1246 6.7025 23.1266 6.71056 23.1279 6.71875C23.132 6.7435 23.1349 6.76853 23.1367 6.79395C23.1376 6.80599 23.1373 6.81802 23.1377 6.83008C23.138 6.83901 23.1396 6.84842 23.1396 6.85742V8.57129C23.1394 10.9368 21.222 12.8554 18.8564 12.8555C17.4541 12.8554 16.2093 12.1805 15.4277 11.1387C14.6465 12.1804 13.4022 12.8553 12 12.8555C10.5975 12.8555 9.35188 12.1806 8.57031 11.1387C7.78905 12.1804 6.5448 12.8553 5.14258 12.8555C2.77699 12.8555 0.858662 10.9368 0.858398 8.57129V6.85742C0.858398 6.81033 0.862787 6.76378 0.870117 6.71875C0.87139 6.71094 0.872531 6.7031 0.874023 6.69531C0.887205 6.62652 0.90889 6.56091 0.9375 6.49902L2.85156 2.35254C3.27152 1.44261 4.18243 0.858398 5.18457 0.858398H18.8145ZM2.56934 8.57129C2.5696 9.99241 3.7214 11.1455 5.14258 11.1455C6.56358 11.1453 7.71556 9.99228 7.71582 8.57129V7.71289H2.56934V8.57129ZM9.42676 8.57129C9.42702 9.99241 10.5788 11.1455 12 11.1455C13.417 11.1452 14.5657 9.99853 14.5723 8.58301V7.71289H9.42676V8.57129ZM16.2832 8.57129C16.2835 9.99233 17.4354 11.1454 18.8564 11.1455C20.2776 11.1454 21.4294 9.99237 21.4297 8.57129V7.71289H16.2832V8.57129ZM5.18457 2.57031C4.8494 2.57031 4.54474 2.76503 4.4043 3.06934L3.0498 6.00293H8.5498C8.55687 6.00276 8.56418 6.00195 8.57129 6.00195C8.57848 6.00196 8.58562 6.00275 8.59277 6.00293H15.4062C15.4136 6.00274 15.4214 6.00195 15.4287 6.00195C15.4359 6.00196 15.443 6.00275 15.4502 6.00293H20.9492L19.5947 3.06934C19.4544 2.76522 19.1495 2.57041 18.8145 2.57031H5.18457Z" fill="black"/>
</svg>
