<svg width="24" height="24" viewBox="0 0 24 24" fill="none" xmlns="http://www.w3.org/2000/svg">
<path d="M17.1436 11.1445C17.6156 11.1448 17.998 11.5279 17.998 12C17.998 12.4721 17.6156 12.8552 17.1436 12.8555H6.85742C6.38533 12.8553 6.00195 12.4721 6.00195 12C6.00195 11.5279 6.38533 11.1447 6.85742 11.1445H17.1436Z" fill="black"/>
<path fill-rule="evenodd" clip-rule="evenodd" d="M12 0.000976562C18.6262 0.000976562 23.9979 5.3739 23.998 12C23.9978 18.6261 18.6262 23.998 12 23.998C5.37418 23.9978 0.00221702 18.6259 0.00195312 12C0.00210413 5.37407 5.3741 0.0012595 12 0.000976562ZM12 1.71289C6.31851 1.71317 1.71304 6.31848 1.71289 12C1.71315 17.6815 6.31857 22.2878 12 22.2881C17.6817 22.2881 22.2878 17.6817 22.2881 12C22.2879 6.3183 17.6818 1.71289 12 1.71289Z" fill="black"/>
</svg>
