<svg width="24" height="24" viewBox="0 0 24 24" fill="none" xmlns="http://www.w3.org/2000/svg">
<path fill-rule="evenodd" clip-rule="evenodd" d="M16.2842 10.2881C16.7563 10.2882 17.1396 10.6714 17.1396 11.1436V19.7148C17.1394 20.1867 16.7561 20.5702 16.2842 20.5703H7.71289C7.24085 20.5703 6.85769 20.1868 6.85742 19.7148V11.1436C6.85742 10.6714 7.24069 10.2881 7.71289 10.2881H16.2842ZM8.56836 18.8604H15.4297V11.999H8.56836V18.8604Z" fill="black"/>
<path fill-rule="evenodd" clip-rule="evenodd" d="M17.998 0.000976562C19.4168 0.00110851 20.5672 1.15259 20.5674 2.57129V21.4287C20.5671 22.8474 19.4168 23.9979 17.998 23.998H5.99805C4.57942 23.9978 3.42897 22.8473 3.42871 21.4287V2.57129C3.42894 1.15264 4.5794 0.00120267 5.99805 0.000976562H17.998ZM5.99805 1.71289C5.52381 1.71312 5.13987 2.09705 5.13965 2.57129V21.4287C5.13991 21.9029 5.52383 22.2879 5.99805 22.2881H17.998C18.4723 22.288 18.8572 21.903 18.8574 21.4287V2.57129C18.8572 2.09699 18.4724 1.71302 17.998 1.71289H5.99805Z" fill="black"/>
</svg>
