<svg width="24" height="24" viewBox="0 0 24 24" fill="none" xmlns="http://www.w3.org/2000/svg">
<path d="M16.2861 16.2881C16.7583 16.2881 17.1416 16.6714 17.1416 17.1436C17.1413 17.6155 16.7582 17.999 16.2861 17.999H7.71484C7.2428 17.999 6.85964 17.6155 6.85938 17.1436C6.85938 16.6714 7.24264 16.2881 7.71484 16.2881H16.2861Z" fill="black"/>
<path fill-rule="evenodd" clip-rule="evenodd" d="M18 0.859375C19.4188 0.859375 20.5691 2.0109 20.5693 3.42969V8.57324C20.5689 9.99187 19.4187 11.1426 18 11.1426H12.8564V12.8604H20.5723C21.991 12.8605 23.1414 14.011 23.1416 15.4297V20.5732C23.1412 21.9918 21.9909 23.1424 20.5723 23.1426H19.5674C18.8862 23.1425 18.2327 22.8712 17.751 22.3896L17.041 21.6797C16.8799 21.5186 16.6614 21.4278 16.4336 21.4277H6.95898C6.69554 21.4277 6.45475 21.5769 6.33691 21.8125C5.92942 22.6271 5.0964 23.1424 4.18555 23.1426H3.42871C2.01018 23.1424 0.85979 21.9917 0.859375 20.5732V15.4297C0.859601 14.011 2.01007 12.8606 3.42871 12.8604H11.1455V11.1426H6C4.58158 11.1422 3.43108 9.99165 3.43066 8.57324V3.42969C3.43089 2.01112 4.58147 0.859733 6 0.859375H18ZM3.42871 14.5713C2.95447 14.5715 2.57054 14.9554 2.57031 15.4297V20.5732C2.57073 21.0473 2.95459 21.4324 3.42871 21.4326H4.18555C4.4487 21.4324 4.68979 21.2831 4.80762 21.0479C5.21511 20.2329 6.04784 19.7178 6.95898 19.7178H16.4336C17.1149 19.7178 17.7682 19.9889 18.25 20.4707L18.96 21.1807C19.121 21.3416 19.3397 21.4325 19.5674 21.4326H20.5723C21.0465 21.4325 21.4312 21.0474 21.4316 20.5732V15.4297C21.4314 14.9554 21.0466 14.5714 20.5723 14.5713H3.42871ZM6 2.57129C5.52587 2.57165 5.14183 2.95553 5.1416 3.42969V8.57324C5.14202 9.04724 5.52599 9.43226 6 9.43262H11.957C11.9714 9.43189 11.9864 9.43066 12.001 9.43066C12.0157 9.43067 12.0303 9.43187 12.0449 9.43262H18C18.4743 9.43262 18.859 9.04746 18.8594 8.57324V3.42969C18.8591 2.95531 18.4744 2.57129 18 2.57129H6Z" fill="black"/>
</svg>
