<svg width="24" height="24" viewBox="0 0 24 24" fill="none" xmlns="http://www.w3.org/2000/svg">
<path d="M17.1402 16.2871C17.1711 16.2871 17.2019 16.2888 17.232 16.292L17.3169 16.2969C18.1755 16.3854 18.855 17.1207 18.855 18.001C18.8546 18.8809 18.1753 19.6147 17.3169 19.7031L17.1431 19.7129L16.98 19.7041C16.1737 19.6264 15.5231 18.9796 15.44 18.1748L15.4361 18.1182C15.4307 18.0795 15.4283 18.0401 15.4283 18C15.4283 17.9592 15.4306 17.9191 15.4361 17.8799L15.44 17.8271C15.5251 16.9983 16.212 16.3373 17.0513 16.292H17.0533C17.0819 16.2891 17.1108 16.2871 17.1402 16.2871Z" fill="black"/>
<path fill-rule="evenodd" clip-rule="evenodd" d="M17.1421 0.00195312C19.0344 0.00195312 20.5688 1.53737 20.5689 3.42969V13.0811C22.1209 14.1639 23.1401 15.9621 23.1402 18.001C23.1399 21.3134 20.4546 23.999 17.1421 23.999C13.8301 23.9987 11.1444 21.3131 11.1441 18.001C11.1442 15.962 12.1642 14.1629 13.7164 13.0801V3.42969C13.7164 1.53761 15.2501 0.0023141 17.1421 0.00195312ZM17.1421 1.71387C16.1945 1.71423 15.4264 2.48201 15.4263 3.42969V13.5469C15.426 13.8515 15.2632 14.1334 14.9996 14.2861C13.716 15.0288 12.8551 16.4153 12.855 18.001C12.8553 20.3687 14.7745 22.2887 17.1421 22.2891C19.5102 22.2891 21.43 20.3689 21.4302 18.001C21.4301 16.4151 20.5695 15.0288 19.2857 14.2861C19.0219 14.1334 18.8593 13.8516 18.8589 13.5469V3.42969C18.8589 2.4818 18.09 1.71387 17.1421 1.71387Z" fill="black"/>
<path d="M5.17046 0.00292969C5.18025 0.00324482 5.18998 0.00423335 5.19975 0.00488281C5.24408 0.00780428 5.28741 0.0140106 5.32964 0.0234375C5.33581 0.024814 5.34205 0.0258293 5.34819 0.0273438C5.39292 0.0383821 5.43642 0.0525426 5.47808 0.0703125C5.47996 0.0711157 5.48205 0.0714483 5.48393 0.0722656L5.55034 0.105469C5.56849 0.115324 5.58575 0.126595 5.60308 0.137695C5.65403 0.17036 5.70306 0.208381 5.74761 0.25293L9.17632 3.68164C9.50969 4.01556 9.50998 4.55689 9.17632 4.89062C8.84257 5.22416 8.30121 5.22396 7.96733 4.89062L5.99858 2.92188V14.5723C5.99832 15.0441 5.615 15.4275 5.14311 15.4277C4.67107 15.4277 4.28791 15.0442 4.28765 14.5723V2.92188L2.3189 4.89062C1.9851 5.22414 1.44375 5.22407 1.10991 4.89062C0.776101 4.55681 0.776277 4.01556 1.10991 3.68164L4.52788 0.262695C4.54568 0.244316 4.56515 0.227669 4.58452 0.210938L4.60307 0.194336C4.64803 0.157639 4.69579 0.125778 4.74565 0.0996094C4.78216 0.080441 4.82054 0.0645905 4.85991 0.0507812C4.86906 0.0475784 4.87802 0.0438981 4.88725 0.0410156C4.92922 0.027888 4.97267 0.0182729 5.01714 0.0117188C5.02397 0.010708 5.03079 0.00963394 5.03765 0.00878906C5.0721 0.00456152 5.10753 0.00195312 5.14311 0.00195312C5.15226 0.00195673 5.16138 0.00264046 5.17046 0.00292969Z" fill="black"/>
</svg>
