<svg width="24" height="24" viewBox="0 0 24 24" fill="none" xmlns="http://www.w3.org/2000/svg">
<path d="M1.71387 12.0021C2.18601 12.0021 2.56934 12.3854 2.56934 12.8575V17.1446H5.14258C6.56124 17.1448 7.71163 18.2953 7.71191 19.714V22.2862C7.71169 22.7582 7.32845 23.1407 6.85645 23.1407C6.38451 23.1406 6.00218 22.7582 6.00195 22.2862V19.714C6.00167 19.2397 5.61686 18.8557 5.14258 18.8556H2.56934V22.2862C2.56905 22.7582 2.18584 23.1407 1.71387 23.1407C1.24184 23.1407 0.858683 22.7582 0.858398 22.2862V12.8575C0.858398 12.3853 1.24166 12.0021 1.71387 12.0021Z" fill="black"/>
<path fill-rule="evenodd" clip-rule="evenodd" d="M11.4863 1.03135C11.7903 0.803352 12.2087 0.803352 12.5127 1.03135L22.7979 8.74522C23.092 8.96599 23.2128 9.35038 23.0967 9.69932C22.9802 10.0482 22.653 10.2842 22.2852 10.2843H12.8545V22.2862C12.8543 22.7583 12.4711 23.1407 11.999 23.1407C11.5271 23.1405 11.1437 22.7582 11.1436 22.2862V10.2843H1.71387C1.34598 10.2843 1.01883 10.0482 0.902344 9.69932C0.786192 9.35033 0.906941 8.96596 1.20117 8.74522L11.4863 1.03135ZM4.27832 8.57432H11.9814C11.9873 8.5742 11.9931 8.57335 11.999 8.57334C12.0048 8.57334 12.0109 8.57421 12.0166 8.57432H19.7207L11.999 2.7833L4.27832 8.57432Z" fill="black"/>
<path d="M22.2852 12.0021C22.7574 12.0021 23.1406 12.3853 23.1406 12.8575V22.2862C23.1403 22.7582 22.7572 23.1407 22.2852 23.1407C21.8131 23.1407 21.43 22.7582 21.4297 22.2862V18.8556H18.8564C18.3822 18.8558 17.9983 19.2398 17.998 19.714V22.2862C17.9978 22.7582 17.6145 23.1406 17.1426 23.1407C16.6705 23.1407 16.2873 22.7582 16.2871 22.2862V19.714C16.2874 18.2953 17.4378 17.1449 18.8564 17.1446H21.4297V12.8575C21.4297 12.3853 21.813 12.0021 22.2852 12.0021Z" fill="black"/>
</svg>
