<svg width="24" height="24" viewBox="0 0 24 24" fill="none" xmlns="http://www.w3.org/2000/svg">
<path d="M17.1404 16.2871C17.1707 16.2871 17.2008 16.2889 17.2303 16.292C18.1289 16.3388 18.8533 17.0916 18.8533 18.001C18.8529 18.9103 18.1281 19.6607 17.2293 19.707C17.2007 19.7099 17.1718 19.7129 17.1424 19.7129C17.1355 19.7129 17.1277 19.7111 17.1209 19.7109C16.2502 19.7002 15.5272 19.0263 15.4393 18.1748L15.4354 18.1084C15.4309 18.0729 15.4275 18.0367 15.4275 18C15.4275 17.9626 15.4307 17.9258 15.4354 17.8896L15.4393 17.8271C15.5244 16.9979 16.2117 16.3367 17.0516 16.292H17.0535C17.0821 16.2891 17.1111 16.2871 17.1404 16.2871Z" fill="black"/>
<path fill-rule="evenodd" clip-rule="evenodd" d="M17.1414 0.000976562C19.0337 0.000976562 20.5681 1.53639 20.5682 3.42871V13.0801C22.1201 14.1629 23.1394 15.9612 23.1395 18C23.1392 21.3124 20.4539 23.998 17.1414 23.998C13.8293 23.9978 11.1436 21.3123 11.1434 18C11.1435 15.9609 12.1633 14.1619 13.7156 13.0791V3.42871C13.7157 1.53654 15.2493 0.00119117 17.1414 0.000976562ZM17.1414 1.71289C16.1937 1.71311 15.4257 2.48095 15.4256 3.42871V13.5459C15.4253 13.8506 15.2625 14.1324 14.9988 14.2852C13.7152 15.0278 12.8544 16.4142 12.8543 18C12.8546 20.3678 14.7736 22.2879 17.1414 22.2881C19.5095 22.2881 21.4292 20.368 21.4295 18C21.4294 16.4141 20.5687 15.0278 19.285 14.2852C19.0212 14.1325 18.8585 13.8507 18.8582 13.5459V3.42871C18.8581 2.48082 18.0893 1.71289 17.1414 1.71289Z" fill="black"/>
<path d="M7.10919 1.11035C7.44309 0.776523 7.9843 0.776477 8.31817 1.11035C8.65155 1.44427 8.65184 1.9856 8.31817 2.31934L6.85431 3.7832V5.14551H8.21563L9.6795 3.68164C10.0134 3.34774 10.5556 3.34774 10.8895 3.68164C11.2229 4.01548 11.2229 4.55684 10.8895 4.89062L9.77911 6L10.8895 7.11035C11.2228 7.44422 11.223 7.98558 10.8895 8.31934C10.5556 8.65283 10.0133 8.65299 9.6795 8.31934L8.21563 6.85547H6.85431V8.2168L8.31817 9.68066C8.65183 10.0145 8.65183 10.5568 8.31817 10.8906C7.98444 11.2241 7.44306 11.2239 7.10919 10.8906L5.99884 9.78027L4.88946 10.8906C4.5557 11.2241 4.01432 11.224 3.68048 10.8906C3.34658 10.5567 3.34658 10.0146 3.68048 9.68066L5.14435 8.2168V6.85547H3.78204L2.3172 8.31934C1.98328 8.65265 1.44193 8.65298 1.10821 8.31934C0.7745 7.98562 0.77487 7.44429 1.10821 7.11035L2.21661 6L1.10821 4.89062C0.774477 4.55689 0.774801 4.01558 1.10821 3.68164C1.44211 3.34774 1.9833 3.34774 2.3172 3.68164L3.78204 5.14551H5.14435V3.7832L3.68048 2.31934C3.3466 1.98546 3.34664 1.44425 3.68048 1.11035C4.01438 0.776453 4.55556 0.776453 4.88946 1.11035L5.99884 2.21875L7.10919 1.11035Z" fill="black"/>
</svg>
