<svg width="24" height="24" viewBox="0 0 24 24" fill="none" xmlns="http://www.w3.org/2000/svg">
<path d="M17.1401 16.2871C17.17 16.2871 17.1999 16.289 17.229 16.292C18.1289 16.3373 18.855 17.0906 18.855 18.001C18.8546 18.9103 18.1297 19.6607 17.231 19.707C17.2024 19.7099 17.1734 19.7129 17.144 19.7129C17.1372 19.7129 17.1294 19.7111 17.1226 19.7109C16.2518 19.7002 15.5289 19.0263 15.4409 18.1748L15.438 18.124C15.4321 18.0835 15.4282 18.0422 15.4282 18C15.4282 17.9572 15.4319 17.9152 15.438 17.874L15.4409 17.8271C15.5261 16.9979 16.2134 16.3367 17.0532 16.292C17.0818 16.2891 17.1108 16.2871 17.1401 16.2871Z" fill="black"/>
<path fill-rule="evenodd" clip-rule="evenodd" d="M17.1431 0.000976562C19.0353 0.000976562 20.5698 1.53639 20.5698 3.42871V13.0801C22.1218 14.1629 23.141 15.9612 23.1411 18C23.1409 21.3124 20.4555 23.998 17.1431 23.998C13.8309 23.9978 11.1453 21.3123 11.145 18C11.1451 15.9609 12.165 14.1619 13.7173 13.0791V3.42871C13.7174 1.53654 15.2509 0.0011886 17.1431 0.000976562ZM17.1431 1.71289C16.1953 1.7131 15.4273 2.48094 15.4273 3.42871V13.5459C15.4269 13.8506 15.2641 14.1324 15.0005 14.2852C13.7169 15.0278 12.8561 16.4142 12.856 18C12.8562 20.3678 14.7753 22.2879 17.1431 22.2881C19.5111 22.2881 21.4309 20.368 21.4312 18C21.4311 16.4141 20.5704 15.0278 19.2866 14.2852C19.0228 14.1325 18.8602 13.8507 18.8599 13.5459V3.42871C18.8598 2.48082 18.0909 1.71289 17.1431 1.71289Z" fill="black"/>
<path fill-rule="evenodd" clip-rule="evenodd" d="M5.99366 0.847656C6.46586 0.847656 6.84913 1.23092 6.84913 1.70312V3.11523C7.30567 3.25103 7.71524 3.49348 8.05225 3.8125L9.27784 3.10547C9.6867 2.86978 10.2098 3.0092 10.4458 3.41797C10.6817 3.82677 10.541 4.34978 10.1323 4.58594L8.90674 5.29297C8.95989 5.51638 8.99168 5.74863 8.99171 5.98828C8.99171 6.22794 8.95988 6.46018 8.90674 6.68359L10.1323 7.3916C10.5408 7.62781 10.6817 8.15081 10.4458 8.55957C10.2098 8.96813 9.68661 9.10759 9.27784 8.87207L8.05128 8.16406C7.71442 8.48276 7.30536 8.72462 6.84913 8.86035V10.2744C6.84886 10.7464 6.4657 11.1299 5.99366 11.1299C5.52173 11.1298 5.13845 10.7463 5.13819 10.2744V8.86035C4.68195 8.72463 4.27196 8.48372 3.93507 8.16504L2.71143 8.87207C2.30269 9.10771 1.77958 8.96806 1.54346 8.55957C1.30749 8.15086 1.44756 7.62789 1.85596 7.3916L3.0796 6.68457C3.02634 6.46093 2.99561 6.22821 2.99561 5.98828C2.99563 5.74836 3.02632 5.51563 3.0796 5.29199L1.85596 4.58594C1.44749 4.34972 1.30759 3.82671 1.54346 3.41797C1.77959 3.00933 2.30262 2.86963 2.71143 3.10547L3.93507 3.81152C4.27202 3.49276 4.68187 3.25096 5.13819 3.11523V1.70312C5.13819 1.231 5.52156 0.847783 5.99366 0.847656ZM5.99366 4.70117C5.28262 4.70132 4.7067 5.27724 4.70655 5.98828C4.70655 6.69945 5.28252 7.27622 5.99366 7.27637C6.70486 7.2763 7.28174 6.6995 7.28174 5.98828C7.28159 5.27719 6.70477 4.70124 5.99366 4.70117Z" fill="black"/>
</svg>
