<svg width="24" height="24" viewBox="0 0 24 24" fill="none" xmlns="http://www.w3.org/2000/svg">
<path d="M12.1406 16.2871C12.1716 16.2871 12.2023 16.2888 12.2324 16.292L12.3154 16.2969C13.1742 16.3852 13.8535 17.1205 13.8535 18.001C13.8531 18.9102 13.1281 19.6606 12.2295 19.707C12.2007 19.71 12.1712 19.7129 12.1416 19.7129L11.9785 19.7041C11.1724 19.6262 10.5216 18.9795 10.4385 18.1748L10.4336 18.0977C10.4299 18.0656 10.4277 18.033 10.4277 18C10.4277 17.9663 10.4298 17.9331 10.4336 17.9004L10.4385 17.8271C10.5236 16.9978 11.2118 16.3366 12.0518 16.292C12.0807 16.289 12.1109 16.2871 12.1406 16.2871Z" fill="black"/>
<path fill-rule="evenodd" clip-rule="evenodd" d="M12.1416 0.000976562C14.0338 0.00104254 15.5683 1.53644 15.5684 3.42871V13.0801C17.1202 14.1629 18.1396 15.9613 18.1396 18C18.1394 21.3123 15.454 23.998 12.1416 23.998C8.82938 23.9979 6.14382 21.3123 6.14355 18C6.14365 15.9609 7.16344 14.1619 8.71582 13.0791V3.42871C8.7159 1.5365 10.2494 0.00112728 12.1416 0.000976562ZM12.1416 1.71289C11.1938 1.71304 10.4259 2.48091 10.4258 3.42871V13.5459C10.4254 13.8506 10.2626 14.1324 9.99902 14.2852C8.7153 15.0278 7.85459 16.4141 7.85449 18C7.85476 20.3679 9.77377 22.2879 12.1416 22.2881C14.5096 22.288 16.4294 20.3679 16.4297 18C16.4296 16.4142 15.5688 15.0278 14.2852 14.2852C14.0214 14.1325 13.8587 13.8507 13.8584 13.5459V3.42871C13.8583 2.48086 13.0894 1.71296 12.1416 1.71289Z" fill="black"/>
<path d="M6.00098 10.2881C6.47312 10.2882 6.85547 10.6714 6.85547 11.1436C6.85521 11.6155 6.47295 11.9989 6.00098 11.999H2.57227C2.10034 11.9989 1.71706 11.6155 1.7168 11.1436C1.7168 10.6714 2.10017 10.2882 2.57227 10.2881H6.00098Z" fill="black"/>
<path d="M6.00098 6.00195C6.47312 6.00203 6.85547 6.38526 6.85547 6.85742C6.85521 7.32935 6.47295 7.71282 6.00098 7.71289H2.57227C2.10034 7.71276 1.71706 7.32932 1.7168 6.85742C1.7168 6.3853 2.10017 6.00209 2.57227 6.00195H6.00098Z" fill="black"/>
<path d="M6.00098 1.71582C6.47312 1.7159 6.85547 2.09913 6.85547 2.57129C6.85547 3.04345 6.47312 3.42668 6.00098 3.42676H2.57227C2.10017 3.42663 1.7168 3.04341 1.7168 2.57129C1.7168 2.09917 2.10017 1.71595 2.57227 1.71582H6.00098Z" fill="black"/>
</svg>
