<svg width="24" height="24" viewBox="0 0 24 24" fill="none" xmlns="http://www.w3.org/2000/svg">
<path fill-rule="evenodd" clip-rule="evenodd" d="M7.28906 0.858398C9.41812 0.858398 11.1445 2.58578 11.1445 4.71484V5.14355C11.1442 5.61547 10.7611 5.99805 10.2891 5.99805C9.81707 5.99805 9.43393 5.61547 9.43359 5.14355V4.71484C9.43359 3.53019 8.47372 2.57031 7.28906 2.57031C6.10441 2.57031 5.14453 3.53019 5.14453 4.71484V13.7158H22.2891C22.7612 13.716 23.1445 14.0992 23.1445 14.5713V17.1426C23.1445 20.4551 20.4589 23.1404 17.1465 23.1406H6.86035C3.54797 23.1405 0.862305 20.4551 0.862305 17.1426V14.5713C0.862305 14.0991 1.24557 13.7158 1.71777 13.7158H3.43359V4.71484C3.43359 2.58578 5.16 0.858398 7.28906 0.858398ZM2.57324 17.1426C2.57324 19.5107 4.49236 21.4305 6.86035 21.4307H17.1465C19.5145 21.4305 21.4346 19.5106 21.4346 17.1426V15.4268H2.57324V17.1426Z" fill="black"/>
<path d="M10.2891 8.57324C10.7613 8.57324 11.1445 8.95651 11.1445 9.42871V11.1426C11.1445 11.6148 10.7613 11.998 10.2891 11.998C9.81686 11.998 9.43359 11.6148 9.43359 11.1426V9.42871C9.43359 8.95651 9.81686 8.57324 10.2891 8.57324Z" fill="black"/>
</svg>
