<svg width="24" height="24" viewBox="0 0 24 24" fill="none" xmlns="http://www.w3.org/2000/svg">
<path fill-rule="evenodd" clip-rule="evenodd" d="M15.4277 9.43066C17.0141 9.43084 18.3984 10.2944 19.1377 11.5723C19.2904 11.8367 19.2912 12.1632 19.1387 12.4277C18.986 12.6922 18.7028 12.8553 18.3975 12.8555H17.1426C16.668 12.8555 16.2832 13.2403 16.2832 13.7148C16.2835 14.1891 16.6682 14.5742 17.1426 14.5742H18.3975C18.7029 14.5744 18.9861 14.7374 19.1387 15.002C19.2909 15.2665 19.2906 15.5932 19.1377 15.8574C18.3983 17.1351 17.0139 17.9979 15.4277 17.998C14.0255 17.998 12.7815 17.3232 12.001 16.2842H5.99902C4.58045 16.284 3.43003 15.1334 3.42969 13.7148C3.42969 12.296 4.58024 11.1457 5.99902 11.1455H12.001C12.7815 10.1061 14.0252 9.43075 15.4277 9.43066ZM15.4277 11.1416C14.4763 11.1417 13.6445 11.6573 13.1982 12.4287C13.0455 12.6926 12.7629 12.8553 12.458 12.8555H5.99902C5.52465 12.8557 5.14062 13.2404 5.14062 13.7148C5.14096 14.189 5.52485 14.574 5.99902 14.5742H12.458L12.5713 14.5811C12.8316 14.6159 13.0646 14.77 13.1982 15.001C13.6446 15.772 14.4766 16.288 15.4277 16.2881C15.7317 16.288 16.024 16.2346 16.2949 16.1377C15.293 15.7873 14.5735 14.8363 14.5732 13.7148C14.5732 12.5931 15.2927 11.6414 16.2949 11.291C16.0241 11.1942 15.7317 11.1417 15.4277 11.1416Z" fill="black"/>
<path fill-rule="evenodd" clip-rule="evenodd" d="M14.2031 0.858398C16.175 0.858647 17.7948 2.36424 17.9785 4.28809H20.2031C22.298 4.28835 23.9969 5.98709 23.9971 8.08203V19.3477C23.9968 21.4425 22.298 23.1413 20.2031 23.1416H3.79492C1.69998 23.1414 0.000274253 21.4426 0 19.3477V8.08203C0.000161934 5.98702 1.69992 4.28825 3.79492 4.28809H6.01855C6.20231 2.36418 7.82297 0.858551 9.79492 0.858398H14.2031ZM3.79492 5.99902C2.64432 5.99919 1.71208 6.93143 1.71191 8.08203V19.3477C1.71219 20.4982 2.64439 21.4315 3.79492 21.4316H20.2031C21.3536 21.4314 22.2868 20.4981 22.2871 19.3477V8.08203C22.2869 6.93149 21.3536 5.99929 20.2031 5.99902H3.79492ZM9.79492 2.57031C8.76893 2.57046 7.91879 3.31173 7.74609 4.28809H16.252C16.0791 3.31179 15.229 2.57055 14.2031 2.57031H9.79492Z" fill="black"/>
</svg>
