<svg width="24" height="24" viewBox="0 0 24 24" fill="none" xmlns="http://www.w3.org/2000/svg">
<path d="M4.81531 16.2911C5.20814 16.0292 5.73987 16.1357 6.00183 16.5284L6.57312 17.3858C6.83485 17.7786 6.72842 18.3094 6.33582 18.5714C5.94292 18.8331 5.41212 18.7269 5.15027 18.3341L4.57801 17.4776C4.31635 17.0848 4.42269 16.553 4.81531 16.2911Z" fill="black"/>
<path fill-rule="evenodd" clip-rule="evenodd" d="M17.2626 1.22468C18.4196 1.11017 19.581 1.3996 20.5487 2.04402L22.1971 3.13777L22.1981 3.13875C22.4749 3.32313 22.7075 3.56659 22.8788 3.85164C23.05 4.1367 23.1565 4.45627 23.1893 4.78718C23.2222 5.1181 23.1811 5.45255 23.0692 5.7657C22.9573 6.07885 22.777 6.36353 22.5419 6.59871C22.3995 6.74107 22.2112 6.82845 22.0106 6.84578L19.5614 7.05672V9.22761C19.5613 9.69961 19.1789 10.0819 18.7069 10.0821H16.6073V12.1856C16.6073 12.6578 16.224 13.041 15.7518 13.0411H13.6522V15.1368C13.6522 15.3634 13.5623 15.581 13.4022 15.7413L6.99988 22.1427C6.7647 22.3778 6.48005 22.558 6.16687 22.67C5.8539 22.7818 5.52007 22.8228 5.18933 22.7901C4.85834 22.7573 4.53793 22.6518 4.25281 22.4805C4.03913 22.3521 3.84892 22.1891 3.68933 21.9991L3.53992 21.7999L1.17664 18.255L1.17761 18.254C0.889405 17.8217 0.759354 17.3032 0.810427 16.7862C0.861597 16.2692 1.08963 15.7855 1.45691 15.418L14.2001 2.6739C15.0227 1.85168 16.1052 1.33938 17.2626 1.22468ZM2.66687 16.627C2.57907 16.7149 2.52392 16.8306 2.5116 16.9542C2.49938 17.0778 2.53059 17.2023 2.59949 17.3057L4.96277 20.8516L5.03894 20.9425C5.06763 20.9699 5.09944 20.9942 5.13367 21.0147C5.20178 21.0556 5.27825 21.081 5.3573 21.0889C5.43646 21.0968 5.51676 21.0864 5.59168 21.0596C5.66657 21.0329 5.73466 20.9899 5.7909 20.9337L9.01843 17.7052L6.04578 13.2462L2.66687 16.627ZM17.4315 2.92586C16.6672 3.00152 15.9523 3.33989 15.4091 3.88289L7.28015 12.0128L10.2518 16.4718L11.9423 14.7823V12.1856C11.9424 11.7137 12.3249 11.3314 12.7968 11.3311H14.8973V9.22761C14.8974 8.75548 15.2797 8.3722 15.7518 8.37214H17.8514V6.27254C17.8516 5.82892 18.1917 5.45909 18.6337 5.42097L21.4618 5.17683C21.4852 5.1057 21.4946 5.03074 21.4872 4.95613C21.4793 4.87698 21.4539 4.80068 21.413 4.7325C21.3723 4.66476 21.3174 4.60659 21.2518 4.56257L19.6034 3.46882L19.6024 3.46785C18.9633 3.04188 18.1959 2.85022 17.4315 2.92586Z" fill="black"/>
</svg>
