<svg width="24" height="24" viewBox="0 0 24 24" fill="none" xmlns="http://www.w3.org/2000/svg">
<path fill-rule="evenodd" clip-rule="evenodd" d="M12.002 0.000976562C15.184 0.000976563 18.2363 1.26657 20.4863 3.5166C22.736 5.76653 23.9999 8.81828 24 12C23.9999 15.1819 22.7362 18.2345 20.4863 20.4844C18.2363 22.7343 15.1839 23.998 12.002 23.998C8.82024 23.998 5.76848 22.7341 3.51855 20.4844C1.26863 18.2345 0.00403561 15.1819 0.00390625 12C0.00398032 8.81819 1.26874 5.76655 3.51855 3.5166C5.76852 1.26663 8.82002 0.00105063 12.002 0.000976562ZM12.002 1.71289C9.27354 1.71296 6.65682 2.7963 4.72754 4.72559C2.79841 6.65484 1.71492 9.27171 1.71484 12C1.71497 14.7282 2.79848 17.3452 4.72754 19.2744C6.6568 21.2035 9.27366 22.288 12.002 22.2881C14.7303 22.2881 17.347 21.2036 19.2764 19.2744C21.2056 17.3452 22.2899 14.7283 22.29 12C22.29 9.27171 21.2055 6.65484 19.2764 4.72559C17.347 2.79641 14.7303 1.71289 12.002 1.71289Z" fill="black"/>
</svg>
