<svg width="24" height="24" viewBox="0 0 24 24" fill="none" xmlns="http://www.w3.org/2000/svg">
<path fill-rule="evenodd" clip-rule="evenodd" d="M20.2031 1.71582C22.2981 1.71602 23.9969 3.41478 23.9971 5.50977V15.0615C23.9968 17.1564 22.2981 18.8543 20.2031 18.8545H17.6797C18.5275 19.4172 19.287 20.1021 19.9326 20.8838C20.2332 21.2478 20.1822 21.7872 19.8184 22.0879C19.4543 22.3886 18.9149 22.3367 18.6143 21.9727C17.0404 20.067 14.662 18.8555 12 18.8555C9.338 18.8555 6.95964 20.067 5.38574 21.9727C5.08505 22.3367 4.54573 22.3886 4.18164 22.0879C3.81777 21.7872 3.76676 21.2478 4.06738 20.8838C4.71303 20.1021 5.47249 19.4172 6.32031 18.8545H3.79492C1.69996 18.8543 0.00121364 17.1565 0.000976562 15.0615V5.50977C0.00113953 3.41476 1.69991 1.71598 3.79492 1.71582H20.2031ZM3.79492 3.42676C2.64432 3.42692 1.71208 4.35917 1.71191 5.50977V15.0615C1.71215 16.2121 2.64437 17.1444 3.79492 17.1445H20.2031C21.3536 17.1443 22.2869 16.212 22.2871 15.0615V5.50977C22.2869 4.35919 21.3537 3.42696 20.2031 3.42676H3.79492Z" fill="black"/>
</svg>
