<svg width="24" height="24" viewBox="0 0 24 24" fill="none" xmlns="http://www.w3.org/2000/svg">
<path fill-rule="evenodd" clip-rule="evenodd" d="M12.002 0.000976562C12.4742 0.000976562 12.8574 0.385218 12.8574 0.857422V2.61523C17.6094 3.0585 21.4286 7.14739 21.4287 12C21.4287 12.4722 21.0454 12.8555 20.5732 12.8555H12.8574V20.5713C12.8574 21.4996 13.645 22.2879 14.5732 22.2881C15.5017 22.2881 16.29 21.4997 16.29 20.5713C16.2901 20.0993 16.6726 19.7171 17.1445 19.7168C17.6167 19.7168 17.9999 20.0991 18 20.5713C18 22.4441 16.4461 23.998 14.5732 23.998C12.7006 23.9978 11.1465 22.444 11.1465 20.5713V12.8555H3.43066C2.95852 12.8554 2.5752 12.4722 2.5752 12C2.57527 7.14749 6.39459 3.05868 11.1465 2.61523V0.857422C11.1465 0.3853 11.5299 0.00110857 12.002 0.000976562ZM12.002 4.28418C8.09413 4.28432 4.77405 7.33675 4.33594 11.1455H11.9844C11.9902 11.1454 11.9961 11.1445 12.002 11.1445C12.0078 11.1445 12.0138 11.1454 12.0195 11.1455H19.668C19.2298 7.33671 15.9098 4.28418 12.002 4.28418Z" fill="black"/>
</svg>
