<svg width="24" height="24" viewBox="0 0 24 24" fill="none" xmlns="http://www.w3.org/2000/svg">
<path d="M13.2832 10.2881C13.7554 10.2881 14.1387 10.6714 14.1387 11.1436C14.1384 11.6155 13.7552 11.999 13.2832 11.999H10.7119C10.24 11.9989 9.85671 11.6155 9.85645 11.1436C9.85645 10.6714 10.2398 10.2882 10.7119 10.2881H13.2832Z" fill="black"/>
<path d="M12.8545 3.43066C13.3267 3.43066 13.71 3.81393 13.71 4.28613C13.7097 4.75811 13.3265 5.1416 12.8545 5.1416H11.1406C10.6686 5.1416 10.2854 4.75811 10.2852 4.28613C10.2852 3.81393 10.6684 3.43066 11.1406 3.43066H12.8545Z" fill="black"/>
<path fill-rule="evenodd" clip-rule="evenodd" d="M14.5693 0.000976562C15.988 0.00112752 17.1384 1.1526 17.1387 2.57129V7.00684C18.1369 7.35944 18.8533 8.30997 18.8535 9.42871V19.7148C18.8533 22.0803 16.9348 23.9979 14.5693 23.998H9.42676C8.29092 23.998 7.20076 23.5473 6.39746 22.7441C5.59428 21.9409 5.14271 20.8507 5.14258 19.7148V9.42871C5.14276 8.31024 5.85859 7.36063 6.85645 7.00781V2.57129C6.85667 1.15272 8.00725 0.00133448 9.42578 0.000976562H14.5693ZM7.71191 8.57031C7.23768 8.57054 6.85374 8.95447 6.85352 9.42871V19.7148C6.85364 20.3969 7.12415 21.0516 7.60645 21.5342C8.08902 22.0166 8.74437 22.2881 9.42676 22.2881H14.5693C15.9904 22.288 17.1423 21.1359 17.1426 19.7148V9.42871C17.1424 8.95455 16.7583 8.57067 16.2842 8.57031H7.71191ZM9.42578 1.71289C8.95166 1.71325 8.56761 2.09713 8.56738 2.57129V6.85938H15.4287V2.57129C15.4285 2.097 15.0436 1.71304 14.5693 1.71289H9.42578Z" fill="black"/>
</svg>
