<svg width="24" height="24" viewBox="0 0 24 24" fill="none" xmlns="http://www.w3.org/2000/svg">
<path fill-rule="evenodd" clip-rule="evenodd" d="M15.4277 0.000976562C16.8463 0.00124045 17.9968 1.15267 17.9971 2.57129V10.2861C17.9968 11.4652 17.201 12.4558 16.1182 12.7578L15.4258 15.5303V17.1455H18.8574V16.2861C18.8574 15.814 19.2408 15.4308 19.7129 15.4307H23.1416C23.6137 15.4307 23.9961 15.814 23.9961 16.2861V23.1436C23.9957 23.6154 23.6135 23.998 23.1416 23.998H19.7129C19.2411 23.9979 18.8578 23.6153 18.8574 23.1436V22.2842H5.13965V23.1436C5.13923 23.6152 4.75682 23.9977 4.28516 23.998H0.856445C0.384497 23.998 0.000414385 23.6154 0 23.1436V16.2861C0 15.8139 0.384242 15.4307 0.856445 15.4307H4.28516C4.75707 15.431 5.13965 15.8141 5.13965 16.2861V17.1455H8.57324V15.5371L7.87891 12.7578C6.79618 12.4557 6.00126 11.465 6.00098 10.2861V2.57129C6.0012 1.15264 7.15167 0.00120278 8.57031 0.000976562H15.4277ZM1.71191 22.2881H3.42969V17.1416H1.71191V22.2881ZM20.5684 22.2881H22.2861V17.1416H20.5684V22.2881ZM10.2832 18C10.2832 18.472 9.89971 18.8552 9.42773 18.8555H5.13965V20.5732H18.8574V18.8555H14.5713C14.0991 18.8555 13.7158 18.4722 13.7158 18V16.2842H10.2832V18ZM9.66504 12.8555L10.0947 14.5732H13.9033L14.332 12.8555H9.66504ZM8.57031 1.71289C8.09607 1.71312 7.71214 2.09705 7.71191 2.57129V10.2861C7.71225 10.7603 8.09614 11.1453 8.57031 11.1455H15.4277C15.9019 11.1452 16.2868 10.7603 16.2871 10.2861V2.57129C16.2869 2.09707 15.9019 1.71315 15.4277 1.71289H8.57031Z" fill="black"/>
</svg>
