<svg width="24" height="24" viewBox="0 0 24 24" fill="none" xmlns="http://www.w3.org/2000/svg">
<path d="M11.3153 18.6982C11.7874 18.6984 12.1698 19.0816 12.1698 19.5537C12.1698 20.0258 11.7874 20.409 11.3153 20.4092H8.57217C8.10015 20.409 7.7167 20.0258 7.7167 19.5537C7.7167 19.0816 8.10015 18.6985 8.57217 18.6982H11.3153Z" fill="black"/>
<path fill-rule="evenodd" clip-rule="evenodd" d="M8.57315 6.35547C9.04535 6.35547 9.42862 6.73873 9.42862 7.21094C9.42862 7.68314 9.04535 8.06641 8.57315 8.06641H4.45889C4.32219 8.0666 4.19033 8.12012 4.09366 8.2168C3.99701 8.31355 3.94335 8.44528 3.94327 8.58203V15.4395C3.94327 15.5762 3.99704 15.7079 4.09366 15.8047C4.19033 15.9014 4.32219 15.9559 4.45889 15.9561H15.4306C15.5674 15.956 15.699 15.9014 15.7958 15.8047C15.8926 15.7078 15.9472 15.5764 15.9472 15.4395V12.6963C15.9473 12.2245 16.3299 11.8422 16.8017 11.8418C17.2738 11.8418 17.657 12.2242 17.6571 12.6963V15.4395C17.6571 15.8525 17.54 16.2519 17.328 16.5986C17.5167 16.7849 17.672 17.0037 17.7841 17.2451L17.8495 17.4004L18.8778 20.1436L18.9208 20.2705C19.0129 20.5699 19.0413 20.8863 19.0028 21.1982C18.9588 21.5546 18.829 21.8959 18.6249 22.1914C18.4209 22.4866 18.1484 22.7283 17.831 22.8955C17.5132 23.0628 17.1588 23.1512 16.7997 23.1523H3.08096C2.7219 23.1513 2.36747 23.0627 2.04971 22.8955C1.73214 22.7282 1.45885 22.4867 1.25479 22.1914C1.05073 21.896 0.921874 21.5546 0.877837 21.1982C0.833882 20.8418 0.876718 20.4798 1.00284 20.1436L2.03116 17.4004C2.14603 17.0944 2.32617 16.8185 2.55752 16.5918C2.34836 16.2467 2.23233 15.8496 2.23233 15.4395V8.58203C2.23241 7.99176 2.46734 7.42525 2.88467 7.00781C3.30204 6.59045 3.86867 6.35566 4.45889 6.35547H8.57315ZM4.03604 17.6729C3.95917 17.6849 3.88566 17.714 3.8212 17.7588C3.73529 17.8185 3.6696 17.9031 3.63272 18.001L2.60342 20.7441C2.57424 20.8221 2.56394 20.9067 2.57413 20.9893C2.58441 21.0717 2.6148 21.1514 2.66202 21.2197C2.70932 21.288 2.77311 21.3441 2.84659 21.3828C2.92018 21.4215 3.00271 21.4421 3.08584 21.4424H16.7948C16.878 21.4421 16.9605 21.4216 17.0341 21.3828C17.1076 21.3441 17.1714 21.2881 17.2187 21.2197C17.2659 21.1514 17.2953 21.0717 17.3056 20.9893C17.3157 20.9067 17.3064 20.822 17.2773 20.7441L16.248 18.002L16.2157 17.9307C16.1777 17.8627 16.1239 17.8037 16.0595 17.7588C15.9952 17.7141 15.9213 17.6849 15.8446 17.6729L15.7665 17.667H4.11417L4.03604 17.6729Z" fill="black"/>
<path fill-rule="evenodd" clip-rule="evenodd" d="M18.1757 0.869141C18.766 0.869254 19.3325 1.10503 19.7499 1.52246C20.104 1.87672 20.3244 2.33878 20.3837 2.83105L22.0194 2.28613C22.2801 2.19927 22.567 2.24265 22.7899 2.40332C23.0125 2.56398 23.1443 2.82219 23.1444 3.09668V8.58301C23.1442 8.85744 23.0125 9.11582 22.7899 9.27637C22.5671 9.43689 22.28 9.48029 22.0194 9.39355L20.3837 8.84766C20.3245 9.34024 20.1043 9.80282 19.7499 10.1572C19.3325 10.5745 18.7659 10.8095 18.1757 10.8096H12.6894C12.0991 10.8095 11.5326 10.5745 11.1151 10.1572C10.6978 9.73989 10.463 9.17319 10.4628 8.58301V3.09668C10.4629 2.50641 10.6978 1.9399 11.1151 1.52246C11.5326 1.105 12.099 0.869226 12.6894 0.869141H18.1757ZM12.6894 2.58105C12.5525 2.58114 12.4209 2.63467 12.3241 2.73145C12.2275 2.8282 12.1738 2.95993 12.1737 3.09668V8.58301C12.174 8.71967 12.2275 8.85159 12.3241 8.94824C12.4209 9.04483 12.5527 9.09855 12.6894 9.09863H18.1757C18.3124 9.09852 18.4442 9.04486 18.5409 8.94824C18.6376 8.85159 18.6911 8.71967 18.6913 8.58301V7.66797C18.6914 7.39336 18.824 7.13523 19.0468 6.97461C19.2697 6.81394 19.5566 6.77052 19.8173 6.85742L21.4345 7.39551V4.2832L19.8173 4.82227C19.5567 4.9091 19.2697 4.86556 19.0468 4.70508C18.8241 4.54456 18.6916 4.28621 18.6913 4.01172V3.09668C18.6912 2.95998 18.6375 2.82819 18.5409 2.73145C18.4442 2.6347 18.3125 2.58117 18.1757 2.58105H12.6894Z" fill="black"/>
</svg>
