<svg width="24" height="24" viewBox="0 0 24 24" fill="none" xmlns="http://www.w3.org/2000/svg">
<path fill-rule="evenodd" clip-rule="evenodd" d="M10.6572 2.16706C12.3408 0.998726 14.6044 2.22914 14.5713 4.26276V19.7569C14.5263 21.7886 12.1705 22.9905 10.5029 21.8331C10.4644 21.8063 10.4282 21.776 10.3945 21.7432L4.79785 16.294H2.57324C1.16507 16.2938 0.00390625 15.126 0.00390625 13.7198V10.2813C0.00397243 8.8752 1.16512 7.70635 2.57324 7.70612H4.80469L10.5566 2.25007C10.5881 2.22021 10.6216 2.1918 10.6572 2.16706ZM12.8613 4.24225C12.8764 3.5978 12.1959 3.22409 11.6709 3.5489L5.7334 9.18171C5.57465 9.33229 5.36431 9.41598 5.14551 9.41608H2.57324C2.11438 9.41632 1.71491 9.81473 1.71484 10.2813V13.7198C1.71484 14.1865 2.11435 14.5838 2.57324 14.5841H5.14551L5.22852 14.5889C5.42074 14.6078 5.60164 14.6914 5.74121 14.8272L11.5186 20.4522C12.0628 20.7851 12.8468 20.3753 12.8613 19.7188V4.24225Z" fill="black"/>
<path d="M17.457 8.7696C17.8208 8.46884 18.3602 8.5202 18.6611 8.88386C19.3839 9.7579 19.7577 10.8676 19.7139 12.0001C19.7578 13.1326 19.3839 14.2422 18.6611 15.1163C18.3602 15.4801 17.8209 15.5315 17.457 15.2305C17.0934 14.9296 17.0419 14.3902 17.3428 14.0264C17.7454 13.5396 17.9763 12.9369 18.0049 12.3106V11.6895C17.9763 11.0634 17.7453 10.4604 17.3428 9.9737C17.0422 9.60985 17.0933 9.07046 17.457 8.7696Z" fill="black"/>
</svg>
