<svg width="24" height="24" viewBox="0 0 24 24" fill="none" xmlns="http://www.w3.org/2000/svg">
<path fill-rule="evenodd" clip-rule="evenodd" d="M14.3799 0.771484C14.8521 0.771484 15.2354 1.15573 15.2354 1.62793C15.2351 2.09991 14.8519 2.4834 14.3799 2.4834H12.8613V3.9375H14.2441C15.313 3.93773 16.2284 4.59068 16.6152 5.51953H16.8652C20.3338 5.51956 23.1455 8.33221 23.1455 11.8008V12.7051C23.1453 13.177 22.7629 13.5594 22.291 13.5596H18.335C17.8629 13.5596 17.4797 13.1771 17.4795 12.7051V11.9131C17.4793 11.5115 17.1536 11.1865 16.752 11.1865H16.6143C16.2272 12.1148 15.3127 12.7683 14.2441 12.7686H9.75977C8.6912 12.7684 7.77598 12.1148 7.38867 11.1865H7.25586C6.85442 11.1867 6.5295 11.5116 6.5293 11.9131V22.3975C6.52877 22.8692 6.14565 23.2519 5.67383 23.252H1.71777C1.24589 23.252 0.86283 22.8692 0.862305 22.3975V11.8008C0.862305 8.33219 3.67497 5.51953 7.14355 5.51953H7.3877C7.7748 4.59065 8.69086 3.93767 9.75977 3.9375H11.1514V2.4834H9.63281C9.16077 2.4834 8.77761 2.09991 8.77734 1.62793C8.77734 1.15573 9.16061 0.771484 9.63281 0.771484H14.3799ZM7.14355 7.23047C4.61937 7.23047 2.57324 9.2766 2.57324 11.8008V21.542H4.81836V11.9131C4.81856 10.5891 5.87479 9.51337 7.19043 9.47852V7.23047H7.14355ZM16.8125 9.47754C18.1094 9.50919 19.1532 10.5531 19.1865 11.8496H21.4355V11.8008C21.4355 9.27662 19.3894 7.2305 16.8652 7.23047H16.8125V9.47754ZM9.75977 5.64844C9.28553 5.64866 8.90159 6.0326 8.90137 6.50684V10.1992C8.90163 10.6734 9.28555 11.0584 9.75977 11.0586H14.2441C14.7183 11.0583 15.1023 10.6734 15.1025 10.1992V6.50684C15.1023 6.03265 14.7183 5.64874 14.2441 5.64844H9.75977Z" fill="black"/>
<path fill-rule="evenodd" clip-rule="evenodd" d="M20.3076 15.6797C20.5664 15.7048 20.78 15.8107 20.9258 15.9023C21.1026 16.0135 21.2616 16.1555 21.3994 16.2979C21.6761 16.5838 21.9429 16.953 22.1719 17.335C22.4029 17.7205 22.6136 18.1482 22.7686 18.5654C22.9183 18.9688 23.039 19.4244 23.0391 19.8467C23.0389 20.601 22.7394 21.325 22.2061 21.8584C21.6725 22.3918 20.9487 22.6924 20.1943 22.6924C19.4399 22.6924 18.7161 22.3918 18.1826 21.8584C17.6492 21.3249 17.3488 20.6011 17.3486 19.8467C17.3487 19.4249 17.4704 18.9694 17.6201 18.5664C17.7751 18.1495 17.9858 17.7215 18.2168 17.3359C18.4456 16.9541 18.7118 16.5849 18.9883 16.2988C19.126 16.1564 19.2861 16.0146 19.4629 15.9033C19.6294 15.7986 19.8841 15.6739 20.1943 15.6738L20.3076 15.6797ZM20.1943 17.5137C20.0409 17.678 19.8597 17.921 19.6836 18.2148C19.5003 18.5208 19.338 18.8544 19.2236 19.1621C19.1042 19.4837 19.0596 19.719 19.0596 19.8467C19.0597 20.1475 19.1789 20.4366 19.3916 20.6494C19.6044 20.8622 19.8934 20.9824 20.1943 20.9824C20.4952 20.9824 20.7842 20.8621 20.9971 20.6494C21.2098 20.4367 21.329 20.1475 21.3291 19.8467C21.3291 19.7181 21.2845 19.4827 21.165 19.1611C21.0507 18.8533 20.8884 18.5197 20.7051 18.2139C20.529 17.9202 20.3477 17.6777 20.1943 17.5137Z" fill="black"/>
</svg>
