<svg width="24" height="24" viewBox="0 0 24 24" fill="none" xmlns="http://www.w3.org/2000/svg">
<path fill-rule="evenodd" clip-rule="evenodd" d="M8.69434 6.03531C5.11002 6.40256 2.56757 9.45457 2.56738 13.2853C2.56738 17.3101 5.8297 20.5732 9.85449 20.5734H17.998C20.366 20.5732 22.2852 18.6533 22.2852 16.2853C22.2849 13.9175 20.3658 11.9984 17.998 11.9982H9.42578C8.47815 11.9985 7.71012 12.7664 7.70996 13.714C7.70996 14.6618 8.47806 15.4305 9.42578 15.4308H17.9971C18.4691 15.4308 18.8523 15.8133 18.8525 16.2853C18.8525 16.7575 18.4693 17.1408 17.9971 17.1408H9.42578C7.53365 17.1405 5.99902 15.6062 5.99902 13.714C5.99918 11.822 7.53375 10.2875 9.42578 10.2873H17.998C21.3102 10.2875 23.9949 12.9731 23.9951 16.2853C23.9951 19.5977 21.3104 22.2831 17.998 22.2834H9.85449C4.8853 22.2831 0.856445 18.2546 0.856445 13.2853C0.856643 8.62635 4.04837 4.70553 8.6748 4.32046C9.05745 2.84192 10.4478 1.77814 12.0469 1.87808L21.4834 2.46792C22.8955 2.55637 23.996 3.72783 23.9961 5.14273C23.996 6.55761 22.8955 7.72908 21.4834 7.81753L12.0469 8.40738C10.4732 8.50573 9.10225 7.47716 8.69434 6.03531ZM11.9395 3.58511C11.0412 3.52918 10.2823 4.24266 10.2822 5.14273C10.2823 6.04277 11.0412 6.75626 11.9395 6.70035L13.2832 6.61636V3.66812L11.9395 3.58511ZM14.9932 6.50894L21.377 6.1105C21.8877 6.07829 22.286 5.65456 22.2861 5.14273C22.2861 4.63088 21.8877 4.20717 21.377 4.17496L14.9932 3.77456V6.50894Z" fill="black"/>
</svg>
