<svg width="24" height="24" viewBox="0 0 24 24" fill="none" xmlns="http://www.w3.org/2000/svg">
<path fill-rule="evenodd" clip-rule="evenodd" d="M8.90059 0.858398C9.73632 0.858634 10.4415 1.56471 10.4416 2.40039V5.80664C10.4418 5.81395 10.4426 5.82175 10.4426 5.8291C10.4426 5.83629 10.4418 5.84344 10.4416 5.85059V8.05762C10.4417 8.13245 10.4597 8.20043 10.5197 8.29883C10.595 8.42202 10.6992 8.54101 10.882 8.75C11.1925 9.1054 11.1572 9.64527 10.802 9.95605C10.4469 10.2666 9.90691 10.2305 9.59591 9.87598C9.32042 9.56105 8.73153 8.96733 8.73165 8.05664V6.68457H6.3293L6.33028 8.05957C6.32989 8.60403 6.12604 9.1181 5.7795 9.5166L5.78048 9.51758L3.34298 12.3447C3.02511 12.7446 2.87879 13.2795 2.9504 13.7852L4.09591 20.9297C4.16456 21.1529 4.24506 21.275 4.30977 21.3359C4.35781 21.381 4.43469 21.4316 4.61641 21.4316H8.93477C9.40679 21.4318 9.79017 21.8141 9.79024 22.2861C9.78998 22.758 9.40668 23.1414 8.93477 23.1416H4.61641C4.03204 23.1416 3.52645 22.9465 3.1379 22.5811C2.76942 22.2343 2.56303 21.7874 2.44259 21.3701C2.43303 21.337 2.42561 21.3026 2.42012 21.2686L1.26094 14.0459L1.25899 14.0322C1.11867 13.0563 1.3947 12.0435 2.00997 11.2734C2.01647 11.2653 2.02367 11.2569 2.03048 11.249L4.48555 8.40137L4.48946 8.39648C4.5767 8.29663 4.61993 8.17687 4.62032 8.06055L4.61837 5.85352C4.61813 5.8454 4.61739 5.83727 4.61739 5.8291C4.61739 5.82077 4.61813 5.81199 4.61837 5.80371L4.61641 2.40137C4.61651 1.56556 5.32166 0.858501 6.15743 0.858398H8.90059ZM6.32833 4.97363H8.73165V2.57031H6.32735L6.32833 4.97363Z" fill="black"/>
<path fill-rule="evenodd" clip-rule="evenodd" d="M20.3625 10.459C21.7003 10.459 22.7854 11.544 22.7854 12.8818V20.7188C22.7852 22.0565 21.7002 23.1406 20.3625 23.1406H13.8977C12.5599 23.1406 11.4749 22.0565 11.4748 20.7188V12.8818C11.4748 11.544 12.5598 10.459 13.8977 10.459H20.3625ZM13.1857 20.7188C13.1859 21.1121 13.5043 21.4307 13.8977 21.4307H20.3625C20.7558 21.4306 21.0753 21.1121 21.0754 20.7188V16.2842H13.1857V20.7188ZM13.8977 12.1699C13.5042 12.1699 13.1857 12.4884 13.1857 12.8818V14.5732H21.0754V12.8818C21.0754 12.4884 20.7559 12.1699 20.3625 12.1699H13.8977Z" fill="black"/>
<path d="M9.58712 13.2021C10.0593 13.2021 10.4426 13.5854 10.4426 14.0576C10.4423 14.5296 10.0592 14.9131 9.58712 14.9131H6.48262L6.88301 17.3174H9.58712C10.0593 17.3174 10.4426 17.6997 10.4426 18.1719C10.4423 18.6439 10.0592 19.0273 9.58712 19.0273H6.15841C5.74079 19.0272 5.38455 18.7244 5.31563 18.3125L4.62911 14.1982C4.58782 13.9505 4.65829 13.6966 4.82051 13.5049C4.98292 13.3132 5.22163 13.2022 5.47286 13.2021H9.58712Z" fill="black"/>
</svg>
