<svg width="24" height="24" viewBox="0 0 24 24" fill="none" xmlns="http://www.w3.org/2000/svg">
<path d="M5.99805 17.1447C6.47012 17.1448 6.85254 17.528 6.85254 18.0001C6.85243 18.4722 6.47006 18.8555 5.99805 18.8556H5.14062C4.66849 18.8556 4.28526 18.4723 4.28516 18.0001C4.28516 17.5279 4.66842 17.1447 5.14062 17.1447H5.99805Z" fill="black"/>
<path d="M10.2842 17.1447C10.756 17.1451 11.1387 17.5282 11.1387 18.0001C11.1386 18.472 10.756 18.8552 10.2842 18.8556H9.42676C8.95462 18.8556 8.5714 18.4723 8.57129 18.0001C8.57129 17.5279 8.95455 17.1447 9.42676 17.1447H10.2842Z" fill="black"/>
<path fill-rule="evenodd" clip-rule="evenodd" d="M21.458 4.91811C21.5823 4.46278 22.0534 4.1935 22.5088 4.31753C22.9639 4.44187 23.2322 4.91207 23.1084 5.36733L20.832 13.716H21.4268C22.8454 13.7162 23.9959 14.8667 23.9961 16.2853V19.714C23.996 21.1328 22.8455 22.2831 21.4268 22.2833H19.7109V23.1427C19.7108 23.6147 19.3274 23.9979 18.8555 23.9982C18.3833 23.9982 18.0001 23.6148 18 23.1427V22.2833H5.99609V23.1427C5.99599 23.6148 5.61276 23.9982 5.14062 23.9982C4.66849 23.9982 4.28526 23.6148 4.28516 23.1427V22.2833H2.56934C1.15062 22.2831 0.00010725 21.1328 0 19.714V16.2853C0.0002268 14.8667 1.15069 13.7162 2.56934 13.716H3.16309L0.886719 5.36733C0.762984 4.91205 1.03208 4.44177 1.4873 4.31753C1.94263 4.19359 2.41276 4.46289 2.53711 4.91811L4.93652 13.716H19.0586L21.458 4.91811ZM2.56934 15.4269C2.0951 15.4271 1.71116 15.8111 1.71094 16.2853V19.714C1.71104 20.1884 2.09502 20.5732 2.56934 20.5734H21.4268C21.9011 20.5731 22.286 20.1884 22.2861 19.714V16.2853C22.2859 15.8111 21.901 15.4272 21.4268 15.4269H2.56934Z" fill="black"/>
<path d="M11.9111 8.35366C12.6197 8.35392 13.1942 8.92928 13.1943 9.63784C13.1943 10.3173 12.666 10.8712 11.998 10.9162C11.9695 10.9191 11.9405 10.922 11.9111 10.922L11.7881 10.9162C11.18 10.8585 10.6954 10.3766 10.6338 9.76968L10.6309 9.73061C10.6276 9.70048 10.627 9.6698 10.627 9.63882C10.627 9.60691 10.6274 9.5751 10.6309 9.54409L10.6338 9.50698C10.6967 8.88961 11.1974 8.40204 11.8203 8.35854C11.85 8.35542 11.8806 8.35366 11.9111 8.35366Z" fill="black"/>
<path d="M8.57422 5.45132C10.3799 3.64586 13.4442 3.64598 15.25 5.45132C15.5837 5.78523 15.5838 6.32745 15.25 6.66128C14.9162 6.99461 14.3748 6.99473 14.041 6.66128C12.903 5.52325 10.9212 5.52326 9.7832 6.66128C9.44945 6.99474 8.90807 6.9946 8.57422 6.66128C8.24032 6.32738 8.24032 5.78522 8.57422 5.45132Z" fill="black"/>
<path d="M5.48047 2.82339C9.07155 -0.767141 14.9277 -0.767461 18.5186 2.82339C18.8523 3.15719 18.8522 3.69944 18.5186 4.03335C18.1847 4.36724 17.6425 4.36722 17.3086 4.03335C14.3854 1.11022 9.61271 1.11038 6.68945 4.03335C6.35562 4.36691 5.8143 4.36691 5.48047 4.03335C5.14659 3.69945 5.14658 3.15728 5.48047 2.82339Z" fill="black"/>
</svg>
