<svg width="24" height="24" viewBox="0 0 24 24" fill="none" xmlns="http://www.w3.org/2000/svg">
<path d="M19.709 0.000976562C21.1276 0.00124045 22.2781 1.15267 22.2783 2.57129V7.71484C22.2779 8.18644 21.8954 8.56892 21.4238 8.56934C20.9519 8.56934 20.5688 8.18669 20.5684 7.71484V2.57129C20.5681 2.09707 20.1832 1.71315 19.709 1.71289H4.28027C3.80604 1.71312 3.4221 2.09705 3.42188 2.57129V21.4287C3.42214 21.9029 3.80606 22.2879 4.28027 22.2881H5.78027C6.25225 22.2884 6.63574 22.6715 6.63574 23.1436C6.63525 23.6152 6.25195 23.9978 5.78027 23.998H4.28027C2.86165 23.9978 1.71022 22.8473 1.70996 21.4287V2.57129C1.71019 1.15264 2.86163 0.00120234 4.28027 0.000976562H19.709Z" fill="black"/>
<path d="M16.418 18.8721C17.0653 18.9378 17.5703 19.4857 17.5703 20.1504C17.57 20.8148 17.065 21.3611 16.418 21.4268L16.2871 21.4336L16.1641 21.4277C15.556 21.3701 15.0715 20.8881 15.0098 20.2812L15.0029 20.1504L15.0098 20.0186C15.0757 19.3715 15.6227 18.8662 16.2871 18.8662L16.418 18.8721Z" fill="black"/>
<path d="M16.2871 13.7158C16.7592 13.716 17.1426 14.0992 17.1426 14.5713V17.1426C17.1426 17.6147 16.7592 17.9979 16.2871 17.998C15.8149 17.998 15.4316 17.6148 15.4316 17.1426V14.5713C15.4316 14.0991 15.8149 13.7158 16.2871 13.7158Z" fill="black"/>
<path fill-rule="evenodd" clip-rule="evenodd" d="M14.0166 11.0332C14.9816 9.21062 17.5934 9.21076 18.5586 11.0332L23.4258 20.2266C24.3317 21.9377 23.0904 23.998 21.1543 23.998H11.4209C9.48493 23.9979 8.24463 21.9376 9.15039 20.2266L14.0166 11.0332ZM17.0469 11.834C16.7241 11.2244 15.8511 11.2244 15.5283 11.834L10.6611 21.0273C10.3587 21.5995 10.7737 22.2879 11.4209 22.2881H21.1543C21.8017 22.2881 22.2168 21.5996 21.9141 21.0273L17.0469 11.834Z" fill="black"/>
</svg>
