<svg width="24" height="24" viewBox="0 0 24 24" fill="none" xmlns="http://www.w3.org/2000/svg">
<path fill-rule="evenodd" clip-rule="evenodd" d="M14.2568 0.249604C15.79 0.0584493 17.1445 1.25431 17.1445 2.79941V21.2008C17.1445 22.7459 15.79 23.9417 14.2568 23.7506L3.9707 22.4644C2.68514 22.3037 1.71892 21.2112 1.71875 19.9156V4.08456C1.71893 2.78902 2.68514 1.6965 3.9707 1.53574L14.2568 0.249604ZM14.4688 1.94687L4.18262 3.23203C3.75285 3.28588 3.43084 3.65145 3.43066 4.08456V19.9156C3.43083 20.3487 3.75284 20.7143 4.18262 20.7682L14.4688 22.0533C14.9814 22.1171 15.4346 21.7174 15.4346 21.2008V2.79941C15.4345 2.28279 14.9813 1.88314 14.4688 1.94687Z" fill="black"/>
<path d="M19.7178 1.7164C21.1365 1.71653 22.2869 2.86703 22.2871 4.28574V19.7144C22.2869 21.1332 21.1365 22.2837 19.7178 22.2838C19.2458 22.2838 18.8627 21.9012 18.8623 21.4293C18.8623 20.9571 19.2456 20.5738 19.7178 20.5738C20.1921 20.5737 20.5769 20.1888 20.5771 19.7144V4.28574C20.5769 3.81144 20.1921 3.42747 19.7178 3.42734C19.2457 3.42734 18.8625 3.0439 18.8623 2.57187C18.8623 2.09967 19.2456 1.7164 19.7178 1.7164Z" fill="black"/>
</svg>
