<svg width="24" height="24" viewBox="0 0 24 24" fill="none" xmlns="http://www.w3.org/2000/svg">
<path fill-rule="evenodd" clip-rule="evenodd" d="M17.998 3.43066C18.4701 3.4308 18.8535 3.81401 18.8535 4.28613V19.7148C18.8532 20.1867 18.4699 20.5692 17.998 20.5693H5.99805C5.52605 20.5693 5.14292 20.1868 5.14258 19.7148V4.28613C5.14258 3.81393 5.52584 3.43066 5.99805 3.43066H17.998ZM6.85352 18.8594H11.1426V12.8555H6.85352V18.8594ZM12.8535 18.8594H17.1426V12.8555H12.8535V18.8594ZM6.85352 11.1445H11.1426V5.1416H6.85352V11.1445ZM12.8535 11.1445H17.1426V5.1416H12.8535V11.1445Z" fill="black"/>
<path fill-rule="evenodd" clip-rule="evenodd" d="M19.7119 0.000976562C21.1306 0.00110851 22.281 1.15259 22.2812 2.57129V21.4287C22.2812 21.7305 22.2256 22.0191 22.1299 22.2881H23.1416C23.6134 22.2886 23.9961 22.6717 23.9961 23.1436C23.9958 23.6152 23.6132 23.9985 23.1416 23.999H0.855469C0.383428 23.999 0.000264249 23.6155 0 23.1436C0 22.6714 0.383265 22.2881 0.855469 22.2881H1.86426C1.7686 22.0191 1.71392 21.7305 1.71387 21.4287V2.57129C1.71409 1.15264 2.86456 0.00120267 4.2832 0.000976562H19.7119ZM4.2832 1.71289C3.80896 1.71312 3.42503 2.09705 3.4248 2.57129V21.4287C3.42507 21.9029 3.80899 22.2879 4.2832 22.2881H19.7119C20.1862 22.288 20.571 21.903 20.5713 21.4287V2.57129C20.5711 2.09699 20.1862 1.71302 19.7119 1.71289H4.2832Z" fill="black"/>
</svg>
