<svg width="24" height="24" viewBox="0 0 24 24" fill="none" xmlns="http://www.w3.org/2000/svg">
<path d="M19.7109 0.000976562C21.1274 0.00114783 22.2754 1.1509 22.2754 2.56738V8.57129C22.2751 9.04318 21.8928 9.42661 21.4209 9.42676C20.949 9.42663 20.5657 9.04319 20.5654 8.57129V2.56738C20.5654 2.0953 20.183 1.71306 19.7109 1.71289H4.27344C3.80138 1.71305 3.41897 2.09529 3.41895 2.56738V21.4336C3.41946 21.9053 3.80168 22.2879 4.27344 22.2881H10.2773C10.7495 22.2881 11.1328 22.6714 11.1328 23.1436C11.1323 23.6153 10.7492 23.998 10.2773 23.998H4.27344C2.85727 23.9979 1.70852 22.8497 1.70801 21.4336V2.56738C1.70803 1.15088 2.85697 0.00113118 4.27344 0.000976562H19.7109Z" fill="black"/>
<path d="M19.0645 15.7295C19.3717 15.3713 19.9111 15.3298 20.2695 15.6367C20.6277 15.9441 20.6695 16.4844 20.3623 16.8428L17.791 19.8428C17.4978 20.1844 16.9892 20.2397 16.6289 19.9697L14.915 18.6846C14.5373 18.4013 14.461 17.8651 14.7441 17.4873C15.0275 17.1098 15.5628 17.0333 15.9404 17.3164L17.0137 18.1211L19.0645 15.7295Z" fill="black"/>
<path fill-rule="evenodd" clip-rule="evenodd" d="M17.5703 11.1445C21.1193 11.1447 23.997 14.0222 23.9971 17.5713C23.9971 21.1204 21.1194 23.9979 17.5703 23.998C14.0211 23.998 11.1436 21.1204 11.1436 17.5713C11.1436 14.0222 14.0212 11.1446 17.5703 11.1445ZM17.5703 12.8555C14.9656 12.8555 12.8546 14.9666 12.8545 17.5713C12.8545 20.176 14.9656 22.288 17.5703 22.2881C20.175 22.288 22.2871 20.176 22.2871 17.5713C22.287 14.9666 20.1749 12.8556 17.5703 12.8555Z" fill="black"/>
</svg>
