<svg width="24" height="24" viewBox="0 0 24 24" fill="none" xmlns="http://www.w3.org/2000/svg">
<path fill-rule="evenodd" clip-rule="evenodd" d="M18.002 3.43066C18.4742 3.43066 18.8574 3.81393 18.8574 4.28613V19.7148C18.8571 20.1868 18.4739 20.5693 18.002 20.5693H6.00195C5.53007 20.5692 5.14682 20.1867 5.14648 19.7148V4.28613C5.14648 3.81401 5.52986 3.4308 6.00195 3.43066H18.002ZM6.85742 18.8594H11.1465V12.8555H6.85742V18.8594ZM12.8574 18.8594H17.1465V12.8555H12.8574V18.8594ZM6.85742 11.1445H11.1465V5.1416H6.85742V11.1445ZM12.8574 11.1445H17.1465V5.1416H12.8574V11.1445Z" fill="black"/>
<path fill-rule="evenodd" clip-rule="evenodd" d="M19.7168 0.000976562C21.1354 0.00124045 22.2859 1.15267 22.2861 2.57129V21.4287C22.2859 22.8473 21.1354 23.9978 19.7168 23.998H4.28809C2.86946 23.9978 1.71804 22.8473 1.71777 21.4287V2.57129C1.718 1.15264 2.86944 0.00120267 4.28809 0.000976562H19.7168ZM4.28809 1.71289C3.81385 1.71312 3.42991 2.09705 3.42969 2.57129V21.4287C3.42995 21.9029 3.81387 22.2879 4.28809 22.2881H19.7168C20.191 22.2878 20.5759 21.9029 20.5762 21.4287V2.57129C20.5759 2.09707 20.191 1.71315 19.7168 1.71289H4.28809Z" fill="black"/>
</svg>
