<svg width="24" height="24" viewBox="0 0 24 24" fill="none" xmlns="http://www.w3.org/2000/svg">
<path d="M17.0268 18.2568C17.1562 17.8029 17.6295 17.5399 18.0835 17.6689C18.5376 17.7983 18.8007 18.2714 18.6714 18.7256L17.9165 21.374C17.8137 21.8602 17.5532 22.2998 17.1714 22.6201C16.7706 22.9561 16.2637 23.1406 15.7407 23.1406H7.62644C7.10433 23.1406 6.59829 22.957 6.19773 22.6221C5.81875 22.3051 5.5589 21.8708 5.45359 21.3896L4.69871 18.7246C4.5701 18.2706 4.83373 17.798 5.28757 17.6689C5.74173 17.5403 6.21431 17.8038 6.34324 18.2578L7.0991 20.9229L7.11765 21.0049C7.13904 21.124 7.20162 21.2328 7.29441 21.3105C7.38728 21.3882 7.50539 21.4306 7.62644 21.4307H15.7407C15.862 21.4307 15.9798 21.3875 16.0727 21.3096C16.1657 21.2316 16.2284 21.1234 16.2495 21.0039L16.269 20.9189L17.0268 18.2568Z" fill="black"/>
<path d="M5.54929 13.6299C5.85724 13.272 6.39741 13.2312 6.75535 13.5391C7.11304 13.847 7.15388 14.3872 6.84617 14.7451L3.41746 18.7295C3.1095 19.087 2.56922 19.1279 2.2114 18.8203C1.85363 18.5125 1.81303 17.9722 2.12058 17.6143L5.54929 13.6299Z" fill="black"/>
<path d="M16.4946 13.5391C16.8525 13.2313 17.3927 13.272 17.7007 13.6299L21.1294 17.6143C21.4371 17.9722 21.3964 18.5124 21.0386 18.8203C20.6806 19.1278 20.1404 19.0872 19.8325 18.7295L16.4038 14.7451C16.0961 14.3873 16.1372 13.8471 16.4946 13.5391Z" fill="black"/>
<path fill-rule="evenodd" clip-rule="evenodd" d="M19.7212 0.867188C19.8213 0.877101 19.9208 0.896562 20.0171 0.925781L20.1596 0.977539L20.2964 1.04199C20.4292 1.11313 20.5517 1.20363 20.6587 1.31055L21.6284 2.28027C21.7355 2.38743 21.8267 2.51045 21.8979 2.64355L21.9634 2.78027L22.0141 2.92285C22.0579 3.06739 22.0805 3.21854 22.0805 3.37012C22.0805 3.57231 22.0408 3.77317 21.9634 3.95996C21.8859 4.14675 21.7724 4.31699 21.6294 4.45996L18.0512 8.03613L18.187 8.98438C18.2487 9.47442 18.2576 9.96859 18.2173 10.459H19.1665L19.3344 10.4688C19.4457 10.481 19.5556 10.505 19.6616 10.541L19.8178 10.6045L19.9653 10.6836C20.061 10.7417 20.15 10.8102 20.2309 10.8877L20.3462 11.0098L20.4468 11.1445C20.5089 11.2375 20.5605 11.3372 20.6011 11.4414L20.6538 11.6016L20.688 11.7656C20.7135 11.9317 20.7123 12.1014 20.6831 12.2676C20.6781 12.2959 20.6714 12.3239 20.6636 12.3516L20.3178 13.5723C20.1892 14.0266 19.7165 14.2908 19.2622 14.1621C18.8081 14.0333 18.5438 13.5606 18.6723 13.1064L18.938 12.1699H4.42527L4.69089 13.1064C4.81954 13.5608 4.55539 14.0335 4.10105 14.1621C3.64674 14.2907 3.17402 14.0266 3.04539 13.5723L2.69968 12.3516C2.69187 12.3239 2.68514 12.2959 2.68015 12.2676C2.64116 12.046 2.65115 11.8179 2.70945 11.6006L2.76218 11.4414C2.82312 11.2848 2.90955 11.139 3.01804 11.0098C3.16271 10.8375 3.34343 10.6985 3.54734 10.6035L3.70359 10.541C3.86266 10.4871 4.03 10.4589 4.19871 10.459H6.09812L9.70554 6.21094L9.75242 6.16016C10.298 5.61451 10.9638 5.20299 11.6958 4.95898C12.4276 4.71511 13.2065 4.64475 13.9702 4.75391L14.9028 4.88672L18.48 1.3125C18.6229 1.16934 18.7931 1.05506 18.98 0.977539C19.1669 0.900063 19.3675 0.858406 19.5698 0.858398L19.7212 0.867188ZM15.81 6.39844C15.6199 6.58844 15.3515 6.67837 15.0854 6.64062L13.728 6.44727C13.2271 6.37567 12.7159 6.42107 12.2358 6.58105C11.7624 6.73892 11.332 7.00395 10.977 7.35449L8.34031 10.459H16.5005C16.546 10.0405 16.5435 9.61737 16.4907 9.19824L16.2983 7.85547C16.2603 7.58912 16.3503 7.32017 16.5405 7.12988L20.2993 3.37012L19.5698 2.63965L15.81 6.39844Z" fill="black"/>
</svg>
