<svg width="24" height="24" viewBox="0 0 24 24" fill="none" xmlns="http://www.w3.org/2000/svg">
<path fill-rule="evenodd" clip-rule="evenodd" d="M18.3809 1.00293C18.6186 0.844594 18.9199 0.815932 19.1836 0.925781C21.5043 1.89361 23.1387 4.18475 23.1387 6.85938C23.1385 9.32651 21.7472 11.4663 19.71 12.543V20.1445C19.7097 21.8001 18.3675 23.1426 16.7119 23.1426C15.0565 23.1425 13.7141 21.8 13.7139 20.1445V12.543C11.6768 11.4662 10.2854 9.32643 10.2852 6.85938C10.2852 4.18475 11.9196 1.8936 14.2402 0.925781C14.5039 0.815845 14.8051 0.844659 15.043 1.00293C15.2808 1.16151 15.4238 1.42902 15.4238 1.71484V5.57324C15.4241 6.04749 15.8089 6.43247 16.2832 6.43262H17.1406C17.615 6.43262 17.9997 6.04759 18 5.57324V1.71484C18 1.42902 18.1431 1.16151 18.3809 1.00293ZM19.71 5.57324C19.7097 6.99198 18.5595 8.14258 17.1406 8.14258H16.2832C14.8645 8.14243 13.7141 6.99189 13.7139 5.57324V3.21777C12.664 4.08332 11.9961 5.39409 11.9961 6.85938C11.9963 8.81977 13.1925 10.5034 14.8984 11.2148C15.2167 11.3478 15.4238 11.659 15.4238 12.0039V20.1445C15.4241 20.8556 16.0009 21.4325 16.7119 21.4326C17.4231 21.4326 17.9997 20.8556 18 20.1445V12.0039C18 11.6591 18.2073 11.3478 18.5254 11.2148C20.2313 10.5035 21.4285 8.81978 21.4287 6.85938C21.4287 5.394 20.7599 4.08332 19.71 3.21777V5.57324Z" fill="black"/>
<path fill-rule="evenodd" clip-rule="evenodd" d="M7.00488 0.873047C7.34595 0.933652 7.62334 1.19743 7.69336 1.54688L8.55078 5.83301C8.60658 6.11313 8.51839 6.40348 8.31641 6.60547L6.60254 8.31934C6.44227 8.4795 6.22463 8.57024 5.99805 8.57031H5.99609V12.002H6.85449C8.27332 12.002 9.4236 13.1525 9.42383 14.5713V18.8574C9.42356 21.223 7.50614 23.1405 5.14062 23.1406C2.7751 23.1406 0.856709 21.223 0.856445 18.8574V14.5713C0.856671 13.1527 2.0072 12.0022 3.42578 12.002H4.28516V8.57031H4.2832C4.05674 8.5702 3.83893 8.47939 3.67871 8.31934L1.96484 6.60547C1.76286 6.40349 1.67468 6.11312 1.73047 5.83301L2.58789 1.54688L2.62988 1.40332C2.75603 1.08024 3.06995 0.858398 3.42676 0.858398H6.85547L7.00488 0.873047ZM3.42578 13.7129C2.95161 13.7132 2.56761 14.0971 2.56738 14.5713V18.8574C2.56765 20.2785 3.71949 21.4306 5.14062 21.4307C6.56175 21.4306 7.7136 20.2785 7.71387 18.8574V14.5713C7.71364 14.0969 7.32891 13.7129 6.85449 13.7129H3.42578ZM3.49707 5.71875L4.6377 6.85938H5.64453L6.7832 5.71875L6.1543 2.57031H4.12695L3.49707 5.71875Z" fill="black"/>
</svg>
