<svg width="24" height="24" viewBox="0 0 24 24" fill="none" xmlns="http://www.w3.org/2000/svg">
<path d="M12 12.2607C12.4722 12.2607 12.8555 12.644 12.8555 13.1162V15.4248H15.165C15.6369 15.4252 16.0195 15.8083 16.0195 16.2803C16.0195 16.7522 15.6369 17.1354 15.165 17.1357H12.8555V19.4453C12.8551 19.9172 12.472 20.2998 12 20.2998C11.528 20.2998 11.1449 19.9172 11.1445 19.4453V17.1357H8.83594C8.36373 17.1357 7.98047 16.7525 7.98047 16.2803C7.98047 15.8081 8.36373 15.4248 8.83594 15.4248H11.1445V13.1162C11.1445 12.644 11.5278 12.2607 12 12.2607Z" fill="black"/>
<path fill-rule="evenodd" clip-rule="evenodd" d="M12 8.56836C16.2587 8.56843 19.7108 12.0216 19.7109 16.2803C19.7109 20.5391 16.2588 23.9911 12 23.9912C7.74133 23.9911 4.28816 20.539 4.28809 16.2803C4.28822 12.0216 7.74136 8.56849 12 8.56836ZM12 10.2793C8.68576 10.2794 5.99916 12.966 5.99902 16.2803C5.9991 19.5946 8.68572 22.2811 12 22.2812C15.3144 22.2812 18.0009 19.5946 18.001 16.2803C18.0008 12.966 15.3143 10.2794 12 10.2793Z" fill="black"/>
<path d="M7.71484 0.00195312C8.18681 0.00223586 8.56934 0.385393 8.56934 0.857422C8.5692 1.32934 8.18673 1.71261 7.71484 1.71289C4.39995 1.71289 1.71289 4.39995 1.71289 7.71484C1.71261 8.18673 1.32934 8.5692 0.857422 8.56934C0.385393 8.56934 0.00223586 8.18681 0.00195312 7.71484C0.00195312 3.45554 3.45554 0.00195312 7.71484 0.00195312Z" fill="black"/>
<path d="M7.71387 4.28711C8.18599 4.28711 8.5692 4.67049 8.56934 5.14258C8.56934 5.61478 8.18607 5.99805 7.71387 5.99805C6.76621 5.99825 5.99825 6.76621 5.99805 7.71387C5.99805 8.18607 5.61478 8.56934 5.14258 8.56934C4.67049 8.5692 4.28711 8.18599 4.28711 7.71387C4.28732 5.8218 5.8218 4.28732 7.71387 4.28711Z" fill="black"/>
<path d="M16.2861 4.28711C18.1781 4.28737 19.7127 5.82183 19.7129 7.71387C19.7129 8.18591 19.3294 8.56907 18.8574 8.56934C18.3853 8.56926 18.0029 8.18602 18.0029 7.71387C18.0027 6.76626 17.2337 5.99831 16.2861 5.99805C15.8139 5.99805 15.4307 5.61478 15.4307 5.14258C15.4308 4.67049 15.814 4.28711 16.2861 4.28711Z" fill="black"/>
<path d="M16.2861 0.00195312C20.5451 0.00221707 23.998 3.4557 23.998 7.71484C23.9978 8.18655 23.6152 8.56892 23.1436 8.56934C22.6715 8.56934 22.2884 8.18681 22.2881 7.71484C22.2881 4.40012 19.6007 1.71315 16.2861 1.71289C15.814 1.71289 15.4308 1.32951 15.4307 0.857422C15.4307 0.385218 15.8139 0.00195312 16.2861 0.00195312Z" fill="black"/>
</svg>
