<svg width="24" height="25" viewBox="0 0 24 25" fill="none" xmlns="http://www.w3.org/2000/svg">
<path fill-rule="evenodd" clip-rule="evenodd" d="M11.46 7.19531C11.7958 6.92115 12.2914 6.94078 12.6045 7.25391L12.624 7.27344C12.6362 7.28572 12.6542 7.30411 12.6768 7.32715C12.7222 7.3735 12.7879 7.44159 12.8711 7.52832C13.0375 7.70188 13.2745 7.95225 13.5576 8.26367C14.1232 8.88579 14.8795 9.75553 15.6377 10.7412C16.3937 11.7241 17.1656 12.841 17.752 13.9551C18.328 15.0497 18.7754 16.235 18.7754 17.332C18.7751 21.074 15.742 24.1074 12 24.1074C8.25796 24.1074 5.2239 21.074 5.22363 17.332C5.22363 16.2349 5.67197 15.0497 6.24805 13.9551C6.83439 12.841 7.60627 11.7241 8.3623 10.7412C9.12053 9.75555 9.87683 8.88579 10.4424 8.26367C10.7255 7.95227 10.9625 7.70187 11.1289 7.52832C11.2121 7.4416 11.2778 7.37349 11.3232 7.32715C11.3458 7.30413 11.3638 7.28572 11.376 7.27344L11.3955 7.25391L11.46 7.19531ZM11.707 9.41406C11.1626 10.013 10.4385 10.846 9.7168 11.7842C8.99276 12.7255 8.28447 13.7559 7.76074 14.751C7.22681 15.7655 6.93457 16.653 6.93457 17.332C6.93484 20.1296 9.20237 22.3975 12 22.3975C14.7976 22.3974 17.0652 20.1296 17.0654 17.332C17.0654 16.653 16.7732 15.7655 16.2393 14.751C15.7155 13.7558 15.0063 12.7255 14.2822 11.7842C13.5605 10.846 12.8364 10.013 12.292 9.41406C12.188 9.29962 12.0884 9.19573 11.999 9.09961C11.9098 9.19557 11.8108 9.29988 11.707 9.41406Z" fill="black"/>
<path d="M7.71484 0.00195312C8.18681 0.00223586 8.56934 0.385393 8.56934 0.857422C8.5692 1.32934 8.18673 1.71261 7.71484 1.71289C4.39995 1.71289 1.71289 4.39995 1.71289 7.71484C1.71261 8.18673 1.32934 8.5692 0.857422 8.56934C0.385393 8.56934 0.00223586 8.18681 0.00195312 7.71484C0.00195312 3.45554 3.45554 0.00195312 7.71484 0.00195312Z" fill="black"/>
<path d="M7.71484 4.28711C8.18674 4.28737 8.57018 4.67065 8.57031 5.14258C8.57031 5.61462 8.18682 5.99778 7.71484 5.99805C6.76707 5.99812 5.99923 6.76613 5.99902 7.71387C5.99902 8.18591 5.61553 8.56907 5.14355 8.56934C4.67135 8.56934 4.28809 8.18607 4.28809 7.71387C4.28829 5.82172 5.82267 4.28718 7.71484 4.28711Z" fill="black"/>
<path d="M16.2861 4.28711C18.1782 4.28724 19.7127 5.82174 19.7129 7.71387C19.7129 8.18599 19.3295 8.5692 18.8574 8.56934C18.3853 8.56926 18.0029 8.18602 18.0029 7.71387C18.0027 6.76617 17.2338 5.99818 16.2861 5.99805C15.8139 5.99805 15.4307 5.61478 15.4307 5.14258C15.4308 4.67049 15.814 4.28711 16.2861 4.28711Z" fill="black"/>
<path d="M16.2861 0.00195312C20.5452 0.0020851 23.998 3.45562 23.998 7.71484C23.9978 8.18663 23.6153 8.56905 23.1436 8.56934C22.6715 8.56934 22.2884 8.18681 22.2881 7.71484C22.2881 4.40004 19.6009 1.71302 16.2861 1.71289C15.814 1.71289 15.4308 1.32951 15.4307 0.857422C15.4307 0.385218 15.8139 0.00195312 16.2861 0.00195312Z" fill="black"/>
</svg>
