<svg width="24" height="24" viewBox="0 0 24 24" fill="none" xmlns="http://www.w3.org/2000/svg">
<path d="M12 22.2871C12.4721 22.2872 12.8544 22.6705 12.8545 23.1426C12.8545 23.6147 12.4721 23.998 12 23.998H8.57129C8.09909 23.998 7.71582 23.6148 7.71582 23.1426C7.71595 22.6705 8.09917 22.2871 8.57129 22.2871H12Z" fill="black"/>
<path d="M6.5459 3.53809C6.95867 3.30954 7.47901 3.45853 7.70801 3.87109C7.93653 4.2839 7.78763 4.80522 7.375 5.03418C6.43789 5.55392 5.65683 6.31477 5.11328 7.23828C4.56977 8.16178 4.28365 9.21456 4.28418 10.2861V16.2861C4.28409 16.8943 4.12091 17.4856 3.82129 18.0029H16.75C16.4505 17.4856 16.2882 16.8941 16.2881 16.2861V15.4287C16.2882 14.9566 16.6714 14.5742 17.1436 14.5742C17.6152 14.5747 17.9979 14.9569 17.998 15.4287V16.2861C17.9982 16.7413 18.1793 17.1783 18.501 17.5C18.8227 17.8214 19.2599 18.0029 19.7148 18.0029C20.1866 18.0033 20.5693 18.3855 20.5693 18.8574C20.5691 19.3291 20.1865 19.7125 19.7148 19.7129H0.857422C0.385381 19.7129 0.00124052 19.3294 0.000976562 18.8574C0.00105181 18.3853 0.385265 18.0029 0.857422 18.0029C1.31253 18.0028 1.74956 17.8217 2.07129 17.5C2.39302 17.1782 2.57409 16.7412 2.57422 16.2861V10.2861C2.57362 8.90942 2.94138 7.55756 3.63965 6.37109C4.33808 5.18443 5.34174 4.2059 6.5459 3.53809Z" fill="black"/>
<path d="M17.8232 4.11035C18.1571 3.77645 18.6993 3.77645 19.0332 4.11035C19.3667 4.44421 19.3668 4.98553 19.0332 5.31934L17.7471 6.60547C17.4132 6.93868 16.8718 6.93884 16.5381 6.60547C16.2043 6.27169 16.2046 5.72944 16.5381 5.39551L17.8232 4.11035Z" fill="black"/>
<path fill-rule="evenodd" clip-rule="evenodd" d="M17.1426 0.00195312C20.4551 0.00195312 23.1405 2.68762 23.1406 6C23.1405 9.3124 20.4551 11.998 17.1426 11.998C13.8303 11.9979 11.1447 9.31231 11.1445 6C11.1447 2.6877 13.8303 0.00210361 17.1426 0.00195312ZM17.1426 1.71289C14.7747 1.71304 12.8556 3.63211 12.8555 6C12.8556 8.36791 14.7747 10.2879 17.1426 10.2881C19.5107 10.2881 21.4305 8.36801 21.4307 6C21.4305 3.63201 19.5107 1.71289 17.1426 1.71289Z" fill="black"/>
</svg>
