<svg width="24" height="24" viewBox="0 0 24 24" fill="none" xmlns="http://www.w3.org/2000/svg">
<path fill-rule="evenodd" clip-rule="evenodd" d="M10.9316 6.87207C11.0775 6.89187 11.218 6.939 11.3496 7.00586L11.3506 7.00391C16.0282 9.16675 18.7659 13.6112 18.7773 17.4707L18.7705 17.8428C18.6974 19.5014 18.1014 21.0524 16.9336 22.1904C15.7708 23.3234 14.1151 23.9741 12.0518 23.9854C11.1983 24.0405 10.3421 23.9239 9.53418 23.6436C8.7258 23.363 7.98087 22.923 7.34473 22.3506C6.78811 21.8496 6.32375 21.2553 5.97266 20.5957L5.8291 20.3096C5.46518 19.5352 5.26027 18.6948 5.22559 17.8398L5.22461 17.8271C5.19918 16.8303 5.44773 15.8453 5.94238 14.9795C6.43716 14.1136 7.15948 13.3993 8.03125 12.915C8.24142 12.7983 8.49186 12.7759 8.71973 12.8525C8.94725 12.9293 9.13265 13.0986 9.22949 13.3184C9.46284 13.8476 9.77637 14.336 10.1553 14.7686C10.5763 14.0986 10.7782 13.2683 10.7715 12.3477C10.7623 11.1019 10.3691 9.75707 9.70703 8.61035C9.56743 8.3724 9.51659 8.09129 9.56445 7.81934L9.58789 7.71582C9.65284 7.47744 9.79224 7.26499 9.9873 7.11035L10.0801 7.0459C10.284 6.92417 10.5172 6.85938 10.7549 6.85938L10.9316 6.87207ZM11.8799 9.22461C12.2557 10.2257 12.4738 11.2932 12.4814 12.335C12.4929 13.9116 12.0211 15.4974 10.8115 16.6494C10.4962 16.9493 10.0052 16.9643 9.67188 16.6846C9.07285 16.1811 8.56188 15.5849 8.15137 14.9238C7.86618 15.185 7.62036 15.4893 7.42676 15.8281C7.08726 16.4225 6.91717 17.0989 6.93457 17.7832C6.96149 18.4061 7.11188 19.0179 7.37695 19.582C7.64394 20.1501 8.02182 20.6602 8.48828 21.0801C8.95487 21.4999 9.50169 21.8225 10.0947 22.0283C10.6877 22.234 11.3161 22.3189 11.9424 22.2783C11.9607 22.2771 11.9797 22.2764 11.998 22.2764C13.7202 22.2763 14.9396 21.746 15.7402 20.9658C16.5459 20.1807 17.0042 19.0676 17.0615 17.7676C17.184 14.9302 15.3567 11.3583 11.8799 9.22461Z" fill="black"/>
<path d="M7.71484 0.00195312C8.18681 0.00223586 8.56934 0.385393 8.56934 0.857422C8.5692 1.32934 8.18673 1.71261 7.71484 1.71289C4.39995 1.71289 1.71289 4.39995 1.71289 7.71484C1.71261 8.18673 1.32934 8.5692 0.857422 8.56934C0.385393 8.56934 0.00223586 8.18681 0.00195312 7.71484C0.00195312 3.45554 3.45554 0.00195312 7.71484 0.00195312Z" fill="black"/>
<path d="M7.71387 4.28711C8.18599 4.28711 8.5692 4.67049 8.56934 5.14258C8.56934 5.61478 8.18607 5.99805 7.71387 5.99805C6.76621 5.99825 5.99825 6.76621 5.99805 7.71387C5.99805 8.18607 5.61478 8.56934 5.14258 8.56934C4.67049 8.5692 4.28711 8.18599 4.28711 7.71387C4.28732 5.8218 5.8218 4.28732 7.71387 4.28711Z" fill="black"/>
<path d="M16.2861 4.28711C18.1781 4.28737 19.7127 5.82183 19.7129 7.71387C19.7129 8.18591 19.3294 8.56907 18.8574 8.56934C18.3853 8.56926 18.0029 8.18602 18.0029 7.71387C18.0027 6.76626 17.2337 5.99831 16.2861 5.99805C15.8139 5.99805 15.4307 5.61478 15.4307 5.14258C15.4308 4.67049 15.814 4.28711 16.2861 4.28711Z" fill="black"/>
<path d="M16.2861 0.00195312C20.5451 0.00221707 23.998 3.4557 23.998 7.71484C23.9978 8.18655 23.6152 8.56892 23.1436 8.56934C22.6715 8.56934 22.2884 8.18681 22.2881 7.71484C22.2881 4.40012 19.6007 1.71315 16.2861 1.71289C15.814 1.71289 15.4308 1.32951 15.4307 0.857422C15.4307 0.385218 15.8139 0.00195312 16.2861 0.00195312Z" fill="black"/>
</svg>
