<svg width="24" height="24" viewBox="0 0 24 24" fill="none" xmlns="http://www.w3.org/2000/svg">
<path fill-rule="evenodd" clip-rule="evenodd" d="M15.4287 8.57324C15.7367 8.5733 16.0211 8.73981 16.1729 9.00781C16.3242 9.27559 16.3202 9.6043 16.1621 9.86816L14.3672 12.8594H16.041C17.2116 12.8594 17.7711 14.2978 16.9082 15.0889L7.43457 23.7734C7.14741 24.0364 6.71833 24.0722 6.3916 23.8604C6.06508 23.6485 5.9231 23.2424 6.0459 22.873L8.24219 16.2842H5.88184C4.89639 16.2842 4.27794 15.2189 4.7666 14.3633L7.8291 9.00488L7.89258 8.90918C8.05297 8.69955 8.30306 8.57328 8.57129 8.57324H15.4287ZM6.61719 14.5732H9.42871C9.70345 14.5733 9.9614 14.7059 10.1221 14.9287C10.2827 15.1516 10.3261 15.4386 10.2393 15.6992L8.71094 20.2832L14.9453 14.5693H12.8574C12.5495 14.5693 12.2651 14.4036 12.1133 14.1357C11.9615 13.8678 11.9656 13.5385 12.124 13.2744L13.918 10.2842H9.06738L6.61719 14.5732Z" fill="black"/>
<path d="M7.71484 0.00195312C8.18681 0.00223586 8.56934 0.385393 8.56934 0.857422C8.5692 1.32934 8.18673 1.71261 7.71484 1.71289C4.39995 1.71289 1.71289 4.39995 1.71289 7.71484C1.71261 8.18673 1.32934 8.5692 0.857422 8.56934C0.385393 8.56934 0.00223586 8.18681 0.00195312 7.71484C0.00195312 3.45554 3.45554 0.00195312 7.71484 0.00195312Z" fill="black"/>
<path d="M7.71387 4.28711C8.18599 4.28711 8.5692 4.67049 8.56934 5.14258C8.56934 5.61478 8.18607 5.99805 7.71387 5.99805C6.76621 5.99825 5.99825 6.76621 5.99805 7.71387C5.99805 8.18607 5.61478 8.56934 5.14258 8.56934C4.67049 8.5692 4.28711 8.18599 4.28711 7.71387C4.28732 5.8218 5.8218 4.28732 7.71387 4.28711Z" fill="black"/>
<path d="M16.2861 4.28711C18.1781 4.28737 19.7127 5.82183 19.7129 7.71387C19.7129 8.18591 19.3294 8.56907 18.8574 8.56934C18.3853 8.56926 18.0029 8.18602 18.0029 7.71387C18.0027 6.76626 17.2337 5.99831 16.2861 5.99805C15.8139 5.99805 15.4307 5.61478 15.4307 5.14258C15.4308 4.67049 15.814 4.28711 16.2861 4.28711Z" fill="black"/>
<path d="M16.2861 0.00195312C20.5451 0.00221707 23.998 3.4557 23.998 7.71484C23.9978 8.18655 23.6152 8.56892 23.1436 8.56934C22.6715 8.56934 22.2884 8.18681 22.2881 7.71484C22.2881 4.40012 19.6007 1.71315 16.2861 1.71289C15.814 1.71289 15.4308 1.32951 15.4307 0.857422C15.4307 0.385218 15.8139 0.00195312 16.2861 0.00195312Z" fill="black"/>
</svg>
