<svg width="24" height="24" viewBox="0 0 24 24" fill="none" xmlns="http://www.w3.org/2000/svg">
<path d="M8.70006 0.408484C8.9476 0.00665569 9.47479 -0.119081 9.87681 0.128211C10.2788 0.375606 10.4042 0.902861 10.1571 1.30497L3.8524 11.5491C3.68249 11.8252 3.68258 12.1743 3.8524 12.4505L10.1571 22.6946C10.4042 23.0966 10.2785 23.6229 9.87681 23.8704C9.47466 24.1179 8.94754 23.9923 8.70006 23.5901L2.39634 13.346C1.88846 12.5203 1.88833 11.4792 2.39634 10.6536L8.70006 0.408484Z" fill="black"/>
<path d="M14.1229 0.128211C14.5249 -0.119134 15.0521 0.0067001 15.2997 0.408484L21.5887 10.6292C22.1058 11.4694 22.1057 12.5292 21.5887 13.3694L15.2997 23.5901C15.0522 23.9923 14.5251 24.1179 14.1229 23.8704C13.7214 23.6228 13.5956 23.0965 13.8426 22.6946L20.1327 12.4739C20.3115 12.1833 20.3115 11.8163 20.1327 11.5257L13.8426 1.30497C13.5956 0.902898 13.721 0.375606 14.1229 0.128211Z" fill="black"/>
</svg>
