<svg width="24" height="24" viewBox="0 0 24 24" fill="none" xmlns="http://www.w3.org/2000/svg">
<path d="M10.6298 14.411C11.4701 13.8941 12.5298 13.894 13.3701 14.411L23.5908 20.7001C23.9927 20.9476 24.1184 21.4748 23.871 21.8769C23.6236 22.2786 23.0972 22.404 22.6953 22.1571L12.4746 15.8671C12.1839 15.6882 11.817 15.6883 11.5263 15.8671L1.30561 22.1571C0.903538 22.4045 0.376368 22.2788 0.128847 21.8769C-0.118633 21.4747 0.00696468 20.9476 0.409121 20.7001L10.6298 14.411Z" fill="black"/>
<path d="M0.128847 2.12295C0.376334 1.72086 0.903478 1.59525 1.30561 1.84267L11.5497 8.14736C11.8258 8.31705 12.1741 8.31716 12.4501 8.14736L22.6953 1.84267C23.0973 1.59566 23.6236 1.72112 23.871 2.12295C24.1183 2.52502 23.9927 3.05223 23.5908 3.2997L13.3466 9.60342C12.5209 10.1115 11.479 10.1114 10.6533 9.60342L0.409121 3.2997C0.00699058 3.05223 -0.118585 2.52509 0.128847 2.12295Z" fill="black"/>
</svg>
