<svg width="24" height="24" viewBox="0 0 24 24" fill="none" xmlns="http://www.w3.org/2000/svg">
<path d="M7.11035 4.53796C7.44425 4.2046 7.98559 4.20434 8.31934 4.53796C8.65293 4.8717 8.65269 5.41305 8.31934 5.74694L2.9209 11.1444H23.1436C23.6154 11.1448 23.9979 11.528 23.998 11.9999C23.998 12.4719 23.6155 12.855 23.1436 12.8553H2.92285L8.31934 18.2518C8.65311 18.5856 8.65287 19.1279 8.31934 19.4618C7.98557 19.7954 7.44424 19.7952 7.11035 19.4618L0.269531 12.621C0.18361 12.5396 0.11478 12.4407 0.0683594 12.33C0.0625491 12.316 0.0567991 12.3021 0.0517578 12.288C0.0380747 12.2497 0.0267225 12.2103 0.0185547 12.1698C0.0161494 12.1578 0.0145849 12.1457 0.0126953 12.1337C0.0058529 12.0901 0.00195312 12.0453 0.00195312 11.9999C0.00196522 11.9543 0.00581799 11.9097 0.0126953 11.8661C0.0186643 11.8284 0.0260762 11.7906 0.0371094 11.7538C0.0421004 11.7372 0.0487289 11.7211 0.0546875 11.7049C0.0586196 11.6942 0.0620319 11.6833 0.0664062 11.6727C0.11153 11.5639 0.178448 11.4663 0.261719 11.3856L7.11035 4.53796Z" fill="black"/>
</svg>
