<svg width="24" height="24" viewBox="0 0 24 24" fill="none" xmlns="http://www.w3.org/2000/svg">
<path d="M12 15.4307C12.0312 15.4307 12.0624 15.4313 12.0928 15.4346C12.9952 15.4829 13.7119 16.2291 13.7119 17.1436C13.7115 18.0563 12.9969 18.7984 12.0967 18.8486C12.065 18.8522 12.0326 18.8555 12 18.8555L11.9121 18.8506C11.9088 18.8502 11.9056 18.849 11.9023 18.8486C11.0026 18.7978 10.2875 18.0559 10.2871 17.1436C10.2871 16.2295 11.0044 15.4835 11.9062 15.4346C11.937 15.4312 11.9683 15.4307 12 15.4307Z" fill="black"/>
<path d="M7.03223 10.2959C7.8955 10.3836 8.56921 11.1136 8.56934 12C8.56919 12.9139 7.85285 13.6572 6.95117 13.7061C6.92035 13.7094 6.88914 13.7119 6.85742 13.7119C6.82615 13.7119 6.79505 13.7103 6.76465 13.707C5.86231 13.6588 5.14468 12.9143 5.14453 12C5.14466 11.0545 5.91191 10.2871 6.85742 10.2871L7.03223 10.2959Z" fill="black"/>
<path d="M17.1514 10.2871C18.0615 10.2916 18.8009 11.0072 18.8496 11.9062C18.853 11.9371 18.8555 11.9683 18.8555 12C18.8555 12.0314 18.8529 12.0623 18.8496 12.0928C18.803 12.9648 18.1065 13.661 17.2344 13.707C17.2045 13.7102 17.1742 13.7119 17.1436 13.7119C17.1125 13.7119 17.0809 13.7103 17.0508 13.707C16.1786 13.6606 15.4808 12.964 15.4346 12.0918C15.4314 12.0617 15.4307 12.031 15.4307 12C15.4307 11.9687 15.4313 11.9377 15.4346 11.9072C15.4828 11.0079 16.2237 10.2919 17.1338 10.2871H17.1514Z" fill="black"/>
<path fill-rule="evenodd" clip-rule="evenodd" d="M12.001 0.858398C18.1534 0.858889 23.1416 5.84843 23.1416 12.001C23.1411 18.1531 18.1531 23.1411 12.001 23.1416C5.84843 23.1416 0.858889 18.1534 0.858398 12.001C0.858398 5.84813 5.84813 0.858398 12.001 0.858398ZM12.001 2.57031C6.79254 2.57031 2.57031 6.79254 2.57031 12.001C2.5708 17.209 6.79284 21.4316 12.001 21.4316C17.2087 21.4312 21.4312 17.2087 21.4316 12.001C21.4316 6.79284 17.209 2.5708 12.001 2.57031Z" fill="black"/>
</svg>
