<svg width="24" height="24" viewBox="0 0 24 24" fill="none" xmlns="http://www.w3.org/2000/svg">
<path fill-rule="evenodd" clip-rule="evenodd" d="M6.85645 0.00195312C8.27528 0.00195312 9.42555 1.1525 9.42578 2.57129V7.00684C10.4242 7.35929 11.1404 8.30976 11.1406 9.42871V16.2861C11.1404 18.3603 9.66593 20.0896 7.70801 20.4844C7.71091 20.513 7.71288 20.5419 7.71289 20.5713V23.1426C7.71289 23.6147 7.32951 23.9979 6.85742 23.998C6.38522 23.998 6.00195 23.6148 6.00195 23.1426V20.5713C6.00196 20.542 6.00199 20.5129 6.00488 20.4844C4.04766 20.089 2.57347 18.3597 2.57324 16.2861V9.42871C2.57342 8.31032 3.28937 7.36069 4.28711 7.00781V2.57129C4.28734 1.15272 5.43791 0.00231121 6.85645 0.00195312ZM4.28418 16.2861C4.28444 17.7073 5.43624 18.8594 6.85742 18.8594C8.27854 18.8593 9.4304 17.7072 9.43066 16.2861V12.8555H4.28418V16.2861ZM5.14258 8.57031C4.66834 8.57054 4.28441 8.95447 4.28418 9.42871V11.1445H9.43066V9.42871C9.43044 8.95433 9.04572 8.57031 8.57129 8.57031H5.14258ZM6.85645 1.71289C6.38232 1.71325 5.99827 2.09713 5.99805 2.57129V6.85938H7.71582V2.57129C7.71559 2.09691 7.33088 1.71289 6.85645 1.71289Z" fill="black"/>
<path fill-rule="evenodd" clip-rule="evenodd" d="M17.1426 0.00195312C18.5614 0.00195312 19.7117 1.1525 19.7119 2.57129V7.00684C20.7101 7.35941 21.4266 8.30993 21.4268 9.42871V16.2861C21.4265 18.3602 19.9518 20.0895 17.9941 20.4844C17.997 20.5129 17.998 20.542 17.998 20.5713V23.1426C17.998 23.6148 17.6148 23.998 17.1426 23.998C16.6705 23.9979 16.2871 23.6147 16.2871 23.1426V20.5713C16.2871 20.542 16.2881 20.5129 16.291 20.4844C14.3336 20.0892 12.8596 18.3599 12.8594 16.2861V9.42871C12.8596 8.31005 13.5751 7.3595 14.5732 7.00684V2.57129C14.5735 1.15264 15.7239 0.00217925 17.1426 0.00195312ZM14.5703 16.2861C14.5706 17.7073 15.7224 18.8594 17.1436 18.8594C18.5644 18.859 19.7165 17.707 19.7168 16.2861V12.8555H14.5703V16.2861ZM15.4287 8.57031C14.9545 8.57054 14.5705 8.95447 14.5703 9.42871V11.1445H19.7168V9.42871C19.7166 8.9545 19.3316 8.57058 18.8574 8.57031H15.4287ZM17.1426 1.71289C16.6683 1.71312 16.2844 2.09705 16.2842 2.57129V6.85938H18.002V2.57129C18.0017 2.09691 17.617 1.71289 17.1426 1.71289Z" fill="black"/>
</svg>
