<svg width="24" height="24" viewBox="0 0 24 24" fill="none" xmlns="http://www.w3.org/2000/svg">
<path d="M12.0003 8.57324C12.4724 8.57341 12.8558 8.95661 12.8558 9.42871V21.0781L13.9671 19.9668C14.301 19.6332 14.8423 19.6331 15.1761 19.9668C15.5099 20.3006 15.5097 20.8419 15.1761 21.1758L12.6048 23.7471C12.5651 23.7867 12.5207 23.8212 12.474 23.8525L12.47 23.8564C12.4464 23.8721 12.4226 23.8874 12.3978 23.9004C12.3794 23.9101 12.36 23.9175 12.3411 23.9258C12.3378 23.9272 12.3347 23.9293 12.3314 23.9307C12.328 23.9321 12.325 23.9342 12.3216 23.9355C12.2959 23.9459 12.2699 23.9551 12.2435 23.9629C12.221 23.9695 12.198 23.9737 12.1751 23.9785L12.1712 23.9805C12.1686 23.981 12.166 23.9819 12.1634 23.9824C12.1366 23.9876 12.1095 23.9915 12.0824 23.9941C12.0278 23.9994 11.9728 23.9993 11.9183 23.9941C11.8911 23.9915 11.8641 23.9876 11.8372 23.9824C11.8346 23.9819 11.832 23.981 11.8294 23.9805C11.8264 23.9799 11.8236 23.9782 11.8206 23.9775C11.7991 23.9729 11.7774 23.9692 11.7562 23.9629C11.7036 23.9473 11.6522 23.9263 11.6029 23.9004C11.6001 23.899 11.5977 23.897 11.595 23.8955C11.517 23.8534 11.4462 23.7996 11.3851 23.7363L8.82454 21.1758C8.49064 20.8419 8.49064 20.3007 8.82454 19.9668C9.15846 19.6332 9.69972 19.633 10.0335 19.9668L11.1449 21.0781V9.42871C11.1449 8.95651 11.5281 8.57324 12.0003 8.57324Z" fill="black"/>
<path fill-rule="evenodd" clip-rule="evenodd" d="M19.7142 0.00195312C20.5229 0.00197173 21.2846 0.383341 21.7699 1.03027C23.0399 2.72401 21.8313 5.14058 19.7142 5.14062H4.28645C2.16931 5.14062 0.960646 2.72403 2.23079 1.03027C2.71601 0.383312 3.47775 0.00195312 4.28645 0.00195312H19.7142ZM16.2845 3.43066H19.7142C20.4222 3.43062 20.8263 2.62211 20.4017 2.05566C20.2394 1.8396 19.9844 1.71291 19.7142 1.71289H16.2845V3.43066ZM9.42708 3.43066H14.5736V1.71289H9.42708V3.43066ZM4.28645 1.71289C4.01617 1.71289 3.76125 1.83956 3.59895 2.05566C3.17426 2.62213 3.57842 3.43066 4.28645 3.43066H7.71614V1.71289H4.28645Z" fill="black"/>
</svg>
