<svg width="24" height="24" viewBox="0 0 24 24" fill="none" xmlns="http://www.w3.org/2000/svg">
<path d="M19.715 6.85938C20.1869 6.85968 20.5694 7.24283 20.5694 7.71484V20.2119C20.5692 22.3027 18.8741 23.9978 16.7833 23.998H7.21789C5.12686 23.998 3.43104 22.3029 3.43078 20.2119V7.71484C3.43078 7.24264 3.81404 6.85938 4.28625 6.85938C4.75825 6.85961 5.14171 7.24278 5.14171 7.71484V20.2119C5.14198 21.3585 6.07127 22.2881 7.21789 22.2881H16.7833C17.9297 22.2879 18.8592 21.3583 18.8595 20.2119V7.71484C18.8595 7.24264 19.2428 6.85938 19.715 6.85938Z" fill="black"/>
<path fill-rule="evenodd" clip-rule="evenodd" d="M19.714 0.00195312C20.5226 0.00201139 21.2845 0.383374 21.7696 1.03027C23.0396 2.72398 21.831 5.14048 19.714 5.14062H4.28625C2.16907 5.14062 0.960364 2.72404 2.23058 1.03027C2.7158 0.383312 3.47754 0.00195312 4.28625 0.00195312H19.714ZM16.2843 3.43066H19.714C20.4219 3.43052 20.826 2.62208 20.4015 2.05566C20.2392 1.83964 19.9842 1.71295 19.714 1.71289H16.2843V3.43066ZM9.42687 3.43066H14.5734V1.71289H9.42687V3.43066ZM4.28625 1.71289C4.01597 1.71289 3.76104 1.83956 3.59875 2.05566C3.17397 2.62213 3.57818 3.43066 4.28625 3.43066H7.71593V1.71289H4.28625Z" fill="black"/>
</svg>
