<svg width="24" height="24" viewBox="0 0 24 24" fill="none" xmlns="http://www.w3.org/2000/svg">
<path d="M19.714 6.85938C20.1861 6.85945 20.5685 7.24269 20.5685 7.71484V20.2119C20.5682 22.3029 18.8734 23.998 16.7823 23.998H7.21691C5.12591 23.998 3.43006 22.3029 3.4298 20.2119V7.71484C3.4298 7.24266 3.81309 6.85941 4.28527 6.85938C4.75747 6.85938 5.14074 7.24264 5.14074 7.71484V20.2119C5.141 21.3584 6.07032 22.2881 7.21691 22.2881H16.7823C17.929 22.2881 18.8582 21.3585 18.8585 20.2119V7.71484C18.8585 7.24266 19.2418 6.85941 19.714 6.85938Z" fill="black"/>
<path d="M14.0978 15.5752C14.4906 15.3134 15.0214 15.4188 15.2833 15.8115C15.5447 16.2043 15.4385 16.7352 15.046 16.9971L12.4747 18.7119C12.1877 18.9033 11.8126 18.903 11.5255 18.7119L8.95421 16.9971C8.56173 16.7351 8.45617 16.2043 8.71789 15.8115C8.97992 15.419 9.51069 15.3134 9.90343 15.5752L12.0001 16.9727L14.0978 15.5752Z" fill="black"/>
<path d="M11.5255 10.4316C11.8126 10.2405 12.1877 10.2403 12.4747 10.4316L15.046 12.1455C15.4385 12.4074 15.5447 12.9383 15.2833 13.3311C15.0215 13.7238 14.4906 13.8299 14.0978 13.5684L12.0001 12.1699L9.90343 13.5684C9.5106 13.8302 8.97986 13.7238 8.71789 13.3311C8.45601 12.9382 8.56153 12.4075 8.95421 12.1455L11.5255 10.4316Z" fill="black"/>
<path fill-rule="evenodd" clip-rule="evenodd" d="M19.714 0.00195312C20.5226 0.00201139 21.2845 0.383374 21.7696 1.03027C23.0396 2.72398 21.831 5.14048 19.714 5.14062H4.28625C2.16907 5.14062 0.960364 2.72404 2.23058 1.03027C2.7158 0.383312 3.47754 0.00195312 4.28625 0.00195312H19.714ZM16.2843 3.43066H19.714C20.4219 3.43052 20.826 2.62208 20.4015 2.05566C20.2392 1.83964 19.9842 1.71295 19.714 1.71289H16.2843V3.43066ZM9.42687 3.43066H14.5734V1.71289H9.42687V3.43066ZM4.28625 1.71289C4.01597 1.71289 3.76104 1.83956 3.59875 2.05566C3.17397 2.62213 3.57818 3.43066 4.28625 3.43066H7.71593V1.71289H4.28625Z" fill="black"/>
</svg>
