<svg width="24" height="24" viewBox="0 0 24 24" fill="none" xmlns="http://www.w3.org/2000/svg">
<path fill-rule="evenodd" clip-rule="evenodd" d="M20.6 13.7168C20.616 13.7173 20.6319 13.7183 20.6478 13.7197C20.6646 13.7212 20.6811 13.7241 20.6976 13.7266C20.7051 13.7277 20.7126 13.7282 20.7201 13.7295L20.7435 13.7334C20.7521 13.7352 20.7604 13.7382 20.7689 13.7402C20.7859 13.7443 20.803 13.7479 20.8197 13.7529C20.8263 13.7549 20.8327 13.7576 20.8392 13.7598C20.8553 13.7651 20.8714 13.7701 20.8871 13.7764C20.9036 13.783 20.9199 13.7903 20.9359 13.7979C20.9458 13.8025 20.9555 13.8075 20.9652 13.8125C20.9767 13.8185 20.9882 13.8246 20.9994 13.8311C21.0082 13.8362 21.0171 13.8413 21.0257 13.8467L21.0492 13.8623C21.0548 13.8661 21.0603 13.8701 21.0658 13.874C21.0781 13.8827 21.09 13.892 21.1019 13.9014C21.113 13.9101 21.1235 13.9194 21.1341 13.9287C21.1415 13.9351 21.1495 13.9406 21.1566 13.9473L21.1761 13.9668C21.1802 13.9709 21.1839 13.9753 21.1879 13.9795C21.1995 13.9916 21.2111 14.0038 21.222 14.0166C21.2312 14.0274 21.2398 14.0386 21.2484 14.0498C21.2575 14.0616 21.2663 14.0736 21.2748 14.0859C21.2799 14.0933 21.2846 14.1009 21.2894 14.1084C21.2993 14.1237 21.3088 14.1392 21.3177 14.1553C21.3372 14.19 21.354 14.2262 21.3685 14.2637C21.3733 14.276 21.3789 14.2881 21.3832 14.3008L23.097 19.4434C23.1804 19.6936 23.1437 19.969 22.9974 20.1885L21.2875 22.752C21.24 22.8247 21.1824 22.8902 21.1156 22.9453C21.0823 22.9728 21.0467 22.9967 21.0101 23.0186C20.9508 23.0542 20.8872 23.083 20.8197 23.1035C20.8161 23.1046 20.8125 23.1054 20.8089 23.1064C20.7335 23.1283 20.6541 23.1416 20.5716 23.1416H3.42906C3.23353 23.1416 3.05367 23.0744 2.90953 22.9639C2.90143 22.9577 2.89302 22.9518 2.88512 22.9453C2.8178 22.8898 2.75902 22.8244 2.71129 22.751L1.00328 20.1885C0.857127 19.969 0.819308 19.6935 0.902698 19.4434L2.61754 14.3008C2.61875 14.2972 2.6202 14.2936 2.62145 14.29C2.65701 14.1882 2.71075 14.0949 2.77965 14.0146C2.78552 14.0078 2.79116 14.0008 2.79723 13.9941C2.82866 13.9598 2.86316 13.9283 2.89977 13.8994C2.90986 13.8915 2.9206 13.8844 2.93102 13.877C2.94275 13.8685 2.95401 13.8594 2.96617 13.8516C2.97354 13.8468 2.98113 13.8424 2.98864 13.8379C3.00522 13.8279 3.02213 13.8184 3.03942 13.8096C3.04797 13.8052 3.05709 13.8019 3.06578 13.7979C3.08158 13.7904 3.09733 13.7828 3.11364 13.7764C3.121 13.7734 3.12865 13.7713 3.1361 13.7686C3.15576 13.7614 3.17536 13.7538 3.19567 13.748C3.19885 13.7471 3.20224 13.747 3.20543 13.7461C3.22221 13.7416 3.23904 13.7369 3.25621 13.7334L3.27965 13.7295C3.28613 13.7283 3.29267 13.7276 3.29918 13.7266C3.3131 13.7244 3.32704 13.7221 3.34117 13.7207L3.36266 13.7188C3.37499 13.7178 3.38736 13.7172 3.39977 13.7168C3.40939 13.7165 3.41937 13.7158 3.42906 13.7158H20.5716C20.5811 13.7158 20.5906 13.7165 20.6 13.7168ZM2.65758 19.5879L3.8861 21.4307H6.52867L6.04625 19.9844C6.00226 19.8522 5.99112 19.7107 6.01403 19.5732L6.70543 15.4268H4.0443L2.65758 19.5879ZM7.73571 19.6445L8.33043 21.4307H11.1449V15.4268H8.43883L7.73571 19.6445ZM12.8558 21.4307H15.6693L16.265 19.6445L15.5609 15.4268H12.8558V21.4307ZM17.9857 19.5732C18.0086 19.7108 17.9975 19.8521 17.9535 19.9844L17.472 21.4307H20.1146L21.3422 19.5879L19.9554 15.4268H17.2953L17.9857 19.5732Z" fill="black"/>
<path fill-rule="evenodd" clip-rule="evenodd" d="M12.0004 0.858398L12.3089 0.866211C15.4778 1.027 17.9983 3.64862 17.9984 6.85742V11.1436C17.9981 11.6152 17.6156 11.9976 17.1439 11.998C16.6719 11.998 16.2888 11.6155 16.2884 11.1436V7.71289H7.71324V11.1436C7.71291 11.6154 7.32962 11.9979 6.85778 11.998C6.38578 11.998 6.00265 11.6155 6.00231 11.1436V6.85742C6.00246 3.54512 8.68805 0.858549 12.0004 0.858398ZM12.8558 6.00195H16.2025C15.862 4.32028 14.5375 2.99582 12.8558 2.65527V6.00195ZM11.1449 2.65527C9.46311 2.99572 8.13857 4.32015 7.79821 6.00195H11.1449V2.65527Z" fill="black"/>
</svg>
