<svg width="24" height="24" viewBox="0 0 24 24" fill="none" xmlns="http://www.w3.org/2000/svg">
<path fill-rule="evenodd" clip-rule="evenodd" d="M12.5947 0.0166016C15.5602 0.163755 18.3749 1.40717 20.4844 3.5166C22.5966 5.62901 23.8393 8.448 23.9834 11.418C23.9874 11.4588 23.9883 11.4998 23.9863 11.541C23.9922 11.6936 23.998 11.8467 23.998 12C23.998 14.0991 23.4441 16.1395 22.4238 17.9326C22.4135 17.9547 22.4031 17.9775 22.3906 17.999C22.3825 18.0131 22.3721 18.0256 22.3633 18.0391C21.8479 18.9236 21.2207 19.7481 20.4844 20.4844C18.2344 22.7343 15.182 23.998 12 23.998C10.0841 23.998 8.21688 23.5364 6.54199 22.6807C6.4972 22.6622 6.45343 22.6412 6.41211 22.6152C5.35507 22.0589 4.37681 21.3445 3.5166 20.4844C2.77769 19.7455 2.14733 18.9184 1.63086 18.0303C1.62421 18.0198 1.6166 18.0098 1.61035 17.999C1.59978 17.9807 1.59013 17.9621 1.58105 17.9434C0.556877 16.1478 0.00199588 14.103 0.00195312 12C0.00202704 8.8181 1.26667 5.76656 3.5166 3.5166C4.11538 2.91782 4.77202 2.39046 5.47168 1.93652C5.51702 1.90081 5.56611 1.86982 5.61816 1.84375C7.51533 0.651477 9.72358 0.00200601 12 0.00195312L12.5947 0.0166016ZM8.78711 21.7695C9.81486 22.1076 10.8978 22.2881 12 22.2881C14.7284 22.2881 17.3451 21.2037 19.2744 19.2744C19.7108 18.838 20.1011 18.3643 20.4482 17.8643L17.999 16.4502L8.78711 21.7695ZM3.55078 17.8643C3.89793 18.3645 4.28911 18.8379 4.72559 19.2744C5.3674 19.9162 6.08661 20.4622 6.85938 20.9082L16.29 15.4639L11.999 12.9863L3.55078 17.8643ZM12.8555 11.5059L18.4268 14.7236C18.4352 14.7285 18.4438 14.7331 18.4521 14.7383L21.3057 16.3857C21.9463 15.0268 22.288 13.5311 22.2881 12L22.2871 11.998L12.8555 6.55273V11.5059ZM5.14453 4.33105C5.00188 4.45858 4.86161 4.58957 4.72559 4.72559C2.79634 6.65486 1.71296 9.27162 1.71289 12C1.71293 13.5307 2.05423 15.026 2.69434 16.3848L5.14453 14.9707V4.33105ZM11.1445 1.75C9.62573 1.87666 8.16255 2.33893 6.85547 3.09375V13.9824L11.1445 11.5068V1.75ZM12.8555 4.57812L22.0684 9.89844C21.6623 7.95374 20.7004 6.15165 19.2744 4.72559C17.5478 2.99913 15.2705 1.95144 12.8555 1.75V4.57812Z" fill="black"/>
</svg>
