<svg width="24" height="24" viewBox="0 0 24 24" fill="none" xmlns="http://www.w3.org/2000/svg">
<path fill-rule="evenodd" clip-rule="evenodd" d="M12 0.00195312L12.3096 0.00585938C18.7926 0.170198 23.9979 5.47748 23.998 12C23.9979 18.6261 18.6261 23.9979 12 23.998C5.37398 23.9979 0.00208508 18.6261 0.00195312 12C0.00210397 5.37399 5.37399 0.00210397 12 0.00195312ZM6.29492 20.5605C7.92763 21.6509 9.88929 22.288 12 22.2881C14.1103 22.288 16.0715 21.6514 17.7041 20.5615L15.0439 17.5693H8.95508L6.29492 20.5605ZM1.84473 10.3506C1.75819 10.8876 1.71291 11.4386 1.71289 12C1.71296 14.9554 2.96065 17.6177 4.95605 19.4941L7.5957 16.5234L5.77246 11.4209L1.84473 10.3506ZM18.2266 11.4209L16.4043 16.5254L19.043 19.4941C21.0389 17.6176 22.288 14.9557 22.2881 12C22.2881 11.4385 22.2409 10.8876 22.1543 10.3506L18.2266 11.4209ZM7.43262 10.9844L9.1748 15.8594H14.8262L16.5664 10.9844L12 7.11914L7.43262 10.9844ZM11.1445 1.75C6.99711 2.09147 3.54906 4.89123 2.25879 8.69043L6.21875 9.77051L11.1445 5.60449V1.75ZM12.8555 5.60352L17.7803 9.77051L21.7402 8.69043C20.4497 4.8915 17.0028 2.09152 12.8555 1.75V5.60352Z" fill="black"/>
</svg>
