<svg width="24" height="24" viewBox="0 0 24 24" fill="none" xmlns="http://www.w3.org/2000/svg">
<path fill-rule="evenodd" clip-rule="evenodd" d="M12 0.00195312L12.3369 0.00683594C15.7968 0.102376 18.8917 1.6634 21.0205 4.08887C21.0248 4.09337 21.029 4.09792 21.0332 4.10254C21.0368 4.10662 21.0404 4.11114 21.0439 4.11523C22.883 6.22315 23.998 8.9828 23.998 12C23.998 15.0173 22.8831 17.7768 21.0439 19.8848C18.8458 22.404 15.6082 23.998 12 23.998C8.39195 23.998 5.15513 22.4038 2.95703 19.8848C1.11779 17.7768 0.00201331 15.0173 0.00195312 12C0.00202196 8.98269 1.11781 6.22319 2.95703 4.11523C2.96053 4.11123 2.96329 4.10654 2.9668 4.10254C2.97128 4.09758 2.97589 4.09272 2.98047 4.08789C5.1781 1.58454 8.40492 0.00203511 12 0.00195312ZM11.1445 1.74707C8.73626 1.94517 6.56458 2.97409 4.91211 4.5459C7.13551 6.26914 8.56928 8.96665 8.56934 12C8.56926 15.0331 7.13516 17.7298 4.91211 19.4531C6.56465 21.0253 8.73596 22.0538 11.1445 22.252V1.74707ZM12.8555 22.252C15.2637 22.0537 17.4345 21.025 19.0869 19.4531C16.8642 17.7297 15.4307 15.0328 15.4307 12C15.4307 8.96695 16.8638 6.26919 19.0869 4.5459C17.4346 2.9743 15.2635 1.9452 12.8555 1.74707V22.252ZM3.77246 5.8252C2.47932 7.54525 1.71295 9.68201 1.71289 12C1.71294 14.3175 2.4789 16.4539 3.77148 18.1738C5.64751 16.7651 6.8593 14.5239 6.85938 12C6.85931 9.47628 5.64828 7.23402 3.77246 5.8252ZM20.2266 5.8252C18.3512 7.23405 17.1417 9.47652 17.1416 12C17.1417 14.5231 18.3517 16.764 20.2266 18.1729C21.5193 16.4529 22.288 14.3175 22.2881 12C22.288 9.6818 21.52 7.54529 20.2266 5.8252Z" fill="black"/>
</svg>
