<svg width="24" height="24" viewBox="0 0 24 24" fill="none" xmlns="http://www.w3.org/2000/svg">
<path fill-rule="evenodd" clip-rule="evenodd" d="M6 1.71582C8.36561 1.7159 10.2831 3.63441 10.2832 6V6.00195H11.1426C11.6147 6.00203 11.9971 6.38526 11.9971 6.85742C11.9969 7.32947 11.6146 7.71282 11.1426 7.71289H7.71387C7.24186 7.71276 6.85853 7.32943 6.8584 6.85742C6.8584 6.3853 7.24178 6.00209 7.71387 6.00195H8.57324V6C8.57311 4.57881 7.4212 3.42683 6 3.42676C4.57874 3.42676 3.42689 4.57877 3.42676 6V12.002H23.1436C23.6153 12.0024 23.998 12.3855 23.998 12.8574C23.9979 13.3292 23.6153 13.7124 23.1436 13.7129H23.1406V15.4287C23.1405 18.4507 20.9053 20.949 17.998 21.3643V22.2852C17.998 22.7574 17.6148 23.1406 17.1426 23.1406C16.6704 23.1406 16.2871 22.7574 16.2871 22.2852V21.4268H7.71289V22.2852C7.71289 22.7572 7.3294 23.1404 6.85742 23.1406C6.38522 23.1406 6.00195 22.7574 6.00195 22.2852V21.3643C3.09456 20.9492 0.858519 18.4508 0.858398 15.4287V13.7129C0.386276 13.7129 0.00110857 13.3295 0.000976562 12.8574C0.000976562 12.3852 0.385218 12.002 0.857422 12.002H1.71582V6C1.71595 3.63436 3.63433 1.71582 6 1.71582ZM2.56934 15.4287C2.56947 17.7967 4.48951 19.7157 6.85742 19.7158H17.1426C19.5106 19.7157 21.4305 17.7967 21.4307 15.4287V13.7129H2.56934V15.4287Z" fill="black"/>
</svg>
