<svg width="24" height="24" viewBox="0 0 24 24" fill="none" xmlns="http://www.w3.org/2000/svg">
<path d="M5.14355 7.71582C5.61545 7.71608 5.99889 8.09936 5.99902 8.57129V15.4287C5.99887 15.9006 5.61544 16.2829 5.14355 16.2832C4.67144 16.2832 4.28824 15.9008 4.28809 15.4287V8.57129C4.28822 8.0992 4.67143 7.71582 5.14355 7.71582Z" fill="black"/>
<path d="M8.57129 7.71582C9.04341 7.71582 9.42663 8.0992 9.42676 8.57129V15.4287C9.42661 15.9008 9.0434 16.2832 8.57129 16.2832C8.09929 16.2831 7.71597 15.9007 7.71582 15.4287V8.57129C7.71595 8.09928 8.09928 7.71595 8.57129 7.71582Z" fill="black"/>
<path d="M12 7.71582C12.4721 7.71582 12.8553 8.0992 12.8555 8.57129V15.4287C12.8553 15.9008 12.4721 16.2832 12 16.2832C11.528 16.2831 11.1447 15.9007 11.1445 15.4287V8.57129C11.1447 8.09928 11.528 7.71595 12 7.71582Z" fill="black"/>
<path fill-rule="evenodd" clip-rule="evenodd" d="M18 3.43066C19.4056 3.4308 20.5691 4.59435 20.5693 6V7.28809H22.2861C23.2249 7.2883 23.9978 8.06122 23.998 9V15C23.998 15.939 23.2251 16.7127 22.2861 16.7129H20.5693V18C20.5693 19.4058 19.4058 20.5692 18 20.5693H2.57129C1.16556 20.5691 0.00195312 19.4057 0.00195312 18V6C0.00218394 4.59441 1.1657 3.43089 2.57129 3.43066H18ZM2.57129 5.1416C2.11009 5.14184 1.71313 5.5388 1.71289 6V18C1.71289 18.4614 2.10997 18.8591 2.57129 18.8594H18C18.4614 18.8592 18.8594 18.4614 18.8594 18V6C18.8591 5.53876 18.4613 5.14174 18 5.1416H2.57129ZM20.5693 15.0029H22.2812L22.2881 14.9961V9.00488L22.2852 9.00098L22.2812 8.99805H20.5693V15.0029Z" fill="black"/>
</svg>
