<svg width="24" height="24" viewBox="0 0 24 24" fill="none" xmlns="http://www.w3.org/2000/svg">
<path d="M5.14355 7.71582C5.61556 7.71595 5.99889 8.09928 5.99902 8.57129V15.4287C5.99887 15.9007 5.61555 16.2831 5.14355 16.2832C4.67144 16.2832 4.28824 15.9008 4.28809 15.4287V8.57129C4.28822 8.0992 4.67143 7.71582 5.14355 7.71582Z" fill="black"/>
<path d="M8.57227 7.71582C9.04416 7.71608 9.4276 8.09936 9.42773 8.57129V15.4287C9.42758 15.9006 9.04415 16.2829 8.57227 16.2832C8.10016 16.2832 7.71695 15.9008 7.7168 15.4287V8.57129C7.71693 8.0992 8.10014 7.71582 8.57227 7.71582Z" fill="black"/>
<path d="M12.001 7.71582C12.4729 7.71608 12.8563 8.09936 12.8564 8.57129V15.4287C12.8563 15.9006 12.4729 16.2829 12.001 16.2832C11.5289 16.2832 11.1457 15.9008 11.1455 15.4287V8.57129C11.1456 8.0992 11.5289 7.71582 12.001 7.71582Z" fill="black"/>
<path d="M15.4287 7.71582C15.9008 7.71582 16.284 8.0992 16.2842 8.57129V15.4287C16.284 15.9008 15.9008 16.2832 15.4287 16.2832C14.9567 16.2831 14.5734 15.9007 14.5732 15.4287V8.57129C14.5734 8.09928 14.9567 7.71595 15.4287 7.71582Z" fill="black"/>
<path fill-rule="evenodd" clip-rule="evenodd" d="M18 3.43066C19.4057 3.43066 20.5691 4.59427 20.5693 6V7.28809H22.2861C23.225 7.28816 23.9978 8.06114 23.998 9V15C23.998 15.9391 23.2252 16.7128 22.2861 16.7129H20.5693V18C20.5693 19.4059 19.4059 20.5693 18 20.5693H2.57129C1.16567 20.569 0.00195312 19.4057 0.00195312 18V6C0.00218391 4.59449 1.1658 3.43103 2.57129 3.43066H18ZM2.57129 5.1416C2.1102 5.14198 1.71313 5.53889 1.71289 6V18C1.71289 18.4613 2.11007 18.859 2.57129 18.8594H18C18.4615 18.8594 18.8594 18.4615 18.8594 18V6C18.8591 5.53868 18.4614 5.1416 18 5.1416H2.57129ZM20.5693 15.0029H22.2812L22.2881 14.9961V9.00488L22.2852 9.00098L22.2812 8.99805H20.5693V15.0029Z" fill="black"/>
</svg>
