<svg width="24" height="24" viewBox="0 0 24 24" fill="none" xmlns="http://www.w3.org/2000/svg">
<path fill-rule="evenodd" clip-rule="evenodd" d="M17.6328 1.71582C19.7276 1.71609 21.4265 3.41494 21.4268 5.50977V11.7656C22.4589 12.4437 23.1405 13.6114 23.1406 14.9385V15.0615C23.1405 16.7287 22.0645 18.1433 20.5693 18.6523V21.4287C20.5693 21.9009 20.186 22.2832 19.7139 22.2832C19.2418 22.2831 18.8585 21.9008 18.8584 21.4287V18.8555H5.14062V21.4287C5.14055 21.9009 4.75731 22.2832 4.28516 22.2832C3.81311 22.2831 3.42976 21.9008 3.42969 21.4287V18.6523C1.93481 18.1432 0.858527 16.7285 0.858398 15.0615V14.9385C0.858501 13.6113 1.54088 12.4437 2.57324 11.7656V5.50977C2.57354 3.41487 4.27226 1.71598 6.36719 1.71582H17.6328ZM4.65234 12.8555C3.50186 12.8558 2.5695 13.788 2.56934 14.9385V15.0615C2.5695 16.212 3.50186 17.1442 4.65234 17.1445H19.3467C20.4973 17.1444 21.4305 16.2122 21.4307 15.0615V14.9385C21.4305 13.7878 20.4973 12.8556 19.3467 12.8555H4.65234ZM6.36719 3.42676C5.21667 3.42692 4.28447 4.35928 4.28418 5.50977V11.1621C4.40532 11.1504 4.52814 11.1445 4.65234 11.1445H6.8584V7.50879C6.8584 6.20351 7.9174 5.14466 9.22266 5.14453H14.7764C16.0817 5.14453 17.1406 6.20343 17.1406 7.50879V11.1445H19.3467C19.4715 11.1445 19.5951 11.1503 19.7168 11.1621V5.50977C19.7165 4.35935 18.7832 3.42703 17.6328 3.42676H6.36719ZM9.22266 6.85547C8.86181 6.8556 8.56934 7.14791 8.56934 7.50879V11.1445H15.4307V7.50879C15.4307 7.14783 15.1373 6.85547 14.7764 6.85547H9.22266Z" fill="black"/>
</svg>
