<svg width="24" height="24" viewBox="0 0 24 24" fill="none" xmlns="http://www.w3.org/2000/svg">
<path d="M13.7139 22.2877C14.186 22.2878 14.5684 22.671 14.5684 23.1432C14.5682 23.6152 14.1859 23.9986 13.7139 23.9987H10.2852C9.81318 23.9985 9.42987 23.6152 9.42969 23.1432C9.42969 22.6711 9.81306 22.2879 10.2852 22.2877H13.7139Z" fill="black"/>
<path fill-rule="evenodd" clip-rule="evenodd" d="M12 3.0016C16.2069 3.00181 19.7118 6.50762 19.7119 10.7145V16.7145C19.7121 17.6429 20.5003 18.4303 21.4287 18.4303C21.9006 18.4306 22.2831 18.8138 22.2832 19.2858C22.2831 19.7577 21.9006 20.14 21.4287 20.1403H2.57129C2.09913 20.1403 1.7159 19.7579 1.71582 19.2858C1.7159 18.8136 2.09914 18.4303 2.57129 18.4303C3.49951 18.4302 4.28793 17.6427 4.28809 16.7145V10.7145C4.28817 6.50749 7.79299 3.0016 12 3.0016ZM12 4.71254C8.73739 4.71254 5.99813 7.4519 5.99805 10.7145V16.7145C5.998 17.3369 5.82522 17.9238 5.52734 18.4303H18.4727C18.1747 17.9237 18.002 17.337 18.002 16.7145V10.7145C18.0019 7.45202 15.2625 4.71275 12 4.71254Z" fill="black"/>
<path d="M4.9248 1.02406C5.30618 0.745658 5.84169 0.829243 6.12012 1.21058C6.39828 1.5919 6.31476 2.12653 5.93359 2.40492C3.31193 4.31885 1.71191 7.46267 1.71191 10.7145C1.71186 11.1866 1.32861 11.57 0.856445 11.57C0.384389 11.5698 0.00103289 11.1866 0.000976562 10.7145C0.000976562 6.91627 1.86274 3.25964 4.9248 1.02406Z" fill="black"/>
<path d="M17.8789 1.21058C18.1573 0.829256 18.6919 0.74581 19.0732 1.02406C22.1356 3.25963 23.9971 6.91601 23.9971 10.7145C23.997 11.1865 23.6146 11.5698 23.1426 11.57C22.6705 11.5698 22.2872 11.1866 22.2871 10.7145C22.2871 7.46257 20.6872 4.31886 18.0654 2.40492C17.6842 2.12654 17.6007 1.59192 17.8789 1.21058Z" fill="black"/>
</svg>
