<svg width="24" height="24" viewBox="0 0 24 24" fill="none" xmlns="http://www.w3.org/2000/svg">
<path d="M9.42871 10.2871C9.90072 10.2872 10.284 10.6706 10.2842 11.1426V18C10.284 18.472 9.90071 18.8544 9.42871 18.8545C8.9566 18.8545 8.57339 18.4721 8.57324 18V11.1426C8.57337 10.6705 8.95659 10.2871 9.42871 10.2871Z" fill="black"/>
<path d="M14.5713 10.2871C15.0433 10.2872 15.4266 10.6706 15.4268 11.1426V18C15.4266 18.472 15.0433 18.8544 14.5713 18.8545C14.0993 18.8543 13.7169 18.472 13.7168 18V11.1426C13.7169 10.6706 14.0993 10.2873 14.5713 10.2871Z" fill="black"/>
<path fill-rule="evenodd" clip-rule="evenodd" d="M12.001 0.00195312C14.8397 0.00244332 17.1416 2.30472 17.1416 5.14355L22.2861 5.14453C22.7581 5.1448 23.1416 5.52796 23.1416 6C23.1416 6.47204 22.7581 6.8552 22.2861 6.85547H20.5693V21.4287C20.5693 22.8475 19.4187 23.9978 18 23.998H6C4.58126 23.9978 3.43074 22.8475 3.43066 21.4287V6.85547H1.71484C1.24264 6.85547 0.858398 6.4722 0.858398 6C0.858398 5.5278 1.24264 5.14453 1.71484 5.14453H6.85938C6.85938 2.30539 9.16184 0.00195312 12.001 0.00195312ZM5.1416 21.4287C5.14168 21.9031 5.52567 22.2879 6 22.2881H18C18.4743 22.2878 18.8593 21.9031 18.8594 21.4287V6.85547H5.1416V21.4287ZM12.001 1.71289C10.1062 1.71289 8.57031 3.24882 8.57031 5.14355L15.4316 5.14453C15.4316 3.2501 13.8953 1.71338 12.001 1.71289Z" fill="black"/>
</svg>
