<svg width="24" height="24" viewBox="0 0 24 24" fill="none" xmlns="http://www.w3.org/2000/svg">
<path d="M12 12.002L12.0879 12.0059C12.1273 12.0099 12.1655 12.0182 12.2031 12.0273C12.2171 12.0307 12.2313 12.033 12.2451 12.0371C12.2618 12.0421 12.2778 12.0487 12.2939 12.0547C12.303 12.058 12.3123 12.0608 12.3213 12.0645L12.3262 12.0664C12.3355 12.0703 12.3444 12.0749 12.3535 12.0791C12.3716 12.0873 12.3896 12.0959 12.4072 12.1055C12.4837 12.147 12.5531 12.1998 12.6133 12.2617L15.1758 14.8242C15.5096 15.1581 15.5096 15.6993 15.1758 16.0332C14.8419 16.3669 14.3007 16.3669 13.9668 16.0332L12.8555 14.9219V18.8574C12.8553 19.3295 12.4721 19.7129 12 19.7129C11.5279 19.7129 11.1447 19.3295 11.1445 18.8574V14.9219L10.0332 16.0332C9.69936 16.367 9.15811 16.3669 8.82422 16.0332C8.49041 15.6993 8.4904 15.1581 8.82422 14.8242L11.3857 12.2617C11.446 12.1995 11.5161 12.1471 11.5928 12.1055C11.6101 12.0961 11.6277 12.0872 11.6455 12.0791C11.6533 12.0755 11.661 12.0717 11.6689 12.0684C11.6837 12.0622 11.6989 12.0571 11.7139 12.0518C11.7272 12.047 11.7403 12.0412 11.7539 12.0371C11.768 12.0329 11.7826 12.0308 11.7969 12.0273C11.808 12.0246 11.8188 12.0208 11.8301 12.0186C11.8323 12.0181 11.8347 12.018 11.8369 12.0176C11.8463 12.0158 11.8558 12.0142 11.8652 12.0127C11.9092 12.0057 11.9541 12.002 12 12.002Z" fill="black"/>
<path d="M18 7.43066C18.4722 7.43066 18.8555 7.81393 18.8555 8.28613C18.8552 8.75811 18.472 9.1416 18 9.1416H6C5.52796 9.1416 5.1448 8.75811 5.14453 8.28613C5.14453 7.81393 5.5278 7.43066 6 7.43066H18Z" fill="black"/>
<path d="M18 3.71582C18.4722 3.71582 18.8555 4.09909 18.8555 4.57129C18.8553 5.04338 18.4721 5.42676 18 5.42676H6C5.52788 5.42676 5.14466 5.04338 5.14453 4.57129C5.14453 4.09909 5.5278 3.71582 6 3.71582H18Z" fill="black"/>
<path fill-rule="evenodd" clip-rule="evenodd" d="M19.7139 0.00195312C21.1327 0.00195312 22.283 1.1525 22.2832 2.57129V21.4287C22.2831 22.8476 21.1328 23.998 19.7139 23.998H4.28516C2.86651 23.9978 1.71595 22.8474 1.71582 21.4287V2.57129C1.71605 1.15268 2.86657 0.00224524 4.28516 0.00195312H19.7139ZM4.28516 1.71289C3.81097 1.71318 3.42698 2.09709 3.42676 2.57129V21.4287C3.42689 21.903 3.81092 22.2878 4.28516 22.2881H19.7139C20.1884 22.2881 20.5731 21.9032 20.5732 21.4287V2.57129C20.573 2.09691 20.1883 1.71289 19.7139 1.71289H4.28516Z" fill="black"/>
</svg>
