<svg width="24" height="24" viewBox="0 0 24 24" fill="none" xmlns="http://www.w3.org/2000/svg">
<path d="M12 12.002C12.4722 12.002 12.8555 12.3852 12.8555 12.8574V16.793L13.9668 15.6816C14.3007 15.3478 14.8419 15.3478 15.1758 15.6816C15.5096 16.0155 15.5096 16.5568 15.1758 16.8906L12.6143 19.4512C12.4587 19.6119 12.2412 19.7129 12 19.7129C11.8379 19.7128 11.6868 19.6664 11.5576 19.5879C11.5237 19.5674 11.4903 19.5452 11.459 19.5195C11.4368 19.5014 11.4157 19.4821 11.3955 19.4619L8.82422 16.8906C8.4904 16.5568 8.49056 16.0156 8.82422 15.6816C9.15812 15.3477 9.6993 15.3477 10.0332 15.6816L11.1445 16.793V12.8574C11.1445 12.3853 11.5279 12.0021 12 12.002Z" fill="black"/>
<path d="M18 7.43066C18.4722 7.43066 18.8555 7.81393 18.8555 8.28613C18.8552 8.75811 18.472 9.1416 18 9.1416H6C5.52807 9.14147 5.1448 8.75803 5.14453 8.28613C5.14453 7.81401 5.52791 7.4308 6 7.43066H18Z" fill="black"/>
<path d="M18 3.71582C18.4722 3.71582 18.8555 4.09909 18.8555 4.57129C18.8553 5.04338 18.4721 5.42676 18 5.42676H6C5.52799 5.42663 5.14466 5.0433 5.14453 4.57129C5.14453 4.09917 5.52791 3.71595 6 3.71582H18Z" fill="black"/>
<path fill-rule="evenodd" clip-rule="evenodd" d="M19.7139 0.00195312C21.1327 0.00195312 22.283 1.1525 22.2832 2.57129V21.4287C22.2831 22.8476 21.1328 23.998 19.7139 23.998H4.28516C2.86656 23.9977 1.71595 22.8474 1.71582 21.4287V2.57129C1.71605 1.15272 2.86662 0.00231121 4.28516 0.00195312H19.7139ZM4.28516 1.71289C3.81103 1.71325 3.42698 2.09713 3.42676 2.57129V21.4287C3.42689 21.9029 3.81097 22.2877 4.28516 22.2881H19.7139C20.1884 22.2881 20.5731 21.9032 20.5732 21.4287V2.57129C20.573 2.09691 20.1883 1.71289 19.7139 1.71289H4.28516Z" fill="black"/>
</svg>
