<svg width="24" height="24" viewBox="0 0 24 24" fill="none" xmlns="http://www.w3.org/2000/svg">
<path d="M18 18.5732C18.4722 18.5732 18.8555 18.9565 18.8555 19.4287C18.8553 19.9008 18.4721 20.2842 18 20.2842H6C5.52799 20.284 5.14466 19.9007 5.14453 19.4287C5.14453 18.9566 5.52791 18.5734 6 18.5732H18Z" fill="black"/>
<path d="M18 14.8594C18.4722 14.8594 18.8555 15.2426 18.8555 15.7148C18.8552 16.1868 18.472 16.5703 18 16.5703H6C5.52807 16.5702 5.1448 16.1867 5.14453 15.7148C5.14453 15.2427 5.52791 14.8595 6 14.8594H18Z" fill="black"/>
<path d="M18 11.1445C18.4722 11.1445 18.8555 11.5278 18.8555 12C18.8555 12.4722 18.4722 12.8555 18 12.8555H6C5.52791 12.8553 5.14453 12.4721 5.14453 12C5.14453 11.5279 5.52791 11.1447 6 11.1445H18Z" fill="black"/>
<path d="M18 7.43066C18.4722 7.43066 18.8555 7.81393 18.8555 8.28613C18.8552 8.75811 18.472 9.1416 18 9.1416H6C5.52807 9.14147 5.1448 8.75803 5.14453 8.28613C5.14453 7.81401 5.52791 7.4308 6 7.43066H18Z" fill="black"/>
<path d="M18 3.71582C18.4721 3.71582 18.8553 4.0992 18.8555 4.57129C18.8555 5.04349 18.4722 5.42676 18 5.42676H6C5.52791 5.42663 5.14453 5.04341 5.14453 4.57129C5.14466 4.09928 5.52799 3.71595 6 3.71582H18Z" fill="black"/>
<path fill-rule="evenodd" clip-rule="evenodd" d="M19.7139 0.00195312C21.1327 0.00195312 22.283 1.1525 22.2832 2.57129V21.4287C22.2831 22.8476 21.1328 23.998 19.7139 23.998H4.28516C2.86662 23.9976 1.71595 22.8473 1.71582 21.4287V2.57129C1.71605 1.15277 2.86668 0.00237718 4.28516 0.00195312H19.7139ZM4.28516 1.71289C3.81109 1.71331 3.42698 2.09717 3.42676 2.57129V21.4287C3.42689 21.9029 3.81103 22.2877 4.28516 22.2881H19.7139C20.1884 22.2881 20.5731 21.9032 20.5732 21.4287V2.57129C20.573 2.09691 20.1883 1.71289 19.7139 1.71289H4.28516Z" fill="black"/>
</svg>
