<svg width="24" height="24" viewBox="0 0 24 24" fill="none" xmlns="http://www.w3.org/2000/svg">
<path fill-rule="evenodd" clip-rule="evenodd" d="M10.9883 4.38477C11.2709 4.23762 11.6119 4.25979 11.873 4.44238L16.7764 7.87012C17.005 8.03 17.1415 8.29231 17.1416 8.57129C17.1416 8.85015 17.0048 9.1115 16.7764 9.27148L12.8789 11.999L16.7764 14.7275C17.0049 14.8875 17.1416 15.1497 17.1416 15.4287C17.1415 15.7076 17.0048 15.969 16.7764 16.1289L11.873 19.5576C11.6119 19.7401 11.2709 19.7624 10.9883 19.6152C10.7056 19.468 10.5283 19.1752 10.5283 18.8564V13.6445L8.20508 15.2715C7.81829 15.5422 7.28547 15.4482 7.01465 15.0615C6.74398 14.6747 6.83791 14.1419 7.22461 13.8711L9.89746 11.999L7.22461 10.1289C6.83779 9.85811 6.74387 9.32433 7.01465 8.9375C7.28553 8.55129 7.81847 8.4571 8.20508 8.72754L10.5283 10.3535V5.14258C10.5284 4.82404 10.7058 4.53204 10.9883 4.38477ZM12.2383 17.2148L14.7939 15.4277L12.2383 13.6377V17.2148ZM12.2383 10.3604L14.7949 8.57129L12.2383 6.7832V10.3604Z" fill="black"/>
<path fill-rule="evenodd" clip-rule="evenodd" d="M12 0.00195312C17.206 0.00195312 21.4267 4.2227 21.4268 9.42871V14.5713C21.4266 19.7773 17.206 23.998 12 23.998C6.79419 23.9978 2.57337 19.7771 2.57324 14.5713V9.42871C2.57332 4.22283 6.79415 0.0021602 12 0.00195312ZM12 1.71289C7.73856 1.7131 4.28425 5.16724 4.28418 9.42871V14.5713C4.28431 18.8327 7.73859 22.2879 12 22.2881C16.2616 22.2881 19.7167 18.8328 19.7168 14.5713V9.42871C19.7167 5.16711 16.2616 1.71289 12 1.71289Z" fill="black"/>
</svg>
