<svg width="24" height="24" viewBox="0 0 24 24" fill="none" xmlns="http://www.w3.org/2000/svg">
<path fill-rule="evenodd" clip-rule="evenodd" d="M6.51261 0.856445C8.10553 0.856445 9.4257 2.17661 9.4257 3.76953V5.80957C9.42582 5.81542 9.42668 5.82127 9.42668 5.82715C9.42668 5.83302 9.42582 5.83888 9.4257 5.84473V8.25C11.1406 10.2443 12.1138 12.7744 12.1689 15.4111C12.1691 15.4223 12.1691 15.4342 12.1689 15.4453C12.1227 17.9419 11.2499 20.3524 9.6884 22.3008C9.26912 22.8284 8.61822 23.1439 7.94425 23.1436C7.5295 23.1434 5.4936 23.1434 5.08097 23.1436C4.40721 23.1437 3.75597 22.8293 3.33683 22.3018C1.77549 20.3534 0.903546 17.9417 0.85734 15.4453C0.857135 15.4342 0.857112 15.4223 0.85734 15.4111C0.912453 12.7742 1.88538 10.2434 3.6005 8.24902V3.76953C3.6005 2.17686 4.92002 0.856849 6.51261 0.856445ZM4.84367 9.42578C3.42363 11.1056 2.61734 13.2235 2.5673 15.4297C2.60729 17.4113 3.26017 19.3287 4.43156 20.9199L4.67375 21.2344L4.6757 21.2373C4.77029 21.3564 4.92808 21.4324 5.08 21.4326C5.4932 21.4324 7.53048 21.4324 7.94523 21.4326C8.09727 21.4327 8.25571 21.3564 8.3505 21.2373L8.35246 21.2344C9.6756 19.5846 10.4153 17.5437 10.4579 15.4297C10.4079 13.2234 9.60263 11.1057 8.18254 9.42578H4.84367ZM5.31047 7.71484H7.71574V6.68262H5.31047V7.71484ZM6.51261 2.56738C5.86442 2.5678 5.31047 3.12126 5.31047 3.76953V4.97168H7.71574V3.76953C7.71574 3.12102 7.16113 2.56738 6.51261 2.56738Z" fill="black"/>
<path d="M12.0478 8.49414C13.2237 7.92153 14.5258 7.65653 15.832 7.72559C17.1381 7.79466 18.4056 8.1952 19.5146 8.88867C20.6235 9.58217 21.5379 10.5464 22.1718 11.6904C22.8056 12.8344 23.1385 14.121 23.1386 15.4287C23.1385 16.7367 22.8057 18.0239 22.1718 19.168C21.5378 20.3119 20.6235 21.2764 19.5146 21.9697C18.4748 22.6198 17.2957 23.0118 16.0761 23.1152L15.832 23.1318C14.5259 23.2008 13.2236 22.9368 12.0478 22.3643C11.6233 22.1575 11.4466 21.6452 11.6532 21.2207C11.8601 20.7965 12.3714 20.6205 12.7958 20.8271C13.7109 21.2727 14.7247 21.4784 15.7411 21.4248L16.121 21.3926C17.0026 21.2896 17.852 20.9917 18.6073 20.5195C19.4704 19.9799 20.1823 19.2292 20.6757 18.3389C21.1691 17.4485 21.4286 16.4467 21.4286 15.4287C21.4286 14.411 21.169 13.4098 20.6757 12.5195C20.1823 11.6291 19.4704 10.8786 18.6073 10.3389C17.7444 9.79928 16.7585 9.48743 15.7421 9.43359C14.7255 9.37984 13.7111 9.58554 12.7958 10.0312C12.3714 10.2377 11.86 10.061 11.6532 9.63672C11.4466 9.2122 11.6233 8.70087 12.0478 8.49414Z" fill="black"/>
<path d="M15.8954 13.8936C16.4993 13.9551 16.9705 14.4659 16.9706 15.0859C16.9705 15.7474 16.4339 16.2842 15.7724 16.2842L15.6571 16.2783C15.0901 16.2243 14.6388 15.7749 14.581 15.209L14.5741 15.0859L14.581 14.9639C14.6422 14.3597 15.1521 13.8878 15.7724 13.8877L15.8954 13.8936Z" fill="black"/>
<path d="M19.3241 13.208C19.9281 13.2695 20.3992 13.7803 20.3993 14.4004C20.3991 15.0618 19.8625 15.5986 19.2011 15.5986L19.0868 15.5928C18.5197 15.5388 18.0676 15.0894 18.0097 14.5234L18.0028 14.4004L18.0097 14.2783C18.0709 13.6743 18.581 13.2024 19.2011 13.2021L19.3241 13.208Z" fill="black"/>
<path d="M16.4579 10.459C17.1195 10.459 17.6561 10.9957 17.6562 11.6572C17.6562 12.3188 17.1195 12.8555 16.4579 12.8555C15.838 12.8553 15.328 12.384 15.2665 11.7803L15.2597 11.6572L15.2665 11.5352C15.3278 10.9311 15.8378 10.4591 16.4579 10.459Z" fill="black"/>
</svg>
