<svg width="24" height="24" viewBox="0 0 24 24" fill="none" xmlns="http://www.w3.org/2000/svg">
<path fill-rule="evenodd" clip-rule="evenodd" d="M4.97852 15.1064C5.07672 15.1179 5.17282 15.147 5.26172 15.1914L9.45801 17.2891L11.3955 15.3516C11.5558 15.1913 11.7743 15.1006 12.001 15.1006H21.4951C22.398 15.1009 23.1415 15.8441 23.1416 16.7471C23.1415 18.2327 22.5505 19.6585 21.5 20.709C20.4496 21.7592 19.0244 22.3495 17.5391 22.3496H6.46191C4.97647 22.3496 3.55148 21.7591 2.50098 20.709C1.4504 19.6584 0.858463 18.2327 0.858398 16.7471C0.858505 15.844 1.60282 15.1007 2.50586 15.1006H4.87988L4.97852 15.1064ZM2.57129 16.8115C2.588 17.8203 2.99536 18.7843 3.70996 19.499C4.43984 20.2287 5.42988 20.6396 6.46191 20.6396H17.5391C18.5711 20.6395 19.5612 20.2288 20.291 19.499C21.0056 18.7843 21.413 17.8203 21.4297 16.8115H12.3545L10.2314 18.9346C9.97134 19.1945 9.57313 19.259 9.24414 19.0947L4.67871 16.8115H2.57129Z" fill="black"/>
<path d="M22.2861 11.9355C22.7581 11.9358 23.1416 12.319 23.1416 12.791C23.1416 13.2631 22.7581 13.6462 22.2861 13.6465H1.71484C1.24264 13.6465 0.858398 13.2632 0.858398 12.791C0.858398 12.3188 1.24264 11.9355 1.71484 11.9355H22.2861Z" fill="black"/>
<path fill-rule="evenodd" clip-rule="evenodd" d="M16.748 1.65039C18.4435 1.65058 20.0697 2.32466 21.2686 3.52344C22.4673 4.72234 23.1415 6.34862 23.1416 8.04395C23.1415 9.37768 22.0378 10.481 20.7041 10.4814H3.29688C1.96303 10.4812 0.858533 9.3778 0.858398 8.04395C0.858498 6.34842 1.53353 4.72235 2.73242 3.52344C3.93132 2.32459 5.55747 1.65049 7.25293 1.65039H16.748ZM7.25293 3.36133C6.01099 3.36143 4.81961 3.85427 3.94141 4.73242C3.06318 5.61067 2.57041 6.80196 2.57031 8.04395C2.57045 8.4334 2.90743 8.77126 3.29688 8.77148H20.7041C21.0934 8.77106 21.4315 8.43327 21.4316 8.04395C21.4315 6.80209 20.9376 5.61059 20.0596 4.73242C19.1814 3.85432 17.9899 3.36152 16.748 3.36133H7.25293Z" fill="black"/>
</svg>
