<svg width="24" height="24" viewBox="0 0 24 24" fill="none" xmlns="http://www.w3.org/2000/svg">
<path d="M3.42871 12.8594C3.9008 12.8595 4.28418 13.2427 4.28418 13.7148V22.2861C4.28392 22.758 3.90064 23.1415 3.42871 23.1416C2.95667 23.1416 2.57351 22.7581 2.57324 22.2861V13.7148C2.57324 13.2426 2.95651 12.8594 3.42871 12.8594Z" fill="black"/>
<path d="M8.57129 12.8594C9.04349 12.8594 9.42676 13.2426 9.42676 13.7148V22.2861C9.42649 22.7581 9.04333 23.1416 8.57129 23.1416C8.09936 23.1415 7.71608 22.758 7.71582 22.2861V13.7148C7.71582 13.2427 8.0992 12.8595 8.57129 12.8594Z" fill="black"/>
<path d="M16.2861 0.00195312C16.9672 0.00208268 17.6209 0.273244 18.1025 0.754883C18.5839 1.2365 18.8554 1.8901 18.8555 2.57129V3.71094L21.5723 2.24805L21.6699 2.20312C21.9302 2.10272 22.2114 2.06672 22.4883 2.09961C22.7649 2.13259 23.0302 2.23282 23.2598 2.3916L23.4238 2.52051C23.5789 2.65854 23.7083 2.82451 23.8047 3.00977C23.9321 3.25499 23.999 3.5285 23.998 3.80566V11.6172L23.9873 11.8252C23.9634 12.0322 23.9011 12.2335 23.8047 12.4189C23.676 12.6663 23.489 12.8785 23.2598 13.0371C23.0301 13.1959 22.7649 13.2961 22.4883 13.3291C22.2116 13.362 21.9301 13.3269 21.6699 13.2266C21.6367 13.2137 21.6036 13.1985 21.5723 13.1816L18.8555 11.7178V12.8574C18.8554 13.5388 18.5841 14.1921 18.1025 14.6738C17.6208 15.1556 16.9673 15.4266 16.2861 15.4268H14.7832C14.3111 15.4268 13.9279 15.0434 13.9277 14.5713C13.928 14.0993 14.3111 13.7168 14.7832 13.7168H16.2861C16.5139 13.7167 16.7326 13.6258 16.8936 13.4648C17.0546 13.3037 17.1454 13.0851 17.1455 12.8574V10.2861C17.1455 9.98516 17.3041 9.70606 17.5625 9.55176C17.8208 9.39782 18.1415 9.39056 18.4062 9.5332L22.2881 11.624V3.80371L18.4062 5.89551C18.1415 6.03815 17.8208 6.03088 17.5625 5.87695C17.3043 5.72276 17.1457 5.44428 17.1455 5.14355V2.57129C17.1454 2.3438 17.0544 2.12497 16.8936 1.96387C16.7327 1.80301 16.5138 1.71302 16.2861 1.71289H6C5.77231 1.713 5.55363 1.80289 5.39258 1.96387C5.23153 2.12493 5.14171 2.34355 5.1416 2.57129V8.72852C5.14147 9.20044 4.75803 9.58372 4.28613 9.58398C3.81401 9.58398 3.4308 9.20061 3.43066 8.72852V2.57129C3.43077 1.89001 3.70188 1.23661 4.18359 0.754883C4.66532 0.273233 5.31878 0.00206391 6 0.00195312H16.2861Z" fill="black"/>
</svg>
