<svg width="24" height="24" viewBox="0 0 24 24" fill="none" xmlns="http://www.w3.org/2000/svg">
<path fill-rule="evenodd" clip-rule="evenodd" d="M12 3.85938C14.1291 3.85938 15.8555 5.58578 15.8555 7.71484C15.8552 9.84368 14.1289 11.5703 12 11.5703C9.87121 11.5702 8.1448 9.8436 8.14453 7.71484C8.14453 5.58586 9.87105 3.85951 12 3.85938ZM12 5.57031C10.8155 5.57044 9.85547 6.53027 9.85547 7.71484C9.85573 8.89919 10.8156 9.85924 12 9.85938C13.1845 9.85938 14.1443 8.89927 14.1445 7.71484C14.1445 6.53019 13.1847 5.57031 12 5.57031Z" fill="black"/>
<path fill-rule="evenodd" clip-rule="evenodd" d="M19.7148 0.00195312C21.1335 0.00221708 22.284 1.15267 22.2842 2.57129V12.8574C22.284 14.2761 21.1336 15.4265 19.7148 15.4268H13.9209L20.3496 22.5703C20.6655 22.9213 20.6371 23.4624 20.2861 23.7783C19.9352 24.094 19.395 24.0655 19.0791 23.7148L12.8555 16.7998V23.1426C12.8555 23.6148 12.4722 23.998 12 23.998C11.5279 23.9979 11.1445 23.6147 11.1445 23.1426V16.7998L4.92188 23.7148C4.60599 24.0658 4.06485 24.0942 3.71387 23.7783C3.363 23.4624 3.33454 22.9213 3.65039 22.5703L10.0801 15.4268H4.28613C2.86744 15.4265 1.71595 14.2761 1.71582 12.8574V2.57129C1.71605 1.15264 2.8675 0.00217923 4.28613 0.00195312H19.7148ZM4.28613 1.71289C3.8119 1.71312 3.42796 2.09705 3.42773 2.57129V12.8574C3.42787 13.3317 3.81184 13.7166 4.28613 13.7168H11.9785C11.9857 13.7166 11.9928 13.7158 12 13.7158C12.0107 13.7158 12.0216 13.7164 12.0322 13.7168H19.7148C20.1891 13.7165 20.5741 13.3317 20.5742 12.8574V2.57129C20.574 2.09707 20.1891 1.71315 19.7148 1.71289H4.28613Z" fill="black"/>
</svg>
