<svg width="24" height="24" viewBox="0 0 24 24" fill="none" xmlns="http://www.w3.org/2000/svg">
<path fill-rule="evenodd" clip-rule="evenodd" d="M6.08691 15.4346H6.08887C7.46666 15.4813 8.56911 16.6109 8.56934 18C8.56907 19.4187 7.41885 20.5693 6 20.5693L5.7373 20.5557C4.44192 20.424 3.43091 19.33 3.43066 18C3.43089 16.6114 4.53304 15.4821 5.91016 15.4346C5.93967 15.4315 5.96967 15.4307 6 15.4307L6.08691 15.4346ZM5.91211 17.1455C5.4791 17.1895 5.14181 17.5554 5.1416 18C5.14187 18.4742 5.52579 18.8591 6 18.8594C6.47442 18.8594 6.85911 18.4743 6.85938 18C6.85915 17.5256 6.47445 17.1416 6 17.1416L5.91211 17.1455Z" fill="black"/>
<path fill-rule="evenodd" clip-rule="evenodd" d="M6 12.002C7.59051 12.002 9.11648 12.6342 10.2412 13.7588C11.3658 14.8835 11.998 16.4095 11.998 18C11.998 19.5906 11.366 21.1165 10.2412 22.2412C9.11645 23.366 7.59064 23.998 6 23.998C4.40949 23.998 2.88352 23.3658 1.75879 22.2412C0.634204 21.1165 0.00201781 19.5905 0.00195312 18C0.00202702 16.4094 0.634038 14.8835 1.75879 13.7588C2.88354 12.634 4.40937 12.002 6 12.002ZM6 13.7129C4.86289 13.713 3.77281 14.1647 2.96875 14.9688C2.16469 15.7728 1.71296 16.8629 1.71289 18C1.71296 19.1371 2.16468 20.2282 2.96875 21.0322C3.77277 21.836 4.8631 22.288 6 22.2881C7.13712 22.288 8.22815 21.8363 9.03223 21.0322C9.8363 20.2282 10.288 19.1371 10.2881 18C10.288 16.8631 9.83601 15.7728 9.03223 14.9688C8.22816 14.1647 7.13712 13.713 6 13.7129Z" fill="black"/>
<path d="M16.2861 0.00195312C16.9673 0.00201791 17.6208 0.273186 18.1025 0.754883C18.5839 1.23651 18.8554 1.89004 18.8555 2.57129V3.71094L21.5723 2.24805L21.6699 2.20312C21.9303 2.10266 22.2114 2.06671 22.4883 2.09961C22.7649 2.13256 23.0301 2.23277 23.2598 2.3916L23.4238 2.52051C23.579 2.65856 23.7083 2.82446 23.8047 3.00977C23.9322 3.25502 23.999 3.52846 23.998 3.80566V11.6172L23.9873 11.8252C23.9634 12.0322 23.9011 12.2335 23.8047 12.4189C23.676 12.6663 23.489 12.8785 23.2598 13.0371C23.0301 13.196 22.765 13.2962 22.4883 13.3291C22.2115 13.362 21.9302 13.3269 21.6699 13.2266C21.6367 13.2137 21.6037 13.1985 21.5723 13.1816L18.8555 11.7178V12.8574C18.8554 13.5388 18.5841 14.1921 18.1025 14.6738C17.6208 15.1556 16.9674 15.4267 16.2861 15.4268H14.7832C14.3111 15.4268 13.9279 15.0434 13.9277 14.5713C13.928 14.0993 14.3111 13.7168 14.7832 13.7168H16.2861C16.514 13.7167 16.7326 13.6259 16.8936 13.4648C17.0547 13.3037 17.1454 13.0851 17.1455 12.8574V10.2861C17.1455 9.98516 17.3041 9.70606 17.5625 9.55176C17.8208 9.39771 18.1414 9.39052 18.4062 9.5332L22.2881 11.624V3.80371L18.4062 5.89551C18.1414 6.03818 17.8208 6.03098 17.5625 5.87695C17.3043 5.72276 17.1457 5.44428 17.1455 5.14355V2.57129C17.1454 2.34374 17.0545 2.12498 16.8936 1.96387C16.7326 1.80295 16.5139 1.71295 16.2861 1.71289H6C5.77226 1.713 5.55364 1.80282 5.39258 1.96387C5.23153 2.12493 5.14171 2.34355 5.1416 2.57129V8.72852C5.14147 9.20053 4.75814 9.58385 4.28613 9.58398C3.81401 9.58398 3.4308 9.20061 3.43066 8.72852V2.57129C3.43077 1.89001 3.70188 1.23661 4.18359 0.754883C4.66533 0.273156 5.31872 0.00206392 6 0.00195312H16.2861Z" fill="black"/>
</svg>
