<svg width="24" height="24" viewBox="0 0 24 24" fill="none" xmlns="http://www.w3.org/2000/svg">
<path fill-rule="evenodd" clip-rule="evenodd" d="M9.73926 13.0576C9.9941 12.8455 10.3491 12.7998 10.6494 12.9404C10.9495 13.0813 11.1416 13.3833 11.1416 13.7148V22.2861C11.1414 22.6176 10.9495 22.9198 10.6494 23.0605C10.3492 23.2011 9.99407 23.1553 9.73926 22.9434L4.59668 18.6572C4.40198 18.495 4.28836 18.2544 4.28809 18.001C4.28809 17.7473 4.4018 17.5062 4.59668 17.3438L9.73926 13.0576ZM6.47852 18L9.43164 20.4609V15.54L6.47852 18Z" fill="black"/>
<path d="M1.71484 13.7158C2.18685 13.716 2.57018 14.0993 2.57031 14.5713V21.4287C2.57016 21.9007 2.18684 22.2831 1.71484 22.2832C1.24273 22.2832 0.859526 21.9008 0.859375 21.4287V14.5713C0.859507 14.0992 1.24272 13.7158 1.71484 13.7158Z" fill="black"/>
<path d="M16.2861 0.00195312C16.9674 0.00195312 17.6207 0.273129 18.1025 0.754883C18.584 1.23652 18.8554 1.88999 18.8555 2.57129V3.71094L21.5723 2.24805L21.6699 2.20312C21.9303 2.10262 22.2113 2.06671 22.4883 2.09961C22.765 2.13253 23.03 2.23273 23.2598 2.3916L23.4238 2.52051C23.5791 2.65859 23.7082 2.82441 23.8047 3.00977C23.9322 3.25505 23.999 3.52843 23.998 3.80566V11.6172L23.9873 11.8252C23.9634 12.0322 23.9011 12.2335 23.8047 12.4189C23.676 12.6663 23.489 12.8786 23.2598 13.0371C23.03 13.196 22.765 13.2962 22.4883 13.3291C22.2114 13.362 21.9302 13.327 21.6699 13.2266C21.6366 13.2137 21.6037 13.1986 21.5723 13.1816L18.8555 11.7178V12.8574C18.8554 13.5388 18.5841 14.1921 18.1025 14.6738C17.6207 15.1556 16.9674 15.4268 16.2861 15.4268H14.7832C14.3111 15.4268 13.9279 15.0434 13.9277 14.5713C13.928 14.0993 14.3111 13.7168 14.7832 13.7168H16.2861C16.514 13.7168 16.7325 13.6258 16.8936 13.4648C17.0547 13.3037 17.1454 13.0851 17.1455 12.8574V10.2861C17.1455 9.9852 17.3042 9.70607 17.5625 9.55176C17.8208 9.39767 18.1414 9.39051 18.4062 9.5332L22.2881 11.624V3.80371L18.4062 5.89551C18.1414 6.03816 17.8208 6.03106 17.5625 5.87695C17.3043 5.72276 17.1457 5.44428 17.1455 5.14355V2.57129C17.1454 2.34368 17.0546 2.12499 16.8936 1.96387C16.7325 1.80289 16.514 1.71289 16.2861 1.71289H6C5.77226 1.713 5.55364 1.80282 5.39258 1.96387C5.23161 2.12491 5.14171 2.34361 5.1416 2.57129V8.72852C5.14147 9.20061 4.75825 9.58398 4.28613 9.58398C3.81401 9.58398 3.4308 9.20061 3.43066 8.72852V2.57129C3.43077 1.89007 3.70196 1.2366 4.18359 0.754883C4.66533 0.273156 5.31872 0.00206393 6 0.00195312H16.2861Z" fill="black"/>
</svg>
