<svg width="24" height="24" viewBox="0 0 24 24" fill="none" xmlns="http://www.w3.org/2000/svg">
<path fill-rule="evenodd" clip-rule="evenodd" d="M3.47852 12.0078C3.73612 12.0291 3.98432 12.1126 4.20215 12.25L4.20117 12.251L11.2002 16.5498C11.4484 16.7018 11.6501 16.9172 11.7881 17.1699C11.926 17.4224 11.998 17.7054 11.998 17.9902C11.998 18.2039 11.958 18.4168 11.8799 18.6162L11.7891 18.8105C11.6516 19.0625 11.4502 19.2758 11.2031 19.4277L11.2041 19.4287L4.2002 23.75L4.20117 23.751C3.95326 23.907 3.66572 23.9942 3.36816 23.998C3.07081 24.0018 2.78056 23.9218 2.52832 23.7715C2.27596 23.6209 2.07101 23.4058 1.93066 23.1533C1.7904 22.9009 1.71729 22.6163 1.71582 22.3301V13.6699C1.71726 13.3836 1.79055 13.1 1.93066 12.8477L2.04785 12.666C2.17641 12.4918 2.33887 12.3425 2.52832 12.2295C2.78114 12.0786 3.0712 11.9992 3.36816 12.0029L3.47852 12.0078ZM3.42676 22.2188L10.2783 17.9902L3.42676 13.7812V22.2188Z" fill="black"/>
<path d="M16.2852 0.00195312C16.9664 0.00195312 17.6198 0.273129 18.1016 0.754883C18.5831 1.23653 18.8544 1.88993 18.8545 2.57129V3.71094L21.5713 2.24805L21.6689 2.20312C21.9293 2.10264 22.2104 2.06675 22.4873 2.09961C22.764 2.13252 23.0291 2.23274 23.2588 2.3916L23.4229 2.52051C23.5781 2.65861 23.7072 2.82436 23.8037 3.00977C23.9312 3.25507 23.998 3.52839 23.9971 3.80566V11.6172L23.9863 11.8252C23.9624 12.0321 23.9002 12.2335 23.8037 12.4189C23.675 12.6662 23.488 12.8786 23.2588 13.0371C23.0291 13.1959 22.764 13.2962 22.4873 13.3291C22.2105 13.3619 21.9292 13.327 21.6689 13.2266C21.6356 13.2137 21.6027 13.1986 21.5713 13.1816L18.8545 11.7178V12.8574C18.8544 13.5388 18.5832 14.1921 18.1016 14.6738C17.6198 15.1555 16.9664 15.4268 16.2852 15.4268H14.7822C14.3102 15.4266 13.9269 15.0433 13.9268 14.5713C13.927 14.0994 14.3103 13.7169 14.7822 13.7168H16.2852C16.513 13.7168 16.7316 13.6258 16.8926 13.4648C17.0537 13.3037 17.1445 13.0851 17.1445 12.8574V10.2861C17.1445 9.98527 17.3033 9.7061 17.5615 9.55176C17.8198 9.39769 18.1405 9.39056 18.4053 9.5332L22.2871 11.624V3.80371L18.4053 5.89551C18.1404 6.03807 17.8198 6.03109 17.5615 5.87695C17.3033 5.72275 17.1448 5.44425 17.1445 5.14355V2.57129C17.1444 2.34363 17.0537 2.125 16.8926 1.96387C16.7316 1.80289 16.513 1.71289 16.2852 1.71289H5.99902C5.77137 1.71307 5.5526 1.80287 5.3916 1.96387C5.23071 2.1249 5.14074 2.34366 5.14062 2.57129V8.72852C5.14049 9.20061 4.75728 9.58398 4.28516 9.58398C3.81315 9.58385 3.42982 9.20053 3.42969 8.72852V2.57129C3.4298 1.89012 3.70106 1.23659 4.18262 0.754883C4.6643 0.273214 5.31784 0.00212866 5.99902 0.00195312H16.2852Z" fill="black"/>
</svg>
