<svg width="24" height="24" viewBox="0 0 24 24" fill="none" xmlns="http://www.w3.org/2000/svg">
<path d="M7.71387 6.85938C7.74379 6.85938 7.77361 6.86027 7.80273 6.86328C8.22445 6.88526 8.62475 7.06127 8.9248 7.36133C9.22358 7.66029 9.39802 8.05859 9.4209 8.47852C9.4242 8.50899 9.42577 8.53994 9.42578 8.57129C9.42578 8.60256 9.42417 8.63366 9.4209 8.66406C9.39815 9.0842 9.22377 9.48309 8.9248 9.78223C8.60374 10.1032 8.16784 10.2842 7.71387 10.2842L7.54492 10.2754C7.15296 10.2364 6.78388 10.0631 6.50293 9.78223C6.18215 9.46134 6.00118 9.02598 6.00098 8.57227C6.00098 8.11835 6.18207 7.68238 6.50293 7.36133C6.8027 7.06156 7.20276 6.88554 7.62402 6.86328C7.65354 6.8602 7.68354 6.85938 7.71387 6.85938Z" fill="black"/>
<path fill-rule="evenodd" clip-rule="evenodd" d="M21.4287 1.71582C22.8473 1.7161 23.9977 2.86668 23.998 4.28516V5.56348C23.998 6.65773 23.3044 7.62391 22.2832 7.98438V11.1426C22.2831 12.5614 21.1327 13.7118 19.7139 13.7119H17.8486C17.4961 14.7101 16.5474 15.4265 15.4287 15.4268H10.1289L9.40918 19.0244C9.32925 19.4241 8.97787 19.7119 8.57031 19.7119H1.71191V21.4287C1.71165 21.9007 1.32849 22.2842 0.856445 22.2842C0.384517 22.284 0.00124054 21.9006 0.000976562 21.4287V16.2861C0.000976562 15.814 0.384354 15.4308 0.856445 15.4307C1.32865 15.4307 1.71191 15.8139 1.71191 16.2861V18.002H7.87012L8.38574 15.4219C4.68551 15.3236 1.71582 12.2952 1.71582 8.57129C1.71595 4.78548 4.78545 1.71582 8.57129 1.71582H21.4287ZM8.57129 3.42676C5.72986 3.42676 3.42689 5.72989 3.42676 8.57129C3.42676 11.4128 5.72978 13.7158 8.57129 13.7158H15.4287C15.9001 13.7155 16.2823 13.3365 16.2871 12.8662C16.2871 12.8633 16.2871 12.8604 16.2871 12.8574C16.2871 12.85 16.2879 12.8424 16.2881 12.835V8.57129C16.2882 8.18965 16.5412 7.85387 16.9082 7.74902L21.6641 6.38965C22.0328 6.28416 22.2881 5.94701 22.2881 5.56348V4.28516C22.2877 3.81106 21.9028 3.42704 21.4287 3.42676H8.57129ZM17.998 9.21582V12.002H19.7139C20.1883 12.0019 20.5731 11.617 20.5732 11.1426V8.47949L17.998 9.21582Z" fill="black"/>
</svg>
