<svg width="24" height="24" viewBox="0 0 24 24" fill="none" xmlns="http://www.w3.org/2000/svg">
<path fill-rule="evenodd" clip-rule="evenodd" d="M22.2861 0.858398C22.7582 0.85853 23.1416 1.24272 23.1416 1.71484C23.1413 2.18674 22.7581 2.57018 22.2861 2.57031H19.7129V11.1445H20.5723C21.0442 11.1448 21.4268 11.528 21.4268 12V22.2861C21.4265 22.758 21.0441 23.1404 20.5723 23.1406H17.1436C16.6715 23.1406 16.2883 22.7581 16.2881 22.2861V12C16.2881 11.5278 16.6714 11.1445 17.1436 11.1445H18.002V2.57031H12.8555V6.00195H13.7148C14.1869 6.00209 14.5693 6.38531 14.5693 6.85742V17.1436C14.569 17.6154 14.1867 17.9979 13.7148 17.998H10.2861C9.81415 17.998 9.43102 17.6155 9.43066 17.1436V6.85742C9.43066 6.38522 9.81393 6.00195 10.2861 6.00195H11.1445V2.57031H5.99902V9.43066H6.85742C7.32956 9.43074 7.71191 9.81398 7.71191 10.2861V20.5723C7.71142 21.044 7.32926 21.4267 6.85742 21.4268H3.42871C2.95687 21.4267 2.57373 21.044 2.57324 20.5723V10.2861C2.57324 9.81397 2.95656 9.43073 3.42871 9.43066H4.28809V2.57031H1.71484C1.2428 2.57031 0.859639 2.18682 0.859375 1.71484C0.859375 1.24264 1.24264 0.858398 1.71484 0.858398H22.2861ZM17.999 21.4307H19.7168V12.8555H17.999V21.4307ZM4.28418 19.7168H6.00195V11.1416H4.28418V19.7168ZM11.1416 16.2881H12.8594V7.71289H11.1416V16.2881Z" fill="black"/>
</svg>
