<svg width="24" height="24" viewBox="0 0 24 24" fill="none" xmlns="http://www.w3.org/2000/svg">
<path fill-rule="evenodd" clip-rule="evenodd" d="M15.5557 0.713283C15.8649 0.533614 16.262 0.56316 16.542 0.803126L23.1045 6.42813C23.4628 6.73529 23.5041 7.27567 23.1973 7.63418C22.89 7.99269 22.3497 8.03421 21.9912 7.72695L21.2939 7.12832V13.2533H22.5479C23.0197 13.2536 23.4031 13.637 23.4033 14.1088V22.5463C23.4033 23.0183 23.0198 23.4015 22.5479 23.4018H9.8916C9.4194 23.4018 9.03613 23.0185 9.03613 22.5463V20.5893H7.0791C6.6069 20.5893 6.22363 20.206 6.22363 19.7338V17.7768H4.2666C3.7944 17.7768 3.41113 17.3935 3.41113 16.9213V14.9643H1.4541C0.981898 14.9643 0.597656 14.581 0.597656 14.1088C0.597906 13.6368 0.982052 13.2533 1.4541 13.2533H4.2666C4.73843 13.2536 5.12182 13.637 5.12207 14.1088V16.0658H7.0791C7.55093 16.0661 7.93432 16.4495 7.93457 16.9213V18.8783H9.8916C10.3634 18.8786 10.7468 19.262 10.7471 19.7338V21.6908H21.6924V14.9643H8.9541C8.4819 14.9643 8.09863 14.581 8.09863 14.1088C8.09888 13.6368 8.48205 13.2533 8.9541 13.2533H10.6768V7.12832L9.97949 7.72695C9.62097 8.03426 9.08074 7.9927 8.77344 7.63418C8.46616 7.27566 8.5077 6.73542 8.86621 6.42813L15.4287 0.803126L15.5557 0.713283ZM12.3877 5.6625V13.2533H19.583V5.6625L15.9854 2.57852L12.3877 5.6625Z" fill="black"/>
</svg>
