<svg width="24" height="24" viewBox="0 0 24 24" fill="none" xmlns="http://www.w3.org/2000/svg">
<path fill-rule="evenodd" clip-rule="evenodd" d="M19.7148 0.00195312C20.1869 0.00208524 20.5703 0.3853 20.5703 0.857422V12.8594H21.4297C21.9015 12.8598 22.2842 13.2429 22.2842 13.7148C22.2839 14.1866 21.9014 14.5699 21.4297 14.5703H19.9785L13.5088 19.0176L18.4844 22.4385C18.8732 22.7061 18.9725 23.2389 18.7051 23.6279C18.4376 24.0167 17.9046 24.1148 17.5156 23.8477L11.999 20.0547L6.48438 23.8477C6.09547 24.1147 5.56344 24.0165 5.2959 23.6279C5.02847 23.2389 5.12684 22.7061 5.51562 22.4385L10.4902 19.0176L4.02148 14.5703H2.57227C2.10022 14.5703 1.71608 14.1868 1.71582 13.7148C1.71582 13.2426 2.10006 12.8594 2.57227 12.8594H3.43066V0.857422C3.43066 0.385218 3.81393 0.00195312 4.28613 0.00195312C4.75822 0.00208524 5.1416 0.3853 5.1416 0.857422V1.71582H18.8594V0.857422C18.8594 0.385218 19.2426 0.00195312 19.7148 0.00195312ZM7.03906 14.5703L11.999 17.9805L16.9609 14.5703H7.03906ZM5.1416 12.8594H18.8594V8.57031H5.1416V12.8594ZM5.1416 6.85938H18.8594V3.42676H5.1416V6.85938Z" fill="black"/>
</svg>
