<svg width="24" height="24" viewBox="0 0 24 24" fill="none" xmlns="http://www.w3.org/2000/svg">
<path d="M12.8082 11.3213C13.2803 11.3213 13.6627 11.7046 13.6627 12.1768C13.6625 12.6488 13.2802 13.0322 12.8082 13.0322H11.191C10.7189 13.0322 10.3356 12.6488 10.3355 12.1768C10.3355 11.7046 10.7188 11.3213 11.191 11.3213H12.8082Z" fill="black"/>
<path fill-rule="evenodd" clip-rule="evenodd" d="M13.6168 0.00195312C14.4686 0.0021421 14.9379 0.573463 15.1978 0.955078C15.3101 1.12002 15.4678 1.38211 15.5474 1.50586C15.6534 1.67044 15.7448 1.79586 15.8414 1.89355C16.0121 2.06633 16.2208 2.21774 16.4712 2.37695C16.6772 2.50789 17.0368 2.71668 17.2808 2.88184C17.8506 3.26746 18.5142 3.86581 18.5142 4.94922C18.5141 6.46923 17.6575 7.58519 16.649 8.07422C16.615 8.27439 16.5906 8.57536 16.5836 8.96875C16.5687 9.79683 16.6293 10.9014 16.7427 12.0166C16.8561 13.1316 17.0195 14.2252 17.2007 15.0332C17.2715 15.3484 17.3407 15.6003 17.4039 15.7852C17.8448 15.687 18.0995 15.3923 18.1461 15.1582C18.1596 15.0895 18.1622 14.9349 18.1431 14.6084C18.1267 14.3271 18.0975 13.9432 18.1031 13.5635C18.114 12.8347 18.2521 11.7636 19.1949 11.1182C20.4138 10.2841 21.8208 10.284 23.0396 11.1182C23.4289 11.3849 23.5287 11.9171 23.2623 12.3066C22.9956 12.696 22.4633 12.7957 22.0738 12.5293C21.4372 12.0936 20.7973 12.0937 20.1607 12.5293C19.9541 12.6708 19.8224 12.9604 19.813 13.5898C19.8087 13.8887 19.8312 14.1842 19.8502 14.5088C19.8665 14.7883 19.8872 15.1693 19.8238 15.4902C19.5715 16.7642 18.3331 17.5302 17.0914 17.5303H12.855V20.7227C13.7779 20.8299 14.7113 21.0857 15.5347 21.3428C16.0759 21.5117 16.6089 21.694 17.0543 21.8398C17.5177 21.9916 17.8886 22.1036 18.1724 22.1621C18.6345 22.2575 18.9323 22.7097 18.8375 23.1719C18.7422 23.6344 18.2892 23.9322 17.8267 23.8369C17.4369 23.7566 16.9822 23.6155 16.522 23.4648C16.0437 23.3082 15.5532 23.1395 15.025 22.9746C14.2841 22.7434 13.5439 22.5475 12.855 22.4492V23C12.8549 23.4721 12.4717 23.8555 11.9996 23.8555C11.5276 23.8553 11.1452 23.472 11.1451 23L11.1441 22.4482C10.4552 22.5465 9.715 22.7434 8.97418 22.9746C8.44594 23.1395 7.95547 23.3082 7.47711 23.4648C7.0169 23.6155 6.56226 23.7566 6.17242 23.8369C5.70994 23.9321 5.25694 23.6344 5.16168 23.1719C5.06689 22.7097 5.36466 22.2575 5.82672 22.1621C6.11052 22.1037 6.48142 21.9916 6.94488 21.8398C7.39026 21.694 7.92323 21.5117 8.46441 21.3428C9.28778 21.0857 10.2212 20.8299 11.1441 20.7227V17.5303H6.90777C5.66572 17.5303 4.42777 16.7641 4.17535 15.4902C4.11185 15.1692 4.13268 14.7884 4.14898 14.5088C4.16792 14.1842 4.19145 13.8887 4.18707 13.5898C4.17772 12.9607 4.04583 12.6708 3.83941 12.5293C3.20281 12.0936 2.56293 12.0938 1.92633 12.5293C1.53683 12.7958 1.00463 12.6959 0.737851 12.3066C0.471226 11.9171 0.570154 11.385 0.959531 11.1182C2.1785 10.2839 3.58626 10.2839 4.80523 11.1182C5.74805 11.7637 5.88523 12.8358 5.89605 13.5645C5.90164 13.944 5.87242 14.3273 5.85602 14.6084C5.83698 14.9349 5.83951 15.0896 5.85309 15.1582C5.89971 15.3922 6.15347 15.6867 6.59332 15.7852C6.65654 15.6003 6.72666 15.3487 6.79742 15.0332C6.97864 14.2252 7.14202 13.1316 7.25543 12.0166C7.36884 10.9014 7.42946 9.79684 7.41461 8.96875C7.40754 8.5752 7.38224 8.27439 7.3482 8.07422C6.34014 7.58493 5.48404 6.46871 5.48394 4.94922C5.48399 3.86598 6.14761 3.26747 6.71734 2.88184C6.96151 2.71659 7.32194 2.50788 7.52789 2.37695C7.77816 2.21783 7.98613 2.06622 8.1568 1.89355C8.25331 1.79587 8.3458 1.67042 8.45172 1.50586C8.53137 1.38206 8.68813 1.11992 8.80035 0.955078C9.06028 0.573422 9.53029 0.0019979 10.3824 0.00195312H13.6168ZM10.3834 1.71289C10.3578 1.73243 10.3041 1.78389 10.2134 1.91699C10.1016 2.08124 10.0455 2.18873 9.88922 2.43164C9.75923 2.6336 9.59248 2.87311 9.37359 3.09473C9.07074 3.40123 8.738 3.63297 8.44488 3.81934C8.10733 4.03395 7.92003 4.1339 7.67633 4.29883C7.2705 4.57353 7.19491 4.72346 7.19488 4.94922C7.19498 5.88166 7.75963 6.43601 8.23004 6.59473C8.61995 6.72641 8.79647 7.0479 8.86285 7.18945C8.94399 7.36258 8.99156 7.55164 9.02301 7.71777C9.08728 8.05751 9.11642 8.4844 9.12457 8.93848C9.14103 9.8577 9.07404 11.0346 8.9566 12.1895C8.83913 13.3444 8.66757 14.5111 8.46637 15.4082C8.43466 15.5495 8.40057 15.6874 8.36578 15.8203H11.9781C11.9852 15.8201 11.9924 15.8193 11.9996 15.8193C12.0067 15.8193 12.0139 15.8201 12.0211 15.8203H15.6324C15.5976 15.6874 15.5635 15.5495 15.5318 15.4082C15.3306 14.5111 15.159 13.3444 15.0416 12.1895C14.9241 11.0346 14.8581 9.8577 14.8746 8.93848C14.8827 8.48442 14.9109 8.0575 14.9752 7.71777C15.0066 7.5516 15.0551 7.36262 15.1363 7.18945C15.2027 7.04784 15.3792 6.72635 15.7691 6.59473L15.858 6.55957C16.3075 6.36446 16.8042 5.82322 16.8043 4.94922C16.8042 4.7234 16.7279 4.57365 16.3218 4.29883C16.0781 4.1339 15.8909 4.034 15.5533 3.81934C15.2602 3.63297 14.9284 3.40121 14.6255 3.09473C14.4064 2.87293 14.239 2.63375 14.1089 2.43164C13.9526 2.18869 13.8966 2.08129 13.7847 1.91699C13.6945 1.78449 13.6414 1.73259 13.6158 1.71289H10.3834Z" fill="black"/>
</svg>
