<svg width="24" height="24" viewBox="0 0 24 24" fill="none" xmlns="http://www.w3.org/2000/svg">
<path d="M13.7139 8.57324C15.1326 8.57337 16.283 9.72387 16.2832 11.1426V12C16.2831 12.4719 15.9006 12.8552 15.4287 12.8555C14.9566 12.8555 14.5734 12.4721 14.5732 12V11.1426C14.573 10.6683 14.1882 10.2843 13.7139 10.2842H10.2852C9.81092 10.2844 9.42698 10.6683 9.42676 11.1426V12C9.42663 12.472 9.0433 12.8553 8.57129 12.8555C8.09917 12.8555 7.71595 12.4721 7.71582 12V11.1426C7.71605 9.72393 8.86651 8.57347 10.2852 8.57324H13.7139Z" fill="black"/>
<path fill-rule="evenodd" clip-rule="evenodd" d="M17.4043 1.71582C18.6601 1.71587 19.7319 2.62456 19.9385 3.86328L21.0088 10.2871H21.918C23.0662 10.2873 23.9969 11.2189 23.9971 12.3672V13.7139C23.9971 16.4005 22.4507 18.7245 20.2002 19.8486L21.1758 20.8242C21.5095 21.1581 21.5096 21.7003 21.1758 22.0342C20.8419 22.3676 20.2996 22.3678 19.9658 22.0342L18.3867 20.4541C17.9832 20.5281 17.5675 20.5693 17.1426 20.5693H6.85645C6.43143 20.5693 6.01594 20.5282 5.6123 20.4541L4.0332 22.0342C3.69954 22.3675 3.15809 22.3672 2.82422 22.0342C2.49032 21.7003 2.49032 21.1581 2.82422 20.8242L3.79883 19.8486C1.54816 18.7245 0.000976562 16.4005 0.000976562 13.7139V12.3672C0.00110855 11.2189 0.932777 10.2872 2.08105 10.2871H2.98926L4.05957 3.86328C4.26615 2.62452 5.33884 1.71582 6.59473 1.71582H17.4043ZM2.08105 11.998C1.87719 11.9982 1.71205 12.1633 1.71191 12.3672V13.7139C1.71191 16.5553 4.01505 18.8592 6.85645 18.8594H17.1426C19.9839 18.8591 22.2871 16.5552 22.2871 13.7139V12.3672C22.287 12.1633 22.1218 11.9982 21.918 11.998H20.999C20.8515 11.9981 20.7108 12.0219 20.5811 12.0664C20.0741 12.2403 19.7121 12.7218 19.7119 13.2852C19.7119 14.9407 18.3694 16.2831 16.7139 16.2832H7.28516C5.6296 16.2831 4.28711 14.9407 4.28711 13.2852C4.28688 12.7217 3.92411 12.2402 3.41699 12.0664C3.28721 12.022 3.14655 11.998 2.99902 11.998H2.08105ZM6.59473 3.42676C6.17475 3.42676 5.81622 3.73032 5.74707 4.14453L4.64062 10.7783C5.45665 11.3134 5.99689 12.235 5.99707 13.2852C5.99707 13.9963 6.574 14.5731 7.28516 14.5732H16.7139C17.425 14.5731 18.001 13.9963 18.001 13.2852C18.0012 12.2353 18.5416 11.3134 19.3574 10.7783L18.252 4.14453C18.1828 3.73035 17.8242 3.42681 17.4043 3.42676H6.59473Z" fill="black"/>
</svg>
