<svg width="24" height="24" viewBox="0 0 24 24" fill="none" xmlns="http://www.w3.org/2000/svg">
<path fill-rule="evenodd" clip-rule="evenodd" d="M4.02515 0.0657276C4.71359 -0.0872623 5.43496 0.0397575 6.03003 0.418267C6.55061 0.749547 6.93749 1.25029 7.12866 1.83135L7.19898 2.08526L7.19995 2.08916L8.36011 7.42413H15.7156C16.3365 7.42415 16.9318 7.67165 17.3709 8.11065C17.8099 8.54967 18.0573 9.14506 18.0574 9.76592V11.8841H18.6892C19.704 11.8843 20.6776 12.2876 21.3953 13.0052C22.1128 13.723 22.5164 14.6972 22.5164 15.7122V17.1985C22.516 17.6702 22.1335 18.0526 21.6619 18.053H18.0574V23.1429C18.0573 23.615 17.674 23.9973 17.2019 23.9974C16.7297 23.9973 16.3474 23.615 16.3474 23.1429V18.053H6.52808L3.06323 23.596C2.81292 23.9963 2.28586 24.1177 1.8855 23.8675C1.48525 23.6172 1.36379 23.0901 1.61402 22.6898L5.14234 17.0423L2.00659 3.24346L2.00562 3.24053C1.85246 2.552 1.97964 1.82987 2.35816 1.23467C2.73677 0.639582 3.33664 0.218879 4.02515 0.0657276ZM5.11206 1.86065C4.89963 1.72566 4.64195 1.68106 4.39624 1.73565C4.15035 1.79036 3.93574 1.94009 3.80054 2.15264C3.66625 2.36393 3.62133 2.62004 3.67456 2.86456L6.73706 16.3431H16.3474V13.594H9.83862C9.30426 13.5942 8.7851 13.4116 8.3689 13.0765C7.9529 12.7413 7.66435 12.2732 7.55054 11.7513L6.83667 8.46709C6.83449 8.45733 6.83168 8.44768 6.82984 8.4378L5.53003 2.45635L5.50464 2.36553C5.43639 2.15821 5.29777 1.97892 5.11206 1.86065ZM18.0574 16.3431H20.8064V15.7122C20.8064 15.1508 20.5832 14.6113 20.1863 14.2142C19.7893 13.8173 19.2505 13.5942 18.6892 13.594H18.0574V16.3431ZM9.22144 11.387C9.25217 11.5276 9.33003 11.6541 9.44214 11.7444C9.55419 11.8345 9.69387 11.884 9.83765 11.8841H16.3474V9.76592C16.3473 9.59858 16.2802 9.43797 16.1619 9.31963C16.0435 9.20132 15.8829 9.13509 15.7156 9.13506H8.73218L9.22144 11.387Z" fill="black"/>
</svg>
