<svg width="24" height="24" viewBox="0 0 24 24" fill="none" xmlns="http://www.w3.org/2000/svg">
<path fill-rule="evenodd" clip-rule="evenodd" d="M12.0003 0.00195312C12.26 0.00199534 12.5061 0.120459 12.6683 0.323242L19.5248 8.89453C19.7299 9.15104 19.7704 9.50272 19.6283 9.79883C19.4859 10.0948 19.1862 10.284 18.8578 10.2842H17.0716L22.1293 17.5098C22.312 17.7709 22.3341 18.1128 22.1869 18.3955C22.0396 18.6778 21.7475 18.8554 21.4291 18.8555H12.8558V23.1426C12.8558 23.6148 12.4725 23.998 12.0003 23.998C11.5281 23.998 11.1449 23.6148 11.1449 23.1426V18.8555H2.57163C2.25299 18.8554 1.96009 18.6781 1.81284 18.3955C1.66566 18.1128 1.68877 17.7709 1.87144 17.5098L6.92906 10.2842H5.14292C4.81443 10.2841 4.51477 10.0949 4.37242 9.79883C4.23029 9.5028 4.26995 9.15105 4.47495 8.89453L11.3324 0.323242L11.3968 0.250977C11.5561 0.0925313 11.7731 0.00199838 12.0003 0.00195312ZM6.92222 8.57422H8.57163C8.89044 8.57422 9.18319 8.7514 9.33042 9.03418C9.4774 9.31686 9.45454 9.6579 9.27183 9.91895L4.21324 17.1455H11.9828C11.9886 17.1454 11.9945 17.1445 12.0003 17.1445C12.0062 17.1445 12.0121 17.1454 12.0179 17.1455H19.7865L14.7279 9.91895C14.5454 9.65795 14.5234 9.31674 14.6703 9.03418C14.8175 8.75145 15.1103 8.57428 15.4291 8.57422H17.0785L12.0003 2.22559L6.92222 8.57422Z" fill="black"/>
</svg>
