<svg width="24" height="24" viewBox="0 0 24 24" fill="none" xmlns="http://www.w3.org/2000/svg">
<path d="M23.1436 19.7158C23.6155 19.716 23.9979 20.0993 23.998 20.5713C23.998 21.0434 23.6156 21.4265 23.1436 21.4268H0.857422C0.38533 21.4266 0.00195312 21.0434 0.00195312 20.5713C0.00208514 20.0993 0.385412 19.716 0.857422 19.7158H23.1436Z" fill="black"/>
<path fill-rule="evenodd" clip-rule="evenodd" d="M21.3809 1.71582C23.7093 1.71651 24.8361 4.56728 23.1377 6.16016L13.7588 14.9531C12.7706 15.8796 11.2324 15.8794 10.2441 14.9531L0.865234 6.16016C-0.83397 4.56715 0.292917 1.71582 2.62207 1.71582H21.3809ZM2.62207 3.42676C1.84321 3.42676 1.46626 4.37929 2.03418 4.91211L11.4131 13.7051C11.7436 14.0148 12.2584 14.0149 12.5889 13.7051L21.9678 4.91211C22.5353 4.37946 22.1591 3.42745 21.3809 3.42676H2.62207Z" fill="black"/>
</svg>
