<svg width="24" height="24" viewBox="0 0 24 24" fill="none" xmlns="http://www.w3.org/2000/svg">
<path fill-rule="evenodd" clip-rule="evenodd" d="M12 0.858398C14.3657 0.858474 16.2832 2.77785 16.2832 5.14355C16.2829 7.21606 14.8111 8.9435 12.8555 9.33984V9.85352L22.4942 16.9561C25.1564 18.9182 23.7683 23.1415 20.461 23.1416H3.5391C0.23173 23.1414 -1.15568 18.9181 1.50687 16.9561L11.1446 9.85449V8.57129C11.1447 8.09922 11.5279 7.71586 12 7.71582C12.0029 7.71582 12.0059 7.71579 12.0088 7.71582C13.426 7.71118 14.5729 6.56174 14.5733 5.14355C14.5733 3.72226 13.4213 2.57039 12 2.57031C10.5788 2.57048 9.4268 3.72231 9.4268 5.14355C9.42646 5.61547 9.04332 5.99805 8.57133 5.99805C8.09948 5.99788 7.7162 5.61536 7.71586 5.14355C7.71586 2.77791 9.63443 0.858568 12 0.858398ZM2.52152 18.333C1.18785 19.3159 1.88242 21.4305 3.5391 21.4307H20.461C22.1176 21.4305 22.8129 19.316 21.4795 18.333L12 11.3477L2.52152 18.333Z" fill="black"/>
</svg>
