<svg width="24" height="24" viewBox="0 0 24 24" fill="none" xmlns="http://www.w3.org/2000/svg">
<path fill-rule="evenodd" clip-rule="evenodd" d="M9.94238 1.70984C10.7625 0.89006 12.0449 0.63513 13.1162 1.07898C14.1874 1.52294 14.914 2.60989 14.9141 3.76941C14.9139 4.24145 14.5307 4.62488 14.0586 4.62488C13.5867 4.62464 13.2043 4.2413 13.2041 3.76941C13.2041 3.30144 12.8942 2.83734 12.4619 2.65808C12.0295 2.47895 11.4814 2.58792 11.1504 2.91882C10.8197 3.24978 10.7108 3.79707 10.8896 4.22937C11.0687 4.66171 11.533 4.97222 12.001 4.97253C12.4728 4.97298 12.8554 5.3552 12.8555 5.82702V6.37976C14.5879 6.51859 16.707 7.06606 18.5078 8.08386C20.6218 9.27868 22.458 11.2275 22.458 14.0585C22.4578 14.6488 22.2231 15.2152 21.8057 15.6327C21.3882 16.05 20.8217 16.2849 20.2314 16.285H19.7148V22.2889C19.7147 22.7609 19.3313 23.1443 18.8594 23.1444H5.1416C4.66952 23.1444 4.28632 22.761 4.28613 22.2889V16.285H3.76953C3.17906 16.285 2.61188 16.0502 2.19434 15.6327C1.77701 15.2153 1.54217 14.6487 1.54199 14.0585C1.54199 11.2278 3.37837 9.27871 5.49219 8.08386C7.17408 7.13328 9.13403 6.59237 10.7969 6.41199C10.1384 6.10826 9.59252 5.56701 9.30957 4.88367C8.8662 3.81226 9.12243 2.52967 9.94238 1.70984ZM6.51367 13.5419C6.23869 13.5419 5.99707 13.7835 5.99707 14.0585V21.4344H18.0049V15.4462C18.0048 15.4406 18.0039 15.4351 18.0039 15.4296C18.0039 15.4238 18.0048 15.4177 18.0049 15.412V14.0585C18.0049 13.7837 17.763 13.5422 17.4883 13.5419H6.51367ZM12 8.05456C10.4214 8.05464 8.16761 8.53589 6.33398 9.57214C4.50402 10.6065 3.25293 12.0882 3.25293 14.0585C3.25311 14.1953 3.30753 14.3269 3.4043 14.4237C3.50113 14.5204 3.63271 14.575 3.76953 14.5751H4.28613V14.0585C4.28613 12.8391 5.29429 11.8309 6.51367 11.8309H17.4883C18.7074 11.8313 19.7148 12.8393 19.7148 14.0585V14.5751H20.2314C20.3682 14.575 20.4999 14.5203 20.5967 14.4237C20.6934 14.3269 20.7479 14.1953 20.748 14.0585C20.748 12.0881 19.497 10.6065 17.667 9.57214C15.8332 8.5357 13.5787 8.05456 12 8.05456Z" fill="black"/>
</svg>
