<svg width="24" height="24" viewBox="0 0 24 24" fill="none" xmlns="http://www.w3.org/2000/svg">
<path fill-rule="evenodd" clip-rule="evenodd" d="M16.1162 1.8876C16.3995 1.50986 16.9357 1.43346 17.3135 1.7167C17.6909 2.00002 17.7674 2.53534 17.4844 2.91299L16.4541 4.28701H16.6689C20.34 4.28709 23.1412 7.70096 23.1416 11.6151C23.1416 12.8624 22.8802 14.12 22.2832 15.2597C21.7396 16.2971 20.9618 17.1921 20.0137 17.8749C19.1354 20.5045 16.8406 22.455 14.0576 22.455H7.2002C3.62849 22.4548 0.859375 19.2416 0.859375 15.5038C0.859446 14.7106 0.985471 13.9278 1.22949 13.1845C1.24265 13.1256 1.26248 13.0692 1.28711 13.0155C1.51577 12.3722 1.83393 11.7601 2.2373 11.2001L1.06152 9.80849C0.847006 9.55427 0.799341 9.1981 0.939453 8.89639C1.07973 8.5949 1.38229 8.40127 1.71484 8.40127H18.1719C18.6439 8.40127 19.0271 8.78473 19.0273 9.25674V11.2372C19.4322 11.8003 19.751 12.4158 19.9795 13.0624C19.9888 13.0863 19.9968 13.1107 20.0039 13.1356C20.2191 13.7658 20.3474 14.4248 20.3848 15.0956C20.5251 14.8945 20.6541 14.6843 20.7686 14.4657C21.2197 13.6045 21.4316 12.6266 21.4316 11.6151C21.4312 8.40979 19.176 5.99803 16.6689 5.99795H4.45801C3.9858 5.99795 3.60254 5.61468 3.60254 5.14248C3.60277 4.67047 3.98595 4.28701 4.45801 4.28701H14.3164L16.1162 1.8876ZM2.71289 14.2274C2.61863 14.6425 2.57036 15.0706 2.57031 15.5038C2.57031 18.4711 4.73794 20.7448 7.2002 20.745H14.0576C16.52 20.745 18.6885 18.4713 18.6885 15.5038C18.6884 15.0712 18.6379 14.6432 18.541 14.2274H2.71289ZM3.99609 10.6337C4.27058 10.9588 4.26438 11.4361 3.98145 11.7538C3.76896 11.9921 3.58036 12.2482 3.41406 12.5165H17.8262C17.7252 12.3563 17.6167 12.1998 17.499 12.0497C17.3812 11.8993 17.3174 11.7134 17.3174 11.5224V10.1122H3.55566L3.99609 10.6337Z" fill="black"/>
</svg>
