<svg width="24" height="24" viewBox="0 0 24 24" fill="none" xmlns="http://www.w3.org/2000/svg">
<path fill-rule="evenodd" clip-rule="evenodd" d="M12.0003 7.7159C14.3658 7.71606 16.2834 9.63447 16.2835 12.0001C16.2834 14.3657 14.3658 16.2831 12.0003 16.2833C9.63456 16.2833 7.71616 14.3658 7.71608 12.0001C7.71613 9.63437 9.63454 7.7159 12.0003 7.7159ZM12.0003 9.42684C10.5789 9.42684 9.42707 10.5788 9.42702 12.0001C9.42709 13.4214 10.579 14.5733 12.0003 14.5733C13.4214 14.5732 14.5734 13.4213 14.5735 12.0001C14.5735 10.5789 13.4214 9.427 12.0003 9.42684Z" fill="black"/>
<path fill-rule="evenodd" clip-rule="evenodd" d="M10.6624 0.0752767C11.5408 -0.0221775 12.4578 -0.0221476 13.3362 0.0752767C14.2805 0.1801 14.832 0.755979 15.1497 1.36239C15.4307 1.89904 15.5805 2.57635 15.6878 2.95223C15.7555 3.18945 16.0865 3.59088 16.6682 3.92391C17.2515 4.25759 17.7642 4.33821 17.9885 4.28231C18.3673 4.18737 19.0284 3.97766 19.6331 3.95223C20.3164 3.92366 21.0904 4.11286 21.6546 4.87606C22.1837 5.59219 22.635 6.37019 22.9964 7.19637C23.3776 8.06807 23.1537 8.83412 22.7864 9.41219C22.4615 9.92359 21.9485 10.3916 21.677 10.672C21.5077 10.8471 21.3256 11.3339 21.3284 12.0059C21.3312 12.6793 21.5181 13.1626 21.677 13.3272C21.9484 13.6076 22.4614 14.0757 22.7864 14.587C23.1536 15.165 23.3774 15.9312 22.9964 16.8028C22.635 17.629 22.1837 18.407 21.6546 19.1231C21.0904 19.8865 20.3165 20.0755 19.6331 20.047C19.0284 20.0215 18.3673 19.8128 17.9885 19.7179C17.7493 19.6581 17.2364 19.7433 16.6575 20.0811C16.0774 20.4199 15.7515 20.8243 15.6878 21.047C15.5805 21.4228 15.4307 22.1001 15.1497 22.6368C14.832 23.2433 14.2807 23.8191 13.3362 23.9239C12.4578 24.0213 11.5408 24.0214 10.6624 23.9239C9.71789 23.819 9.16553 23.2434 8.84792 22.6368C8.56701 22.1001 8.41804 21.4227 8.31081 21.047C8.24279 20.8096 7.91127 20.4082 7.32936 20.0753C6.74602 19.7417 6.23405 19.6618 6.01003 19.7179C5.63112 19.8129 4.97013 20.0216 4.3655 20.047C3.68212 20.0755 2.90813 19.8866 2.34401 19.1231C1.81488 18.407 1.36354 17.629 1.00221 16.8028C0.621257 15.9313 0.845013 15.165 1.21218 14.587C1.53709 14.0757 2.05007 13.6076 2.32155 13.3272C2.54072 13.1007 2.72072 12.6097 2.71022 11.9835C2.69966 11.3583 2.50298 10.8569 2.27761 10.627C1.99654 10.3404 1.50319 9.88461 1.18776 9.37215C0.833729 8.79678 0.631033 8.04515 1.00221 7.19637C1.36356 6.37019 1.81486 5.5922 2.34401 4.87606C2.90811 4.11281 3.68218 3.92372 4.3655 3.95223C4.9701 3.97757 5.63111 4.18729 6.01003 4.28231C6.23416 4.33834 6.74607 4.25754 7.32936 3.92391C7.91161 3.59079 8.24305 3.18957 8.31081 2.95223C8.41806 2.57641 8.56691 1.8991 8.84792 1.36239C9.16554 0.755831 9.7179 0.180223 10.6624 0.0752767ZM13.1477 1.77547C12.3946 1.69195 11.6039 1.69192 10.8508 1.77547C10.6291 1.8002 10.5003 1.89513 10.3635 2.15633C10.1902 2.48759 10.1109 2.87684 9.95534 3.42196C9.70657 4.2931 8.91238 4.98864 8.17897 5.40828C7.44684 5.82709 6.45159 6.15547 5.59401 5.94051C5.0443 5.8027 4.66786 5.67691 4.29421 5.66121C3.99934 5.64893 3.85168 5.71312 3.71901 5.89266C3.26506 6.50706 2.87815 7.17419 2.56862 7.88192C2.48067 8.08327 2.49785 8.23832 2.64382 8.47567C2.82873 8.77609 3.11629 9.04114 3.49831 9.43075C4.14056 10.0858 4.4054 11.0799 4.42018 11.9542C4.4349 12.8272 4.20471 13.8404 3.55007 14.5167C3.15525 14.9245 2.85675 15.1874 2.65553 15.504C2.49674 15.754 2.47942 15.9141 2.56862 16.1182C2.87808 16.8258 3.26521 17.4923 3.71901 18.1065C3.85168 18.2861 3.99934 18.3503 4.29421 18.338C4.66789 18.3223 5.04424 18.1965 5.59401 18.0587C6.45156 17.8437 7.44685 18.1721 8.17897 18.5909C8.91246 19.0106 9.7066 19.7069 9.95534 20.5782C10.1109 21.1232 10.1902 21.5126 10.3635 21.8438C10.5003 22.1048 10.6292 22.2 10.8508 22.2247C11.6039 22.3082 12.3946 22.3082 13.1477 22.2247C13.3695 22.2 13.4983 22.1049 13.635 21.8438C13.8085 21.5126 13.8877 21.1234 14.0432 20.5782C14.2857 19.7286 15.0667 19.0299 15.7952 18.6046C16.5249 18.1786 17.5251 17.8384 18.4046 18.0587C18.9543 18.1965 19.3307 18.3222 19.7044 18.338C19.9994 18.3503 20.1469 18.286 20.2796 18.1065C20.7334 17.4922 21.1205 16.8258 21.4299 16.1182C21.5193 15.914 21.502 15.7541 21.343 15.504C21.1418 15.1875 20.8433 14.9245 20.4485 14.5167C19.8345 13.8822 19.622 12.8551 19.6184 12.0128C19.615 11.1691 19.8194 10.1325 20.4485 9.4825C20.8434 9.07462 21.1418 8.81185 21.343 8.4952C21.5019 8.2452 21.5191 8.086 21.4299 7.88192C21.1204 7.17425 20.7335 6.50701 20.2796 5.89266C20.1469 5.71323 19.9994 5.64885 19.7044 5.66121C19.3307 5.67696 18.9543 5.8027 18.4046 5.94051C17.5469 6.1553 16.5516 5.82711 15.8196 5.40828C15.0862 4.98856 14.2919 4.2922 14.0432 3.42098C13.8878 2.87623 13.8083 2.48744 13.635 2.15633C13.4983 1.89524 13.3695 1.80015 13.1477 1.77547Z" fill="black"/>
</svg>
