<svg width="24" height="24" viewBox="0 0 24 24" fill="none" xmlns="http://www.w3.org/2000/svg">
<path fill-rule="evenodd" clip-rule="evenodd" d="M18.8457 1.71582C20.2645 1.71582 21.4147 2.8665 21.415 4.28516V13.5117L23.8145 19.1094C23.9362 19.393 23.998 19.6987 23.998 20.0068C23.9978 21.2643 22.9782 22.2842 21.7207 22.2842H2.2793C1.02193 22.2839 0.00224411 21.2641 0.00195312 20.0068C0.00195312 19.6986 0.0650322 19.3928 0.186523 19.1094L2.57324 13.5391V4.28516C2.57339 3.57683 2.81412 2.92025 3.2959 2.43848C3.77767 1.9567 4.43425 1.71597 5.14258 1.71582H18.8457ZM1.75781 19.7832C1.72778 19.8534 1.71289 19.93 1.71289 20.0068C1.71318 20.3197 1.96638 20.574 2.2793 20.5742H21.7207C22.0338 20.5742 22.2878 20.3199 22.2881 20.0068C22.2881 19.93 22.2721 19.854 22.2422 19.7842L20.0088 14.5703H3.99219L1.75781 19.7832ZM5.14258 3.42676C4.82298 3.4269 4.62288 3.52947 4.50488 3.64746C4.38689 3.76545 4.28432 3.96555 4.28418 4.28516V12.8594H19.7051V4.28516C19.7047 3.81089 19.3201 3.42676 18.8457 3.42676H5.14258Z" fill="black"/>
</svg>
