<svg width="24" height="24" viewBox="0 0 24 24" fill="none" xmlns="http://www.w3.org/2000/svg">
<path fill-rule="evenodd" clip-rule="evenodd" d="M22.2861 2.57324C23.2315 2.57332 23.998 3.34055 23.998 4.28613V18C23.9979 18.9454 23.2315 19.7118 22.2861 19.7119H14.9775L16.0078 22.2871H17.1436C17.6155 22.2873 17.9979 22.6706 17.998 23.1426C17.998 23.6146 17.6156 23.9978 17.1436 23.998H6.85742C6.38533 23.9979 6.00195 23.6147 6.00195 23.1426C6.00209 22.6706 6.38541 22.2872 6.85742 22.2871H7.99414L9.02441 19.7119H1.71484C0.7694 19.7118 0.00208516 18.9453 0.00195312 18V4.28613C0.00195312 3.34063 0.769364 2.57337 1.71484 2.57324H22.2861ZM9.83594 22.2871H14.166L13.1357 19.7119H10.8652L9.83594 22.2871ZM22.2861 4.28418H1.71484L1.71387 4.2832L1.71191 4.28516L1.71289 4.28613V18L1.71191 18.001L1.71387 18.0029L1.71484 18.002H22.2861C22.287 18.0016 22.2878 18.0019 22.2861 18.002L22.2881 18.001V4.28516L22.2861 4.28418C22.2878 4.28419 22.287 4.28456 22.2861 4.28418Z" fill="black"/>
</svg>
