<svg width="24" height="24" viewBox="0 0 24 24" fill="none" xmlns="http://www.w3.org/2000/svg">
<path fill-rule="evenodd" clip-rule="evenodd" d="M19.0986 1.18734C20.8013 -0.00451198 23.141 1.21371 23.1416 3.29183V20.7069C23.1416 22.7855 20.8015 24.0043 19.0986 22.8123L6.66016 14.1043C5.19929 13.0814 5.19907 10.9181 6.66016 9.89534L19.0986 1.18734ZM21.4316 3.29183C21.431 2.59719 20.6494 2.19032 20.0801 2.5887L7.64062 11.2957C7.15205 11.6377 7.15226 12.3618 7.64062 12.7039L20.0801 21.411C20.6496 21.8094 21.4316 21.402 21.4316 20.7069V3.29183Z" fill="black"/>
<path d="M1.71484 0.859212C2.18705 0.859212 2.57031 1.24248 2.57031 1.71468V22.286C2.5701 22.758 2.18692 23.1414 1.71484 23.1414C1.24277 23.1414 0.859585 22.758 0.859375 22.286V1.71468C0.859375 1.24248 1.24264 0.859212 1.71484 0.859212Z" fill="black"/>
</svg>
