<svg width="24" height="24" viewBox="0 0 24 24" fill="none" xmlns="http://www.w3.org/2000/svg">
<path d="M3.42773 3.43066C3.89994 3.43066 4.2832 3.81393 4.2832 4.28613V23.1436C4.28279 23.6154 3.89968 23.998 3.42773 23.998C2.9559 23.9979 2.57268 23.6153 2.57227 23.1436V4.28613C2.57227 3.81401 2.95564 3.4308 3.42773 3.43066Z" fill="black"/>
<path d="M6.85645 3.43066C7.32865 3.43066 7.71191 3.81393 7.71191 4.28613V23.1436C7.7115 23.6154 7.32839 23.998 6.85645 23.998C6.38455 23.998 6.00139 23.6154 6.00098 23.1436V4.28613C6.00098 3.81397 6.3843 3.43073 6.85645 3.43066Z" fill="black"/>
<path d="M17.1426 3.43066C17.6147 3.4308 17.998 3.81401 17.998 4.28613V23.1436C17.9976 23.6153 17.6144 23.9979 17.1426 23.998C16.6706 23.998 16.2875 23.6154 16.2871 23.1436V4.28613C16.2871 3.81393 16.6704 3.43066 17.1426 3.43066Z" fill="black"/>
<path d="M20.5713 3.43066C21.0433 3.43086 21.4268 3.81405 21.4268 4.28613V23.1436C21.4263 23.6153 21.0431 23.9978 20.5713 23.998C20.0993 23.998 19.7162 23.6154 19.7158 23.1436V4.28613C19.7158 3.81393 20.0991 3.43066 20.5713 3.43066Z" fill="black"/>
<path d="M22.2852 0.00195312C22.7573 0.00201919 23.1406 0.385259 23.1406 0.857422C23.1405 1.32947 22.7572 1.71282 22.2852 1.71289H1.71387C1.24175 1.71289 0.858531 1.32951 0.858398 0.857422C0.858398 0.385218 1.24166 0.00195312 1.71387 0.00195312H22.2852Z" fill="black"/>
</svg>
