<svg width="24" height="24" viewBox="0 0 24 24" fill="none" xmlns="http://www.w3.org/2000/svg">
<path fill-rule="evenodd" clip-rule="evenodd" d="M19.915 7.07785C20.3872 7.07785 20.7704 7.46123 20.7705 7.93332C20.7705 8.40552 20.3872 8.78879 19.915 8.78879H16.5879L17.9492 12.7448C17.972 12.7954 17.9896 12.8469 18.002 12.8991L18.6787 14.865C18.7766 14.8582 18.8752 14.8533 18.9746 14.8532C21.3552 14.8532 23.3338 16.8321 23.334 19.2126C23.334 21.5933 21.3553 23.572 18.9746 23.572C16.5941 23.5717 14.6152 21.5933 14.6152 19.2126C14.6154 17.5289 15.6056 16.0467 17.0273 15.323L16.6738 14.2956L9.20898 17.9929C9.32475 18.3811 9.38864 18.7903 9.38867 19.2126C9.38867 21.5934 7.41 23.572 5.0293 23.572C2.64876 23.5718 0.669922 21.5932 0.669922 19.2126C0.670104 16.8321 2.64885 14.8534 5.0293 14.8532C6.38194 14.8532 7.60431 15.4928 8.4082 16.4812L10.5908 15.3991L8.91504 11.7195C8.79458 11.4549 8.81742 11.1466 8.97461 10.9021C9.13195 10.6578 9.40277 10.5096 9.69336 10.5095H12.6465C13.1187 10.5095 13.502 10.8928 13.502 11.365C13.5018 11.837 13.1186 12.2204 12.6465 12.2204H11.0225L12.123 14.6404L16.1123 12.6638L14.5801 8.21164C14.4903 7.95062 14.5322 7.66202 14.6924 7.43723C14.8528 7.21238 15.1125 7.07793 15.3887 7.07785H19.915ZM5.0293 16.5642C3.59324 16.5644 2.38104 17.7766 2.38086 19.2126C2.38086 20.6488 3.59314 21.8618 5.0293 21.862C6.46561 21.862 7.67871 20.6489 7.67871 19.2126C7.67853 17.7764 6.46551 16.5642 5.0293 16.5642ZM18.9746 16.5642C18.7857 16.5642 18.6008 16.586 18.4219 16.6257C18.4099 16.6304 18.3981 16.6361 18.3857 16.6404C18.3314 16.659 18.2765 16.672 18.2217 16.6794C17.1392 17.0128 16.3263 18.037 16.3262 19.2126C16.3262 20.6488 17.5384 21.8618 18.9746 21.862C20.4109 21.862 21.624 20.6489 21.624 19.2126C21.6238 17.7765 20.4108 16.5642 18.9746 16.5642Z" fill="black"/>
<path d="M4.69238 0.877657C4.96689 0.493656 5.50061 0.405054 5.88477 0.679415C6.26878 0.953935 6.3574 1.48764 6.08301 1.8718L3.18652 5.92649H6.16016C6.47548 5.92649 6.76528 6.10062 6.91406 6.37863C7.06273 6.65661 7.04596 6.99426 6.87109 7.25656L3.78125 11.8913C3.51915 12.2836 2.98836 12.3904 2.5957 12.1286C2.20295 11.8668 2.0977 11.335 2.35938 10.9421L4.5625 7.63742H1.52539C1.20543 7.63733 0.912237 7.45793 0.765625 7.17356C0.619127 6.88888 0.644108 6.54547 0.830078 6.28488L4.69238 0.877657Z" fill="black"/>
</svg>
