<svg width="24" height="24" viewBox="0 0 24 24" fill="none" xmlns="http://www.w3.org/2000/svg">
<path fill-rule="evenodd" clip-rule="evenodd" d="M13.5918 0.795898C15.8224 0.796185 17.6309 2.60528 17.6309 4.83594C17.6306 6.77271 16.2666 8.38949 14.4473 8.78223V13.5332H18.3682C19.7072 13.5335 20.8153 14.6414 20.8154 15.9805V22.3486C20.8154 22.8207 20.4319 23.2038 19.96 23.2041C19.4879 23.2039 19.1055 22.8207 19.1055 22.3486V15.9805C19.1053 15.5858 18.7628 15.2434 18.3682 15.2432H13.5918C13.1196 15.2432 12.7363 14.8599 12.7363 14.3877V8.7832C10.9163 8.39083 9.55201 6.77306 9.55176 4.83594C9.55176 2.6051 11.361 0.795898 13.5918 0.795898ZM13.5918 2.50684C12.3054 2.50684 11.2627 3.54951 11.2627 4.83594C11.263 6.11895 12.3002 7.15893 13.582 7.16406H13.6006C14.8826 7.15904 15.9206 6.11902 15.9209 4.83594C15.9209 3.54968 14.878 2.50712 13.5918 2.50684Z" fill="black"/>
<path d="M9.85645 10.2871C10.3285 10.2872 10.7118 10.6706 10.7119 11.1426C10.7119 11.6147 10.3285 11.9979 9.85645 11.998C7.25183 11.9981 5.14083 14.1093 5.14062 16.7139C5.14062 19.3186 7.2517 21.4306 9.85645 21.4307C11.817 21.4306 13.5005 20.2333 14.2119 18.5273C14.3939 18.092 14.8945 17.8858 15.3301 18.0674C15.7656 18.2491 15.9713 18.7499 15.79 19.1855C14.8223 21.5062 12.531 23.1405 9.85645 23.1406C6.30729 23.1405 3.42969 20.263 3.42969 16.7139C3.42989 13.1649 6.30742 10.2872 9.85645 10.2871Z" fill="black"/>
</svg>
