<svg width="24" height="24" viewBox="0 0 24 24" fill="none" xmlns="http://www.w3.org/2000/svg">
<path fill-rule="evenodd" clip-rule="evenodd" d="M14.5713 0.00195312C15.9901 0.00195312 17.1404 1.1525 17.1406 2.57129V5.14355C17.1403 5.61541 16.7581 5.99797 16.2861 5.99805C15.8142 5.99805 15.431 5.61545 15.4307 5.14355V2.57129C15.4304 2.09691 15.0457 1.71289 14.5713 1.71289H6.12793L10.2412 3.08398C11.2903 3.43371 11.998 4.41562 11.998 5.52148V18.8594H14.5713C15.0458 18.8594 15.4305 18.4745 15.4307 18V15.4287C15.4307 14.9566 15.814 14.5742 16.2861 14.5742C16.7582 14.5743 17.1405 14.9566 17.1406 15.4287V18C17.1405 19.4189 15.9902 20.5693 14.5713 20.5693H11.998V21.4287C11.9979 23.1824 10.2797 24.4205 8.61621 23.8662L1.75977 21.5811L1.75879 21.5801C0.710186 21.2302 0.00224822 20.249 0.00195312 19.1436V2.57129C0.00196305 2.49265 0.00673328 2.41471 0.0136719 2.33789C0.0153521 2.31926 0.0174553 2.30074 0.0195312 2.28223C0.0366229 2.13002 0.0658896 1.98179 0.108398 1.83887C0.114242 1.8192 0.120654 1.79974 0.126953 1.78027C0.14818 1.71473 0.171038 1.65002 0.197266 1.58691C0.204421 1.56968 0.213186 1.55317 0.220703 1.53613C0.244124 1.48309 0.269073 1.43097 0.295898 1.37988C0.304298 1.36388 0.312564 1.34784 0.321289 1.33203C0.356911 1.26754 0.394713 1.20449 0.435547 1.14355C0.441278 1.135 0.447294 1.12665 0.453125 1.11816C0.486788 1.06921 0.522699 1.022 0.55957 0.975586C0.577577 0.952915 0.595511 0.930243 0.614258 0.908203C0.65252 0.863229 0.692192 0.819554 0.733398 0.777344C0.747394 0.763006 0.762043 0.74936 0.776367 0.735352C0.877936 0.636035 0.986808 0.544273 1.10352 0.462891C1.12565 0.447449 1.14826 0.432724 1.1709 0.417969C1.17937 0.41245 1.18775 0.406788 1.19629 0.401367C1.20675 0.394731 1.21783 0.388963 1.22852 0.382812C1.61951 0.142302 2.07869 0.00203164 2.57129 0.00195312H14.5713ZM1.85938 2.09277C1.79359 2.19046 1.74778 2.30188 1.72656 2.42188C1.71805 2.47035 1.71291 2.52036 1.71289 2.57129V19.1436C1.71319 19.5129 1.9491 19.8409 2.2998 19.958L9.15723 22.2441C9.71358 22.4294 10.2879 22.015 10.2881 21.4287V5.52148C10.2881 5.15165 10.051 4.82303 9.7002 4.70605L1.85938 2.09277Z" fill="black"/>
<path d="M19.1104 6.25293C19.4442 5.91903 19.9854 5.91903 20.3193 6.25293L23.748 9.68164C24.0816 10.0156 24.0818 10.5569 23.748 10.8906L20.3193 14.3193C19.9856 14.653 19.4442 14.6528 19.1104 14.3193C18.7765 13.9855 18.7766 13.4443 19.1104 13.1104L21.0791 11.1416H14.5723C14.1002 11.1416 13.7171 10.7581 13.7168 10.2861C13.7168 9.81393 14.1001 9.43066 14.5723 9.43066H21.0791L19.1104 7.46191C18.7765 7.12802 18.7765 6.58683 19.1104 6.25293Z" fill="black"/>
</svg>
