<svg width="24" height="24" viewBox="0 0 24 24" fill="none" xmlns="http://www.w3.org/2000/svg">
<path fill-rule="evenodd" clip-rule="evenodd" d="M21.4277 2.57324C22.8465 2.57337 23.9968 3.72387 23.9971 5.14258V18.8574C23.9969 20.2761 22.8465 21.4266 21.4277 21.4268H2.57031C1.15166 21.4265 0.00118442 20.2761 0.000976562 18.8574V5.14258C0.00120261 3.72393 1.15167 2.57347 2.57031 2.57324H21.4277ZM1.71191 18.8574C1.71212 19.3317 2.09606 19.7166 2.57031 19.7168H4.28711V12.8555H1.71191V18.8574ZM5.99805 19.7168H8.57227V12.8555H5.99805V19.7168ZM10.2832 19.7168H13.7148V12.8555H10.2832V19.7168ZM15.4258 19.7168H18.001V12.8555H15.4258V19.7168ZM19.7119 19.7168H21.4277C21.9021 19.7167 22.2869 19.3317 22.2871 18.8574V12.8555H19.7119V19.7168ZM2.57031 4.28418C2.09607 4.28441 1.71214 4.66834 1.71191 5.14258V11.1445H4.28711V4.28418H2.57031ZM5.99805 11.1445H8.57227V4.28418H5.99805V11.1445ZM10.2832 11.1445H13.7158V4.28418H10.2832V11.1445ZM15.4258 11.1445H18.002V4.28418H15.4258V11.1445ZM19.7119 11.1445H22.2871V5.14258C22.2869 4.66828 21.9021 4.28431 21.4277 4.28418H19.7119V11.1445Z" fill="black"/>
</svg>
