<svg width="24" height="24" viewBox="0 0 24 24" fill="none" xmlns="http://www.w3.org/2000/svg">
<path d="M22.4711 17.4619C22.7636 17.0915 23.3017 17.0289 23.6722 17.3213C24.0428 17.6139 24.1065 18.1519 23.8138 18.5225C22.4092 20.3012 20.6037 21.7232 18.5453 22.6729C16.4965 23.618 14.2541 24.0677 11.9994 23.9873C9.74498 24.0676 7.50296 23.6179 5.45447 22.6729C3.39616 21.7232 1.59047 20.301 0.185912 18.5225C-0.106396 18.152 -0.0436636 17.6139 0.326537 17.3213C0.696936 17.0288 1.23496 17.0918 1.52771 17.4619C2.76542 19.0293 4.35637 20.2832 6.17029 21.1201C7.98428 21.957 9.97073 22.3539 11.9672 22.2783H12.0316C14.028 22.354 16.0145 21.9569 17.8285 21.1201C19.6426 20.2832 21.2333 19.0294 22.4711 17.4619Z" fill="black"/>
<path fill-rule="evenodd" clip-rule="evenodd" d="M12.0941 0.00683594C12.304 0.028883 12.4547 0.119364 12.5043 0.149414C12.5881 0.200276 12.6597 0.25766 12.7123 0.303711C12.8199 0.398021 12.9323 0.516753 13.0404 0.639648C13.261 0.890383 13.5317 1.23608 13.8285 1.64258C14.4252 2.45999 15.1658 3.57478 15.8881 4.78711C16.6096 5.99811 17.3234 7.32447 17.8597 8.56348C18.3828 9.77197 18.7864 11.0068 18.7865 11.9951C18.7864 13.7943 18.072 15.5208 16.7992 16.793C15.5266 18.065 13.8 18.7792 12.0004 18.7793C10.2007 18.7793 8.47424 18.064 7.20154 16.792C5.929 15.5199 5.21332 13.7942 5.21326 11.9951C5.21335 11.0067 5.61787 9.77202 6.14099 8.56348C6.67735 7.32444 7.39116 5.99812 8.11267 4.78711C8.835 3.57474 9.57555 2.45997 10.1722 1.64258C10.469 1.23612 10.7388 0.89035 10.9593 0.639648C11.0676 0.516618 11.1797 0.398089 11.2875 0.303711C11.3402 0.257521 11.4122 0.200444 11.4965 0.149414C11.5533 0.114963 11.7418 0.00195312 12.0004 0.00195312L12.0941 0.00683594ZM11.9994 2.06445C11.8692 2.22786 11.7189 2.4243 11.5531 2.65137C10.9908 3.42158 10.2793 4.49073 9.58142 5.66211C8.88267 6.83492 8.20795 8.09356 7.71033 9.24316C7.19965 10.423 6.92429 11.3815 6.92419 11.9951C6.92426 13.3406 7.4586 14.6315 8.41052 15.583C9.36252 16.5344 10.654 17.0693 12.0004 17.0693C13.3466 17.0692 14.6383 16.5345 15.5902 15.583C16.542 14.6316 17.0765 13.3405 17.0765 11.9951C17.0764 11.3815 16.801 10.4228 16.2904 9.24316C15.7928 8.09362 15.118 6.83486 14.4193 5.66211C13.7215 4.49087 13.0099 3.42159 12.4476 2.65137C12.2817 2.42406 12.1297 2.22796 11.9994 2.06445Z" fill="black"/>
</svg>
