<svg width="24" height="24" viewBox="0 0 24 24" fill="none" xmlns="http://www.w3.org/2000/svg">
<path d="M1.69694 15.032C2.03084 14.6982 2.57206 14.6981 2.90593 15.032L8.96647 21.0925C9.30034 21.4264 9.30028 21.9676 8.96647 22.3015C8.63258 22.6354 8.09139 22.6354 7.75749 22.3015L5.33171 19.8757L4.72429 20.4841C4.3905 20.8179 3.84922 20.8177 3.5153 20.4841C3.18155 20.1502 3.18148 19.609 3.5153 19.2751L4.12272 18.6667L1.69694 16.241C1.36307 15.9071 1.36305 15.3659 1.69694 15.032Z" fill="black"/>
<path d="M11.3952 2.91089C11.7291 2.57699 12.2703 2.57699 12.6042 2.91089L16.8376 7.14429C16.8407 7.1473 16.8443 7.15001 16.8473 7.15307C16.8508 7.1565 16.8537 7.16035 16.8571 7.16382L21.0895 11.3962C21.4231 11.7302 21.4233 12.2714 21.0895 12.6052C20.7557 12.9389 20.2144 12.9388 19.8805 12.6052L16.2419 8.96655L8.9655 16.2429L12.6032 19.8806C12.937 20.2145 12.937 20.7557 12.6032 21.0896C12.2693 21.4235 11.7281 21.4234 11.3942 21.0896L2.90886 12.6042C2.57523 12.2703 2.57505 11.7291 2.90886 11.3953C3.24267 11.0615 3.78395 11.0617 4.11784 11.3953L7.75651 15.0339L15.0329 7.75757L11.3952 4.11987C11.0613 3.78602 11.0614 3.2448 11.3952 2.91089Z" fill="black"/>
<path d="M15.0309 1.698C15.3647 1.36428 15.906 1.3644 16.2399 1.698L18.6657 4.12378L19.2731 3.51636C19.6069 3.18255 20.1482 3.18274 20.4821 3.51636C20.816 3.85025 20.816 4.39144 20.4821 4.72534L19.8747 5.33276L22.3005 7.75854C22.6343 8.09241 22.6343 8.63362 22.3005 8.96753C21.9666 9.30143 21.4254 9.30143 21.0915 8.96753L15.0309 2.90698C14.6973 2.57306 14.6971 2.0318 15.0309 1.698Z" fill="black"/>
</svg>
