<svg width="24" height="24" viewBox="0 0 24 24" fill="none" xmlns="http://www.w3.org/2000/svg">
<path d="M18 5.14453C18.4721 5.14466 18.8555 5.52788 18.8555 6V18C18.8555 18.4721 18.4721 18.8553 18 18.8555C17.5278 18.8555 17.1445 18.4722 17.1445 18V12.8555H6.85547V18C6.85547 18.4721 6.47209 18.8553 6 18.8555C5.5278 18.8555 5.14453 18.4722 5.14453 18V6C5.14453 5.5278 5.5278 5.14453 6 5.14453C6.47209 5.14466 6.85547 5.52788 6.85547 6V11.1445H17.1445V6C17.1445 5.5278 17.5278 5.14453 18 5.14453Z" fill="black"/>
<path d="M2.57129 6.85938C3.04338 6.85951 3.42676 7.24272 3.42676 7.71484V16.2861C3.42649 16.758 3.04322 17.1415 2.57129 17.1416C2.09925 17.1416 1.71608 16.7581 1.71582 16.2861V12.8555H0.857422C0.385218 12.8555 0.000976562 12.4722 0.000976562 12C0.000976562 11.5278 0.385218 11.1445 0.857422 11.1445H1.71582V7.71484C1.71582 7.24264 2.09909 6.85938 2.57129 6.85938Z" fill="black"/>
<path d="M21.4287 6.85938C21.9007 6.85964 22.2842 7.2428 22.2842 7.71484V11.1445H23.1426C23.6146 11.1448 23.998 11.528 23.998 12C23.998 12.472 23.6146 12.8552 23.1426 12.8555H22.2842V16.2861C22.2839 16.7579 21.9005 17.1413 21.4287 17.1416C20.9567 17.1416 20.5735 16.7581 20.5732 16.2861V7.71484C20.5732 7.24264 20.9565 6.85938 21.4287 6.85938Z" fill="black"/>
</svg>
