<svg width="24" height="24" viewBox="0 0 24 24" fill="none" xmlns="http://www.w3.org/2000/svg">
<path fill-rule="evenodd" clip-rule="evenodd" d="M11.9935 0.59856C14.502 0.584838 16.9464 1.39435 18.9505 2.90325C20.9543 4.41209 22.408 6.53672 23.0882 8.9511C23.7683 11.3656 23.6378 13.9374 22.7161 16.2704C21.7944 18.6033 20.1322 20.5695 17.9856 21.8671C15.839 23.1647 13.3253 23.7222 10.8314 23.454C8.33723 23.1858 5.9998 22.1062 4.17803 20.3818C2.3563 18.6573 1.15002 16.3828 0.745414 13.9072C0.369521 11.6066 0.704952 9.25027 1.69952 7.15129C1.44183 6.70492 1.30015 6.19607 1.3001 5.6718C1.30021 4.88575 1.61341 4.13096 2.16924 3.57512L3.66045 2.08391L3.72491 2.02532C4.02135 1.78349 4.44231 1.77065 4.75225 1.98626L5.15264 1.58782C5.48667 1.2541 6.02788 1.25383 6.36163 1.58782C6.69514 1.92189 6.69462 2.46313 6.36065 2.7968L5.971 3.18547L6.7503 3.96477L7.13897 3.5761C7.4727 3.24206 8.01389 3.24239 8.34795 3.5761C8.68201 3.90984 8.68267 4.45103 8.34893 4.78508L7.94854 5.1845C8.04746 5.32678 8.10275 5.49615 8.10284 5.6718C8.10276 5.89834 8.01295 6.11604 7.85284 6.27629L6.36065 7.76751C6.08556 8.04256 5.75907 8.26114 5.39971 8.41008C5.04009 8.55904 4.6542 8.63565 4.26495 8.63567C3.83531 8.63567 3.41676 8.53952 3.0335 8.36419C2.3535 10.0251 2.14147 11.8482 2.43291 13.6318C2.77719 15.7379 3.803 17.6734 5.35284 19.1406C6.90279 20.6077 8.89198 21.5256 11.014 21.7538C13.1359 21.982 15.2745 21.5082 17.1009 20.4042C18.9273 19.3002 20.341 17.6264 21.1253 15.6415C21.9094 13.6567 22.0203 11.4691 21.4417 9.41497C20.863 7.36072 19.6262 5.55319 17.9212 4.26946C16.2162 2.98577 14.1374 2.29687 12.0032 2.30852C11.5312 2.31103 11.1466 1.92992 11.1439 1.45794C11.1413 0.98588 11.5215 0.60137 11.9935 0.59856ZM3.37823 4.78411C3.14308 5.01925 3.01115 5.33927 3.01104 5.6718C3.01111 6.00432 3.14314 6.32336 3.37823 6.55852C3.61345 6.79368 3.93233 6.92571 4.26495 6.92571C4.42963 6.92569 4.59326 6.89303 4.74541 6.83001C4.89724 6.767 5.03541 6.67474 5.15166 6.55852L6.03838 5.67083L4.26495 3.89739L3.37823 4.78411Z" fill="black"/>
<path d="M9.42803 12.8593C9.90005 12.8595 10.2825 13.2427 10.2825 13.7148C10.2824 14.1867 9.89995 14.57 9.42803 14.5702H8.57061C8.09851 14.5702 7.71531 14.1868 7.71514 13.7148C7.71514 13.2426 8.09841 12.8593 8.57061 12.8593H9.42803Z" fill="black"/>
<path d="M15.428 12.8593C15.9001 12.8595 16.2825 13.2427 16.2825 13.7148C16.2824 14.1867 15.8999 14.57 15.428 14.5702H14.5706C14.0985 14.5702 13.7153 14.1868 13.7151 13.7148C13.7151 13.2426 14.0984 12.8593 14.5706 12.8593H15.428Z" fill="black"/>
<path fill-rule="evenodd" clip-rule="evenodd" d="M15.0569 6.87004C15.354 6.91549 15.609 7.11496 15.722 7.40032L17.012 10.6601L18.6038 12.2519C18.764 12.412 18.8546 12.6299 18.8548 12.8564V16.2851C18.8548 16.7572 18.4715 17.1405 17.9993 17.1406H17.1399V17.9999C17.1398 18.472 16.7566 18.8554 16.2845 18.8554C15.8125 18.8552 15.4292 18.4719 15.429 17.9999V17.1406H8.56866V17.9999C8.56848 18.472 8.18528 18.8554 7.71319 18.8554C7.24115 18.8553 6.85789 18.4719 6.85772 17.9999V17.1406H5.99932C5.52712 17.1406 5.14385 16.7573 5.14385 16.2851V12.8564C5.14407 12.6299 5.23468 12.412 5.39483 12.2519L6.9837 10.662L8.27569 7.40032L8.33233 7.28313C8.48392 7.02378 8.76382 6.85935 9.07061 6.8593H14.9271L15.0569 6.87004ZM6.85479 13.2109V15.4306H17.1439V13.2109L15.931 11.998H8.06768L6.85479 13.2109ZM8.97198 10.287H15.0257L14.346 8.57024H9.65166L8.97198 10.287Z" fill="black"/>
</svg>
