<svg width="24" height="24" viewBox="0 0 24 24" fill="none" xmlns="http://www.w3.org/2000/svg">
<path fill-rule="evenodd" clip-rule="evenodd" d="M20.6642 1.30078C21.1364 1.30078 21.5197 1.68405 21.5197 2.15625V4.12109C22.2447 4.19661 22.837 4.79277 22.9142 5.51367L22.923 5.66992L22.925 6.21191C22.9239 7.52161 22.8247 9.11503 21.4806 10.3262C20.8997 10.8496 20.1819 11.2036 19.4221 11.3594C19.4545 12.6906 19.5404 14.2306 19.4084 15.6387C19.2445 17.386 18.7383 19.1622 17.3058 20.5947C15.902 21.9984 13.9185 22.6729 12.0392 22.6729C10.1672 22.6727 8.25731 21.9995 7.08319 20.5225C6.4014 19.6647 5.8928 18.7192 5.56365 17.7314C5.10387 17.5827 4.65625 17.3927 4.23651 17.1631C3.20628 16.5995 2.27958 15.7832 1.72088 14.7744C1.15043 13.7444 0.972395 12.5208 1.46502 11.2607L1.47674 11.2344C2.8587 8.02093 5.75528 5.61223 9.16717 4.84082L9.2619 4.8252C9.48237 4.80084 9.70522 4.86291 9.88201 5.00098C10.0841 5.15879 10.2043 5.39897 10.2101 5.65527C10.2218 6.17418 10.4342 6.84764 10.7814 7.72266C11.1067 8.54228 11.5526 9.54243 11.8762 10.5225C12.5327 12.5111 12.8543 14.9069 10.8293 16.8926C9.94969 17.7535 8.7735 18.0864 7.61834 18.0791C7.59526 18.079 7.57212 18.0776 7.54901 18.0771C7.78376 18.5569 8.07428 19.0204 8.42205 19.458C9.18489 20.4177 10.5308 20.9627 12.0392 20.9629C13.5407 20.9629 15.0635 20.4189 16.0969 19.3857C17.1396 18.343 17.5612 17.0146 17.7053 15.4795C17.8323 14.1252 17.7409 12.7789 17.7101 11.3584C16.3172 11.0644 15.4066 10.2523 14.8703 9.19922C14.3174 8.11322 14.1808 6.81596 14.1808 5.67188C14.1808 4.8769 14.8117 4.19788 15.59 4.12012V2.15625C15.59 1.68411 15.9734 1.30088 16.4455 1.30078C16.9177 1.30078 17.301 1.68405 17.301 2.15625V4.11328H19.8088V2.15625C19.8088 1.68411 20.1921 1.30088 20.6642 1.30078ZM8.65643 6.75781C6.17231 7.59181 4.09882 9.47435 3.05291 11.8945C2.77284 12.6204 2.86441 13.3085 3.21697 13.9453C3.58331 14.6068 4.23903 15.2156 5.05682 15.6631C5.08658 15.6794 5.11761 15.6932 5.14764 15.709C5.03603 14.3483 5.25233 12.964 5.81756 11.6602C6.00534 11.227 6.5094 11.0282 6.94256 11.2158C7.37533 11.4038 7.57437 11.9069 7.3869 12.3398C6.83602 13.6105 6.69815 14.985 6.95526 16.3125C7.18373 16.3474 7.40968 16.3677 7.63006 16.3691C8.46569 16.3743 9.15804 16.1347 9.63201 15.6709L9.85955 15.4287C10.921 14.2023 10.8119 12.7542 10.2521 11.0586C9.94885 10.14 9.556 9.27183 9.19158 8.35352C8.98673 7.83727 8.78821 7.2947 8.65643 6.75781ZM15.8937 5.82422C15.9062 6.81659 16.0427 7.73151 16.3947 8.42285C16.734 9.08923 17.2842 9.58107 18.2873 9.72559C19.0234 9.79973 19.7864 9.55091 20.3361 9.05566C21.1818 8.29354 21.2146 7.30838 21.2121 5.82422H15.8937Z" fill="black"/>
</svg>
