<svg width="24" height="24" viewBox="0 0 24 24" fill="none" xmlns="http://www.w3.org/2000/svg">
<path fill-rule="evenodd" clip-rule="evenodd" d="M12.001 11.1445C13.7748 11.1447 15.2129 12.5835 15.2129 14.3574V16.7139C15.2126 17.1858 14.8294 17.5693 14.3574 17.5693H9.64355C9.17151 17.5693 8.78835 17.1858 8.78809 16.7139V14.3574C8.78809 12.5834 10.227 11.1445 12.001 11.1445ZM12.001 12.8555C11.1714 12.8555 10.499 13.5278 10.499 14.3574V15.8594H13.5029V14.3574C13.5029 13.5279 12.8304 12.8557 12.001 12.8555Z" fill="black"/>
<path d="M7.28613 6.43066C7.75834 6.43066 8.1416 6.81393 8.1416 7.28613V9.64355C8.14117 10.1154 7.75807 10.498 7.28613 10.498C6.81425 10.498 6.4311 10.1153 6.43066 9.64355V7.28613C6.43066 6.81397 6.81399 6.43073 7.28613 6.43066Z" fill="black"/>
<path d="M16.7148 6.43066C17.187 6.43066 17.5703 6.81393 17.5703 7.28613V9.64355C17.5699 10.1154 17.1868 10.498 16.7148 10.498C16.2429 10.498 15.8598 10.1154 15.8594 9.64355V7.28613C15.8594 6.81393 16.2426 6.43066 16.7148 6.43066Z" fill="black"/>
<path fill-rule="evenodd" clip-rule="evenodd" d="M19.3477 0.858398C21.4427 0.858487 23.1414 2.55827 23.1416 4.65332V19.3477C23.1412 21.4425 21.4426 23.1415 19.3477 23.1416H4.65332C2.55843 23.1414 0.859725 21.4425 0.859375 19.3477V4.65332C0.859538 2.55832 2.55831 0.85856 4.65332 0.858398H19.3477ZM4.65332 2.57031C3.50272 2.57047 2.57048 3.50272 2.57031 4.65332V19.3477C2.57066 20.4981 3.50284 21.4315 4.65332 21.4316H19.3477C20.4982 21.4316 21.4313 20.4981 21.4316 19.3477V4.65332C21.4315 3.50268 20.4983 2.5704 19.3477 2.57031H4.65332Z" fill="black"/>
</svg>
