<svg width="24" height="24" viewBox="0 0 24 24" fill="none" xmlns="http://www.w3.org/2000/svg">
<path d="M11.9993 12.8594C12.9448 12.8595 13.7112 13.6268 13.7112 14.5723C13.7108 15.5174 12.9445 16.284 11.9993 16.2842C11.0541 16.284 10.2868 15.5174 10.2864 14.5723C10.2864 13.6268 11.0539 12.8595 11.9993 12.8594Z" fill="black"/>
<path d="M6.85674 10.2871C7.77062 10.2873 8.51491 11.0045 8.56377 11.9062C8.56713 11.937 8.56865 11.9683 8.56865 12C8.56865 12.031 8.56699 12.0616 8.56377 12.0918C8.51599 12.9945 7.77135 13.7118 6.85674 13.7119C5.91125 13.7119 5.144 12.9455 5.14385 12C5.14398 11.0545 5.91124 10.2871 6.85674 10.2871Z" fill="black"/>
<path d="M17.1429 10.2871C18.088 10.2875 18.8547 11.0548 18.8548 12C18.8546 12.9452 18.088 13.7115 17.1429 13.7119C16.2285 13.7119 15.4822 12.9952 15.4339 12.0928C15.4306 12.0623 15.43 12.0313 15.43 12C15.43 11.9683 15.4305 11.937 15.4339 11.9062C15.4828 11.0044 16.2289 10.2871 17.1429 10.2871Z" fill="black"/>
<path fill-rule="evenodd" clip-rule="evenodd" d="M17.1995 4.33496C19.0641 4.33526 20.7701 5.38638 21.6087 7.05176L22.9817 9.78027C23.6846 11.1766 23.6847 12.8234 22.9817 14.2197L21.6087 16.9482C20.7701 18.6136 19.064 19.6638 17.1995 19.6641H6.8001C4.93547 19.6641 3.22971 18.6135 2.39092 16.9482L1.0169 14.2197C0.314016 12.8234 0.314043 11.1766 1.0169 9.78027L2.39092 7.05176C3.22963 5.38624 4.93531 4.33496 6.8001 4.33496H17.1995ZM6.8001 6.0459C5.58118 6.0459 4.46642 6.73259 3.91826 7.82129L2.54424 10.5488C2.0847 11.4616 2.08468 12.5384 2.54424 13.4512L3.91826 16.1787C4.46649 17.2672 5.58133 17.9541 6.8001 17.9541H17.1995C18.4181 17.9538 19.5333 17.2672 20.0813 16.1787L21.4544 13.4512C21.9139 12.5385 21.9138 11.4615 21.4544 10.5488L20.0813 7.82129C19.5333 6.73283 18.4181 6.0462 17.1995 6.0459H6.8001Z" fill="black"/>
</svg>
