<svg width="24" height="24" viewBox="0 0 24 24" fill="none" xmlns="http://www.w3.org/2000/svg">
<path fill-rule="evenodd" clip-rule="evenodd" d="M20.5918 0.99707C21.9262 0.997364 23.0086 2.0796 23.0088 3.41406V5.75684C23.0087 6.67635 22.4943 7.4753 21.7383 7.88379V21.3994H22.25C22.7221 21.3995 23.1055 21.7828 23.1055 22.2549C23.1053 22.7269 22.722 23.1102 22.25 23.1104H1.75C1.27788 23.1104 0.894663 22.727 0.894531 22.2549C0.894531 21.7827 1.2778 21.3994 1.75 21.3994H2.26172V7.88281C1.50651 7.47406 0.993255 6.6757 0.993164 5.75684V3.41406C0.993366 2.07954 2.07564 0.997273 3.41016 0.99707H20.5918ZM3.97266 8.17383V21.3994H7.82129C6.9613 20.5601 6.36254 19.4358 6.3623 18.1553C6.3623 16.815 6.65393 15.6023 7.27539 14.6982C7.91771 13.7639 8.89141 13.2002 10.0879 13.2002C10.3401 13.2004 10.5799 13.3118 10.7422 13.5049C10.9043 13.6982 10.9733 13.9546 10.9297 14.2031C10.87 14.5437 10.8246 14.8322 10.8057 15.0811C10.7863 15.3354 10.8001 15.4891 10.8232 15.5752C10.8285 15.5947 10.8347 15.6072 10.8379 15.6143C10.8379 15.6143 10.8417 15.6163 10.8438 15.6172C10.8544 15.6217 10.8726 15.6285 10.8984 15.6348C10.9522 15.6478 11.038 15.6602 11.1641 15.6602C11.4216 15.66 11.4871 15.5789 11.5342 15.4941C11.6198 15.34 11.6924 15.0115 11.6221 14.4629C11.4835 13.3844 10.8456 11.8824 9.76758 10.4746C9.57004 10.2164 9.53582 9.86776 9.67969 9.57617C9.8237 9.28462 10.1211 9.09978 10.4463 9.09961C12.2413 9.09979 14.0357 10.1141 15.3506 11.5029C16.6729 12.9 17.6396 14.8088 17.6396 16.7881C17.6396 18.2746 17.2836 19.8402 16.3789 21.0566C16.2903 21.1757 16.1947 21.2888 16.0967 21.3994H20.0273V8.17383H3.97266ZM12.3252 11.3154C12.8556 12.3328 13.2034 13.3501 13.3184 14.2451C13.4104 14.9628 13.3671 15.7159 13.0283 16.3252C12.651 17.0035 11.9817 17.3699 11.1641 17.3701C10.707 17.3701 10.259 17.2836 9.88379 17.0352C9.48987 16.7739 9.27416 16.399 9.17188 16.0195C9.10211 15.7602 9.08276 15.491 9.08691 15.2354C8.9384 15.3497 8.80404 15.4932 8.68457 15.667C8.31968 16.1979 8.07324 17.0358 8.07324 18.1553C8.07351 18.973 8.50638 19.7739 9.25781 20.3955C10.0004 21.0094 10.9897 21.39 11.9639 21.3994H12.04C13.4943 21.3894 14.4191 20.8263 15.0068 20.0361C15.6266 19.2028 15.9296 18.0345 15.9297 16.7881C15.9296 15.3515 15.2121 13.8439 14.1094 12.6787C13.5607 12.0991 12.947 11.6354 12.3252 11.3154ZM3.41016 2.70801C3.02004 2.70821 2.7043 3.02395 2.7041 3.41406V5.75684C2.70423 6.14701 3.02 6.46366 3.41016 6.46387H20.5918C20.9819 6.46357 21.2987 6.14695 21.2988 5.75684V3.41406C21.2986 3.02401 20.9818 2.7083 20.5918 2.70801H3.41016Z" fill="black"/>
</svg>
