<svg width="24" height="24" viewBox="0 0 24 24" fill="none" xmlns="http://www.w3.org/2000/svg">
<path fill-rule="evenodd" clip-rule="evenodd" d="M9.44891 0.22659C9.85181 -0.0117473 10.4345 -0.0762958 10.9245 0.186551C17.5497 3.26033 21.392 9.54565 21.4089 14.9483L21.3981 15.4698C21.2962 17.7861 20.4665 19.9286 18.86 21.4942C17.2584 23.0549 14.9595 23.9674 12.0495 23.9785L12.0505 23.9795C7.13512 24.2977 2.79182 20.3885 2.59247 15.4668V15.4541C2.52183 12.6848 4.02921 10.0464 6.45087 8.7012L6.53192 8.66116C6.72353 8.57976 6.94006 8.57071 7.13934 8.63772C7.36705 8.71437 7.55218 8.8837 7.64911 9.10354C8.06683 10.0515 8.6537 10.9119 9.37567 11.6485C10.223 10.5425 10.6157 9.11542 10.6042 7.54593C10.5903 5.6733 10.0011 3.66701 9.01532 1.95999C8.84604 1.67426 8.76347 1.31803 8.87079 0.952176C8.97543 0.596012 9.22154 0.361168 9.44891 0.22659ZM11.0427 2.15628C11.832 3.84312 12.3007 5.71962 12.3141 7.53323C12.3303 9.73663 11.6717 11.9144 10.0202 13.4873C9.70476 13.7873 9.21386 13.8026 8.88055 13.5225C7.93341 12.7265 7.14041 11.7675 6.53583 10.6944C5.1153 11.8105 4.2591 13.5704 4.30145 15.3975L4.32586 15.7666C4.68201 19.5543 8.10688 22.5207 11.9401 22.2725C11.9585 22.2713 11.9774 22.2705 11.9958 22.2705C14.5651 22.2705 16.4274 21.4772 17.6667 20.2696C18.9109 19.057 19.604 17.3523 19.6901 15.3946C19.8855 10.877 16.8003 5.20329 11.0427 2.15628Z" fill="black"/>
</svg>
