<svg width="24" height="24" viewBox="0 0 24 24" fill="none" xmlns="http://www.w3.org/2000/svg">
<path fill-rule="evenodd" clip-rule="evenodd" d="M17.0013 0.00195312C17.3037 0.00200181 17.5838 0.162347 17.7376 0.422852C17.8913 0.683366 17.8955 1.00571 17.7493 1.27051L14.6644 6.85938H19.9378C21.4999 6.85938 22.2464 8.78027 21.094 9.83496L5.86455 23.7734C5.57475 24.0385 5.14093 24.0728 4.81376 23.8555C4.48659 23.6381 4.34976 23.2254 4.48173 22.8555L8.35966 11.998H4.05986C2.80826 11.9979 1.97933 10.6983 2.50712 9.56348L6.72587 0.49707C6.86613 0.195616 7.16879 0.00201763 7.50126 0.00195312H17.0013ZM4.05791 10.2852L4.05693 10.2861L4.05888 10.2881H9.57255C9.85059 10.2881 10.1116 10.4231 10.2718 10.6504C10.4319 10.8776 10.4716 11.1689 10.3782 11.4307L7.25029 20.1865L19.9397 8.57324V8.57129L19.9388 8.56934H13.2151C12.9128 8.56918 12.6325 8.40972 12.4788 8.14941C12.3251 7.88904 12.3212 7.56652 12.4671 7.30176L15.552 1.71289H8.04619L4.05791 10.2852Z" fill="black"/>
</svg>
