<svg width="24" height="24" viewBox="0 0 24 24" fill="none" xmlns="http://www.w3.org/2000/svg">
<path fill-rule="evenodd" clip-rule="evenodd" d="M13.05 0.318001C13.2781 0.0372501 13.6583 -0.069482 13.9992 0.0513995C14.3402 0.172474 14.5685 0.495203 14.5685 0.857064V8.57386H21.4279C21.7576 8.57397 22.0576 8.76353 22.1994 9.06116C22.3411 9.35897 22.299 9.71143 22.091 9.96741L10.9484 23.6823C10.7202 23.963 10.3392 24.0699 9.99822 23.9489C9.65758 23.8277 9.43004 23.5048 9.42986 23.1432V15.4264H2.57049C2.24074 15.4263 1.93977 15.2368 1.79803 14.9391C1.65639 14.6413 1.69851 14.2878 1.90643 14.0319L13.05 0.318001ZM4.36737 13.7164H10.2844C10.7564 13.7164 11.1395 14.099 11.1398 14.5709V20.734L19.631 10.2838H13.7131C13.2411 10.2836 12.8586 9.90041 12.8586 9.42835V3.26429L4.36737 13.7164Z" fill="black"/>
</svg>
