<svg width="24" height="24" viewBox="0 0 24 24" fill="none" xmlns="http://www.w3.org/2000/svg">
<path fill-rule="evenodd" clip-rule="evenodd" d="M11.3955 1.11C11.7294 0.776189 12.2716 0.77613 12.6055 1.11C13.4472 1.95149 21.9316 9.65902 22.3076 10.0036C22.8387 10.4903 23.1416 11.1771 23.1416 11.8971V20.5719C23.1414 21.9906 21.9909 23.141 20.5723 23.1412H3.42871C2.01006 23.141 0.85956 21.9906 0.859375 20.5719V11.8971C0.859394 11.1769 1.16249 10.4902 1.69336 10.0036C2.07124 9.65718 10.5543 1.95104 11.3955 1.11ZM12 2.89222C9.82695 4.92099 3.14726 10.9896 2.84863 11.2633C2.67109 11.4261 2.57033 11.6563 2.57031 11.8971V20.5719C2.5705 21.0462 2.95444 21.4311 3.42871 21.4313H11.0332C10.8494 20.6773 10.4385 19.8337 9.80762 19.0465C8.46499 20.0636 6.54511 19.9612 5.32031 18.737C4.92282 18.3395 4.68558 17.7932 4.53613 17.2965C4.38153 16.7826 4.29236 16.2243 4.24512 15.7145C4.1977 15.2028 4.19063 14.7137 4.20996 14.3287C4.21954 14.1382 4.23632 13.9561 4.2627 13.8024C4.27561 13.7272 4.29431 13.6394 4.32227 13.5524C4.33827 13.5026 4.39893 13.3048 4.56641 13.1373L4.63086 13.0797C4.78073 12.9562 4.93621 12.9074 4.98047 12.8932C5.06757 12.8652 5.15618 12.8466 5.23145 12.8336C5.38517 12.8073 5.56733 12.7905 5.75781 12.7809C6.14277 12.7616 6.6319 12.7686 7.14355 12.8161C7.65329 12.8633 8.21169 12.9525 8.72559 13.1071C9.22221 13.2565 9.76856 13.4938 10.166 13.8912C11.189 14.9146 11.4275 16.4234 10.8857 17.6754C11.1311 17.9571 11.3589 18.249 11.5635 18.5504C11.8283 17.4488 12.2039 16.501 12.6377 15.7008C11.6829 14.3626 11.805 12.4926 13.0059 11.2916C13.4043 10.8932 13.952 10.6577 14.4492 10.5094C14.9643 10.3558 15.524 10.2678 16.0342 10.2213C16.5464 10.1747 17.0349 10.1675 17.418 10.1862C17.6076 10.1954 17.7872 10.2119 17.9385 10.237C18.0125 10.2492 18.099 10.267 18.1846 10.2936C18.2226 10.3054 18.3841 10.3524 18.5391 10.4791L18.6045 10.5387L18.6641 10.6051C18.791 10.7603 18.8389 10.922 18.8506 10.9596C18.877 11.045 18.894 11.1319 18.9062 11.2057C18.9312 11.3569 18.9478 11.5368 18.957 11.7262C18.9757 12.1092 18.9694 12.598 18.9229 13.11C18.8764 13.6199 18.7882 14.1792 18.6348 14.694C18.4865 15.1912 18.2499 15.7389 17.8516 16.1373C16.8048 17.1841 15.2497 17.4109 13.9814 16.82C13.4207 17.9614 12.9803 19.4858 12.8789 21.4313H20.5723C21.0465 21.431 21.4315 21.0462 21.4316 20.5719V11.8971C21.4316 11.6563 21.3297 11.4269 21.1523 11.2643C20.8589 10.9954 14.1735 4.9215 12 2.89222ZM5.91406 14.486C5.90314 14.7774 5.91109 15.1552 5.94824 15.5563C5.98873 15.9932 6.06195 16.4325 6.17383 16.8043C6.29091 17.1933 6.42476 17.4224 6.5293 17.527C7.19962 18.1971 8.28576 18.1972 8.95605 17.527C9.6262 16.8568 9.62619 15.7705 8.95605 15.1002C8.85145 14.9957 8.62235 14.8618 8.2334 14.7448C7.86161 14.6329 7.42223 14.5597 6.98535 14.5192C6.58389 14.482 6.20564 14.475 5.91406 14.486ZM17.251 11.8912C16.9602 11.8812 16.5854 11.8883 16.1885 11.9245C15.7506 11.9643 15.311 12.037 14.9385 12.1481C14.5481 12.2645 14.3184 12.398 14.2148 12.5016C13.5451 13.1719 13.545 14.2582 14.2148 14.9284C14.8852 15.5985 15.9724 15.5985 16.6426 14.9284C16.7461 14.8247 16.8787 14.5958 16.9951 14.2057C17.1063 13.8331 17.1798 13.3928 17.2197 12.9547C17.2559 12.5573 17.2611 12.1822 17.251 11.8912Z" fill="black"/>
</svg>
