<svg width="24" height="24" viewBox="0 0 24 24" fill="none" xmlns="http://www.w3.org/2000/svg">
<path fill-rule="evenodd" clip-rule="evenodd" d="M21.4287 1.71582C22.8475 1.71582 23.9977 2.86648 23.998 4.28516V21.4287C23.9979 21.9006 23.6155 22.283 23.1436 22.2832C22.6716 22.2831 22.2882 21.9007 22.2881 21.4287V4.28516C22.2877 3.81089 21.9031 3.42676 21.4287 3.42676H8.57031V21.4287C8.57018 21.9008 8.18697 22.2842 7.71484 22.2842C7.70897 22.2842 7.70311 22.2833 7.69727 22.2832L0.857422 22.2842C0.621334 22.2841 0.407551 22.1881 0.25293 22.0332C0.233533 22.0138 0.214738 21.9938 0.197266 21.9727C0.145141 21.9094 0.101713 21.8383 0.0693359 21.7617C0.0260108 21.6595 0.00199051 21.5467 0.00195312 21.4287V4.28516C0.00231095 2.8667 1.15284 1.71618 2.57129 1.71582H21.4287ZM2.57129 3.42676C2.09724 3.42712 1.71325 3.81111 1.71289 4.28516V20.5732H6.85938V12.8555H5.14355C4.67135 12.8555 4.28809 12.4722 4.28809 12C4.28809 11.5278 4.67135 11.1445 5.14355 11.1445H6.85938V3.42676H2.57129Z" fill="black"/>
<path d="M13.0039 8.9541C13.2659 8.56146 13.7967 8.45591 14.1895 8.71777C14.5818 8.97984 14.6885 9.51063 14.4268 9.90332L13.0283 12L14.4268 14.0967C14.6884 14.4894 14.582 15.0212 14.1895 15.2832C13.7967 15.5449 13.2659 15.4384 13.0039 15.0459L11.2988 12.4883C11.215 12.3675 11.1636 12.2281 11.1494 12.084C11.1455 12.0443 11.1448 12.0044 11.1465 11.9648C11.1482 11.9231 11.1523 11.8813 11.1602 11.8398C11.163 11.825 11.1673 11.8105 11.1709 11.7959C11.1842 11.7418 11.2023 11.6884 11.2266 11.6367C11.247 11.5931 11.271 11.5508 11.2988 11.5107L13.0039 8.9541Z" fill="black"/>
<path d="M16.6689 8.71777C17.0617 8.45599 17.5925 8.56159 17.8545 8.9541L19.5693 11.5254C19.6596 11.6609 19.7049 11.8131 19.7109 11.9648C19.7126 12.0045 19.7119 12.0442 19.708 12.084C19.7038 12.1263 19.695 12.1678 19.6846 12.209C19.6614 12.3009 19.6249 12.3912 19.5693 12.4746L17.8545 15.0459C17.5925 15.4384 17.0617 15.5449 16.6689 15.2832C16.2761 15.0213 16.1707 14.4896 16.4326 14.0967L17.8301 12L16.4326 9.90332C16.1708 9.51057 16.2764 8.97981 16.6689 8.71777Z" fill="black"/>
</svg>
