<svg width="24" height="24" viewBox="0 0 24 24" fill="none" xmlns="http://www.w3.org/2000/svg">
<path fill-rule="evenodd" clip-rule="evenodd" d="M18.3472 0.871094C18.4622 0.885312 18.575 0.914339 18.6832 0.956055L18.8414 1.02832L18.9888 1.11914C19.0835 1.18583 19.17 1.26389 19.2457 1.35156L19.3511 1.49023L19.3824 1.53613C19.4032 1.56656 19.4328 1.60966 19.4693 1.66309C19.5424 1.77008 19.644 1.92038 19.7662 2.10059C20.0106 2.46107 20.3374 2.94445 20.6744 3.45508C21.0107 3.96485 21.3612 4.50582 21.6539 4.97949C21.9353 5.43502 22.1962 5.88033 22.3238 6.1748C22.4382 6.439 22.4114 6.7437 22.2535 6.98438C22.0964 7.22342 21.8303 7.36724 21.5445 7.36914C21.6466 7.51141 21.7509 7.65459 21.8511 7.79492C22.1199 8.17148 22.3788 8.53676 22.5738 8.81348C22.6711 8.95162 22.7534 9.06859 22.813 9.1543C22.8537 9.21281 22.9223 9.31138 22.9527 9.36426C23.0761 9.57951 23.1408 9.82416 23.1402 10.0723C23.1395 10.3202 23.0732 10.5638 22.9488 10.7783C22.8241 10.9931 22.6446 11.1722 22.4293 11.2959C22.214 11.4194 21.9694 11.4839 21.7212 11.4834C21.6728 11.4833 20.4485 11.4834 19.0298 11.4834V13.3271C20.1311 13.1875 21.25 13.1653 22.3648 13.2695C22.8349 13.3135 23.1811 13.7301 23.1373 14.2002C23.0933 14.6703 22.6758 15.0157 22.2056 14.9717C18.7636 14.6498 15.2748 15.6752 12.563 17.7939C14.2501 18.7944 15.705 20.1628 16.8082 21.8125C17.0701 22.2048 16.9647 22.7355 16.5728 22.998C16.1803 23.2605 15.6488 23.1552 15.3863 22.7627C13.9715 20.6471 11.895 19.06 9.48199 18.251C7.0689 17.442 4.45442 17.4567 2.05035 18.292C1.60439 18.4468 1.11742 18.2106 0.962457 17.7646C0.807793 17.3187 1.04392 16.8317 1.4898 16.6768C3.06039 16.1311 4.70869 15.8912 6.3482 15.9561V13.54C4.64175 13.54 3.14039 13.5401 3.08843 13.54C2.81897 13.5395 2.55421 13.4687 2.32086 13.334C2.08756 13.1992 1.89347 13.0055 1.75836 12.7725C1.62335 12.5393 1.55125 12.2743 1.55035 12.0049C1.54957 11.7354 1.61978 11.4694 1.75347 11.2354L1.83941 11.1074C1.86146 11.0771 1.89056 11.0382 1.92339 10.9941C1.98935 10.9057 2.08033 10.7838 2.18707 10.6416C2.40229 10.3549 2.68697 9.97512 2.98296 9.57129C3.18891 9.29031 3.39154 9.00673 3.57867 8.74121C3.42315 8.74122 3.2641 8.7412 3.09039 8.74121C2.79411 8.74122 2.51866 8.58792 2.36285 8.33594C2.20716 8.08391 2.19327 7.76888 2.32574 7.50391C3.03826 6.07897 5.8612 1.63869 5.92242 1.54688L6.03668 1.39551C6.16007 1.25237 6.30953 1.13264 6.47711 1.04297L6.64898 0.963867C6.82537 0.895791 7.01352 0.860378 7.20367 0.860352L7.39312 0.87207C7.51811 0.887538 7.64085 0.918551 7.75836 0.963867L7.93121 1.04297L8.09234 1.14258C8.19508 1.21509 8.28853 1.30027 8.37066 1.39551L8.48589 1.54688L8.9732 2.31543C9.82625 3.66962 11.5482 6.43511 12.0826 7.50391C12.2149 7.76884 12.2001 8.08398 12.0445 8.33594C11.8887 8.58781 11.6132 8.74123 11.3169 8.74121C11.1812 8.7412 11.0365 8.74122 10.8882 8.74121C11.1298 9.08501 11.375 9.4321 11.6031 9.75195C11.8731 10.1306 12.1166 10.469 12.2974 10.7217C12.3872 10.8471 12.4623 10.9527 12.5171 11.0303C12.5532 11.0812 12.6208 11.176 12.6548 11.2354C12.7886 11.4695 12.8588 11.7352 12.858 12.0049C12.8571 12.2745 12.7851 12.5392 12.65 12.7725C12.5146 13.0058 12.3202 13.2003 12.0865 13.335C11.8528 13.4696 11.5876 13.5399 11.3179 13.54C11.2664 13.5401 9.76545 13.54 8.05914 13.54V16.1367C8.72266 16.2505 9.38038 16.4138 10.025 16.6299C10.3188 16.7284 10.6075 16.8388 10.8921 16.957C12.742 15.3442 14.9604 14.2167 17.3189 13.6426V11.4834C15.8957 11.4834 14.6668 11.4833 14.6226 11.4834C14.3867 11.4839 14.1531 11.4328 13.9146 11.2959C13.6761 11.1589 13.5136 10.9824 13.3951 10.7783C13.2769 10.5745 13.2045 10.3469 13.2037 10.0723C13.203 9.79728 13.2748 9.56888 13.3921 9.36426L13.6919 8.89941C13.8576 8.64861 14.0773 8.3208 14.315 7.97656C14.4498 7.78143 14.5944 7.57358 14.7437 7.36523C14.4804 7.34562 14.2397 7.20692 14.0933 6.98438C13.9354 6.74413 13.9083 6.44082 14.022 6.17676C14.1493 5.88146 14.4105 5.43497 14.6919 4.97949C14.9847 4.5057 15.3358 3.96485 15.6724 3.45508C16.0096 2.94442 16.335 2.46009 16.5796 2.09961C16.7018 1.91956 16.8043 1.77006 16.8775 1.66309C16.9139 1.60984 16.9436 1.56653 16.9644 1.53613C16.9858 1.5049 16.9957 1.49023 16.9957 1.49023C17.125 1.29681 17.3003 1.13806 17.5054 1.02832C17.7108 0.918582 17.9406 0.860358 18.1734 0.860352L18.3472 0.871094ZM6.87359 3.24023C6.59304 3.68577 6.21721 4.28507 5.82281 4.92383C5.37979 5.64133 4.92311 6.39394 4.54839 7.03125C4.72729 7.03125 4.9235 7.03124 5.14703 7.03125C5.44327 7.03126 5.71877 7.18457 5.87457 7.43652C6.03031 7.68853 6.04409 8.00356 5.91168 8.26855C5.64335 8.80514 4.94348 9.78853 4.36187 10.582C4.05988 10.994 3.77117 11.3803 3.55523 11.668C3.5113 11.7265 3.47023 11.7807 3.43316 11.8301C4.77534 11.8302 9.66445 11.8301 10.9869 11.8301C10.9619 11.795 10.9354 11.7568 10.9068 11.7168C10.7277 11.4665 10.4816 11.1242 10.2105 10.7441C9.66956 9.98563 9.01467 9.05826 8.54937 8.36035C8.37457 8.09803 8.35767 7.76037 8.5064 7.48242C8.65516 7.20465 8.94521 7.03138 9.26031 7.03125C9.41585 7.03124 9.62459 7.03125 9.85894 7.03125C9.48423 6.39395 9.02753 5.64129 8.58453 4.92383C8.19022 4.28523 7.81524 3.68573 7.53472 3.24023C7.39969 3.02579 7.28611 2.84675 7.20367 2.7168C7.12123 2.84673 7.00856 3.02588 6.87359 3.24023ZM17.0992 4.39746C16.8193 4.8214 16.5358 5.26174 16.2857 5.66016C16.3479 5.66015 16.4155 5.66016 16.4898 5.66016C16.8282 5.66014 17.1351 5.85957 17.272 6.16895C17.4088 6.47835 17.3501 6.8395 17.1226 7.08984C16.7504 7.49888 16.2026 8.2522 15.7212 8.94922C15.508 9.25805 15.3148 9.54685 15.1646 9.77344C16.4815 9.77335 19.8189 9.77335 21.1578 9.77344C20.9671 9.50289 20.7175 9.15077 20.4586 8.78809C19.9136 8.02468 19.3586 7.25759 19.1939 7.05566C18.9853 6.79991 18.9421 6.4466 19.0836 6.14844C19.2252 5.85029 19.5259 5.66013 19.856 5.66016C19.9209 5.66016 19.9884 5.66015 20.0601 5.66016C19.8099 5.26155 19.5265 4.82058 19.2466 4.39648C18.8189 3.74818 18.4175 3.15749 18.1724 2.79785C17.9273 3.15721 17.5279 3.74815 17.0992 4.39746Z" fill="black"/>
</svg>
