<svg width="24" height="24" viewBox="0 0 24 24" fill="none" xmlns="http://www.w3.org/2000/svg">
<path fill-rule="evenodd" clip-rule="evenodd" d="M5.67151 0.597656C6.05606 0.597656 6.39337 0.854914 6.49573 1.22559L10.6549 16.2891L10.6881 16.416C10.7566 16.7144 10.7635 17.0241 10.7086 17.3262C10.6458 17.6715 10.5032 17.9975 10.2926 18.2783C10.0821 18.559 9.80953 18.7874 9.49573 18.9443C9.18177 19.1013 8.83502 19.1836 8.48401 19.1836H6.52893V22.5469C6.52893 23.019 6.14562 23.4023 5.67347 23.4023C5.20126 23.4023 4.818 23.0191 4.818 22.5469V19.1836H2.85901C2.50801 19.1836 2.16124 19.1013 1.84729 18.9443C1.53352 18.7874 1.26094 18.559 1.05042 18.2783C0.839816 17.9975 0.697196 17.6715 0.634403 17.3262C0.571672 16.981 0.589934 16.6259 0.688114 16.2891L4.84729 1.22559C4.94964 0.854938 5.28701 0.597715 5.67151 0.597656ZM2.33362 16.7559L2.32972 16.7676C2.30578 16.8497 2.30172 16.9364 2.31702 17.0205C2.33233 17.1046 2.3663 17.1845 2.41761 17.2529C2.46893 17.3214 2.53642 17.3768 2.61292 17.415C2.68932 17.4532 2.77363 17.4726 2.85901 17.4727H8.48401C8.5694 17.4727 8.65369 17.4531 8.73011 17.415C8.80663 17.3768 8.87408 17.3214 8.92542 17.2529C8.97674 17.1845 9.01069 17.1047 9.026 17.0205C9.04131 16.9363 9.03725 16.8497 9.01331 16.7676L9.0094 16.7559L5.67151 4.66504L2.33362 16.7559Z" fill="black"/>
<path fill-rule="evenodd" clip-rule="evenodd" d="M16.9235 3.41016C18.642 3.41019 20.2903 4.09338 21.5055 5.30859C22.7207 6.52382 23.4039 8.17205 23.4039 9.89062C23.4039 11.6092 22.7207 13.2574 21.5055 14.4727C20.4938 15.4844 19.1816 16.1255 17.7789 16.3125V22.5469C17.7789 23.019 17.3956 23.4023 16.9235 23.4023C16.4513 23.4023 16.068 23.0191 16.068 22.5469V16.3125C14.6653 16.1256 13.3532 15.4844 12.3414 14.4727C11.1262 13.2574 10.443 11.6092 10.443 9.89062C10.443 8.17202 11.1262 6.52383 12.3414 5.30859C13.5567 4.09339 15.2049 3.41016 16.9235 3.41016ZM16.9235 5.12109C15.6584 5.12109 14.445 5.62307 13.5504 6.51758C12.6559 7.41213 12.1539 8.62554 12.1539 9.89062C12.1539 11.1557 12.6559 12.3691 13.5504 13.2637C14.445 14.1582 15.6584 14.6602 16.9235 14.6602C18.1885 14.6601 19.402 14.1582 20.2965 13.2637C21.191 12.3691 21.693 11.1557 21.693 9.89062C21.693 8.62557 21.191 7.41212 20.2965 6.51758C19.402 5.62306 18.1885 5.12112 16.9235 5.12109Z" fill="black"/>
</svg>
