<svg width="24" height="24" viewBox="0 0 24 24" fill="none" xmlns="http://www.w3.org/2000/svg">
<path fill-rule="evenodd" clip-rule="evenodd" d="M11.5791 0.970431C11.883 0.798466 12.2681 0.827079 12.5449 1.05637L22.2744 9.11789C22.2853 9.1269 22.2962 9.13667 22.3066 9.14621C22.8377 9.63287 23.1405 10.3198 23.1406 11.0398V20.572C23.1403 21.9907 21.99 23.1412 20.5713 23.1413H3.42773C2.00931 23.1409 0.858679 21.9905 0.858398 20.572V11.0398C0.858496 10.3199 1.16178 9.63276 1.69238 9.14621L1.72461 9.11789L11.4541 1.05637L11.5791 0.970431ZM2.83789 10.4157C2.66661 10.5778 2.56943 10.8036 2.56934 11.0398V20.572C2.56962 21.0461 2.95369 21.4309 3.42773 21.4314H5.14453V12.8572C5.14467 11.9117 5.91192 11.1443 6.85742 11.1443H17.1426C18.088 11.1443 18.8553 11.9116 18.8555 12.8572V21.4314H20.5713C21.0456 21.4312 21.4304 21.0463 21.4307 20.572V11.0398C21.4306 10.8031 21.332 10.5778 21.1602 10.4157L11.999 2.82395L2.83789 10.4157ZM6.85449 16.2839L6.85547 21.4314H17.1445V16.2839H6.85449ZM6.85742 12.8552L6.85645 12.8542L6.85449 12.8562V14.573H17.1445V12.8572L17.1455 12.8562L17.1436 12.8542L6.85742 12.8552Z" fill="black"/>
</svg>
