<svg width="24" height="24" viewBox="0 0 24 24" fill="none" xmlns="http://www.w3.org/2000/svg">
<path fill-rule="evenodd" clip-rule="evenodd" d="M21.4287 1.71582C22.8475 1.71582 23.9977 2.86648 23.998 4.28516V21.4287C23.9979 21.9006 23.6155 22.283 23.1436 22.2832C22.6716 22.2831 22.2882 21.9007 22.2881 21.4287V9.42676H1.71289V21.4287C1.71274 21.9008 1.32953 22.2832 0.857422 22.2832C0.385423 22.2831 0.00210367 21.9007 0.00195312 21.4287V4.28516C0.00231085 2.8667 1.15284 1.71618 2.57129 1.71582H21.4287ZM2.57129 3.42676C2.09724 3.42712 1.71325 3.81111 1.71289 4.28516V7.71582H11.1455V6C11.1455 5.5278 11.5288 5.14453 12.001 5.14453C12.473 5.14473 12.8564 5.52792 12.8564 6V7.71582H22.2881V4.28516C22.2877 3.81089 21.9031 3.42676 21.4287 3.42676H2.57129Z" fill="black"/>
</svg>
