<svg width="24" height="24" viewBox="0 0 24 24" fill="none" xmlns="http://www.w3.org/2000/svg">
<path d="M6.97128 15.487C7.44325 15.4872 7.82668 15.8704 7.82675 16.3424C7.82675 16.8145 7.44329 17.1977 6.97128 17.1979H5.60018C5.12798 17.1979 4.74471 16.8146 4.74471 16.3424C4.74478 15.8703 5.12802 15.487 5.60018 15.487H6.97128Z" fill="black"/>
<path d="M18.4 15.487C18.8722 15.487 19.2554 15.8703 19.2555 16.3424C19.2555 16.8146 18.8722 17.1979 18.4 17.1979H17.0289C16.5567 17.1979 16.1734 16.8146 16.1734 16.3424C16.1735 15.8703 16.5568 15.487 17.0289 15.487H18.4Z" fill="black"/>
<path fill-rule="evenodd" clip-rule="evenodd" d="M16.7252 9.08756C17.1924 9.08764 17.648 9.23529 18.0269 9.50846C18.3944 9.77347 18.6717 10.1445 18.8228 10.571L19.815 13.1198L21.3473 14.651C21.764 15.0684 21.9985 15.6354 21.9986 16.2253V18.1715C21.9986 18.7619 21.7637 19.3283 21.3463 19.7458C21.1384 19.9537 20.8928 20.1154 20.6266 20.2262V20.9137C20.6266 21.5042 20.3917 22.0704 19.9742 22.4879C19.5567 22.9055 18.9905 23.1403 18.4 23.1403C17.8097 23.1402 17.2432 22.9054 16.8258 22.4879C16.4085 22.0705 16.1734 21.504 16.1734 20.9137V20.3981H7.82675V20.9137C7.82675 21.5041 7.59177 22.0704 7.1744 22.4879C6.75696 22.9054 6.19052 23.1402 5.60018 23.1403C5.00988 23.1402 4.44341 22.9053 4.02596 22.4879C3.60864 22.0704 3.37362 21.5041 3.37362 20.9137V20.2262C3.10747 20.1154 2.86266 19.9535 2.65487 19.7458C2.23751 19.3283 2.00256 18.7619 2.00253 18.1715V16.2253C2.00265 15.6352 2.23776 15.0684 2.65487 14.651L4.18026 13.1247L5.17538 10.571C5.32651 10.1444 5.60371 9.77351 5.97128 9.50846C6.35027 9.23522 6.80582 9.08767 7.27303 9.08756H16.7252ZM5.08456 20.9137C5.08456 21.0505 5.13831 21.1821 5.23495 21.279C5.33171 21.3756 5.46341 21.4302 5.60018 21.4303C5.737 21.4302 5.86866 21.3757 5.96542 21.279C6.0621 21.1821 6.11678 21.0506 6.11678 20.9137V20.3981H5.08456V20.9137ZM17.8844 20.9137C17.8844 21.0505 17.9382 21.1822 18.0348 21.279C18.1315 21.3757 18.2632 21.4302 18.4 21.4303C18.537 21.4303 18.6684 21.3758 18.7652 21.279C18.8621 21.1821 18.9166 21.0507 18.9166 20.9137V20.3981H17.8844V20.9137ZM3.86385 15.861L3.86288 15.86C3.76642 15.9568 3.71352 16.0886 3.71346 16.2253V18.1715C3.7135 18.3084 3.76718 18.44 3.86385 18.5368C3.95908 18.6319 4.08785 18.6854 4.22225 18.6872H6.97225C6.97813 18.6872 6.98398 18.688 6.98983 18.6881H17.0113C17.0172 18.688 17.023 18.6872 17.0289 18.6872H19.7779C19.9126 18.6855 20.0419 18.6321 20.1373 18.5368C20.234 18.44 20.2886 18.3084 20.2887 18.1715V16.2253L20.2789 16.1247C20.2591 16.0254 20.2098 15.9327 20.1373 15.86L18.733 14.4557H5.26913L3.86385 15.861ZM7.27303 10.7985C7.16482 10.7986 7.05907 10.8319 6.97128 10.8952C6.88342 10.9585 6.81806 11.0483 6.78378 11.151C6.77932 11.1644 6.77424 11.1779 6.76913 11.1911L6.16464 12.7448H17.8346L17.2301 11.1911C17.2249 11.1779 17.2199 11.1644 17.2154 11.151C17.1812 11.0483 17.1148 10.9585 17.0269 10.8952C16.9391 10.832 16.8334 10.7985 16.7252 10.7985H7.27303Z" fill="black"/>
<path d="M11.6373 0.940099C11.9052 0.81452 12.223 0.836073 12.4742 1.00358L22.7603 7.86002C23.1529 8.12191 23.2592 8.65278 22.9976 9.04557C22.7357 9.4384 22.204 9.54466 21.8111 9.28287L11.9996 2.74088L2.18905 9.28287C1.79621 9.54477 1.26547 9.43833 1.0035 9.04557C0.741628 8.65272 0.84705 8.12197 1.23983 7.86002L11.526 1.00358L11.6373 0.940099Z" fill="black"/>
</svg>
