<svg width="24" height="24" viewBox="0 0 24 24" fill="none" xmlns="http://www.w3.org/2000/svg">
<path d="M13.332 17.6638C13.7543 17.4528 14.2682 17.6236 14.4795 18.0456C14.6906 18.4679 14.5189 18.9819 14.0967 19.1931L12.3828 20.0505C12.1422 20.1708 11.8588 20.1707 11.6182 20.0505L9.90332 19.1931C9.48125 18.9818 9.31037 18.4679 9.52148 18.0456C9.7328 17.6236 10.2467 17.4527 10.6689 17.6638L12 18.3308L13.332 17.6638Z" fill="black"/>
<path d="M11.71 14.195C11.9287 14.1161 12.1722 14.1298 12.3828 14.2351L14.0967 15.0925C14.5189 15.3036 14.6903 15.8167 14.4795 16.239C14.2683 16.6613 13.7544 16.833 13.332 16.6218L12 15.9548L10.6689 16.6218C10.2466 16.833 9.73266 16.6613 9.52148 16.239C9.31064 15.8169 9.48144 15.3038 9.90332 15.0925L11.6182 14.2351L11.71 14.195Z" fill="black"/>
<path fill-rule="evenodd" clip-rule="evenodd" d="M11.5801 0.970435C11.884 0.798501 12.2691 0.827028 12.5459 1.05637L22.2754 9.1179C22.2862 9.12687 22.2973 9.13673 22.3076 9.14622C22.8385 9.63286 23.1415 10.3199 23.1416 11.0398V20.572C23.1413 21.9906 21.9909 23.1411 20.5723 23.1413H3.42871C2.01012 23.1411 0.859655 21.9906 0.859375 20.572V11.0398C0.859472 10.3197 1.16256 9.63278 1.69336 9.14622L1.72559 9.1179L11.4551 1.05637L11.5801 0.970435ZM2.83887 10.4157C2.6674 10.5778 2.57041 10.8035 2.57031 11.0398V20.572C2.57059 21.0462 2.9545 21.4311 3.42871 21.4314H5.14453V12.8572C5.14467 11.9118 5.91203 11.1444 6.85742 11.1443H17.1426C18.088 11.1443 18.8553 11.9116 18.8555 12.8572V21.4314H20.5723C21.0464 21.4311 21.4314 21.0462 21.4316 20.572V11.0398C21.4315 10.8032 21.3328 10.5778 21.1611 10.4157L12 2.82395L2.83887 10.4157ZM6.85742 12.8552L6.85645 12.8542L6.85449 12.8562L6.85547 21.4314H17.1445V12.8572L17.1455 12.8562L17.1436 12.8542L6.85742 12.8552Z" fill="black"/>
</svg>
