<svg width="24" height="24" viewBox="0 0 24 24" fill="none" xmlns="http://www.w3.org/2000/svg">
<path d="M13.3311 17.6638C13.7533 17.4527 14.2672 17.6236 14.4785 18.0457C14.6897 18.468 14.5181 18.9819 14.0957 19.1931L12.3818 20.0505C12.1412 20.1707 11.8578 20.1708 11.6172 20.0505L9.90234 19.1931C9.48045 18.9818 9.3095 18.4678 9.52051 18.0457C9.73177 17.6236 10.2458 17.4529 10.668 17.6638L11.999 18.3308L13.3311 17.6638Z" fill="black"/>
<path fill-rule="evenodd" clip-rule="evenodd" d="M11.5791 0.970455C11.8831 0.798475 12.2681 0.827047 12.5449 1.05639L22.2744 9.11792C22.2853 9.12694 22.2962 9.13668 22.3066 9.14624C22.8377 9.6329 23.1405 10.3198 23.1406 11.0398V20.572C23.1403 21.9907 21.99 23.1412 20.5713 23.1414H3.42773C2.00925 23.141 0.858679 21.9906 0.858398 20.572V11.0398C0.858496 10.3198 1.16174 9.63279 1.69238 9.14624L1.72461 9.11792L11.4541 1.05639L11.5791 0.970455ZM2.83789 10.4158C2.66657 10.5778 2.56943 10.8036 2.56934 11.0398V20.572C2.56962 21.0461 2.95364 21.431 3.42773 21.4314H5.14453V12.8572C5.14467 11.9117 5.91192 11.1443 6.85742 11.1443H17.1426C18.0879 11.1444 18.8553 11.9117 18.8555 12.8572V21.4314H20.5713C21.0456 21.4312 21.4304 21.0463 21.4307 20.572V11.0398C21.4306 10.8031 21.332 10.5778 21.1602 10.4158L11.999 2.82397L2.83789 10.4158ZM6.85547 21.4314H17.1445V16.2839H6.85449L6.85547 21.4314ZM6.85742 12.8552L6.85645 12.8542L6.85449 12.8562V14.573H17.1445V12.8572L17.1455 12.8562L17.1436 12.8542L6.85742 12.8552Z" fill="black"/>
</svg>
