<svg width="24" height="24" viewBox="0 0 24 24" fill="none" xmlns="http://www.w3.org/2000/svg">
<path fill-rule="evenodd" clip-rule="evenodd" d="M21.4277 1.71582C22.8464 1.71595 23.9967 2.86657 23.9971 4.28516V21.4287L23.9922 21.5156C23.9864 21.5732 23.9747 21.629 23.958 21.6826C23.9414 21.7362 23.9199 21.7875 23.8936 21.8359C23.8409 21.9329 23.77 22.0182 23.6855 22.0879C23.6434 22.1228 23.5982 22.1543 23.5498 22.1807C23.5255 22.1939 23.5003 22.2059 23.4746 22.2168C23.3726 22.26 23.2603 22.2841 23.1426 22.2842H0.856445C0.738449 22.2842 0.625734 22.2601 0.523438 22.2168C0.497726 22.2059 0.472599 22.1939 0.448242 22.1807C0.399989 22.1544 0.354583 22.1236 0.3125 22.0889C0.122136 21.9322 0.00106132 21.6944 0.000976562 21.4287V4.28516C0.00133437 2.86662 1.15175 1.71605 2.57031 1.71582H21.4277ZM1.71191 20.5732H11.1436V18.8574C11.1436 18.3853 11.5269 18.0021 11.999 18.002C12.4712 18.002 12.8545 18.3852 12.8545 18.8574V20.5732H22.2871V15.4268H1.71191V20.5732ZM1.71191 13.7158H22.2871V9.42676H1.71191V13.7158ZM2.57031 3.42676C2.09616 3.42698 1.71227 3.81103 1.71191 4.28516V7.71582H22.2871V4.28516C22.2868 3.81097 21.902 3.42689 21.4277 3.42676H2.57031Z" fill="black"/>
</svg>
