<svg width="24" height="24" viewBox="0 0 24 24" fill="none" xmlns="http://www.w3.org/2000/svg">
<path fill-rule="evenodd" clip-rule="evenodd" d="M0.856445 1.71582C1.32857 1.71582 1.71178 2.0992 1.71191 2.57129V3.43066H8.57031C9.9888 3.43066 11.1404 4.58087 11.1406 6V18C11.1404 19.4186 9.98991 20.5691 8.57129 20.5693H1.71191V21.4287C1.71176 21.9008 1.32856 22.2832 0.856445 22.2832C0.384391 22.2831 0.00112693 21.9007 0.000976562 21.4287V2.57129C0.00110861 2.09924 0.384379 1.71589 0.856445 1.71582ZM1.71191 18.8594H8.57129C9.0455 18.8591 9.42942 18.4742 9.42969 18V12.8555H8.57129C8.09909 12.8555 7.71582 12.4722 7.71582 12C7.71582 11.5278 8.09909 11.1445 8.57129 11.1445H9.42969V6C9.42946 5.52597 9.04509 5.1416 8.57031 5.1416H1.71191V18.8594Z" fill="black"/>
<path fill-rule="evenodd" clip-rule="evenodd" d="M23.1426 1.71582C23.6146 1.71595 23.9979 2.09928 23.998 2.57129V21.4287C23.9979 21.9007 23.6146 22.2831 23.1426 22.2832C22.6705 22.2832 22.2873 21.9008 22.2871 21.4287V20.5693H15.4287C14.0102 20.5693 12.8587 19.4191 12.8584 18V6C12.8586 4.58135 14.0091 3.43089 15.4277 3.43066H22.2871V2.57129C22.2872 2.0992 22.6705 1.71582 23.1426 1.71582ZM15.4277 5.1416C14.9535 5.14183 14.5696 5.52576 14.5693 6V11.1445H15.4277C15.8999 11.1446 16.2832 11.5278 16.2832 12C16.2832 12.4722 15.8999 12.8554 15.4277 12.8555H14.5693V18C14.5696 18.474 14.954 18.8594 15.4287 18.8594H22.2871V5.1416H15.4277Z" fill="black"/>
</svg>
