<svg width="24" height="24" viewBox="0 0 24 24" fill="none" xmlns="http://www.w3.org/2000/svg">
<path d="M0.858398 1.71582C1.3303 1.71608 1.71374 2.09936 1.71387 2.57129V21.4287C1.71372 21.9006 1.33028 22.2829 0.858398 22.2832C0.386288 22.2832 0.00210351 21.9008 0.00195312 21.4287V2.57129C0.00208513 2.0992 0.386276 1.71582 0.858398 1.71582Z" fill="black"/>
<path fill-rule="evenodd" clip-rule="evenodd" d="M23.1436 1.71582C23.6157 1.71582 23.9989 2.0992 23.999 2.57129V21.4287C23.9989 21.9008 23.6157 22.2832 23.1436 22.2832C22.6716 22.2831 22.2882 21.9007 22.2881 21.4287V20.5693H6.00098C4.58237 20.5691 3.43288 19.4186 3.43262 18L3.43164 6C3.43187 4.58136 4.58233 3.43089 6.00098 3.43066H22.2881V2.57129C22.2882 2.09928 22.6715 1.71595 23.1436 1.71582ZM6.00098 5.1416C5.52674 5.14183 5.14281 5.52576 5.14258 6V11.1445H6.8584C7.33036 11.1448 7.71289 11.528 7.71289 12C7.71289 12.472 7.33036 12.8552 6.8584 12.8555H5.14258V18C5.14284 18.4742 5.52677 18.8591 6.00098 18.8594H22.2881V5.1416H6.00098Z" fill="black"/>
</svg>
