<svg width="24" height="24" viewBox="0 0 24 24" fill="none" xmlns="http://www.w3.org/2000/svg">
<path fill-rule="evenodd" clip-rule="evenodd" d="M0.857422 1.7168C1.32953 1.7168 1.71274 2.09921 1.71289 2.57129V3.43066H4.28613C5.7049 3.43075 6.85524 4.58127 6.85547 6V18C6.8552 19.4187 5.70488 20.5693 4.28613 20.5693H1.71289V21.4287C1.71276 21.9008 1.32954 22.2842 0.857422 22.2842C0.3853 22.2842 0.0020852 21.9008 0.00195312 21.4287V2.57129C0.00210351 2.09921 0.385311 1.7168 0.857422 1.7168ZM1.71289 18.8594H4.28613C4.76048 18.8593 5.14524 18.4743 5.14551 18V12.8555H3.42871C2.95662 12.8553 2.57324 12.4721 2.57324 12C2.57324 11.5279 2.95662 11.1447 3.42871 11.1445H5.14551V6C5.14528 5.52568 4.76049 5.14169 4.28613 5.1416H1.71289V18.8594Z" fill="black"/>
<path d="M23.1436 1.7168C23.6154 1.71706 23.9989 2.09938 23.999 2.57129V21.4287C23.9989 21.9006 23.6155 22.2839 23.1436 22.2842C22.6714 22.2842 22.2882 21.9008 22.2881 21.4287V2.57129C22.2882 2.09921 22.6714 1.7168 23.1436 1.7168Z" fill="black"/>
</svg>
