<svg width="24" height="24" viewBox="0 0 24 24" fill="none" xmlns="http://www.w3.org/2000/svg">
<path fill-rule="evenodd" clip-rule="evenodd" d="M12.3105 0.00585938C18.7934 0.170327 23.9989 5.47756 23.999 12C23.9989 18.626 18.6269 23.9978 12.001 23.998C5.37495 23.9979 0.00208507 18.626 0.00195312 12C0.00210413 5.37399 5.37496 0.00210413 12.001 0.00195312L12.3105 0.00585938ZM8.58496 12.8555C8.66474 15.5067 9.10952 17.8587 9.76855 19.5723C10.1342 20.523 10.5482 21.2342 10.9648 21.6924C11.3812 22.1502 11.733 22.288 12.001 22.2881C12.2688 22.2879 12.62 22.1498 13.0361 21.6924C13.4528 21.2342 13.8677 20.5229 14.2334 19.5723C14.8924 17.8587 15.3382 15.5066 15.418 12.8555H8.58496ZM1.75195 12.8555C2.10161 17.1009 5.02544 20.6156 8.96191 21.8311C8.66749 21.3413 8.40298 20.7874 8.17188 20.1865C7.42483 18.2442 6.95312 15.6757 6.87305 12.8555H1.75195ZM17.1279 12.8555C17.0479 15.6757 16.5761 18.2442 15.8291 20.1865C15.5981 20.7872 15.3331 21.3404 15.0391 21.8301C18.9757 20.6146 21.9003 17.1009 22.25 12.8555H17.1279ZM8.96289 2.16797C5.02571 3.38296 2.10157 6.89858 1.75195 11.1445H6.87305C6.95311 8.3246 7.42495 5.75674 8.17188 3.81445C8.40323 3.21292 8.66808 2.65811 8.96289 2.16797ZM12.001 1.71289C11.733 1.71297 11.3812 1.85076 10.9648 2.30859C10.5484 2.76676 10.1341 3.47749 9.76855 4.42773C9.10954 6.14131 8.66472 8.4933 8.58496 11.1445H15.418C15.3382 8.49321 14.8924 6.14132 14.2334 4.42773C13.8678 3.47714 13.4527 2.7668 13.0361 2.30859C12.6199 1.85086 12.2689 1.71303 12.001 1.71289ZM15.0381 2.16895C15.3326 2.65907 15.5978 3.21313 15.8291 3.81445C16.5761 5.75676 17.0479 8.32451 17.1279 11.1445H22.25C21.9003 6.89856 18.9754 3.38392 15.0381 2.16895Z" fill="black"/>
</svg>
