<svg width="24" height="24" viewBox="0 0 24 24" fill="none" xmlns="http://www.w3.org/2000/svg">
<path d="M8.57227 12.8594C9.04424 12.8596 9.42773 13.2428 9.42773 13.7148V18.8574C9.42747 19.3292 9.04408 19.7126 8.57227 19.7129C8.10023 19.7129 7.71706 19.3294 7.7168 18.8574V13.7148C7.7168 13.2426 8.10006 12.8594 8.57227 12.8594Z" fill="black"/>
<path d="M5.14355 14.5732C5.61553 14.5735 5.99902 14.9567 5.99902 15.4287V18.8574C5.99882 19.3293 5.61541 19.7117 5.14355 19.7119C4.67148 19.7119 4.28829 19.3294 4.28809 18.8574V15.4287C4.28809 14.9565 4.67135 14.5732 5.14355 14.5732Z" fill="black"/>
<path d="M12 10.2871C12.4721 10.2871 12.8553 10.6705 12.8555 11.1426V18.8564C12.8555 19.3286 12.4722 19.7119 12 19.7119C11.5279 19.7118 11.1445 19.3286 11.1445 18.8564V11.1426C11.1447 10.6706 11.528 10.2872 12 10.2871Z" fill="black"/>
<path d="M15.4287 13.7158C15.9008 13.7158 16.284 14.0992 16.2842 14.5713V18.8574C16.284 19.3294 15.9008 19.7119 15.4287 19.7119C14.9568 19.7118 14.5735 19.3294 14.5732 18.8574V14.5713C14.5734 14.0993 14.9567 13.716 15.4287 13.7158Z" fill="black"/>
<path d="M18.8574 7.71582C19.3295 7.71582 19.7128 8.0992 19.7129 8.57129V18.8574C19.7127 19.3294 19.3295 19.7119 18.8574 19.7119C18.3854 19.7119 18.0022 19.3294 18.002 18.8574V8.57129C18.0021 8.0992 18.3853 7.71582 18.8574 7.71582Z" fill="black"/>
<path fill-rule="evenodd" clip-rule="evenodd" d="M20.7041 0.858398C22.0498 0.858685 23.1414 1.95106 23.1416 3.29688V20.7041C23.1412 22.0497 22.0497 23.1413 20.7041 23.1416H3.29688C1.95114 23.1414 0.859794 22.0497 0.859375 20.7041V3.29688C0.859587 1.95104 1.95104 0.85861 3.29688 0.858398H20.7041ZM3.29688 2.57031C2.89545 2.57052 2.57052 2.89545 2.57031 3.29688V20.7041C2.57073 21.1054 2.8956 21.4314 3.29688 21.4316H20.7041C21.1053 21.4314 21.4312 21.1053 21.4316 20.7041V3.29688C21.4314 2.89552 21.1055 2.5706 20.7041 2.57031H3.29688Z" fill="black"/>
</svg>
