<svg width="24" height="24" viewBox="0 0 24 24" fill="none" xmlns="http://www.w3.org/2000/svg">
<path fill-rule="evenodd" clip-rule="evenodd" d="M17.5786 8.17459C17.87 8.17472 18.1586 8.23915 18.4223 8.36307C18.6859 8.48699 18.9189 8.66728 19.1049 8.89139C19.291 9.11569 19.4254 9.37882 19.4985 9.66092C19.5715 9.94289 19.5824 10.2379 19.5288 10.5242C19.5269 10.5342 19.5242 10.5445 19.5219 10.5545C19.1728 12.0989 18.3557 13.4927 17.1899 14.5525L19.1235 19.8269C19.1387 19.8614 19.1519 19.8968 19.1625 19.9334L20.2319 22.8494C20.394 23.2926 20.1662 23.7836 19.7231 23.9461C19.2799 24.1082 18.789 23.8803 18.6264 23.4373L17.7426 21.0271H6.25825L5.37446 23.4373C5.21178 23.8802 4.7209 24.1084 4.27778 23.9461C3.83478 23.7836 3.60697 23.2925 3.76899 22.8494L6.81587 14.5359C5.66001 13.4782 4.84964 12.0906 4.50239 10.5545C4.50081 10.5475 4.49892 10.5401 4.49751 10.533C4.44006 10.2438 4.44893 9.94466 4.52192 9.65897C4.59498 9.37347 4.7313 9.10768 4.92036 8.88163C5.10963 8.6555 5.34735 8.47365 5.61567 8.35135C5.8791 8.23138 6.1662 8.17249 6.45551 8.17557L17.5786 8.17459ZM6.8852 19.3162H17.1157L15.7485 15.5877C14.6114 16.2188 13.3266 16.5564 12.0122 16.5564C10.6901 16.5564 9.39816 16.2152 8.25629 15.5769L6.8852 19.3162ZM6.43891 9.88455C6.39964 9.8839 6.3604 9.89171 6.32465 9.90799C6.28908 9.92428 6.25706 9.94836 6.23188 9.9783C6.20673 10.0085 6.18791 10.0447 6.17817 10.0828C6.16889 10.1194 6.16758 10.158 6.17426 10.1951C6.47638 11.5135 7.21608 12.6912 8.2729 13.5359C9.3344 14.3843 10.6533 14.8464 12.0122 14.8465C13.371 14.8465 14.6899 14.3841 15.7514 13.5359C16.8073 12.6919 17.5455 11.5151 17.8481 10.198C17.8534 10.1619 17.8523 10.125 17.8432 10.0896C17.8331 10.0507 17.8151 10.0141 17.7895 9.98319C17.7638 9.95219 17.7312 9.92707 17.6948 9.90995C17.6767 9.90146 17.6575 9.89476 17.6381 9.89041L17.5786 9.88455H6.43891Z" fill="black"/>
<path d="M5.71528 0.17557C6.09192 -0.108984 6.6288 -0.0349832 6.91352 0.341586L7.52485 1.15116L7.65766 1.34256C7.94319 1.80259 8.06796 2.34781 8.00825 2.89041C7.93994 3.51028 7.63544 4.08028 7.15864 4.48221L7.15376 4.48612C7.07466 4.55186 7.01058 4.63402 6.96528 4.72635C6.91997 4.81886 6.89452 4.92028 6.89106 5.02323C6.88763 5.12615 6.90576 5.22871 6.94477 5.32401C6.98379 5.4193 7.04302 5.50499 7.11762 5.57596C7.45954 5.90128 7.47293 6.4428 7.1479 6.78495C6.82254 7.12707 6.2811 7.14047 5.93891 6.81522C5.68941 6.57789 5.4932 6.29015 5.36274 5.97147C5.23228 5.65272 5.17055 5.30983 5.18208 4.96561C5.19364 4.6215 5.27772 4.28361 5.42915 3.9744C5.58066 3.66513 5.79611 3.39079 6.06098 3.17069C6.1996 3.05183 6.28805 2.88457 6.30805 2.70291C6.32821 2.51945 6.27724 2.33514 6.16547 2.18827L6.16352 2.18534L5.54926 1.37284C5.26455 0.996274 5.33887 0.460415 5.71528 0.17557Z" fill="black"/>
<path d="M11.2895 0.17557C11.6661 -0.109163 12.2029 -0.0348762 12.4877 0.341586L13.0991 1.15116L13.2319 1.34256C13.5175 1.80264 13.6422 2.34774 13.5825 2.89041C13.5141 3.51039 13.2098 4.08027 12.7329 4.48221C12.6558 4.54914 12.5926 4.63138 12.5483 4.72342C12.5033 4.81707 12.4786 4.91938 12.475 5.02323C12.4716 5.12719 12.49 5.23137 12.5288 5.32791C12.5675 5.4243 12.6264 5.51211 12.7006 5.58475C13.0379 5.91483 13.0441 6.45618 12.7143 6.79373C12.3842 7.13125 11.842 7.13745 11.5043 6.80741C11.2603 6.56877 11.069 6.28136 10.9418 5.96463C10.8147 5.64783 10.7547 5.30775 10.7661 4.96659C10.7775 4.62534 10.8602 4.28989 11.0082 3.98221C11.1563 3.67452 11.3668 3.40036 11.6264 3.1785L11.6313 3.17459C11.7725 3.05551 11.8621 2.88651 11.8823 2.70291C11.9025 2.51937 11.8515 2.33518 11.7397 2.18827L11.7377 2.18534L11.1235 1.37284C10.839 0.996355 10.9133 0.460399 11.2895 0.17557Z" fill="black"/>
<path d="M16.4897 0.17557C16.8663 -0.109192 17.4031 -0.0349787 17.6879 0.341586L18.2993 1.15116L18.4321 1.34256C18.7177 1.80263 18.8424 2.34775 18.7827 2.89041C18.7143 3.51039 18.41 4.08027 17.9331 4.48221C17.8559 4.54917 17.7928 4.63133 17.7485 4.72342C17.7034 4.81709 17.6788 4.91934 17.6752 5.02323C17.6718 5.12722 17.6902 5.23134 17.729 5.32791C17.7677 5.42435 17.8265 5.51208 17.9008 5.58475C18.2381 5.91483 18.2443 6.45618 17.9145 6.79373C17.5844 7.13137 17.0422 7.13749 16.7045 6.80741C16.4605 6.56875 16.2692 6.28141 16.142 5.96463C16.0149 5.6478 15.9549 5.30778 15.9663 4.96659C15.9777 4.62531 16.0604 4.28991 16.2084 3.98221C16.3566 3.67447 16.567 3.40038 16.8266 3.1785L16.8315 3.17459C16.9727 3.05551 17.0623 2.88651 17.0825 2.70291C17.1026 2.51938 17.0517 2.33517 16.9399 2.18827L16.9379 2.18534L16.3237 1.37284C16.0391 0.996297 16.1134 0.460398 16.4897 0.17557Z" fill="black"/>
</svg>
