<svg width="24" height="24" viewBox="0 0 24 24" fill="none" xmlns="http://www.w3.org/2000/svg">
<path fill-rule="evenodd" clip-rule="evenodd" d="M15.4277 3.43066C16.3364 3.43066 17.208 3.79208 17.8506 4.43457C18.4931 5.07711 18.8545 5.94878 18.8545 6.85742C18.8544 7.76599 18.4931 8.63781 17.8506 9.28027C17.208 9.92262 16.3363 10.2842 15.4277 10.2842C14.5192 10.2841 13.6474 9.92269 13.0049 9.28027C12.3625 8.63782 12.0011 7.76593 12.001 6.85742C12.001 5.9489 12.3626 5.07708 13.0049 4.43457C13.6474 3.79208 14.5191 3.43077 15.4277 3.43066ZM15.4277 5.1416C14.9726 5.1417 14.5357 5.32175 14.2139 5.64355C13.8922 5.96538 13.712 6.40242 13.7119 6.85742C13.712 7.31241 13.8922 7.74953 14.2139 8.07129C14.5357 8.39301 14.9727 8.57412 15.4277 8.57422C15.8828 8.57422 16.3197 8.39295 16.6416 8.07129C16.9634 7.74951 17.1444 7.31247 17.1445 6.85742C17.1445 6.4023 16.9634 5.9654 16.6416 5.64355C16.3197 5.32175 15.8829 5.1416 15.4277 5.1416Z" fill="black"/>
<path fill-rule="evenodd" clip-rule="evenodd" d="M15.8574 0.00195312C19.6429 0.00244313 22.7119 3.07181 22.7119 6.85742C22.7119 8.1639 22.3453 9.38469 21.7109 10.4238C21.6994 10.4696 21.6847 10.5158 21.665 10.5605L17.4961 20.0576C17.3597 20.368 17.0529 20.5692 16.7139 20.5693H15.5752C15.9279 21.5697 16.8789 22.2881 18 22.2881H21.4287C21.9005 22.2885 22.2832 22.6716 22.2832 23.1436C22.2829 23.6152 21.9003 23.9976 21.4287 23.998H18C15.9271 23.998 14.1971 22.5254 13.8008 20.5693H12.8564C12.3846 20.5692 12.0014 20.1866 12.001 19.7148V13.2568L2.38574 11.1211C1.99467 11.0342 1.71502 10.6867 1.71484 10.2861V3.42871C1.71491 3.02803 1.99459 2.68067 2.38574 2.59375L12.2842 0.394531C13.4571 0.133943 14.6559 0.00195312 15.8574 0.00195312ZM18.6816 13.1025C17.8202 13.4929 16.8647 13.7128 15.8574 13.7129C15.1396 13.7129 14.4227 13.6638 13.7119 13.5703V18.8594H16.1553L18.6816 13.1025ZM15.8574 1.71289C14.7805 1.71289 13.7056 1.82989 12.6543 2.06348L3.42676 4.11426V9.59961L12.6543 11.6514C13.7055 11.8849 14.7805 12.002 15.8574 12.002C18.6984 12.0015 21.0018 9.69852 21.002 6.85742C21.002 4.01621 18.6985 1.71338 15.8574 1.71289Z" fill="black"/>
</svg>
