<svg width="24" height="24" viewBox="0 0 24 24" fill="none" xmlns="http://www.w3.org/2000/svg">
<path fill-rule="evenodd" clip-rule="evenodd" d="M22.5396 0.252531C22.8735 -0.0810762 23.4148 -0.0811462 23.7486 0.252531C24.0824 0.586353 24.0823 1.12762 23.7486 1.46152L18.857 6.35312V17.6461L23.7486 22.5377C24.0824 22.8715 24.0822 23.4127 23.7486 23.7467C23.4147 24.0806 22.8735 24.0806 22.5396 23.7467L17.648 18.8551H6.35409L1.46249 23.7467C1.12859 24.0806 0.587406 24.0806 0.253508 23.7467C-0.0799496 23.4127 -0.0802435 22.8714 0.253508 22.5377L5.14609 17.6451V6.35409L0.253508 1.46152C-0.080211 1.1276 -0.0803306 0.58637 0.253508 0.252531C0.587346 -0.0813072 1.12858 -0.0811875 1.46249 0.252531L6.35409 5.14413H17.648L22.5396 0.252531ZM6.85702 17.1441H8.57382V9.42831C8.57392 8.95633 8.95734 8.57307 9.42929 8.57284H14.5719C15.044 8.57284 15.4272 8.95619 15.4273 9.42831V17.1441H17.1461V6.85507H6.85702V17.1441ZM10.2848 17.1441H13.7174V14.5699H12.858C12.3859 14.5698 12.0026 14.1866 12.0025 13.7144C12.0025 13.2423 12.3859 12.8591 12.858 12.859H13.7174V10.2838H10.2848V17.1441Z" fill="black"/>
</svg>
