<svg width="24" height="24" viewBox="0 0 24 24" fill="none" xmlns="http://www.w3.org/2000/svg">
<path d="M18.002 10.2871C18.474 10.2872 18.8573 10.6706 18.8574 11.1426C18.8574 11.6147 18.474 11.9979 18.002 11.998H6.00195C5.52975 11.998 5.14648 11.6148 5.14648 11.1426C5.14662 10.6705 5.52983 10.2871 6.00195 10.2871H18.002Z" fill="black"/>
<path fill-rule="evenodd" clip-rule="evenodd" d="M21.4307 6.8584C22.8493 6.85866 23.9998 8.01009 24 9.42871V12.8574C23.9997 14.276 22.8493 15.4265 21.4307 15.4268H20.4268C20.1989 15.4268 19.9805 15.5177 19.8193 15.6787L19.1094 16.3887C18.6277 16.8704 17.9732 17.1415 17.292 17.1416H6.71191C6.03087 17.1415 5.3772 16.8701 4.89551 16.3887L4.18555 15.6787C4.02458 15.5177 3.80575 15.427 3.57812 15.4268H2.57324C1.15462 15.4265 0.00319357 14.276 0.00292969 12.8574V9.42871C0.00315573 8.01007 1.1546 6.85862 2.57324 6.8584H21.4307ZM2.57324 8.57031C2.099 8.57054 1.71507 8.95447 1.71484 9.42871V12.8574C1.71511 13.3316 2.09903 13.7166 2.57324 13.7168H3.57812C4.25927 13.717 4.91287 13.9881 5.39453 14.4697L6.10449 15.1797C6.2655 15.3404 6.48439 15.4315 6.71191 15.4316H17.292C17.5196 15.4315 17.7384 15.3406 17.8994 15.1797L18.6094 14.4697C19.0912 13.9879 19.7453 13.7168 20.4268 13.7168H21.4307C21.9048 13.7165 22.2898 13.3316 22.29 12.8574V9.42871C22.2898 8.9545 21.9049 8.57058 21.4307 8.57031H2.57324Z" fill="black"/>
</svg>
