<svg width="24" height="24" viewBox="0 0 24 24" fill="none" xmlns="http://www.w3.org/2000/svg">
<path fill-rule="evenodd" clip-rule="evenodd" d="M10.5146 5.74902C10.8473 5.55894 11.2747 5.53987 11.6279 5.70312C15.0795 7.29908 17.1222 10.5873 17.1299 13.4785L17.124 13.7568C17.0691 15.0046 16.6203 16.1856 15.7266 17.0566C14.8295 17.9308 13.5601 18.419 12.0049 18.4209C9.32671 18.5683 6.9761 16.4392 6.86719 13.7539V13.7412C6.82787 12.1974 7.66652 10.7303 9.0166 9.98047L9.09668 9.94043C9.28833 9.85896 9.50477 9.84997 9.7041 9.91699C9.93178 9.99366 10.117 10.163 10.2139 10.3828C10.3247 10.6342 10.4628 10.8718 10.623 11.0928C10.7901 10.7134 10.8766 10.2706 10.873 9.7793C10.8667 8.92509 10.5957 7.99383 10.1357 7.19727C10.0128 6.98426 9.93021 6.68631 10.0244 6.3623C10.1156 6.04898 10.3313 5.85384 10.5146 5.74902ZM12.3447 8.09961C12.4932 8.64764 12.5789 9.21166 12.583 9.76758C12.5916 10.9525 12.237 12.1677 11.3037 13.0566C10.9884 13.3569 10.4975 13.3716 10.1641 13.0918C9.79003 12.7775 9.46079 12.4154 9.18262 12.0176C8.78941 12.4749 8.56396 13.072 8.57617 13.6846L8.58691 13.8477C8.74424 15.5121 10.2563 16.8218 11.9404 16.7129C11.9588 16.7117 11.9777 16.7119 11.9961 16.7119C13.1891 16.7118 14.0066 16.3452 14.5332 15.832C15.0648 15.314 15.3768 14.5708 15.416 13.6816C15.4935 11.8841 14.4246 9.61904 12.3447 8.09961Z" fill="black"/>
<path fill-rule="evenodd" clip-rule="evenodd" d="M11.999 0.00195312C18.6252 0.00195312 23.9969 5.37389 23.9971 12C23.9969 18.6261 18.6252 23.998 11.999 23.998C5.37311 23.9978 0.00110851 18.6259 0.000976562 12C0.00112757 5.37407 5.37312 0.00223608 11.999 0.00195312ZM11.999 1.71289C6.31753 1.71317 1.71207 6.31848 1.71191 12C1.71205 17.6815 6.31752 22.2878 11.999 22.2881C17.6808 22.2881 22.287 17.6817 22.2871 12C22.287 6.3183 17.6808 1.71289 11.999 1.71289Z" fill="black"/>
</svg>
