<svg width="24" height="24" viewBox="0 0 24 24" fill="none" xmlns="http://www.w3.org/2000/svg">
<path fill-rule="evenodd" clip-rule="evenodd" d="M9.4707 10.5928C10.4328 9.76818 11.8523 9.76833 12.8145 10.5928L17.1006 14.2656C17.67 14.7537 17.998 15.4669 17.998 16.2168V21.4287C17.9979 22.8474 16.8474 23.9978 15.4287 23.998H6.85645C5.43788 23.9977 4.28728 22.8473 4.28711 21.4287V16.2168C4.2872 15.4669 4.61519 14.7537 5.18457 14.2656L9.4707 10.5928ZM11.7021 11.8906C11.3804 11.615 10.9047 11.6149 10.583 11.8906L6.29785 15.5645C6.10748 15.7276 5.99814 15.9661 5.99805 16.2168V21.4287C5.99822 21.9029 6.38228 22.2877 6.85645 22.2881H10.2871V18C10.2871 17.5279 10.6705 17.1447 11.1426 17.1445C11.6148 17.1445 11.998 17.5278 11.998 18V22.2881H15.4287C15.903 22.2879 16.2869 21.903 16.2871 21.4287V16.2168C16.287 15.9661 16.1777 15.7276 15.9873 15.5645L11.7021 11.8906Z" fill="black"/>
<path d="M20.4375 11.8477C20.9097 11.8477 21.293 12.2309 21.293 12.7031C21.293 13.1753 20.9097 13.5586 20.4375 13.5586H18.3281C17.8559 13.5586 17.4727 13.1753 17.4727 12.7031C17.4727 12.2309 17.8559 11.8477 18.3281 11.8477H20.4375Z" fill="black"/>
<path d="M21.8438 9.03516C22.316 9.03516 22.6992 9.41842 22.6992 9.89062C22.6992 10.3628 22.316 10.7461 21.8438 10.7461H17.625C17.1528 10.7461 16.7695 10.3628 16.7695 9.89062C16.7695 9.41842 17.1528 9.03516 17.625 9.03516H21.8438Z" fill="black"/>
<path d="M20.4375 6.22266C20.9097 6.22266 21.293 6.60592 21.293 7.07812C21.293 7.55033 20.9097 7.93359 20.4375 7.93359H14.8125C14.3403 7.93359 13.957 7.55033 13.957 7.07812C13.957 6.60592 14.3403 6.22266 14.8125 6.22266H20.4375Z" fill="black"/>
<path d="M19.7344 3.41016C20.2066 3.41016 20.5898 3.79342 20.5898 4.26562C20.5898 4.73783 20.2066 5.12109 19.7344 5.12109H10.5938C10.1215 5.12109 9.73828 4.73783 9.73828 4.26562C9.73828 3.79342 10.1215 3.41016 10.5938 3.41016H19.7344Z" fill="black"/>
<path d="M21.8438 0.597656C22.316 0.597656 22.6992 0.980922 22.6992 1.45312C22.6992 1.92533 22.316 2.30859 21.8438 2.30859H12.7031C12.2309 2.30859 11.8477 1.92533 11.8477 1.45312C11.8477 0.980922 12.2309 0.597656 12.7031 0.597656H21.8438Z" fill="black"/>
</svg>
