<svg width="24" height="24" viewBox="0 0 24 24" fill="none" xmlns="http://www.w3.org/2000/svg">
<path fill-rule="evenodd" clip-rule="evenodd" d="M7.69119 3.62152C7.88046 3.18923 8.38474 2.99222 8.81717 3.18109L17.4803 6.97015V4.59417C17.4804 4.12212 17.8636 3.7387 18.3357 3.7387H21.1433C21.6152 3.73895 21.9986 4.12227 21.9988 4.59417V8.94574L22.8875 9.33538C23.3198 9.52466 23.5168 10.0289 23.3279 10.4614C23.1387 10.8939 22.6345 11.0917 22.2019 10.9028L21.9969 10.8129V19.1801H22.5486C23.0206 19.1803 23.4031 19.5635 23.4031 20.0356C23.403 20.5076 23.0206 20.8908 22.5486 20.891H1.49002C1.01805 20.8908 0.634638 20.5076 0.634549 20.0356C0.634549 19.5635 1.018 19.1803 1.49002 19.1801H2.03787V11.9535L1.62185 12.0375C1.15894 12.1301 0.707797 11.8304 0.615018 11.3676C0.522428 10.9047 0.823007 10.4535 1.28592 10.3608L9.05545 8.80609V5.15081L8.13162 4.74749C7.69941 4.55805 7.50203 4.05394 7.69119 3.62152ZM3.74881 11.6118V19.1801H9.05545V10.5502L3.74881 11.6118ZM10.7664 9.46917C10.7673 9.48915 10.7678 9.50897 10.7674 9.52874V19.1801H11.865V15.8237C11.8651 15.224 12.1042 14.649 12.5281 14.225C12.9522 13.8011 13.5272 13.5619 14.1267 13.5619H16.9392C17.5389 13.562 18.1138 13.801 18.5379 14.225C18.9619 14.6491 19.2009 15.2242 19.201 15.8237V15.8256L19.1931 19.1801H20.2869V10.0659L10.7664 5.90081V9.46917ZM14.1267 15.2729C13.9806 15.2729 13.8404 15.3308 13.7371 15.434C13.6338 15.5374 13.576 15.6777 13.576 15.8237V19.1801H17.4832L17.49 15.8237C17.4899 15.6775 17.4321 15.5373 17.3289 15.434C17.2256 15.3308 17.0855 15.2729 16.9392 15.2729H14.1267ZM19.1912 7.7182L20.2888 8.19867V5.44964H19.1912V7.7182Z" fill="black"/>
</svg>
