<svg width="24" height="24" viewBox="0 0 24 24" fill="none" xmlns="http://www.w3.org/2000/svg">
<path d="M15.2539 15.2525C15.5878 14.9188 16.1291 14.9187 16.4629 15.2525L19.501 18.2906L22.54 15.2603C22.8743 14.927 23.4156 14.928 23.749 15.2623C24.0824 15.5965 24.0821 16.1377 23.748 16.4712L20.7109 19.5005L23.749 22.5386C24.0824 22.8725 24.0826 23.4139 23.749 23.7476C23.4151 24.0815 22.873 24.0815 22.5391 23.7476L19.5 20.7085L16.4619 23.7398C16.1276 24.073 15.5863 24.072 15.2529 23.7378C14.9197 23.4035 14.9207 22.8623 15.2549 22.5289L18.291 19.4986L15.2539 16.4615C14.92 16.1276 14.92 15.5864 15.2539 15.2525Z" fill="black"/>
<path d="M9.77539 0.172417C10.1 -0.0704409 10.5567 -0.0536399 10.8623 0.224175L19.7295 8.2857L19.9199 8.4771C20.337 8.94522 20.5703 9.55364 20.5703 10.1871V12.857C20.5703 13.329 20.1878 13.7122 19.7158 13.7125C19.2436 13.7125 18.8604 13.3292 18.8604 12.857V10.1871C18.8603 9.94519 18.7581 9.71422 18.5791 9.55132L10.2871 2.01226L1.99512 9.55132C1.81601 9.71414 1.7139 9.945 1.71387 10.1871V17.9996C1.71387 18.474 2.09788 18.8587 2.57227 18.8589H12.8584C13.3304 18.8591 13.7138 19.2423 13.7139 19.7144C13.7137 20.1864 13.3304 20.5688 12.8584 20.5689H2.57227C1.15349 20.5687 0.00292969 19.4184 0.00292969 17.9996V10.1871C0.0029654 9.46322 0.309125 8.7726 0.844727 8.2857L9.71191 0.224175L9.77539 0.172417Z" fill="black"/>
</svg>
