<svg width="24" height="24" viewBox="0 0 24 24" fill="none" xmlns="http://www.w3.org/2000/svg">
<path fill-rule="evenodd" clip-rule="evenodd" d="M18.002 13.7156C18.9472 13.7158 19.7137 14.4831 19.7139 15.4285C19.7137 16.3739 18.9472 17.1403 18.002 17.1404C17.0566 17.1404 16.2892 16.374 16.2891 15.4285C16.2892 14.483 17.0566 13.7156 18.002 13.7156ZM18.002 15.4266L18.001 15.4256L17.999 15.4275L18 15.4285C18.0004 15.4294 18 15.43 18 15.4285L18.001 15.4305L18.0039 15.4285L18.002 15.4266C18.0035 15.4266 18.0028 15.4269 18.002 15.4266Z" fill="black"/>
<path fill-rule="evenodd" clip-rule="evenodd" d="M18.002 9.43048C21.3142 9.43074 23.9998 12.1163 24 15.4285C23.9998 17.9 22.5315 20.0333 21.2021 21.4734C20.5238 22.2083 19.8473 22.7987 19.3418 23.2059C19.0885 23.4099 18.8764 23.57 18.7256 23.6795C18.6505 23.7341 18.5901 23.7761 18.5479 23.8055C18.527 23.82 18.51 23.8315 18.498 23.8397C18.4922 23.8436 18.4869 23.847 18.4834 23.8494C18.4819 23.8504 18.4805 23.8516 18.4795 23.8524L18.4775 23.8533L18.4766 23.8543C18.1896 24.0456 17.8154 24.0453 17.5283 23.8543L17.5273 23.8533L17.5254 23.8524C17.5244 23.8517 17.5221 23.8504 17.5205 23.8494C17.5171 23.8471 17.5123 23.8434 17.5068 23.8397C17.495 23.8316 17.4779 23.82 17.457 23.8055C17.4149 23.7762 17.3543 23.734 17.2793 23.6795C17.1286 23.5701 16.9153 23.4098 16.6621 23.2059C16.1568 22.7988 15.4808 22.2079 14.8027 21.4734C13.4734 20.0333 12.0041 17.9 12.0039 15.4285C12.0041 12.1162 14.6897 9.43063 18.002 9.43048ZM18.002 11.1414C15.6341 11.1416 13.715 13.0606 13.7148 15.4285C13.715 17.2424 14.8168 18.9679 16.0586 20.3133C16.6657 20.971 17.2767 21.5054 17.7354 21.8748C17.8313 21.9521 17.9213 22.0218 18.002 22.0838C18.0829 22.0216 18.1732 21.9524 18.2695 21.8748C18.7282 21.5053 19.3381 20.9711 19.9453 20.3133C21.1872 18.9679 22.2899 17.2424 22.29 15.4285C22.2899 13.0607 20.3698 11.1417 18.002 11.1414Z" fill="black"/>
<path d="M10.6309 0.174619C10.9565 -0.0709932 11.4163 -0.0534938 11.7227 0.227353L17.7227 5.72735C18.0703 6.04644 18.0942 6.58742 17.7754 6.93536C17.4564 7.28315 16.9154 7.3058 16.5674 6.98712L11.1445 2.01642L1.99316 10.4061C1.81563 10.5688 1.71486 10.799 1.71484 11.0399V19.7147C1.71509 20.1889 2.09901 20.5738 2.57324 20.574H11.1455C11.6172 20.5745 11.9999 20.9567 12 21.4285C11.9999 21.9003 11.6172 22.2835 11.1455 22.284H2.57324C1.15461 22.2838 0.00317267 21.1333 0.00292969 19.7147V11.0399C0.00294885 10.3197 0.307019 9.63293 0.837891 9.1463L10.5674 0.227353L10.6309 0.174619Z" fill="black"/>
</svg>
