<svg width="24" height="24" viewBox="0 0 24 24" fill="none" xmlns="http://www.w3.org/2000/svg">
<path d="M14.1387 20.7881C14.5962 20.6722 15.0615 20.9498 15.1777 21.4072C15.2409 21.6558 15.4536 21.9233 15.8906 22.1055C16.3268 22.2871 16.9297 22.3516 17.5928 22.2051C18.0537 22.1033 18.5103 22.3946 18.6123 22.8555C18.7142 23.3165 18.4229 23.773 17.9619 23.875C16.9967 24.0883 16.0305 24.0161 15.2324 23.6836C14.4358 23.3515 13.7478 22.7268 13.5195 21.8271C13.4039 21.3697 13.6813 20.9042 14.1387 20.7881Z" fill="black"/>
<path d="M18.2334 16.1064C18.6548 15.8934 19.1688 16.062 19.3818 16.4834C19.5944 16.9046 19.4259 17.4188 19.0049 17.6318C17.1041 18.5926 14.9903 19.0538 12.8623 18.9746C11.3284 18.9902 9.80057 18.7765 8.33008 18.3398C7.87759 18.2055 7.61983 17.7299 7.75391 17.2773C7.88832 16.8247 8.36379 16.5668 8.81641 16.7012C9.96156 17.0412 11.1462 17.2296 12.3389 17.2617L12.8496 17.2656L12.8936 17.2666C14.7431 17.3409 16.5814 16.9415 18.2334 16.1064Z" fill="black"/>
<path d="M19.7754 10.9043C20.1249 10.5869 20.6659 10.6125 20.9834 10.9619C21.3008 11.3115 21.2744 11.8525 20.9248 12.1699C20.0431 12.9706 18.7325 13.5933 17.2061 14.0176C15.6701 14.4444 13.854 14.6871 11.8984 14.6885L11.8994 14.6895C9.48369 14.7408 7.08144 14.313 4.83203 13.4307C4.39256 13.2582 4.17634 12.7618 4.34863 12.3223C4.52106 11.8827 5.01744 11.6655 5.45703 11.8379C7.49616 12.6377 9.6734 13.0261 11.8633 12.9795H11.8818C13.7081 12.9795 15.3743 12.7519 16.748 12.3701C18.1358 11.9844 19.1657 11.4579 19.7754 10.9043Z" fill="black"/>
<path fill-rule="evenodd" clip-rule="evenodd" d="M12.002 0.00195312C14.9267 0.0020001 17.6149 0.494671 19.6035 1.32324C20.596 1.73679 21.4551 2.25154 22.0791 2.86621C22.7059 3.4838 23.1426 4.25409 23.1426 5.14355C23.1424 6.03285 22.7059 6.80342 22.0791 7.4209C21.4552 8.03538 20.5958 8.54944 19.6035 8.96289C17.6149 9.79143 14.9266 10.2841 12.002 10.2842C9.07705 10.2842 6.38812 9.79152 4.39941 8.96289C3.40706 8.54938 2.54773 8.03547 1.92383 7.4209C1.29701 6.80342 0.860568 6.03285 0.860352 5.14355C0.860352 4.25425 1.29716 3.48375 1.92383 2.86621C2.54771 2.25162 3.40706 1.73676 4.39941 1.32324C6.38812 0.494614 9.07705 0.00198054 12.002 0.00195312ZM12.002 1.71289C9.24647 1.71292 6.79149 2.17992 5.05762 2.90234C4.18893 3.26433 3.54099 3.67323 3.12402 4.08398C2.71024 4.4917 2.57129 4.84973 2.57129 5.14355C2.5715 5.43729 2.71042 5.79466 3.12402 6.20215C3.54102 6.61293 4.18884 7.02276 5.05762 7.38477C6.79148 8.10712 9.24663 8.57419 12.002 8.57422C14.757 8.57417 17.2115 8.107 18.9453 7.38477C19.814 7.02282 20.4619 6.61287 20.8789 6.20215C21.2926 5.79463 21.4324 5.43731 21.4326 5.14355C21.4326 4.84967 21.2929 4.49182 20.8789 4.08398C20.4619 3.67319 19.8141 3.26435 18.9453 2.90234C17.2115 2.17999 14.7572 1.71294 12.002 1.71289Z" fill="black"/>
</svg>
