<svg width="24" height="24" viewBox="0 0 24 24" fill="none" xmlns="http://www.w3.org/2000/svg">
<path fill-rule="evenodd" clip-rule="evenodd" d="M18.001 1.71582C21.3134 1.7159 23.9987 4.40165 23.999 7.71387V21.4287C23.9989 21.9006 23.6163 22.2838 23.1445 22.2842H2.24512C1.00718 22.2841 0.00313642 21.2799 0.00292969 20.042C0.00292969 19.694 0.0845456 19.3504 0.240234 19.0391L1.44629 16.627C3.91429 11.6914 8.95929 8.57324 14.4775 8.57324H22.2891V7.71387C22.2888 5.34603 20.3689 3.42683 18.001 3.42676H8.57227C8.10017 3.42663 7.7168 3.04341 7.7168 2.57129C7.71693 2.09928 8.10026 1.71595 8.57227 1.71582H18.001ZM14.4775 10.2842C9.60681 10.2842 5.15384 13.0361 2.97559 17.3926L1.76953 19.8037C1.73271 19.8774 1.71387 19.9594 1.71387 20.042C1.71407 20.3355 1.95155 20.5731 2.24512 20.5732H22.2891V10.2842H14.4775Z" fill="black"/>
</svg>
