<svg width="24" height="24" viewBox="0 0 24 24" fill="none" xmlns="http://www.w3.org/2000/svg">
<path d="M10.2842 0.00195312C10.7563 0.00208524 11.1396 0.3853 11.1396 0.857422V5.14355C11.1393 7.69093 9.2853 9.80355 6.85352 10.2109V23.1436C6.85316 23.6155 6.47003 23.998 5.99805 23.998C5.52618 23.9979 5.14294 23.6154 5.14258 23.1436V10.2109C2.71119 9.80314 0.857743 7.69058 0.857422 5.14355V0.857422C0.857422 0.385218 1.24069 0.00195312 1.71289 0.00195312C2.18498 0.00208524 2.56836 0.3853 2.56836 0.857422V5.14355C2.56866 6.74233 3.66241 8.08542 5.14258 8.46582V0.857422C5.14258 0.3853 5.52596 0.00208524 5.99805 0.00195312C6.47025 0.00195312 6.85352 0.385218 6.85352 0.857422V8.46582C8.33429 8.08577 9.42939 6.74269 9.42969 5.14355V0.857422C9.42969 0.385265 9.81204 0.00202832 10.2842 0.00195312Z" fill="black"/>
<path fill-rule="evenodd" clip-rule="evenodd" d="M14.6104 0.00292969C14.6165 0.00321813 14.6227 0.00348281 14.6289 0.00390625C14.649 0.00527912 14.6688 0.0080039 14.6885 0.0107422C14.6992 0.0122435 14.71 0.0137065 14.7207 0.015625C14.7385 0.018805 14.756 0.0230758 14.7734 0.0273438C14.7803 0.0290178 14.7872 0.0303785 14.7939 0.0322266C14.8158 0.038166 14.8372 0.0451367 14.8584 0.0527344C14.8639 0.0547181 14.8695 0.05649 14.875 0.0585938C14.895 0.066237 14.9144 0.074919 14.9336 0.0839844C14.9378 0.0859704 14.9421 0.0877832 14.9463 0.0898438L14.9775 0.105469C15.0055 0.120674 15.0326 0.137152 15.0586 0.155273C19.5529 2.98136 22.2822 7.9185 22.2822 13.2295V17.1436C22.2819 17.6152 21.8994 17.9976 21.4277 17.998H15.4258V23.1436C15.4254 23.6153 15.0421 23.9978 14.5703 23.998C14.0983 23.998 13.7152 23.6155 13.7148 23.1436V0.857422C13.7148 0.662566 13.7798 0.482752 13.8896 0.338867C13.8929 0.334612 13.8961 0.330352 13.8994 0.326172C13.9474 0.265718 14.0031 0.211611 14.0654 0.166016C14.0709 0.162023 14.0765 0.15815 14.082 0.154297C14.0993 0.142288 14.1176 0.131831 14.1357 0.121094C14.141 0.117978 14.146 0.114325 14.1514 0.111328C14.2751 0.0416965 14.4183 0.00195312 14.5703 0.00195312C14.5837 0.00196064 14.5971 0.00230937 14.6104 0.00292969ZM15.4258 16.2881H20.5723V13.2295C20.5723 9.03339 18.6559 5.09972 15.4258 2.51172V16.2881Z" fill="black"/>
</svg>
