<svg width="24" height="24" viewBox="0 0 24 24" fill="none" xmlns="http://www.w3.org/2000/svg">
<path fill-rule="evenodd" clip-rule="evenodd" d="M17.3229 0.00195312C18.6319 0.00201576 19.7322 0.986825 19.8766 2.28809L21.2096 14.2881C21.3784 15.8098 20.187 17.1406 18.6559 17.1406H12.8551V22.2871H16.2858C16.7578 22.2872 17.1411 22.6705 17.1412 23.1426C17.1412 23.6147 16.7579 23.998 16.2858 23.998H7.71447C7.24227 23.998 6.859 23.6148 6.859 23.1426C6.85913 22.6705 7.24235 22.2871 7.71447 22.2871H11.1442V17.1406H5.34435C3.81313 17.1406 2.62173 15.8099 2.79064 14.2881L4.12365 2.28809C4.26822 0.986915 5.36818 0.00195312 6.67736 0.00195312H17.3229ZM6.67736 1.71289C6.23958 1.71289 5.87131 2.04149 5.82287 2.47656L4.48986 14.4766C4.43345 14.9855 4.83229 15.4307 5.34435 15.4307H18.6559C19.1679 15.4306 19.5667 14.9854 19.5104 14.4766L18.1764 2.47656C18.128 2.04165 17.7605 1.71295 17.3229 1.71289H6.67736Z" fill="black"/>
</svg>
