<svg width="24" height="24" viewBox="0 0 24 24" fill="none" xmlns="http://www.w3.org/2000/svg">
<path fill-rule="evenodd" clip-rule="evenodd" d="M12.002 0.858398C18.1546 0.858625 23.1426 5.84827 23.1426 12.001V13.7148C23.1423 14.1868 22.7592 14.5703 22.2871 14.5703H12.8574V21.4307H16.2871C16.7593 21.4307 17.1426 21.8139 17.1426 22.2861C17.1423 22.7581 16.7592 23.1416 16.2871 23.1416H7.71582C7.24389 23.1415 6.86062 22.758 6.86035 22.2861C6.86035 21.814 7.24373 21.4308 7.71582 21.4307H11.1465V14.5703H1.71582C1.24389 14.5702 0.860616 14.1867 0.860352 13.7148V12.001C0.860352 5.84821 5.84922 0.85853 12.002 0.858398ZM12.002 2.57031C6.79362 2.57044 2.57129 6.79262 2.57129 12.001V12.8594H21.4326V12.001C21.4326 6.79267 17.2102 2.57054 12.002 2.57031Z" fill="black"/>
</svg>
