<svg width="24" height="24" viewBox="0 0 24 24" fill="none" xmlns="http://www.w3.org/2000/svg">
<path fill-rule="evenodd" clip-rule="evenodd" d="M18.1445 0.0136719C18.4738 0.0701031 18.7457 0.316671 18.8291 0.649414L19.6865 4.07812C19.7501 4.33339 19.6931 4.60414 19.5312 4.81152C19.3692 5.01904 19.1197 5.13965 18.8564 5.13965H12.8554V18.8584H18L18.1445 18.8711C18.4739 18.9275 18.7458 19.174 18.8291 19.5068L19.6865 22.9355C19.7501 23.1908 19.6931 23.4616 19.5312 23.6689C19.3692 23.8764 19.1196 23.9971 18.8564 23.9971H5.14254C4.87948 23.997 4.63067 23.8762 4.46871 23.6689C4.30687 23.4616 4.24977 23.1908 4.31344 22.9355L5.16988 19.5068C5.26501 19.1263 5.60777 18.8586 5.99996 18.8584H11.1445V5.13965H5.14254C4.87948 5.13955 4.63067 5.01881 4.46871 4.81152C4.30695 4.60414 4.24976 4.33331 4.31344 4.07812L5.16988 0.649414C5.26506 0.268985 5.60782 0.00112987 5.99996 0.000976562H18L18.1445 0.0136719ZM6.23726 22.2871H17.7617L17.332 20.5693H6.66695L6.23726 22.2871ZM6.23726 3.42969H17.7617L17.332 1.71191H6.66695L6.23726 3.42969Z" fill="black"/>
</svg>
