<svg width="24" height="24" viewBox="0 0 24 24" fill="none" xmlns="http://www.w3.org/2000/svg">
<path d="M7.10794 15.6812C7.44183 15.3473 7.984 15.3473 8.3179 15.6812C8.65143 16.015 8.65143 16.5563 8.3179 16.8902L6.60306 18.605C6.26922 18.9384 5.72786 18.9385 5.39407 18.605C5.06025 18.2711 5.06031 17.7289 5.39407 17.395L7.10794 15.6812Z" fill="black"/>
<path d="M12.2515 10.5386C12.5854 10.2047 13.1276 10.2047 13.4615 10.5386C13.7946 10.8725 13.7949 11.4139 13.4615 11.7476L11.7466 13.4624C11.4129 13.7958 10.8715 13.7956 10.5376 13.4624C10.2037 13.1285 10.2037 12.5864 10.5376 12.2525L12.2515 10.5386Z" fill="black"/>
<path d="M17.3941 5.39504C17.7279 5.06143 18.2702 5.06137 18.604 5.39504C18.9375 5.72879 18.9373 6.27018 18.604 6.60403L16.8892 8.31887C16.5554 8.6524 16.014 8.6524 15.6802 8.31887C15.3465 7.98496 15.3464 7.44276 15.6802 7.10891L17.3941 5.39504Z" fill="black"/>
<path fill-rule="evenodd" clip-rule="evenodd" d="M15.8706 2.28079C17.4859 0.665542 20.105 0.665497 21.7202 2.28079C23.3352 3.8961 23.3354 6.51523 21.7202 8.13039L8.1304 21.7202C6.51522 23.3353 3.89611 23.3351 2.28079 21.7202C0.665497 20.105 0.665536 17.4859 2.28079 15.8706L15.8706 2.28079ZM20.5113 3.48977C19.5638 2.54229 18.0271 2.54233 17.0796 3.48977L3.48978 17.0796C2.54232 18.0271 2.54229 19.5638 3.48978 20.5113C4.4373 21.4583 5.97403 21.4585 6.92142 20.5113L20.5113 6.92141C21.4586 5.97404 21.4584 4.43729 20.5113 3.48977Z" fill="black"/>
<path d="M12.4234 18.6431C12.8794 18.5209 13.3489 18.7916 13.4712 19.2476L13.9566 21.0591C14.0785 21.5149 13.8078 21.9836 13.3521 22.106C12.8961 22.2282 12.4266 21.9574 12.3042 21.5015L11.8189 19.6909C11.6967 19.2349 11.9674 18.7654 12.4234 18.6431Z" fill="black"/>
<path d="M15.8677 15.8706C16.2016 15.5367 16.7428 15.5367 17.0767 15.8706L18.4029 17.1968C18.7363 17.5307 18.7366 18.072 18.4029 18.4058C18.0691 18.7394 17.5278 18.7392 17.1939 18.4058L15.8677 17.0796C15.5339 16.7458 15.5339 16.2045 15.8677 15.8706Z" fill="black"/>
<path d="M18.6421 12.4253C18.7644 11.9695 19.2341 11.6988 19.69 11.8208L21.5005 12.3062C21.9565 12.4283 22.227 12.897 22.105 13.3531C21.9826 13.8089 21.5141 14.0806 21.0581 13.9585L19.2466 13.4732C18.791 13.3508 18.5202 12.8811 18.6421 12.4253Z" fill="black"/>
<path d="M1.89114 10.647C2.01359 10.1913 2.48317 9.92051 2.939 10.0425L4.74954 10.5279C5.20543 10.65 5.47578 11.1188 5.35404 11.5747C5.23184 12.0308 4.76324 12.3023 4.30716 12.1802L2.49564 11.6948C2.03985 11.5724 1.76899 11.1029 1.89114 10.647Z" fill="black"/>
<path d="M5.59525 5.59524C5.92914 5.26134 6.47033 5.26134 6.80423 5.59524L8.1304 6.92141C8.46387 7.25534 8.46416 7.79664 8.1304 8.13039C7.79665 8.46414 7.25535 8.46386 6.92142 8.13039L5.59525 6.80422C5.26135 6.47033 5.26135 5.92914 5.59525 5.59524Z" fill="black"/>
<path d="M10.6451 1.89407C11.101 1.77191 11.5705 2.04277 11.6929 2.49856L12.1783 4.31008C12.3004 4.76616 12.0289 5.23476 11.5728 5.35696C11.1169 5.47869 10.6481 5.20834 10.5259 4.75247L10.0406 2.94192C9.91857 2.48609 10.1894 2.01652 10.6451 1.89407Z" fill="black"/>
</svg>
