<svg width="24" height="24" viewBox="0 0 24 24" fill="none" xmlns="http://www.w3.org/2000/svg">
<path fill-rule="evenodd" clip-rule="evenodd" d="M11.999 7.71582C13.2717 7.71582 14.484 7.8632 15.5723 8.12793C15.5854 8.13053 15.5984 8.13354 15.6113 8.13672C16.9667 8.47078 18.1653 8.99893 19.0459 9.69238C19.9221 10.3825 20.5683 11.3133 20.5684 12.4287C20.5682 13.9919 19.3236 15.1775 17.8369 15.9209C16.2989 16.6899 14.2332 17.1406 11.999 17.1406C9.765 17.1406 7.70005 16.6899 6.16211 15.9209C4.67534 15.1775 3.42984 13.992 3.42969 12.4287C3.42978 11.3132 4.07688 10.3825 4.95312 9.69238C5.83376 8.99891 7.03323 8.47078 8.38867 8.13672C8.38967 8.13647 8.39061 8.13599 8.3916 8.13574C8.40199 8.13322 8.4123 8.13007 8.42285 8.12793C9.51194 7.86266 10.7251 7.71585 11.999 7.71582ZM16.0254 10.0361C15.427 11.6804 13.852 12.8552 12.001 12.8555C10.1495 12.8555 8.57221 11.6808 7.97363 10.0361C7.15834 10.31 6.49249 10.6558 6.01074 11.0352C5.37127 11.5388 5.14072 12.0255 5.14062 12.4287C5.14078 12.9954 5.62221 13.7382 6.92676 14.3906C8.18065 15.0176 9.97291 15.4306 11.999 15.4307C14.0253 15.4307 15.8183 15.0176 17.0723 14.3906C18.3767 13.7382 18.8582 12.9954 18.8584 12.4287C18.8583 12.0255 18.6268 11.5388 17.9873 11.0352C17.5056 10.656 16.8403 10.31 16.0254 10.0361ZM11.999 9.42676C11.1733 9.42678 10.3835 9.49539 9.65137 9.62012C10.0531 10.5179 10.9538 11.1445 12.001 11.1445C13.0473 11.1442 13.9457 10.5179 14.3477 9.62109C13.6152 9.49631 12.825 9.42676 11.999 9.42676Z" fill="black"/>
<path fill-rule="evenodd" clip-rule="evenodd" d="M11.999 4.28711C15.2079 4.28711 18.1544 5.08658 20.3262 6.42285C22.4841 7.75078 23.997 9.69892 23.9971 12C23.9969 14.3011 22.4841 16.2482 20.3262 17.5762C18.1544 18.9126 15.2081 19.7119 11.999 19.7119C8.79003 19.7118 5.84355 18.9126 3.67188 17.5762C1.51431 16.2483 0.00109877 14.3009 0.000976562 12C0.00108357 9.69898 1.51408 7.75078 3.67188 6.42285C5.84355 5.08643 8.79003 4.2872 11.999 4.28711ZM11.999 5.99805C9.05451 5.99813 6.42936 6.73374 4.56836 7.87891C2.69355 9.03266 1.71202 10.5142 1.71191 12C1.71204 13.4857 2.69371 14.9664 4.56836 16.1201C6.42937 17.2653 9.05442 18.0019 11.999 18.002C14.9438 18.002 17.5695 17.2654 19.4307 16.1201C21.3053 14.9664 22.287 13.4857 22.2871 12C22.287 10.5142 21.3055 9.03265 19.4307 7.87891C17.5696 6.7337 14.9437 5.99805 11.999 5.99805Z" fill="black"/>
</svg>
