<svg width="24" height="24" viewBox="0 0 24 24" fill="none" xmlns="http://www.w3.org/2000/svg">
<path fill-rule="evenodd" clip-rule="evenodd" d="M13.7142 0.00195312C15.133 0.00201667 16.2833 1.15254 16.2835 2.57129V12.9258C17.6848 13.2507 18.5934 14.7132 18.1575 16.167L17.1292 19.5957C16.959 20.1629 16.5959 20.6564 15.9915 20.9844C15.4212 21.2937 14.6905 21.4267 13.8109 21.4268H12.8558V23.1426C12.8558 23.6147 12.4724 23.9979 12.0003 23.998C11.5281 23.998 11.1449 23.6148 11.1449 23.1426V21.4268H9.33333C8.19891 21.4267 7.19854 20.6822 6.87239 19.5957L5.84407 16.167C5.40831 14.7139 6.31611 13.2527 7.71614 12.9268V2.57129C7.71637 1.15264 8.86683 0.00217923 10.2855 0.00195312H13.7142ZM8.30501 14.5703C7.72953 14.5704 7.31653 15.1246 7.48177 15.6758L8.51009 19.1045C8.61924 19.4677 8.95406 19.7167 9.33333 19.7168H11.9827C11.9885 19.7167 11.9946 19.7158 12.0003 19.7158C12.0062 19.7158 12.0121 19.7167 12.0179 19.7168H13.8109C14.5446 19.7168 14.9548 19.6014 15.1761 19.4814C15.363 19.38 15.4432 19.262 15.4906 19.1045L16.5199 15.6758C16.685 15.1246 16.272 14.5704 15.6966 14.5703H8.30501ZM12.8558 12.8594H14.5736V2.57129C14.5733 2.09695 14.1886 1.71295 13.7142 1.71289H12.8558V12.8594ZM10.2855 1.71289C9.81124 1.71312 9.42731 2.09705 9.42708 2.57129V12.8594H11.1449V1.71289H10.2855Z" fill="black"/>
</svg>
