<svg width="24" height="24" viewBox="0 0 24 24" fill="none" xmlns="http://www.w3.org/2000/svg">
<path fill-rule="evenodd" clip-rule="evenodd" d="M16.6846 11.5293C17.1385 11.3996 17.6123 11.6625 17.7422 12.1162C17.8719 12.5701 17.6091 13.0439 17.1553 13.1738L9.37012 15.3975C9.7695 15.8854 10.0006 16.489 10.0332 17.1211H14.8105C15.2828 17.1211 15.666 17.5044 15.666 17.9766V19.3828C15.666 20.3555 15.2796 21.2888 14.5918 21.9766C13.904 22.6643 12.9707 23.0508 11.998 23.0508C11.0255 23.0507 10.092 22.6643 9.4043 21.9766C8.71658 21.2888 8.33008 20.3554 8.33008 19.3828V17.2734C8.33008 16.9408 8.19813 16.622 7.96289 16.3867C7.72766 16.1516 7.4088 16.0195 7.07617 16.0195C7.07356 16.0195 7.07096 16.0186 7.06836 16.0186C7.05034 16.0184 7.0325 16.0169 7.01465 16.0156C7.00252 16.0148 6.99049 16.0141 6.97852 16.0127C6.96934 16.0116 6.96028 16.0101 6.95117 16.0088C6.93208 16.006 6.91319 16.0031 6.89453 15.999C6.88897 15.9978 6.88346 15.9964 6.87793 15.9951C6.80372 15.9774 6.73329 15.9507 6.66797 15.915C6.6658 15.9139 6.66329 15.9133 6.66113 15.9121L6.59863 15.873C6.52925 15.8262 6.46694 15.7697 6.41406 15.7051C6.40657 15.6959 6.39971 15.6863 6.39258 15.6768C6.36615 15.6416 6.34213 15.6045 6.32129 15.5654C6.31584 15.5552 6.31071 15.5447 6.30566 15.5342C6.29835 15.519 6.2906 15.5039 6.28418 15.4883C6.27249 15.4596 6.26261 15.4298 6.25391 15.3994C6.25095 15.389 6.24865 15.3785 6.24609 15.3682C6.24236 15.353 6.23825 15.3378 6.23535 15.3223C6.23327 15.3112 6.23211 15.3001 6.23047 15.2891C6.22796 15.272 6.22609 15.2547 6.22461 15.2373C6.22376 15.2275 6.22316 15.2178 6.22266 15.208C6.22192 15.1934 6.2207 15.1788 6.2207 15.1641C6.2207 14.928 6.31691 14.7144 6.47168 14.5596L6.47754 14.5537C6.48411 14.5472 6.49126 14.5414 6.49805 14.5352C6.59397 14.4469 6.70933 14.3791 6.83789 14.3418H6.84082L16.6846 11.5293ZM10.041 19.3828L10.0498 19.5762C10.0943 20.0243 10.2931 20.4454 10.6143 20.7666C10.9813 21.1336 11.479 21.3398 11.998 21.3398C12.5171 21.3398 13.0147 21.1336 13.3818 20.7666C13.7489 20.3995 13.9551 19.902 13.9551 19.3828V18.832H10.041V19.3828Z" fill="black"/>
<path d="M16.6846 8.01367C17.1385 7.88399 17.6123 8.14683 17.7422 8.60059C17.8719 9.05449 17.6091 9.52832 17.1553 9.6582L7.31152 12.4707C6.85769 12.6002 6.38377 12.3375 6.25391 11.8838C6.12428 11.43 6.38718 10.9561 6.84082 10.8262L16.6846 8.01367Z" fill="black"/>
<path d="M16.6846 4.49805C17.1385 4.36837 17.6123 4.6312 17.7422 5.08496C17.8719 5.53887 17.6091 6.0127 17.1553 6.14258L7.31152 8.95508C6.85769 9.08461 6.38377 8.82189 6.25391 8.36816C6.12428 7.91435 6.38718 7.44052 6.84082 7.31055L16.6846 4.49805Z" fill="black"/>
<path d="M11.998 0.949219C12.4702 0.949232 12.8535 1.33249 12.8535 1.80469C12.8535 2.59791 12.5947 3.36957 12.1172 4.00293C11.6395 4.63631 10.9679 5.09735 10.2051 5.31543L7.31152 6.14258C6.85769 6.27211 6.38377 6.00939 6.25391 5.55566C6.12428 5.10185 6.38718 4.62802 6.84082 4.49805L9.73535 3.6709C10.1408 3.55492 10.498 3.3103 10.752 2.97363C11.0059 2.63687 11.1426 2.22645 11.1426 1.80469C11.1426 1.33257 11.526 0.949351 11.998 0.949219Z" fill="black"/>
</svg>
