<svg width="24" height="24" viewBox="0 0 24 24" fill="none" xmlns="http://www.w3.org/2000/svg">
<path fill-rule="evenodd" clip-rule="evenodd" d="M11.9994 5.14397C13.6548 5.14402 14.9971 6.4867 14.9975 8.14202C14.9975 9.79767 13.6551 11.14 11.9994 11.1401C10.3439 11.1399 9.0014 9.7976 9.0014 8.14202C9.0018 6.48677 10.3441 5.14412 11.9994 5.14397ZM11.9994 6.85491C11.2885 6.85506 10.7127 7.43118 10.7123 8.14202C10.7123 8.85319 11.2883 9.42995 11.9994 9.4301C12.7107 9.43006 13.2875 8.85326 13.2875 8.14202C13.2871 7.43111 12.7104 6.85495 11.9994 6.85491Z" fill="black"/>
<path fill-rule="evenodd" clip-rule="evenodd" d="M11.7358 0.900805C11.9351 0.836284 12.1527 0.847198 12.3461 0.933032L20.061 4.36174L20.1401 4.40178C20.3206 4.50573 20.4583 4.67294 20.5248 4.87249L23.0961 12.5864C23.183 12.8471 23.1387 13.1339 22.978 13.3569C22.8173 13.5797 22.5593 13.7123 22.2846 13.7123H21.4252V22.2856C21.4252 22.7577 21.0428 23.1409 20.5707 23.141H3.42718C2.95537 23.1406 2.57271 22.7575 2.57269 22.2856V13.7123H1.71331C1.43863 13.7122 1.18057 13.5797 1.01996 13.3569C0.859397 13.134 0.814972 12.847 0.901791 12.5864L3.47406 4.87249L3.50628 4.78948C3.59232 4.59991 3.74587 4.4472 3.93792 4.36174L11.6518 0.933032L11.7358 0.900805ZM4.97601 5.77092L2.89984 12.0024H3.42718C3.89929 12.0024 4.2825 12.3848 4.28265 12.8569V21.4311H6.85785V14.5717C6.85785 14.0996 7.2413 13.7165 7.71331 13.7162H16.2846C16.7568 13.7162 17.1401 14.0995 17.1401 14.5717V21.4311H19.7153V12.8569C19.7154 12.3849 20.0988 12.0026 20.5707 12.0024H21.0991L19.0209 5.77092L11.9985 2.64983L4.97601 5.77092ZM8.56878 21.4311H15.4301V15.4272H8.56878V21.4311Z" fill="black"/>
</svg>
