<svg width="24" height="24" viewBox="0 0 24 24" fill="none" xmlns="http://www.w3.org/2000/svg">
<path d="M14.8242 6.25293C15.1581 5.91917 15.6994 5.91908 16.0332 6.25293C16.3669 6.58679 16.3669 7.12805 16.0332 7.46191L13.209 10.2861L16.0332 13.1104C16.3668 13.4443 16.367 13.9855 16.0332 14.3193C15.6994 14.6529 15.1581 14.6529 14.8242 14.3193L12 11.4951L9.17578 14.3193C8.8419 14.6528 8.30058 14.653 7.9668 14.3193C7.63303 13.9856 7.63328 13.4443 7.9668 13.1104L10.791 10.2861L7.9668 7.46191C7.63298 7.1281 7.63314 6.58685 7.9668 6.25293C8.3007 5.91903 8.84188 5.91903 9.17578 6.25293L12 9.07715L14.8242 6.25293Z" fill="black"/>
<path fill-rule="evenodd" clip-rule="evenodd" d="M12 0.00195312C17.6355 0.00208751 22.1767 4.655 22.1768 10.3594C22.1767 13.7655 20.4876 16.7022 18.5879 18.9355C16.6821 21.176 14.4907 22.7965 13.3135 23.5879C12.5154 24.1244 11.4857 24.1242 10.6875 23.5879C9.51044 22.7966 7.31813 21.1762 5.41211 18.9355C3.51243 16.7022 1.82332 13.7655 1.82324 10.3594C1.82326 4.65497 6.3644 0.00202975 12 0.00195312ZM12 1.71289C7.33959 1.71297 3.5342 5.5683 3.53418 10.3594C3.53426 13.1918 4.94398 15.7462 6.71484 17.8281C8.47929 19.9023 10.5304 21.422 11.6416 22.1689C11.8628 22.3174 12.1382 22.3176 12.3594 22.1689C13.4707 21.4218 15.5217 19.9024 17.2861 17.8281C19.057 15.7462 20.4667 13.1918 20.4668 10.3594C20.4668 5.56834 16.6603 1.71303 12 1.71289Z" fill="black"/>
</svg>
