<svg width="24" height="24" viewBox="0 0 24 24" fill="none" xmlns="http://www.w3.org/2000/svg">
<path d="M12.0029 14.4307L12.1338 14.4375C12.781 14.5033 13.2861 15.0502 13.2861 15.7148C13.2859 16.3793 12.7809 16.9256 12.1338 16.9912L12.0029 16.998L11.8799 16.9922C11.2719 16.9344 10.7872 16.4525 10.7256 15.8457L10.7188 15.7148L10.7256 15.583C10.7885 14.9657 11.2893 14.4782 11.9121 14.4346C11.9419 14.4314 11.9724 14.4307 12.0029 14.4307Z" fill="black"/>
<path d="M10.6875 4.40625C11.9577 3.88013 13.4497 4.17725 14.4219 5.14941C15.3937 6.1215 15.6909 7.61282 15.165 8.88281C14.7507 9.88272 13.8776 10.6178 12.8545 10.8857V11.8574C12.8542 12.3294 12.4711 12.7129 11.999 12.7129C11.5272 12.7127 11.1448 12.3293 11.1445 11.8574V10.1436C11.1445 9.67148 11.527 9.28829 11.999 9.28809C12.6821 9.28809 13.3234 8.85943 13.585 8.22852C13.8463 7.59746 13.6957 6.84147 13.2129 6.3584C12.7299 5.87538 11.9739 5.72505 11.3428 5.98633C10.7118 6.24788 10.2832 6.88922 10.2832 7.57227C10.2827 8.04404 9.89963 8.42676 9.42773 8.42676C8.95595 8.42663 8.57277 8.04396 8.57227 7.57227C8.57227 6.19772 9.41775 4.93256 10.6875 4.40625Z" fill="black"/>
<path fill-rule="evenodd" clip-rule="evenodd" d="M11.999 0.00195312C17.6346 0.00195312 22.1758 4.65492 22.1758 10.3594C22.1757 13.7655 20.4866 16.7022 18.5869 18.9355C16.6811 21.1759 14.4896 22.7965 13.3125 23.5879C12.5143 24.1243 11.4846 24.1244 10.6865 23.5879C9.50941 22.7966 7.31717 21.1763 5.41113 18.9355C3.51145 16.7022 1.82235 13.7655 1.82227 10.3594C1.82229 4.65505 6.36353 0.00216414 11.999 0.00195312ZM11.999 1.71289C7.33872 1.7131 3.53323 5.56838 3.5332 10.3594C3.53328 13.1918 4.943 15.7462 6.71387 17.8281C8.47833 19.9024 10.5294 21.4219 11.6406 22.1689C11.8618 22.3175 12.1372 22.3175 12.3584 22.1689C13.4697 21.4218 15.5208 19.9023 17.2852 17.8281C19.056 15.7462 20.4657 13.1918 20.4658 10.3594C20.4658 5.56826 16.6594 1.71289 11.999 1.71289Z" fill="black"/>
</svg>
