<svg width="24" height="24" viewBox="0 0 24 24" fill="none" xmlns="http://www.w3.org/2000/svg">
<path d="M11.999 5.43066C12.4711 5.4308 12.8545 5.81401 12.8545 6.28613V9.12207H15.7148C16.1868 9.12241 16.5693 9.50555 16.5693 9.97754C16.5692 10.4494 16.1867 10.8327 15.7148 10.833H12.8545V13.7148C12.8543 14.1868 12.471 14.5692 11.999 14.5693C11.5269 14.5693 11.1438 14.1869 11.1436 13.7148V10.833H8.28613C7.81401 10.833 7.4308 10.4496 7.43066 9.97754C7.43066 9.50534 7.81393 9.12207 8.28613 9.12207H11.1436V6.28613C11.1436 5.81393 11.5268 5.43066 11.999 5.43066Z" fill="black"/>
<path fill-rule="evenodd" clip-rule="evenodd" d="M11.999 0.00195312C17.6345 0.00208751 22.1758 4.655 22.1758 10.3594C22.1757 13.7655 20.4866 16.7022 18.5869 18.9355C16.6811 21.176 14.4897 22.7965 13.3125 23.5879C12.5144 24.1244 11.4847 24.1242 10.6865 23.5879C9.50946 22.7966 7.31715 21.1762 5.41113 18.9355C3.51145 16.7022 1.82235 13.7655 1.82227 10.3594C1.82229 4.65497 6.36342 0.00202975 11.999 0.00195312ZM11.999 1.71289C7.33861 1.71297 3.53323 5.5683 3.5332 10.3594C3.53328 13.1918 4.943 15.7462 6.71387 17.8281C8.47831 19.9023 10.5295 21.422 11.6406 22.1689C11.8619 22.3174 12.1372 22.3176 12.3584 22.1689C13.4697 21.4218 15.5208 19.9024 17.2852 17.8281C19.056 15.7462 20.4657 13.1918 20.4658 10.3594C20.4658 5.56834 16.6593 1.71303 11.999 1.71289Z" fill="black"/>
</svg>
