<svg width="24" height="24" viewBox="0 0 24 24" fill="none" xmlns="http://www.w3.org/2000/svg">
<path fill-rule="evenodd" clip-rule="evenodd" d="M12.001 5.14453C14.3405 5.14461 16.2842 7.08912 16.2842 9.42871C16.2841 11.7682 14.3405 13.7118 12.001 13.7119C9.6615 13.7118 7.71687 11.7682 7.7168 9.42871C7.7168 7.08916 9.66145 5.14467 12.001 5.14453ZM12.001 6.85547C10.6059 6.85561 9.42773 8.03357 9.42773 9.42871C9.42781 10.8238 10.6059 12.0018 12.001 12.002C13.3961 12.0019 14.5741 10.8238 14.5742 9.42871C14.5742 8.03353 13.3961 6.85555 12.001 6.85547Z" fill="black"/>
<path fill-rule="evenodd" clip-rule="evenodd" d="M12.001 0.00195312C17.6366 0.00195312 22.1777 4.65492 22.1777 10.3594C22.1777 13.7655 20.4885 16.7022 18.5889 18.9355C16.6831 21.176 14.4916 22.7965 13.3145 23.5879C12.5163 24.1244 11.4866 24.1243 10.6885 23.5879C9.5114 22.7966 7.31913 21.1763 5.41309 18.9355C3.51341 16.7022 1.8243 13.7655 1.82422 10.3594C1.82424 4.65497 6.36538 0.00202975 12.001 0.00195312ZM12.001 1.71289C7.34056 1.71297 3.53518 5.5683 3.53516 10.3594C3.53524 13.1918 4.94495 15.7462 6.71582 17.8281C8.48029 19.9023 10.5314 21.4219 11.6426 22.1689C11.8638 22.3175 12.1392 22.3176 12.3604 22.1689C13.4717 21.4218 15.5227 19.9024 17.2871 17.8281C19.058 15.7462 20.4677 13.1918 20.4678 10.3594C20.4678 5.56826 16.6614 1.71289 12.001 1.71289Z" fill="black"/>
</svg>
