<svg width="24" height="24" viewBox="0 0 24 24" fill="none" xmlns="http://www.w3.org/2000/svg">
<path d="M5.14453 12.002C5.61673 12.002 6 12.3852 6 12.8574V14.5713C5.99987 15.0434 5.61665 15.4268 5.14453 15.4268C4.67241 15.4268 4.28919 15.0434 4.28906 14.5713V12.8574C4.28906 12.3852 4.67233 12.002 5.14453 12.002Z" fill="black"/>
<path d="M8.57324 7.71582C9.0453 7.7159 9.4276 8.09924 9.42773 8.57129C9.42773 9.04345 9.04538 9.42668 8.57324 9.42676H5.14453C4.67233 9.42676 4.28906 9.04349 4.28906 8.57129C4.28919 8.0992 4.67241 7.71582 5.14453 7.71582H8.57324Z" fill="black"/>
<path d="M8.57324 4.28711C9.0453 4.28718 9.4276 4.67053 9.42773 5.14258C9.42773 5.61474 9.04538 5.99797 8.57324 5.99805H5.14453C4.67233 5.99805 4.28906 5.61478 4.28906 5.14258C4.28919 4.67049 4.67241 4.28711 5.14453 4.28711H8.57324Z" fill="black"/>
<path d="M15.4307 12.002C15.9026 12.0022 16.2861 12.3854 16.2861 12.8574V14.5713C16.286 15.0432 15.9026 15.4265 15.4307 15.4268C14.9585 15.4268 14.5753 15.0434 14.5752 14.5713V12.8574C14.5752 12.3852 14.9585 12.002 15.4307 12.002Z" fill="black"/>
<path d="M18.8594 7.71582C19.3312 7.71616 19.7137 8.09941 19.7139 8.57129C19.7139 9.04328 19.3313 9.42642 18.8594 9.42676H15.4307C14.9585 9.42676 14.5752 9.04349 14.5752 8.57129C14.5753 8.0992 14.9585 7.71582 15.4307 7.71582H18.8594Z" fill="black"/>
<path d="M18.8594 4.28711C19.3312 4.28745 19.7137 4.6707 19.7139 5.14258C19.7139 5.61457 19.3313 5.99771 18.8594 5.99805H15.4307C14.9585 5.99805 14.5752 5.61478 14.5752 5.14258C14.5753 4.67049 14.9585 4.28711 15.4307 4.28711H18.8594Z" fill="black"/>
<path fill-rule="evenodd" clip-rule="evenodd" d="M20.5732 0.858398C21.992 0.858551 23.1424 2.01002 23.1426 3.42871V20.5723C23.1422 21.9908 21.9918 23.1415 20.5732 23.1416H3.42969C2.01127 23.1412 0.860767 21.9907 0.860352 20.5723V3.42871C0.860578 2.01015 2.01115 0.858756 3.42969 0.858398H20.5732ZM3.42969 2.57031C2.95556 2.57067 2.57152 2.95455 2.57129 3.42871V20.5723C2.5717 21.0463 2.95568 21.4313 3.42969 21.4316H11.1465V2.57031H3.42969ZM12.8574 21.4316H20.5732C21.0474 21.4315 21.4322 21.0464 21.4326 20.5723V3.42871C21.4324 2.95443 21.0475 2.57046 20.5732 2.57031H12.8574V21.4316Z" fill="black"/>
</svg>
