<svg width="24" height="24" viewBox="0 0 24 24" fill="none" xmlns="http://www.w3.org/2000/svg">
<path fill-rule="evenodd" clip-rule="evenodd" d="M11.998 6.85938C13.4169 6.85938 14.5672 8.00993 14.5674 9.42871V9.43066H15.4277C16.8464 9.43086 17.9968 10.5813 17.9971 12V15.4287C17.9968 16.8473 16.8464 17.9978 15.4277 17.998H8.57031C7.15169 17.9978 6.00124 16.8473 6.00098 15.4287V12C6.0012 10.5814 7.15167 9.43089 8.57031 9.43066H9.42871V9.42871C9.42894 8.01019 10.5796 6.8598 11.998 6.85938ZM8.57031 11.1416C8.09607 11.1418 7.71214 11.5258 7.71191 12V15.4287C7.71218 15.9029 8.0961 16.2879 8.57031 16.2881H15.4277C15.902 16.2879 16.2868 15.9029 16.2871 15.4287V12C16.2869 11.5257 15.902 11.1418 15.4277 11.1416H8.57031ZM11.998 8.57031C11.524 8.57074 11.1399 8.95459 11.1396 9.42871V9.43066H12.8574V9.42871C12.8572 8.95433 12.4725 8.57031 11.998 8.57031Z" fill="black"/>
<path fill-rule="evenodd" clip-rule="evenodd" d="M11.999 0.00195312C12.4712 0.00201919 12.8545 0.385259 12.8545 0.857422V1.71582H16.2842C19.5965 1.71582 22.2819 4.40158 22.2822 7.71387V19.7158H23.1426C23.6143 19.7162 23.9969 20.0995 23.9971 20.5713C23.9971 21.0432 23.6144 21.4263 23.1426 21.4268H20.5674V21.4287C20.5672 22.8476 19.4169 23.998 17.998 23.998C16.5795 23.9976 15.4289 22.8473 15.4287 21.4287V21.4268H8.56738V21.4287C8.56723 22.8476 7.41693 23.998 5.99805 23.998C4.57952 23.9976 3.42886 22.8473 3.42871 21.4287V21.4268H0.856445C0.384242 21.4268 0.000976562 21.0435 0.000976562 20.5713C0.0011087 20.0992 0.384323 19.7158 0.856445 19.7158H1.71484V7.71387C1.71513 4.40168 4.40067 1.71597 7.71289 1.71582H11.1436V0.857422C11.1436 0.385218 11.5268 0.00195312 11.999 0.00195312ZM5.13965 21.4287C5.1398 21.9029 5.52393 22.2877 5.99805 22.2881C6.47252 22.2881 6.85727 21.9032 6.85742 21.4287V21.4268H5.13965V21.4287ZM17.1396 21.4268V21.4287C17.1398 21.9029 17.5239 22.2877 17.998 22.2881C18.4725 22.2881 18.8573 21.9032 18.8574 21.4287V21.4268H17.1396ZM7.71289 3.42676C5.34507 3.42691 3.42606 5.34608 3.42578 7.71387V19.7158H20.5723V7.71387C20.572 5.34599 18.6521 3.42676 16.2842 3.42676H12.8545V4.28613C12.8543 4.75812 12.471 5.14056 11.999 5.14062C11.5269 5.14062 11.1438 4.75816 11.1436 4.28613V3.42676H7.71289Z" fill="black"/>
</svg>
