<svg width="24" height="24" viewBox="0 0 24 24" fill="none" xmlns="http://www.w3.org/2000/svg">
<path fill-rule="evenodd" clip-rule="evenodd" d="M17.5693 0.00195312C19.2249 0.00195312 20.5672 1.34446 20.5674 3C20.5673 4.65556 19.2249 5.99805 17.5693 5.99805H12.8535V7.71582H18.8555C21.221 7.71595 23.1395 9.63444 23.1396 12V18.8574C23.1396 18.887 23.1377 18.9165 23.1348 18.9453C23.123 19.06 23.0887 19.1679 23.0361 19.2646C23.0173 19.2993 22.995 19.3317 22.9717 19.3633C22.8159 19.5745 22.5666 19.7128 22.2842 19.7129H14.5674V23.1436C14.567 23.6155 14.1839 23.998 13.7119 23.998C13.2402 23.9977 12.8578 23.6152 12.8574 23.1436V19.7129L1.71289 19.7119C1.24083 19.7119 0.857648 19.3294 0.857422 18.8574V11.5713C0.857554 9.44234 2.58391 7.71582 4.71289 7.71582H11.1426V0.857422C11.1426 0.3853 11.526 0.00208524 11.998 0.00195312H17.5693ZM4.71289 9.42676C3.52832 9.42676 2.56849 10.3868 2.56836 11.5713V18.002H6.85742V11.5713C6.85729 10.3868 5.89735 9.42689 4.71289 9.42676ZM7.91602 9.42676C8.32746 10.04 8.56831 10.7775 8.56836 11.5713V18.002H21.4297V12C21.4296 10.5788 20.2766 9.42689 18.8555 9.42676H12.8535V11.1436C12.8532 11.6155 12.47 11.998 11.998 11.998C11.5262 11.9979 11.1429 11.6154 11.1426 11.1436V9.42676H7.91602ZM12.8535 4.28809H17.5693C18.2805 4.28809 18.8573 3.71115 18.8574 3C18.8573 2.28886 18.2805 1.71289 17.5693 1.71289H12.8535V4.28809Z" fill="black"/>
</svg>
