<svg width="24" height="24" viewBox="0 0 24 24" fill="none" xmlns="http://www.w3.org/2000/svg">
<path fill-rule="evenodd" clip-rule="evenodd" d="M12 11.8477C13.0657 11.8478 14.0882 12.2718 14.8418 13.0254C15.5954 13.7791 16.0195 14.8014 16.0195 15.8672C16.0195 16.933 15.5954 17.9553 14.8418 18.709C14.382 19.1687 13.8214 19.5043 13.2129 19.6973C13.7659 19.8018 14.3054 19.976 14.8164 20.2197C15.2363 20.42 15.6311 20.6656 15.9971 20.9482C16.2145 20.6529 16.4646 20.3816 16.7422 20.1387C17.1626 19.7707 17.64 19.476 18.1543 19.2646C18.0083 19.16 17.8698 19.0437 17.7412 18.915C17.1194 18.2932 16.7695 17.4498 16.7695 16.5703C16.7695 15.6909 17.1194 14.8474 17.7412 14.2256C18.363 13.6039 19.2066 13.2539 20.0859 13.2539C20.9652 13.254 21.8089 13.6038 22.4307 14.2256C23.0524 14.8474 23.4023 15.691 23.4023 16.5703C23.4023 17.4496 23.0524 18.2932 22.4307 18.915C22.3013 19.0445 22.1606 19.1605 22.0137 19.2656C22.3776 19.4153 22.7245 19.6068 23.0459 19.8379C23.4286 20.1137 23.5157 20.6481 23.2402 21.0312C22.9645 21.414 22.43 21.5008 22.0469 21.2256C21.638 20.9317 21.1676 20.7337 20.6719 20.6455C20.176 20.5574 19.6668 20.5818 19.1816 20.7168C18.6963 20.8519 18.2473 21.094 17.8682 21.4258C17.6077 21.6538 17.3853 21.9203 17.207 22.2148C17.3507 22.5564 17.2602 22.9649 16.958 23.21C16.5911 23.5071 16.052 23.4509 15.7549 23.084C15.302 22.5246 14.7297 22.0736 14.0801 21.7637C13.4305 21.4538 12.7197 21.293 12 21.293C11.2803 21.293 10.5696 21.4538 9.91992 21.7637C9.27024 22.0736 8.6971 22.5246 8.24414 23.084C7.947 23.4507 7.4089 23.5069 7.04199 23.21C6.73989 22.9652 6.64882 22.5572 6.79199 22.2158C6.61342 21.9211 6.39135 21.6539 6.13086 21.4258C5.75206 21.0943 5.30322 20.8519 4.81836 20.7168C4.33315 20.5817 3.82304 20.5574 3.32715 20.6455C2.83124 20.7337 2.36112 20.9316 1.95215 21.2256C1.569 21.5011 1.0346 21.414 0.758789 21.0312C0.483148 20.6479 0.570782 20.1136 0.954102 19.8379C1.27515 19.6071 1.62093 19.4152 1.98438 19.2656C1.83777 19.1607 1.69849 19.0442 1.56934 18.915C0.986267 18.332 0.643123 17.5541 0.602539 16.7344L0.59668 16.5703C0.59668 15.6909 0.947477 14.8474 1.56934 14.2256C2.19117 13.6039 3.03474 13.2539 3.91406 13.2539C4.79333 13.254 5.63705 13.6038 6.25879 14.2256C6.8805 14.8474 7.23047 15.691 7.23047 16.5703L7.22559 16.7344C7.18501 17.554 6.84172 18.332 6.25879 18.915C6.12989 19.0439 5.99003 19.1598 5.84375 19.2646C6.35845 19.476 6.83716 19.7705 7.25781 20.1387C7.53497 20.3813 7.78308 20.6533 8 20.9482C8.36643 20.665 8.76305 20.4203 9.18359 20.2197C9.69411 19.9762 10.2327 19.8018 10.7852 19.6973C10.1771 19.5043 9.61769 19.1684 9.1582 18.709C8.45158 18.0024 8.0356 17.0598 7.98633 16.0664L7.98047 15.8672C7.98047 14.8013 8.40448 13.7791 9.1582 13.0254C9.9119 12.2718 10.9342 11.8477 12 11.8477ZM3.91406 14.9648C3.48826 14.9648 3.07947 15.1336 2.77832 15.4346C2.47715 15.7357 2.30859 16.1444 2.30859 16.5703C2.30859 16.9962 2.47715 17.4049 2.77832 17.7061C3.07947 18.0071 3.48826 18.1758 3.91406 18.1758C4.33981 18.1757 4.74875 18.0071 5.0498 17.7061C5.35082 17.4049 5.51953 16.9961 5.51953 16.5703L5.51172 16.4111C5.47513 16.0438 5.31307 15.6979 5.0498 15.4346C4.74875 15.1335 4.33981 14.965 3.91406 14.9648ZM12 13.5586C11.3877 13.5586 10.8002 13.8015 10.3672 14.2344C9.93415 14.6674 9.69141 15.2548 9.69141 15.8672L9.70215 16.0957C9.7547 16.6242 9.98836 17.1212 10.3672 17.5C10.8002 17.9329 11.3877 18.1758 12 18.1758C12.6122 18.1757 13.1999 17.9329 13.6328 17.5C14.0657 17.067 14.3086 16.4795 14.3086 15.8672C14.3086 15.2549 14.0657 14.6674 13.6328 14.2344C13.1999 13.8015 12.6122 13.5587 12 13.5586ZM20.0859 14.9648C19.6601 14.9648 19.2513 15.1336 18.9502 15.4346C18.649 15.7357 18.4805 16.1444 18.4805 16.5703C18.4805 16.9962 18.649 17.4049 18.9502 17.7061C19.2513 18.0071 19.6601 18.1758 20.0859 18.1758C20.5117 18.1757 20.9206 18.0071 21.2217 17.7061C21.5227 17.4049 21.6914 16.9961 21.6914 16.5703C21.6914 16.1445 21.5227 15.7357 21.2217 15.4346C20.9206 15.1335 20.5117 14.965 20.0859 14.9648Z" fill="black"/>
<path fill-rule="evenodd" clip-rule="evenodd" d="M21.1406 0.597656C21.7402 0.597786 22.3153 0.836791 22.7393 1.26074C23.1632 1.68479 23.4023 2.25977 23.4023 2.85938V7.07812C23.4023 7.67773 23.1632 8.25271 22.7393 8.67676C22.3153 9.10071 21.7402 9.33971 21.1406 9.33984H13.7598L12.6045 10.4941C12.2706 10.8278 11.7293 10.8277 11.3955 10.4941L10.2402 9.33887H2.85938C2.25977 9.33887 1.68479 9.0997 1.26074 8.67578C0.836688 8.25172 0.59668 7.67686 0.59668 7.07715V2.85938C0.59668 2.25965 0.836676 1.68481 1.26074 1.26074C1.68479 0.836828 2.25977 0.597656 2.85938 0.597656H21.1406ZM2.85938 2.30859C2.71329 2.30859 2.57308 2.3665 2.46973 2.46973C2.36635 2.57311 2.30859 2.71317 2.30859 2.85938V7.07715C2.30859 7.22334 2.36636 7.36342 2.46973 7.4668C2.57308 7.57002 2.71329 7.62891 2.85938 7.62891H10.5938L10.6787 7.63281C10.8741 7.65243 11.0582 7.73884 11.1982 7.87891L12 8.68066L12.8018 7.87988L12.8643 7.82324C13.0164 7.69863 13.2079 7.62891 13.4062 7.62891H21.1406L21.249 7.61914C21.3547 7.59787 21.4529 7.54513 21.5303 7.46777C21.6335 7.36442 21.6914 7.22421 21.6914 7.07812V2.85938C21.6914 2.71329 21.6335 2.57308 21.5303 2.46973C21.427 2.36646 21.2866 2.30872 21.1406 2.30859H2.85938Z" fill="black"/>
</svg>
