<svg width="24" height="24" viewBox="0 0 24 24" fill="none" xmlns="http://www.w3.org/2000/svg">
<path fill-rule="evenodd" clip-rule="evenodd" d="M20.6172 1.65626C22.2809 1.10174 23.999 2.34009 23.999 4.09376V18.1934C23.9987 19.9467 22.2806 21.1851 20.6172 20.6309L7.57715 16.2842H5.99902V17.1436C5.99936 19.038 7.53523 20.5741 9.42969 20.5742C9.90164 20.5744 10.2849 20.9568 10.2852 21.4287C10.2849 21.9006 9.90162 22.2841 9.42969 22.2842C6.59082 22.2841 4.2894 19.9824 4.28906 17.1436V16.2109C1.85729 15.8036 0.00323116 13.691 0.00292969 11.1436C0.00292969 8.30442 2.30539 6.00294 5.14453 6.00294H7.57715L20.6172 1.65626ZM22.2891 4.09376C22.2891 3.50728 21.7146 3.09295 21.1582 3.27833L8.57031 7.47364V14.8125L21.1582 19.0088C21.7143 19.1938 22.2887 18.7795 22.2891 18.1934V4.09376ZM5.14453 7.7129C3.2498 7.7129 1.71387 9.24883 1.71387 11.1436C1.7142 13.038 3.25001 14.5742 5.14453 14.5742H6.86035L6.86133 7.7129H5.14453Z" fill="black"/>
</svg>
