<svg width="24" height="24" viewBox="0 0 24 24" fill="none" xmlns="http://www.w3.org/2000/svg">
<path fill-rule="evenodd" clip-rule="evenodd" d="M6.85547 14.5732C8.27431 14.5732 9.42458 15.7238 9.4248 17.1426C9.42467 18.5614 8.27436 19.7119 6.85547 19.7119C5.43688 19.7116 4.28626 18.5612 4.28613 17.1426C4.28636 15.724 5.43694 14.5736 6.85547 14.5732ZM6.85547 16.2842C6.38134 16.2845 5.9973 16.6684 5.99707 17.1426C5.9972 17.6168 6.38128 18.0016 6.85547 18.002C7.32996 18.002 7.71471 17.617 7.71484 17.1426C7.71462 16.6682 7.3299 16.2842 6.85547 16.2842Z" fill="black"/>
<path d="M5.1416 5.14453C5.61381 5.14453 5.99707 5.5278 5.99707 6V7.71387C5.99707 8.18607 5.61381 8.56934 5.1416 8.56934C4.66951 8.5692 4.28613 8.18599 4.28613 7.71387V6C4.28613 5.52788 4.66951 5.14466 5.1416 5.14453Z" fill="black"/>
<path d="M8.57031 5.14453C9.04252 5.14453 9.42578 5.5278 9.42578 6V7.71387C9.42578 8.18607 9.04252 8.56934 8.57031 8.56934C8.09811 8.56934 7.71484 8.18607 7.71484 7.71387V6C7.71484 5.5278 8.09811 5.14453 8.57031 5.14453Z" fill="black"/>
<path fill-rule="evenodd" clip-rule="evenodd" d="M9.05957 0.858398C11.0367 0.858398 12.66 2.37174 12.8369 4.30273C14.7687 4.47862 16.282 6.10348 16.2822 8.08105V19.7139C16.2822 20.6618 17.0511 21.4307 17.999 21.4307C18.9469 21.4305 19.7158 20.6617 19.7158 19.7139V16.9922C18.7172 16.6398 18.001 15.6904 18.001 14.5713V10.2852C18.0013 9.16663 18.7168 8.21692 19.7148 7.86426V1.71484C19.7148 1.24264 20.0981 0.858398 20.5703 0.858398C21.0425 0.858398 21.4258 1.24264 21.4258 1.71484V7.86523C22.4232 8.21814 23.1394 9.16694 23.1396 10.2852V14.5713C23.1396 15.6897 22.4234 16.6383 21.4258 16.9912V19.7139C21.4258 21.6061 19.8913 23.1405 17.999 23.1406C16.1067 23.1406 14.5723 21.6062 14.5723 19.7139V8.08105C14.572 7.05509 13.8299 6.20482 12.8535 6.03223V19.3477C12.8532 21.4426 11.1546 23.1416 9.05957 23.1416H4.65137C2.55659 23.1413 0.857772 21.4424 0.857422 19.3477V4.65332C0.857585 2.5584 2.55647 0.858692 4.65137 0.858398H9.05957ZM2.56836 19.3477C2.56871 20.498 3.501 21.4313 4.65137 21.4316H9.05957C10.2102 21.4316 11.1432 20.4982 11.1436 19.3477V12.8555H2.56836V19.3477ZM20.5703 9.42676C20.0962 9.42698 19.7123 9.81103 19.7119 10.2852V14.5713C19.7119 15.0457 20.0959 15.4304 20.5703 15.4307C21.0447 15.4304 21.4297 15.0457 21.4297 14.5713V10.2852C21.4293 9.81105 21.0444 9.42702 20.5703 9.42676ZM4.65137 2.57031C3.50088 2.57061 2.56852 3.5028 2.56836 4.65332V11.1445H11.1436V4.65332C11.1434 3.50262 10.2103 2.57031 9.05957 2.57031H4.65137Z" fill="black"/>
</svg>
