<svg width="24" height="24" viewBox="0 0 24 24" fill="none" xmlns="http://www.w3.org/2000/svg">
<path fill-rule="evenodd" clip-rule="evenodd" d="M22.2881 1.71582C23.2332 1.71616 23.9999 2.4834 24 3.42871V16.2852C24 17.2306 23.2333 17.9977 22.2881 17.998H12.8574V20.5732H17.1455C17.6173 20.5737 18 20.9568 18 21.4287C17.9999 21.9005 17.6172 22.2837 17.1455 22.2842H6.85938C6.38725 22.2842 6.00404 21.9008 6.00391 21.4287C6.00391 20.9565 6.38717 20.5732 6.85938 20.5732H11.1465V17.998H1.7168C0.771205 17.998 0.00292969 17.2307 0.00292969 16.2852V3.42871C0.00306171 2.48324 0.771286 1.71582 1.7168 1.71582H22.2881ZM22.2881 3.42676H1.7168L1.71582 3.42578L1.71387 3.42773L1.71484 3.42871V16.2852L1.71387 16.2861L1.71582 16.2881H11.9844C11.9901 16.288 11.9962 16.2871 12.002 16.2871C12.0078 16.2871 12.0137 16.288 12.0195 16.2881H22.2881L22.29 16.2861V3.42773L22.2881 3.42676Z" fill="black"/>
</svg>
