<svg width="24" height="24" viewBox="0 0 24 24" fill="none" xmlns="http://www.w3.org/2000/svg">
<path d="M22.2861 18.002C22.7581 18.0022 23.1416 18.3854 23.1416 18.8574C23.1415 19.3294 22.758 19.7126 22.2861 19.7129H1.71484C1.24272 19.7129 0.85853 19.3295 0.858398 18.8574C0.858398 18.3852 1.24264 18.002 1.71484 18.002H22.2861Z" fill="black"/>
<path d="M22.2861 11.1445C22.7581 11.1448 23.1416 11.528 23.1416 12C23.1416 12.472 22.7581 12.8552 22.2861 12.8555H1.71484C1.24264 12.8555 0.858398 12.4722 0.858398 12C0.858398 11.5278 1.24264 11.1445 1.71484 11.1445H22.2861Z" fill="black"/>
<path d="M22.2861 4.28711C22.758 4.28737 23.1415 4.67065 23.1416 5.14258C23.1416 5.61462 22.7581 5.99778 22.2861 5.99805H1.71484C1.24264 5.99805 0.858398 5.61478 0.858398 5.14258C0.85853 4.67049 1.24272 4.28711 1.71484 4.28711H22.2861Z" fill="black"/>
</svg>
