<svg width="24" height="24" viewBox="0 0 24 24" fill="none" xmlns="http://www.w3.org/2000/svg">
<path d="M7.15687 11.3271C7.62352 11.3989 7.94438 11.8351 7.87269 12.3018L6.99476 18.002H11.1432V17.1426C11.1433 16.6705 11.5266 16.2872 11.9987 16.2871C12.4708 16.2871 12.854 16.6705 12.8541 17.1426V18.002H13.7125C14.1847 18.002 14.568 18.3852 14.568 18.8574C14.5679 19.3295 14.1847 19.7129 13.7125 19.7129H4.28383C3.80978 19.7133 3.42565 20.0972 3.42543 20.5713V21.4287C3.42556 21.9029 3.80972 22.2876 4.28383 22.2881H17.9987C18.4708 22.2882 18.8532 22.6714 18.8532 23.1436C18.8528 23.6154 18.4706 23.998 17.9987 23.998H4.28383C2.86534 23.9976 1.71462 22.8473 1.71449 21.4287V20.5713C1.71472 19.1527 2.86539 18.0024 4.28383 18.002H5.26527L6.18226 12.042C6.25404 11.5754 6.69033 11.2556 7.15687 11.3271Z" fill="black"/>
<path fill-rule="evenodd" clip-rule="evenodd" d="M0.251599 0.25293C0.585498 -0.0809686 1.12669 -0.0809686 1.46058 0.25293L8.59535 7.38672C9.20965 7.04953 9.91383 6.85938 10.6559 6.85938H13.3444C15.4583 6.85969 17.2563 8.40274 17.5778 10.4922L18.6461 17.4375L23.7467 22.5381C24.0805 22.872 24.0806 23.4142 23.7467 23.748C23.4129 24.0818 22.8706 24.0818 22.5368 23.748L0.251599 1.46191C-0.0822688 1.12805 -0.082209 0.586835 0.251599 0.25293ZM10.6559 8.57031C10.3915 8.57031 10.1357 8.61173 9.89418 8.68652L16.6012 15.3926L15.8873 10.752C15.6941 9.49679 14.6143 8.57062 13.3444 8.57031H10.6559Z" fill="black"/>
<path d="M20.8229 2.82422C21.1568 2.49032 21.699 2.49032 22.0329 2.82422C22.3663 3.15807 22.3664 3.69941 22.0329 4.0332L19.608 6.45801C19.2742 6.79147 18.7329 6.79143 18.3991 6.45801C18.0652 6.12414 18.0653 5.58195 18.3991 5.24805L20.8229 2.82422Z" fill="black"/>
<path d="M11.9987 0.00195312C12.4709 0.00195312 12.8541 0.385218 12.8541 0.857422V4.28613C12.8539 4.75816 12.4707 5.14062 11.9987 5.14062C11.5267 5.14053 11.1434 4.7581 11.1432 4.28613V0.857422C11.1432 0.385278 11.5265 0.00205015 11.9987 0.00195312Z" fill="black"/>
</svg>
