<svg width="24" height="24" viewBox="0 0 24 24" fill="none" xmlns="http://www.w3.org/2000/svg">
<path fill-rule="evenodd" clip-rule="evenodd" d="M0.25243 0.251821C0.58622 -0.0817084 1.12757 -0.0816149 1.46141 0.251821L3.03856 1.82897C3.15146 1.76656 3.26273 1.7104 3.36962 1.66198C3.70047 1.51213 4.06189 1.38988 4.31591 1.29674C6.81044 0.382182 9.28737 -0.0211954 12.0073 0.00377385C14.7049 0.0285863 17.172 0.378776 19.6733 1.29674C20.0595 1.43844 20.7043 1.64601 21.2153 1.98913C21.7814 2.36935 22.287 2.98146 22.2827 3.92077V11.4618C22.2827 14.0982 21.4256 16.6105 19.9516 18.7421L23.7475 22.538C24.081 22.8718 24.0811 23.4131 23.7475 23.7469C23.4136 24.0808 22.8715 24.0808 22.5376 23.7469L18.2466 19.4559C18.2347 19.4449 18.2235 19.4333 18.2124 19.4217L2.35692 3.5653C2.35442 3.56291 2.35159 3.56088 2.34911 3.55846C2.34472 3.55416 2.3407 3.54916 2.33641 3.54479L0.25243 1.46081C-0.0810862 1.12688 -0.081341 0.585591 0.25243 0.251821ZM11.9917 1.71373C9.46407 1.69052 7.19262 2.06302 4.9038 2.90221C4.69328 2.9794 4.50551 3.04708 4.32665 3.11706L18.7192 17.5096C19.9027 15.6998 20.5727 13.619 20.5727 11.4618V3.91491C20.5742 3.70284 20.4995 3.56854 20.2622 3.40905C19.9685 3.21179 19.5842 3.08563 19.0845 2.90221C16.807 2.06635 14.5417 1.73719 11.9917 1.71373Z" fill="black"/>
<path d="M2.56102 6.8358C3.03323 6.8358 3.41649 7.21907 3.41649 7.69127V11.4618C3.41657 13.8348 4.22283 16.1191 5.6372 18.0467C7.09584 20.0347 8.89624 21.2592 11.2222 22.1376C11.7129 22.3215 12.2857 22.3216 12.7768 22.1385L13.1811 21.9794C14.1114 21.5996 14.948 21.1631 15.7095 20.6356C16.0976 20.367 16.6301 20.4635 16.8989 20.8514C17.1677 21.2396 17.0712 21.773 16.6831 22.0419C15.6747 22.7403 14.5767 23.2834 13.3843 23.7372L13.3804 23.7381C12.5013 24.0676 11.4996 24.0677 10.6206 23.7381L10.6186 23.7372C8.0421 22.7642 5.94731 21.3595 4.25829 19.0575C2.64711 16.8614 1.70564 14.2281 1.70555 11.4618V7.69127C1.70555 7.21912 2.08888 6.83588 2.56102 6.8358Z" fill="black"/>
</svg>
