<svg width="24" height="24" viewBox="0 0 24 24" fill="none" xmlns="http://www.w3.org/2000/svg">
<path fill-rule="evenodd" clip-rule="evenodd" d="M5.4255 9.31445C5.89762 9.31445 6.28083 9.69783 6.28097 10.1699V18.7598H7.50167L7.62179 18.7686C7.89726 18.8075 8.13949 18.9792 8.26632 19.2324L9.65108 22.002C9.78353 22.267 9.76973 22.582 9.61397 22.834C9.45816 23.0859 9.18266 23.2393 8.88643 23.2393H1.96358C1.66736 23.2392 1.39182 23.0859 1.23604 22.834C1.08036 22.582 1.06657 22.2669 1.19893 22.002L2.5837 19.2324L2.64425 19.1289C2.80235 18.9 3.0651 18.7598 3.34835 18.7598H4.57003V10.1699C4.57016 9.69792 4.9535 9.3146 5.4255 9.31445ZM3.34737 21.5293H7.50265L6.97335 20.4707H3.87667L3.34737 21.5293Z" fill="black"/>
<path fill-rule="evenodd" clip-rule="evenodd" d="M7.50265 0.759766C8.28015 0.759825 9.0261 1.06936 9.57589 1.61914C10.1256 2.16896 10.4343 2.91489 10.4343 3.69238V9.22461L11.5808 10.3711C11.7679 9.39225 12.244 8.48328 12.9587 7.76855C13.898 6.82928 15.1723 6.30082 16.5007 6.30078C17.8288 6.3009 19.1025 6.82947 20.0417 7.76855C20.981 8.70784 21.5094 9.98221 21.5095 11.3105V16.7666C21.6221 16.8551 21.7304 16.9505 21.8327 17.0527C22.5122 17.7324 22.8942 18.6551 22.8942 19.6162C22.8941 20.2001 22.75 20.7679 22.487 21.2773L22.8913 21.6816C23.2252 22.0155 23.2252 22.5567 22.8913 22.8906C22.5574 23.2241 22.0161 23.2243 21.6823 22.8906L11.7517 12.96C11.7451 12.9536 11.7385 12.947 11.7321 12.9404L1.11104 2.31934C0.777292 1.98558 0.777586 1.44429 1.11104 1.11035C1.44494 0.776453 1.98613 0.776453 2.32003 1.11035L4.58761 3.37793C4.65907 2.71599 4.95429 2.09437 5.4294 1.61914C5.97918 1.06936 6.72515 0.759838 7.50265 0.759766ZM19.2702 17.7021C19.1588 17.7022 19.0484 17.7115 18.9401 17.7305L21.155 19.9453C21.1739 19.8373 21.1842 19.7273 21.1843 19.6162C21.1843 19.1087 20.9825 18.6216 20.6237 18.2627C20.2648 17.9037 19.7779 17.7022 19.2702 17.7021ZM16.5007 8.01172C15.6259 8.01176 14.7863 8.35895 14.1677 8.97754C13.5491 9.59614 13.2019 10.4357 13.2019 11.3105V11.9922L17.6081 16.3984C18.1177 16.135 18.686 15.9912 19.2702 15.9912C19.4484 15.9912 19.6253 16.0036 19.7995 16.0293V11.3105C19.7995 10.4357 19.4513 9.59614 18.8327 8.97754C18.2142 8.35914 17.3753 8.01184 16.5007 8.01172ZM7.50265 2.4707C7.17867 2.47077 6.86748 2.59903 6.63839 2.82812C6.40939 3.05726 6.28097 3.36843 6.28097 3.69238V5.07129L8.72432 7.51465V3.69238C8.72432 3.36841 8.59592 3.05726 8.3669 2.82812C8.1378 2.59903 7.82663 2.47076 7.50265 2.4707Z" fill="black"/>
<path d="M12.3464 16.2383C12.8186 16.2383 13.2019 16.6215 13.2019 17.0938V20.1455H16.2526C16.7248 20.1455 17.108 20.5279 17.1081 21C17.108 21.4721 16.7248 21.8555 16.2526 21.8555H13.0388C12.6286 21.8554 12.2351 21.6922 11.945 21.4023C11.6549 21.1122 11.491 20.7179 11.4909 20.3076V17.0938C11.4909 16.6216 11.8743 16.2384 12.3464 16.2383Z" fill="black"/>
</svg>
