<svg width="24" height="24" viewBox="0 0 24 24" fill="none" xmlns="http://www.w3.org/2000/svg">
<path d="M15.0225 7.94531C15.3679 7.62395 15.9087 7.64324 16.2305 7.98828C17.1907 9.01927 17.7792 10.4051 17.7793 11.9258C17.7792 15.1166 15.1927 17.703 12.002 17.7031C8.81116 17.7031 6.22378 15.1165 6.22363 11.9258C6.2237 10.4051 6.81322 9.01929 7.77344 7.98828C8.09521 7.64325 8.63603 7.62393 8.98145 7.94531C9.32697 8.26712 9.34617 8.80874 9.02441 9.1543C8.34736 9.88133 7.93463 10.8545 7.93457 11.9258C7.93471 14.1722 9.75558 15.9931 12.002 15.9932C14.2483 15.9931 16.0692 14.1721 16.0693 11.9258C16.0693 10.8546 15.6565 9.88134 14.9795 9.1543C14.6579 8.80874 14.677 8.26708 15.0225 7.94531Z" fill="black"/>
<path d="M12.001 5.70703C12.4732 5.70703 12.8564 6.0903 12.8564 6.5625V11.0254C12.8562 11.4974 12.473 11.8799 12.001 11.8799C11.529 11.8798 11.1457 11.4973 11.1455 11.0254V6.5625C11.1455 6.09034 11.5288 5.7071 12.001 5.70703Z" fill="black"/>
<path fill-rule="evenodd" clip-rule="evenodd" d="M12.001 0.00195312C15.183 0.00198547 18.2353 1.2666 20.4854 3.5166C22.7351 5.76653 23.9989 8.81826 23.999 12C23.999 15.1819 22.7353 18.2344 20.4854 20.4844C18.2354 22.7343 15.1829 23.998 12.001 23.998C8.81923 23.998 5.76751 22.7341 3.51758 20.4844C1.2676 18.2344 0.00299437 15.1819 0.00292969 12C0.00300368 8.8181 1.26765 5.76656 3.51758 3.5166C5.76755 1.26663 8.81905 0.00202712 12.001 0.00195312ZM12.001 1.71289C9.27257 1.71296 6.65584 2.7963 4.72656 4.72559C2.79732 6.65486 1.71394 9.27162 1.71387 12C1.71393 14.7283 2.79745 17.3452 4.72656 19.2744C6.65583 21.2036 9.27265 22.288 12.001 22.2881C14.7294 22.2881 17.3461 21.2037 19.2754 19.2744C21.2047 17.3451 22.289 14.7284 22.2891 12C22.289 9.27168 21.2046 6.65485 19.2754 4.72559C17.3461 2.79644 14.7293 1.71292 12.001 1.71289Z" fill="black"/>
</svg>
