<svg width="24" height="24" viewBox="0 0 24 24" fill="none" xmlns="http://www.w3.org/2000/svg">
<path d="M18.1829 2.69043C18.4735 2.31845 19.0109 2.25245 19.3831 2.54297C21.3521 4.08028 22.7921 6.19392 23.5022 8.58887C24.2125 10.9841 24.1571 13.542 23.344 15.9043C22.5311 18.2665 21.0008 20.3157 18.9671 21.7666C16.9334 23.2173 14.4975 23.998 11.9993 23.998C9.65722 23.998 7.36972 23.3123 5.41725 22.0312L5.03151 21.7666C2.9979 20.3157 1.46749 18.2665 0.654552 15.9043C-0.158399 13.542 -0.213838 10.9841 0.496349 8.58887C1.20657 6.19377 2.64735 4.08032 4.61647 2.54297C4.98866 2.25252 5.52611 2.31828 5.81666 2.69043C6.10716 3.0626 6.04033 3.60004 5.66822 3.89062C3.9798 5.20888 2.74496 7.02149 2.136 9.0752C1.52703 11.129 1.57466 13.322 2.27174 15.3477C2.96883 17.3733 4.28077 19.1308 6.02467 20.375C7.76847 21.6189 9.85721 22.288 11.9993 22.2881C14.1415 22.2881 16.231 21.619 17.9749 20.375C19.7187 19.1308 21.0308 17.3732 21.7278 15.3477C22.425 13.3221 22.4716 11.129 21.8626 9.0752C21.2537 7.02149 20.0188 5.20886 18.3303 3.89062C17.9583 3.60001 17.8923 3.06257 18.1829 2.69043Z" fill="black"/>
<path d="M11.9993 0.00195312C12.4715 0.00195312 12.8547 0.385218 12.8547 0.857422V10.2861C12.8545 10.7582 12.4714 11.1406 11.9993 11.1406C11.5273 11.1406 11.144 10.7581 11.1438 10.2861V0.857422C11.1438 0.385259 11.5271 0.00201919 11.9993 0.00195312Z" fill="black"/>
</svg>
