<svg width="24" height="24" viewBox="0 0 24 24" fill="none" xmlns="http://www.w3.org/2000/svg">
<path d="M23.1436 17.1446C23.6154 17.1449 23.998 17.5281 23.998 18C23.998 18.472 23.6155 18.8552 23.1436 18.8555H0.857422C0.385218 18.8555 0.00195312 18.4722 0.00195312 18C0.0019779 17.5279 0.385234 17.1446 0.857422 17.1446H23.1436Z" fill="black"/>
<path d="M10.6299 4.98246C11.4701 4.4655 12.5299 4.46546 13.3701 4.98246L23.5908 11.2715C23.9928 11.519 24.1184 12.0462 23.8711 12.4483C23.6237 12.85 23.0973 12.9755 22.6953 12.7286L12.4746 6.43852C12.184 6.25968 11.817 6.25977 11.5264 6.43852L1.30566 12.7286C0.903549 12.9759 0.37639 12.8503 0.128906 12.4483C-0.118574 12.0461 0.00702366 11.519 0.40918 11.2715L10.6299 4.98246Z" fill="black"/>
</svg>
