<svg width="24" height="24" viewBox="0 0 24 24" fill="none" xmlns="http://www.w3.org/2000/svg">
<path d="M7.71289 8.57324C8.18497 8.57339 8.56738 8.9566 8.56738 9.42871V11.1426C8.56727 13.2152 7.09528 14.9442 5.13965 15.3408V23.1426C5.13952 23.6146 4.75625 23.998 4.28418 23.998C3.81206 23.998 3.42884 23.6147 3.42871 23.1426V15.3408C1.47283 14.9443 0.000115636 13.2153 0 11.1426V9.42871C0 8.95651 0.383265 8.57324 0.855469 8.57324C1.32767 8.57324 1.71094 8.95651 1.71094 9.42871V11.1426C1.71104 12.2635 2.42865 13.2143 3.42871 13.5674V9.42871C3.42871 8.95651 3.81198 8.57324 4.28418 8.57324C4.75633 8.57331 5.13965 8.95655 5.13965 9.42871V13.5674C6.13969 13.2143 6.85732 12.2635 6.85742 11.1426V9.42871C6.85742 8.95651 7.24069 8.57324 7.71289 8.57324Z" fill="black"/>
<path fill-rule="evenodd" clip-rule="evenodd" d="M11.1416 8.57324C12.4645 8.57341 13.3336 9.50158 13.874 10.4922C14.4213 11.4957 14.7625 12.7808 14.9824 13.9902C15.2048 15.2137 15.3154 16.4287 15.3701 17.332C15.3976 17.785 15.4111 18.1637 15.418 18.4297C15.4214 18.5627 15.4229 18.6685 15.4238 18.7412C15.4243 18.7774 15.4247 18.8057 15.4248 18.8252V18.8574C15.4246 19.3293 15.0422 19.7116 14.5703 19.7119H11.9971V23.1436C11.9967 23.6153 11.6134 23.9978 11.1416 23.998C10.6696 23.998 10.2865 23.6155 10.2861 23.1436V9.42871C10.2861 8.95651 10.6694 8.57324 11.1416 8.57324ZM11.9971 18.002H13.6924C13.6852 17.8327 13.6756 17.6422 13.6631 17.4355C13.6107 16.5713 13.5068 15.4291 13.3008 14.2959C13.0922 13.1485 12.7898 12.0758 12.373 11.3115C12.2478 11.0819 12.1206 10.8997 11.9971 10.7549V18.002Z" fill="black"/>
<path fill-rule="evenodd" clip-rule="evenodd" d="M19.2842 0.00195312C19.7563 0.00208524 20.1396 0.3853 20.1396 0.857422V2.26953C20.5959 2.4053 21.0049 2.64801 21.3418 2.9668L22.5674 2.25977C22.9763 2.02388 23.4993 2.16349 23.7354 2.57227C23.9714 2.98119 23.8308 3.50412 23.4219 3.74023L22.1963 4.44727C22.2495 4.67072 22.2822 4.90288 22.2822 5.14258C22.2822 5.38229 22.2494 5.61444 22.1963 5.83789L23.4219 6.5459C23.8308 6.78198 23.9713 7.30496 23.7354 7.71387C23.4992 8.12237 22.9761 8.26221 22.5674 8.02637L21.3408 7.31836C21.0041 7.63683 20.5956 7.87895 20.1396 8.01465V9.42871C20.1394 9.90061 19.7561 10.284 19.2842 10.2842C18.8121 10.2842 18.429 9.90069 18.4287 9.42871V8.01465C17.9724 7.87897 17.5625 7.63801 17.2256 7.31934L16.002 8.02637C15.5932 8.2622 15.0702 8.12233 14.834 7.71387C14.598 7.30507 14.7379 6.78212 15.1465 6.5459L16.3701 5.83887C16.3168 5.6152 16.2861 5.38254 16.2861 5.14258C16.2862 4.90263 16.3168 4.66995 16.3701 4.44629L15.1465 3.74023C14.7378 3.50406 14.5979 2.98112 14.834 2.57227C15.0702 2.16353 15.5931 2.02372 16.002 2.25977L17.2256 2.96582C17.5626 2.64707 17.9723 2.40521 18.4287 2.26953V0.857422C18.4287 0.385218 18.812 0.00195312 19.2842 0.00195312ZM19.2842 3.85547C18.5731 3.85562 17.9972 4.43154 17.9971 5.14258C17.9971 5.85375 18.573 6.43051 19.2842 6.43066C19.9952 6.4304 20.5723 5.85368 20.5723 5.14258C20.5721 4.43161 19.9951 3.85573 19.2842 3.85547Z" fill="black"/>
</svg>
