<svg width="24" height="24" viewBox="0 0 24 24" fill="none" xmlns="http://www.w3.org/2000/svg">
<path d="M12.8589 20.5732C13.3311 20.5733 13.7144 20.9565 13.7144 21.4287V23.1426C13.7142 23.6146 13.331 23.998 12.8589 23.998C12.3868 23.998 12.0036 23.6147 12.0034 23.1426V21.4287C12.0034 20.9565 12.3867 20.5732 12.8589 20.5732Z" fill="black"/>
<path d="M17.144 20.5732C17.6163 20.5732 17.9995 20.9565 17.9995 21.4287V23.1426C17.9994 23.6147 17.6162 23.998 17.144 23.998C16.6721 23.9978 16.2887 23.6145 16.2886 23.1426V21.4287C16.2886 20.9566 16.672 20.5735 17.144 20.5732Z" fill="black"/>
<path d="M21.4302 20.5732C21.9023 20.5733 22.2857 20.9565 22.2857 21.4287V23.1426C22.2855 23.6146 21.9023 23.998 21.4302 23.998C20.9581 23.998 20.5748 23.6147 20.5747 23.1426V21.4287C20.5747 20.9565 20.958 20.5732 21.4302 20.5732Z" fill="black"/>
<path d="M14.5728 14.5732C15.045 14.5732 15.4282 14.9565 15.4282 15.4287V17.1426C15.4281 17.6147 15.0449 17.998 14.5728 17.998C14.1007 17.998 13.7174 17.6146 13.7173 17.1426V15.4287C13.7173 14.9566 14.1006 14.5733 14.5728 14.5732Z" fill="black"/>
<path d="M19.7163 14.5732C20.1884 14.5734 20.5718 14.9566 20.5718 15.4287V17.1426C20.5717 17.6146 20.1883 17.9979 19.7163 17.998C19.2442 17.998 18.861 17.6147 18.8608 17.1426V15.4287C18.8608 14.9565 19.2441 14.5732 19.7163 14.5732Z" fill="black"/>
<path fill-rule="evenodd" clip-rule="evenodd" d="M22.2866 0.859375C22.7588 0.859375 23.1421 1.24264 23.1421 1.71484C23.1418 2.18682 22.7587 2.57031 22.2866 2.57031C20.1822 2.57064 18.433 4.08629 18.0698 6.08594C20.4673 6.52195 22.2857 8.62039 22.2857 11.1436C22.2853 11.6154 21.9021 11.998 21.4302 11.998H12.8589C12.3869 11.998 12.0038 11.6155 12.0034 11.1436C12.0034 8.57742 13.8842 6.44894 16.3423 6.06348C16.7307 3.12636 19.2435 0.859709 22.2866 0.859375ZM17.145 7.71289C15.5455 7.71289 14.2018 8.80712 13.8218 10.2881H20.4673C20.0873 8.8073 18.7443 7.71312 17.145 7.71289Z" fill="black"/>
<path fill-rule="evenodd" clip-rule="evenodd" d="M4.71632 0.00195312C5.18836 0.00213606 5.57178 0.385331 5.57178 0.857422V2.26953C6.028 2.40534 6.43711 2.648 6.77393 2.9668L7.99952 2.25977C8.40841 2.02391 8.93144 2.16343 9.16749 2.57227C9.40352 2.98116 9.26284 3.50411 8.85401 3.74023L7.62842 4.44727C7.68158 4.67069 7.71336 4.90291 7.71339 5.14258C7.71339 5.38226 7.68157 5.61446 7.62842 5.83789L8.85401 6.5459C9.26269 6.78205 9.40343 7.30504 9.16749 7.71387C8.93138 8.1224 8.40828 8.26204 7.99952 8.02637L6.77296 7.31836C6.43628 7.63684 6.02769 7.87891 5.57178 8.01465V9.42871C5.57152 9.90058 5.1882 10.284 4.71632 10.2842C4.24427 10.2842 3.86111 9.90069 3.86085 9.42871V8.01465C3.40452 7.87901 2.99471 7.638 2.65772 7.31934L1.43409 8.02637C1.02537 8.26234 0.502408 8.12228 0.26612 7.71387C0.0300584 7.305 0.169841 6.78206 0.57862 6.5459L1.80225 5.83887C1.74897 5.61518 1.71729 5.38256 1.71729 5.14258C1.71731 4.90268 1.74801 4.66991 1.80128 4.44629L0.57862 3.74023C0.169888 3.50406 0.03007 2.98112 0.26612 2.57227C0.502336 2.16365 1.02529 2.02374 1.43409 2.25977L2.65772 2.96582C2.99476 2.64708 3.40444 2.40517 3.86085 2.26953V0.857422C3.86085 0.385218 4.24411 0.00195312 4.71632 0.00195312ZM4.71534 3.85547C4.24378 3.85562 3.83204 4.10922 3.60792 4.4873C3.60587 4.49097 3.60514 4.49538 3.60303 4.49902C3.59835 4.50713 3.59231 4.51457 3.58741 4.52246C3.48612 4.70637 3.42828 4.9177 3.42823 5.14258C3.42823 5.36445 3.48379 5.57358 3.58253 5.75586C3.58907 5.76616 3.59687 5.77644 3.60303 5.78711C3.60485 5.79026 3.60614 5.79371 3.60792 5.79688C3.8319 6.17575 4.24334 6.43051 4.71534 6.43066C5.4266 6.43066 6.00342 5.85384 6.00342 5.14258C6.00327 4.43144 5.42651 3.85547 4.71534 3.85547Z" fill="black"/>
</svg>
