<svg width="24" height="24" viewBox="0 0 24 24" fill="none" xmlns="http://www.w3.org/2000/svg">
<path d="M8.39859 1.09375C8.49332 1.10504 8.58651 1.12793 8.67594 1.16113L8.80777 1.21875L8.93082 1.29199C9.00984 1.34533 9.08234 1.40813 9.14664 1.47852L9.23746 1.58984L12.0666 5.55273L12.1545 5.69238C12.2059 5.78921 12.2442 5.89289 12.2677 6L12.2912 6.16406L12.2931 6.3291C12.2835 6.4934 12.24 6.65483 12.1652 6.80273C12.0653 7.00003 11.9136 7.1666 11.7257 7.2832C11.608 7.35627 11.4782 7.40456 11.3439 7.43359L13.4884 10.291C13.7718 10.6687 13.6953 11.2049 13.3175 11.4883C12.9398 11.7716 12.4036 11.6951 12.1203 11.3174L9.39567 7.68457C9.26139 7.50545 9.17853 7.29227 9.15836 7.06934C9.13829 6.84626 9.18123 6.62125 9.28141 6.4209L9.36637 6.27734C9.46081 6.13995 9.58294 6.02292 9.72574 5.93457L9.87418 5.85645C9.9552 5.82076 10.0404 5.79644 10.1271 5.7793L8.25504 3.15723L6.38199 5.78027C6.4663 5.79743 6.54921 5.82173 6.62809 5.85645L6.77652 5.93457L6.91227 6.03223C7.04041 6.13858 7.1458 6.2709 7.22086 6.4209C7.32103 6.62125 7.36398 6.84624 7.34391 7.06934C7.32373 7.29234 7.24094 7.50542 7.1066 7.68457L4.33609 11.3789H4.73551C4.9035 11.3789 5.06919 11.4142 5.22184 11.4814L5.37027 11.5596L5.50602 11.6572C5.63416 11.7636 5.73955 11.8959 5.81461 12.0459C5.91478 12.2462 5.95773 12.4712 5.93766 12.6943C5.91748 12.9173 5.83469 13.1304 5.70035 13.3096L2.92984 17.0039H8.25113C8.28076 17.0039 8.31017 17.0058 8.33902 17.0088C8.48273 17.0235 8.6159 17.0735 8.72965 17.1504C8.77503 17.1811 8.81701 17.2163 8.85563 17.2549C8.89424 17.2935 8.92941 17.3355 8.96012 17.3809C9.0526 17.5175 9.10655 17.6821 9.1066 17.8594V22.0781C9.1066 22.5503 8.72334 22.9336 8.25113 22.9336C7.779 22.9335 7.39567 22.5503 7.39567 22.0781V18.7139H1.92301C1.69899 18.7138 1.47881 18.652 1.28824 18.5342C1.09781 18.4164 0.944048 18.2472 0.843907 18.0469C0.743882 17.8467 0.700827 17.6223 0.720861 17.3994L0.748204 17.2344C0.786015 17.0718 0.85731 16.9177 0.958165 16.7832L3.72867 13.0889H3.32926C3.10524 13.0888 2.88506 13.027 2.69449 12.9092C2.50406 12.7914 2.3503 12.6222 2.25016 12.4219C2.15013 12.2217 2.10708 11.9973 2.12711 11.7744L2.15445 11.6094C2.19227 11.4468 2.26356 11.2927 2.36442 11.1582L5.15836 7.43164C5.02766 7.40226 4.90114 7.35444 4.78629 7.2832C4.59845 7.16656 4.44568 7.00004 4.34586 6.80273C4.24617 6.60554 4.20259 6.38435 4.21988 6.16406L4.2443 6C4.27922 5.84099 4.34616 5.68992 4.44156 5.55664L7.27457 1.59082C7.3862 1.43485 7.53368 1.30646 7.70426 1.21875L7.83512 1.16113C7.96932 1.11121 8.11207 1.08498 8.25602 1.08496L8.39859 1.09375Z" fill="black"/>
<path fill-rule="evenodd" clip-rule="evenodd" d="M19.5011 12.7852C20.1008 12.7852 20.6757 13.0242 21.0998 13.4482C21.5238 13.8723 21.7629 14.4472 21.7629 15.0469V18.4102H22.3136C22.7858 18.4102 23.1691 18.7934 23.1691 19.2656C23.1691 19.7378 22.7858 20.1211 22.3136 20.1211H20.3566V22.0781C20.3566 22.5503 19.9733 22.9336 19.5011 22.9336C19.029 22.9335 18.6457 22.5503 18.6457 22.0781V20.1211H14.7316V22.0781C14.7316 22.5503 14.3483 22.9336 13.8761 22.9336C13.404 22.9335 13.0207 22.5503 13.0207 22.0781V20.1211H11.0636C10.5915 20.121 10.2082 19.7378 10.2082 19.2656C10.2082 18.7935 10.5915 18.4102 11.0636 18.4102H11.6144V15.0469C11.6144 14.4472 11.8535 13.8723 12.2775 13.4482C12.7015 13.0242 13.2765 12.7852 13.8761 12.7852H19.5011ZM13.8761 14.4961C13.73 14.4961 13.5898 14.5539 13.4865 14.6572C13.3832 14.7606 13.3254 14.9007 13.3254 15.0469V18.4102H20.0519V15.0469C20.0519 14.9007 19.9942 14.7606 19.8908 14.6572C19.8133 14.5798 19.7154 14.5271 19.6095 14.5059L19.5011 14.4961H13.8761Z" fill="black"/>
</svg>
