<svg width="24" height="24" viewBox="0 0 24 24" fill="none" xmlns="http://www.w3.org/2000/svg">
<path fill-rule="evenodd" clip-rule="evenodd" d="M7.59019 1.54395C9.30617 1.54415 9.99441 3.60532 8.89487 4.70508C8.59474 5.00521 8.02058 5.5784 7.39683 6.20215C6.87183 6.72714 6.31074 7.28824 5.84605 7.75293V14.9004C5.84619 16.2541 6.43506 17.4758 7.4769 18.1973C8.57978 18.9608 9.92342 19.2063 11.1703 18.874C12.4529 18.532 13.5997 18.2099 14.8363 17.8457V16.1553H14.391C12.519 16.1551 10.936 14.5722 10.9359 12.7002V12.2002C10.9359 11.4062 11.3935 10.5931 12.1087 10.2354C12.9007 9.83938 13.6045 9.54136 14.1459 9.29492C14.7111 9.03763 15.0916 8.83931 15.3714 8.61816C15.6259 8.41698 15.7994 8.19413 15.9212 7.86426C16.052 7.51005 16.1361 6.99684 16.1361 6.2002C16.1361 5.72799 16.5193 5.34473 16.9916 5.34473C17.4879 5.34473 18.0582 5.37189 18.6224 5.66113C19.1906 5.95251 19.6424 6.45014 20.0716 7.15625C20.8235 8.39332 21.6724 10.5663 22.9583 14.3232C22.9923 14.3922 23.0164 14.4636 23.0306 14.5361C23.1501 14.8862 23.2745 15.2495 23.4017 15.627C23.5523 16.0744 23.312 16.5602 22.8646 16.7109C22.4172 16.8617 21.9325 16.6202 21.7816 16.1729C21.7587 16.1049 21.7349 16.0376 21.7123 15.9707L16.5462 18.9902V22.6006C16.5459 23.0724 16.1636 23.4549 15.6917 23.4551C15.2197 23.4551 14.8366 23.0725 14.8363 22.6006V19.6279C13.765 19.9396 12.7392 20.2254 11.6107 20.5264C9.85808 20.9935 8.00098 20.6396 6.50425 19.6035C4.94666 18.5251 4.13525 16.7461 4.13511 14.9004V7.75488L1.0853 4.70508C-0.0143777 3.6054 0.674091 1.54431 2.38999 1.54395H7.59019ZM17.8021 7.16602C17.7546 7.64686 17.6669 8.07462 17.5257 8.45703C17.2874 9.10243 16.9154 9.57783 16.432 9.95996C15.9737 10.3222 15.4223 10.5928 14.8539 10.8516C14.2615 11.1212 13.6285 11.3871 12.8734 11.7646C12.7888 11.8072 12.6468 11.9944 12.6468 12.2002V12.7002C12.647 13.6278 13.4634 14.4451 14.391 14.4453H15.6917C16.1636 14.4455 16.546 14.8279 16.5462 15.2998V17.0098L21.1488 14.3184C19.9674 10.8998 19.2231 9.05147 18.6107 8.04395C18.2652 7.4756 18.0175 7.27253 17.8421 7.18262C17.8294 7.17608 17.8153 7.17198 17.8021 7.16602ZM2.38999 3.25586C2.34682 3.25594 2.3288 3.2668 2.31968 3.27344C2.3059 3.28361 2.2861 3.30404 2.2728 3.33789C2.25937 3.37244 2.25742 3.40805 2.26206 3.43457C2.26603 3.45664 2.27452 3.47632 2.29429 3.49609C2.5943 3.7961 3.19488 4.39572 3.83237 5.0332C4.22428 5.42511 4.63036 5.83119 4.9896 6.19043C5.37102 5.80902 5.79022 5.39078 6.18784 4.99316C6.81135 4.36966 7.38469 3.79632 7.68491 3.49609C7.70465 3.47635 7.71412 3.45659 7.71812 3.43457C7.72277 3.40796 7.71995 3.37255 7.7064 3.33789C7.69299 3.30387 7.67427 3.28351 7.6605 3.27344C7.65135 3.26679 7.63345 3.2559 7.59019 3.25586H2.38999Z" fill="black"/>
</svg>
