<svg width="24" height="24" viewBox="0 0 24 24" fill="none" xmlns="http://www.w3.org/2000/svg">
<path fill-rule="evenodd" clip-rule="evenodd" d="M8.60776 12.0283C9.57331 11.5421 10.7103 11.2632 11.9535 11.5264C13.1926 11.7889 14.421 12.5657 15.6195 13.9639C15.8936 14.284 15.8936 14.7561 15.6195 15.0762C14.4209 16.4745 13.1927 17.2511 11.9535 17.5137C10.7103 17.7769 9.57333 17.4979 8.60776 17.0117C7.91137 16.661 7.28692 16.1946 6.74838 15.7207C6.68929 15.7843 6.63094 15.8468 6.57455 15.9082C6.33991 16.1636 6.10884 16.4198 5.9183 16.6104C5.58444 16.944 5.04317 16.9441 4.70932 16.6104C4.37577 16.2765 4.37569 15.7352 4.70932 15.4014C4.86624 15.2444 5.05869 15.0308 5.31576 14.751C5.384 14.6767 5.45597 14.5996 5.53061 14.5195C5.45623 14.4398 5.38377 14.3631 5.31576 14.2891C5.05882 14.0094 4.8662 13.7955 4.70932 13.6387C4.37584 13.3048 4.37559 12.7635 4.70932 12.4297C5.04309 12.096 5.58441 12.0962 5.9183 12.4297C6.10877 12.6202 6.34 12.8765 6.57455 13.1318C6.63071 13.193 6.68954 13.2551 6.74838 13.3184C7.28686 12.8446 7.9115 12.3789 8.60776 12.0283ZM11.599 13.1992C10.8316 13.0368 10.0935 13.1945 9.37631 13.5557C8.8813 13.805 8.41191 14.1444 7.97494 14.5195C8.41198 14.8948 8.88119 15.235 9.37631 15.4844C10.0935 15.8455 10.8315 16.0032 11.599 15.8408C12.2391 15.7052 12.9803 15.3287 13.8021 14.5195C12.9806 13.7109 12.2389 13.3348 11.599 13.1992Z" fill="black"/>
<path fill-rule="evenodd" clip-rule="evenodd" d="M19.6576 2.97754C19.8438 2.99518 20.0203 3.07393 20.1585 3.20215C21.9267 4.84177 23.1594 6.97636 23.6966 9.32715C24.2337 11.6778 24.0507 14.1361 23.1703 16.3809C22.2896 18.6257 20.7523 20.5535 18.7601 21.9121C16.7678 23.2707 14.4118 23.998 12.0003 23.998C9.58903 23.998 7.23379 23.2706 5.24155 21.9121C3.24919 20.5535 1.71206 18.6258 0.83139 16.3809C-0.0491318 14.136 -0.233091 11.6779 0.304046 9.32715C0.400449 8.90526 0.519188 8.49032 0.659515 8.08398C0.673919 8.02457 0.694945 7.96791 0.721039 7.91406C1.3696 6.12394 2.43667 4.5063 3.84311 3.20215L3.90463 3.15039C4.05319 3.03671 4.23561 2.97363 4.42416 2.97363H19.5775L19.6576 2.97754ZM2.11948 9.1416C2.06532 9.32878 2.01462 9.5173 1.97104 9.70801C1.51043 11.7238 1.66806 13.8319 2.42319 15.7568C3.17834 17.6818 4.49605 19.335 6.20444 20.5C7.91272 21.6648 9.93272 22.288 12.0003 22.2881C14.0679 22.2881 16.088 21.6647 17.7962 20.5C19.5045 19.3351 20.8223 17.6817 21.5775 15.7568C22.3326 13.8319 22.4902 11.7238 22.0296 9.70801C21.9861 9.51731 21.9353 9.32876 21.8812 9.1416H2.11948ZM4.76791 4.68457C3.95602 5.48729 3.28767 6.41645 2.78452 7.43066H21.2162C20.713 6.41644 20.0447 5.48732 19.2328 4.68457H4.76791Z" fill="black"/>
</svg>
