<svg width="24" height="24" viewBox="0 0 24 24" fill="none" xmlns="http://www.w3.org/2000/svg">
<path d="M15.7539 13.8916C16.4017 13.9574 16.9062 14.5051 16.9062 15.1689C16.9061 15.834 16.4007 16.3797 15.7539 16.4453L15.623 16.4521L15.5 16.4463C14.8919 16.3886 14.4073 15.9067 14.3457 15.2998L14.3389 15.1689L14.3457 15.0371C14.4086 14.4197 14.9093 13.9322 15.5322 13.8887C15.562 13.8855 15.5925 13.8848 15.623 13.8848L15.7539 13.8916Z" fill="black"/>
<path d="M19.2793 13.8916C19.9267 13.9573 20.4316 14.5043 20.4316 15.1689C20.4314 15.8335 19.9266 16.3798 19.2793 16.4453L19.1484 16.4521L19.0254 16.4463C18.4175 16.3884 17.9327 15.9066 17.8711 15.2998L17.8643 15.1689L17.8711 15.0371C17.934 14.4199 18.4349 13.9324 19.0576 13.8887C19.0874 13.8855 19.1178 13.8848 19.1484 13.8848L19.2793 13.8916Z" fill="black"/>
<path d="M15.7539 10.3711C16.4012 10.4368 16.9061 10.984 16.9062 11.6484C16.9062 12.3262 16.3807 12.8795 15.7148 12.9268C15.6847 12.93 15.6541 12.9316 15.623 12.9316L15.5352 12.9277L15.5322 12.9268C14.9091 12.8833 14.4083 12.397 14.3457 11.7793L14.3389 11.6484L14.3457 11.5166C14.4118 10.8697 14.9587 10.3643 15.623 10.3643L15.7539 10.3711Z" fill="black"/>
<path d="M19.1484 10.3643C19.8572 10.3643 20.4315 10.9397 20.4316 11.6484C20.4316 12.3257 19.9071 12.8777 19.2422 12.9258C19.2114 12.9291 19.1801 12.9316 19.1484 12.9316C19.1177 12.9316 19.0875 12.9299 19.0576 12.9268C18.4347 12.8831 17.9337 12.3968 17.8711 11.7793L17.8643 11.6484L17.8711 11.5166C17.9371 10.8697 18.4842 10.3644 19.1484 10.3643Z" fill="black"/>
<path d="M19.5 6.69141C19.9722 6.69141 20.3555 7.07467 20.3555 7.54688C20.3555 8.01908 19.9722 8.40234 19.5 8.40234H15.2812C14.809 8.40234 14.4258 8.01908 14.4258 7.54688C14.4258 7.07467 14.809 6.69141 15.2812 6.69141H19.5Z" fill="black"/>
<path fill-rule="evenodd" clip-rule="evenodd" d="M9.42188 2.00391C10.5939 2.00391 11.6371 2.55431 12.3086 3.41016H19.7344C20.707 3.41016 21.6403 3.79658 22.3281 4.48438C23.0159 5.17215 23.4023 6.10542 23.4023 7.07812V16.9219C23.4023 17.8945 23.0159 18.8279 22.3281 19.5156C21.6404 20.2034 20.707 20.5898 19.7344 20.5898H12.3086C11.6371 21.4457 10.5939 21.9961 9.42188 21.9961H8.01562C6.8436 21.9961 5.80044 21.4457 5.12891 20.5898H4.26562C3.29292 20.5898 2.35965 20.2034 1.67188 19.5156C0.984076 18.8278 0.597656 17.8945 0.597656 16.9219V7.07812C0.597656 6.10544 0.984085 5.17217 1.67188 4.48438C2.35967 3.79658 3.29294 3.41016 4.26562 3.41016H5.12891C5.80044 2.55431 6.84361 2.00391 8.01562 2.00391H9.42188ZM8.01562 3.71484C6.93453 3.71484 6.05859 4.59078 6.05859 5.67188V18.3281C6.05859 19.4093 6.93452 20.2852 8.01562 20.2852H9.42188C10.503 20.2852 11.3789 19.4093 11.3789 18.3281V5.67188C11.3789 4.59077 10.503 3.71484 9.42188 3.71484H8.01562ZM4.26562 5.12109C3.74646 5.12109 3.24894 5.32723 2.88184 5.69434C2.51473 6.06144 2.30859 6.55896 2.30859 7.07812V16.9219C2.30859 17.441 2.51474 17.9386 2.88184 18.3057C3.24896 18.6728 3.74649 18.8789 4.26562 18.8789H4.38867C4.36161 18.6993 4.34766 18.5153 4.34766 18.3281V5.67188C4.34766 5.48468 4.36161 5.30075 4.38867 5.12109H4.26562ZM13.0488 5.12109C13.0759 5.30075 13.0898 5.48468 13.0898 5.67188V18.3281C13.0898 18.5153 13.0759 18.6993 13.0488 18.8789H19.7344C20.2535 18.8789 20.7511 18.6728 21.1182 18.3057C21.4853 17.9386 21.6914 17.441 21.6914 16.9219V7.07812C21.6914 6.55899 21.4853 6.06146 21.1182 5.69434C20.7511 5.32724 20.2535 5.12109 19.7344 5.12109H13.0488Z" fill="black"/>
</svg>
