<svg width="24" height="24" viewBox="0 0 24 24" fill="none" xmlns="http://www.w3.org/2000/svg">
<path d="M3.42969 15.4307C3.90167 15.4309 4.28516 15.8141 4.28516 16.2861V21.4287C4.28489 21.9005 3.9015 22.2839 3.42969 22.2842C2.95765 22.2842 2.57351 21.9007 2.57324 21.4287V16.2861C2.57324 15.8139 2.95748 15.4307 3.42969 15.4307Z" fill="black"/>
<path d="M7.71484 12.002C8.18705 12.002 8.57031 12.3852 8.57031 12.8574V21.4287C8.57018 21.9008 8.18697 22.2842 7.71484 22.2842C7.24272 22.2842 6.85951 21.9008 6.85938 21.4287V12.8574C6.85938 12.3852 7.24264 12.002 7.71484 12.002Z" fill="black"/>
<path d="M12.001 18.8594C12.473 18.8596 12.8564 19.2428 12.8564 19.7148V21.4287C12.8562 21.9005 12.4728 22.2839 12.001 22.2842C11.5289 22.2842 11.1458 21.9007 11.1455 21.4287V19.7148C11.1455 19.2426 11.5288 18.8594 12.001 18.8594Z" fill="black"/>
<path d="M16.2861 18.8594C16.7583 18.8594 17.1416 19.2426 17.1416 19.7148V21.4287C17.1413 21.9007 16.7582 22.2842 16.2861 22.2842C15.8142 22.284 15.4309 21.9006 15.4307 21.4287V19.7148C15.4307 19.2427 15.814 18.8595 16.2861 18.8594Z" fill="black"/>
<path d="M20.5723 18.8594C21.0444 18.8595 21.4277 19.2427 21.4277 19.7148V21.4287C21.4275 21.9006 21.0442 22.284 20.5723 22.2842C20.1002 22.2842 19.7171 21.9007 19.7168 21.4287V19.7148C19.7168 19.2426 20.1001 18.8594 20.5723 18.8594Z" fill="black"/>
</svg>
