<svg width="24" height="24" viewBox="0 0 24 24" fill="none" xmlns="http://www.w3.org/2000/svg">
<path d="M5.99902 8.57258C6.47108 8.57258 6.85426 8.95605 6.85449 9.42805C6.85449 9.90026 6.47123 10.2835 5.99902 10.2835H4.28516C3.81295 10.2835 3.42969 9.90026 3.42969 9.42805C3.42992 8.95605 3.8131 8.57258 4.28516 8.57258H5.99902Z" fill="black"/>
<path fill-rule="evenodd" clip-rule="evenodd" d="M10.7598 0.0921152C11.1819 -0.118902 11.6959 0.0520718 11.9072 0.473951C12.1184 0.896278 11.9467 1.41021 11.5244 1.62141L4.47754 5.14485H14.5703C15.9892 5.14485 17.1394 6.2954 17.1396 7.71419V16.4573L22.6895 12.9896C23.0898 12.7394 23.6169 12.8608 23.8672 13.2611C24.1174 13.6613 23.9958 14.1884 23.5957 14.4388L17.1396 18.474V21.429C17.1394 22.8478 15.9891 23.9984 14.5703 23.9984H2.57031C1.15173 23.9981 0.00121737 22.8476 0.000976562 21.429V6.00032C0.000976562 5.99389 0.00181173 5.98718 0.00195312 5.98079C0.00218764 5.97068 0.00233825 5.96058 0.00292969 5.95051C0.00715069 5.87668 0.0201907 5.80528 0.0419922 5.73762C0.0453028 5.72733 0.0500149 5.71751 0.0537109 5.70735C0.0689708 5.66554 0.0861123 5.62473 0.107422 5.58626C0.16592 5.47997 0.247887 5.38555 0.349609 5.31086C0.38508 5.28472 0.422564 5.26106 0.461914 5.24055C0.465757 5.23856 0.469747 5.23664 0.473633 5.23469L10.7598 0.0921152ZM1.71191 21.429C1.71215 21.9032 2.09614 22.2881 2.57031 22.2884H14.5703C15.0447 22.2884 15.4294 21.9034 15.4297 21.429V18.8558H1.71191V21.429ZM1.71191 17.1448H15.4297V13.7122H1.71191V17.1448ZM1.71191 12.0013H15.4297V7.71419C15.4295 7.23981 15.0447 6.85579 14.5703 6.85579H1.71191V12.0013Z" fill="black"/>
</svg>
