<svg width="24" height="24" viewBox="0 0 24 24" fill="none" xmlns="http://www.w3.org/2000/svg">
<path fill-rule="evenodd" clip-rule="evenodd" d="M16.2861 9.43029C17.9418 9.43029 19.284 10.7728 19.2842 12.4283C19.2841 14.0839 17.9419 15.4264 16.2861 15.4264C14.6308 15.426 13.2882 14.0837 13.2881 12.4283C13.2882 10.773 14.6308 9.43063 16.2861 9.43029ZM16.2861 11.1412C15.5753 11.1416 14.9992 11.7174 14.999 12.4283C14.9991 13.1393 15.5752 13.7161 16.2861 13.7164C16.9974 13.7164 17.5741 13.1396 17.5742 12.4283C17.5741 11.7172 16.9974 11.1412 16.2861 11.1412Z" fill="black"/>
<path fill-rule="evenodd" clip-rule="evenodd" d="M11.3965 1.10997C11.7303 0.776121 12.2716 0.776214 12.6055 1.10997L17.498 6.00157H20.5732C21.9918 6.00192 23.1423 7.15239 23.1426 8.57091V20.5709C23.1426 21.9897 21.9919 23.1399 20.5732 23.1402H3.42969C2.01092 23.14 0.860352 21.9898 0.860352 20.5709V8.57091C0.860637 7.1523 2.01109 6.0018 3.42969 6.00157H6.50488L11.3965 1.10997ZM3.42969 7.71251C2.95549 7.71274 2.57157 8.09672 2.57129 8.57091V17.066L7.38574 12.2526L7.4502 12.194C7.786 11.92 8.28168 11.9396 8.59473 12.2526L17.7715 21.4303H20.5732C21.0475 21.4299 21.4326 21.0453 21.4326 20.5709V8.57091C21.4323 8.09678 21.0474 7.71286 20.5732 7.71251H3.42969ZM2.57129 19.484V20.5709C2.57129 21.0454 2.95531 21.4301 3.42969 21.4303H15.3535L7.98926 14.066L2.57129 19.484ZM8.92285 6.00157H15.0791L12.001 2.92345L8.92285 6.00157Z" fill="black"/>
</svg>
