<svg width="24" height="24" viewBox="0 0 24 24" fill="none" xmlns="http://www.w3.org/2000/svg">
<path d="M9.09159 13.3314C9.30289 12.9095 9.81594 12.7387 10.2381 12.9496C10.6604 13.1608 10.8321 13.6747 10.6209 14.0971L9.76347 15.8109C9.55227 16.2332 9.03834 16.4049 8.61601 16.1937C8.19386 15.9825 8.02309 15.4685 8.23417 15.0463L9.09159 13.3314Z" fill="black"/>
<path d="M13.7586 12.9496C14.1808 12.7385 14.6947 12.9095 14.906 13.3314L15.7635 15.0463C15.9745 15.4686 15.803 15.9826 15.3807 16.1937C14.9585 16.4044 14.4453 16.2329 14.2342 15.8109L13.3768 14.0971C13.1658 13.6749 13.3368 13.1609 13.7586 12.9496Z" fill="black"/>
<path fill-rule="evenodd" clip-rule="evenodd" d="M12.0008 9.43006C16.8543 9.43025 21.0326 12.313 22.9217 16.4555C23.2899 17.2629 23.1413 18.1039 22.6853 18.7201C22.3289 19.2016 21.7888 19.5445 21.1678 19.6644L20.0809 22.3822C19.6908 23.3576 18.7457 23.9974 17.6951 23.9974H6.30253C5.2519 23.9974 4.30695 23.3575 3.91679 22.3822L2.8289 19.6635C2.20958 19.5425 1.67082 19.1997 1.31523 18.7191C0.859498 18.103 0.710809 17.2628 1.0789 16.4555C2.96799 12.3129 7.1471 9.43014 12.0008 9.43006ZM5.50468 21.7474C5.63521 22.0736 5.95126 22.2875 6.30253 22.2875H17.6951C18.0464 22.2875 18.3625 22.0735 18.493 21.7474L19.3074 19.7123H4.69023L5.50468 21.7474ZM12.0008 11.141C7.84123 11.1411 4.25596 13.6096 2.63456 17.1654C2.54408 17.3641 2.57444 17.5472 2.68925 17.7025C2.8129 17.8696 3.03921 18.0023 3.32206 18.0023H3.41288C3.41775 18.0022 3.42265 18.0013 3.42753 18.0013H20.5701C20.575 18.0013 20.5799 18.0022 20.5848 18.0023H20.6785C20.9615 18.0023 21.1876 17.8696 21.3113 17.7025C21.4263 17.5471 21.4566 17.3642 21.366 17.1654C19.7446 13.6098 16.1602 11.1412 12.0008 11.141Z" fill="black"/>
<path d="M7.9539 0.264043C8.2812 -0.076045 8.82262 -0.0864294 9.16288 0.240606C9.99791 1.04413 10.4176 1.87515 10.2439 2.76209C10.0942 3.52564 9.51324 4.10287 9.1912 4.44373C8.77111 4.8884 8.60993 5.09787 8.57402 5.28064C8.56228 5.3406 8.51503 5.61709 9.16288 6.24061C9.50301 6.56795 9.51349 7.10934 9.18632 7.44959C8.85897 7.78969 8.31758 7.80018 7.97734 7.47303C7.14249 6.66957 6.72158 5.8384 6.89531 4.95154C7.04503 4.1883 7.62598 3.61077 7.94804 3.2699C8.36833 2.82504 8.53036 2.61581 8.5662 2.43299C8.57803 2.37245 8.62432 2.09567 7.97734 1.47303C7.63747 1.1456 7.62669 0.604183 7.9539 0.264043Z" fill="black"/>
<path d="M14.8113 0.264043C15.1387 -0.0760435 15.6801 -0.0865333 16.0203 0.240606C16.8553 1.04411 17.275 1.87516 17.1014 2.76209C16.9517 3.52563 16.3707 4.10287 16.0486 4.44373C15.6285 4.88842 15.4674 5.09787 15.4314 5.28064C15.4197 5.34058 15.3723 5.61697 16.0203 6.24061C16.3604 6.56794 16.3709 7.10933 16.0437 7.44959C15.7164 7.78977 15.175 7.8002 14.8348 7.47303C13.9998 6.66953 13.579 5.83845 13.7527 4.95154C13.9025 4.18827 14.4834 3.61075 14.8055 3.2699C15.2257 2.82507 15.3878 2.6158 15.4236 2.43299C15.4355 2.37236 15.4816 2.09551 14.8348 1.47303C14.4947 1.14559 14.484 0.604225 14.8113 0.264043Z" fill="black"/>
</svg>
