<svg width="24" height="24" viewBox="0 0 24 24" fill="none" xmlns="http://www.w3.org/2000/svg">
<path fill-rule="evenodd" clip-rule="evenodd" d="M14.2762 1.45312C14.3648 0.989632 14.8126 0.685237 15.2762 0.773438C16.7075 1.04581 18.0623 1.62779 19.245 2.47852C20.4278 3.32936 21.4105 4.4288 22.1239 5.69922C22.8373 6.96968 23.2651 8.38116 23.3759 9.83398C23.4866 11.2869 23.2781 12.7474 22.7655 14.1113C22.2529 15.4751 21.4472 16.7103 20.4071 17.7305C19.3668 18.7507 18.1156 19.5315 16.7421 20.0176C16.7368 20.0194 16.7307 20.0206 16.7255 20.0225C16.6954 20.0342 16.6647 20.0435 16.6337 20.0518C15.2911 20.5098 13.8669 20.6802 12.454 20.5449C11.2258 20.4272 10.0333 20.08 8.93347 19.5293L5.98523 22.4785C5.98168 22.4821 5.97716 22.4858 5.97351 22.4893C5.37846 23.0629 4.58128 23.3805 3.75476 23.373C2.92813 23.3654 2.1371 23.0328 1.55261 22.4482C0.968235 21.8635 0.637107 21.0727 0.629761 20.2461C0.622496 19.4194 0.93955 18.6223 1.51355 18.0273C1.51693 18.0239 1.52086 18.02 1.52429 18.0166L4.47058 15.0693C3.70814 13.5464 3.34539 11.8504 3.42273 10.1416C3.46536 9.20111 3.64016 8.27643 3.93835 7.39355C3.95255 7.33166 3.97371 7.27099 4.00183 7.21289C4.31237 6.34844 4.74175 5.52591 5.2821 4.77148C5.55716 4.38796 6.09172 4.29936 6.47546 4.57422C6.85901 4.84914 6.94729 5.3838 6.67273 5.76758C6.31191 6.27135 6.00958 6.81146 5.77136 7.37695L16.6239 18.2295C17.5849 17.8245 18.4633 17.2419 19.2098 16.5098C20.072 15.6641 20.74 14.6402 21.1649 13.5098C21.5898 12.3792 21.7625 11.1682 21.6708 9.96387C21.579 8.75981 21.2248 7.59008 20.6337 6.53711C20.0424 5.48406 19.2273 4.5725 18.2469 3.86719C17.2664 3.1619 16.1425 2.6789 14.9559 2.45312C14.4923 2.36469 14.188 1.91687 14.2762 1.45312ZM5.23132 9.25488C5.17923 9.57289 5.14543 9.89465 5.13074 10.2188C5.05822 11.8203 5.4517 13.4086 6.26355 14.791C6.46059 15.1266 6.40568 15.5528 6.13074 15.8281L2.74402 19.2148C2.48118 19.4873 2.33642 19.8529 2.33972 20.2314C2.34321 20.6099 2.49499 20.9716 2.76257 21.2393C3.03019 21.5069 3.39194 21.6595 3.77039 21.6631C4.14527 21.6664 4.5066 21.5227 4.7782 21.2646L8.17273 17.8711C8.44806 17.5961 8.87524 17.5421 9.21082 17.7393C10.2521 18.3508 11.4149 18.7275 12.6171 18.8428C13.3289 18.9109 14.0442 18.8844 14.746 18.7695L5.23132 9.25488Z" fill="black"/>
<path fill-rule="evenodd" clip-rule="evenodd" d="M10.8876 0.612305C11.5661 0.679721 12.2039 0.980404 12.6903 1.4668C13.2462 2.02271 13.5594 2.77636 13.5594 3.5625C13.5594 4.34864 13.2462 5.10229 12.6903 5.6582C12.2039 6.1446 11.5661 6.44528 10.8876 6.5127L10.5946 6.52734C9.80846 6.52734 9.05482 6.21406 8.4989 5.6582C7.94297 5.10228 7.62976 4.3487 7.62976 3.5625C7.62976 2.7763 7.94297 2.02272 8.4989 1.4668C9.05482 0.910945 9.80846 0.597656 10.5946 0.597656L10.8876 0.612305ZM10.5946 2.30859C10.262 2.30859 9.94311 2.44062 9.70789 2.67578C9.47264 2.91102 9.3407 3.22982 9.3407 3.5625C9.3407 3.89518 9.47264 4.21398 9.70789 4.44922C9.94311 4.68438 10.262 4.81641 10.5946 4.81641L10.7186 4.81055C11.0057 4.78198 11.2756 4.65498 11.4813 4.44922C11.7165 4.21399 11.8485 3.89512 11.8485 3.5625C11.8485 3.22988 11.7165 2.91101 11.4813 2.67578C11.2756 2.47002 11.0057 2.34302 10.7186 2.31445L10.5946 2.30859Z" fill="black"/>
</svg>
