<svg width="24" height="24" viewBox="0 0 24 24" fill="none" xmlns="http://www.w3.org/2000/svg">
<path fill-rule="evenodd" clip-rule="evenodd" d="M12.4014 6.85938C13.5333 6.82198 14.6411 7.19375 15.5215 7.90625C15.8884 8.20333 15.9454 8.74237 15.6484 9.10938C15.3513 9.47623 14.8132 9.53241 14.4463 9.23535C14.1036 8.95799 13.7064 8.76257 13.2852 8.65723V14.5713C13.2852 14.6009 13.2832 14.6304 13.2803 14.6592C13.2338 16.0373 12.1043 17.1406 10.7148 17.1406C9.29626 17.1403 8.14564 15.9899 8.14551 14.5713C8.14573 13.1527 9.29632 12.0023 10.7148 12.002C11.0164 12.002 11.3054 12.0559 11.5742 12.1514V7.71387C11.5744 7.25286 11.9406 6.87464 12.4014 6.85938ZM10.7148 13.7129C10.2407 13.7132 9.85667 14.0971 9.85645 14.5713C9.85658 15.0455 10.2407 15.4303 10.7148 15.4307C11.1893 15.4307 11.5741 15.0457 11.5742 14.5713C11.574 14.0969 11.1893 13.7129 10.7148 13.7129Z" fill="black"/>
<path fill-rule="evenodd" clip-rule="evenodd" d="M17.1445 1.71582C18.5631 1.71608 19.7135 2.86666 19.7139 4.28516V19.7139C19.7139 21.1327 18.5633 22.2829 17.1445 22.2832H6.8584C5.43963 22.283 4.28906 21.1327 4.28906 19.7139V4.28516C4.28942 2.86663 5.43984 1.71605 6.8584 1.71582H17.1445ZM6.8584 3.42676C6.38425 3.42698 6.00036 3.81104 6 4.28516V19.7139C6 20.1883 6.38402 20.573 6.8584 20.5732H17.1445C17.6189 20.573 18.0039 20.1883 18.0039 19.7139V4.28516C18.0035 3.81105 17.6187 3.42702 17.1445 3.42676H6.8584Z" fill="black"/>
<path d="M0.858398 4.28711C1.33041 4.28724 1.71374 4.67057 1.71387 5.14258V18.8564C1.71387 19.3286 1.33049 19.7118 0.858398 19.7119C0.386195 19.7119 0.00292969 19.3286 0.00292969 18.8564V5.14258C0.0030618 4.67049 0.386276 4.28711 0.858398 4.28711Z" fill="black"/>
<path d="M23.1445 4.28711C23.6164 4.28737 23.9999 4.67065 24 5.14258V18.8564C24 19.3285 23.6165 19.7116 23.1445 19.7119C22.6723 19.7119 22.2891 19.3286 22.2891 18.8564V5.14258C22.2892 4.67049 22.6724 4.28711 23.1445 4.28711Z" fill="black"/>
</svg>
