<svg width="24" height="24" viewBox="0 0 24 24" fill="none" xmlns="http://www.w3.org/2000/svg">
<path fill-rule="evenodd" clip-rule="evenodd" d="M16.2344 0.135742C16.7066 0.135742 17.0898 0.519007 17.0898 0.991211V6.06348H18.7539C20.1726 6.06354 21.3229 7.2142 21.3232 8.63281V13.6318C21.3232 16.9443 18.6378 19.6299 15.3252 19.6299H12.8545V23.0088C12.8544 23.4809 12.4711 23.8631 11.999 23.8633C11.5268 23.8633 11.1436 23.481 11.1436 23.0088V19.6299H8.67383C5.36141 19.6297 2.67578 16.9443 2.67578 13.6318V8.63281C2.67614 7.21429 3.82654 6.0637 5.24512 6.06348H6.9082V0.991211C6.9082 0.519007 7.29147 0.135742 7.76367 0.135742C8.23576 0.135874 8.61914 0.519089 8.61914 0.991211V6.06348H15.3789V0.991211C15.3789 0.519007 15.7622 0.135742 16.2344 0.135742ZM5.24512 7.77441C4.77096 7.77464 4.38708 8.15869 4.38672 8.63281V13.6318C4.38672 15.9999 6.30584 17.9198 8.67383 17.9199H11.9814C11.9872 17.9198 11.9932 17.9189 11.999 17.9189C12.0049 17.9189 12.0108 17.9198 12.0166 17.9199H15.3252C17.6934 17.9199 19.6133 16 19.6133 13.6318V8.63281C19.6129 8.15859 19.2282 7.77448 18.7539 7.77441H5.24512Z" fill="black"/>
</svg>
