<svg width="24" height="24" viewBox="0 0 24 24" fill="none" xmlns="http://www.w3.org/2000/svg">
<path d="M17.5029 13.4043C17.6587 12.9586 18.1471 12.7232 18.5928 12.8789C19.9461 13.3516 21.117 13.984 21.9648 14.7568C22.8138 15.5309 23.3954 16.5045 23.3955 17.627C23.3955 19.5152 21.7895 20.9592 19.8145 21.8809C17.7699 22.8349 15.0052 23.4023 11.998 23.4023C8.99056 23.4023 6.22528 22.8342 4.18066 21.8789C2.20553 20.956 0.599609 19.51 0.599609 17.6221C0.599765 16.5036 1.1783 15.5324 2.02246 14.7598C2.86508 13.9887 4.0286 13.358 5.37402 12.8848C5.81934 12.7283 6.30811 12.962 6.46484 13.4072C6.62143 13.8526 6.3867 14.3413 5.94141 14.498C4.73491 14.9224 3.79727 15.4536 3.17676 16.0215C2.55787 16.588 2.3107 17.1337 2.31055 17.6221C2.31055 18.4517 3.06473 19.4691 4.90527 20.3291C6.67643 21.1566 9.18333 21.6924 11.998 21.6924C14.8128 21.6923 17.3197 21.1583 19.0908 20.332C20.9313 19.4732 21.6855 18.4563 21.6855 17.627C21.6855 17.137 21.4362 16.5891 20.8125 16.0205C20.1873 15.4505 19.2425 14.9182 18.0283 14.4941C17.5826 14.3384 17.3472 13.8501 17.5029 13.4043Z" fill="black"/>
<path fill-rule="evenodd" clip-rule="evenodd" d="M11.9971 0.601562C12.4324 0.601563 12.8634 0.688891 13.2656 0.855469C13.6678 1.02206 14.033 1.26641 14.3408 1.57422C14.6486 1.882 14.893 2.2473 15.0596 2.64941C15.2261 3.0515 15.3125 3.48277 15.3125 3.91797C15.3124 4.35313 15.2261 4.78448 15.0596 5.18652C14.893 5.58852 14.6485 5.95402 14.3408 6.26172C14.1972 6.40525 14.0405 6.53397 13.874 6.64844C14.3197 6.86065 14.7302 7.14919 15.0859 7.50488C15.9053 8.32427 16.3662 9.43598 16.3662 10.5947V12.6982C16.3659 13.1691 15.9846 13.5521 15.5137 13.5537L14.8604 13.5547L14.251 18.4316C14.1973 18.8593 13.8334 19.1807 13.4023 19.1807H10.5908C10.16 19.1805 9.79585 18.8591 9.74219 18.4316L9.13379 13.5576H8.48242C8.01056 13.5575 7.62732 13.1749 7.62695 12.7031V10.5947C7.62695 9.43609 8.08806 8.32425 8.90723 7.50488C9.2631 7.14901 9.67407 6.8597 10.1201 6.64746C9.95386 6.53306 9.79673 6.40511 9.65332 6.26172C9.3456 5.95398 9.10115 5.58857 8.93457 5.18652C8.76805 4.78449 8.68171 4.35313 8.68164 3.91797C8.68165 3.48283 8.76812 3.05145 8.93457 2.64941C9.1011 2.2474 9.34568 1.88196 9.65332 1.57422C9.96104 1.2665 10.3265 1.02206 10.7285 0.855469C11.1306 0.688911 11.5618 0.6016 11.9971 0.601562ZM11.9971 7.93555C11.2919 7.93561 10.6149 8.21521 10.1162 8.71387C9.61773 9.21255 9.33789 9.88961 9.33789 10.5947V11.8477H9.8877C10.3188 11.8477 10.6827 12.1689 10.7363 12.5967L11.3457 17.4707H12.6475L13.2568 12.5967C13.3103 12.1701 13.6726 11.8492 14.1025 11.8477L14.6562 11.8457V10.5947C14.6562 9.8895 14.3756 9.21257 13.877 8.71387C13.3783 8.21532 12.7022 7.93564 11.9971 7.93555ZM11.9971 2.31348C11.7864 2.31351 11.5775 2.35492 11.3828 2.43555C11.1883 2.5162 11.0112 2.63432 10.8623 2.7832C10.7135 2.93211 10.5952 3.10922 10.5146 3.30371C10.4341 3.49828 10.3926 3.70739 10.3926 3.91797C10.3926 4.12857 10.4341 4.33765 10.5146 4.53223C10.5953 4.72675 10.7134 4.90382 10.8623 5.05273C11.0112 5.20165 11.1882 5.31976 11.3828 5.40039C11.5775 5.48101 11.7864 5.5234 11.9971 5.52344C12.2077 5.52344 12.4167 5.48095 12.6113 5.40039C12.8058 5.3198 12.9829 5.20156 13.1318 5.05273C13.2807 4.90387 13.3988 4.72669 13.4795 4.53223C13.5601 4.33765 13.6025 4.12857 13.6025 3.91797C13.6025 3.70733 13.5601 3.49833 13.4795 3.30371C13.3989 3.10913 13.2808 2.93216 13.1318 2.7832C12.9828 2.63422 12.806 2.5162 12.6113 2.43555C12.4166 2.3549 12.2078 2.31348 11.9971 2.31348Z" fill="black"/>
</svg>
