<svg width="24" height="24" viewBox="0 0 24 24" fill="none" xmlns="http://www.w3.org/2000/svg">
<path fill-rule="evenodd" clip-rule="evenodd" d="M10.7773 0.858398C12.4444 0.858684 13.8593 1.93549 14.3682 3.43066H16.7773C18.8722 3.43102 20.5711 5.12973 20.5713 7.22461V11.4365C21.5833 11.918 22.2841 12.9474 22.2842 14.1426C22.2842 15.3382 21.5829 16.3673 20.5703 16.8486V19.3477C20.5699 21.4423 18.872 23.1412 16.7773 23.1416H7.22559C5.13074 23.1414 3.43207 21.4424 3.43164 19.3477V16.8486C2.4189 16.3674 1.7168 15.3383 1.7168 14.1426C1.71695 12.4872 3.05951 11.1448 4.71484 11.1445H18.8604V7.22461C18.8602 6.07413 17.9278 5.14196 16.7773 5.1416H14.5713V6.85938C15.0434 6.85944 15.4277 7.24268 15.4277 7.71484C15.4275 8.18678 15.0443 8.57025 14.5723 8.57031H6.8584C6.38636 8.57031 6.00319 8.18682 6.00293 7.71484C6.00293 7.24264 6.38619 6.85938 6.8584 6.85938H6.86035V4.65332C6.86051 2.55831 8.55929 0.85856 10.6543 0.858398H10.7773ZM5.14258 19.3477C5.143 20.498 6.07515 21.4305 7.22559 21.4307H16.7773C17.9276 21.4303 18.8599 20.4979 18.8604 19.3477V17.1406H5.14258V19.3477ZM4.71484 12.8555C4.00391 12.8558 3.42789 13.4316 3.42773 14.1426C3.42773 14.8537 4.00382 15.4304 4.71484 15.4307H19.2861C19.9974 15.4307 20.5742 14.8538 20.5742 14.1426C20.5741 13.4314 19.9973 12.8555 19.2861 12.8555H4.71484ZM10.6543 2.57031C9.5037 2.57047 8.57145 3.50272 8.57129 4.65332V6.85938H12.8604V4.65332C12.8602 3.50284 11.9278 2.57067 10.7773 2.57031H10.6543Z" fill="black"/>
</svg>
