<svg width="24" height="24" viewBox="0 0 24 24" fill="none" xmlns="http://www.w3.org/2000/svg">
<path d="M23.1416 11.1445C23.6137 11.1447 23.9971 11.5279 23.9971 12C23.9971 18.6262 18.625 23.9978 11.999 23.998C7.63133 23.998 3.81012 21.6641 1.71191 18.1777V19.7148C1.71157 20.1866 1.32822 20.5691 0.856445 20.5693C0.384452 20.5693 0.000340078 20.1868 0 19.7148V16.2861C0 15.8139 0.384242 15.4307 0.856445 15.4307H4.28516C4.75707 15.431 5.13965 15.8141 5.13965 16.2861C5.13939 16.7579 4.75691 17.1413 4.28516 17.1416H3.08691C4.86618 20.2187 8.19146 22.2881 11.999 22.2881C17.6806 22.2878 22.2871 17.6818 22.2871 12C22.2871 11.5278 22.6694 11.1446 23.1416 11.1445Z" fill="black"/>
<path fill-rule="evenodd" clip-rule="evenodd" d="M12.7324 4.88086C12.9557 4.59084 13.339 4.47491 13.6855 4.59277C14.0318 4.71085 14.2646 5.03647 14.2646 5.40234V9.88672H16.6328C16.9585 9.88681 17.2565 10.0721 17.4004 10.3643C17.5438 10.6563 17.5089 11.0048 17.3105 11.2627L11.2656 19.1201C11.0425 19.4097 10.6597 19.5256 10.3135 19.4082C9.96704 19.2904 9.73361 18.9645 9.7334 18.5986V14.1143H7.36523C7.03968 14.1143 6.74261 13.9287 6.59863 13.6367C6.45491 13.3446 6.48913 12.9964 6.6875 12.7383L12.7324 4.88086ZM9.10254 12.4043H10.5889C11.0608 12.4047 11.4434 12.7878 11.4434 13.2598V16.085L14.8965 11.5967H13.4102C12.9381 11.5967 12.555 11.2132 12.5547 10.7412V7.91602L9.10254 12.4043Z" fill="black"/>
<path d="M11.999 0.000976562C16.3669 0.00115054 20.1882 2.33638 22.2861 5.82324V4.28613C22.2861 3.81401 22.6695 3.4308 23.1416 3.43066C23.6137 3.43074 23.9961 3.81398 23.9961 4.28613V7.71484C23.9958 8.18671 23.6135 8.56926 23.1416 8.56934H19.7129C19.241 8.5692 18.8578 8.18668 18.8574 7.71484C18.8574 7.24272 19.2408 6.85951 19.7129 6.85938H20.9111C19.1322 3.78201 15.8068 1.71307 11.999 1.71289C6.31742 1.71304 1.71207 6.3184 1.71191 12C1.71165 12.4718 1.32826 12.8552 0.856445 12.8555C0.384405 12.8555 0.000263953 12.472 0 12C0.000151007 5.37399 5.37301 0.00112757 11.999 0.000976562Z" fill="black"/>
</svg>
