<svg width="24" height="24" viewBox="0 0 24 24" fill="none" xmlns="http://www.w3.org/2000/svg">
<path d="M11.998 0.000976562C16.3663 0.000976562 20.1882 2.33613 22.2861 5.82324V3.42871C22.2861 2.95651 22.6694 2.57324 23.1416 2.57324C23.6136 2.57347 23.9961 2.95665 23.9961 3.42871V7.71484C23.9959 8.18672 23.6135 8.56911 23.1416 8.56934H18.8555C18.3834 8.56934 18.0002 8.18685 18 7.71484C18 7.24264 18.3833 6.85938 18.8555 6.85938H20.9102C19.1311 3.78199 15.8059 1.71289 11.998 1.71289C6.31644 1.71304 1.71109 6.3184 1.71094 12C1.7112 17.6816 6.31651 22.2879 11.998 22.2881C16.8615 22.2881 20.9387 18.912 22.0107 14.375C22.1193 13.9155 22.5805 13.6307 23.04 13.7393C23.4994 13.848 23.7833 14.3091 23.6748 14.7686C22.4245 20.0596 17.6722 23.998 11.998 23.998C5.37211 23.9979 0.000263901 18.626 0 12C0.000151007 5.37399 5.37204 0.00112757 11.998 0.000976562Z" fill="black"/>
</svg>
