<svg width="24" height="24" viewBox="0 0 24 24" fill="none" xmlns="http://www.w3.org/2000/svg">
<path d="M15.6807 7.11035C16.0145 6.77648 16.5557 6.77652 16.8896 7.11035C17.2232 7.44428 17.2234 7.98556 16.8896 8.31934L13.208 12L16.8896 15.6816C17.2232 16.0156 17.2234 16.5568 16.8896 16.8906C16.5559 17.2243 16.0146 17.2241 15.6807 16.8906L11.999 13.209L8.31836 16.8906C7.98457 17.2243 7.44326 17.2241 7.10938 16.8906C6.77559 16.5568 6.77562 16.0155 7.10938 15.6816L10.79 12L7.10938 8.31934C6.77552 7.98548 6.7756 7.44426 7.10938 7.11035C7.44327 6.77645 7.98446 6.77645 8.31836 7.11035L11.999 10.791L15.6807 7.11035Z" fill="black"/>
<path fill-rule="evenodd" clip-rule="evenodd" d="M11.999 0.000976562C18.6253 0.000976562 23.9969 5.3739 23.9971 12C23.9968 18.6261 18.6252 23.998 11.999 23.998C5.3732 23.9978 0.00124045 18.6259 0.000976562 12C0.00112757 5.37407 5.37313 0.0012595 11.999 0.000976562ZM11.999 1.71289C6.31753 1.71317 1.71207 6.31848 1.71191 12C1.71218 17.6815 6.3176 22.2878 11.999 22.2881C17.6808 22.2881 22.2868 17.6817 22.2871 12C22.287 6.3183 17.6808 1.71289 11.999 1.71289Z" fill="black"/>
</svg>
