<svg width="24" height="24" viewBox="0 0 24 24" fill="none" xmlns="http://www.w3.org/2000/svg">
<path d="M12.1328 15.4365C12.7799 15.5025 13.2842 16.0504 13.2842 16.7148C13.2839 17.379 12.7797 17.9254 12.1328 17.9912L12.001 17.998L11.8779 17.9922C11.2701 17.9343 10.7853 17.4524 10.7236 16.8457L10.7168 16.7148L10.7236 16.583C10.7896 15.936 11.3366 15.4308 12.001 15.4307L12.1328 15.4365Z" fill="black"/>
<path d="M12.001 6.00195C12.4732 6.00195 12.8564 6.38522 12.8564 6.85742V12.4287C12.8562 12.9007 12.473 13.2842 12.001 13.2842C11.529 13.284 11.1458 12.9006 11.1455 12.4287V6.85742C11.1455 6.3853 11.5289 6.00209 12.001 6.00195Z" fill="black"/>
<path fill-rule="evenodd" clip-rule="evenodd" d="M12.001 0.000976562C18.6271 0.00110851 23.9989 5.37398 23.999 12C23.9988 18.626 18.627 23.9979 12.001 23.998C5.37504 23.9979 0.00319359 18.626 0.00292969 12C0.00308069 5.37399 5.37497 0.00112757 12.001 0.000976562ZM12.001 1.71289C6.31937 1.71304 1.71402 6.3184 1.71387 12C1.71413 17.6816 6.31944 22.2879 12.001 22.2881C17.6826 22.288 22.2888 17.6816 22.2891 12C22.2889 6.31838 17.6827 1.71302 12.001 1.71289Z" fill="black"/>
</svg>
