<svg width="24" height="24" viewBox="0 0 24 24" fill="none" xmlns="http://www.w3.org/2000/svg">
<path d="M12.0009 17.145L12.1318 17.1508C12.779 17.2166 13.2841 17.7646 13.2841 18.4292C13.2838 19.0935 12.7788 19.6398 12.1318 19.7055L12.0009 19.7124L11.8779 19.7065C11.2699 19.6488 10.7853 19.1668 10.7236 18.56L10.7168 18.4292L10.7236 18.2973C10.7865 17.68 11.2872 17.1924 11.9101 17.1489C11.9398 17.1458 11.9704 17.145 12.0009 17.145Z" fill="black"/>
<path d="M12.0009 7.71627C12.473 7.71647 12.8564 8.09966 12.8564 8.57173V14.143C12.8562 14.6149 12.4728 14.9983 12.0009 14.9985C11.5289 14.9985 11.1457 14.615 11.1455 14.143V8.57173C11.1455 8.09953 11.5287 7.71627 12.0009 7.71627Z" fill="black"/>
<path fill-rule="evenodd" clip-rule="evenodd" d="M9.71382 1.4106C10.6053 -0.329334 13.1687 -0.442186 14.1933 1.24166L14.2871 1.4106L14.291 1.41744L23.7187 20.2729L23.791 20.4292C24.4746 22.0535 23.2718 23.9928 21.4316 23.9985H2.56929C0.685498 23.9928 -0.563927 21.9574 0.282181 20.2749L9.70992 1.41744L9.71382 1.4106ZM12.7021 2.08638C12.3508 1.60442 11.5176 1.64168 11.2363 2.1899L11.2353 2.18892L1.81148 21.0395L1.80952 21.0424C1.53418 21.5894 1.96029 22.284 2.57222 22.2876H21.4287C22.0341 22.2839 22.4616 21.5794 22.1914 21.0424L22.1904 21.0395L12.7656 2.1899L12.7021 2.08638Z" fill="black"/>
</svg>
