<svg width="24" height="24" viewBox="0 0 24 24" fill="none" xmlns="http://www.w3.org/2000/svg">
<path d="M10.2852 18.8584C10.7572 18.8585 11.1396 19.2418 11.1396 19.7139C11.1394 20.1858 10.7571 20.5692 10.2852 20.5693H9.42773C8.95581 20.5692 8.57253 20.1858 8.57227 19.7139C8.57227 19.2417 8.95564 18.8585 9.42773 18.8584H10.2852Z" fill="black"/>
<path d="M14.5713 17.1436C15.0433 17.1438 15.4258 17.527 15.4258 17.999C15.4258 18.4711 15.0433 18.8542 14.5713 18.8545H13.7139C13.2417 18.8545 12.8584 18.4712 12.8584 17.999C12.8584 17.5268 13.2417 17.1436 13.7139 17.1436H14.5713Z" fill="black"/>
<path d="M12 13.7158C12.472 13.7161 12.8545 14.0993 12.8545 14.5713C12.8542 15.0431 12.4718 15.4265 12 15.4268H11.1426C10.6705 15.4268 10.2874 15.0433 10.2871 14.5713C10.2871 14.0991 10.6704 13.7158 11.1426 13.7158H12Z" fill="black"/>
<path fill-rule="evenodd" clip-rule="evenodd" d="M6.9834 12.998C8.95423 8.54593 15.2868 8.58847 17.1982 13.0664L21.1357 22.2881H23.1426C23.6146 22.2883 23.9971 22.6715 23.9971 23.1436C23.9968 23.6154 23.6144 23.9988 23.1426 23.999H0.856445C0.384517 23.9989 0.00124054 23.6155 0.000976562 23.1436C0.000976562 22.6714 0.384354 22.2882 0.856445 22.2881H2.87109L6.9834 12.998ZM15.626 13.7373C14.3014 10.6343 9.91355 10.6053 8.54785 13.6904L4.74219 22.2881H19.2754L15.626 13.7373Z" fill="black"/>
<path d="M12 4.28711C12.472 4.28737 12.8555 4.67054 12.8555 5.14258V6.00098C12.855 6.4726 12.4717 6.85521 12 6.85547C11.5281 6.85547 11.145 6.47276 11.1445 6.00098V5.14258C11.1445 4.67037 11.5278 4.28711 12 4.28711Z" fill="black"/>
<path d="M15.4277 1.71582C15.8999 1.71582 16.2832 2.09909 16.2832 2.57129V3.42871C16.2828 3.90056 15.8997 4.2832 15.4277 4.2832C14.9559 4.28307 14.5727 3.90048 14.5723 3.42871V2.57129C14.5723 2.09917 14.9556 1.71595 15.4277 1.71582Z" fill="black"/>
<path d="M8.57129 0.857422C9.04327 0.857686 9.42676 1.24183 9.42676 1.71387V2.57129C9.42634 3.04298 9.04301 3.42552 8.57129 3.42578C8.09934 3.42578 7.71624 3.04314 7.71582 2.57129V1.71387C7.71582 1.24166 8.09909 0.857422 8.57129 0.857422Z" fill="black"/>
</svg>
