<svg width="24" height="24" viewBox="0 0 24 24" fill="none" xmlns="http://www.w3.org/2000/svg">
<path fill-rule="evenodd" clip-rule="evenodd" d="M5.14355 8.57369C7.03588 8.57369 8.57024 10.1081 8.57031 12.0004V15.4311H9.80566C10.9844 15.4313 12.0119 16.2338 12.2979 17.3774L13.6875 22.936C13.8018 23.394 13.5234 23.8586 13.0654 23.9731C12.6076 24.0874 12.143 23.8087 12.0283 23.351L10.6387 17.7924C10.5431 17.41 10.1998 17.1413 9.80566 17.1411H4.28613C2.86762 17.1407 1.71704 15.9903 1.7168 14.5717V12.0004C1.71687 10.1083 3.25141 8.5739 5.14355 8.57369ZM5.14355 10.2846C4.19582 10.2848 3.42781 11.0527 3.42773 12.0004V14.5717C3.42798 15.0459 3.81202 15.4308 4.28613 15.4311H6.86035V12.0004C6.86028 11.0525 6.09147 10.2846 5.14355 10.2846Z" fill="black"/>
<path d="M7.71484 18.8588C8.18703 18.8588 8.57029 19.2421 8.57031 19.7143C8.57031 20.1865 8.18705 20.5698 7.71484 20.5698H2.57227C2.10017 20.5697 1.7168 20.1864 1.7168 19.7143C1.71682 19.2422 2.10019 18.859 2.57227 18.8588H7.71484Z" fill="black"/>
<path d="M14.7676 0.188923C15.1363 -0.105492 15.6739 -0.0457196 15.9688 0.322712C16.9439 1.54171 17.2552 2.67901 17.1133 3.77877C16.9807 4.80638 16.455 5.70488 16.0439 6.42427C15.5979 7.20478 15.2663 7.80691 15.1846 8.4399C15.1123 9.00073 15.2299 9.68528 15.9688 10.6088C16.2635 10.9775 16.2035 11.5151 15.835 11.81C15.4664 12.1047 14.9288 12.0455 14.6338 11.6772C13.6587 10.4583 13.3475 9.32082 13.4893 8.22115C13.6219 7.19361 14.1475 6.295 14.5586 5.57564C15.0046 4.79512 15.3363 4.19302 15.418 3.56002C15.4903 2.99917 15.3727 2.31471 14.6338 1.39107C14.3388 1.02235 14.3989 0.48391 14.7676 0.188923Z" fill="black"/>
<path d="M19.9072 0.188923C20.2759 -0.105555 20.8135 -0.0456845 21.1084 0.322712C22.0836 1.54172 22.3948 2.67901 22.2529 3.77877C22.1203 4.80638 21.5947 5.70488 21.1836 6.42427C20.7376 7.20477 20.4059 7.80692 20.3242 8.4399C20.2519 9.00073 20.3696 9.68528 21.1084 10.6088C21.4031 10.9775 21.3431 11.5151 20.9746 11.81C20.606 12.1048 20.0685 12.0455 19.7734 11.6772C18.7983 10.4583 18.4871 9.32082 18.6289 8.22115C18.7615 7.19363 19.2872 6.295 19.6982 5.57564C20.1443 4.79513 20.4759 4.19301 20.5576 3.56002C20.63 2.99916 20.5123 2.31475 19.7734 1.39107C19.4785 1.02234 19.5385 0.483906 19.9072 0.188923Z" fill="black"/>
<path fill-rule="evenodd" clip-rule="evenodd" d="M5.14355 1.71627C6.78281 1.71627 8.14145 3.07509 8.1416 4.71431C8.14135 6.35346 6.78275 7.71236 5.14355 7.71236C3.50459 7.71207 2.14576 6.35329 2.14551 4.71431C2.14566 3.07527 3.50454 1.71656 5.14355 1.71627ZM5.14355 3.4272C4.44893 3.4275 3.8566 4.01967 3.85645 4.71431C3.8567 5.40889 4.44899 6.0021 5.14355 6.0024C5.83834 6.0024 6.43139 5.40906 6.43164 4.71431C6.43148 4.01949 5.8384 3.4272 5.14355 3.4272Z" fill="black"/>
</svg>
