<svg width="24" height="24" viewBox="0 0 24 24" fill="none" xmlns="http://www.w3.org/2000/svg">
<path d="M18.001 15.4307C18.4732 15.4307 18.8564 15.8139 18.8564 16.2861V17.7617L19.9229 18.0283C20.3806 18.1429 20.6591 18.6066 20.5449 19.0645C20.4302 19.5222 19.9657 19.802 19.5078 19.6875L17.7939 19.2588C17.4135 19.1636 17.1457 18.8208 17.1455 18.4287V16.2861C17.1455 15.814 17.5289 15.4308 18.001 15.4307Z" fill="black"/>
<path fill-rule="evenodd" clip-rule="evenodd" d="M18.001 12.002C21.3134 12.002 23.9989 14.6877 23.999 18C23.9988 21.3123 21.3134 23.998 18.001 23.998C14.6888 23.9979 12.0032 21.3123 12.0029 18C12.0031 14.6877 14.6887 12.0021 18.001 12.002ZM18.001 13.7129C15.6331 13.713 13.714 15.6321 13.7139 18C13.7141 20.3679 15.6331 22.2879 18.001 22.2881C20.369 22.288 22.2888 20.3679 22.2891 18C22.2889 15.632 20.369 13.713 18.001 13.7129Z" fill="black"/>
<path fill-rule="evenodd" clip-rule="evenodd" d="M10.2871 0.000976562C12.9683 0.00100371 15.4347 0.419794 17.2617 1.12402C18.1722 1.47503 18.9682 1.91437 19.5508 2.44531C20.1237 2.96765 20.554 3.64395 20.5684 4.4502C20.569 4.46397 20.5713 4.47825 20.5713 4.49219V9.42871C20.571 9.90053 20.1876 10.2839 19.7158 10.2842C19.2438 10.2842 18.8606 9.90069 18.8604 9.42871V7.0625C18.3933 7.36524 17.8521 7.63178 17.2617 7.85938C15.4347 8.56359 12.9683 8.98142 10.2871 8.98145C7.60595 8.98145 5.13953 8.56355 3.3125 7.85938C2.72209 7.6318 2.18089 7.36519 1.71387 7.0625V10.2861L1.71875 10.3564C1.74102 10.5316 1.85025 10.7725 2.1748 11.0684C2.54634 11.4068 3.13243 11.752 3.92773 12.0586C5.5131 12.6696 7.76151 13.0654 10.2871 13.0654C10.7592 13.0656 11.1416 13.4488 11.1416 13.9209C11.1411 14.3926 10.7589 14.7752 10.2871 14.7754C7.60592 14.7754 5.13954 14.3575 3.3125 13.6533C2.72204 13.4257 2.18099 13.1589 1.71387 12.8564V16.0811C1.7144 16.3915 2.02473 16.9538 3.23047 17.5488C4.36037 18.1064 6.00718 18.5453 7.96094 18.7441C8.43063 18.792 8.77338 19.2119 8.72559 19.6816C8.67756 20.1511 8.2576 20.4929 7.78809 20.4453C5.70378 20.2332 3.84208 19.7583 2.47363 19.083C1.18232 18.4457 0.00338761 17.456 0.00292969 16.0811V4.49219C0.00292969 3.66749 0.440519 2.97662 1.02344 2.44531C1.60613 1.91429 2.40182 1.47506 3.3125 1.12402C5.13956 0.419787 7.60582 0.000976562 10.2871 0.000976562ZM10.2871 1.71289C7.76128 1.71289 5.51313 2.10867 3.92773 2.71973C3.13224 3.02636 2.54631 3.37042 2.1748 3.70898C1.80396 4.04707 1.71387 4.3135 1.71387 4.49219C1.71419 4.67089 1.80449 4.93687 2.1748 5.27441C2.54634 5.61289 3.13243 5.95712 3.92773 6.26367C5.51311 6.87467 7.76142 7.27051 10.2871 7.27051C12.8129 7.27048 15.0611 6.87474 16.6465 6.26367C17.4418 5.95713 18.0269 5.61288 18.3984 5.27441C18.7689 4.93677 18.86 4.67093 18.8604 4.49219C18.8604 4.31349 18.7693 4.0471 18.3984 3.70898C18.027 3.37051 17.4417 3.02629 16.6465 2.71973C15.0611 2.10865 12.8129 1.71292 10.2871 1.71289Z" fill="black"/>
</svg>
