<svg width="24" height="24" viewBox="0 0 24 24" fill="none" xmlns="http://www.w3.org/2000/svg">
<path fill-rule="evenodd" clip-rule="evenodd" d="M11.1436 12.8594C12.7405 12.8595 14.082 13.9521 14.4619 15.4307H18.8574C19.3296 15.4307 19.7129 15.8139 19.7129 16.2861C19.7126 16.7581 19.3295 17.1416 18.8574 17.1416H14.4619C14.0817 18.6197 12.7402 19.7128 11.1436 19.7129C9.54678 19.7128 8.20444 18.6198 7.82422 17.1416H5.14355C4.67151 17.1416 4.28835 16.7581 4.28809 16.2861C4.28809 15.8139 4.67135 15.4307 5.14355 15.4307H7.82422C8.20416 13.952 9.54649 12.8594 11.1436 12.8594ZM11.1436 14.5703C10.1957 14.5704 9.42781 15.3383 9.42773 16.2861C9.428 17.2338 10.1958 18.0029 11.1436 18.0029C12.0883 18.0028 12.8544 17.2385 12.8594 16.2949V16.2764C12.8543 15.3328 12.0883 14.5704 11.1436 14.5703Z" fill="black"/>
<path fill-rule="evenodd" clip-rule="evenodd" d="M16.2861 4.28809C18.1784 4.28809 19.7128 5.82253 19.7129 7.71484C19.7126 9.607 18.1783 11.1416 16.2861 11.1416C14.6893 11.1415 13.347 10.0486 12.9668 8.57031H5.14355C4.67151 8.57031 4.28835 8.18682 4.28809 7.71484C4.28809 7.24264 4.67135 6.85938 5.14355 6.85938H12.9678C13.3478 5.3808 14.6891 4.28815 16.2861 4.28809ZM16.2861 5.99902C15.3383 5.9991 14.5704 6.76699 14.5703 7.71484C14.5706 8.66253 15.3384 9.43156 16.2861 9.43164C17.2339 9.43164 18.0027 8.66257 18.0029 7.71484C18.0029 6.76696 17.234 5.99902 16.2861 5.99902Z" fill="black"/>
<path fill-rule="evenodd" clip-rule="evenodd" d="M20.7041 0.858398C22.05 0.858532 23.1414 1.95099 23.1416 3.29688V20.7041C23.1412 22.0499 22.0499 23.1415 20.7041 23.1416H3.29688C1.95116 23.1414 0.859772 22.0498 0.859375 20.7041V3.29688C0.859584 1.95103 1.95103 0.858607 3.29688 0.858398H20.7041ZM3.29688 2.57031C2.89544 2.57052 2.57052 2.89544 2.57031 3.29688V20.7041C2.57071 21.1054 2.89555 21.4314 3.29688 21.4316H20.7041C21.1055 21.4315 21.4312 21.1054 21.4316 20.7041V3.29688C21.4314 2.89538 21.1056 2.57045 20.7041 2.57031H3.29688Z" fill="black"/>
</svg>
