<svg width="24" height="24" viewBox="0 0 24 24" fill="none" xmlns="http://www.w3.org/2000/svg">
<path d="M17.751 16.2881C18.2232 16.2881 18.6055 16.6714 18.6055 17.1436C18.6052 17.6155 18.223 17.999 17.751 17.999H6.25098C5.77905 17.9989 5.39577 17.6155 5.39551 17.1436C5.39551 16.6714 5.77889 16.2882 6.25098 16.2881H17.751Z" fill="black"/>
<path d="M19.7148 11.1445C20.1868 11.1449 20.5693 11.528 20.5693 12C20.5693 12.472 20.1868 12.8551 19.7148 12.8555H4.28613C3.81393 12.8555 3.43066 12.4722 3.43066 12C3.43066 11.5278 3.81393 11.1445 4.28613 11.1445H19.7148Z" fill="black"/>
<path d="M17.751 6.00195C18.2232 6.00197 18.6055 6.38523 18.6055 6.85742C18.6052 7.32939 18.223 7.71288 17.751 7.71289H6.25098C5.77905 7.71276 5.39577 7.32932 5.39551 6.85742C5.39551 6.3853 5.77889 6.00209 6.25098 6.00195H17.751Z" fill="black"/>
<path fill-rule="evenodd" clip-rule="evenodd" d="M12 0.000976562C18.626 0.00110851 23.9979 5.37398 23.998 12C23.9978 18.6259 18.626 23.9979 12 23.998C5.37406 23.9979 0.00221703 18.6259 0.00195312 12C0.00210413 5.37399 5.37399 0.00112757 12 0.000976562ZM12 1.71289C6.31839 1.71304 1.71304 6.31839 1.71289 12C1.71315 17.6815 6.31846 22.2879 12 22.2881C17.6816 22.288 22.2878 17.6815 22.2881 12C22.2879 6.31838 17.6816 1.71302 12 1.71289Z" fill="black"/>
</svg>
