<svg width="24" height="24" viewBox="0 0 24 24" fill="none" xmlns="http://www.w3.org/2000/svg">
<path fill-rule="evenodd" clip-rule="evenodd" d="M11.9941 0.597621C14.9674 0.570656 17.9525 1.12235 20.6846 2.37301C21.4789 2.73676 22.0029 3.55991 21.9971 4.43356C21.9935 4.96769 21.9981 9.30472 21.998 11.5654C21.998 13.9943 21.2617 16.3669 19.8867 18.3691C19.2061 19.3602 18.3832 20.2362 17.4521 20.9755C17.4431 20.9832 17.4341 20.9908 17.4248 20.998C16.482 21.7421 15.4285 22.3461 14.2949 22.7822C13.26 23.1803 12.5068 23.3824 11.7715 23.3496C11.0523 23.3174 10.4211 23.0561 9.70898 22.7822C7.4421 21.9101 5.49223 20.3713 4.11719 18.3691C2.74218 16.3668 2.00589 13.9943 2.00586 11.5654C2.00584 9.30438 2.0104 4.9694 2.00684 4.43551C2.00101 3.5638 2.52305 2.73755 3.31934 2.37301C4.03039 2.04752 4.75807 1.77409 5.49707 1.54586C5.52282 1.53682 5.54885 1.52893 5.5752 1.52243C7.66043 0.88824 9.83596 0.617219 11.9941 0.597621ZM3.7168 11.5654C3.71682 13.6488 4.3479 15.6839 5.52734 17.4013C6.70679 19.1186 8.37887 20.4385 10.3232 21.1865C11.1247 21.4948 11.4667 21.6234 11.8477 21.6406C12.2126 21.6569 12.6893 21.5678 13.6807 21.1865C14.3499 20.929 14.9854 20.6016 15.5811 20.2158L3.7168 8.35153C3.71634 9.50876 3.71679 10.6941 3.7168 11.5654ZM5.54785 3.32711C5.03288 3.50221 4.52668 3.70188 4.03125 3.92868C3.85065 4.01136 3.71554 4.22113 3.7168 4.42379C3.71796 4.59802 3.71677 5.16697 3.7168 5.93356L16.9453 19.1621C17.5174 18.6374 18.0324 18.048 18.4766 17.4013C18.6339 17.1723 18.7804 16.9369 18.918 16.6972L5.54785 3.32711ZM12.0098 2.30758C10.4598 2.32165 8.92349 2.47333 7.43945 2.80075L19.6807 15.042C20.0782 13.9323 20.2871 12.7571 20.2871 11.5654C20.2871 9.31365 20.2835 4.96296 20.2871 4.42184C20.2884 4.22125 20.155 4.01227 19.9727 3.92868C17.4963 2.79501 14.7644 2.28261 12.0098 2.30758Z" fill="black"/>
</svg>
