<svg width="24" height="24" viewBox="0 0 24 24" fill="none" xmlns="http://www.w3.org/2000/svg">
<path fill-rule="evenodd" clip-rule="evenodd" d="M13.1455 0.000976562C13.7011 0.00117286 14.242 0.183233 14.6865 0.516602L17.4287 2.57324H18.001C19.4198 2.57324 20.5701 3.72379 20.5703 5.14258V9.41113C20.5704 9.41698 20.5713 9.42284 20.5713 9.42871C20.5713 9.43426 20.5704 9.43979 20.5703 9.44531V14.5488C20.5706 14.5618 20.5706 14.5748 20.5703 14.5879V21.4287C20.5703 22.8477 19.42 23.998 18.001 23.998H12.0195C12.0137 23.9982 12.0078 23.999 12.002 23.999C11.9962 23.999 11.9901 23.9982 11.9844 23.998H6.00098C4.5823 23.9977 3.43164 22.8475 3.43164 21.4287V5.14258C3.43187 3.72401 4.58244 2.5736 6.00098 2.57324H6.57617L9.31738 0.516602C9.7621 0.183089 10.3035 0.000976562 10.8594 0.000976562H13.1455ZM6.00098 4.28418C5.52685 4.28454 5.1428 4.66842 5.14258 5.14258V21.4287C5.14258 21.9031 5.52671 22.2877 6.00098 22.2881H11.1465V5.71582C11.1136 5.7042 11.0794 5.69561 11.0469 5.68262L7.70508 4.34473C7.6037 4.30421 7.49492 4.28421 7.38574 4.28418H6.00098ZM16.6172 4.28418C16.508 4.28422 16.3993 4.30417 16.2979 4.34473L12.9561 5.68262C12.9238 5.69552 12.8901 5.70427 12.8574 5.71582V22.2881H18.001C18.4755 22.2881 18.8604 21.9033 18.8604 21.4287V15.2715L15.2627 14.5527C14.8633 14.4727 14.5754 14.1221 14.5752 13.7148V9.42871C14.5752 8.95651 14.9585 8.57324 15.4307 8.57324H18.8604V5.14258C18.8601 4.6682 18.4754 4.28418 18.001 4.28418H16.6172ZM16.2861 10.2842V13.0127L18.8604 13.5283V10.2842H16.2861ZM10.8594 1.71289C10.6735 1.71289 10.4925 1.77325 10.3438 1.88477L8.88672 2.97656L11.6826 4.09473C11.8872 4.17645 12.1157 4.17643 12.3203 4.09473L15.1162 2.97559L13.6611 1.88477C13.5126 1.77339 13.3311 1.71309 13.1455 1.71289H10.8594Z" fill="black"/>
</svg>
