<svg width="24" height="24" viewBox="0 0 24 24" fill="none" xmlns="http://www.w3.org/2000/svg">
<path fill-rule="evenodd" clip-rule="evenodd" d="M8.4834 0.59793C10.2143 0.525588 11.9114 1.0957 13.2471 2.20047C13.4432 2.36281 13.5575 2.60408 13.5576 2.85867C13.5576 4.75683 13.0281 11.3481 12.9639 12.3753C12.9171 13.123 13.3227 13.8574 13.9805 14.2161C14.93 14.7338 17.279 16.0153 17.9443 16.3782C18.7443 16.8146 19.4127 17.458 19.8779 18.2415C20.3431 19.025 20.5887 19.9201 20.5889 20.8313C20.589 22.2376 19.4246 23.4016 18.0186 23.4016C17.0831 23.4016 14.1088 23.4006 13.5547 23.4016C12.8313 23.4029 12.1234 23.1902 11.5205 22.7903C11.2881 22.6361 9.65438 21.5443 7.93262 20.3948V21.1409C7.93256 21.7405 7.69355 22.3155 7.26953 22.7395C6.8455 23.1635 6.27055 23.4026 5.6709 23.4026C5.07126 23.4026 4.49632 23.1635 4.07227 22.7395C3.64825 22.3155 3.40924 21.7405 3.40918 21.1409V2.85867C3.4093 2.60408 3.5236 2.36281 3.71973 2.20047C5.0554 1.09575 6.75253 0.525556 8.4834 0.59793ZM5.12012 21.1409C5.12017 21.287 5.17792 21.4272 5.28125 21.5305C5.38461 21.6338 5.52478 21.6917 5.6709 21.6917C5.81703 21.6916 5.9572 21.6339 6.06055 21.5305C6.16388 21.4272 6.22162 21.287 6.22168 21.1409V19.2542C5.82829 18.9917 5.4552 18.7423 5.12012 18.5188V21.1409ZM7.62793 2.33133C6.72693 2.42752 5.86285 2.75323 5.12012 3.28055V16.4641C5.67271 16.832 6.5641 17.4269 7.53906 18.0774C7.54894 18.0838 7.55876 18.0902 7.56836 18.097C7.9939 18.3809 8.43507 18.6747 8.87012 18.9651C10.5991 20.1194 12.2359 21.213 12.4658 21.3655C12.7876 21.5789 13.1656 21.6924 13.5518 21.6917C14.108 21.6906 17.0859 21.6917 18.0186 21.6917C18.4803 21.6916 18.878 21.2929 18.8779 20.8313C18.8778 20.2273 18.7156 19.6339 18.4072 19.1145C18.0989 18.5953 17.6561 18.1685 17.126 17.8792C16.4607 17.5163 14.1115 16.2347 13.1621 15.7171C11.9212 15.0404 11.1688 13.6795 11.2568 12.2688C11.323 11.2101 11.7801 5.51098 11.8398 3.27566C11.0987 2.75121 10.237 2.42825 9.33887 2.33231V12.7034C9.33875 13.1755 8.95547 13.5588 8.4834 13.5589C8.01127 13.5589 7.62805 13.1755 7.62793 12.7034V2.33133Z" fill="black"/>
</svg>
