<svg width="24" height="24" viewBox="0 0 24 24" fill="none" xmlns="http://www.w3.org/2000/svg">
<path d="M5.99805 20.5732C6.47025 20.5732 6.85352 20.9565 6.85352 21.4287V23.1426C6.85352 23.6148 6.47025 23.998 5.99805 23.998C5.52596 23.9979 5.14258 23.6147 5.14258 23.1426V21.4287C5.14258 20.9566 5.52596 20.5734 5.99805 20.5732Z" fill="black"/>
<path d="M11.998 20.5732C12.4703 20.5732 12.8535 20.9565 12.8535 21.4287V23.1426C12.8535 23.6148 12.4703 23.998 11.998 23.998C11.526 23.9979 11.1426 23.6147 11.1426 23.1426V21.4287C11.1426 20.9566 11.526 20.5734 11.998 20.5732Z" fill="black"/>
<path d="M17.998 20.5732C18.4703 20.5732 18.8535 20.9565 18.8535 21.4287V23.1426C18.8535 23.6148 18.4703 23.998 17.998 23.998C17.526 23.9979 17.1426 23.6147 17.1426 23.1426V21.4287C17.1426 20.9566 17.526 20.5734 17.998 20.5732Z" fill="black"/>
<path d="M8.56934 15.4307C9.04154 15.4307 9.4248 15.8139 9.4248 16.2861V18C9.42454 18.472 9.04138 18.8555 8.56934 18.8555C8.09746 18.8553 7.71413 18.4719 7.71387 18V16.2861C7.71387 15.8141 8.0973 15.4309 8.56934 15.4307Z" fill="black"/>
<path d="M15.4268 15.4307C15.899 15.4307 16.2822 15.8139 16.2822 16.2861V18C16.282 18.472 15.8988 18.8555 15.4268 18.8555C14.9548 18.8554 14.5716 18.4719 14.5713 18V16.2861C14.5713 15.814 14.9546 15.4307 15.4268 15.4307Z" fill="black"/>
<path fill-rule="evenodd" clip-rule="evenodd" d="M11.998 0.000976562C12.4703 0.000976562 12.8535 0.385218 12.8535 0.857422V3.47852C14.5843 3.67178 16.2089 4.44717 17.4521 5.69043C18.8981 7.13669 19.7109 9.09851 19.7109 11.1436C19.7105 11.6153 19.3272 11.9978 18.8555 11.998H5.1416C4.66965 11.998 4.28655 11.6154 4.28613 11.1436C4.28613 9.09819 5.09964 7.13674 6.5459 5.69043C7.78895 4.44736 9.41223 3.67195 11.1426 3.47852V0.857422C11.1426 0.3853 11.526 0.00110857 11.998 0.000976562ZM11.999 5.1416C10.4071 5.1416 8.88049 5.77379 7.75488 6.89941C6.83287 7.82146 6.24223 9.01246 6.05859 10.2881H17.9395C17.7559 9.01271 17.1649 7.82138 16.2432 6.89941C15.1177 5.77395 13.5907 5.14177 11.999 5.1416Z" fill="black"/>
</svg>
