<svg width="24" height="24" viewBox="0 0 24 24" fill="none" xmlns="http://www.w3.org/2000/svg">
<g clip-path="url(#clip0_7418_3853)">
<path d="M15.4287 10.2881C15.9009 10.2881 16.2842 10.6714 16.2842 11.1436V12.8574C16.2839 13.3294 15.9008 13.7129 15.4287 13.7129C14.9567 13.7129 14.5735 13.3294 14.5732 12.8574V11.1436C14.5732 10.6714 14.9565 10.2881 15.4287 10.2881Z" fill="black"/>
<path fill-rule="evenodd" clip-rule="evenodd" d="M20.5762 0.858398C21.1447 0.858499 21.6686 1.04613 22.0938 1.35938C22.1663 1.41287 22.2353 1.47058 22.3018 1.53125C22.4815 1.69532 22.6373 1.88385 22.7646 2.09277C22.7868 2.12916 22.8107 2.1646 22.8311 2.20215C23.0283 2.56555 23.1406 2.98229 23.1406 3.4248V20.5762C23.1406 20.9729 23.0476 21.3473 22.8867 21.6826C22.8546 21.7495 22.8198 21.8144 22.7822 21.8779C22.6519 22.0983 22.4897 22.2962 22.3018 22.4678C22.2442 22.5203 22.1852 22.571 22.123 22.6182C21.6928 22.9448 21.158 23.1415 20.5762 23.1416H13.71C12.2935 23.1416 11.1448 21.9925 11.1445 20.5762V3.4248C11.1446 2.00823 12.2934 0.858419 13.71 0.858398H20.5762ZM13.71 2.57031C13.2378 2.57033 12.8555 2.95263 12.8555 3.4248V20.5762C12.8557 21.0481 13.2379 21.4316 13.71 21.4316H20.5752C20.6746 21.4316 20.7696 21.4131 20.8584 21.3818C20.8889 21.3711 20.9184 21.3587 20.9473 21.3447C21.0337 21.3028 21.1125 21.2478 21.1797 21.1807C21.2185 21.1419 21.2534 21.0993 21.2842 21.0537C21.3763 20.9173 21.4306 20.753 21.4307 20.5762V3.4248C21.4306 2.98204 21.0934 2.61783 20.6621 2.57422L20.5752 2.57031H13.71Z" fill="black"/>
<path d="M8.57227 1.71582C9.04412 1.71623 9.42676 2.09934 9.42676 2.57129C9.42676 3.04324 9.04412 3.42634 8.57227 3.42676H3.4248C2.95263 3.42678 2.57033 3.80908 2.57031 4.28125V19.7188C2.57049 20.1908 2.95273 20.5732 3.4248 20.5732H8.57227C9.04413 20.5737 9.42678 20.9568 9.42676 21.4287C9.42672 21.9006 9.04409 22.2828 8.57227 22.2832H3.4248C2.00832 22.2832 0.858573 21.1352 0.858398 19.7188V4.28125C0.85842 2.86467 2.00822 1.71584 3.4248 1.71582H8.57227Z" fill="black"/>
</g>
<defs>
<clipPath id="clip0_7418_3853">
<rect width="24" height="24" fill="white"/>
</clipPath>
</defs>
</svg>
