<svg width="24" height="24" viewBox="0 0 24 24" fill="none" xmlns="http://www.w3.org/2000/svg">
<g clip-path="url(#clip0_7418_3864)">
<path d="M6.00195 10.2881C6.47404 10.2882 6.85742 10.6714 6.85742 11.1436V12.8574C6.85716 13.3293 6.47388 13.7128 6.00195 13.7129C5.52991 13.7129 5.14675 13.3294 5.14648 12.8574V11.1436C5.14648 10.6714 5.52975 10.2881 6.00195 10.2881Z" fill="black"/>
<path fill-rule="evenodd" clip-rule="evenodd" d="M7.71777 0.858398C9.13437 0.858398 10.2832 2.00821 10.2832 3.4248V20.5762C10.2829 21.9926 9.13422 23.1416 7.71777 23.1416H3.42383C2.00751 23.1414 0.858662 21.9925 0.858398 20.5762V3.4248C0.858421 2.00831 2.00736 0.858552 3.42383 0.858398H7.71777ZM3.42383 2.57031C2.95177 2.57047 2.56936 2.95271 2.56934 3.4248V20.5762C2.5696 21.0481 2.95192 21.4315 3.42383 21.4316H7.71777C8.18981 21.4316 8.57298 21.0482 8.57324 20.5762V3.4248C8.57322 2.95262 8.18996 2.57031 7.71777 2.57031H3.42383Z" fill="black"/>
<path d="M18.002 10.2881C18.474 10.2882 18.8574 10.6714 18.8574 11.1436V12.8574C18.8572 13.3293 18.4739 13.7128 18.002 13.7129C17.5299 13.7129 17.1467 13.3294 17.1465 12.8574V11.1436C17.1465 10.6714 17.5297 10.2881 18.002 10.2881Z" fill="black"/>
<path fill-rule="evenodd" clip-rule="evenodd" d="M20.5752 0.858398C21.9918 0.858398 23.1406 2.00821 23.1406 3.4248V20.5762C23.1404 21.9926 21.9916 23.1416 20.5752 23.1416H16.2812C14.8648 23.1416 13.7161 21.9925 13.7158 20.5762V3.4248C13.7158 2.00823 14.8647 0.85842 16.2812 0.858398H20.5752ZM16.2812 2.57031C15.8091 2.57033 15.4268 2.95263 15.4268 3.4248V20.5762C15.427 21.0481 15.8092 21.4316 16.2812 21.4316H20.5752C21.0472 21.4316 21.4304 21.0482 21.4307 20.5762V3.4248C21.4306 2.95262 21.0474 2.57031 20.5752 2.57031H16.2812Z" fill="black"/>
</g>
<defs>
<clipPath id="clip0_7418_3864">
<rect width="24" height="24" fill="white"/>
</clipPath>
</defs>
</svg>
