<svg width="24" height="24" viewBox="0 0 24 24" fill="none" xmlns="http://www.w3.org/2000/svg">
<g clip-path="url(#clip0_7418_3873)">
<path d="M8.57129 10.2881C9.04349 10.2881 9.42676 10.6714 9.42676 11.1436V12.8574C9.42649 13.3294 9.04333 13.7129 8.57129 13.7129C8.09936 13.7128 7.71608 13.3293 7.71582 12.8574V11.1436C7.71582 10.6714 8.0992 10.2882 8.57129 10.2881Z" fill="black"/>
<path fill-rule="evenodd" clip-rule="evenodd" d="M10.29 0.858398C11.7066 0.858419 12.8554 2.00823 12.8555 3.4248V20.5762C12.8552 21.9925 11.7065 23.1416 10.29 23.1416H3.42383C2.84201 23.1415 2.30724 22.9448 1.87695 22.6182C1.81459 22.5708 1.75498 22.5205 1.69727 22.4678C1.50944 22.2962 1.34701 22.0983 1.2168 21.8779C1.15903 21.7802 1.10516 21.6797 1.06055 21.5742C0.930843 21.2675 0.859441 20.9301 0.859375 20.5762V3.4248C0.85938 3.07069 0.930781 2.73267 1.06055 2.42578C1.10971 2.30955 1.17029 2.19951 1.23535 2.09277C1.36255 1.88405 1.51773 1.6952 1.69727 1.53125C1.85003 1.39175 2.018 1.26855 2.20117 1.16895C2.56461 0.971332 2.98109 0.858477 3.42383 0.858398H10.29ZM3.33691 2.57422C3.1647 2.59178 3.00748 2.66036 2.88086 2.76465C2.85967 2.7821 2.83972 2.80093 2.82031 2.82031C2.78167 2.85889 2.74654 2.90093 2.71582 2.94629C2.65427 3.03725 2.60973 3.14058 2.58691 3.25195C2.5755 3.30763 2.56934 3.36574 2.56934 3.4248V20.5762C2.56937 20.6351 2.57553 20.6925 2.58691 20.748C2.62679 20.9429 2.73306 21.1133 2.88086 21.2354C2.93319 21.2786 2.99106 21.3148 3.05273 21.3447C3.08155 21.3587 3.11109 21.3711 3.1416 21.3818C3.23036 21.413 3.32542 21.4316 3.4248 21.4316H10.29C10.7621 21.4316 11.1443 21.0481 11.1445 20.5762V3.4248C11.1445 2.95263 10.7622 2.57033 10.29 2.57031H3.4248L3.33691 2.57422Z" fill="black"/>
<path d="M20.5762 1.71582C21.9926 1.71597 23.1416 2.86475 23.1416 4.28125V19.7188C23.1414 21.1351 21.9925 22.283 20.5762 22.2832H15.4287C14.9567 22.2831 14.5743 21.9008 14.5742 21.4287C14.5742 20.9566 14.9566 20.5734 15.4287 20.5732H20.5762C21.0481 20.5731 21.4305 20.1907 21.4307 19.7188V4.28125C21.4306 3.80916 21.0482 3.42691 20.5762 3.42676H15.4287C14.9566 3.42661 14.5742 3.0434 14.5742 2.57129C14.5742 2.09918 14.9566 1.71597 15.4287 1.71582H20.5762Z" fill="black"/>
</g>
<defs>
<clipPath id="clip0_7418_3873">
<rect width="24" height="24" fill="white"/>
</clipPath>
</defs>
</svg>
