<svg width="24" height="24" viewBox="0 0 24 24" fill="none" xmlns="http://www.w3.org/2000/svg">
<g clip-path="url(#clip0_7418_3849)">
<path d="M5.14453 10.2881C5.61651 10.2884 6 10.6715 6 11.1436V12.8574C5.99974 13.3292 5.61635 13.7126 5.14453 13.7129C4.67249 13.7129 4.28933 13.3294 4.28906 12.8574V11.1436C4.28906 10.6714 4.67233 10.2881 5.14453 10.2881Z" fill="black"/>
<path fill-rule="evenodd" clip-rule="evenodd" d="M20.5752 0.858398C21.9918 0.858398 23.1406 2.00821 23.1406 3.4248V20.5762C23.1404 21.9926 21.9916 23.1416 20.5752 23.1416H3.4248C2.00838 23.1416 0.859639 21.9925 0.859375 20.5762V3.4248C0.859397 2.00823 2.00822 0.858419 3.4248 0.858398H20.5752ZM3.4248 2.57031C2.95263 2.57033 2.57033 2.95263 2.57031 3.4248V20.5762C2.57058 21.0481 2.95278 21.4316 3.4248 21.4316H10.291C10.7627 21.4313 11.1452 21.0479 11.1455 20.5762V3.4248C11.1455 2.9822 10.809 2.61804 10.3779 2.57422L10.291 2.57031H3.4248ZM12.707 2.57031C12.8015 2.83771 12.8555 3.1251 12.8555 3.4248V20.5762C12.8554 20.8765 12.8009 21.1638 12.7061 21.4316H20.5752C21.0472 21.4316 21.4304 21.0482 21.4307 20.5762V3.4248C21.4306 2.95262 21.0474 2.57031 20.5752 2.57031H12.707Z" fill="black"/>
</g>
<defs>
<clipPath id="clip0_7418_3849">
<rect width="24" height="24" fill="white"/>
</clipPath>
</defs>
</svg>
