<svg width="24" height="24" viewBox="0 0 24 24" fill="none" xmlns="http://www.w3.org/2000/svg">
<path fill-rule="evenodd" clip-rule="evenodd" d="M7.71402 0.000976562C8.18608 0.00114066 8.56948 0.38532 8.56948 0.857422C8.56922 1.3293 8.18592 1.71273 7.71402 1.71289H6.85659C6.38236 1.71312 5.99842 2.09705 5.9982 2.57129V5.14453H11.1437V0.857422C11.1437 0.385361 11.5272 0.00120856 11.9992 0.000976562C12.4714 0.000976562 12.8546 0.385218 12.8546 0.857422V5.14453H18.0021V2.57129C18.0019 2.09701 17.617 1.71307 17.1427 1.71289H16.2853C15.8133 1.71289 15.4301 1.3294 15.4298 0.857422C15.4298 0.385218 15.8131 0.000976562 16.2853 0.000976562H17.1427C18.5614 0.00115922 19.7118 1.15262 19.7121 2.57129V5.14453H21.4279C21.6838 5.14461 21.9267 5.26012 22.089 5.45801C22.2513 5.65608 22.316 5.91685 22.2658 6.16797L20.5519 14.7393C20.4719 15.1388 20.1205 15.4268 19.713 15.4268H16.2834V22.2881H17.1427C17.6147 22.2883 17.9972 22.6715 17.9972 23.1436C17.997 23.6154 17.6146 23.9988 17.1427 23.999H6.85659C6.38464 23.9989 6.00139 23.6155 6.00113 23.1436C6.00113 22.6714 6.38448 22.2882 6.85659 22.2881H7.71499V15.4268H4.28433C3.87718 15.4264 3.52637 15.1385 3.44644 14.7393L1.73159 6.16797C1.68141 5.91691 1.74708 5.65605 1.90933 5.45801C2.07164 5.26003 2.31447 5.14466 2.57046 5.14453H4.28726V2.57129C4.28748 1.15264 5.43796 0.00120267 6.85659 0.000976562H7.71402ZM4.9855 13.7168H7.71499V11.1436C7.71499 10.6715 8.09845 10.2883 8.57046 10.2881C9.04266 10.2881 9.42593 10.6714 9.42593 11.1436V22.2881H14.5724V11.1436C14.5724 10.6714 14.9558 10.2882 15.4279 10.2881C15.9001 10.2881 16.2834 10.6714 16.2834 11.1436V13.7168H19.0128L20.3839 6.85547H3.61441L4.9855 13.7168Z" fill="black"/>
</svg>
