<svg width="24" height="24" viewBox="0 0 24 24" fill="none" xmlns="http://www.w3.org/2000/svg">
<path fill-rule="evenodd" clip-rule="evenodd" d="M12.002 8.62695C15.2108 8.6274 17.8607 11.0137 18.2783 14.1084H19.0479C19.0595 14.1081 19.0712 14.1082 19.083 14.1084H21.4297C21.9018 14.1085 22.2842 14.4917 22.2842 14.9639C22.2839 15.4358 21.9017 15.8193 21.4297 15.8193H19.8486L19.1377 23.2256C19.0922 23.6951 18.6737 24.0399 18.2041 23.9951C17.7343 23.9499 17.3897 23.5313 17.4346 23.0615L18.1309 15.8193H5.87109L6.56641 23.0615C6.61127 23.5314 6.26675 23.95 5.79688 23.9951C5.32721 24.0401 4.90978 23.6951 4.86426 23.2256L4.15234 15.8193H2.57227C2.10034 15.8192 1.71706 15.4358 1.7168 14.9639C1.7168 14.4917 2.10017 14.1085 2.57227 14.1084H4.91797C4.92941 14.1082 4.9408 14.1081 4.95215 14.1084H5.72363C6.14132 11.0134 8.7927 8.62695 12.002 8.62695ZM12.002 10.3379C9.73929 10.3379 7.85724 11.9621 7.45605 14.1084H16.5469C16.1457 11.9624 14.2642 10.3383 12.002 10.3379Z" fill="black"/>
<path fill-rule="evenodd" clip-rule="evenodd" d="M12.001 17.1611C13.4197 17.1613 14.5701 18.3117 14.5703 19.7305C14.57 21.1492 13.4197 22.2997 12.001 22.2998C10.5824 22.2996 9.4319 21.1491 9.43164 19.7305C9.43187 18.3118 10.5824 17.1614 12.001 17.1611ZM12.001 18.8721C11.5267 18.8723 11.1428 19.2562 11.1426 19.7305C11.1428 20.2047 11.5268 20.5896 12.001 20.5898C12.4753 20.5897 12.8601 20.2047 12.8604 19.7305C12.8601 19.2562 12.4753 18.8722 12.001 18.8721Z" fill="black"/>
<path fill-rule="evenodd" clip-rule="evenodd" d="M12.001 0.000976562C14.13 0.000976562 15.8564 1.72836 15.8564 3.85742C15.8562 5.98626 14.1299 7.71289 12.001 7.71289C9.87219 7.71276 8.14577 5.98618 8.14551 3.85742C8.14551 1.72844 9.87203 0.00110854 12.001 0.000976562ZM12.001 1.71289C10.8164 1.71302 9.85645 2.67285 9.85645 3.85742C9.85671 5.04177 10.8166 6.00182 12.001 6.00195C13.1855 6.00195 14.1452 5.04185 14.1455 3.85742C14.1455 2.67277 13.1856 1.71289 12.001 1.71289Z" fill="black"/>
</svg>
