<svg width="24" height="24" viewBox="0 0 24 24" fill="none" xmlns="http://www.w3.org/2000/svg">
<path fill-rule="evenodd" clip-rule="evenodd" d="M7.71387 2.5729C8.18573 2.57324 8.56828 2.95645 8.56836 3.42837C8.56836 3.90037 8.18578 4.2835 7.71387 4.28384H6.85449V6.85904H9.42773C10.8463 6.8593 11.9968 8.00976 11.9971 9.42837V21.4284C11.9969 22.8471 10.8464 23.9974 9.42773 23.9977H2.57031C1.15165 23.9975 0.000182455 22.8471 0 21.4284V9.42837C0.000226285 8.00974 1.15166 6.85926 2.57031 6.85904H5.14355V4.28384H4.28516C3.81295 4.28384 3.42969 3.90058 3.42969 3.42837C3.42977 2.95624 3.813 2.5729 4.28516 2.5729H7.71387ZM2.57031 8.56997C2.09608 8.5702 1.71214 8.95414 1.71191 9.42837V21.4284C1.7121 21.9027 2.09604 22.2875 2.57031 22.2877H9.42773C9.90197 22.2875 10.2869 21.9026 10.2871 21.4284V9.42837C10.2869 8.95417 9.90193 8.57024 9.42773 8.56997H2.57031Z" fill="black"/>
<path d="M13.7314 5.83169C13.8242 5.36886 14.2754 5.06823 14.7383 5.1608L23.3096 6.87564C23.7724 6.9683 24.0729 7.41864 23.9805 7.8815C23.8879 8.34453 23.4367 8.645 22.9736 8.5524L14.4023 6.83853C13.9394 6.74583 13.6389 6.29466 13.7314 5.83169Z" fill="black"/>
<path d="M22.9736 0.018217C23.4366 -0.0743755 23.8878 0.226204 23.9805 0.689115C24.0729 1.15202 23.7725 1.60334 23.3096 1.69595L14.7383 3.40982C14.2754 3.50236 13.8242 3.20175 13.7314 2.73892C13.639 2.27608 13.9396 1.82581 14.4023 1.73306L22.9736 0.018217Z" fill="black"/>
</svg>
