<svg width="24" height="24" viewBox="0 0 24 24" fill="none" xmlns="http://www.w3.org/2000/svg">
<path fill-rule="evenodd" clip-rule="evenodd" d="M23.1416 4.28809L23.1426 4.28711C23.3194 4.28727 23.4838 4.3414 23.6201 4.43359L23.6855 4.4834C23.7065 4.50074 23.7269 4.51886 23.7461 4.53809C23.9009 4.69294 23.9971 4.90735 23.9971 5.14355V23.1436C23.9968 23.6153 23.6143 23.9986 23.1426 23.999H0.856445C0.384405 23.999 0.00124077 23.6155 0.000976562 23.1436C0.000976562 22.6714 0.384242 22.2881 0.856445 22.2881H5.14355V18.8574C5.14378 18.3854 5.52696 18.0029 5.99902 18.0029H8.57227V15.4297C8.57227 14.9575 8.95553 14.5742 9.42773 14.5742H12.001V12.001C12.001 11.5288 12.3842 11.1455 12.8564 11.1455H15.4297V8.57227C15.4297 8.10006 15.813 7.7168 16.2852 7.7168H18.8584V5.14355C18.8584 4.67149 19.2409 4.28733 19.7129 4.28711L23.1416 4.28809ZM20.5684 5.99902V8.57227C20.568 9.04414 20.1848 9.42669 19.7129 9.42676H17.1396V12.001C17.1392 12.4726 16.7569 12.8552 16.2852 12.8555H13.7109V15.4297C13.7104 15.9013 13.3282 16.284 12.8564 16.2842H10.2822V18.8574C10.282 19.3293 9.89965 19.7127 9.42773 19.7129H6.85449V22.2881H22.2871V5.99902H20.5684Z" fill="black"/>
</svg>
