<svg width="24" height="24" viewBox="0 0 24 24" fill="none" xmlns="http://www.w3.org/2000/svg">
<path fill-rule="evenodd" clip-rule="evenodd" d="M23.2305 4.29199C23.4028 4.30965 23.56 4.37873 23.6865 4.4834L23.7471 4.53809C23.7663 4.55732 23.7844 4.57765 23.8018 4.59863C23.8543 4.66225 23.8981 4.73345 23.9307 4.81055C23.9739 4.91277 23.998 5.02567 23.998 5.14355L23.9971 23.1436C23.9968 23.6154 23.6144 23.9988 23.1426 23.999H0.856445C0.384517 23.9989 0.00124054 23.6155 0.000976562 23.1436C0.000976562 22.6714 0.384354 22.2882 0.856445 22.2881H5.14453V18.8574C5.14476 18.3854 5.52794 18.0029 6 18.0029H8.57324V15.4297C8.57324 14.9575 8.95651 14.5742 9.42871 14.5742H12.002V12.001C12.002 11.5288 12.3852 11.1455 12.8574 11.1455H15.4307V8.57227C15.4307 8.10006 15.8139 7.7168 16.2861 7.7168H18.8594V5.14355C18.8594 4.67149 19.2419 4.28831 19.7139 4.28809H23.1426C23.1722 4.2881 23.2016 4.28902 23.2305 4.29199ZM20.5693 8.57227C20.569 9.04402 20.1856 9.42649 19.7139 9.42676H17.1406V12.001C17.1402 12.4725 16.7577 12.855 16.2861 12.8555H13.7119V15.4297C13.7114 15.9012 13.329 16.2838 12.8574 16.2842H10.2832V18.8574C10.2829 19.3292 9.90046 19.7126 9.42871 19.7129H6.85547V22.2881H22.2871V5.99902H20.5693V8.57227Z" fill="black"/>
<path d="M11.1426 0.000976562C11.2899 0.00101777 11.4287 0.0387405 11.5498 0.104492L11.6133 0.142578C11.6606 0.173797 11.7054 0.210354 11.7471 0.251953C11.902 0.406805 11.998 0.621258 11.998 0.857422V6.85742C11.9978 7.32932 11.6145 7.71276 11.1426 7.71289C10.6705 7.71289 10.2874 7.3294 10.2871 6.85742V2.92188L1.46094 11.748C1.1271 12.0813 0.585686 12.0814 0.251953 11.748C-0.0818231 11.4143 -0.0815789 10.872 0.251953 10.5381L9.07715 1.71289H5.14258C4.67054 1.71289 4.28737 1.3294 4.28711 0.857422C4.28711 0.385218 4.67037 0.000976562 5.14258 0.000976562H11.1426Z" fill="black"/>
</svg>
