<svg width="24" height="24" viewBox="0 0 24 24" fill="none" xmlns="http://www.w3.org/2000/svg">
<path fill-rule="evenodd" clip-rule="evenodd" d="M4.28613 4.28749C4.75816 4.2877 5.14062 4.67088 5.14062 5.14296V7.7162H7.71484C8.18667 7.71648 8.56911 8.09885 8.56934 8.57069V11.1449H11.1436C11.6154 11.1453 11.9979 11.5275 11.998 11.9994V14.5736H14.5713C15.0433 14.5738 15.4267 14.9561 15.4268 15.4281V18.0014H18C18.4721 18.0015 18.8555 18.3847 18.8555 18.8568V22.2875H23.1436C23.6155 22.2878 23.998 22.671 23.998 23.143C23.998 23.6149 23.6154 23.9981 23.1436 23.9984H0.857422C0.38524 23.9984 0.00198797 23.6151 0.00195312 23.143V5.14296C0.00195312 4.67075 0.385218 4.28749 0.857422 4.28749H4.28613ZM1.71289 22.2875H17.1455V19.7123H14.5713C14.0993 19.7121 13.7168 19.3289 13.7168 18.8568V16.2836H11.1436C10.6714 16.2836 10.2881 15.9003 10.2881 15.4281V12.8549H7.71484C7.24266 12.8549 6.85941 12.4716 6.85938 11.9994V9.42616H4.28613C3.81395 9.42616 3.4307 9.04286 3.43066 8.57069V5.99745H1.71289V22.2875Z" fill="black"/>
<path d="M12.2529 0.252332C12.5868 -0.0814766 13.128 -0.0815364 13.4619 0.252332L22.2871 9.07655V5.14296C22.2871 4.67083 22.6705 4.28762 23.1426 4.28749C23.6148 4.28749 23.998 4.67075 23.998 5.14296V11.143C23.998 11.1882 23.9931 11.2324 23.9863 11.2758C23.9844 11.2878 23.9829 11.2999 23.9805 11.3119C23.9718 11.355 23.9592 11.3964 23.9443 11.4369C23.9403 11.4479 23.9371 11.4592 23.9326 11.4701C23.9289 11.4791 23.924 11.4876 23.9199 11.4965C23.9117 11.5145 23.904 11.5327 23.8945 11.5502C23.7496 11.8169 23.4673 11.9984 23.1426 11.9984H17.1426C16.6705 11.9983 16.2871 11.615 16.2871 11.143C16.2871 10.6708 16.6705 10.2876 17.1426 10.2875H21.0781L12.2529 1.46132C11.919 1.12742 11.919 0.58623 12.2529 0.252332Z" fill="black"/>
</svg>
