<svg width="24" height="24" viewBox="0 0 24 24" fill="none" xmlns="http://www.w3.org/2000/svg">
<path d="M9.42623 16.2881C9.89843 16.2881 10.2817 16.6714 10.2817 17.1436C10.2814 17.6155 9.89827 17.999 9.42623 17.999H7.71236C7.24042 17.9989 6.85716 17.6155 6.85689 17.1436C6.85689 16.6714 7.24025 16.2882 7.71236 16.2881H9.42623Z" fill="black"/>
<path d="M16.2837 16.2881C16.7558 16.2881 17.1391 16.6714 17.1391 17.1436C17.1389 17.6155 16.7557 17.999 16.2837 17.999H14.5698C14.0977 17.999 13.7146 17.6155 13.7143 17.1436C13.7143 16.6714 14.0976 16.2881 14.5698 16.2881H16.2837Z" fill="black"/>
<path fill-rule="evenodd" clip-rule="evenodd" d="M16.3188 0.860352C16.3334 0.860955 16.3481 0.861913 16.3628 0.863281L16.394 0.867188C16.3975 0.867642 16.4013 0.868644 16.4047 0.869141C16.4262 0.872231 16.4478 0.875101 16.4692 0.879883C16.4754 0.88127 16.4815 0.883238 16.4878 0.884766C16.5071 0.889538 16.5262 0.895179 16.5454 0.901367C16.5589 0.905726 16.5721 0.910981 16.5854 0.916016C16.5943 0.919377 16.6039 0.922103 16.6128 0.925781C16.6157 0.927018 16.6186 0.928422 16.6215 0.929688C16.6317 0.934066 16.6418 0.938581 16.6518 0.943359C16.6712 0.952575 16.6901 0.962185 16.7085 0.972656L22.7026 4.39844C22.7214 4.40902 22.7394 4.42068 22.7573 4.43262C22.7907 4.45481 22.8227 4.47795 22.852 4.50391C22.9455 4.58701 23.0197 4.69119 23.0698 4.80859C23.0819 4.837 23.0921 4.86602 23.101 4.89551C23.1132 4.93572 23.1232 4.97693 23.1294 5.01953C23.1326 5.04155 23.1347 5.06368 23.1362 5.08594C23.1364 5.0884 23.137 5.09128 23.1372 5.09375L23.9946 19.665C24.0082 19.8998 23.9245 20.1306 23.7631 20.3018C23.6017 20.4727 23.3762 20.5702 23.1411 20.5703H19.7104V22.2861C19.7103 22.4335 19.6737 22.5723 19.6079 22.6934C19.5947 22.7176 19.5802 22.741 19.5649 22.7637C19.5341 22.8092 19.4992 22.8519 19.4604 22.8906C19.441 22.91 19.4201 22.9278 19.3989 22.9453C19.3573 22.9795 19.3127 23.0101 19.2651 23.0361C19.1436 23.1026 19.0042 23.1405 18.8559 23.1406H16.2846C14.4947 23.1406 12.9184 22.2255 11.9975 20.8379C11.0769 22.2252 9.50211 23.1406 7.71236 23.1406H5.14107C4.69837 23.1406 4.33431 22.8042 4.29049 22.373C4.28758 22.3445 4.28562 22.3155 4.2856 22.2861V20.5703H0.85494C0.619729 20.5702 0.394297 20.4728 0.23287 20.3018C0.0715345 20.1307 -0.0121329 19.8998 0.00142459 19.665L0.858846 5.09277L0.871542 4.98633C0.917228 4.74173 1.06861 4.52684 1.28756 4.40137L7.28756 0.972656L7.29049 0.970703C7.31372 0.957551 7.33792 0.945695 7.36275 0.93457C7.38424 0.924924 7.40602 0.916047 7.42818 0.908203C7.44469 0.902368 7.46135 0.897344 7.47799 0.892578C7.49128 0.888764 7.50457 0.885004 7.51803 0.881836C7.53748 0.877272 7.5571 0.874252 7.57662 0.871094C7.59189 0.868605 7.60711 0.865913 7.62252 0.864258C7.63587 0.862841 7.64923 0.862108 7.66256 0.861328C7.67914 0.860338 7.69571 0.858407 7.71236 0.858398H16.2837L16.3188 0.860352ZM2.53853 5.65527L2.53756 5.66211L5.80904 9.75195C5.9301 9.90348 5.99557 10.0922 5.99557 10.2861V21.4307H7.71236C9.54779 21.4306 11.0461 19.9893 11.1381 18.1768L11.143 18V12.1719L7.29537 2.93652L2.53853 5.65527ZM12.854 12.1689V18L12.8579 18.1768C12.9499 19.9893 14.4492 21.4307 16.2846 21.4307H17.9995V10.2861C17.9995 10.0922 18.066 9.90345 18.187 9.75195L21.4575 5.66309L21.4565 5.65527L16.7006 2.9375L12.854 12.1689ZM19.7104 10.585V18.8604H22.2338L21.6069 8.21289L19.7104 10.585ZM1.76217 18.8594H4.2856V10.585L2.38717 8.21289L1.76217 18.8594ZM11.9975 9.77734L15.0014 2.57031H8.99459L11.9975 9.77734Z" fill="black"/>
</svg>
