<svg width="24" height="24" viewBox="0 0 24 24" fill="none" xmlns="http://www.w3.org/2000/svg">
<path fill-rule="evenodd" clip-rule="evenodd" d="M18.3804 10.8379C19.7775 9.8744 21.7346 10.2332 22.6987 11.6299C23.6624 13.0263 23.3031 14.982 21.9087 15.9463L16.9263 19.4785C16.861 19.5357 16.7925 19.5884 16.7232 19.6396L17.9087 22.0107C18.1196 22.4329 17.9489 22.9469 17.5269 23.1582C17.1048 23.3689 16.5907 23.1981 16.3794 22.7764L15.1099 20.2373C15.0387 20.2424 14.9669 20.248 14.895 20.248H5.81104L5.22315 22.6006C5.10841 23.0583 4.64486 23.337 4.18702 23.2227C3.72933 23.1081 3.45096 22.6443 3.56495 22.1865L4.05421 20.2275C2.51301 20.0548 1.28898 18.726 1.28858 17.1436C1.28858 15.446 2.69652 14.0383 4.39405 14.0381H13.8716L18.3716 10.8438L18.3804 10.8379ZM21.2915 12.6006C20.8636 11.9811 19.9709 11.8177 19.3511 12.2451L14.6392 15.5908C14.4947 15.6932 14.3212 15.748 14.144 15.748H4.39405C3.64092 15.7483 2.99952 16.3904 2.99952 17.1436C2.99996 17.8964 3.64118 18.5379 4.39405 18.5381H14.8931C15.2414 18.5376 15.5776 18.4054 15.8325 18.168L15.9204 18.0957L20.9273 14.5459L20.936 14.54C21.5555 14.1118 21.7185 13.2193 21.2915 12.6006Z" fill="black"/>
<path fill-rule="evenodd" clip-rule="evenodd" d="M4.71632 0.000976562C5.18836 0.00115934 5.57178 0.385331 5.57178 0.857422V2.26953C6.028 2.40534 6.43711 2.648 6.77393 2.9668L7.99952 2.25977C8.40841 2.02391 8.93144 2.16343 9.16749 2.57227C9.40352 2.98116 9.26284 3.50411 8.85401 3.74023L7.62842 4.44727C7.68158 4.67069 7.71336 4.90291 7.71339 5.14258C7.71339 5.38226 7.68157 5.61446 7.62842 5.83789L8.85401 6.5459C9.26269 6.78205 9.40343 7.30504 9.16749 7.71387C8.93138 8.1224 8.40828 8.26204 7.99952 8.02637L6.77296 7.31836C6.43628 7.63684 6.02769 7.87891 5.57178 8.01465V9.42871C5.57152 9.90058 5.1882 10.284 4.71632 10.2842C4.24427 10.2842 3.86111 9.90069 3.86085 9.42871V8.01465C3.40452 7.87901 2.99471 7.638 2.65772 7.31934L1.43409 8.02637C1.02537 8.26234 0.502408 8.12228 0.26612 7.71387C0.0300584 7.305 0.169841 6.78206 0.57862 6.5459L1.80225 5.83887C1.74897 5.61518 1.71729 5.38256 1.71729 5.14258C1.71731 4.90268 1.74801 4.66991 1.80128 4.44629L0.57862 3.74023C0.169888 3.50406 0.03007 2.98112 0.26612 2.57227C0.502336 2.16365 1.02529 2.02374 1.43409 2.25977L2.65772 2.96582C2.99476 2.64708 3.40444 2.40517 3.86085 2.26953V0.857422C3.86085 0.385218 4.24411 0.000976562 4.71632 0.000976562ZM4.71534 3.85547C4.24378 3.85562 3.83204 4.10922 3.60792 4.4873C3.60587 4.49097 3.60514 4.49538 3.60303 4.49902C3.59813 4.50752 3.59158 4.51517 3.58643 4.52344C3.48554 4.70707 3.42828 4.91817 3.42823 5.14258C3.42823 5.36445 3.48379 5.57358 3.58253 5.75586C3.58907 5.76616 3.59687 5.77644 3.60303 5.78711C3.60485 5.79026 3.60614 5.79371 3.60792 5.79688C3.8319 6.17575 4.24334 6.43051 4.71534 6.43066C5.4266 6.43066 6.00342 5.85384 6.00342 5.14258C6.00327 4.43144 5.42651 3.85547 4.71534 3.85547Z" fill="black"/>
</svg>
