<svg width="24" height="24" viewBox="0 0 24 24" fill="none" xmlns="http://www.w3.org/2000/svg">
<path d="M23.1426 20.5732C23.6144 20.5737 23.9971 20.9568 23.9971 21.4287C23.9971 21.9006 23.6144 22.2837 23.1426 22.2842H0.856445C0.384242 22.2842 0 21.9009 0 21.4287C0 20.9565 0.384242 20.5732 0.856445 20.5732H23.1426Z" fill="black"/>
<path d="M11.999 6.85938C15.7848 6.85951 18.8545 9.92901 18.8545 13.7148C18.8544 15.5821 18.1061 17.2773 16.8955 18.5127C16.5651 18.8496 16.0237 18.8545 15.6865 18.5244C15.3493 18.194 15.3435 17.6527 15.6738 17.3154C16.5839 16.3867 17.1434 15.1168 17.1436 13.7148C17.1436 10.8734 14.8404 8.57044 11.999 8.57031C9.15751 8.57031 6.85449 10.8733 6.85449 13.7148C6.85462 15.1168 7.41413 16.3867 8.32422 17.3154C8.6543 17.6527 8.64863 18.1941 8.31152 18.5244C7.9744 18.8546 7.43303 18.8495 7.10254 18.5127C5.89196 17.2773 5.14369 15.5822 5.14355 13.7148C5.14355 9.92893 8.21311 6.85938 11.999 6.85938Z" fill="black"/>
<path d="M2.57031 12.8594C3.04229 12.8596 3.42578 13.2428 3.42578 13.7148C3.42552 14.1867 3.04213 14.57 2.57031 14.5703H0.856445C0.384405 14.5703 0.000263953 14.1868 0 13.7148C0 13.2426 0.384242 12.8594 0.856445 12.8594H2.57031Z" fill="black"/>
<path d="M23.1416 12.8594C23.6137 12.8595 23.9971 13.2427 23.9971 13.7148C23.9968 14.1867 23.6135 14.5702 23.1416 14.5703H21.4277C20.9557 14.5703 20.5725 14.1868 20.5723 13.7148C20.5723 13.2426 20.9555 12.8594 21.4277 12.8594H23.1416Z" fill="black"/>
<path d="M3.50586 5.22461C3.83976 4.89071 4.38095 4.89071 4.71484 5.22461L5.93164 6.44141C6.26542 6.77531 6.2655 7.31653 5.93164 7.65039C5.59775 7.98388 5.05644 7.98404 4.72266 7.65039L3.50586 6.43359C3.17208 6.09982 3.17233 5.55854 3.50586 5.22461Z" fill="black"/>
<path d="M19.2812 5.22461C19.6151 4.89077 20.1563 4.89088 20.4902 5.22461C20.8236 5.55855 20.824 6.09986 20.4902 6.43359L19.2734 7.65039C18.9397 7.98413 18.3984 7.9838 18.0645 7.65039C17.7307 7.31648 17.7306 6.77525 18.0645 6.44141L19.2812 5.22461Z" fill="black"/>
<path d="M11.999 1.71582C12.4711 1.71595 12.8545 2.09917 12.8545 2.57129V4.28516C12.8545 4.75728 12.4711 5.14049 11.999 5.14062C11.5268 5.14062 11.1436 4.75736 11.1436 4.28516V2.57129C11.1436 2.09909 11.5268 1.71582 11.999 1.71582Z" fill="black"/>
</svg>
