<svg width="24" height="24" viewBox="0 0 24 24" fill="none" xmlns="http://www.w3.org/2000/svg">
<path d="M17.1402 16.2871C17.1714 16.2871 17.2026 16.2887 17.2329 16.292L17.315 16.2969C18.1736 16.3853 18.8531 17.1206 18.8531 18.001C18.8526 18.9101 18.1276 19.6605 17.229 19.707C17.2001 19.71 17.1708 19.7129 17.1411 19.7129L16.9781 19.7041C16.1719 19.6263 15.5211 18.9795 15.438 18.1748L15.4331 18.0977C15.4295 18.0656 15.4283 18.033 15.4283 18C15.4283 17.9663 15.4293 17.9331 15.4331 17.9004L15.438 17.8271C15.5231 16.9984 16.2102 16.3374 17.0493 16.292C17.0792 16.2888 17.1095 16.2871 17.1402 16.2871Z" fill="black"/>
<path fill-rule="evenodd" clip-rule="evenodd" d="M17.1411 0.00292969C19.0332 0.00312974 20.5678 1.53749 20.5679 3.42969V13.0811C22.1197 14.1639 23.1391 15.9623 23.1392 18.001C23.1389 21.3132 20.4534 23.9988 17.1411 23.999C13.8289 23.9989 11.1434 21.3133 11.1431 18.001C11.1432 15.9618 12.1629 14.1628 13.7154 13.0801V3.42969C13.7154 1.53748 15.2489 0.00308041 17.1411 0.00292969ZM17.1411 1.71387C16.1934 1.71402 15.4254 2.48188 15.4253 3.42969V13.5469C15.425 13.8515 15.2621 14.1334 14.9986 14.2861C13.7148 15.0288 12.8541 16.4151 12.854 18.001C12.8543 20.3688 14.7733 22.2889 17.1411 22.2891C19.509 22.2889 21.429 20.3688 21.4292 18.001C21.4291 16.4153 20.5682 15.0288 19.2847 14.2861C19.0209 14.1334 18.8583 13.8516 18.8579 13.5469V3.42969C18.8579 2.48192 18.0888 1.71407 17.1411 1.71387Z" fill="black"/>
<path d="M5.14114 0.000976562C5.61329 0.00104438 5.99661 0.38526 5.99661 0.857422V12.5078L7.96536 10.5391C8.29927 10.2053 8.84049 10.2052 9.17434 10.5391C9.50787 10.8729 9.50799 11.4142 9.17434 11.748L5.74563 15.1768C5.62526 15.297 5.47758 15.3727 5.32278 15.4062C5.31854 15.4072 5.31435 15.4083 5.31009 15.4092C5.19857 15.4315 5.08371 15.4316 4.9722 15.4092C4.96264 15.4073 4.95331 15.4046 4.94388 15.4023C4.92521 15.3979 4.9066 15.3934 4.88821 15.3877C4.8823 15.3859 4.87649 15.3838 4.87063 15.3818C4.85121 15.3754 4.83202 15.3683 4.81302 15.3604C4.80182 15.3557 4.79076 15.3508 4.77981 15.3457C4.76547 15.339 4.75088 15.3327 4.73684 15.3252C4.72912 15.321 4.72196 15.3159 4.71438 15.3115C4.65114 15.275 4.59078 15.2308 4.53665 15.1768L1.10794 11.748C0.774141 11.4142 0.774343 10.873 1.10794 10.5391C1.44184 10.2052 1.98302 10.2052 2.31692 10.5391L4.28567 12.5078V0.857422C4.28567 0.385218 4.66894 0.000976562 5.14114 0.000976562Z" fill="black"/>
</svg>
