<svg width="24" height="24" viewBox="0 0 24 24" fill="none" xmlns="http://www.w3.org/2000/svg">
<path d="M17.1445 16.2871C17.1759 16.2871 17.2068 16.2887 17.2373 16.292L17.3184 16.2969C18.1462 16.3821 18.8051 17.0682 18.8516 17.9062C18.8549 17.937 18.8564 17.9683 18.8564 18C18.8564 18.031 18.8548 18.0616 18.8516 18.0918C18.8048 18.9598 18.1009 19.6621 17.2324 19.707C17.2035 19.71 17.1742 19.7129 17.1445 19.7129L16.9814 19.7041C16.1753 19.6263 15.5245 18.9795 15.4414 18.1748L15.4316 18.001L15.4414 17.8271C15.5265 16.9984 16.2136 16.3375 17.0527 16.292C17.0829 16.2888 17.1135 16.2871 17.1445 16.2871Z" fill="black"/>
<path fill-rule="evenodd" clip-rule="evenodd" d="M17.1445 0.000976562C19.0367 0.00110852 20.5712 1.53648 20.5713 3.42871V13.0801C22.1231 14.1629 23.1425 15.9613 23.1426 18C23.1423 21.3123 20.4569 23.9979 17.1445 23.998C13.8323 23.9979 11.1467 21.3123 11.1465 18C11.1466 15.9608 12.1663 14.1618 13.7188 13.0791V3.42871C13.7188 1.5365 15.2523 0.00112728 17.1445 0.000976562ZM17.1445 1.71289C16.1967 1.71304 15.4288 2.48091 15.4287 3.42871V13.5459C15.4284 13.8506 15.2656 14.1324 15.002 14.2852C13.7182 15.0278 12.8575 16.4141 12.8574 18C12.8577 20.3679 14.7767 22.2879 17.1445 22.2881C19.5125 22.288 21.4324 20.3679 21.4326 18C21.4325 16.4142 20.5717 15.0278 19.2881 14.2852C19.0243 14.1325 18.8617 13.8507 18.8613 13.5459V3.42871C18.8613 2.48091 18.0923 1.71302 17.1445 1.71289Z" fill="black"/>
<path d="M8.57324 12.4307C9.04533 12.4308 9.42871 12.814 9.42871 13.2861C9.42845 13.758 9.04517 14.1415 8.57324 14.1416H2.57324C2.1012 14.1416 1.71804 13.7581 1.71777 13.2861C1.71777 12.8139 2.10104 12.4307 2.57324 12.4307H8.57324Z" fill="black"/>
<path d="M5.57324 0.859375C6.04533 0.859507 6.42871 1.24272 6.42871 1.71484V3.85938H8.57324C9.04533 3.85951 9.42871 4.24272 9.42871 4.71484C9.42845 5.18674 9.04517 5.57018 8.57324 5.57031H6.42871V7.71484C6.42845 8.18674 6.04517 8.57018 5.57324 8.57031C5.1012 8.57031 4.71804 8.18682 4.71777 7.71484V5.57031H2.57324C2.1012 5.57031 1.71804 5.18682 1.71777 4.71484C1.71777 4.24264 2.10104 3.85938 2.57324 3.85938H4.71777V1.71484C4.71777 1.24264 5.10104 0.859375 5.57324 0.859375Z" fill="black"/>
</svg>
