<svg width="24" height="24" viewBox="0 0 24 24" fill="none" xmlns="http://www.w3.org/2000/svg">
<path d="M17.1445 16.2871C17.1755 16.2871 17.2062 16.2888 17.2363 16.292L17.3193 16.2969C18.1779 16.3854 18.8574 17.1207 18.8574 18.001C18.857 18.8809 18.1776 19.6147 17.3193 19.7031L17.1455 19.7129L16.9824 19.7041C16.1761 19.6264 15.5255 18.9796 15.4424 18.1748L15.4375 18.0977C15.4339 18.0656 15.4316 18.033 15.4316 18C15.4316 17.9663 15.4337 17.9331 15.4375 17.9004L15.4424 17.8271C15.5275 16.9983 16.2144 16.3373 17.0537 16.292C17.0835 16.2888 17.1139 16.2871 17.1445 16.2871Z" fill="black"/>
<path fill-rule="evenodd" clip-rule="evenodd" d="M17.1445 0.000976562C19.0368 0.000976562 20.5712 1.53639 20.5713 3.42871V13.0801C22.1233 14.1629 23.1425 15.9612 23.1426 18C23.1423 21.3124 20.457 23.998 17.1445 23.998C13.8324 23.9978 11.1467 21.3122 11.1465 18C11.1466 15.961 12.1665 14.1619 13.7188 13.0791V3.42871C13.7188 1.53658 15.2524 0.0012592 17.1445 0.000976562ZM17.1445 1.71289C16.1969 1.71317 15.4288 2.48099 15.4287 3.42871V13.5459C15.4284 13.8506 15.2656 14.1324 15.002 14.2852C13.7184 15.0278 12.8575 16.4142 12.8574 18C12.8577 20.3678 14.7768 22.2878 17.1445 22.2881C19.5126 22.2881 21.4324 20.368 21.4326 18C21.4325 16.4141 20.5719 15.0278 19.2881 14.2852C19.0243 14.1325 18.8617 13.8507 18.8613 13.5459V3.42871C18.8613 2.48082 18.0924 1.71289 17.1445 1.71289Z" fill="black"/>
<path d="M9.43066 4.28809C9.90276 4.28822 10.2861 4.67143 10.2861 5.14355C10.2859 5.61545 9.90259 5.99889 9.43066 5.99902H1.7168C1.24476 5.99902 0.861592 5.61553 0.861328 5.14355C0.861328 4.67135 1.24459 4.28809 1.7168 4.28809H9.43066Z" fill="black"/>
</svg>
