<svg width="24" height="24" viewBox="0 0 24 24" fill="none" xmlns="http://www.w3.org/2000/svg">
<path fill-rule="evenodd" clip-rule="evenodd" d="M9.46875 10.5936C10.4309 9.76896 11.8503 9.76896 12.8125 10.5936L17.0986 14.2665C17.6681 14.7546 17.9961 15.4677 17.9961 16.2176V21.4296C17.9959 22.8482 16.8454 23.9987 15.4268 23.9989H6.85449C5.43585 23.9987 4.28539 22.8482 4.28516 21.4296V16.2176C4.28517 15.4677 4.6132 14.7546 5.18262 14.2665L9.46875 10.5936ZM11.7002 11.8915C11.3784 11.6157 10.9028 11.6157 10.5811 11.8915L6.2959 15.5653C6.10549 15.7285 5.99611 15.9669 5.99609 16.2176V21.4296C5.99633 21.9038 6.38026 22.2887 6.85449 22.2889H10.2852V17.9999C10.2854 17.5278 10.6685 17.1444 11.1406 17.1444C11.6127 17.1444 11.9959 17.5278 11.9961 17.9999V22.2889H15.4268C15.901 22.2887 16.2849 21.9038 16.2852 21.4296V16.2176C16.2851 15.9669 16.1758 15.7285 15.9854 15.5653L11.7002 11.8915Z" fill="black"/>
<path d="M19.8574 0.382688C20.1194 -0.010156 20.6511 -0.115557 21.0439 0.14636C21.4363 0.408433 21.5421 0.939212 21.2803 1.33191L18.7373 5.14538H22.2832C22.5984 5.14538 22.8883 5.31867 23.0371 5.59656C23.1858 5.87452 23.17 6.21216 22.9951 6.47448L19.5664 11.6171C19.3045 12.0098 18.7737 12.1161 18.3809 11.8544C17.988 11.5925 17.8817 11.0617 18.1436 10.6688L20.6865 6.85534H17.1406C16.8253 6.85534 16.5355 6.68115 16.3867 6.4032C16.2381 6.12529 16.2549 5.78848 16.4297 5.52624L19.8574 0.382688Z" fill="black"/>
</svg>
