<svg width="24" height="24" viewBox="0 0 24 24" fill="none" xmlns="http://www.w3.org/2000/svg">
<path fill-rule="evenodd" clip-rule="evenodd" d="M19.7148 0.000976562C21.1334 0.00133452 22.284 1.15272 22.2842 2.57129V21.4287C22.2841 22.8474 21.1335 23.9977 19.7148 23.998H12C10.5813 23.9978 9.43074 22.8475 9.43066 21.4287V19.7119H7.71387C4.40158 19.7116 1.71582 17.0262 1.71582 13.7139V10.2852C1.71605 8.86659 2.86662 7.71618 4.28516 7.71582H14.5732V2.57129C14.5735 1.15264 15.7239 0.00120267 17.1426 0.000976562H19.7148ZM17.1426 1.71289C16.6683 1.71312 16.2844 2.09705 16.2842 2.57129V12C16.2841 12.1181 16.2602 12.2307 16.2168 12.333C16.1906 12.3951 16.1556 12.4523 16.1162 12.5059C16.0906 12.5405 16.0636 12.5741 16.0332 12.6045C15.8786 12.7594 15.6648 12.8554 15.4287 12.8555H3.42676V13.7139C3.42676 16.0818 5.34599 18.0017 7.71387 18.002H10.2861C10.7581 18.0022 11.1416 18.3854 11.1416 18.8574V21.4287C11.1417 21.9031 11.5257 22.2879 12 22.2881H19.7148C20.1891 22.2877 20.5741 21.903 20.5742 21.4287V12.0215C20.574 12.0143 20.5732 12.0072 20.5732 12V2.57129C20.573 2.09713 20.189 1.71325 19.7148 1.71289H17.1426ZM4.28516 9.42676C3.81103 9.42712 3.42698 9.811 3.42676 10.2852V11.1445H14.5732V9.42676H4.28516Z" fill="black"/>
</svg>
