<svg width="24" height="24" viewBox="0 0 24 24" fill="none" xmlns="http://www.w3.org/2000/svg">
<path d="M11.999 8.57324C12.471 8.57352 12.8535 8.95668 12.8535 9.42871C12.8535 9.90074 12.471 10.2839 11.999 10.2842H5.1416C4.6694 10.2842 4.28613 9.90091 4.28613 9.42871C4.28613 8.95651 4.6694 8.57324 5.1416 8.57324H11.999Z" fill="black"/>
<path d="M11.999 5.14453C12.471 5.14481 12.8535 5.52797 12.8535 6C12.8535 6.47203 12.471 6.85519 11.999 6.85547H5.1416C4.6694 6.85547 4.28613 6.4722 4.28613 6C4.28613 5.5278 4.6694 5.14453 5.1416 5.14453H11.999Z" fill="black"/>
<path fill-rule="evenodd" clip-rule="evenodd" d="M13.7129 1.71582C15.1316 1.71597 16.282 2.86647 16.2822 4.28516V4.28809H17.1416C18.5603 4.28835 19.7107 5.43882 19.7109 6.85742V6.85938H23.1416C23.6137 6.85945 23.9961 7.24269 23.9961 7.71484C23.9958 8.18678 23.6136 8.57024 23.1416 8.57031H19.7129L19.7109 8.56934V8.57227C19.7106 9.99077 18.5602 11.1413 17.1416 11.1416H16.2822C16.2822 12.5605 15.1317 13.7118 13.7129 13.7119H10.2822V17.1445H11.999C12.4711 17.1447 12.8535 17.5279 12.8535 18V21.4287C12.8534 21.9007 12.471 22.283 11.999 22.2832H2.57031C2.09816 22.2832 1.71492 21.9009 1.71484 21.4287V18C1.71484 17.5278 2.09811 17.1445 2.57031 17.1445H4.28613V13.6387C1.85429 13.2312 0 11.1189 0 8.57129V6.85742C0 4.01837 2.30258 1.71595 5.1416 1.71582H13.7129ZM3.42578 20.5732H11.1436V18.8555H3.42578V20.5732ZM5.1416 3.42676C3.24699 3.42689 1.71094 4.96278 1.71094 6.85742V8.57129C1.71094 10.4659 3.24699 12.0018 5.1416 12.002C5.61361 12.0022 5.99609 12.3854 5.99609 12.8574V17.1445H8.57227V12.8574C8.57227 12.3853 8.95473 12.0022 9.42676 12.002H13.7129C14.1873 12.0018 14.5723 11.617 14.5723 11.1426V4.28516C14.572 3.81088 14.1872 3.42691 13.7129 3.42676H5.1416ZM16.2832 9.43164H17.1416C17.6158 9.43138 18.0006 9.04639 18.001 8.57227V6.85742C18.0008 6.3832 17.6158 5.99929 17.1416 5.99902H16.2832V9.43164Z" fill="black"/>
</svg>
