<svg width="24" height="24" viewBox="0 0 24 24" fill="none" xmlns="http://www.w3.org/2000/svg">
<path fill-rule="evenodd" clip-rule="evenodd" d="M15.4297 0.858398C16.8484 0.85853 17.9988 2.01002 17.999 3.42871V6.00195H21.4297C22.8485 6.00209 23.9988 7.1526 23.999 8.57129V20.5713C23.9988 21.99 22.8484 23.1405 21.4297 23.1406H2.57227C1.15365 23.1404 0.00319364 21.9899 0.00292969 20.5713V8.57129C0.0031558 7.15265 1.15362 6.00218 2.57227 6.00195H6.00293V3.42871C6.00316 2.01007 7.15363 0.858625 8.57227 0.858398H15.4297ZM1.71387 20.5713C1.71413 21.0455 2.09804 21.4304 2.57227 21.4307H21.4297C21.904 21.4305 22.2888 21.0456 22.2891 20.5713V13.7129H18V15.4287C17.9997 15.9005 17.6163 16.2839 17.1445 16.2842C16.6725 16.2842 16.2893 15.9007 16.2891 15.4287V13.7129H7.71387V15.4287C7.7136 15.9006 7.33033 16.284 6.8584 16.2842C6.38636 16.2842 6.00319 15.9007 6.00293 15.4287V13.7129H1.71387V20.5713ZM2.57227 7.71289C2.09803 7.71312 1.71409 8.09706 1.71387 8.57129V12.002H22.2891V8.57129C22.2888 8.09699 21.904 7.71302 21.4297 7.71289H2.57227ZM8.57227 2.57031C8.09804 2.57054 7.71409 2.95448 7.71387 3.42871V6.00195H16.2891V3.42871C16.2888 2.95442 15.904 2.57044 15.4297 2.57031H8.57227Z" fill="black"/>
</svg>
