<svg width="24" height="24" viewBox="0 0 24 24" fill="none" xmlns="http://www.w3.org/2000/svg">
<path fill-rule="evenodd" clip-rule="evenodd" d="M6.85938 0.858398C9.26038 0.858513 11.3279 2.55476 11.7988 4.90918L12.7959 9.8916C12.837 10.0975 12.8574 10.3076 12.8574 10.5176C12.8572 12.2816 11.4271 13.7126 9.66309 13.7129H7.71484V21.4307H9.43066C9.90276 21.4308 10.2861 21.814 10.2861 22.2861C10.2859 22.758 9.90259 23.1415 9.43066 23.1416H4.28809C3.81605 23.1416 3.43288 22.7581 3.43262 22.2861C3.43262 21.8139 3.81588 21.4307 4.28809 21.4307H6.00391V13.7129H4.05664C2.29241 13.7129 0.861592 12.2818 0.861328 10.5176C0.861353 10.3075 0.88269 10.0975 0.923828 9.8916L1.91992 4.90918C2.39079 2.55476 4.45838 0.85853 6.85938 0.858398ZM6.85938 2.57031C5.27359 2.57044 3.9078 3.68918 3.59668 5.24414L2.60059 10.2266C2.58149 10.3222 2.57229 10.4201 2.57227 10.5176C2.57253 11.3373 3.23681 12.0029 4.05664 12.0029H6.00391V9.42871C6.00391 8.95651 6.38717 8.57324 6.85938 8.57324C7.33158 8.57324 7.71484 8.95651 7.71484 9.42871V12.0029H9.66309C10.4827 12.0026 11.1472 11.3372 11.1475 10.5176C11.1474 10.4201 11.1382 10.3222 11.1191 10.2266L10.1221 5.24414C9.81091 3.68922 8.44514 2.57043 6.85938 2.57031Z" fill="black"/>
<path d="M20.5732 0.858398C21.0454 0.858398 21.4287 1.24264 21.4287 1.71484C21.4284 2.18682 21.0453 2.57031 20.5732 2.57031H18.8574V12.9307C21.2895 13.3381 23.1436 15.4532 23.1436 18.001V22.2861C23.1433 22.758 22.76 23.1415 22.2881 23.1416C21.8161 23.1415 21.4339 22.7581 21.4336 22.2861V18.001C21.4336 16.4014 20.3385 15.0567 18.8574 14.6768V22.2861C18.8572 22.7581 18.474 23.1416 18.002 23.1416C17.53 23.1415 17.1467 22.758 17.1465 22.2861V14.6768C15.666 15.057 14.5723 16.4018 14.5723 18.001V22.2861C14.572 22.758 14.1887 23.1415 13.7168 23.1416C13.2448 23.1416 12.8616 22.7581 12.8613 22.2861V18.001C12.8613 15.4536 14.7148 13.3385 17.1465 12.9307V2.57031H15.4307C14.9587 2.57018 14.5755 2.18674 14.5752 1.71484C14.5752 1.24272 14.9586 0.85853 15.4307 0.858398H20.5732Z" fill="black"/>
</svg>
