<svg width="24" height="24" viewBox="0 0 24 24" fill="none" xmlns="http://www.w3.org/2000/svg">
<path fill-rule="evenodd" clip-rule="evenodd" d="M15.4311 0.000976562C15.6209 0.000976562 15.796 0.0642268 15.938 0.168945C15.9721 0.194121 16.0057 0.221056 16.0366 0.251953L22.0366 6.25293C22.2808 6.49744 22.3544 6.86524 22.2222 7.18457C22.0898 7.50381 21.7777 7.71282 21.4321 7.71289H17.4966L22.0366 12.2529C22.2808 12.4974 22.3544 12.8652 22.2222 13.1846C22.0898 13.5038 21.7777 13.7128 21.4321 13.7129H16.7143L20.5073 22.8145C20.6886 23.2502 20.4821 23.7511 20.0464 23.9326C19.6108 24.1138 19.11 23.908 18.9282 23.4727L18.3579 22.1035L11.5737 18.2627L4.79149 22.1025L4.22118 23.4727C4.03934 23.9079 3.53856 24.1139 3.10301 23.9326C2.6674 23.751 2.46172 23.2502 2.64305 22.8145L6.16454 14.3604C6.16717 14.3535 6.16953 14.3466 6.17235 14.3398L6.43407 13.7129H1.71727C1.37169 13.7128 1.05961 13.5038 0.927234 13.1846C0.795014 12.8653 0.868589 12.4974 1.11278 12.2529L5.65282 7.71289H1.71727C1.37169 7.71277 1.05961 7.50379 0.927234 7.18457C0.795014 6.86527 0.868589 6.49744 1.11278 6.25293L7.10106 0.263672C7.25666 0.102019 7.47538 0.00106005 7.71727 0.000976562H15.4311ZM5.8618 19.5312L9.83837 17.2793L7.38036 15.8877L5.8618 19.5312ZM13.3091 17.2803L17.2866 19.5312L15.7681 15.8877L13.3091 17.2803ZM8.04149 14.2969L11.5747 16.2969L15.1059 14.2969L14.8628 13.7129H8.28563L8.04149 14.2969ZM3.78173 12.002H6.8618V8.92188L3.78173 12.002ZM8.57274 12.002H14.5766V7.71289H8.57274V12.002ZM16.2866 12.002H19.3677L16.2866 8.9209V12.002ZM3.78173 6.00195H6.8618V2.92188L3.78173 6.00195ZM8.57274 6.00195H14.5766V1.71289H8.57274V6.00195ZM16.2866 6.00195H19.3677L16.2866 2.9209V6.00195Z" fill="black"/>
</svg>
