<svg width="24" height="24" viewBox="0 0 24 24" fill="none" xmlns="http://www.w3.org/2000/svg">
<path fill-rule="evenodd" clip-rule="evenodd" d="M11.9996 0.000976562C12.7628 0.0010885 13.5073 0.241161 14.1285 0.68457C14.7309 1.11469 15.1867 1.71774 15.44 2.41211L19.8873 11.8721C19.8908 11.8796 19.8947 11.8879 19.898 11.8955C20.5016 13.2882 20.3658 14.8035 19.7379 15.9766C19.1194 17.1316 17.9754 18.0248 16.5259 18.0527C16.4801 18.3615 16.4019 18.6655 16.2906 18.959C16.0716 19.5363 15.733 20.0615 15.2965 20.498C14.8599 20.9346 14.3347 21.2732 13.7574 21.4922C13.4649 21.6031 13.1618 21.6807 12.8541 21.7266V23.1426C12.8541 23.6148 12.4708 23.998 11.9986 23.998C11.5264 23.998 11.1431 23.6147 11.1431 23.1426V18.0557H7.54157C6.05922 18.0555 4.88883 17.149 4.26032 15.9756C3.63223 14.8025 3.49519 13.2877 4.10017 11.8955L4.11091 11.8721L8.5572 2.41211C8.8105 1.71756 9.26716 1.11477 9.8697 0.68457C10.4911 0.241057 11.2362 0.000976563 11.9996 0.000976562ZM12.8541 19.9844C12.9544 19.9593 13.0538 19.9304 13.1509 19.8936C13.502 19.7604 13.821 19.5536 14.0865 19.2881C14.352 19.0226 14.5588 18.7036 14.692 18.3525C14.7288 18.2554 14.7587 18.156 14.7838 18.0557H12.8541V19.9844ZM11.9996 1.71289C11.5925 1.71289 11.1952 1.83971 10.8638 2.07617C10.5324 2.31275 10.2823 2.64716 10.15 3.03223C10.14 3.06123 10.1288 3.0904 10.1158 3.11816L5.66364 12.5879C5.28429 13.4704 5.373 14.4329 5.76716 15.1689C6.16273 15.9074 6.8159 16.3455 7.54157 16.3457H11.1431V14.3545C10.7844 14.3759 10.4239 14.3299 10.0816 14.2158C9.66601 14.0772 9.28797 13.8439 8.9781 13.5342C8.66814 13.2242 8.4342 12.8455 8.29548 12.4297C8.15683 12.0139 8.11646 11.5707 8.17829 11.1367C8.24511 10.6694 8.67869 10.3445 9.14607 10.4111C9.6135 10.4779 9.93835 10.9115 9.87165 11.3789C9.84738 11.5499 9.86293 11.7248 9.91755 11.8887C9.97229 12.0526 10.0649 12.202 10.1871 12.3242C10.3094 12.4465 10.4586 12.539 10.6226 12.5938C10.7867 12.6485 10.9621 12.6641 11.1334 12.6396L11.1431 12.6387V9.77148C11.1431 9.29931 11.5264 8.91607 11.9986 8.91602C12.4708 8.91602 12.8541 9.29928 12.8541 9.77148V16.3457H16.4566C17.1824 16.3455 17.8348 15.9078 18.23 15.1699C18.6255 14.4312 18.714 13.4632 18.3297 12.5762L13.8824 3.11816C13.8693 3.09041 13.8582 3.06122 13.8482 3.03223C13.7159 2.64733 13.4665 2.31273 13.1353 2.07617C12.804 1.8397 12.4066 1.713 11.9996 1.71289Z" fill="black"/>
</svg>
