<svg width="24" height="24" viewBox="0 0 24 24" fill="none" xmlns="http://www.w3.org/2000/svg">
<path fill-rule="evenodd" clip-rule="evenodd" d="M11.9957 0.000976562C12.9755 0.000996934 13.941 0.24121 14.8082 0.697266C15.5327 1.07836 16.1691 1.60355 16.6832 2.23633C17.1606 2.25954 17.6307 2.37262 18.067 2.57129C18.577 2.80366 19.029 3.14669 19.3902 3.5752C19.7514 4.00382 20.0133 4.50774 20.1559 5.0498C20.2429 5.38092 20.2835 5.72216 20.2789 6.0625C21.0899 6.54129 21.7807 7.20473 22.2926 8.00195C22.9159 8.97284 23.2483 10.1021 23.2506 11.2559V11.2578C23.2502 12.6439 22.7742 13.9882 21.902 15.0654C21.1164 16.0353 20.0519 16.7346 18.858 17.0752C18.5548 17.6046 18.1576 18.076 17.6803 18.46C17.0923 18.9328 16.4024 19.2632 15.6656 19.4258C14.929 19.5883 14.1645 19.5789 13.4322 19.3975C13.2346 19.3485 13.041 19.286 12.8522 19.2129V23.1426C12.8519 23.6145 12.4687 23.998 11.9967 23.998C11.5247 23.998 11.1415 23.6146 11.1412 23.1426V19.2129C10.9524 19.2862 10.7589 19.3484 10.5611 19.3975C9.829 19.5792 9.06447 19.5899 8.32775 19.4277C7.59105 19.2655 6.9012 18.9343 6.3131 18.4619C5.83574 18.0783 5.43681 17.6082 5.13341 17.0791C4.05017 16.7711 3.07072 16.1661 2.31017 15.3281C1.45664 14.3874 0.92124 13.2008 0.779897 11.9385C0.638743 10.6762 0.898595 9.401 1.52306 8.29492C2.04604 7.36882 2.80299 6.60078 3.71251 6.06348C3.70785 5.7228 3.74942 5.38125 3.83654 5.0498C3.97917 4.50769 4.24092 4.00385 4.60216 3.5752C4.96343 3.14663 5.41532 2.80366 5.9254 2.57129C6.36148 2.37273 6.83111 2.25963 7.30822 2.23633C7.82245 1.60328 8.45942 1.07846 9.18419 0.697266C10.0513 0.241271 11.016 0.0010538 11.9957 0.000976562ZM11.9957 1.71289C11.2935 1.71297 10.6017 1.88315 9.98009 2.20996C9.35831 2.53699 8.82449 3.01099 8.42638 3.58984C8.256 3.8371 7.96827 3.97686 7.66857 3.95801C7.62852 3.95546 7.59331 3.95148 7.56798 3.94824C7.54897 3.94581 7.52445 3.9427 7.51525 3.94141C7.21161 3.93809 6.91082 4.00108 6.63439 4.12695C6.35488 4.25424 6.10674 4.44193 5.9088 4.67676C5.71094 4.91158 5.56796 5.18837 5.48986 5.48535C5.41192 5.78215 5.4009 6.09295 5.45763 6.39453C5.52992 6.77986 5.33043 7.16618 4.97423 7.33008C4.14686 7.71093 3.46019 8.34263 3.01232 9.13574C2.56449 9.92896 2.37783 10.8438 2.47912 11.749C2.58055 12.6542 2.96471 13.5052 3.57677 14.1797C4.18886 14.854 4.99832 15.3183 5.88927 15.5068C6.15282 15.5626 6.37562 15.7399 6.48888 15.9844C6.69532 16.4296 7.00184 16.8215 7.38439 17.1289C7.76715 17.4363 8.21646 17.6513 8.69591 17.7568C9.17526 17.8623 9.67267 17.8565 10.149 17.7383C10.5032 17.6504 10.8385 17.5014 11.1412 17.3008V12.8125C10.8322 12.7667 10.5276 12.6895 10.234 12.5781C9.65693 12.3592 9.13236 12.0194 8.69591 11.583C8.25962 11.1466 7.92068 10.6219 7.70177 10.0449C7.48296 9.46791 7.38928 8.85036 7.42638 8.23438C7.45496 7.76336 7.85968 7.40452 8.33068 7.43262C8.80202 7.46106 9.16088 7.86654 9.13244 8.33789C9.10995 8.71229 9.16744 9.08776 9.3004 9.43848C9.43359 9.78944 9.64043 10.1086 9.90587 10.374C10.1713 10.6394 10.4896 10.8463 10.8404 10.9795C10.9387 11.0168 11.0396 11.0461 11.1412 11.0713V8.28613C11.1412 7.81393 11.5245 7.43066 11.9967 7.43066C12.4688 7.43073 12.8522 7.81397 12.8522 8.28613V14.0635C13.7266 13.95 14.3297 13.6581 14.735 13.2529C15.2609 12.727 15.5992 11.8683 15.5992 10.5146C15.5992 10.0425 15.9815 9.6592 16.4537 9.65918C16.9259 9.65925 17.3092 10.0425 17.3092 10.5146C17.3091 12.1319 16.9036 13.5023 15.944 14.4619C15.1585 15.2473 14.0979 15.6606 12.8522 15.7852V17.3018C13.1546 17.5017 13.4897 17.6496 13.8434 17.7373C14.32 17.8554 14.8179 17.8617 15.2975 17.7559C15.7769 17.65 16.2254 17.4346 16.608 17.127C16.9906 16.8192 17.2973 16.4271 17.5035 15.9814C17.6166 15.7371 17.8388 15.5599 18.1022 15.5039C19.0748 15.2969 19.947 14.762 20.5729 13.9893C21.1984 13.2167 21.54 12.2528 21.5406 11.2588C21.5389 10.4317 21.3009 9.62183 20.8541 8.92578C20.4072 8.22969 19.7696 7.67596 19.0182 7.33008C18.6619 7.16619 18.4625 6.77989 18.5348 6.39453C18.5915 6.09298 18.5805 5.78213 18.5026 5.48535C18.4245 5.18842 18.2814 4.91156 18.0836 4.67676C17.8857 4.44198 17.6374 4.25424 17.358 4.12695C17.0813 4.00097 16.7801 3.93796 16.4762 3.94141C16.4665 3.94278 16.4429 3.94587 16.4244 3.94824C16.3991 3.95148 16.364 3.95546 16.3238 3.95801C16.0241 3.97692 15.7365 3.83707 15.566 3.58984C15.168 3.01105 14.634 2.53699 14.0123 2.20996C13.3906 1.88309 12.6981 1.71291 11.9957 1.71289Z" fill="black"/>
</svg>
