<svg width="24" height="24" viewBox="0 0 24 24" fill="none" xmlns="http://www.w3.org/2000/svg">
<path fill-rule="evenodd" clip-rule="evenodd" d="M11.0272 0.0717621C12.564 -0.150638 14.131 0.162008 15.4647 0.957504C16.5854 1.62612 17.4828 2.60246 18.0584 3.76219C18.2613 3.73569 18.4657 3.72 18.6707 3.71727H18.6805C19.5788 3.71541 20.4629 3.94124 21.2498 4.3745C22.0366 4.80774 22.7008 5.43384 23.1795 6.19383C23.6582 6.95386 23.9362 7.82343 23.9871 8.7202C24.038 9.61702 23.8602 10.5124 23.4705 11.3218C23.0808 12.1312 22.4915 12.8286 21.7586 13.3481C21.0259 13.8674 20.1736 14.1927 19.2811 14.2925C18.3884 14.3922 17.4845 14.2633 16.6551 13.9184C16.0558 13.6692 15.5106 13.3114 15.0428 12.8677C14.5827 13.1013 14.0984 13.2793 13.6004 13.4018V23.1431C13.6004 23.6151 13.2169 23.9973 12.7449 23.9975C12.2728 23.9975 11.8895 23.6152 11.8895 23.1431V22.0864L9.5174 20.3071C8.96483 20.7691 8.26594 21.0259 7.53986 21.0259C6.72208 21.0259 5.93746 20.7018 5.3592 20.1235C4.78094 19.5453 4.45589 18.7606 4.45588 17.9429C4.45588 17.1251 4.78094 16.3405 5.3592 15.7622C5.93746 15.1839 6.72207 14.8589 7.53986 14.8589C8.35765 14.8589 9.14226 15.1839 9.72053 15.7622C10.2988 16.3405 10.6229 17.1251 10.6229 17.9429C10.6229 18.2667 10.5698 18.5845 10.4725 18.8872L11.8895 19.9487V13.5962C11.7357 13.5937 11.5816 13.5868 11.4276 13.5737C10.2874 13.4766 9.1979 13.0897 8.25666 12.4595C7.94283 12.8906 7.55699 13.2679 7.1092 13.5679C6.35308 14.0743 5.46259 14.3435 4.55256 14.3403C3.64261 14.3371 2.75428 14.0619 2.00178 13.5503C1.24924 13.0385 0.666456 12.3134 0.328924 11.4682C-0.00855324 10.6232 -0.0857051 9.6964 0.107244 8.80711C0.300262 7.91785 0.754543 7.10621 1.41193 6.47704C2.06948 5.84782 2.90065 5.42958 3.79767 5.27586C4.32902 5.18484 4.86878 5.19115 5.39338 5.28758C5.65289 4.13232 6.21171 3.05829 7.02326 2.17918C8.0766 1.03829 9.49038 0.29421 11.0272 0.0717621ZM7.53986 16.5698C7.17559 16.5698 6.82576 16.7136 6.56818 16.9712C6.31061 17.2288 6.16681 17.5786 6.16681 17.9429C6.16683 18.3071 6.31061 18.657 6.56818 18.9145C6.82576 19.1721 7.1756 19.3159 7.53986 19.3159C7.90412 19.3159 8.25397 19.1721 8.51154 18.9145C8.76911 18.657 8.9129 18.3071 8.91291 17.9429C8.91291 17.5786 8.76911 17.2288 8.51154 16.9712C8.25396 16.7136 7.90413 16.5698 7.53986 16.5698ZM14.5887 2.42625C13.592 1.83175 12.4208 1.59799 11.2723 1.76414C10.1236 1.93041 9.06638 2.48655 8.27912 3.33934C7.492 4.19206 7.02219 5.28964 6.94806 6.44774C6.93014 6.72777 6.77545 6.98182 6.53498 7.12645C6.29459 7.27081 5.99858 7.28771 5.74299 7.17235C5.22421 6.93824 4.64674 6.86431 4.08576 6.96043C3.52487 7.05662 3.00571 7.31894 2.59455 7.71239C2.18333 8.10591 1.89888 8.6132 1.77814 9.16942C1.65742 9.72566 1.70572 10.3059 1.91681 10.8345C2.12792 11.3629 2.49219 11.8162 2.96271 12.1362C3.4334 12.4563 3.98922 12.6284 4.55842 12.6304C5.1276 12.6324 5.68414 12.4637 6.15705 12.147C6.62987 11.8303 6.99789 11.38 7.21271 10.853L7.25763 10.7583C7.37574 10.5467 7.57943 10.3935 7.81916 10.3403C8.09321 10.2797 8.37997 10.3575 8.58576 10.5483C9.40614 11.3097 10.4578 11.7747 11.5731 11.8696C12.6881 11.9645 13.8029 11.6843 14.7401 11.0727L14.8113 11.0307C15.171 10.8421 15.6204 10.9323 15.8778 11.2563C16.2563 11.7329 16.7494 12.1056 17.3113 12.3393C17.8734 12.5731 18.4857 12.6608 19.0906 12.5932C19.6956 12.5256 20.2737 12.3047 20.7703 11.9526C21.2666 11.6007 21.6655 11.1287 21.9295 10.5806C22.1935 10.0322 22.3145 9.42543 22.2801 8.81786C22.2456 8.21015 22.0566 7.62098 21.7322 7.10594C21.4078 6.59088 20.9579 6.16615 20.4246 5.87254C19.893 5.57991 19.2961 5.42685 18.6893 5.42723C18.3818 5.43169 18.0762 5.47609 17.7801 5.55907C17.3504 5.67946 16.9006 5.44863 16.7469 5.02977C16.3475 3.94021 15.5853 3.02083 14.5887 2.42625Z" fill="black"/>
</svg>
