<svg width="24" height="24" viewBox="0 0 24 24" fill="none" xmlns="http://www.w3.org/2000/svg">
<path fill-rule="evenodd" clip-rule="evenodd" d="M19.7119 0.000976562C20.1841 0.00105128 20.5664 0.385264 20.5664 0.857422C20.5661 1.32936 20.1839 1.71282 19.7119 1.71289H17.9951V18C17.995 19.5905 17.363 21.1165 16.2383 22.2412C15.1135 23.3657 13.5876 23.998 11.9971 23.998C10.4066 23.9979 8.8805 23.3658 7.75586 22.2412C6.63131 21.1165 5.99915 19.5903 5.99902 18V1.71289H4.2832C3.81127 1.71276 3.428 1.32932 3.42773 0.857422C3.42773 0.3853 3.81111 0.00110857 4.2832 0.000976562H19.7119ZM7.70996 1.71289V5.14453H10.2832C10.7553 5.14461 11.1377 5.52784 11.1377 6C11.1377 6.47216 10.7553 6.85539 10.2832 6.85547H7.70996V10.2881H10.2832C10.7552 10.2882 11.1375 10.6705 11.1377 11.1426C11.1377 11.6147 10.7553 11.998 10.2832 11.998H7.70996V15.4307H10.2832C10.7553 15.4307 11.1377 15.814 11.1377 16.2861C11.1375 16.7581 10.7552 17.1405 10.2832 17.1406H7.70996V18C7.71009 19.137 8.16181 20.2282 8.96582 21.0322C9.76979 21.836 10.8603 22.2879 11.9971 22.2881C13.134 22.2881 14.2252 21.8361 15.0293 21.0322C15.8333 20.2282 16.285 19.137 16.2852 18V1.71289H7.70996Z" fill="black"/>
</svg>
