<svg width="24" height="24" viewBox="0 0 24 24" fill="none" xmlns="http://www.w3.org/2000/svg">
<path fill-rule="evenodd" clip-rule="evenodd" d="M17.2035 0.000976562C17.6755 0.00117713 18.059 0.385342 18.059 0.857422V4.64941C18.7036 4.85757 19.3054 5.18662 19.8305 5.62109C20.5426 6.21044 21.09 6.9745 21.4203 7.83789C21.7506 8.70128 21.8522 9.6356 21.7152 10.5498C21.5782 11.4638 21.2077 12.3271 20.639 13.0557L20.6361 13.0586C20.2393 13.5622 19.9845 13.9442 19.8158 14.3828C19.6487 14.8172 19.545 15.3642 19.5453 16.208V23.1426C19.5453 23.6147 19.1629 23.9979 18.6908 23.998H5.31678C4.84457 23.998 4.46131 23.6148 4.46131 23.1426V16.208L4.45643 15.8145C4.43376 14.9592 4.33318 14.525 4.20545 14.2295C4.04794 13.8653 3.84035 13.6537 3.37147 13.0596L3.36854 13.0557C2.7997 12.327 2.42842 11.464 2.29139 10.5498C2.15441 9.63564 2.25606 8.70125 2.58631 7.83789C2.91666 6.97446 3.46487 6.21045 4.17713 5.62109C4.7005 5.1881 5.29981 4.86062 5.94178 4.65234V0.857422C5.94178 0.385218 6.32504 0.000976562 6.79725 0.000976562C7.26928 0.00117713 7.65272 0.385342 7.65272 0.857422V5.05957C8.1025 5.75616 8.71134 6.33766 9.43299 6.75C10.2158 7.19712 11.1018 7.43258 12.0033 7.43262C12.905 7.4326 13.7917 7.19732 14.5746 6.75C15.2925 6.33975 15.8989 5.76217 16.348 5.07031V0.857422C16.348 0.385218 16.7313 0.000976562 17.2035 0.000976562ZM17.5795 6.29395C17.0067 7.08375 16.2746 7.74784 15.4232 8.23438C14.3819 8.82937 13.2026 9.14256 12.0033 9.14258C10.8041 9.14254 9.62559 8.82926 8.58436 8.23438C7.7326 7.74769 6.9991 7.08412 6.42615 6.29395C6.00527 6.43634 5.61166 6.6533 5.26697 6.93848C4.78188 7.33986 4.40903 7.86023 4.18397 8.44824C3.95894 9.03641 3.8895 9.6731 3.98279 10.2959C4.07589 10.9172 4.3273 11.5043 4.71326 12C5.07092 12.4532 5.50161 12.9191 5.77479 13.5508C6.05929 14.2088 6.17207 15.0053 6.17127 16.208V22.2881H17.8353V16.208C17.835 15.2223 17.9565 14.4538 18.2201 13.7686C18.4815 13.0891 18.8625 12.5472 19.2904 12.0039L19.4301 11.8135C19.7394 11.3598 19.9431 10.8409 20.0248 10.2959C20.1181 9.67315 20.0486 9.03637 19.8236 8.44824C19.5986 7.86017 19.2247 7.3399 18.7396 6.93848C18.3947 6.65312 18.0007 6.4363 17.5795 6.29395Z" fill="black"/>
</svg>
