<svg width="24" height="24" viewBox="0 0 24 24" fill="none" xmlns="http://www.w3.org/2000/svg">
<path d="M6.50391 19.7168C8.61307 19.717 10.4244 20.9882 11.2168 22.8018C11.4052 23.2342 11.2076 23.7377 10.7754 23.9268C10.3431 24.1156 9.83978 23.9183 9.65039 23.4863C9.12026 22.2731 7.90916 21.4279 6.50391 21.4277C5.09862 21.4279 3.88854 22.273 3.3584 23.4863C3.16922 23.9184 2.6648 24.1153 2.23242 23.9268C1.80024 23.7376 1.60335 23.2342 1.79199 22.8018C2.58443 20.9882 4.3947 19.717 6.50391 19.7168Z" fill="black"/>
<path d="M17.5059 19.7168C19.6152 19.7169 21.4263 20.9882 22.2188 22.8018C22.4072 23.2343 22.2098 23.7378 21.7773 23.9268C21.345 24.1156 20.8417 23.9183 20.6523 23.4863C20.1221 22.273 18.9113 21.4278 17.5059 21.4277C16.1005 21.4279 14.8905 22.2731 14.3604 23.4863C14.1711 23.9184 13.6668 24.1154 13.2344 23.9268C12.8022 23.7376 12.6054 23.2342 12.7939 22.8018C13.5864 20.9882 15.3966 19.717 17.5059 19.7168Z" fill="black"/>
<path fill-rule="evenodd" clip-rule="evenodd" d="M6.50586 13.7158C7.30076 13.7159 8.06388 14.0326 8.62598 14.5947C9.18783 15.1568 9.50383 15.9191 9.50391 16.7139C9.50391 17.5088 9.18803 18.2718 8.62598 18.834C8.06388 19.3961 7.30076 19.7118 6.50586 19.7119C5.71109 19.7118 4.94882 19.3958 4.38672 18.834C3.82451 18.2718 3.50781 17.5089 3.50781 16.7139C3.50789 15.9189 3.82458 15.1569 4.38672 14.5947C4.94884 14.0327 5.71099 13.7159 6.50586 13.7158ZM6.50586 15.4268C6.16451 15.4268 5.83713 15.5624 5.5957 15.8037C5.35425 16.0452 5.21882 16.3724 5.21875 16.7139C5.21875 17.0554 5.35418 17.3835 5.5957 17.625C5.83711 17.8662 6.16461 18.0019 6.50586 18.002C6.84724 18.0018 7.17559 17.8664 7.41699 17.625C7.65836 17.3835 7.79395 17.0553 7.79395 16.7139C7.79387 16.3726 7.65816 16.0451 7.41699 15.8037C7.17559 15.5623 6.84724 15.4269 6.50586 15.4268Z" fill="black"/>
<path fill-rule="evenodd" clip-rule="evenodd" d="M17.501 13.7158C18.296 13.7159 19.0589 14.0326 19.6211 14.5947C20.183 15.1568 20.4989 15.919 20.499 16.7139C20.499 17.5089 20.1832 18.2718 19.6211 18.834C19.0589 19.3961 18.296 19.7118 17.501 19.7119C16.7062 19.7118 15.9439 19.3959 15.3818 18.834C14.8196 18.2718 14.5029 17.5089 14.5029 16.7139C14.503 15.9189 14.8197 15.1569 15.3818 14.5947C15.944 14.0327 16.7061 13.7159 17.501 13.7158ZM17.501 15.4268C17.1596 15.4268 16.8323 15.5623 16.5908 15.8037C16.3494 16.0452 16.2139 16.3724 16.2139 16.7139C16.2139 17.0554 16.3493 17.3835 16.5908 17.625C16.8322 17.8662 17.1597 18.0019 17.501 18.002C17.8424 18.0019 18.1706 17.8665 18.4121 17.625C18.6536 17.3835 18.7891 17.0554 18.7891 16.7139C18.789 16.3726 18.6534 16.0451 18.4121 15.8037C18.1706 15.5622 17.8424 15.4268 17.501 15.4268Z" fill="black"/>
<path fill-rule="evenodd" clip-rule="evenodd" d="M20.2012 0.000976562C21.353 0.00125807 22.2871 0.936834 22.2871 2.08887V10.6377C22.2868 11.7895 21.3528 12.7234 20.2012 12.7236H3.80664C2.65464 12.7236 1.71909 11.7896 1.71875 10.6377V2.08887C1.71875 0.936668 2.65443 0.000976562 3.80664 0.000976562H20.2012ZM3.80664 1.71289C3.59884 1.71289 3.43066 1.88107 3.43066 2.08887V10.6377C3.431 10.8452 3.59905 11.0137 3.80664 11.0137H7.40625C8.19274 9.44609 9.75677 8.33318 11.5957 8.18945C11.3707 8.1561 11.1495 8.09908 10.9385 8.01172C10.601 7.87192 10.2935 7.66641 10.0352 7.4082C9.77703 7.14998 9.57146 6.84314 9.43164 6.50586C9.29183 6.16833 9.21981 5.80576 9.21973 5.44043C9.21973 5.07501 9.29185 4.71262 9.43164 4.375C9.57153 4.03728 9.77668 3.73016 10.0352 3.47168C10.2936 3.2132 10.6008 3.00805 10.9385 2.86816C11.2761 2.72837 11.6385 2.65625 12.0039 2.65625C12.3692 2.65633 12.7318 2.72836 13.0693 2.86816C13.4066 3.00798 13.7135 3.21355 13.9717 3.47168C14.2299 3.73002 14.4354 4.03755 14.5752 4.375C14.7149 4.71255 14.7871 5.0751 14.7871 5.44043C14.787 5.80576 14.715 6.16833 14.5752 6.50586C14.4353 6.84333 14.23 7.14989 13.9717 7.4082C13.7134 7.66652 13.4068 7.87184 13.0693 8.01172C12.8573 8.09957 12.6344 8.15616 12.4082 8.18945C14.2467 8.33352 15.8103 9.44649 16.5967 11.0137H20.2012C20.4084 11.0134 20.5768 10.845 20.5771 10.6377V2.08887C20.5771 1.88125 20.4086 1.71317 20.2012 1.71289H3.80664ZM12.001 9.88477C10.9931 9.88495 10.0867 10.3201 9.45898 11.0137H14.5439C13.9159 10.32 13.009 9.88477 12.001 9.88477ZM12.0039 4.36719C11.863 4.36719 11.723 4.39436 11.5928 4.44824C11.4625 4.50219 11.3448 4.58197 11.2451 4.68164C11.1454 4.78131 11.0657 4.89907 11.0117 5.0293C10.9578 5.15948 10.9307 5.29954 10.9307 5.44043C10.9307 5.5812 10.9578 5.7215 11.0117 5.85156C11.0657 5.98146 11.1457 6.09976 11.2451 6.19922C11.3447 6.29862 11.4628 6.37878 11.5928 6.43262C11.7228 6.4864 11.8631 6.51367 12.0039 6.51367C12.1447 6.51359 12.285 6.48649 12.415 6.43262C12.5451 6.37867 12.6631 6.2988 12.7627 6.19922C12.8623 6.09964 12.9421 5.98164 12.9961 5.85156C13.05 5.72151 13.0771 5.5812 13.0771 5.44043C13.0771 5.29967 13.0499 5.15937 12.9961 5.0293C12.9423 4.89932 12.8621 4.7812 12.7627 4.68164C12.6632 4.58218 12.5449 4.50219 12.415 4.44824C12.285 4.39437 12.1447 4.36727 12.0039 4.36719Z" fill="black"/>
</svg>
