<svg width="24" height="24" viewBox="0 0 24 24" fill="none" xmlns="http://www.w3.org/2000/svg">
<path fill-rule="evenodd" clip-rule="evenodd" d="M8.99805 10.4043C9.26152 10.2516 9.58612 10.2503 9.85059 10.4014L15.8506 13.8301C16.1166 13.9824 16.2822 14.2657 16.2822 14.5723C16.282 14.8788 16.1167 15.1623 15.8506 15.3145L9.85059 18.7432C9.58633 18.894 9.26138 18.8926 8.99805 18.7402C8.73466 18.5874 8.57156 18.3055 8.57129 18.001V11.1436C8.57129 10.8388 8.73444 10.5573 8.99805 10.4043ZM10.2822 16.5273L13.7041 14.5723L10.2822 12.6162V16.5273Z" fill="black"/>
<path fill-rule="evenodd" clip-rule="evenodd" d="M20.5693 0.858398C21.988 0.858549 23.1384 2.01002 23.1387 3.42871V20.5723C23.1383 21.9908 21.9879 23.1415 20.5693 23.1416H3.42578C2.00736 23.1412 0.85686 21.9907 0.856445 20.5723V3.42871C0.856671 2.01015 2.00725 0.858756 3.42578 0.858398H20.5693ZM2.56738 20.5723C2.5678 21.0463 2.95177 21.4313 3.42578 21.4316H20.5693C21.0435 21.4315 21.4283 21.0464 21.4287 20.5723V7.71289H2.56738V20.5723ZM3.42578 2.57031C2.95166 2.57067 2.56761 2.95455 2.56738 3.42871V6.00293H6.32617L8.04199 2.57031H3.42578ZM8.23828 6.00293H14.041L15.7568 2.57031H9.95508L8.23828 6.00293ZM15.9531 6.00293H21.4287V3.42871C21.4285 2.95443 21.0436 2.57046 20.5693 2.57031H17.6689L15.9531 6.00293Z" fill="black"/>
</svg>
