<svg width="24" height="24" viewBox="0 0 24 24" fill="none" xmlns="http://www.w3.org/2000/svg">
<path fill-rule="evenodd" clip-rule="evenodd" d="M10.6533 2.16709C12.3369 0.998692 14.6005 2.22915 14.5674 4.26279V19.7569C14.5224 21.7887 12.1666 22.9906 10.499 21.8331C10.4605 21.8063 10.4242 21.776 10.3906 21.7433L4.79395 16.294H2.56934C1.16127 16.2937 0 15.1259 0 13.7198V10.2814C6.61714e-05 8.87531 1.16132 7.70652 2.56934 7.70615H4.80078L10.5527 2.2501C10.5842 2.22025 10.6177 2.19183 10.6533 2.16709ZM12.8574 4.24229C12.8725 3.5978 12.192 3.22406 11.667 3.54893L5.72949 9.18174C5.57075 9.33229 5.36037 9.41601 5.1416 9.41612H2.56934C2.11058 9.4165 1.71101 9.81484 1.71094 10.2814V13.7198C1.71094 14.1864 2.11054 14.5837 2.56934 14.5841H5.1416L5.22461 14.589C5.41677 14.6078 5.59775 14.6915 5.7373 14.8272L11.5146 20.4522C12.0589 20.7851 12.8429 20.3753 12.8574 19.7188V4.24229Z" fill="black"/>
<path d="M20.9785 5.26865C21.3823 5.02471 21.9079 5.15404 22.1523 5.55772C23.3277 7.49917 23.9626 9.71996 23.9902 11.9894C23.9903 11.9962 23.9903 12.004 23.9902 12.0108C23.9626 14.2802 23.3277 16.501 22.1523 18.4425C21.9079 18.8462 21.3824 18.9756 20.9785 18.7315C20.5747 18.487 20.4452 17.9616 20.6895 17.5577C21.7051 15.8801 22.2536 13.9609 22.2793 12.0001C22.2536 10.0393 21.7052 8.1201 20.6895 6.44248C20.4452 6.0386 20.5747 5.51315 20.9785 5.26865Z" fill="black"/>
<path d="M17.4541 8.76963C17.818 8.46914 18.3574 8.52018 18.6582 8.88389C19.3809 9.7579 19.7547 10.8677 19.7109 12.0001C19.7548 13.1325 19.3808 14.2422 18.6582 15.1163C18.3573 15.4801 17.818 15.5313 17.4541 15.2306C17.0902 14.9296 17.0389 14.3903 17.3398 14.0265C17.7423 13.5397 17.9734 12.9368 18.002 12.3106V11.6896C17.9733 11.0635 17.7423 10.4604 17.3398 9.97373C17.039 9.60986 17.0903 9.07054 17.4541 8.76963Z" fill="black"/>
</svg>
