<svg width="24" height="24" viewBox="0 0 24 24" fill="none" xmlns="http://www.w3.org/2000/svg">
<path fill-rule="evenodd" clip-rule="evenodd" d="M10.6543 2.16694C12.3379 0.998871 14.6015 2.22905 14.5684 4.26265V19.7568C14.5233 21.7883 12.1675 22.99 10.5 21.833C10.4615 21.8062 10.4252 21.7758 10.3916 21.7431L4.79492 16.2939H2.57031C1.16216 16.2937 3.83173e-05 15.1258 0 13.7197V10.2812C0 8.87503 1.16215 7.70624 2.57031 7.70601H4.80176L10.5537 2.24995C10.5851 2.22015 10.6187 2.19164 10.6543 2.16694ZM12.8584 4.24214C12.8736 3.59772 12.1929 3.22424 11.668 3.54878L5.73047 9.18159C5.57183 9.33206 5.3612 9.41573 5.14258 9.41597H2.57031C2.11141 9.41621 1.71191 9.81456 1.71191 10.2812V13.7197C1.71195 14.1863 2.11144 14.5837 2.57031 14.5839H5.14258L5.22559 14.5888C5.41765 14.6078 5.59882 14.6913 5.73828 14.8271L11.5156 20.4521C12.0599 20.7846 12.8438 20.375 12.8584 19.7187V4.24214Z" fill="black"/>
<path d="M23.1416 11.1445C23.6138 11.1445 23.9971 11.5277 23.9971 12C23.997 12.4721 23.6138 12.8554 23.1416 12.8554H17.1416C16.6695 12.8553 16.2862 12.472 16.2861 12C16.2861 11.5278 16.6695 11.1446 17.1416 11.1445H23.1416Z" fill="black"/>
</svg>
