<svg width="24" height="24" viewBox="0 0 24 24" fill="none" xmlns="http://www.w3.org/2000/svg">
<path fill-rule="evenodd" clip-rule="evenodd" d="M5.35645 0.763352C5.5111 0.78062 5.71022 0.811839 5.93359 0.852219C6.38406 0.933663 6.97787 1.06167 7.59863 1.22527C8.21731 1.38833 8.88161 1.59155 9.46582 1.82488C10.0184 2.0456 10.6148 2.33715 10.998 2.72038C12.1752 3.89776 12.3154 5.71757 11.4209 7.04948C11.5858 7.37742 11.7977 7.84729 12.0078 8.4489C12.1312 8.80217 12.2508 9.20182 12.3633 9.64421C12.4045 9.58394 12.4439 9.5241 12.4854 9.46745C12.7297 9.13363 12.9745 8.86273 13.1895 8.653C12.6115 7.52582 12.7936 6.10954 13.7373 5.1657C14.0805 4.82254 14.5563 4.59723 14.9834 4.44499C15.43 4.28583 15.921 4.1732 16.375 4.09831C16.8293 4.02339 17.2728 3.9831 17.6318 3.9782C17.8087 3.97579 17.9866 3.98051 18.1445 4.00163C18.2225 4.01208 18.3179 4.02957 18.415 4.06023C18.4902 4.08396 18.6731 4.14749 18.834 4.30827C18.9949 4.46915 19.0582 4.65288 19.082 4.7282C19.1126 4.82501 19.1302 4.91992 19.1406 4.99773C19.1618 5.15573 19.1675 5.33444 19.165 5.5114C19.1601 5.87048 19.1199 6.31393 19.0449 6.76823C18.97 7.22209 18.8564 7.71232 18.6973 8.15886C18.545 8.58598 18.3197 9.06177 17.9766 9.40495C16.9995 10.3818 15.5178 10.541 14.373 9.88738C14.2205 10.0372 14.0434 10.233 13.8652 10.4762C13.4695 11.0168 13.0652 11.7994 12.918 12.8591H19.3506C21.4455 12.8593 23.1444 14.558 23.1445 16.653V19.3473C23.1443 21.4422 21.4455 23.1411 19.3506 23.1413H4.65625C2.5613 23.1411 0.862563 21.4423 0.862305 19.3473V16.653C0.862466 14.558 2.56125 12.8592 4.65625 12.8591H11.1279C11.0403 11.2297 10.7155 9.93125 10.3945 9.01238C10.287 8.70462 10.1784 8.44011 10.0811 8.21941C8.80232 8.84562 7.21543 8.62899 6.15234 7.56609C5.76905 7.18279 5.47757 6.58551 5.25684 6.03288C5.02353 5.44866 4.82125 4.78434 4.6582 4.1657C4.49465 3.54507 4.36562 2.95205 4.28418 2.50163C4.24378 2.27816 4.21355 2.0782 4.19629 1.92351C4.18802 1.84936 4.17978 1.76596 4.17871 1.68816C4.17823 1.65189 4.17815 1.58955 4.1875 1.51921C4.19213 1.48443 4.20258 1.42386 4.22559 1.3532C4.24389 1.2971 4.29736 1.14577 4.4375 1.00554L4.54395 0.915696C4.64828 0.840501 4.74426 0.806301 4.78613 0.792649C4.85646 0.769788 4.91641 0.760176 4.95117 0.75554C5.02147 0.746181 5.08379 0.746272 5.12012 0.746751C5.19809 0.747809 5.28215 0.755065 5.35645 0.763352ZM2.57324 19.3473C2.5735 20.4979 3.50571 21.4312 4.65625 21.4313H5.14844V19.4352L2.57324 18.4059V19.3473ZM6.85938 19.3141V21.4313H15.0039L16.7041 19.1637L14.374 17.9987H8.83203L6.85938 19.3141ZM17.1406 21.4313H19.3506C20.3764 21.4311 21.2274 20.6888 21.4004 19.7126H18.4307L17.1406 21.4313ZM15.7217 16.7604L18.2061 18.0026H21.4346V16.653C21.4344 15.5024 20.5011 14.5702 19.3506 14.57H16.8184L15.7217 16.7604ZM4.65625 14.57C3.53469 14.5702 2.62273 15.4557 2.57715 16.5661L5.90332 17.8962L7.47266 16.8493L6.33203 14.57H4.65625ZM9.10352 16.2878H14.0469L14.9053 14.57H8.24414L9.10352 16.2878ZM17.4463 5.69597C17.2171 5.70905 16.9421 5.73801 16.6523 5.78581C16.2681 5.84923 15.8822 5.94065 15.5576 6.05632C15.2134 6.17902 15.0225 6.30043 14.9473 6.37566C14.449 6.87411 14.4451 7.67747 14.9346 8.18132C14.9455 8.19176 14.9563 8.20245 14.9668 8.21355C15.471 8.69759 16.271 8.69238 16.7676 8.19597C16.8428 8.12073 16.9633 7.92963 17.0859 7.58562C17.2017 7.26085 17.293 6.87438 17.3564 6.48991C17.4043 6.19994 17.4332 5.92524 17.4463 5.69597ZM6.05176 2.6198C6.12063 2.95141 6.20735 3.33382 6.31152 3.72917C6.46445 4.30942 6.64634 4.90234 6.84473 5.39909C7.05573 5.92732 7.24359 6.23739 7.3623 6.35613C8.0326 7.02619 9.11882 7.02626 9.78906 6.35613C10.4589 5.68586 10.459 4.59956 9.78906 3.92937C9.67032 3.81064 9.35934 3.62378 8.83105 3.41277C8.33433 3.21439 7.74232 3.0315 7.16211 2.87859C6.76656 2.77435 6.38352 2.6887 6.05176 2.6198Z" fill="black"/>
</svg>
