<svg width="24" height="24" viewBox="0 0 24 24" fill="none" xmlns="http://www.w3.org/2000/svg">
<path fill-rule="evenodd" clip-rule="evenodd" d="M12.001 8.57324C15.3133 8.57337 17.9989 11.259 17.999 14.5713C17.999 14.8929 17.9726 15.2087 17.9238 15.5166C17.9204 15.5502 17.9135 15.5829 17.9062 15.6152C17.4122 18.43 14.9573 20.5692 12.001 20.5693C8.6886 20.5692 6.00293 17.8838 6.00293 14.5713C6.00296 13.8719 6.12332 13.1986 6.34473 12.5723C7.16769 10.244 9.38829 8.57336 12.001 8.57324ZM7.71387 14.5713C7.71387 16.9394 9.63298 18.8592 12.001 18.8594C13.76 18.8593 15.2715 17.7997 15.9326 16.2842H15.6318C14.2389 16.2841 12.8651 15.9588 11.6191 15.3359C10.6106 14.8317 9.49772 14.5694 8.37012 14.5693H7.71387V14.5713ZM12.001 10.2842C10.2429 10.2843 8.73076 11.3427 8.06934 12.8594H8.37012C9.7632 12.8594 11.1378 13.1836 12.3838 13.8066C13.3923 14.3108 14.5044 14.5732 15.6318 14.5732H16.2891V14.5713C16.2889 12.2034 14.3689 10.2843 12.001 10.2842Z" fill="black"/>
<path fill-rule="evenodd" clip-rule="evenodd" d="M19.7148 0.000976562C21.1337 0.000976562 22.284 1.15251 22.2842 2.57129V21.4287C22.2839 22.8475 21.1337 23.998 19.7148 23.998H4.28613C2.86764 23.9977 1.71706 22.8473 1.7168 21.4287V2.57129C1.71702 1.15272 2.86761 0.00133449 4.28613 0.000976562H19.7148ZM3.42773 6.85547V21.4287C3.428 21.9029 3.81203 22.2877 4.28613 22.2881H19.7148C20.1893 22.2881 20.574 21.9031 20.5742 21.4287V6.85547H3.42773ZM4.28613 1.71289C3.81201 1.71325 3.42796 2.09713 3.42773 2.57129V5.14453H20.5742V2.57129C20.574 2.0969 20.1893 1.71289 19.7148 1.71289H4.28613Z" fill="black"/>
</svg>
