<svg width="24" height="24" viewBox="0 0 24 24" fill="none" xmlns="http://www.w3.org/2000/svg">
<path fill-rule="evenodd" clip-rule="evenodd" d="M12.1162 9.30957C12.2283 9.32382 12.317 9.35485 12.3701 9.37598C12.4502 9.40784 12.5201 9.44583 12.5742 9.47852C12.6823 9.5438 12.789 9.6255 12.8867 9.70605C13.0853 9.86976 13.3165 10.0908 13.5615 10.3467C14.0551 10.8623 14.6536 11.5696 15.2324 12.3643C15.8104 13.1577 16.3835 14.0578 16.8154 14.958C17.2398 15.8424 17.5654 16.8048 17.5654 17.7002C17.5651 20.7757 15.0717 23.2695 11.9961 23.2695C8.92077 23.2692 6.42708 20.7755 6.42676 17.7002C6.42676 16.8049 6.75346 15.8424 7.17773 14.958C7.60963 14.0579 8.18282 13.1577 8.76074 12.3643C9.3395 11.5698 9.9381 10.8623 10.4316 10.3467C10.6765 10.0909 10.908 9.86973 11.1064 9.70605C11.2041 9.62557 11.3109 9.54378 11.4189 9.47852C11.473 9.44588 11.5431 9.40781 11.623 9.37598C11.6938 9.34783 11.8279 9.30188 11.9961 9.30176L12.1162 9.30957ZM11.667 11.5293C11.2299 11.9859 10.6796 12.6339 10.1426 13.3711C9.60471 14.1095 9.09347 14.9193 8.71973 15.6982C8.33846 16.493 8.1377 17.1815 8.1377 17.7002C8.13802 19.8311 9.86518 21.5592 11.9961 21.5596C14.1273 21.5596 15.8551 19.8313 15.8555 17.7002C15.8555 17.1814 15.6547 16.493 15.2734 15.6982C14.8997 14.9192 14.3875 14.1096 13.8496 13.3711C13.3126 12.6339 12.7632 11.9859 12.3262 11.5293C12.203 11.4006 12.092 11.2912 11.9961 11.2012C11.9004 11.2911 11.7899 11.401 11.667 11.5293Z" fill="black"/>
<path fill-rule="evenodd" clip-rule="evenodd" d="M5.21875 1.25C5.41371 1.27009 5.72218 1.36943 5.89648 1.70117C5.96032 1.77577 6.05639 1.88253 6.1875 2.03027C6.46382 2.34165 6.85769 2.78881 7.25781 3.29688C7.65559 3.802 8.07598 4.3877 8.40039 4.98047C8.71331 5.55242 8.99506 6.23232 8.99512 6.90039C8.99485 9.02913 7.26843 10.7557 5.13965 10.7559C3.01075 10.7559 1.28444 9.02921 1.28418 6.90039C1.28423 6.23224 1.56594 5.55246 1.87891 4.98047C2.20337 4.38761 2.62365 3.80206 3.02148 3.29688C3.42171 2.78868 3.81546 2.34166 4.0918 2.03027C4.22277 1.88269 4.318 1.77576 4.38184 1.70117C4.58234 1.3191 4.96174 1.24414 5.13965 1.24414L5.21875 1.25ZM5.13965 3.42969C4.9073 3.69526 4.63613 4.01053 4.36523 4.35449C3.99546 4.82403 3.63912 5.32624 3.37891 5.80176C3.10732 6.29813 2.99518 6.66874 2.99512 6.90039C2.99538 8.08481 3.95516 9.0459 5.13965 9.0459C6.32402 9.04577 7.28392 8.08472 7.28418 6.90039C7.28412 6.66877 7.17189 6.29802 6.90039 5.80176C6.64022 5.32632 6.28377 4.82396 5.91406 4.35449C5.64325 4.01063 5.37195 3.69521 5.13965 3.42969Z" fill="black"/>
<path fill-rule="evenodd" clip-rule="evenodd" d="M18.9697 1.25391C19.0767 1.2684 19.1547 1.29848 19.1865 1.31152C19.2432 1.33474 19.2875 1.35946 19.3135 1.375C19.366 1.40641 19.4095 1.43892 19.4365 1.45996C19.4939 1.50463 19.5526 1.55724 19.6064 1.60742C19.7177 1.71112 19.8562 1.85074 20.0088 2.01465C20.3154 2.34407 20.7052 2.79902 21.0908 3.3125C21.4746 3.82363 21.8676 4.41161 22.168 5.00586C22.4593 5.58232 22.7089 6.25087 22.709 6.90039C22.7087 9.02921 20.9824 10.7559 18.8535 10.7559C16.7247 10.7557 14.9983 9.02913 14.998 6.90039C14.9981 6.25095 15.2478 5.58227 15.5391 5.00586C15.8394 4.4117 16.2325 3.82358 16.6162 3.3125C17.0017 2.79915 17.3917 2.34405 17.6982 2.01465C17.8507 1.85087 17.9894 1.71109 18.1006 1.60742C18.1543 1.55733 18.2133 1.50458 18.2705 1.45996C18.2975 1.43897 18.3412 1.40635 18.3936 1.375C18.4195 1.3595 18.4641 1.33469 18.5205 1.31152C18.5629 1.29415 18.6873 1.24419 18.8535 1.24414L18.9697 1.25391ZM18.8535 3.28613C18.5999 3.5654 18.2894 3.93136 17.9834 4.33887C17.6353 4.8025 17.3051 5.30317 17.0654 5.77734C16.817 6.26894 16.709 6.65031 16.709 6.90039C16.7092 8.08472 17.6691 9.04577 18.8535 9.0459C20.038 9.0459 20.9978 8.08481 20.998 6.90039C20.998 6.65028 20.8901 6.26904 20.6416 5.77734C20.4019 5.30309 20.0718 4.80257 19.7236 4.33887C19.4175 3.93124 19.1072 3.56543 18.8535 3.28613Z" fill="black"/>
</svg>
