<svg width="24" height="24" viewBox="0 0 24 24" fill="none" xmlns="http://www.w3.org/2000/svg">
<path fill-rule="evenodd" clip-rule="evenodd" d="M19.7139 0.000976562C21.1327 0.000976562 22.283 1.1525 22.2832 2.57129V21.4287C22.2831 21.7305 22.2284 22.0191 22.1328 22.2881H23.1436C23.6155 22.2884 23.998 22.6716 23.998 23.1436C23.9978 23.6153 23.6153 23.9987 23.1436 23.999H0.857422C0.385381 23.999 0.0022173 23.6155 0.00195312 23.1436C0.00195312 22.6714 0.385218 22.2881 0.857422 22.2881H1.86719C1.77149 22.0191 1.71588 21.7305 1.71582 21.4287V2.57129C1.71605 1.15272 2.86662 0.00133455 4.28516 0.000976562H19.7139ZM12.8555 12.8555V22.2881H19.7139C20.1883 22.2881 20.573 21.9031 20.5732 21.4287V12.8555H12.8555ZM3.42676 21.4287C3.42702 21.9028 3.81105 22.2877 4.28516 22.2881H11.1445V12.8555H3.42676V21.4287ZM12.8555 11.1445H20.5732V2.57129C20.573 2.09691 20.1883 1.71289 19.7139 1.71289H12.8555V11.1445ZM4.28516 1.71289C3.81103 1.71325 3.42698 2.09713 3.42676 2.57129V11.1445H11.1445V1.71289H4.28516Z" fill="black"/>
</svg>
