<svg width="24" height="24" viewBox="0 0 24 24" fill="none" xmlns="http://www.w3.org/2000/svg">
<path fill-rule="evenodd" clip-rule="evenodd" d="M18.8525 11.1445C20.9816 11.1445 22.708 12.8709 22.708 15V16.6338C23.4757 17.0782 23.994 17.9068 23.9941 18.8574V21.4297C23.9937 22.848 22.8431 23.9986 21.4248 23.999H16.2812C14.8628 23.9988 13.7124 22.8481 13.7119 21.4297V18.8574C13.7121 17.4388 14.8626 16.2883 16.2812 16.2881H20.9971V15C20.9971 13.8153 20.0372 12.8555 18.8525 12.8555C18.3804 12.8553 17.9971 12.4721 17.9971 12C17.9971 11.5279 18.3804 11.1447 18.8525 11.1445ZM16.2812 17.999C15.807 17.9992 15.4231 18.3832 15.4229 18.8574V21.4297C15.4233 21.9037 15.8072 22.2879 16.2812 22.2881H21.4248C21.8987 22.2877 22.2837 21.9036 22.2842 21.4297V18.8574C22.284 18.3833 21.8989 17.9994 21.4248 17.999H16.2812Z" fill="black"/>
<path d="M19.71 0.000976562C21.1286 0.00124045 22.2791 1.15267 22.2793 2.57129V7.71484C22.2789 8.18644 21.8964 8.56892 21.4248 8.56934C20.9529 8.56934 20.5698 8.18669 20.5693 7.71484V2.57129C20.5691 2.09707 20.1842 1.71315 19.71 1.71289H4.28125C3.80701 1.71312 3.42308 2.09705 3.42285 2.57129V21.4287C3.42312 21.9029 3.80703 22.2879 4.28125 22.2881H10.2812C10.7532 22.2884 11.1367 22.6715 11.1367 23.1436C11.1362 23.6152 10.7529 23.9978 10.2812 23.998H4.28125C2.86263 23.9978 1.7112 22.8473 1.71094 21.4287V2.57129C1.71116 1.15264 2.8626 0.00120228 4.28125 0.000976562H19.71Z" fill="black"/>
</svg>
