<svg width="24" height="24" viewBox="0 0 24 24" fill="none" xmlns="http://www.w3.org/2000/svg">
<path fill-rule="evenodd" clip-rule="evenodd" d="M18.8477 11.1445C20.9765 11.1448 22.7031 12.8711 22.7031 15V16.6338C23.4705 17.0782 23.9881 17.907 23.9883 18.8574V21.4297C23.9878 22.8481 22.8374 23.9987 21.4189 23.999H16.2754C14.8569 23.9988 13.7065 22.8481 13.7061 21.4297V18.8574C13.7062 17.9064 14.224 17.0771 14.9922 16.6328V15C14.9922 12.8709 16.7186 11.1445 18.8477 11.1445ZM16.2754 17.999C15.8012 17.9992 15.4172 18.3832 15.417 18.8574V21.4297C15.4175 21.9037 15.8013 22.2879 16.2754 22.2881H21.4189C21.893 22.2878 22.2778 21.9037 22.2783 21.4297V18.8574C22.2781 18.3832 21.8931 17.9993 21.4189 17.999H16.2754ZM18.8477 12.8555C17.663 12.8555 16.7031 13.8153 16.7031 15V16.2881H20.9922V15C20.9922 13.8155 20.0321 12.8557 18.8477 12.8555Z" fill="black"/>
<path d="M19.709 0.000976562C21.1253 0.00128062 22.2734 1.15098 22.2734 2.56738V7.71484C22.273 8.18652 21.8907 8.56905 21.4189 8.56934C20.947 8.56934 20.5639 8.18669 20.5635 7.71484V2.56738C20.5635 2.09539 20.1809 1.71319 19.709 1.71289H4.27148C3.79931 1.71291 3.41701 2.09521 3.41699 2.56738V21.4336C3.4175 21.9053 3.79962 22.2881 4.27148 22.2881H10.2754C10.7475 22.2882 11.1309 22.6714 11.1309 23.1436C11.1304 23.6153 10.7472 23.9979 10.2754 23.998H4.27148C2.85521 23.998 1.70657 22.8498 1.70605 21.4336V2.56738C1.70608 1.1508 2.85491 0.000999171 4.27148 0.000976562H19.709Z" fill="black"/>
</svg>
