<svg width="24" height="24" viewBox="0 0 24 24" fill="none" xmlns="http://www.w3.org/2000/svg">
<path fill-rule="evenodd" clip-rule="evenodd" d="M9.43164 0.000976562C10.8504 0.00110851 12.0008 1.15259 12.001 2.57129C12.0009 3.19454 11.7701 4.16795 11.4326 4.97168C11.2609 5.38056 11.0376 5.80597 10.7578 6.14355C10.6395 6.28629 10.4811 6.44395 10.2871 6.57617V9.43066H16.8633L20.0625 7.03125L20.1787 6.95703C20.3004 6.89339 20.4365 6.85938 20.5752 6.85938H23.1465C23.6186 6.85951 24.002 7.24272 24.002 7.71484V12.8574C24.0017 13.3293 23.6184 13.7128 23.1465 13.7129H20.5752C20.3905 13.7129 20.2103 13.6526 20.0625 13.542L16.8613 11.1416H15.4307V23.1436C15.4302 23.6152 15.0469 23.9978 14.5752 23.998C14.1032 23.998 13.7201 23.6154 13.7197 23.1436V11.1416H10.2871V13.9922C10.4818 14.1248 10.6392 14.2855 10.7578 14.4287C11.0375 14.7663 11.261 15.1908 11.4326 15.5996C11.7702 16.4036 12.001 17.3767 12.001 18C12.0009 19.4188 10.8505 20.5692 9.43164 20.5693C8.0129 20.5691 6.86238 19.4188 6.8623 18C6.8623 17.3767 7.09405 16.4036 7.43164 15.5996C7.60332 15.1908 7.82671 14.7663 8.10645 14.4287C8.22484 14.2859 8.38214 14.1266 8.57617 13.9941V11.1416H5.14355V12.8574C5.14337 13.1811 4.96041 13.4773 4.6709 13.6221C4.38154 13.7665 4.03523 13.7358 3.77637 13.542L0.347656 10.9707C0.132492 10.8093 0.00503686 10.5551 0.00488281 10.2861C0.00492653 10.0172 0.132636 9.76399 0.347656 9.60254L3.77637 7.03125C4.03535 6.83706 4.38133 6.80554 4.6709 6.9502C4.96056 7.09503 5.14355 7.39099 5.14355 7.71484V9.43066H8.57617V6.57617C8.3825 6.44405 8.22472 6.28619 8.10645 6.14355C7.82669 5.80601 7.60335 5.38051 7.43164 4.97168C7.09419 4.16794 6.86243 3.19455 6.8623 2.57129C6.86253 1.15264 8.013 0.00120267 9.43164 0.000976562ZM9.42285 15.5195C9.29257 15.6768 9.14625 15.9321 9.00781 16.2617C8.72504 16.9352 8.57324 17.6766 8.57324 18C8.57332 18.4744 8.95731 18.8591 9.43164 18.8594C9.90605 18.8592 10.2909 18.4744 10.291 18C10.291 17.6766 10.1383 16.9353 9.85547 16.2617C9.71708 15.9322 9.57165 15.6768 9.44141 15.5195C9.43834 15.5158 9.4346 15.5123 9.43164 15.5088C9.4288 15.5121 9.4258 15.516 9.42285 15.5195ZM18.5703 10.2861L20.8604 12.0029H22.291V8.57031H20.8584L18.5703 10.2861ZM2.28418 10.2861L3.43359 11.1475V9.4248L2.28418 10.2861ZM9.43164 1.71289C8.9574 1.71312 8.57347 2.09705 8.57324 2.57129C8.57339 2.89492 8.72525 3.63646 9.00781 4.30957C9.14615 4.63891 9.29266 4.89457 9.42285 5.05176C9.42555 5.05496 9.42908 5.05849 9.43164 5.06152C9.43438 5.05829 9.43853 5.05517 9.44141 5.05176C9.5716 4.89453 9.71713 4.63895 9.85547 4.30957C10.1381 3.63638 10.2909 2.89497 10.291 2.57129C10.2908 2.09699 9.90596 1.71302 9.43164 1.71289Z" fill="black"/>
</svg>
