<svg width="24" height="24" viewBox="0 0 24 24" fill="none" xmlns="http://www.w3.org/2000/svg">
<path d="M6.25391 11.3955C6.58781 11.0617 7.12903 11.0617 7.46289 11.3955L10.0342 13.9668C10.1944 14.1271 10.2851 14.3446 10.2852 14.5713C10.2852 14.798 10.1944 15.0154 10.0342 15.1758L7.46289 17.7471C7.12903 18.0809 6.58781 18.0808 6.25391 17.7471C5.92015 17.4132 5.92005 16.8719 6.25391 16.5381L8.2207 14.5713L6.25391 12.6045C5.92001 12.2706 5.92001 11.7294 6.25391 11.3955Z" fill="black"/>
<path d="M18.001 13.7158C18.4731 13.7159 18.8555 14.0991 18.8555 14.5713C18.8555 15.0434 18.4731 15.4267 18.001 15.4268H14.5723C14.1002 15.4266 13.7168 15.0434 13.7168 14.5713C13.7168 14.0992 14.1002 13.716 14.5723 13.7158H18.001Z" fill="black"/>
<path fill-rule="evenodd" clip-rule="evenodd" d="M21.4297 1.71582C22.8484 1.71595 23.9988 2.86646 23.999 4.28516V19.7139C23.999 21.1328 22.8486 22.2831 21.4297 22.2832H2.57227C1.15349 22.283 0.00292969 21.1327 0.00292969 19.7139V4.28516C0.00315569 2.86651 1.15362 1.71605 2.57227 1.71582H21.4297ZM1.71387 19.7139C1.71387 20.1883 2.09788 20.573 2.57227 20.5732H21.4297C21.9042 20.5731 22.2891 20.1884 22.2891 19.7139V8.57031H1.71387V19.7139ZM2.57227 3.42676C2.09803 3.42698 1.71409 3.81092 1.71387 4.28516V6.85938H22.2891V4.28516C22.2888 3.81085 21.904 3.42689 21.4297 3.42676H2.57227Z" fill="black"/>
</svg>
