<svg width="24" height="25" viewBox="0 0 24 25" fill="none" xmlns="http://www.w3.org/2000/svg">
<path fill-rule="evenodd" clip-rule="evenodd" d="M13.7253 0.0619908C14.7274 -0.00467679 15.7293 0.203081 16.6218 0.663553C17.0412 0.880111 17.2053 1.39635 16.989 1.8159L13.8991 7.80613C13.9927 7.88012 14.0835 7.95828 14.1687 8.04344C14.7487 8.6235 15.0749 9.4106 15.0749 10.2309C15.0749 10.8305 14.8991 11.4107 14.5788 11.9067L17.4763 16.0434C17.7238 15.7683 17.9334 15.4591 18.0925 15.1216C18.3748 14.5223 18.4961 13.8591 18.444 13.1987C18.3919 12.5384 18.1683 11.9025 17.7956 11.355C17.4228 10.8076 16.9132 10.3662 16.3181 10.0757C15.8939 9.86848 15.7175 9.35637 15.9245 8.93211C16.1316 8.50833 16.643 8.3321 17.0671 8.53855C17.9297 8.95949 18.6684 9.59872 19.2087 10.3921C19.7489 11.1855 20.0726 12.107 20.1481 13.0639C20.2236 14.021 20.0485 14.9816 19.6394 15.8501C19.2301 16.7185 18.6012 17.465 17.8151 18.0161C17.6294 18.1463 17.3989 18.198 17.1755 18.1587C16.9524 18.1192 16.7537 17.9927 16.6237 17.8071L13.28 13.0337C13.1364 13.1002 12.9889 13.1568 12.8366 13.2007V22.3345H17.9138C18.3858 22.3345 18.769 22.7179 18.7692 23.1899C18.7692 23.6621 18.386 24.0454 17.9138 24.0454H6.05439C5.58228 24.0453 5.19893 23.6621 5.19893 23.1899C5.19918 22.718 5.58243 22.3346 6.05439 22.3345H11.1257V13.2007C10.6275 13.0569 10.1678 12.7906 9.79463 12.4175C9.39688 12.0195 9.12264 11.5232 8.98701 10.9868L3.74092 11.6587C3.84797 11.9478 3.98904 12.2243 4.16377 12.4809C4.5012 12.9764 4.95114 13.3852 5.47627 13.6743C6.00146 13.9634 6.58806 14.125 7.18721 14.145C7.78616 14.1649 8.38136 14.0428 8.92451 13.7895C9.35247 13.59 9.86168 13.7756 10.0612 14.2036C10.2605 14.6315 10.075 15.1398 9.64717 15.3393C8.86008 15.7063 7.99755 15.883 7.12959 15.854C6.26165 15.825 5.41286 15.5911 4.65205 15.1723C3.89128 14.7536 3.23954 14.1616 2.75068 13.4438C2.26186 12.7261 1.9496 11.9027 1.83857 11.0415C1.80959 10.8166 1.87092 10.5892 2.00947 10.4096C2.14818 10.2301 2.35277 10.1123 2.57783 10.0835L9.04853 9.25633C9.19893 8.80379 9.45123 8.38691 9.79463 8.04344C10.3746 7.46348 11.162 7.1373 11.9821 7.13719C12.0921 7.13719 12.2019 7.14417 12.3103 7.15574L15.0319 1.87937C14.6441 1.78048 14.2415 1.74121 13.8386 1.76805C13.1471 1.81413 12.4811 2.04822 11.9128 2.4448C11.3445 2.84146 10.8947 3.38586 10.613 4.01902C10.3313 4.65229 10.2283 5.35079 10.3142 6.03855C10.3727 6.50712 10.0396 6.93415 9.571 6.99265C9.10259 7.05092 8.67539 6.7189 8.61689 6.25047C8.49247 5.25396 8.64238 4.24226 9.05049 3.32469C9.45878 2.40699 10.1106 1.61735 10.9343 1.04246C11.7578 0.467755 12.7232 0.128762 13.7253 0.0619908ZM11.9821 8.84812C11.6155 8.84824 11.2629 8.99315 11.0036 9.25242C10.7444 9.51177 10.5993 9.86423 10.5993 10.2309C10.5994 10.5974 10.7446 10.9492 11.0036 11.2085C11.2606 11.4654 11.6092 11.6101 11.9724 11.6128H11.9899C12.3539 11.6108 12.7021 11.4659 12.9597 11.2085C13.219 10.9492 13.3649 10.5977 13.3649 10.2309C13.3649 9.86413 13.219 9.5118 12.9597 9.25242C12.7004 8.99339 12.3486 8.84818 11.9821 8.84812Z" fill="black"/>
</svg>
