<svg width="24" height="24" viewBox="0 0 24 24" fill="none" xmlns="http://www.w3.org/2000/svg">
<path fill-rule="evenodd" clip-rule="evenodd" d="M19.533 5.14453C21.0529 5.14461 22.2407 6.45737 22.0896 7.96973L20.7176 21.6846C20.586 22.9976 19.4815 23.9978 18.1619 23.998H5.83573C4.516 23.9979 3.41058 22.9977 3.27909 21.6846L1.908 7.96973C1.75689 6.45741 2.9448 5.1447 4.46464 5.14453H19.533ZM4.46464 6.85547C3.95641 6.85563 3.55861 7.29406 3.60917 7.7998L4.98026 21.5137C5.02418 21.9528 5.3944 22.2879 5.83573 22.2881H18.1619C18.6031 22.2878 18.9725 21.9528 19.0164 21.5137L20.3875 7.7998C20.4381 7.294 20.0413 6.85555 19.533 6.85547H4.46464Z" fill="black"/>
<path d="M17.9978 0.000976562C19.4165 0.00121751 20.5669 1.15265 20.5672 2.57129C20.5669 3.04307 20.1845 3.42644 19.7127 3.42676C19.2406 3.42676 18.8575 3.04327 18.8572 2.57129C18.857 2.09706 18.4721 1.71313 17.9978 1.71289H5.99784C5.5236 1.71312 5.13967 2.09705 5.13944 2.57129C5.13918 3.04312 4.75581 3.42652 4.28397 3.42676C3.81193 3.42676 3.42877 3.04327 3.4285 2.57129C3.42873 1.15264 4.57919 0.00120262 5.99784 0.000976562H17.9978Z" fill="black"/>
</svg>
