<svg width="24" height="24" viewBox="0 0 24 24" fill="none" xmlns="http://www.w3.org/2000/svg">
<path fill-rule="evenodd" clip-rule="evenodd" d="M6.29139 1.131C6.47188 0.764249 6.89172 0.572513 7.29236 0.686663L13.5541 2.47182C13.9817 2.59388 14.2447 3.02386 14.1586 3.4601L12.3392 12.6662C11.8411 15.1895 9.49899 16.8675 7.02381 16.6105L5.63221 21.4914L7.35291 21.9826C7.80656 22.1122 8.06991 22.5854 7.9408 23.0392C7.81138 23.4931 7.33808 23.7562 6.88416 23.6271L4.38025 22.9132C4.36742 22.9102 4.354 22.9081 4.34119 22.9044C4.32786 22.9006 4.31513 22.8952 4.30213 22.8908L1.79725 22.1769C1.34316 22.0474 1.07992 21.5743 1.20936 21.1203C1.33892 20.6663 1.81199 20.403 2.266 20.5324L3.98768 21.0226L5.37928 16.1417C3.14553 15.0572 2.03095 12.4128 2.93982 10.0031L4.57557 5.6642C4.57629 5.66161 4.57775 5.65898 4.5785 5.65639C4.59145 5.61142 4.60799 5.56848 4.62732 5.52748L6.25818 1.20717L6.29139 1.131ZM4.54041 10.6066C3.88199 12.352 4.85333 14.2863 6.6449 14.8019C6.64688 14.8024 6.64878 14.8033 6.65076 14.8039L6.65564 14.8048C8.44575 15.3132 10.299 14.1715 10.6615 12.3341L11.4154 8.51283L5.92518 6.93276L4.54041 10.6066ZM6.52967 5.32826L11.7484 6.83022L12.3275 3.89955L7.57947 2.54604L6.52967 5.32826Z" fill="black"/>
<path d="M16.7953 0.668108C17.1975 0.594348 17.6023 0.817276 17.7494 1.20717L21.0668 10.0031C21.9764 12.4141 20.8595 15.0593 18.6234 16.1427L20.015 21.0226L21.7367 20.5324C22.1906 20.4033 22.6639 20.6664 22.7933 21.1203C22.9227 21.5742 22.6592 22.0472 22.2055 22.1769L19.7084 22.8878C19.6931 22.8931 19.6782 22.8999 19.6625 22.9044C19.6477 22.9086 19.6324 22.9108 19.6176 22.9142L17.1185 23.6271C16.6644 23.7565 16.1914 23.4933 16.0619 23.0392C15.9326 22.5852 16.1958 22.112 16.6498 21.9826L18.3705 21.4914L16.9789 16.6115C16.039 16.7091 15.1168 16.5302 14.309 16.131C13.8857 15.9218 13.7121 15.4088 13.9213 14.9855C14.1306 14.5625 14.6436 14.3887 15.0668 14.5978C15.7467 14.9337 16.5462 15.0299 17.3392 14.8078C17.3437 14.8064 17.3484 14.8051 17.3529 14.8039C17.3604 14.8017 17.3679 14.7999 17.3754 14.798C19.1584 14.2766 20.1239 12.3475 19.4672 10.6066L18.0883 6.95131L15.9828 7.55971C15.5293 7.69038 15.0552 7.42809 14.9242 6.97475C14.7935 6.5212 15.0548 6.04717 15.5082 5.91615L17.4828 5.34682L16.4262 2.54604L16.1967 2.61244C15.7426 2.74174 15.2695 2.47857 15.14 2.02455C15.0107 1.57056 15.274 1.09742 15.7279 0.967913L16.7142 0.686663L16.7953 0.668108Z" fill="black"/>
</svg>
