<svg width="24" height="24" viewBox="0 0 24 24" fill="none" xmlns="http://www.w3.org/2000/svg">
<path fill-rule="evenodd" clip-rule="evenodd" d="M16.1833 0.860503C17.0536 0.838457 18.3442 1.02903 18.8601 2.23746C18.9972 2.55886 18.9248 2.93204 18.6774 3.17886L15.5183 6.32925L15.4304 6.43863C15.3535 6.55552 15.3113 6.69284 15.3112 6.83414C15.3112 6.896 15.3417 7.0457 15.4743 7.27457C15.6008 7.49285 15.7901 7.72927 16.0202 7.94839C16.25 8.16715 16.5007 8.35012 16.736 8.47378C16.98 8.60194 17.1559 8.63978 17.2507 8.6398C17.4444 8.63972 17.6412 8.55652 17.7751 8.41812L17.7868 8.4064L20.9509 5.25015C21.2302 4.97183 21.6642 4.92063 22.0007 5.12613C23.0244 5.75204 23.1711 6.96575 23.1364 7.81753C23.0991 8.73421 22.8421 9.66216 22.6286 10.2257C21.7186 12.6284 19.4804 14.3524 16.9226 14.6261C15.9707 14.7279 15.0121 14.627 14.1061 14.34L5.89814 22.4377C4.9587 23.3646 3.44991 23.3755 2.49677 22.463L1.61005 21.6134C0.623826 20.6692 0.607197 19.1001 1.57392 18.1359L9.66767 10.0646C9.33544 9.12977 9.20621 8.13123 9.29951 7.13687C9.54221 4.55277 11.2788 2.283 13.7106 1.36636C14.2738 1.15419 15.2419 0.884472 16.1833 0.860503ZM16.2272 2.57046C15.5374 2.58797 14.7651 2.79607 14.3142 2.96597C12.4918 3.6527 11.184 5.36538 11.0026 7.29703C10.9184 8.19456 11.0725 9.09727 11.4479 9.91519C11.5973 10.2405 11.5274 10.6253 11.2741 10.8781L2.78193 19.3468C2.49484 19.6332 2.4998 20.0976 2.79267 20.3781L3.67841 21.2277C3.96319 21.5003 4.41642 21.4977 4.69697 21.2209L13.2868 12.7462L13.3835 12.6642C13.6211 12.491 13.9351 12.4504 14.2126 12.5646C15.01 12.893 15.8791 13.0179 16.7399 12.9259C18.659 12.7206 20.348 11.4174 21.029 9.61929C21.1987 9.17125 21.3997 8.42954 21.4274 7.7482C21.4361 7.53593 21.4265 7.35849 21.406 7.21109L18.9938 9.61734L18.9929 9.61636C18.5371 10.0818 17.9023 10.3497 17.2507 10.3498C16.7811 10.3497 16.3255 10.1899 15.9401 9.98746C15.5458 9.78022 15.1682 9.49867 14.8405 9.18668C14.5133 8.87503 14.2158 8.51328 13.9948 8.13199C13.78 7.76127 13.6013 7.3097 13.6013 6.83414C13.6014 6.19665 13.8527 5.58461 14.2995 5.13003L16.819 2.61539C16.6702 2.58318 16.4772 2.56414 16.2272 2.57046Z" fill="black"/>
</svg>
