<svg width="24" height="24" viewBox="0 0 24 24" fill="none" xmlns="http://www.w3.org/2000/svg">
<path d="M5.55859 12.1514C6.19901 12.2183 6.71191 12.773 6.71191 13.4287C6.71171 14.0843 6.19891 14.6383 5.55859 14.7051L5.42871 14.7119L5.30762 14.7061C4.70599 14.6476 4.21417 14.159 4.15137 13.5586L4.14453 13.4287L4.15137 13.2988C4.21495 12.6885 4.72189 12.1937 5.33691 12.1484C5.36705 12.1452 5.39773 12.1445 5.42871 12.1445L5.55859 12.1514Z" fill="black"/>
<path d="M20.4287 10.1445C21.1282 10.1445 21.7118 10.7293 21.7119 11.4287C21.7118 12.0966 21.1795 12.6567 20.5225 12.7061C20.4917 12.7094 20.4604 12.7119 20.4287 12.7119C20.3977 12.7119 20.3671 12.7103 20.3369 12.707C19.722 12.6618 19.2151 12.1688 19.1514 11.5586L19.1445 11.4287L19.1514 11.2988C19.2182 10.6584 19.773 10.1446 20.4287 10.1445Z" fill="black"/>
<path d="M10.5576 9.15137C11.1983 9.21798 11.7119 9.77277 11.7119 10.4287C11.7117 11.0845 11.1982 11.6386 10.5576 11.7051L10.4287 11.7119L10.3066 11.7061C9.70535 11.6473 9.21415 11.1588 9.15137 10.5586L9.14453 10.4287L9.15137 10.2988C9.215 9.68805 9.72232 9.19318 10.3379 9.14844C10.3676 9.14531 10.3982 9.14453 10.4287 9.14453L10.5576 9.15137Z" fill="black"/>
<path d="M6.55859 5.15137C7.19897 5.21831 7.71191 5.77301 7.71191 6.42871C7.71184 7.08435 7.19892 7.63823 6.55859 7.70508L6.42871 7.71191C5.773 7.71191 5.21823 7.19902 5.15137 6.55859L5.14453 6.42871L5.15137 6.29883C5.2181 5.65827 5.7729 5.14453 6.42871 5.14453L6.55859 5.15137Z" fill="black"/>
<path d="M16.5576 5.15137C17.1983 5.21797 17.7119 5.77276 17.7119 6.42871C17.7118 7.0846 17.1983 7.63857 16.5576 7.70508L16.4287 7.71191L16.3066 7.70605C15.7053 7.64724 15.214 7.1589 15.1514 6.55859L15.1445 6.42871L15.1514 6.29883C15.2181 5.65828 15.7729 5.14453 16.4287 5.14453L16.5576 5.15137Z" fill="black"/>
<path fill-rule="evenodd" clip-rule="evenodd" d="M20.2041 1.71582C22.299 1.71602 23.9978 3.41489 23.998 5.50977V15.0615C23.9978 17.1564 22.299 18.8543 20.2041 18.8545H20.0635L22.8906 21.6816C23.2241 22.0156 23.2243 22.5569 22.8906 22.8906C22.5569 23.2244 22.0156 23.2241 21.6816 22.8906L17.6455 18.8545H3.7959C1.70094 18.8543 0.00219006 17.1565 0.00195312 15.0615V5.50977C0.00224806 3.41487 1.70097 1.71598 3.7959 1.71582H20.2041ZM3.7959 3.42676C2.64538 3.42692 1.71319 4.35928 1.71289 5.50977V15.0615C1.71313 16.2121 2.64534 17.1444 3.7959 17.1445H15.9355L12.2529 13.4619C11.919 13.128 11.919 12.5868 12.2529 12.2529C12.5868 11.9191 13.128 11.9191 13.4619 12.2529L18.3535 17.1445H20.2041C21.3546 17.1443 22.2878 16.212 22.2881 15.0615V5.50977C22.2878 4.3593 21.3546 3.42696 20.2041 3.42676H3.7959Z" fill="black"/>
</svg>
