<svg width="25" height="24" viewBox="0 0 25 24" fill="none" xmlns="http://www.w3.org/2000/svg">
<path fill-rule="evenodd" clip-rule="evenodd" d="M13.3506 6.00195C14.2636 6.00234 15.0039 6.74308 15.0039 7.65625V9.04785H16.3965C17.3095 9.04831 18.0498 9.78902 18.0498 10.7021V13.2988C18.0495 14.2117 17.3093 14.9517 16.3965 14.9521H15.0039V16.3447C15.0035 17.2577 14.2633 17.9977 13.3506 17.998H10.7539C9.84083 17.998 9.1 17.2579 9.09961 16.3447V14.9521H7.70801C6.79481 14.9521 6.05402 14.212 6.05371 13.2988V10.7021C6.05371 9.78876 6.79462 9.04789 7.70801 9.04785H9.09961V7.65625C9.09964 6.74284 9.84052 6.00195 10.7539 6.00195H13.3506ZM10.8096 9.90332C10.8094 10.3752 10.4269 10.7575 9.95508 10.7578H7.76465V13.2422H9.95508C10.4271 13.2425 10.8096 13.6256 10.8096 14.0977V16.2881H13.2939V14.0977C13.2939 13.6255 13.6772 13.2422 14.1494 13.2422H16.3398V10.7578H14.1494C13.6773 10.7578 13.2941 10.3754 13.2939 9.90332V7.71289H10.8096V9.90332Z" fill="black"/>
<path fill-rule="evenodd" clip-rule="evenodd" d="M11.998 0.00195312C15.1801 0.00195313 18.2324 1.26657 20.4824 3.5166C22.7323 5.76655 23.996 8.81817 23.9961 12C23.996 15.1819 22.7324 18.2344 20.4824 20.4844C18.2324 22.7343 15.18 23.998 11.998 23.998C8.8163 23.9979 5.76454 22.7342 3.51465 20.4844C1.26467 18.2344 6.46825e-05 15.1819 0 12C7.34936e-05 8.81819 1.26483 5.76655 3.51465 3.5166C5.76456 1.26669 8.81621 0.00209174 11.998 0.00195312ZM11.998 1.71289C9.26973 1.71303 6.65286 2.79636 4.72363 4.72559C2.7945 6.65484 1.71101 9.27171 1.71094 12C1.711 14.7283 2.79452 17.3452 4.72363 19.2744C6.65286 21.2036 9.26973 22.2879 11.998 22.2881C14.7264 22.2881 17.3431 21.2036 19.2725 19.2744C21.2017 17.3451 22.2861 14.7284 22.2861 12C22.2861 9.27159 21.2017 6.65487 19.2725 4.72559C17.3431 2.79641 14.7264 1.71289 11.998 1.71289Z" fill="black"/>
</svg>
