<svg width="24" height="24" viewBox="0 0 24 24" fill="none" xmlns="http://www.w3.org/2000/svg">
<path d="M12 6.00195C12.4722 6.00195 12.8555 6.38522 12.8555 6.85742V11.1445H17.1436C17.6155 11.1448 17.998 11.528 17.998 12C17.998 12.472 17.6155 12.8552 17.1436 12.8555H12.8555V17.1436C12.8551 17.6155 12.472 17.998 12 17.998C11.5281 17.998 11.1449 17.6154 11.1445 17.1436V12.8555H6.85742C6.38522 12.8555 6.00195 12.4722 6.00195 12C6.00195 11.5278 6.38522 11.1445 6.85742 11.1445H11.1445V6.85742C11.1445 6.38526 11.5279 6.00202 12 6.00195Z" fill="black"/>
<path fill-rule="evenodd" clip-rule="evenodd" d="M12 0.00195312C18.6262 0.0020191 23.9979 5.37394 23.998 12C23.9979 18.6262 18.6262 23.998 12 23.998C5.37398 23.9979 0.00208508 18.6261 0.00195312 12C0.00210413 5.37399 5.37399 0.00210413 12 0.00195312ZM12 1.71289C6.3184 1.71304 1.71304 6.3184 1.71289 12C1.71302 17.6817 6.31838 22.2879 12 22.2881C17.6818 22.288 22.288 17.6818 22.2881 12C22.2879 6.31834 17.6818 1.71296 12 1.71289Z" fill="black"/>
</svg>
