<svg width="24" height="24" viewBox="0 0 24 24" fill="none" xmlns="http://www.w3.org/2000/svg">
<path d="M12 12.0014C12.4721 12.0014 12.8553 12.3848 12.8555 12.8568V17.9994C12.8555 18.4716 12.4722 18.8549 12 18.8549C11.5278 18.8549 11.1445 18.4716 11.1445 17.9994V12.8568C11.1447 12.3848 11.5279 12.0014 12 12.0014Z" fill="black"/>
<path d="M15.4287 12.0014C15.9008 12.0014 16.284 12.3848 16.2842 12.8568V17.9994C16.2842 18.4716 15.9009 18.8549 15.4287 18.8549C14.9565 18.8549 14.5732 18.4716 14.5732 17.9994V12.8568C14.5734 12.3848 14.9566 12.0014 15.4287 12.0014Z" fill="black"/>
<path d="M18.8574 12.0014C19.3294 12.0015 19.7127 12.3848 19.7129 12.8568V17.9994C19.7129 18.4715 19.3295 18.8547 18.8574 18.8549C18.3852 18.8549 18.002 18.4716 18.002 17.9994V12.8568C18.0021 12.3848 18.3853 12.0014 18.8574 12.0014Z" fill="black"/>
<path d="M6 12.0014C6.91462 12.0014 7.65914 12.7197 7.70703 13.6224C7.71026 13.6526 7.71289 13.6832 7.71289 13.7142C7.71289 13.7456 7.71032 13.7765 7.70703 13.807C7.66047 14.678 6.96537 15.3727 6.09473 15.4203C6.06367 15.4237 6.03197 15.4261 6 15.4262C5.96795 15.4262 5.93641 15.4237 5.90527 15.4203C5.00399 15.3709 4.28726 14.6278 4.28711 13.7142C4.28726 12.7689 5.05461 12.0015 6 12.0014Z" fill="black"/>
<path fill-rule="evenodd" clip-rule="evenodd" d="M21.4287 8.57265C22.8473 8.57278 23.9977 9.72341 23.998 11.142V19.7142C23.9978 21.133 22.8474 22.2835 21.4287 22.2836H2.57129C1.15264 22.2834 0.00217911 21.1329 0.00195312 19.7142V11.142C0.00233084 9.72346 1.15274 8.57287 2.57129 8.57265H21.4287ZM2.57129 10.2836C2.09714 10.2838 1.71327 10.6679 1.71289 11.142V19.7142C1.71312 20.1885 2.09705 20.5724 2.57129 20.5726H21.4287C21.903 20.5725 22.2879 20.1885 22.2881 19.7142V11.142C22.2877 10.6678 21.9029 10.2837 21.4287 10.2836H2.57129Z" fill="black"/>
<path d="M5.8916 0.188856C6.26023 -0.105445 6.79793 -0.0456257 7.09277 0.322645C7.6393 1.00584 7.84407 1.68799 7.75586 2.37245C7.67685 2.98469 7.36479 3.5085 7.16797 3.85292C6.93653 4.25794 6.81925 4.48491 6.79102 4.70253C6.77222 4.84819 6.78261 5.07739 7.09277 5.46522C7.38756 5.83376 7.32816 6.3723 6.95996 6.66737C6.59126 6.96235 6.05282 6.90224 5.75781 6.53358C5.21123 5.85031 5.00738 5.16835 5.0957 4.48378C5.17486 3.87154 5.48684 3.34859 5.68359 3.00429C5.91518 2.59901 6.03145 2.37147 6.05957 2.1537C6.07832 2.00796 6.06797 1.77874 5.75781 1.391C5.46285 1.02227 5.52287 0.483832 5.8916 0.188856Z" fill="black"/>
<path d="M12.001 0.188856C12.3696 -0.105545 12.9073 -0.0456417 13.2021 0.322645C13.7487 1.00587 13.9534 1.68795 13.8652 2.37245C13.7862 2.98476 13.4742 3.5085 13.2773 3.85292C13.0459 4.25795 12.9286 4.4849 12.9004 4.70253C12.8816 4.8482 12.892 5.07743 13.2021 5.46522C13.497 5.8338 13.4377 6.37231 13.0693 6.66737C12.7006 6.96235 12.1622 6.90231 11.8672 6.53358C11.3206 5.8503 11.1167 5.16833 11.2051 4.48378C11.2842 3.87153 11.5962 3.34859 11.793 3.00429C12.0246 2.59894 12.1408 2.37149 12.1689 2.1537C12.1877 2.00796 12.1774 1.77881 11.8672 1.391C11.5723 1.02228 11.6323 0.483826 12.001 0.188856Z" fill="black"/>
<path d="M18.1123 0.188856C18.4809 -0.105545 19.0186 -0.0456417 19.3135 0.322645C19.8601 1.00587 20.0648 1.68795 19.9766 2.37245C19.8976 2.98476 19.5855 3.5085 19.3887 3.85292C19.1572 4.25795 19.04 4.4849 19.0117 4.70253C18.9929 4.8482 19.0034 5.07743 19.3135 5.46522C19.6083 5.8338 19.549 6.37231 19.1807 6.66737C18.8119 6.96235 18.2735 6.90231 17.9785 6.53358C17.432 5.8503 17.2281 5.16833 17.3164 4.48378C17.3956 3.87153 17.7075 3.34859 17.9043 3.00429C18.1359 2.59894 18.2522 2.37149 18.2803 2.1537C18.299 2.00796 18.2888 1.77881 17.9785 1.391C17.6836 1.02228 17.7436 0.483826 18.1123 0.188856Z" fill="black"/>
</svg>
