<svg width="24" height="24" viewBox="0 0 24 24" fill="none" xmlns="http://www.w3.org/2000/svg">
<path d="M12 22.2873C12.4721 22.2874 12.8545 22.6706 12.8545 23.1428C12.8545 23.615 12.4721 23.9982 12 23.9983H8.57129C8.09921 23.9981 7.71583 23.6149 7.71582 23.1428C7.71582 22.6707 8.0992 22.2875 8.57129 22.2873H12Z" fill="black"/>
<path d="M10.2861 2.57249C10.758 2.57266 11.1404 2.95607 11.1406 3.42796C11.1406 3.90007 10.7582 4.28327 10.2861 4.28343C7.02363 4.28343 4.28444 7.02293 4.28418 10.2854V16.2854C4.28413 16.908 4.11066 17.4957 3.8125 18.0032L16.7588 18.0012C16.4609 17.4947 16.2881 16.9078 16.2881 16.2854V11.9993C16.2884 11.5273 16.6716 11.1448 17.1436 11.1448C17.6153 11.1451 17.9977 11.5275 17.998 11.9993V16.2854C17.9982 17.2138 18.7864 18.0012 19.7148 18.0012C20.1867 18.0014 20.5691 18.3849 20.5693 18.8567C20.5693 19.3287 20.1868 19.7109 19.7148 19.7112L0.860352 19.7141C0.38824 19.7141 0.005001 19.3317 0.00488281 18.8596C0.00502569 18.3876 0.388327 18.0043 0.860352 18.0041C1.78613 18.0036 2.57406 17.2155 2.57422 16.2854V10.2854C2.57448 6.07852 6.07922 2.57249 10.2861 2.57249Z" fill="black"/>
<path d="M22.499 0.293197C22.8099 -0.0617901 23.3508 -0.0974024 23.7061 0.213119C24.0613 0.524044 24.0969 1.06482 23.7861 1.42015L17.7861 8.2766C17.6303 8.45468 17.4074 8.56071 17.1709 8.56859C16.9346 8.57631 16.7053 8.48575 16.5381 8.31859L13.9668 5.7473C13.6333 5.41337 13.633 4.87112 13.9668 4.53734C14.3005 4.20404 14.842 4.2042 15.1758 4.53734L17.1006 6.46214L22.499 0.293197Z" fill="black"/>
</svg>
