<svg width="24" height="24" viewBox="0 0 24 24" fill="none" xmlns="http://www.w3.org/2000/svg">
<path d="M12 22.2878C12.4721 22.2879 12.8545 22.6711 12.8545 23.1432C12.8543 23.6153 12.472 23.9986 12 23.9987H8.57129C8.0993 23.9986 7.71599 23.6152 7.71582 23.1432C7.71582 22.6711 8.0992 22.2879 8.57129 22.2878H12Z" fill="black"/>
<path d="M10.2861 2.57293C10.7581 2.5731 11.1405 2.95638 11.1406 3.4284C11.1406 3.90051 10.7582 4.28371 10.2861 4.28387C7.02353 4.28387 4.28428 7.02324 4.28418 10.2858V16.2858C4.28413 16.9085 4.11074 17.4961 3.8125 18.0036L16.7588 18.0016C16.4608 17.495 16.2881 16.9083 16.2881 16.2858V11.9997C16.2883 11.5276 16.6715 11.1452 17.1436 11.1452C17.6154 11.1455 17.9979 11.5278 17.998 11.9997V16.2858C17.9982 17.2142 18.7864 18.0016 19.7148 18.0016C20.1868 18.0019 20.5692 18.3852 20.5693 18.8571C20.5693 19.3291 20.1868 19.7114 19.7148 19.7116L0.860352 19.7145C0.38824 19.7145 0.005001 19.3322 0.00488281 18.86C0.00487273 18.3879 0.388233 18.0047 0.860352 18.0046C1.78613 18.004 2.57406 17.2159 2.57422 16.2858V10.2858C2.57432 6.07884 6.07913 2.57293 10.2861 2.57293Z" fill="black"/>
<path d="M14.8242 1.11004C15.1581 0.776145 15.6993 0.776145 16.0332 1.11004L18.8574 3.93426L21.6816 1.11004C22.0156 0.776283 22.5568 0.776191 22.8906 1.11004C23.2243 1.44391 23.2243 1.98517 22.8906 2.31903L20.0664 5.14325L22.8906 7.96746C23.2242 8.30139 23.2244 8.84265 22.8906 9.17645C22.5568 9.51021 22.0156 9.51003 21.6816 9.17645L18.8574 6.35223L16.0332 9.17645C15.6993 9.51012 15.1581 9.51012 14.8242 9.17645C14.4904 8.84261 14.4905 8.30138 14.8242 7.96746L17.6484 5.14325L14.8242 2.31903C14.4903 1.98514 14.4904 1.44394 14.8242 1.11004Z" fill="black"/>
</svg>
