<svg width="24" height="24" viewBox="0 0 24 24" fill="none" xmlns="http://www.w3.org/2000/svg">
<path fill-rule="evenodd" clip-rule="evenodd" d="M13.3447 6.85938C15.4588 6.85959 17.2567 8.40267 17.5781 10.4922L18.7334 18.002H19.7139C21.1327 18.002 22.283 19.1525 22.2832 20.5713V21.4287C22.2831 22.8476 21.1328 23.998 19.7139 23.998H4.28516C2.86647 23.9978 1.71595 22.8475 1.71582 21.4287V20.5713C1.71605 19.1526 2.86653 18.0022 4.28516 18.002H5.2666L6.42188 10.4922C6.74334 8.40267 8.54122 6.85959 10.6553 6.85938H13.3447ZM4.28516 19.7129C3.81091 19.7131 3.42698 20.097 3.42676 20.5713V21.4287C3.42689 21.903 3.81086 22.2879 4.28516 22.2881H19.7139C20.1884 22.2881 20.5731 21.9032 20.5732 21.4287V20.5713C20.573 20.0969 20.1883 19.7129 19.7139 19.7129H4.28516ZM10.6553 8.57031C9.38528 8.57053 8.3055 9.49671 8.1123 10.752L6.99609 18.002H11.1445V14.5713C11.1447 14.0992 11.5279 13.7158 12 13.7158C12.4721 13.7158 12.8553 14.0992 12.8555 14.5713V18.002H17.0039L15.8877 10.752C15.6945 9.49671 14.6147 8.57053 13.3447 8.57031H10.6553Z" fill="black"/>
<path d="M1.9668 2.82422C2.3007 2.49032 2.84188 2.49032 3.17578 2.82422L5.60059 5.24805C5.93436 5.58196 5.93444 6.12415 5.60059 6.45801C5.26672 6.79174 4.72449 6.79174 4.39062 6.45801L1.9668 4.0332C1.63294 3.69935 1.63302 3.15813 1.9668 2.82422Z" fill="black"/>
<path d="M20.8232 2.82422C21.1571 2.49032 21.6993 2.49032 22.0332 2.82422C22.3667 3.15807 22.3668 3.6994 22.0332 4.0332L19.6084 6.45801C19.2746 6.79145 18.7332 6.79145 18.3994 6.45801C18.0656 6.12415 18.0656 5.58196 18.3994 5.24805L20.8232 2.82422Z" fill="black"/>
<path d="M12 0.00195312C12.4722 0.00195312 12.8555 0.385218 12.8555 0.857422V4.28613C12.8553 4.75816 12.4721 5.14062 12 5.14062C11.5279 5.14062 11.1447 4.75816 11.1445 4.28613V0.857422C11.1445 0.385218 11.5278 0.00195312 12 0.00195312Z" fill="black"/>
</svg>
