<svg width="24" height="24" viewBox="0 0 24 24" fill="none" xmlns="http://www.w3.org/2000/svg">
<path fill-rule="evenodd" clip-rule="evenodd" d="M12 6.85938C16.2592 6.85953 19.7119 10.3131 19.7119 14.5723V18.002H19.7139C21.1327 18.002 22.283 19.1525 22.2832 20.5713V21.4287C22.2831 22.8476 21.1328 23.998 19.7139 23.998H4.28516C2.86658 23.9977 1.71595 22.8474 1.71582 21.4287V20.5713C1.71605 19.1527 2.86664 18.0023 4.28516 18.002H4.28711V14.5723C4.28711 10.313 7.74081 6.85951 12 6.85938ZM4.28516 19.7129C3.81103 19.7132 3.42698 20.0971 3.42676 20.5713V21.4287C3.42689 21.903 3.81097 22.2877 4.28516 22.2881H19.7139C20.1884 22.2881 20.5731 21.9032 20.5732 21.4287V20.5713C20.573 20.0969 20.1883 19.7129 19.7139 19.7129H4.28516ZM12 8.57031C8.68522 8.57044 5.99805 11.2575 5.99805 14.5723V18.002H11.1445V14.5713C11.1447 14.0992 11.5279 13.7158 12 13.7158C12.4721 13.7158 12.8553 14.0992 12.8555 14.5713V18.002H18.002V14.5723C18.002 11.2575 15.3148 8.57046 12 8.57031Z" fill="black"/>
<path d="M1.9668 2.82422C2.3007 2.49032 2.84188 2.49032 3.17578 2.82422L5.60059 5.24805C5.93448 5.58195 5.93448 6.12411 5.60059 6.45801C5.26667 6.79166 4.72444 6.79182 4.39062 6.45801L1.9668 4.0332C1.63298 3.69939 1.63314 3.15814 1.9668 2.82422Z" fill="black"/>
<path d="M20.8232 2.82422C21.1571 2.49032 21.6993 2.49032 22.0332 2.82422C22.3668 3.15806 22.3668 3.69936 22.0332 4.0332L19.6084 6.45801C19.2745 6.79137 18.7332 6.79153 18.3994 6.45801C18.0656 6.12419 18.0658 5.58197 18.3994 5.24805L20.8232 2.82422Z" fill="black"/>
<path d="M12 0.00195312C12.4722 0.00195312 12.8555 0.385218 12.8555 0.857422V4.28613C12.8553 4.75816 12.4721 5.14062 12 5.14062C11.5279 5.14062 11.1447 4.75816 11.1445 4.28613V0.857422C11.1445 0.385218 11.5278 0.00195312 12 0.00195312Z" fill="black"/>
</svg>
