<svg width="24" height="24" viewBox="0 0 24 24" fill="none" xmlns="http://www.w3.org/2000/svg">
<path d="M18.0115 15.8276C18.4613 15.8306 18.8923 16.0114 19.2107 16.3296C19.5106 16.6296 19.6848 17.0301 19.7068 17.4517C19.7098 17.4809 19.7126 17.5105 19.7126 17.5405C19.7126 17.9944 19.5315 18.4295 19.2107 18.7505C18.9122 19.049 18.5147 19.2231 18.0955 19.2466C18.0928 19.2469 18.0903 19.2483 18.0876 19.2485C18.0591 19.2515 18.0301 19.2524 18.0007 19.2525C17.9714 19.2524 17.9414 19.2514 17.9128 19.2485C17.9099 19.2482 17.907 19.2469 17.9041 19.2466C17.4851 19.2229 17.0881 19.0488 16.7898 18.7505C16.4689 18.4295 16.2879 17.9944 16.2878 17.5405C16.2879 17.0866 16.4688 16.6506 16.7898 16.3296C17.108 16.0116 17.5386 15.8309 17.988 15.8276H18.0115Z" fill="black"/>
<path fill-rule="evenodd" clip-rule="evenodd" d="M18.3562 11.0845C18.7017 11.0856 19.0392 11.1913 19.324 11.3872C19.6085 11.5831 19.8273 11.8606 19.9519 12.1821L20.2136 12.8569L20.9499 13.2808L21.6716 13.1714L21.6853 13.1694C22.0224 13.1237 22.366 13.1789 22.6716 13.3286C22.9393 13.4597 23.1677 13.6581 23.3347 13.9028L23.4021 14.0112L23.4041 14.0151L23.7439 14.6089C23.9195 14.9077 24.0008 15.2535 23.9763 15.6001C23.9519 15.9439 23.8236 16.2725 23.6091 16.5435L23.6101 16.5444L23.1638 17.1118V17.9624L23.6208 18.5298L23.6238 18.5337C23.8399 18.8048 23.9693 19.1357 23.9939 19.4819L23.9978 19.6118C23.9964 19.9103 23.9158 20.2037 23.7654 20.4634L23.7664 20.4644L23.4216 21.0679L23.4197 21.0718C23.2492 21.3666 22.9939 21.6028 22.6882 21.7525C22.3822 21.9025 22.0396 21.9583 21.7029 21.9126L21.6892 21.9116L20.9666 21.8003L20.2302 22.2241L19.9695 22.8999C19.8449 23.2221 19.6256 23.4998 19.3406 23.6958L19.3396 23.6948C19.0551 23.8903 18.7183 23.9965 18.3728 23.9976H17.6443C17.2983 23.9965 16.9603 23.8908 16.6755 23.6948C16.3914 23.4991 16.1721 23.2222 16.0476 22.8999L15.7859 22.2241L15.0496 21.8003L14.3289 21.9107L14.3142 21.9136C13.9774 21.9592 13.6339 21.9035 13.3279 21.7534C13.0224 21.6036 12.7686 21.3658 12.5984 21.0718L12.5955 21.0679L12.2507 20.4644L12.2517 20.4634C12.0798 20.1665 12 19.8252 12.0242 19.4829C12.0487 19.1369 12.177 18.8052 12.3933 18.5337L12.8367 17.9683V17.1187L12.3796 16.5523L12.3767 16.5484C12.1606 16.2769 12.0311 15.9464 12.0066 15.6001C11.9822 15.254 12.0631 14.9081 12.239 14.6089L12.5789 14.0151L12.5808 14.0103C12.7513 13.7159 13.0058 13.4783 13.3113 13.3286C13.5786 13.1977 13.875 13.1388 14.1707 13.1567L14.2976 13.1694L14.3113 13.1714L15.0349 13.2817L15.7869 12.855L16.0476 12.1821C16.1722 11.8602 16.3913 11.5829 16.6755 11.3872C16.9604 11.1911 17.2985 11.0855 17.6443 11.0845H18.3562ZM17.6453 12.7964C17.6443 12.7971 17.6437 12.7983 17.6433 12.7993L17.6423 12.8003L17.2722 13.7573C17.201 13.9409 17.0684 14.0946 16.8972 14.1919L15.6218 14.9155C15.4548 15.0103 15.2599 15.0461 15.0701 15.0171L14.0662 14.8638L14.0632 14.8648C14.0622 14.8653 14.0609 14.8667 14.0603 14.8677L13.7185 15.4663L13.7126 15.4761V15.4819L14.3572 16.2808C14.4796 16.4327 14.5466 16.6228 14.5466 16.8179V18.2651C14.5466 18.4565 14.4821 18.6429 14.364 18.7935L13.7351 19.5942L13.7312 19.5991C13.7305 19.6 13.7295 19.6017 13.7292 19.603L13.7302 19.6069L13.7361 19.6157L14.0789 20.2153L14.0808 20.2173C14.0814 20.2176 14.0826 20.2183 14.0837 20.2183L15.0876 20.0659L15.2312 20.0562C15.375 20.0586 15.5173 20.097 15.6433 20.1694L16.9011 20.8931L17.0203 20.9761C17.132 21.0686 17.2192 21.189 17.2722 21.3257L17.6423 22.2827L17.6433 22.2837C17.6437 22.2846 17.6443 22.2858 17.6453 22.2866C17.6464 22.2874 17.6479 22.2876 17.6492 22.2876H18.3679C18.369 22.2876 18.3706 22.2875 18.3718 22.2866L18.3748 22.2827L18.7449 21.3257C18.8155 21.1435 18.9466 20.9905 19.116 20.8931L20.3748 20.1694L20.5046 20.1089C20.6396 20.0591 20.7857 20.044 20.9294 20.0659L21.9333 20.2183C21.9347 20.2183 21.9357 20.2186 21.9363 20.2183L21.9392 20.2153L22.282 19.6157L22.2869 19.6069C22.2873 19.606 22.2879 19.6044 22.2878 19.603L22.2869 19.6001L21.6433 18.8023C21.5208 18.6503 21.4539 18.4603 21.4539 18.2651V16.8179C21.4539 16.6266 21.5183 16.4401 21.6365 16.2896L22.2654 15.4878L22.2693 15.4829C22.2698 15.4822 22.2701 15.4806 22.2703 15.479C22.2702 15.4781 22.27 15.4764 22.2693 15.4751L22.2644 15.4663L21.9216 14.8667L21.9197 14.8648C21.9186 14.8643 21.9161 14.8636 21.9148 14.8638L20.9128 15.0171C20.7213 15.0463 20.5251 15.0092 20.3572 14.9126L19.0994 14.189C18.9302 14.0916 18.7989 13.9393 18.7283 13.7573L18.3572 12.8003C18.3565 12.7989 18.3551 12.797 18.3542 12.7964L18.3503 12.7954H17.6492L17.6453 12.7964Z" fill="black"/>
<path d="M11.1433 2.57277C14.9028 2.57292 18.17 4.6789 19.8308 7.77101C20.0541 8.18677 19.8977 8.7056 19.4822 8.92921C19.0663 9.15259 18.5475 8.99636 18.324 8.58058C16.9492 6.02108 14.2483 4.28386 11.1433 4.2837C6.64507 4.2837 2.99896 7.93004 2.99878 12.4282C2.99878 16.395 5.83485 19.7007 9.59057 20.4253C10.0539 20.5149 10.3575 20.9639 10.2683 21.4273C10.1788 21.8906 9.73071 22.194 9.26733 22.105C4.72194 21.2283 1.28784 17.2301 1.28784 12.4282C1.28802 6.98563 5.70066 2.57277 11.1433 2.57277Z" fill="black"/>
<path d="M11.572 7.28761C12.044 7.28791 12.4265 7.67106 12.4265 8.14308V12.4292C12.4262 12.901 12.0438 13.2834 11.572 13.2837H8.14331C7.67129 13.2837 7.28815 12.9012 7.28784 12.4292C7.28784 11.957 7.6711 11.5737 8.14331 11.5737H10.7165V8.14308C10.7165 7.67087 11.0998 7.28761 11.572 7.28761Z" fill="black"/>
<path d="M4.18921 0.112805C4.60008 -0.119582 5.12166 0.0253251 5.35425 0.436047C5.58675 0.847004 5.44192 1.36854 5.031 1.60109C3.6843 2.36303 2.49288 3.36957 1.51831 4.56007C1.21917 4.9253 0.680514 4.97924 0.315183 4.68019C-0.0498098 4.38101 -0.102943 3.84231 0.196042 3.47706C1.30368 2.12404 2.65722 0.979555 4.18921 0.112805Z" fill="black"/>
<path d="M16.9314 0.436047C17.1639 0.0253274 17.6856 -0.119452 18.0964 0.112805C19.6285 0.979579 20.983 2.12392 22.0906 3.47706C22.3894 3.84237 22.3355 4.3811 21.9705 4.68019C21.6051 4.97924 21.0664 4.92535 20.7673 4.56007C19.7929 3.36958 18.6014 2.36304 17.2546 1.60109C16.8438 1.36852 16.699 0.846954 16.9314 0.436047Z" fill="black"/>
</svg>
