<svg width="24" height="24" viewBox="0 0 24 24" fill="none" xmlns="http://www.w3.org/2000/svg">
<path d="M12.031 0.00292969C12.0369 0.00314096 12.0427 0.00357493 12.0486 0.00390625C12.2737 0.0165442 12.4753 0.115819 12.6208 0.269531L19.4617 7.11035C19.7951 7.44424 19.7953 7.98557 19.4617 8.31934C19.1277 8.65287 18.5855 8.65311 18.2517 8.31934L12.8552 2.92285V23.1436C12.8549 23.6155 12.4717 23.998 11.9997 23.998C11.5279 23.9979 11.1446 23.6154 11.1443 23.1436V2.9209L5.74682 8.31934C5.41293 8.65269 4.87158 8.65293 4.53784 8.31934C4.20422 7.98559 4.20448 7.44425 4.53784 7.11035L11.3855 0.261719C11.5157 0.127343 11.6899 0.0360697 11.8845 0.00976562L11.8884 0.00878906C11.9249 0.00403758 11.962 0.00196315 11.9997 0.00195312C12.0101 0.00195312 12.0207 0.00256161 12.031 0.00292969Z" fill="black"/>
</svg>
