<svg width="24" height="24" viewBox="0 0 24 24" fill="none" xmlns="http://www.w3.org/2000/svg">
<path d="M19.1666 14.1999C19.5294 13.8977 20.0685 13.9475 20.3707 14.3102C20.6729 14.6729 20.624 15.212 20.2614 15.5143L12.5475 21.9421C12.2304 22.2063 11.7698 22.2063 11.4528 21.9421L3.73889 15.5143C3.37629 15.2122 3.32669 14.673 3.62854 14.3102C3.93072 13.9477 4.46993 13.898 4.83264 14.1999L11.9996 20.1715L19.1666 14.1999Z" fill="black"/>
<path d="M11.5778 1.97135C11.8826 1.79797 12.27 1.8262 12.5475 2.05729L20.2614 8.486C20.6241 8.78826 20.6729 9.32735 20.3707 9.6901C20.0684 10.0528 19.5294 10.1018 19.1666 9.79947L11.9996 3.82779L4.83264 9.79947C4.46988 10.1017 3.93082 10.0528 3.62854 9.6901C3.32662 9.32735 3.37627 8.78818 3.73889 8.486L11.4528 2.05729L11.5778 1.97135Z" fill="black"/>
</svg>
