<svg width="24" height="24" viewBox="0 0 24 24" fill="none" xmlns="http://www.w3.org/2000/svg">
<path fill-rule="evenodd" clip-rule="evenodd" d="M11.999 0.00195312C13.4179 0.00195312 14.5681 1.1525 14.5684 2.57129V9.57812C15.5668 9.93058 16.283 10.8811 16.2832 12V17.1436C16.2828 19.2159 14.8109 20.9434 12.8555 21.3398V23.1426C12.8555 23.6147 12.4721 23.9979 12 23.998C11.5278 23.998 11.1445 23.6148 11.1445 23.1426V21.3398C9.18889 20.9434 7.71618 19.216 7.71582 17.1436V12C7.716 10.8816 8.43195 9.93198 9.42969 9.5791V2.57129C9.42991 1.15273 10.5805 0.00231121 11.999 0.00195312ZM10.2852 11.1416C9.81092 11.1418 9.42698 11.5258 9.42676 12V17.1436C9.42717 18.5613 10.5736 19.7106 11.9902 19.7158H12.0088C13.4258 19.711 14.5728 18.5616 14.5732 17.1436V12C14.573 11.5256 14.1883 11.1416 13.7139 11.1416H10.2852ZM11.1406 5.1416V9.43066H12.8584V5.1416H11.1406ZM11.999 1.71289C11.5249 1.71325 11.1409 2.09713 11.1406 2.57129V3.43066H12.8584V2.57129C12.8582 2.09691 12.4735 1.71289 11.999 1.71289Z" fill="black"/>
</svg>
