<svg width="24" height="24" viewBox="0 0 24 24" fill="none" xmlns="http://www.w3.org/2000/svg">
<path fill-rule="evenodd" clip-rule="evenodd" d="M12 5.14453C12.9652 5.14453 13.8217 5.76306 14.127 6.67871L17.8115 17.7295C17.9608 18.1775 17.7185 18.6622 17.2705 18.8115C16.8226 18.9607 16.3378 18.7184 16.1885 18.2705L15.0498 14.8555H8.9502L7.81152 18.2705C7.66217 18.7184 7.17744 18.9608 6.72949 18.8115C6.28169 18.6621 6.03923 18.1774 6.18848 17.7295L9.87305 6.67871C10.1782 5.76311 11.0349 5.14465 12 5.14453ZM12 6.85547C11.7711 6.85559 11.5677 7.00161 11.4951 7.21875L9.51953 13.1455H14.4805L12.5049 7.21875C12.4323 7.00158 12.229 6.85547 12 6.85547Z" fill="black"/>
<path fill-rule="evenodd" clip-rule="evenodd" d="M12 0.00195312C18.626 0.00208508 23.9979 5.37398 23.998 12C23.9979 18.626 18.626 23.9979 12 23.998C5.37398 23.9979 0.00208508 18.626 0.00195312 12C0.00210413 5.37399 5.37399 0.00210413 12 0.00195312ZM12 1.71289C6.31839 1.71304 1.71304 6.31839 1.71289 12C1.71302 17.6816 6.31838 22.2879 12 22.2881C17.6816 22.288 22.288 17.6816 22.2881 12C22.2879 6.31838 17.6816 1.71302 12 1.71289Z" fill="black"/>
</svg>
