<svg width="24" height="24" viewBox="0 0 24 24" fill="none" xmlns="http://www.w3.org/2000/svg">
<path d="M11.9995 14.5732L12.0874 14.5771C12.1049 14.5789 12.122 14.5822 12.1392 14.585C12.1492 14.5866 12.1594 14.5878 12.1694 14.5898C12.181 14.5922 12.1922 14.5958 12.2036 14.5986C12.2175 14.602 12.2318 14.6043 12.2456 14.6084C12.2615 14.6132 12.2769 14.6193 12.2925 14.625C12.3048 14.6295 12.3174 14.6336 12.3296 14.6387L12.3306 14.6396C12.3564 14.6505 12.3819 14.6623 12.4067 14.6758C12.4867 14.7191 12.5585 14.7753 12.6206 14.8408L15.1753 17.3955C15.5092 17.7294 15.5092 18.2706 15.1753 18.6045C14.8414 18.938 14.3001 18.9383 13.9663 18.6045L12.855 17.4932V23.1426C12.8548 23.6147 12.4716 23.998 11.9995 23.998C11.5276 23.9978 11.1442 23.6145 11.144 23.1426V17.4932L10.0327 18.6045C9.6988 18.9382 9.15755 18.9383 8.82372 18.6045C8.48997 18.2707 8.49007 17.7294 8.82372 17.3955L11.3872 14.832C11.4472 14.7704 11.5161 14.7172 11.5923 14.6758C11.5955 14.674 11.5988 14.6726 11.602 14.6709C11.6378 14.6521 11.6748 14.6364 11.7124 14.623C11.726 14.6182 11.7395 14.6126 11.7534 14.6084C11.7675 14.6042 11.7821 14.6021 11.7964 14.5986C11.8075 14.5959 11.8183 14.5921 11.8296 14.5898C11.8318 14.5894 11.8342 14.5893 11.8364 14.5889C11.8471 14.5868 11.8579 14.5856 11.8686 14.584C11.9114 14.5774 11.955 14.5733 11.9995 14.5732Z" fill="black"/>
<path fill-rule="evenodd" clip-rule="evenodd" d="M19.2075 0.00195312C20.4038 0.00208647 21.4424 0.82847 21.7114 1.99414L23.4917 9.70801C23.863 11.3178 22.6398 12.8553 20.9878 12.8555H3.0122C1.36008 12.8554 0.137877 11.3178 0.509268 9.70801L2.28954 1.99414C2.55855 0.828418 3.59612 0.00201331 4.79247 0.00195312H19.2075ZM4.79247 1.71289C4.39239 1.71295 4.04552 1.98906 3.95556 2.37891L2.17528 10.0928C2.05117 10.6311 2.45975 11.1454 3.0122 11.1455H7.71532V1.71289H4.79247ZM9.42626 11.1455H14.5727V1.85742C14.5727 1.80809 14.5784 1.75994 14.5864 1.71289H9.42626V11.1455ZM16.271 1.71289C16.279 1.75991 16.2837 1.80812 16.2837 1.85742V11.1455H20.9878C21.5401 11.1453 21.9497 10.631 21.8257 10.0928L20.0454 2.37891C19.9554 1.98912 19.6075 1.71302 19.2075 1.71289H16.271Z" fill="black"/>
</svg>
