<svg width="24" height="24" viewBox="0 0 24 24" fill="none" xmlns="http://www.w3.org/2000/svg">
<path d="M19.7143 14.7158C20.1865 14.7159 20.5688 15.0991 20.5688 15.5713V21.4287C20.5687 22.8475 19.4184 23.998 17.9995 23.998H5.9995C4.58081 23.9978 3.43032 22.8474 3.43017 21.4287V15.5713C3.43017 15.0991 3.81343 14.7158 4.28563 14.7158C4.75782 14.7158 5.1411 15.0991 5.1411 15.5713V21.4287C5.14125 21.903 5.52522 22.2879 5.9995 22.2881H17.9995C18.474 22.2881 18.8587 21.9031 18.8589 21.4287V15.5713C18.8589 15.0991 19.2421 14.7158 19.7143 14.7158Z" fill="black"/>
<path fill-rule="evenodd" clip-rule="evenodd" d="M19.2075 0.00195312C20.4038 0.00208647 21.4424 0.828471 21.7114 1.99414L23.4917 9.70801C23.863 11.3178 22.6398 12.8553 20.9878 12.8555H3.0122C1.36008 12.8554 0.137877 11.3178 0.509268 9.70801L2.28954 1.99414C2.55855 0.828418 3.59612 0.00201237 4.79247 0.00195312H19.2075ZM4.79247 1.71289C4.39239 1.71295 4.04552 1.98906 3.95556 2.37891L2.17528 10.0928C2.05117 10.6311 2.45975 11.1454 3.0122 11.1455H7.7163V1.71289H4.79247ZM16.271 1.71289C16.279 1.75977 16.2837 1.80829 16.2837 1.85742V11.1455H20.9878C21.5401 11.1453 21.9497 10.631 21.8257 10.0928L20.0454 2.37891C19.9554 1.98911 19.6075 1.71302 19.2075 1.71289H16.271ZM9.42724 11.1455H14.5727V1.85742C14.5727 1.80826 14.5784 1.7598 14.5864 1.71289H9.42724V11.1455Z" fill="black"/>
</svg>
