<svg width="24" height="24" viewBox="0 0 24 24" fill="none" xmlns="http://www.w3.org/2000/svg">
<path d="M12.0005 14.5732C12.0457 14.5733 12.09 14.5772 12.1333 14.584C12.1453 14.5859 12.1575 14.5874 12.1694 14.5898C12.181 14.5922 12.1922 14.5958 12.2036 14.5986C12.2169 14.6019 12.2305 14.6045 12.2436 14.6084H12.2456C12.2622 14.6134 12.2782 14.62 12.2944 14.626C12.3051 14.6299 12.3161 14.6333 12.3267 14.6377C12.336 14.6415 12.3449 14.6462 12.354 14.6504C12.3717 14.6584 12.3895 14.6665 12.4067 14.6758C12.4833 14.7172 12.5526 14.7702 12.6128 14.832L15.1763 17.3955C15.5099 17.7294 15.51 18.2707 15.1763 18.6045C14.8425 18.9383 14.3012 18.9381 13.9673 18.6045L12.8559 17.4932V22.2881H17.9995C18.474 22.2881 18.8587 21.9031 18.8589 21.4287V15.5713C18.8589 15.0991 19.2421 14.7158 19.7143 14.7158C20.1865 14.7159 20.5688 15.0991 20.5688 15.5713V21.4287C20.5687 22.8475 19.4184 23.998 17.9995 23.998H5.9995C4.58081 23.9978 3.43032 22.8474 3.43017 21.4287V15.5713C3.43017 15.0991 3.81343 14.7158 4.28563 14.7158C4.75782 14.7158 5.1411 15.0991 5.1411 15.5713V21.4287C5.14125 21.903 5.52522 22.2879 5.9995 22.2881H11.145V17.4922L10.0327 18.6045C9.69878 18.938 9.1575 18.9383 8.82372 18.6045C8.49011 18.2707 8.49022 17.7294 8.82372 17.3955L11.3872 14.832C11.4484 14.7691 11.5192 14.7156 11.5972 14.6738C11.6345 14.6539 11.6731 14.6371 11.7124 14.623C11.726 14.6182 11.7395 14.6126 11.7534 14.6084C11.7675 14.6042 11.7821 14.6021 11.7964 14.5986C11.8075 14.5959 11.8183 14.5921 11.8296 14.5898C11.8415 14.5874 11.8537 14.5859 11.8657 14.584C11.9095 14.577 11.9547 14.5732 12.0005 14.5732Z" fill="black"/>
<path fill-rule="evenodd" clip-rule="evenodd" d="M19.2075 0.00195312C20.4038 0.00208647 21.4424 0.82847 21.7114 1.99414L23.4917 9.70801C23.863 11.3178 22.6398 12.8553 20.9878 12.8555H3.0122C1.36008 12.8554 0.137877 11.3178 0.509268 9.70801L2.28954 1.99414C2.55855 0.828417 3.59612 0.00201331 4.79247 0.00195312H19.2075ZM4.79247 1.71289C4.39239 1.71295 4.04552 1.98906 3.95556 2.37891L2.17528 10.0928C2.05117 10.6311 2.45975 11.1454 3.0122 11.1455H7.7163V1.71289H4.79247ZM9.42724 11.1455H14.5727V1.85742C14.5727 1.80809 14.5784 1.75994 14.5864 1.71289H9.42724V11.1455ZM16.271 1.71289C16.279 1.75991 16.2837 1.80812 16.2837 1.85742V11.1455H20.9878C21.5401 11.1453 21.9497 10.631 21.8257 10.0928L20.0454 2.37891C19.9554 1.98912 19.6075 1.71302 19.2075 1.71289H16.271Z" fill="black"/>
</svg>
