<svg width="24" height="24" viewBox="0 0 24 24" fill="none" xmlns="http://www.w3.org/2000/svg">
<path fill-rule="evenodd" clip-rule="evenodd" d="M22.2861 10.2871C22.758 10.2874 23.1415 10.6706 23.1416 11.1426V20.5713C23.1415 21.9899 21.9908 23.1402 20.5723 23.1406H17.1602C17.1544 23.1407 17.1484 23.1416 17.1426 23.1416C17.1367 23.1416 17.1308 23.1407 17.125 23.1406H12.0176C12.0117 23.1407 12.0059 23.1416 12 23.1416C11.9941 23.1416 11.9883 23.1407 11.9824 23.1406H6.875C6.86915 23.1407 6.8633 23.1416 6.85742 23.1416C6.85163 23.1416 6.84561 23.1407 6.83984 23.1406H3.42871C2.00997 23.1404 0.858474 21.9901 0.858398 20.5713V11.1426C0.85853 10.6705 1.24272 10.2871 1.71484 10.2871C2.18674 10.2874 2.57018 10.6706 2.57031 11.1426V12.8594H21.4316V11.1426C21.4318 10.6705 21.8141 10.2872 22.2861 10.2871ZM2.57031 14.5703V20.5713C2.57039 21.0457 2.95438 21.4304 3.42871 21.4307H6.00195V14.5703H2.57031ZM7.71289 14.5703V21.4307H11.1445V14.5703H7.71289ZM12.8555 14.5703V21.4307H16.2871V14.5703H12.8555ZM17.998 14.5703V21.4307H20.5723C21.0464 21.4302 21.4316 21.0455 21.4316 20.5713V14.5703H17.998Z" fill="black"/>
<path d="M14.5713 0.858398C15.0435 0.858398 15.4268 1.24264 15.4268 1.71484V2.57324H20.5713C21.0435 2.57324 21.4268 2.95651 21.4268 3.42871C21.4266 3.9008 21.0434 4.28418 20.5713 4.28418L20.5703 5.37598C20.6987 5.45017 20.8192 5.53989 20.9258 5.64648C21.2466 5.96754 21.4268 6.40351 21.4268 6.85742C21.4267 7.31113 21.2464 7.74642 20.9258 8.06738C20.6449 8.34828 20.2757 8.52149 19.8838 8.56055L19.7148 8.56934L19.5449 8.56055C19.1532 8.52145 18.7847 8.34815 18.5039 8.06738C18.183 7.74638 18.002 7.31131 18.002 6.85742C18.002 6.40333 18.1828 5.96757 18.5039 5.64648C18.6107 5.53968 18.7307 5.44927 18.8594 5.375V4.28418H15.4268V5.375C15.5554 5.44927 15.6754 5.53968 15.7822 5.64648C16.082 5.94628 16.2562 6.34629 16.2783 6.76758C16.2814 6.79705 16.2842 6.82714 16.2842 6.85742C16.2842 6.88676 16.2822 6.91576 16.2793 6.94434C16.2578 7.36646 16.0825 7.76697 15.7822 8.06738C15.4763 8.37321 15.0664 8.54922 14.6357 8.56543C14.6147 8.56699 14.5937 8.56932 14.5723 8.56934C14.1185 8.56921 13.6823 8.38821 13.3613 8.06738C13.0404 7.74638 12.8594 7.31131 12.8594 6.85742C12.8594 6.40333 13.0402 5.96757 13.3613 5.64648C13.4679 5.54 13.5876 5.45012 13.7158 5.37598V4.28418H10.2842V5.375C10.4128 5.44928 10.5328 5.53967 10.6396 5.64648C10.9382 5.94512 11.1115 6.34321 11.1348 6.7627C11.1382 6.79375 11.1406 6.82546 11.1406 6.85742C11.1406 6.88844 11.139 6.91905 11.1357 6.94922C11.1131 7.36954 10.9387 7.76813 10.6396 8.06738C10.3186 8.38847 9.8828 8.56934 9.42871 8.56934C8.97471 8.56927 8.53881 8.38842 8.21777 8.06738C7.89696 7.74639 7.71589 7.31125 7.71582 6.85742C7.71582 6.40339 7.89676 5.96756 8.21777 5.64648C8.32453 5.53973 8.44467 5.44926 8.57324 5.375V4.28418H8.57129C8.09928 4.28405 7.71595 3.90072 7.71582 3.42871C7.71582 2.95659 8.0992 2.57337 8.57129 2.57324H13.7158V1.71484C13.7158 1.24272 14.0992 0.85853 14.5713 0.858398Z" fill="black"/>
</svg>
