<svg width="24" height="24" viewBox="0 0 24 24" fill="none" xmlns="http://www.w3.org/2000/svg">
<path fill-rule="evenodd" clip-rule="evenodd" d="M20.9141 13.5674C22.1175 13.5675 23.1404 14.5905 23.1406 15.7939C23.1406 16.2661 22.7574 16.6494 22.2852 16.6494C21.8131 16.6492 21.4307 16.266 21.4307 15.7939C21.4304 15.5349 21.1731 15.2784 20.9141 15.2783H20.2148V22.2861C20.2146 22.758 19.8323 23.1404 19.3604 23.1406H4.73145C4.25938 23.1406 3.87621 22.7581 3.87598 22.2861V15.2783H3.08496C2.82604 15.2787 2.56956 15.535 2.56934 15.7939C2.56934 16.2661 2.18607 16.6494 1.71387 16.6494C1.24178 16.6493 0.858398 16.2661 0.858398 15.7939C0.858588 14.5907 1.88169 13.5677 3.08496 13.5674H20.9141ZM5.58691 21.4307H7.5332V15.2783H5.58691V21.4307ZM9.24414 21.4307H11.1904V15.2783H9.24414V21.4307ZM12.9014 21.4307H14.8477V15.2783H12.9014V21.4307ZM16.5586 21.4307H18.5049V15.2783H16.5586V21.4307Z" fill="black"/>
<path d="M17.1436 1.71582C17.6154 1.71618 17.9979 2.09942 17.998 2.57129V11.1426C17.998 11.6146 17.6155 11.9977 17.1436 11.998C16.6714 11.998 16.2881 11.6148 16.2881 11.1426V3.42676H12.8555V11.1426C12.8555 11.6148 12.4722 11.998 12 11.998C11.5278 11.998 11.1445 11.6148 11.1445 11.1426L11.1455 3.42676H7.71289V11.1426C7.71289 11.6147 7.32951 11.9979 6.85742 11.998C6.38522 11.998 6.00195 11.6148 6.00195 11.1426V2.57129C6.00209 2.0992 6.3853 1.71582 6.85742 1.71582H17.1436Z" fill="black"/>
</svg>
