<svg width="24" height="24" viewBox="0 0 24 24" fill="none" xmlns="http://www.w3.org/2000/svg">
<path fill-rule="evenodd" clip-rule="evenodd" d="M20.6 13.7168C20.616 13.7173 20.6319 13.7183 20.6478 13.7197C20.6646 13.7212 20.6811 13.7241 20.6976 13.7266C20.7051 13.7277 20.7127 13.7282 20.7201 13.7295L20.7435 13.7334C20.7521 13.7352 20.7604 13.7382 20.7689 13.7402C20.7859 13.7443 20.803 13.7479 20.8197 13.7529C20.8263 13.7549 20.8327 13.7576 20.8392 13.7598C20.8553 13.7651 20.8714 13.7701 20.8871 13.7764C20.9037 13.783 20.9199 13.7903 20.9359 13.7979C20.9458 13.8025 20.9555 13.8075 20.9652 13.8125C20.9767 13.8185 20.9882 13.8246 20.9994 13.8311C21.0082 13.8362 21.0171 13.8413 21.0258 13.8467L21.0492 13.8623C21.0548 13.8661 21.0603 13.8701 21.0658 13.874C21.0781 13.8827 21.0901 13.892 21.1019 13.9014C21.113 13.9101 21.1236 13.9194 21.1342 13.9287C21.1415 13.9351 21.1495 13.9406 21.1566 13.9473L21.1762 13.9668C21.1802 13.9709 21.1839 13.9753 21.1879 13.9795C21.1995 13.9916 21.2111 14.0038 21.2221 14.0166C21.2312 14.0274 21.2398 14.0386 21.2484 14.0498C21.2575 14.0616 21.2663 14.0736 21.2748 14.0859C21.2799 14.0933 21.2846 14.1009 21.2894 14.1084C21.2993 14.1237 21.3088 14.1392 21.3178 14.1553C21.3372 14.19 21.354 14.2262 21.3685 14.2637C21.3733 14.276 21.379 14.2881 21.3832 14.3008L23.0971 19.4434C23.1805 19.6936 23.1437 19.969 22.9974 20.1885L21.2875 22.752C21.24 22.8247 21.1824 22.8902 21.1156 22.9453C21.0823 22.9728 21.0467 22.9967 21.0101 23.0186C20.9508 23.0542 20.8872 23.083 20.8197 23.1035C20.8162 23.1046 20.8125 23.1054 20.809 23.1064C20.7335 23.1283 20.6541 23.1416 20.5717 23.1416H3.42909C3.34608 23.1416 3.26573 23.1285 3.18983 23.1064C3.18626 23.1054 3.18264 23.1046 3.17909 23.1035C3.10849 23.082 3.0424 23.0507 2.98084 23.0127C2.93789 22.9863 2.897 22.9562 2.85877 22.9219C2.80259 22.8715 2.7526 22.8145 2.71131 22.751L1.0033 20.1885C0.857088 19.969 0.819315 19.6936 0.902718 19.4434L2.61756 14.3008C2.61877 14.2972 2.62022 14.2936 2.62147 14.29C2.65703 14.1882 2.71077 14.0949 2.77967 14.0146C2.78779 14.0052 2.79657 13.9964 2.80506 13.9873C2.8153 13.9764 2.82552 13.9655 2.83631 13.9551C2.84581 13.946 2.85573 13.9374 2.86561 13.9287C2.87655 13.9191 2.88739 13.9094 2.89881 13.9004C2.90925 13.8922 2.92024 13.8847 2.93104 13.877C2.94277 13.8685 2.95403 13.8594 2.96619 13.8516C2.97357 13.8468 2.98115 13.8424 2.98866 13.8379C3.00524 13.8279 3.02215 13.8184 3.03944 13.8096C3.04799 13.8052 3.0571 13.8019 3.0658 13.7979C3.0816 13.7904 3.09735 13.7828 3.11366 13.7764C3.12102 13.7734 3.12867 13.7713 3.13612 13.7686C3.15578 13.7614 3.17538 13.7538 3.19569 13.748C3.19887 13.7471 3.20226 13.747 3.20545 13.7461C3.22223 13.7416 3.23906 13.7369 3.25623 13.7334L3.27967 13.7295C3.28678 13.7282 3.294 13.7277 3.30116 13.7266C3.31734 13.7241 3.33352 13.7212 3.34998 13.7197C3.36683 13.7182 3.38377 13.7174 3.40076 13.7168C3.41007 13.7165 3.41971 13.7158 3.42909 13.7158H20.5717C20.5811 13.7158 20.5906 13.7165 20.6 13.7168ZM2.6576 19.5879L3.88612 21.4307H6.52772L6.0453 19.9844C6.00136 19.8522 5.99018 19.7106 6.01307 19.5732L6.70448 15.4268H4.04432L2.6576 19.5879ZM7.73475 19.6445L8.32948 21.4307H11.1449V15.4268H8.43787L7.73475 19.6445ZM12.8558 21.4307H15.6693L16.265 19.6445L15.5609 15.4268H12.8558V21.4307ZM17.9857 19.5732C18.0086 19.7108 17.9976 19.8521 17.9535 19.9844L17.4721 21.4307H20.1146L21.3422 19.5879L19.9555 15.4268H17.2953L17.9857 19.5732Z" fill="black"/>
<path d="M17.143 1.71582C17.6149 1.71605 17.9973 2.09934 17.9974 2.57129V11.1426C17.9974 11.6146 17.615 11.9978 17.143 11.998C16.6709 11.9978 16.2875 11.6146 16.2875 11.1426V3.42676H12.8558V11.1426C12.8558 11.6148 12.4725 11.998 12.0004 11.998C11.5282 11.998 11.1449 11.6148 11.1449 11.1426L11.1459 3.42676H7.71229V11.1426C7.71229 11.6148 7.32902 11.998 6.85682 11.998C6.38481 11.9978 6.00135 11.6146 6.00135 11.1426V2.57129C6.00148 2.09934 6.38489 1.71605 6.85682 1.71582H17.143Z" fill="black"/>
</svg>
