<svg width="24" height="24" viewBox="0 0 24 24" fill="none" xmlns="http://www.w3.org/2000/svg">
<path fill-rule="evenodd" clip-rule="evenodd" d="M20.9141 13.6592C22.1175 13.6593 23.1404 14.6823 23.1406 15.8857C23.1404 16.3577 22.7572 16.7412 22.2852 16.7412C21.8133 16.741 21.4309 16.3576 21.4307 15.8857C21.4304 15.6267 21.1731 15.3702 20.9141 15.3701H20.124V22.2861C20.1237 22.7578 19.7412 23.1402 19.2695 23.1406H4.64062C4.1686 23.1406 3.78545 22.7581 3.78516 22.2861V15.3701H3.08496C2.82604 15.3705 2.56956 15.6268 2.56934 15.8857C2.56907 16.3577 2.18591 16.7412 1.71387 16.7412C1.24194 16.7411 0.858662 16.3576 0.858398 15.8857C0.858588 14.6824 1.88169 13.6595 3.08496 13.6592H20.9141ZM5.49609 21.4307H7.44141V15.3701H5.49609V21.4307ZM9.15234 21.4307H11.0986V15.3701H9.15234V21.4307ZM12.8096 21.4307H14.7559V15.3701H12.8096V21.4307ZM16.4668 21.4307H18.4141V15.3701H16.4668V21.4307Z" fill="black"/>
<path fill-rule="evenodd" clip-rule="evenodd" d="M12 0.858398L12.3086 0.866211C15.4775 1.02696 17.9979 3.6486 17.998 6.85742V11.1436C17.9977 11.6152 17.6152 11.9977 17.1436 11.998C16.6716 11.998 16.2884 11.6155 16.2881 11.1436V7.71289H7.71289V11.1436C7.71255 11.6154 7.3293 11.9979 6.85742 11.998C6.38543 11.998 6.00229 11.6155 6.00195 11.1436V6.85742C6.0021 3.54512 8.6877 0.858549 12 0.858398ZM12.8555 6.00195H16.2021C15.8617 4.32026 14.5372 2.99579 12.8555 2.65527V6.00195ZM11.1445 2.65527C9.46278 2.99574 8.13821 4.32016 7.79785 6.00195H11.1445V2.65527Z" fill="black"/>
</svg>
