<svg width="24" height="24" viewBox="0 0 24 24" fill="none" xmlns="http://www.w3.org/2000/svg">
<path d="M6.25293 13.1104C6.58683 12.7765 7.12802 12.7765 7.46191 13.1104L10.8906 16.5391C11.2239 16.873 11.2243 17.4144 10.8906 17.748C10.5569 18.0817 10.0156 18.0813 9.68164 17.748L6.25293 14.3193C5.91903 13.9854 5.91903 13.4442 6.25293 13.1104Z" fill="black"/>
<path d="M9.68066 9.68164C10.0146 9.34774 10.5558 9.34774 10.8896 9.68164L14.3184 13.1104C14.6521 13.4443 14.6522 13.9855 14.3184 14.3193C13.9845 14.6527 13.4431 14.6529 13.1094 14.3193L9.68066 10.8906C9.34691 10.5569 9.34719 10.0156 9.68066 9.68164Z" fill="black"/>
<path d="M13.1094 6.25293C13.4433 5.91903 13.9845 5.91903 14.3184 6.25293L17.7471 9.68164C18.0808 10.0156 18.0809 10.5568 17.7471 10.8906C17.4132 11.2242 16.8719 11.2243 16.5381 10.8906L13.1094 7.46191C12.7756 7.1281 12.7757 6.58685 13.1094 6.25293Z" fill="black"/>
<path fill-rule="evenodd" clip-rule="evenodd" d="M18.8564 0.858398C21.2223 0.858398 23.1406 2.77781 23.1406 5.14355V8.57227C23.1402 16.6182 16.6173 23.1415 8.57129 23.1416H5.14258C2.77711 23.1415 0.858662 21.2229 0.858398 18.8574V15.4287C0.858625 7.38273 7.38178 0.858757 15.4277 0.858398H18.8564ZM15.4277 2.57031C8.32619 2.57067 2.56956 8.32713 2.56934 15.4287V18.8574C2.5696 20.2785 3.7215 21.4315 5.14258 21.4316H8.57129C15.6729 21.4315 21.4302 15.6738 21.4307 8.57227V5.14355C21.4307 3.7222 20.2778 2.57031 18.8564 2.57031H15.4277Z" fill="black"/>
</svg>
