<svg width="24" height="24" viewBox="0 0 24 24" fill="none" xmlns="http://www.w3.org/2000/svg">
<path fill-rule="evenodd" clip-rule="evenodd" d="M11.9994 5.60608C13.5639 5.60608 14.8331 6.87473 14.8334 8.43909C14.8334 10.0037 13.5641 11.2731 11.9994 11.2731C10.4352 11.2726 9.16641 10.0034 9.16641 8.43909C9.16675 6.87502 10.4354 5.60654 11.9994 5.60608ZM11.9994 7.31702C11.3798 7.31748 10.8777 7.81942 10.8773 8.43909C10.8773 9.05904 11.3796 9.56168 11.9994 9.56214C12.6197 9.56214 13.1225 9.05932 13.1225 8.43909C13.1221 7.81914 12.6194 7.31702 11.9994 7.31702Z" fill="black"/>
<path fill-rule="evenodd" clip-rule="evenodd" d="M11.6176 0.949832C11.8582 0.829514 12.1416 0.829583 12.3822 0.949832L20.2943 4.90589L20.3686 4.9469C20.5348 5.05179 20.6603 5.2119 20.7231 5.40003L23.0971 12.5211C23.1839 12.7818 23.1396 13.0687 22.9789 13.2916C22.8182 13.5142 22.5602 13.6461 22.2856 13.6461H21.558V21.4948C21.5579 22.4036 20.8214 23.141 19.9125 23.1412H4.08829C3.17924 23.1411 2.44189 22.4037 2.4418 21.4948V13.6461H1.71426C1.43965 13.646 1.18157 13.5143 1.0209 13.2916C0.860309 13.0688 0.816002 12.7817 0.90274 12.5211L3.27676 5.40003C3.34845 5.18506 3.50284 5.00731 3.70547 4.90589L11.6176 0.949832ZM4.78653 6.276L2.90079 11.9362H3.29629C3.7685 11.9362 4.15176 12.3194 4.15176 12.7916V21.4313H6.39786V14.3737C6.39786 13.9015 6.78112 13.5182 7.25333 13.5182H16.7475C17.2196 13.5183 17.6029 13.9015 17.6029 14.3737V21.4313H19.8481V12.7916C19.8481 12.3195 20.2314 11.9363 20.7035 11.9362H21.1L19.2123 6.276L11.9994 2.66956L4.78653 6.276ZM8.10879 21.4313H15.893V15.2291H8.10879V21.4313Z" fill="black"/>
</svg>
