<svg width="24" height="24" viewBox="0 0 24 24" fill="none" xmlns="http://www.w3.org/2000/svg">
<path fill-rule="evenodd" clip-rule="evenodd" d="M18.8457 0.947684C19.9553 0.967378 21.0141 1.41688 21.7988 2.20159C22.5835 2.9863 23.033 4.04516 23.0527 5.15472C23.0722 6.26434 22.6599 7.33886 21.9033 8.15081C21.897 8.15756 21.8903 8.16478 21.8838 8.17132C21.5102 8.54649 20.3437 9.52361 18.8682 10.7309C17.3694 11.9572 15.4974 13.465 13.6699 14.9291C12.9693 15.4905 12.2725 16.0429 11.6074 16.5737C11.5722 16.6064 11.536 16.6368 11.4971 16.6625C10.6423 17.3446 9.84003 17.9857 9.13867 18.5434C9.13102 18.5498 9.12305 18.5558 9.11523 18.5619C8.98166 18.6682 8.85229 18.7726 8.72656 18.8725C8.06249 19.4003 7.51198 19.8365 7.12793 20.141C7.12316 20.1448 7.118 20.148 7.11328 20.1518C7.20339 20.3971 7.25283 20.6556 7.25293 20.9174C7.253 21.2097 7.19475 21.4999 7.08301 21.7699C6.97126 22.0398 6.80698 22.285 6.60059 22.4916C6.39406 22.6982 6.14874 22.8631 5.87891 22.975C5.60895 23.0869 5.3186 23.1448 5.02637 23.1449C4.73423 23.145 4.44475 23.0867 4.1748 22.975C3.90471 22.8632 3.65892 22.6992 3.45215 22.4926L1.51172 20.5522C1.09433 20.1345 0.858279 19.5684 0.858398 18.978C0.85849 18.6856 0.917361 18.3955 1.0293 18.1254C1.14125 17.8556 1.30605 17.6103 1.5127 17.4037C1.93031 16.9866 2.49661 16.7513 3.08691 16.7514C3.34798 16.7515 3.60589 16.8004 3.85059 16.8901L3.8623 16.8764C4.16687 16.4922 4.60385 15.9412 5.13184 15.2768C5.23232 15.1503 5.33651 15.0196 5.44336 14.8852C5.44767 14.8797 5.45159 14.8739 5.45605 14.8686C6.01671 14.1635 6.66217 13.3567 7.34863 12.4965C7.37095 12.4638 7.39646 12.4328 7.42383 12.4028C7.95642 11.7355 8.51182 11.0368 9.0752 10.3334C10.5389 8.50593 12.0459 6.63422 13.2715 5.13518C14.4788 3.65849 15.454 2.49107 15.8271 2.11761C15.8342 2.11053 15.8423 2.1039 15.8496 2.0971C16.6616 1.3405 17.7361 0.928167 18.8457 0.947684ZM3.08691 18.4623C2.95026 18.4623 2.8185 18.5163 2.72168 18.6127C2.67379 18.6606 2.63535 18.7182 2.60938 18.7807C2.58347 18.8432 2.57039 18.9103 2.57031 18.978C2.57028 19.1148 2.62408 19.2463 2.7207 19.3432L4.66113 21.2836C4.70891 21.3313 4.76579 21.3691 4.82812 21.3949C4.8907 21.4208 4.95866 21.435 5.02637 21.435C5.09394 21.4349 5.1612 21.4208 5.22363 21.3949C5.28607 21.369 5.34379 21.3314 5.3916 21.2836C5.43936 21.2357 5.47705 21.1781 5.50293 21.1157C5.52873 21.0532 5.54293 20.986 5.54297 20.9184C5.54293 20.8506 5.52887 20.7827 5.50293 20.7201C5.47741 20.6587 5.44029 20.6025 5.39355 20.5551L5.39062 20.5532L3.44824 18.6108C3.40106 18.5644 3.34526 18.5268 3.28418 18.5014C3.22179 18.4755 3.15444 18.4625 3.08691 18.4623ZM5.20215 17.9389L5.19824 17.9418L6.06055 18.8032L6.06543 18.8012C6.37808 18.5533 6.80062 18.2169 7.30566 17.8158L6.1875 16.6977C5.78619 17.2028 5.45006 17.6262 5.20215 17.9389ZM7.25879 15.351L8.65137 16.7436C8.99799 16.4677 9.36289 16.1759 9.74219 15.8735L8.12891 14.2602C7.82658 14.6396 7.53463 15.0043 7.25879 15.351ZM18.8154 2.65764C18.1525 2.64601 17.5103 2.89058 17.0234 3.34026C16.7135 3.65553 15.8155 4.72528 14.5957 6.21722C13.3754 7.70977 11.8719 9.57651 10.4092 11.4028C10.0007 11.9128 9.59708 12.4209 9.20215 12.9155L11.0869 14.8002C11.5814 14.4051 12.0906 14.0028 12.6006 13.5942C14.4266 12.1312 16.2932 10.6274 17.7852 9.40667C19.2779 8.18527 20.3454 7.28625 20.6582 6.97698C21.1084 6.49006 21.3544 5.84831 21.3428 5.18499C21.3309 4.51841 21.0613 3.88201 20.5898 3.41057C20.1184 2.93914 19.482 2.6695 18.8154 2.65764Z" fill="black"/>
<path fill-rule="evenodd" clip-rule="evenodd" d="M19.543 15.9487C20.497 15.9487 21.4123 16.3287 22.0869 17.0033C22.7615 17.678 23.1406 18.5932 23.1406 19.5473C23.1405 20.5014 22.7616 21.4166 22.0869 22.0912C21.4123 22.7658 20.497 23.1449 19.543 23.1449C18.589 23.1449 17.6737 22.7657 16.999 22.0912C16.3244 21.4166 15.9444 20.5013 15.9443 19.5473C15.9443 18.5932 16.3244 17.6781 16.999 17.0033C17.6737 16.3287 18.5888 15.9487 19.543 15.9487ZM19.543 17.6596C19.0424 17.6597 18.562 17.8583 18.208 18.2123C17.8541 18.5664 17.6553 19.0467 17.6553 19.5473C17.6554 20.0478 17.8541 20.5283 18.208 20.8823C18.562 21.236 19.0425 21.4349 19.543 21.435C20.0435 21.4349 20.524 21.2361 20.8779 20.8823C21.2319 20.5283 21.4306 20.0478 21.4307 19.5473C21.4307 19.0467 21.2318 18.5663 20.8779 18.2123C20.524 17.8584 20.0435 17.6597 19.543 17.6596Z" fill="black"/>
</svg>
