<svg width="24" height="24" viewBox="0 0 24 24" fill="none" xmlns="http://www.w3.org/2000/svg">
<path d="M5.14258 7.71582C5.6147 7.71582 5.99791 8.0992 5.99805 8.57129V15.4287C5.9979 15.9008 5.61469 16.2832 5.14258 16.2832C4.67058 16.2831 4.28726 15.9007 4.28711 15.4287V8.57129C4.28724 8.09928 4.67057 7.71595 5.14258 7.71582Z" fill="black"/>
<path fill-rule="evenodd" clip-rule="evenodd" d="M18 3.43066C19.4055 3.43093 20.5691 4.59444 20.5693 6V7.28809H22.2861L22.46 7.29688C23.3183 7.38546 23.9978 8.11994 23.998 9V15C23.998 15.9389 23.2249 16.7125 22.2861 16.7129H20.5693V18C20.5693 19.4057 19.4057 20.5691 18 20.5693H2.57129C1.16556 20.5691 0.000976562 19.4057 0.000976562 18V6C0.00120736 4.59441 1.1657 3.43089 2.57129 3.43066H18ZM2.57129 5.1416C2.11009 5.14184 1.71313 5.5388 1.71289 6V18C1.71289 18.4614 2.10997 18.8591 2.57129 18.8594H18C18.4613 18.8591 18.8594 18.4613 18.8594 18V6C18.8591 5.56745 18.5089 5.1917 18.085 5.14648L18 5.1416H2.57129ZM20.5693 15.0029H22.2812L22.2881 14.9961V9.00488L22.2852 9.00098L22.2812 8.99805H20.5693V15.0029Z" fill="black"/>
</svg>
