<svg width="24" height="24" viewBox="0 0 24 24" fill="none" xmlns="http://www.w3.org/2000/svg">
<path d="M5.14258 7.71582C5.61459 7.71595 5.99791 8.09928 5.99805 8.57129V15.4287C5.9979 15.9007 5.61458 16.2831 5.14258 16.2832C4.67047 16.2832 4.28726 15.9008 4.28711 15.4287V8.57129C4.28724 8.0992 4.67046 7.71582 5.14258 7.71582Z" fill="black"/>
<path d="M8.57129 7.71582C9.0433 7.71595 9.42663 8.09928 9.42676 8.57129V15.4287C9.42661 15.9007 9.04329 16.2831 8.57129 16.2832C8.09918 16.2832 7.71597 15.9008 7.71582 15.4287V8.57129C7.71595 8.0992 8.09917 7.71582 8.57129 7.71582Z" fill="black"/>
<path fill-rule="evenodd" clip-rule="evenodd" d="M17.999 3.43066C19.4048 3.43066 20.5681 4.59427 20.5684 6V7.28809H22.2852C23.224 7.28816 23.9968 8.06114 23.9971 9V15C23.9971 15.9391 23.2242 16.7128 22.2852 16.7129H20.5684V18C20.5684 19.4059 19.4049 20.5693 17.999 20.5693H2.57031C1.1647 20.569 0.000976562 19.4057 0.000976562 18V6C0.00120735 4.59449 1.16483 3.43103 2.57031 3.43066H17.999ZM2.57031 5.1416C2.10922 5.14198 1.71215 5.53889 1.71191 6V18C1.71191 18.4613 2.1091 18.859 2.57031 18.8594H17.999C18.4605 18.8594 18.8584 18.4615 18.8584 18V6C18.8582 5.53868 18.4604 5.1416 17.999 5.1416H2.57031ZM20.5684 15.0029H22.2803L22.2871 14.9961V9.00488L22.2842 9.00098L22.2803 8.99805H20.5684V15.0029Z" fill="black"/>
</svg>
