<svg width="24" height="24" viewBox="0 0 24 24" fill="none" xmlns="http://www.w3.org/2000/svg">
<path fill-rule="evenodd" clip-rule="evenodd" d="M12.8574 2.57324C13.3295 2.57337 13.7129 2.95659 13.7129 3.42871V6.85938H15.4287C15.9007 6.8596 16.2832 7.24278 16.2832 7.71484V11.1436C16.2829 14.165 14.0483 16.6635 11.1416 17.0791V20.5723C11.1411 21.0439 10.7578 21.4265 10.2861 21.4268C9.81423 21.4268 9.43115 21.0441 9.43066 20.5723V17.0791C6.52337 16.664 4.28742 14.1654 4.28711 11.1436V7.71484C4.28711 7.24272 4.67049 6.85951 5.14258 6.85938H6.85938V3.42871C6.85938 2.95651 7.24264 2.57324 7.71484 2.57324C8.18682 2.57351 8.57031 2.95667 8.57031 3.42871V6.85938H12.002V3.42871C12.002 2.95651 12.3852 2.57324 12.8574 2.57324ZM5.99805 11.1436C5.99839 13.5067 7.91011 15.423 10.2715 15.4307H10.2988C12.6606 15.4234 14.5729 13.5069 14.5732 11.1436V8.57031H5.99805V11.1436Z" fill="black"/>
<path d="M3.42871 3.43066C3.9008 3.4308 4.28418 3.81401 4.28418 4.28613C4.28392 4.75803 3.90064 5.14147 3.42871 5.1416H2.57129C2.11009 5.14184 1.71313 5.5388 1.71289 6V18C1.71317 18.4611 2.11013 18.8591 2.57129 18.8594H5.14355C5.61544 18.8597 5.99803 19.2429 5.99805 19.7148C5.99765 20.1865 5.61522 20.569 5.14355 20.5693H2.57129C1.16573 20.5691 0.00222256 19.4055 0.00195312 18V6C0.00218392 4.59441 1.1657 3.43089 2.57129 3.43066H3.42871Z" fill="black"/>
<path fill-rule="evenodd" clip-rule="evenodd" d="M18 3.43066C19.4056 3.4308 20.5691 4.59435 20.5693 6V7.28809H22.2861C23.2249 7.2883 23.9978 8.06122 23.998 9V15C23.9978 15.9388 23.2249 16.7127 22.2861 16.7129H20.5693V18C20.5691 19.4056 19.4056 20.5692 18 20.5693H15.4287C14.9568 20.5693 14.5746 20.1867 14.5742 19.7148C14.5742 19.2427 14.9566 18.8595 15.4287 18.8594H18C18.4612 18.8592 18.8591 18.4612 18.8594 18V6C18.8591 5.53876 18.4613 5.14174 18 5.1416H17.1436C16.6715 5.1416 16.2884 4.75811 16.2881 4.28613C16.2881 3.81393 16.6714 3.43066 17.1436 3.43066H18ZM20.5693 15.0029H22.2812L22.2881 14.9961V9.00488L22.2852 9.00098L22.2812 8.99805H20.5693V15.0029Z" fill="black"/>
</svg>
