<svg width="24" height="24" viewBox="0 0 24 24" fill="none" xmlns="http://www.w3.org/2000/svg">
<path d="M10.4473 7.60352C10.7534 7.24415 11.2939 7.20089 11.6533 7.50684C12.0128 7.81302 12.0552 8.35342 11.749 8.71289L9.67969 11.1426H13.0723C13.4052 11.1427 13.7077 11.3366 13.8477 11.6387C13.9875 11.941 13.9391 12.2968 13.7236 12.5508L10.459 16.3955C10.1533 16.7553 9.61281 16.7988 9.25293 16.4932C8.89354 16.1874 8.84976 15.6478 9.15527 15.2881L11.2236 12.8525H7.82812C7.49486 12.8524 7.19155 12.659 7.05176 12.3564C6.91218 12.0539 6.96083 11.6971 7.17676 11.4434L10.4473 7.60352Z" fill="black"/>
<path fill-rule="evenodd" clip-rule="evenodd" d="M18 3.42969C19.4057 3.42969 20.5691 4.59427 20.5693 6V7.28809H22.2861C23.225 7.28816 23.9978 8.06114 23.998 9V15C23.9978 15.9388 23.225 16.7128 22.2861 16.7129H20.5693V18C20.5691 19.4057 19.4057 20.5693 18 20.5693H2.57129C1.16573 20.5691 0.00222254 19.4055 0.00195312 18V6C0.00218392 4.59441 1.1657 3.42992 2.57129 3.42969H18ZM2.57129 5.1416C2.11009 5.14184 1.71313 5.5388 1.71289 6V18C1.71317 18.4611 2.11013 18.8591 2.57129 18.8594H18C18.4613 18.8594 18.8591 18.4613 18.8594 18V6C18.8591 5.53868 18.4614 5.1416 18 5.1416H2.57129ZM20.5693 15.0029H22.2812L22.2881 14.9961V9.00488L22.2852 9.00098L22.2812 8.99805H20.5693V15.0029Z" fill="black"/>
</svg>
