<svg width="24" height="24" viewBox="0 0 24 24" fill="none" xmlns="http://www.w3.org/2000/svg">
<path fill-rule="evenodd" clip-rule="evenodd" d="M0.857422 3.42969C1.32963 3.42969 1.71289 3.81393 1.71289 4.28613V14.5732H10.2881V11.2861C10.2881 10.2616 11.1191 9.43066 12.1436 9.43066H19.7148C22.0805 9.4308 23.999 11.3492 23.999 13.7148V21.4287C23.9989 21.9007 23.6156 22.284 23.1436 22.2842C22.6714 22.2842 22.2882 21.9008 22.2881 21.4287V19.7129H1.71289V21.4287C1.71263 21.9007 1.32946 22.2842 0.857422 22.2842C0.385493 22.284 0.00221711 21.9006 0.00195312 21.4287V4.28613C0.00195312 3.81401 0.38533 3.42982 0.857422 3.42969ZM1.71289 18.002H10.2881V16.2842H1.71289V18.002ZM12.1436 11.1416C12.0635 11.1416 11.999 11.2061 11.999 11.2861V18.002H22.2881V13.7148C22.2881 12.2936 21.1361 11.1417 19.7148 11.1416H12.1436Z" fill="black"/>
<path fill-rule="evenodd" clip-rule="evenodd" d="M6 6.85938C7.89232 6.85938 9.42668 8.39383 9.42676 10.2861C9.42649 12.1783 7.8922 13.7129 6 13.7129C4.10797 13.7127 2.57351 12.1781 2.57324 10.2861C2.57332 8.39396 4.10786 6.85958 6 6.85938ZM6 8.57031C5.05227 8.57052 4.28426 9.33837 4.28418 10.2861C4.28444 11.2337 5.05238 12.0027 6 12.0029C6.94779 12.0029 7.71653 11.2339 7.7168 10.2861C7.71672 9.33824 6.94791 8.57031 6 8.57031Z" fill="black"/>
</svg>
