<svg width="24" height="24" viewBox="0 0 24 24" fill="none" xmlns="http://www.w3.org/2000/svg">
<path fill-rule="evenodd" clip-rule="evenodd" d="M18.4893 1.71582C20.5843 1.71582 22.2829 3.41477 22.2832 5.50977V11.7656C23.3156 12.4437 23.9979 13.6112 23.998 14.9385V15.0615C23.9979 16.7286 22.9217 18.1433 21.4268 18.6523V21.4287C21.4267 21.9009 21.0434 22.2832 20.5713 22.2832C20.0992 22.2831 19.7159 21.9008 19.7158 21.4287V18.8555H4.28418V21.4287C4.2841 21.9008 3.90076 22.2831 3.42871 22.2832C2.95655 22.2832 2.57332 21.9009 2.57324 21.4287V18.6523C1.07813 18.1433 0.00208199 16.7287 0.00195312 15.0615V14.9385C0.0020557 13.6114 0.683651 12.4437 1.71582 11.7656V5.50977C1.71611 3.41495 3.41495 1.71611 5.50977 1.71582H18.4893ZM3.7959 12.8555C2.6453 12.8556 1.71305 13.7879 1.71289 14.9385V15.0615C1.71305 16.2121 2.6453 17.1444 3.7959 17.1445H20.2041C21.3547 17.1444 22.2879 16.2121 22.2881 15.0615V14.9385C22.2879 13.7879 21.3547 12.8556 20.2041 12.8555H3.7959ZM5.50977 3.42676C4.35936 3.42705 3.42705 4.35936 3.42676 5.50977V11.1621C3.54814 11.1504 3.67145 11.1445 3.7959 11.1445H5.14453V7.50879C5.14453 6.20342 6.20342 5.14453 7.50879 5.14453H16.4912C17.7966 5.14453 18.8555 6.20342 18.8555 7.50879V11.1445H20.2041C20.3286 11.1445 20.4518 11.1504 20.5732 11.1621V5.50977C20.5729 4.35918 19.6399 3.42676 18.4893 3.42676H5.50977ZM12.8555 11.1445H17.1445V7.50879C17.1445 7.14783 16.8522 6.85547 16.4912 6.85547H12.8555V11.1445ZM7.50879 6.85547C7.14783 6.85547 6.85547 7.14783 6.85547 7.50879V11.1445H11.1445V6.85547H7.50879Z" fill="black"/>
</svg>
