<svg width="24" height="24" viewBox="0 0 24 24" fill="none" xmlns="http://www.w3.org/2000/svg">
<path fill-rule="evenodd" clip-rule="evenodd" d="M19.2852 0.858398C20.704 0.858398 21.8543 2.00993 21.8545 3.42871V11.1436C21.8542 12.5622 20.7039 13.7129 19.2852 13.7129C18.2266 13.7127 17.3172 13.0718 16.9238 12.1572C16.8685 12.2939 16.8124 12.4249 16.75 12.5459C15.4038 15.1574 15.3149 17.8951 15.5908 20.9199C15.7397 22.1752 14.7804 23.3247 13.5137 23.3965C13.4978 23.3974 13.4807 23.3975 13.4648 23.3975H8.6084C8.59277 23.3975 8.57617 23.3973 8.56055 23.3965C7.29236 23.3261 6.33197 22.1753 6.48145 20.9189L6.52832 20.3545C6.74138 17.5519 6.58719 14.9932 5.32324 12.5469C4.23003 10.4311 3.8564 8.22542 3.78613 5.99414C2.40015 5.95651 1.28737 4.82371 1.28711 3.42871C1.28734 2.01015 2.43791 0.858756 3.85645 0.858398H19.2852ZM5.49805 5.99805C5.56781 8.05326 5.91301 9.96405 6.8418 11.7617C8.41598 14.8084 8.46932 17.9436 8.18359 21.0742C8.18244 21.0868 8.18139 21.0998 8.17969 21.1123C8.14145 21.3921 8.3682 21.6682 8.64941 21.6875H13.4277C13.7064 21.665 13.9304 21.3902 13.8926 21.1123C13.8909 21.1 13.8898 21.0875 13.8887 21.0752C13.603 17.9434 13.6589 14.8098 15.2295 11.7627C15.4219 11.3893 15.6019 10.7807 15.7607 10.0322C15.8323 9.69479 15.8953 9.34369 15.9541 8.99414C15.9217 8.99498 15.889 8.99805 15.8564 8.99805C14.0216 8.99774 12.4866 7.71533 12.0977 5.99805H5.49805ZM3.85645 2.57031C3.38232 2.57067 2.99827 2.95455 2.99805 3.42871C2.99831 3.90284 3.38234 4.28773 3.85645 4.28809H4.61133C4.61702 4.28797 4.62319 4.28711 4.62891 4.28711C4.63478 4.28711 4.64064 4.28796 4.64648 4.28809H12.8564C13.3286 4.28809 13.7119 4.67135 13.7119 5.14355C13.7123 6.3277 14.6723 7.28773 15.8564 7.28809C16.1434 7.28809 16.4162 7.23252 16.6641 7.13184C16.812 7.0717 16.9523 6.99476 17.082 6.9043C17.3433 6.72211 17.6844 6.70033 17.9668 6.84766C18.2491 6.99499 18.4257 7.28706 18.4258 7.60547V11.1436C18.4261 11.6177 18.811 12.0026 19.2852 12.0029C19.7595 12.0029 20.1442 11.6178 20.1445 11.1436V3.42871C20.1443 2.95433 19.7596 2.57031 19.2852 2.57031H3.85645Z" fill="black"/>
</svg>
