<svg width="24" height="24" viewBox="0 0 24 24" fill="none" xmlns="http://www.w3.org/2000/svg">
<path d="M7.72266 17.1445C8.63318 17.149 9.37281 17.865 9.4209 18.7646C9.42417 18.7951 9.42578 18.8262 9.42578 18.8574C9.42563 19.781 8.69453 20.5311 7.7793 20.5654C7.75799 20.567 7.73656 20.5693 7.71484 20.5693C6.79875 20.5691 6.05135 19.8492 6.00586 18.9443C6.00296 18.9157 6.00098 18.8868 6.00098 18.8574C6.00098 18.8258 6.00252 18.7944 6.00586 18.7637C6.05446 17.8647 6.7952 17.1494 7.70508 17.1445H7.72266Z" fill="black"/>
<path d="M8.57129 7.71582C9.04319 7.71608 9.42663 8.09936 9.42676 8.57129C9.42676 9.04333 9.04327 9.42649 8.57129 9.42676H6.85742C6.38522 9.42676 6.00195 9.04349 6.00195 8.57129C6.00209 8.0992 6.3853 7.71582 6.85742 7.71582H8.57129Z" fill="black"/>
<path d="M8.57129 4.28711C9.04319 4.28737 9.42663 4.67065 9.42676 5.14258C9.42676 5.61462 9.04327 5.99778 8.57129 5.99805H6.85742C6.38522 5.99805 6.00195 5.61478 6.00195 5.14258C6.00209 4.67049 6.3853 4.28711 6.85742 4.28711H8.57129Z" fill="black"/>
<path d="M16.2939 17.1445C17.2041 17.149 17.9436 17.8645 17.9922 18.7637C17.9955 18.7944 17.9971 18.8258 17.9971 18.8574C17.9969 19.781 17.2658 20.5311 16.3506 20.5654C16.3293 20.567 16.3079 20.5693 16.2861 20.5693C15.37 20.5691 14.6226 19.8492 14.5771 18.9443C14.5743 18.9157 14.5723 18.8868 14.5723 18.8574C14.5723 18.8258 14.5738 18.7944 14.5771 18.7637C14.6258 17.8647 15.3665 17.1494 16.2764 17.1445H16.2939Z" fill="black"/>
<path d="M17.1426 7.71582C17.6145 7.71608 17.9979 8.09936 17.998 8.57129C17.998 9.04333 17.6146 9.42649 17.1426 9.42676H15.4287C14.9565 9.42676 14.5732 9.04349 14.5732 8.57129C14.5734 8.0992 14.9566 7.71582 15.4287 7.71582H17.1426Z" fill="black"/>
<path d="M17.1426 4.28711C17.6145 4.28737 17.9979 4.67065 17.998 5.14258C17.998 5.61462 17.6146 5.99778 17.1426 5.99805H15.4287C14.9565 5.99805 14.5732 5.61478 14.5732 5.14258C14.5734 4.67049 14.9566 4.28711 15.4287 4.28711H17.1426Z" fill="black"/>
<path fill-rule="evenodd" clip-rule="evenodd" d="M18.8574 0.00195312C20.276 0.00229294 21.4265 1.15271 21.4268 2.57129V21.4287C21.4266 22.8474 20.276 23.9977 18.8574 23.998H5.14258C3.72387 23.9978 2.5724 22.8474 2.57227 21.4287V2.57129C2.57249 1.15264 3.72393 0.00217939 5.14258 0.00195312H18.8574ZM5.14258 1.71289C4.66834 1.71312 4.28441 2.09705 4.28418 2.57129V21.4287C4.28431 21.903 4.66828 22.2879 5.14258 22.2881H11.1445V1.71289H5.14258ZM12.8555 22.2881H18.8574C19.3316 22.2877 19.7167 21.903 19.7168 21.4287V2.57129C19.7166 2.09712 19.3316 1.71323 18.8574 1.71289H12.8555V22.2881Z" fill="black"/>
</svg>
