<svg width="24" height="24" viewBox="0 0 24 24" fill="none" xmlns="http://www.w3.org/2000/svg">
<path d="M18 11.1445C18.4721 11.1446 18.8555 11.5278 18.8555 12C18.8555 12.4722 18.4721 12.8554 18 12.8555H6C5.5278 12.8555 5.14453 12.4722 5.14453 12C5.14453 11.5278 5.5278 11.1445 6 11.1445H18Z" fill="black"/>
<path d="M18 7.43066C18.4721 7.43073 18.8555 7.81397 18.8555 8.28613C18.8552 8.75807 18.472 9.14154 18 9.1416H6C5.52796 9.1416 5.1448 8.75811 5.14453 8.28613C5.14453 7.81393 5.5278 7.43066 6 7.43066H18Z" fill="black"/>
<path d="M18 3.71582C18.4721 3.71589 18.8553 4.09924 18.8555 4.57129C18.8555 5.04345 18.4721 5.42669 18 5.42676H6C5.5278 5.42676 5.14453 5.04349 5.14453 4.57129C5.14466 4.0992 5.52788 3.71582 6 3.71582H18Z" fill="black"/>
<path fill-rule="evenodd" clip-rule="evenodd" d="M19.7139 0.00195312C21.1327 0.00195312 22.283 1.1525 22.2832 2.57129V21.4287C22.2831 22.8476 21.1328 23.998 19.7139 23.998H4.28516C2.86645 23.9978 1.71595 22.8474 1.71582 21.4287V2.57129C1.71605 1.15264 2.86651 0.00217925 4.28516 0.00195312H19.7139ZM4.28516 1.71289C3.81092 1.71312 3.42698 2.09705 3.42676 2.57129V21.4287C3.42689 21.903 3.81086 22.2879 4.28516 22.2881H19.7139C20.1884 22.2881 20.5731 21.9032 20.5732 21.4287V2.57129C20.573 2.09691 20.1883 1.71289 19.7139 1.71289H4.28516Z" fill="black"/>
</svg>
