<svg width="24" height="24" viewBox="0 0 24 24" fill="none" xmlns="http://www.w3.org/2000/svg">
<path d="M14.0977 16.8604C14.4905 16.5988 15.0213 16.704 15.2832 17.0967C15.545 17.4894 15.4383 18.0201 15.0459 18.2822L12.4746 19.9971C12.1875 20.1885 11.8126 20.1884 11.5254 19.9971L8.9541 18.2822C8.56157 18.0202 8.45594 17.4894 8.71777 17.0967C8.97989 16.7044 9.51069 16.5986 9.90332 16.8604L12 18.2578L14.0977 16.8604Z" fill="black"/>
<path d="M11.5254 11.7178C11.8126 11.5264 12.1875 11.5263 12.4746 11.7178L15.0459 13.4316C15.4384 13.6936 15.5449 14.2245 15.2832 14.6172C15.0214 15.0099 14.4905 15.1159 14.0977 14.8545L12 13.4561L9.90332 14.8545C9.51059 15.1163 8.97982 15.0097 8.71777 14.6172C8.4559 14.2244 8.56142 13.6936 8.9541 13.4316L11.5254 11.7178Z" fill="black"/>
<path d="M18 7.43066C18.4721 7.4308 18.8555 7.81401 18.8555 8.28613C18.8552 8.75803 18.4719 9.14147 18 9.1416H6C5.52796 9.1416 5.1448 8.75811 5.14453 8.28613C5.14453 7.81393 5.5278 7.43066 6 7.43066H18Z" fill="black"/>
<path d="M18 3.71582C18.4721 3.71595 18.8555 4.09917 18.8555 4.57129C18.8553 5.0433 18.472 5.42663 18 5.42676H6C5.52788 5.42676 5.14466 5.04338 5.14453 4.57129C5.14453 4.09909 5.5278 3.71582 6 3.71582H18Z" fill="black"/>
<path fill-rule="evenodd" clip-rule="evenodd" d="M19.7139 0.00195312C21.1326 0.00201912 22.283 1.15255 22.2832 2.57129V21.4287C22.2831 22.8475 21.1327 23.998 19.7139 23.998H4.28516C2.86645 23.9978 1.71595 22.8474 1.71582 21.4287V2.57129C1.71605 1.15264 2.86651 0.00217923 4.28516 0.00195312H19.7139ZM4.28516 1.71289C3.81092 1.71312 3.42698 2.09705 3.42676 2.57129V21.4287C3.42689 21.903 3.81086 22.2879 4.28516 22.2881H19.7139C20.1883 22.288 20.5731 21.9031 20.5732 21.4287V2.57129C20.573 2.09695 20.1882 1.71296 19.7139 1.71289H4.28516Z" fill="black"/>
</svg>
