<svg width="24" height="24" viewBox="0 0 24 24" fill="none" xmlns="http://www.w3.org/2000/svg">
<path fill-rule="evenodd" clip-rule="evenodd" d="M11.2184 0.0786541C11.5238 -0.0598249 11.883 -0.00743417 12.1354 0.21342L18.9918 6.21342C19.187 6.38422 19.294 6.63499 19.2828 6.89408C19.2716 7.15304 19.1432 7.39308 18.9342 7.54643L12.861 11.9996L18.9342 16.4537C19.1433 16.607 19.2717 16.8469 19.2828 17.106C19.294 17.365 19.1869 17.6149 18.9918 17.7857L12.1354 23.7857C11.883 24.0066 11.5239 24.06 11.2184 23.9214C10.9131 23.7828 10.7166 23.4784 10.7164 23.1431V13.5728L6.07777 16.9751C5.69708 17.2543 5.16176 17.1721 4.88245 16.7915C4.60327 16.4108 4.68546 15.8755 5.06605 15.5962L9.96937 11.9996L5.06605 8.40385C4.6853 8.1246 4.60323 7.58931 4.88245 7.20854C5.16174 6.82792 5.69705 6.74575 6.07777 7.02494L10.7164 10.4263V0.856974C10.7165 0.521641 10.9131 0.217324 11.2184 0.0786541ZM12.4274 21.2574L17.0631 17.2017L12.4274 13.8013V21.2574ZM12.4274 10.1978L17.0631 6.7974L12.4274 2.74174V10.1978Z" fill="black"/>
</svg>
