<svg width="24" height="24" viewBox="0 0 24 24" fill="none" xmlns="http://www.w3.org/2000/svg">
<path fill-rule="evenodd" clip-rule="evenodd" d="M12.8574 0.00195312C14.276 0.00212065 15.4265 1.15261 15.4267 2.57129V9.68066C15.4267 10.0072 15.4761 10.2575 15.5732 10.4424C16.0534 11.3569 16.7822 11.8489 17.6943 12.6553C18.5826 13.4407 19.4796 14.429 19.705 16.1768C19.8711 17.4645 19.937 18.6885 19.7441 19.8545C19.5521 21.0141 19.1082 22.0953 18.2949 23.123C17.816 23.7282 17.0937 23.9979 16.412 23.998H7.5888C6.90713 23.998 6.18502 23.728 5.70599 23.123C4.90438 22.11 4.46199 21.045 4.26556 19.9043C4.25737 19.8683 4.25048 19.8316 4.247 19.7939C4.06786 18.6576 4.13032 17.4665 4.28997 16.2148C4.29285 16.1797 4.29761 16.1451 4.30462 16.1113C4.54379 14.4039 5.42925 13.4309 6.30657 12.6553C7.21864 11.8489 7.9475 11.357 8.42766 10.4424C8.52468 10.2575 8.57412 10.0072 8.57415 9.68066V4.30762C8.57397 4.30047 8.57318 4.29332 8.57317 4.28613C8.57317 4.27878 8.57396 4.27098 8.57415 4.26367V2.57129C8.57438 1.1525 9.72465 0.00195312 11.1435 0.00195312H12.8574ZM6.20306 20.5703C6.39076 21.0836 6.66297 21.5764 7.04681 22.0615C7.14773 22.1888 7.33639 22.288 7.5888 22.2881H16.412C16.6644 22.2879 16.8532 22.1889 16.954 22.0615C17.3379 21.5764 17.6101 21.0837 17.7978 20.5703H6.20306ZM5.90911 17.1416C5.85187 17.7608 5.83184 18.3288 5.86419 18.8594H18.1366C18.169 18.3288 18.149 17.7607 18.0917 17.1416H5.90911ZM10.2841 5.1416V9.68066C10.2841 10.1544 10.2162 10.7136 9.94134 11.2373C9.27121 12.5137 8.16659 13.2936 7.43938 13.9365C6.92761 14.389 6.50927 14.8298 6.24798 15.4307H17.7519C17.4906 14.83 17.073 14.3889 16.5615 13.9365C15.8343 13.2936 14.7297 12.5136 14.0595 11.2373C13.7846 10.7136 13.7168 10.1544 13.7167 9.68066V5.1416H10.2841ZM11.1435 1.71289C10.6691 1.71289 10.2843 2.09691 10.2841 2.57129V3.43066H13.7167V2.57129C13.7165 2.09701 13.3316 1.71306 12.8574 1.71289H11.1435Z" fill="black"/>
</svg>
