<svg width="24" height="24" viewBox="0 0 24 24" fill="none" xmlns="http://www.w3.org/2000/svg">
<path d="M12 18.8594C12.4722 18.8594 12.8555 19.2426 12.8555 19.7148V20.5723C12.8551 21.0441 12.4719 21.4268 12 21.4268C11.5281 21.4268 11.1449 21.0441 11.1445 20.5723V19.7148C11.1445 19.2426 11.5278 18.8594 12 18.8594Z" fill="black"/>
<path d="M5.94141 16.8506C6.27532 16.5169 6.81655 16.5167 7.15039 16.8506C7.48357 17.1845 7.48389 17.7259 7.15039 18.0596L6.54395 18.666C6.21025 18.9995 5.66885 18.9992 5.33496 18.666C5.00112 18.3322 5.00124 17.7909 5.33496 17.457L5.94141 16.8506Z" fill="black"/>
<path d="M16.8506 16.8506C17.1845 16.5167 17.7257 16.5167 18.0596 16.8506L18.666 17.457C18.9991 17.791 18.9996 18.3324 18.666 18.666C18.3324 18.9996 17.791 18.9991 17.457 18.666L16.8506 18.0596C16.5167 17.7257 16.5167 17.1845 16.8506 16.8506Z" fill="black"/>
<path fill-rule="evenodd" clip-rule="evenodd" d="M12.001 6.85938C14.8397 6.85987 17.1416 9.16213 17.1416 12.001C17.1411 14.8394 14.8394 17.1411 12.001 17.1416C9.16213 17.1416 6.85987 14.8397 6.85938 12.001C6.85938 9.16183 9.16183 6.85938 12.001 6.85938ZM12.001 8.57031C10.1062 8.57031 8.57031 10.1062 8.57031 12.001C8.5708 13.8953 10.1065 15.4316 12.001 15.4316C13.895 15.4312 15.4312 13.895 15.4316 12.001C15.4316 10.1065 13.8953 8.5708 12.001 8.57031Z" fill="black"/>
<path d="M4.28613 11.1445C4.7581 11.1448 5.14062 11.528 5.14062 12C5.14062 12.472 4.7581 12.8552 4.28613 12.8555H3.42871C2.95651 12.8555 2.57324 12.4722 2.57324 12C2.57324 11.5278 2.95651 11.1445 3.42871 11.1445H4.28613Z" fill="black"/>
<path d="M20.5723 11.1445C21.0441 11.1449 21.4268 11.5281 21.4268 12C21.4268 12.4719 21.0441 12.8551 20.5723 12.8555H19.7148C19.2426 12.8555 18.8594 12.4722 18.8594 12C18.8594 11.5278 19.2426 11.1445 19.7148 11.1445H20.5723Z" fill="black"/>
<path d="M5.33496 5.33496C5.66886 5.00106 6.21005 5.00106 6.54395 5.33496L7.15039 5.94141C7.48345 6.27537 7.48401 6.81677 7.15039 7.15039C6.81677 7.48401 6.27537 7.48345 5.94141 7.15039L5.33496 6.54395C5.00106 6.21005 5.00106 5.66886 5.33496 5.33496Z" fill="black"/>
<path d="M17.457 5.33496C17.7909 5.00124 18.3322 5.00112 18.666 5.33496C18.9992 5.66885 18.9995 6.21025 18.666 6.54395L18.0596 7.15039C17.7259 7.48389 17.1845 7.48357 16.8506 7.15039C16.5167 6.81655 16.5169 6.27532 16.8506 5.94141L17.457 5.33496Z" fill="black"/>
<path d="M12 2.57324C12.4722 2.57324 12.8555 2.95651 12.8555 3.42871V4.28613C12.8552 4.7581 12.472 5.14062 12 5.14062C11.528 5.14062 11.1448 4.7581 11.1445 4.28613V3.42871C11.1445 2.95651 11.5278 2.57324 12 2.57324Z" fill="black"/>
</svg>
