<svg width="24" height="24" viewBox="0 0 24 24" fill="none" xmlns="http://www.w3.org/2000/svg">
<path d="M12 18.002C12.4722 18.002 12.8555 18.3852 12.8555 18.8574V22.2861C12.8551 22.7581 12.472 23.1406 12 23.1406C11.5281 23.1405 11.1449 22.7579 11.1445 22.2861L11.1455 18.8574C11.1455 18.3854 11.528 18.0022 12 18.002Z" fill="black"/>
<path d="M6.54785 16.2451C6.88178 15.9114 7.423 15.9112 7.75684 16.2451C8.09003 16.579 8.09035 17.1204 7.75684 17.4541L5.33203 19.8789C4.99826 20.2124 4.45689 20.2113 4.12305 19.8779C3.78935 19.544 3.7892 19.0028 4.12305 18.6689L6.54785 16.2451Z" fill="black"/>
<path d="M16.2451 16.2441C16.579 15.9103 17.1202 15.9103 17.4541 16.2441L19.8789 18.6689C20.2119 19.0029 20.2115 19.5443 19.8779 19.8779C19.5442 20.2113 19.0028 20.2112 18.6689 19.8779L16.2451 17.4531C15.9112 17.1192 15.9112 16.578 16.2451 16.2441Z" fill="black"/>
<path d="M12 10.3945C12.8864 10.3945 13.6045 11.1136 13.6045 12C13.6045 12.8864 12.8864 13.6045 12 13.6045C11.1691 13.6044 10.4855 12.9733 10.4033 12.1641L10.3945 12L10.4033 11.8359C10.4855 11.0267 11.1691 10.3947 12 10.3945Z" fill="black"/>
<path d="M5.14355 11.1455C5.61542 11.1458 5.99796 11.5281 5.99805 12C5.99803 12.472 5.61545 12.8551 5.14355 12.8555H1.71484C1.24265 12.8554 0.858398 12.4722 0.858398 12C0.85842 11.5278 1.24266 11.1445 1.71484 11.1445L5.14355 11.1455Z" fill="black"/>
<path d="M22.2861 11.1455C22.7581 11.1457 23.1405 11.528 23.1406 12C23.1406 12.4721 22.7581 12.8553 22.2861 12.8555H18.8574C18.3852 12.8554 18.002 12.4722 18.002 12C18.002 11.5278 18.3852 11.1445 18.8574 11.1445L22.2861 11.1455Z" fill="black"/>
<path d="M4.12305 4.12305C4.45695 3.78917 4.99815 3.78916 5.33203 4.12305L7.75684 6.54785C8.08982 6.88184 8.08947 7.42325 7.75586 7.75684C7.42208 8.09021 6.88068 8.09014 6.54688 7.75684L4.12305 5.33203C3.78917 4.99813 3.78916 4.45693 4.12305 4.12305Z" fill="black"/>
<path d="M18.6689 4.12305C19.0029 3.7893 19.5441 3.78918 19.8779 4.12305C20.2115 4.45692 20.2116 4.99822 19.8779 5.33203L17.4531 7.75684C17.1192 8.09007 16.5778 8.08945 16.2441 7.75586C15.9106 7.42205 15.9107 6.88073 16.2441 6.54688L18.6689 4.12305Z" fill="black"/>
<path d="M12 0.858398C12.4722 0.85842 12.8555 1.24266 12.8555 1.71484V5.14355C12.8551 5.61547 12.472 5.99805 12 5.99805C11.5281 5.99789 11.1449 5.61537 11.1445 5.14355L11.1455 1.71484C11.1455 1.24279 11.528 0.858614 12 0.858398Z" fill="black"/>
</svg>
