<svg width="24" height="24" viewBox="0 0 24 24" fill="none" xmlns="http://www.w3.org/2000/svg">
<path d="M12 18.8594C12.4721 18.8595 12.8555 19.2428 12.8555 19.7148V23.1436C12.8551 23.6154 12.4719 23.9979 12 23.998C11.528 23.998 11.1449 23.6154 11.1445 23.1436L11.1455 19.7148C11.1455 19.2428 11.528 18.8595 12 18.8594Z" fill="black"/>
<path d="M16.8496 16.8506C17.1835 16.5167 17.7247 16.5167 18.0586 16.8506L20.4834 19.2754C20.8165 19.6094 20.8161 20.1508 20.4824 20.4844C20.1486 20.8177 19.6072 20.8178 19.2734 20.4844L16.8496 18.0596C16.5158 17.7257 16.5158 17.1845 16.8496 16.8506Z" fill="black"/>
<path d="M5.94141 16.8506C6.27533 16.5168 6.81655 16.5167 7.15039 16.8506C7.48359 17.1845 7.4839 17.7259 7.15039 18.0596L4.72559 20.4844C4.39182 20.8178 3.85044 20.8167 3.5166 20.4834C3.1829 20.1495 3.18275 19.6082 3.5166 19.2744L5.94141 16.8506Z" fill="black"/>
<path fill-rule="evenodd" clip-rule="evenodd" d="M12 6.85938C14.839 6.8596 17.1406 9.16197 17.1406 12.001C17.1401 14.8396 14.8386 17.1414 12 17.1416C9.16127 17.1415 6.85889 14.8396 6.8584 12.001C6.8584 9.16191 9.16097 6.85951 12 6.85938ZM12 8.57031C10.1054 8.57044 8.56934 10.1063 8.56934 12.001C8.56983 13.8952 10.1057 15.4315 12 15.4316C13.8942 15.4314 15.4302 13.8952 15.4307 12.001C15.4307 10.1064 13.8945 8.57054 12 8.57031Z" fill="black"/>
<path d="M4.28613 11.1455C4.75797 11.1458 5.14048 11.5281 5.14062 12C5.14059 12.472 4.75802 12.8551 4.28613 12.8555H0.857422C0.385241 12.8554 0.000975767 12.4722 0.000976563 12C0.00101371 11.5278 0.385249 11.1445 0.857422 11.1445L4.28613 11.1455Z" fill="black"/>
<path d="M23.1426 11.1455C23.6146 11.1456 23.9969 11.528 23.9971 12C23.997 12.4721 23.6147 12.8554 23.1426 12.8555H19.7139C19.2418 12.8553 18.8584 12.4721 18.8584 12C18.8584 11.5279 19.2418 11.1447 19.7139 11.1445L23.1426 11.1455Z" fill="black"/>
<path d="M3.5166 3.5166C3.85052 3.18285 4.39174 3.18276 4.72559 3.5166L7.15039 5.94141C7.48346 6.27534 7.48295 6.81676 7.14941 7.15039C6.81559 7.4838 6.27423 7.48382 5.94043 7.15039L3.5166 4.72559C3.18273 4.39168 3.18272 3.85049 3.5166 3.5166Z" fill="black"/>
<path d="M19.2744 3.5166C19.6083 3.18285 20.1496 3.18273 20.4834 3.5166C20.8168 3.85048 20.817 4.39181 20.4834 4.72559L18.0586 7.15039C17.7247 7.48395 17.1834 7.483 16.8496 7.14941C16.5159 6.81549 16.5158 6.27425 16.8496 5.94043L19.2744 3.5166Z" fill="black"/>
<path d="M12 0.00195312C12.4721 0.00212216 12.8555 0.385331 12.8555 0.857422V4.28613C12.8553 4.75809 12.472 5.14049 12 5.14062C11.5279 5.14059 11.1447 4.75813 11.1445 4.28613L11.1455 0.857422C11.1455 0.38533 11.528 0.00209712 12 0.00195312Z" fill="black"/>
</svg>
