<svg width="24" height="24" viewBox="0 0 24 24" fill="none" xmlns="http://www.w3.org/2000/svg">
<path d="M11.1699 8.36426C11.2845 7.90635 11.7491 7.62786 12.207 7.74219C12.6648 7.85679 12.9433 8.32049 12.8291 8.77832L11.1143 15.6357C10.9997 16.0937 10.5361 16.3721 10.0781 16.2578C9.62019 16.1432 9.34155 15.6787 9.45605 15.2207L11.1699 8.36426Z" fill="black"/>
<path d="M6 8.57324C6.47198 8.57351 6.85547 8.95667 6.85547 9.42871V14.5713C6.85534 15.0432 6.4719 15.4265 6 15.4268C5.52788 15.4268 5.14466 15.0434 5.14453 14.5713V9.42871C5.14453 8.95651 5.5278 8.57324 6 8.57324Z" fill="black"/>
<path fill-rule="evenodd" clip-rule="evenodd" d="M17.1426 8.57324C18.5612 8.57351 19.7117 9.72396 19.7119 11.1426V12.8574C19.7117 14.2761 18.5612 15.4265 17.1426 15.4268C15.7239 15.4265 14.5734 14.2761 14.5732 12.8574V11.1426C14.5735 9.72393 15.7239 8.57347 17.1426 8.57324ZM17.1426 10.2842C16.6683 10.2844 16.2844 10.6683 16.2842 11.1426V12.8574C16.2844 13.3317 16.6683 13.7166 17.1426 13.7168C17.6168 13.7165 18.0017 13.3317 18.002 12.8574V11.1426C18.0017 10.6684 17.6168 10.2844 17.1426 10.2842Z" fill="black"/>
<path fill-rule="evenodd" clip-rule="evenodd" d="M15.4277 3.42969C20.1603 3.42969 23.9968 7.26751 23.9971 12C23.9968 16.7325 20.1603 20.5693 15.4277 20.5693H8.57031C3.83809 20.569 0.00124045 16.7322 0.000976562 12C0.0012028 7.26773 3.83807 3.43005 8.57031 3.42969H15.4277ZM8.57031 5.1416C4.78248 5.14196 1.71214 8.21213 1.71191 12C1.71218 15.7878 4.7825 18.859 8.57031 18.8594H15.4277C19.2159 18.8594 22.2868 15.7881 22.2871 12C22.2869 8.21191 19.2159 5.1416 15.4277 5.1416H8.57031Z" fill="black"/>
</svg>
