<svg width="24" height="24" viewBox="0 0 24 24" fill="none" xmlns="http://www.w3.org/2000/svg">
<path fill-rule="evenodd" clip-rule="evenodd" d="M12.001 0.858398C14.3664 0.858756 16.2842 2.77802 16.2842 5.14355V8.57422H17.1436C17.381 8.57401 17.5739 8.381 17.5742 8.14355V6.21484C17.5742 4.6776 18.8203 3.43179 20.3574 3.43164C21.8946 3.43177 23.1416 4.67759 23.1416 6.21484V7.66113C23.1413 11.2396 20.2396 14.1415 16.6611 14.1416H16.2842V21.4307H22.2861C22.7582 21.4308 23.1416 21.814 23.1416 22.2861C23.1413 22.758 22.7581 23.1415 22.2861 23.1416H1.71484C1.2428 23.1416 0.859639 22.7581 0.859375 22.2861C0.859375 21.8139 1.24264 21.4307 1.71484 21.4307H7.7168V18.4268H7.33984C3.7613 18.4268 0.85979 15.5257 0.859375 11.9473V10.501C0.859375 8.96365 2.10623 7.7168 3.64355 7.7168C5.1807 7.717 6.42676 8.96378 6.42676 10.501V12.4287C6.42702 12.6663 6.61984 12.8592 6.85742 12.8594H7.7168V5.14355C7.7168 2.7778 9.63522 0.858398 12.001 0.858398ZM12.001 2.57031C10.5796 2.57031 9.42676 3.72221 9.42676 5.14355V13.7148C9.42649 14.1866 9.04407 14.57 8.57227 14.5703H6.85742C5.67544 14.5702 4.71706 13.6107 4.7168 12.4287V10.501C4.7168 9.90819 4.23629 9.42697 3.64355 9.42676C3.05064 9.42676 2.57031 9.90806 2.57031 10.501V11.9473C2.57073 14.5813 4.70571 16.7168 7.33984 16.7168H8.57227C9.04423 16.7171 9.42676 17.1002 9.42676 17.5723V21.4307H14.5742V13.2861C14.5743 12.8141 14.9567 12.4319 15.4287 12.4316H16.6611C19.2952 12.4315 21.4314 10.2952 21.4316 7.66113V6.21484C21.4316 5.62202 20.9502 5.14173 20.3574 5.1416C19.7647 5.14175 19.2842 5.62203 19.2842 6.21484V8.14355C19.2838 9.32542 18.3254 10.284 17.1436 10.2842H15.4287C14.9569 10.284 14.5745 9.90055 14.5742 9.42871V5.14355C14.5742 3.72243 13.422 2.57067 12.001 2.57031Z" fill="black"/>
</svg>
