<svg width="24" height="24" viewBox="0 0 24 24" fill="none" xmlns="http://www.w3.org/2000/svg">
<path d="M4.53872 13.9668C4.87265 13.6333 5.41395 13.633 5.7477 13.9668C6.08128 14.3006 6.08112 14.8419 5.7477 15.1758L2.92348 18L5.7477 20.8242C6.08116 21.158 6.08114 21.6994 5.7477 22.0332C5.41391 22.3669 4.87262 22.3668 4.53872 22.0332L1.11001 18.6045C0.776133 18.2706 0.776179 17.7294 1.11001 17.3955L4.53872 13.9668Z" fill="black"/>
<path d="M8.82387 13.9668C9.15774 13.6331 9.69901 13.6331 10.0329 13.9668C10.3666 14.3006 10.3666 14.8419 10.0329 15.1758L7.20864 18L10.0329 20.8242C10.3665 21.1581 10.3666 21.6994 10.0329 22.0332C9.69903 22.367 9.15777 22.3669 8.82387 22.0332L5.39516 18.6045C5.06142 18.2706 5.06138 17.7294 5.39516 17.3955L8.82387 13.9668Z" fill="black"/>
<path d="M16.2858 0.00195312C16.967 0.0020119 17.6204 0.273181 18.1022 0.754883C18.5836 1.23651 18.855 1.89004 18.8551 2.57129V3.71094L21.5719 2.24805L21.6696 2.20312C21.9299 2.10265 22.211 2.06671 22.4879 2.09961C22.7646 2.13255 23.0297 2.23277 23.2594 2.3916L23.4235 2.52051C23.5787 2.65857 23.7079 2.82446 23.8043 3.00977C23.9318 3.25502 23.9987 3.52846 23.9977 3.80566V11.6172L23.987 11.8252C23.9631 12.0322 23.9008 12.2335 23.8043 12.4189C23.6757 12.6663 23.4887 12.8785 23.2594 13.0371C23.0297 13.196 22.7646 13.2962 22.4879 13.3291C22.2111 13.362 21.9298 13.3269 21.6696 13.2266C21.6363 13.2137 21.6033 13.1985 21.5719 13.1816L18.8551 11.7178V12.8574C18.8551 13.5388 18.5838 14.1921 18.1022 14.6738C17.6204 15.1556 16.9671 15.4267 16.2858 15.4268H14.7829C14.3107 15.4268 13.9275 15.0434 13.9274 14.5713C13.9276 14.0993 14.3108 13.7168 14.7829 13.7168H16.2858C16.5136 13.7167 16.7322 13.6259 16.8932 13.4648C17.0543 13.3037 17.1451 13.0851 17.1452 12.8574V10.2861C17.1452 9.98516 17.3037 9.70606 17.5622 9.55176C17.8205 9.3977 18.1411 9.39052 18.4059 9.5332L22.2877 11.624V3.80371L18.4059 5.89551C18.1411 6.03818 17.8205 6.03099 17.5622 5.87695C17.3039 5.72276 17.1454 5.44428 17.1452 5.14355V2.57129C17.1451 2.34374 17.0542 2.12498 16.8932 1.96387C16.7322 1.80295 16.5136 1.71295 16.2858 1.71289H5.99966C5.77191 1.713 5.55329 1.80282 5.39223 1.96387C5.23119 2.12493 5.14137 2.34355 5.14126 2.57129V8.72852C5.14113 9.20053 4.75781 9.58386 4.28579 9.58398C3.81367 9.58398 3.43045 9.20061 3.43032 8.72852V2.57129C3.43043 1.89001 3.70155 1.23661 4.18325 0.754883C4.66499 0.273156 5.31838 0.00206392 5.99966 0.00195312H16.2858Z" fill="black"/>
</svg>
