<svg width="24" height="24" viewBox="0 0 24 24" fill="none" xmlns="http://www.w3.org/2000/svg">
<path fill-rule="evenodd" clip-rule="evenodd" d="M7.41992 8.62988C7.89191 8.63005 8.27428 9.01336 8.27441 9.48535C8.27441 9.95745 7.89199 10.3407 7.41992 10.3408H6.4541C6.34589 10.3409 6.24017 10.3743 6.15234 10.4375C6.0645 10.5008 5.99815 10.5906 5.96387 10.6934L5.28027 12.7451H10.4648C10.9369 12.7452 11.3192 13.1276 11.3193 13.5996C11.3193 14.0718 10.937 14.455 10.4648 14.4551H4.44824L3.04297 15.8604L3.04199 15.8594C2.94559 15.9561 2.8927 16.0881 2.89258 16.2246V18.1709C2.89258 18.3077 2.94639 18.4393 3.04297 18.5361C3.13971 18.6329 3.2714 18.6874 3.4082 18.6875H18.9512C19.0881 18.6875 19.2196 18.633 19.3164 18.5361C19.4132 18.4393 19.4678 18.3078 19.4678 18.1709V16.2246C19.4676 16.0879 19.4131 15.9561 19.3164 15.8594C18.9831 15.5253 18.9836 14.984 19.3174 14.6504C19.6514 14.317 20.1927 14.3177 20.5264 14.6514C20.9433 15.0687 21.1775 15.6347 21.1777 16.2246V18.1709C21.1777 18.7614 20.9429 19.3276 20.5254 19.7451C20.3175 19.953 20.0729 20.1157 19.8066 20.2266V20.9141C19.8066 21.5044 19.5717 22.0708 19.1543 22.4883C18.7368 22.9057 18.1704 23.1405 17.5801 23.1406C16.9899 23.1405 16.4233 22.9055 16.0059 22.4883C15.5886 22.0708 15.3536 21.5043 15.3535 20.9141V20.3975H7.00586V20.9141C7.00579 21.5045 6.77099 22.0708 6.35352 22.4883C5.936 22.9057 5.3697 23.1406 4.7793 23.1406C4.189 23.1405 3.6225 22.9057 3.20508 22.4883C2.78781 22.0708 2.5528 21.5043 2.55273 20.9141V20.2266C2.28656 20.1157 2.04177 19.9529 1.83398 19.7451C1.41672 19.3276 1.18164 18.7612 1.18164 18.1709V16.2246C1.18183 15.6346 1.41693 15.0677 1.83398 14.6504L3.34668 13.1367L4.3418 10.1533C4.4895 9.71 4.77331 9.32407 5.15234 9.05078C5.53134 8.7776 5.98691 8.62995 6.4541 8.62988H7.41992ZM4.26367 20.9141C4.26374 21.0508 4.31748 21.1825 4.41406 21.2793C4.5108 21.376 4.64253 21.4305 4.7793 21.4307C4.91617 21.4307 5.0477 21.376 5.14453 21.2793C5.24132 21.1825 5.29583 21.0509 5.2959 20.9141V20.3984H4.26367V20.9141ZM17.0645 20.9141C17.0645 21.0508 17.1183 21.1825 17.2148 21.2793C17.3116 21.3759 17.4434 21.4306 17.5801 21.4307C17.7169 21.4306 17.8485 21.3761 17.9453 21.2793C18.0421 21.1825 18.0966 21.0509 18.0967 20.9141V20.3984H17.0645V20.9141Z" fill="black"/>
<path d="M6.15137 15.4873C6.62357 15.4873 7.00684 15.8706 7.00684 16.3428C7.0067 16.8149 6.62349 17.1982 6.15137 17.1982H4.78027C4.30815 17.1982 3.92494 16.8149 3.9248 16.3428C3.9248 15.8706 4.30807 15.4873 4.78027 15.4873H6.15137Z" fill="black"/>
<path d="M17.5801 15.4873C18.0521 15.4875 18.4355 15.8707 18.4355 16.3428C18.4354 16.8147 18.052 17.198 17.5801 17.1982H16.209C15.7369 17.1982 15.3536 16.8149 15.3535 16.3428C15.3535 15.8706 15.7368 15.4873 16.209 15.4873H17.5801Z" fill="black"/>
<path fill-rule="evenodd" clip-rule="evenodd" d="M16.9521 3.60156C17.5423 3.60163 18.1089 3.83663 18.5264 4.25391C18.9438 4.67134 19.1786 5.23791 19.1787 5.82812C19.1787 6.41843 18.9438 6.98479 18.5264 7.40234C18.1089 7.81983 17.5425 8.05462 16.9521 8.05469H16.4365V9.48535C16.4365 9.95747 16.0531 10.3407 15.5811 10.3408C15.1089 10.3408 14.7256 9.95756 14.7256 9.48535V4.45703C14.7257 3.98494 15.1089 3.60156 15.5811 3.60156H16.9521ZM16.4365 6.34473H16.9521C17.089 6.34466 17.2206 6.29012 17.3174 6.19336C17.414 6.09658 17.4688 5.96503 17.4688 5.82812C17.4686 5.69132 17.4141 5.55956 17.3174 5.46289C17.2206 5.36634 17.0889 5.31256 16.9521 5.3125H16.4365V6.34473Z" fill="black"/>
<path fill-rule="evenodd" clip-rule="evenodd" d="M16.2852 0.00195312C20.0711 0.00195312 23.1406 3.07151 23.1406 6.85742C23.1405 10.6432 20.071 13.7129 16.2852 13.7129C12.4995 13.7127 9.42982 10.6431 9.42969 6.85742C9.42969 3.07163 12.4994 0.00215107 16.2852 0.00195312ZM16.2852 1.71289C13.4438 1.71309 11.1406 4.01604 11.1406 6.85742C11.1408 9.69868 13.4439 12.0018 16.2852 12.002C19.1266 12.002 21.4296 9.69881 21.4297 6.85742C21.4297 4.01592 19.1267 1.71289 16.2852 1.71289Z" fill="black"/>
</svg>
