<svg width="24" height="24" viewBox="0 0 24 24" fill="none" xmlns="http://www.w3.org/2000/svg">
<path d="M6 12.8945C6.47209 12.8947 6.85547 13.2779 6.85547 13.75C6.85534 14.222 6.47201 14.6053 6 14.6055H4.5C4.02788 14.6055 3.64466 14.2221 3.64453 13.75C3.64453 13.2778 4.0278 12.8945 4.5 12.8945H6Z" fill="black"/>
<path d="M19.5 12.8945C19.9721 12.8947 20.3555 13.2779 20.3555 13.75C20.3553 14.222 19.972 14.6053 19.5 14.6055H18C17.5279 14.6055 17.1447 14.2221 17.1445 13.75C17.1445 13.2778 17.5278 12.8945 18 12.8945H19.5Z" fill="black"/>
<path fill-rule="evenodd" clip-rule="evenodd" d="M17.6689 3.89453C18.1631 3.89463 18.645 4.05085 19.0459 4.33984C19.3966 4.59281 19.6704 4.93686 19.8379 5.33301L19.9033 5.50586L19.9248 5.58203L21.0273 10.3184L22.666 11.9561C23.1069 12.3975 23.3553 12.9972 23.3555 13.6211V16.75C23.3554 17.3745 23.1066 17.9734 22.665 18.415C22.4327 18.6474 22.1557 18.824 21.8555 18.9414V19.75C21.8554 20.3745 21.6066 20.9734 21.165 21.415C20.7234 21.8566 20.1245 22.1054 19.5 22.1055C18.8755 22.1055 18.2766 21.8565 17.835 21.415C17.3934 20.9734 17.1446 20.3745 17.1445 19.75V19.1055H6.85547V19.75C6.8554 20.3745 6.60663 20.9734 6.16504 21.415C5.72345 21.8566 5.1245 22.1054 4.5 22.1055C3.87553 22.1055 3.27658 21.8565 2.83496 21.415C2.39337 20.9734 2.1446 20.3745 2.14453 19.75V18.9414C1.84423 18.824 1.56738 18.6474 1.33496 18.415C0.893371 17.9734 0.644596 17.3745 0.644531 16.75V13.6211C0.644665 12.9969 0.892786 12.3975 1.33398 11.9561L2.97168 10.3184L4.0752 5.58203C4.08117 5.55638 4.08836 5.53085 4.09668 5.50586C4.25289 5.03686 4.55313 4.62895 4.9541 4.33984C5.35504 4.05082 5.8368 3.89458 6.33105 3.89453H17.6689ZM3.85547 19.75C3.85553 19.921 3.92304 20.0852 4.04395 20.2061C4.16488 20.3269 4.32905 20.3945 4.5 20.3945C4.67098 20.3945 4.83515 20.327 4.95605 20.2061C5.07696 20.0852 5.14447 19.921 5.14453 19.75V19.1055H3.85547V19.75ZM18.8555 19.75C18.8555 19.921 18.923 20.0852 19.0439 20.2061C19.1649 20.3269 19.3291 20.3945 19.5 20.3945C19.671 20.3945 19.8352 20.327 19.9561 20.2061C20.077 20.0852 20.1445 19.921 20.1445 19.75V19.1055H18.8555V19.75ZM2.54395 13.166L2.54297 13.165C2.4223 13.2859 2.35553 13.4503 2.35547 13.6211V16.75L2.36719 16.876C2.39194 17 2.45317 17.1153 2.54395 17.2061C2.66488 17.3269 2.82905 17.3945 3 17.3945H21C21.171 17.3945 21.3352 17.327 21.4561 17.2061C21.577 17.0852 21.6445 16.921 21.6445 16.75V13.6211L21.6328 13.4951C21.6081 13.3712 21.5466 13.2558 21.4561 13.165L19.8965 11.6055H4.10352L2.54395 13.166ZM6.23047 5.61328C6.13123 5.62897 6.03638 5.6673 5.9541 5.72656C5.85143 5.80059 5.77326 5.90349 5.72852 6.02148L4.82715 9.89453H19.1729L18.2705 6.02148C18.2258 5.90373 18.1483 5.80051 18.0459 5.72656C17.9637 5.66734 17.8687 5.629 17.7695 5.61328L17.6689 5.60547H6.33105L6.23047 5.61328Z" fill="black"/>
</svg>
