<svg width="24" height="24" viewBox="0 0 24 24" fill="none" xmlns="http://www.w3.org/2000/svg">
<path d="M12.0879 10.3525L12.1689 10.3564C13.0014 10.4411 13.6513 11.1452 13.6514 12C13.6512 12.8547 13.0014 13.5579 12.1689 13.6426L12 13.6514L11.8418 13.6436C11.0598 13.5692 10.4368 12.9494 10.3574 12.1689L10.3535 12.0938C10.3502 12.063 10.3486 12.0317 10.3486 12C10.3486 11.968 10.3501 11.9364 10.3535 11.9053L10.3574 11.8311C10.4421 10.9987 11.1453 10.3487 12 10.3486L12.0879 10.3525Z" fill="black"/>
<path fill-rule="evenodd" clip-rule="evenodd" d="M11.999 5.57227C15.5488 5.57227 18.4266 8.45029 18.4268 12C18.4265 15.5496 15.5487 18.4277 11.999 18.4277C8.44953 18.4275 5.57155 15.5495 5.57129 12C5.57142 8.45041 8.44945 5.57246 11.999 5.57227ZM11.999 7.2832C9.39386 7.2834 7.28235 9.39482 7.28223 12C7.28249 14.6051 9.39394 16.7176 11.999 16.7178C14.6043 16.7178 16.7165 14.6052 16.7168 12C16.7167 9.3947 14.6044 7.2832 11.999 7.2832Z" fill="black"/>
<path fill-rule="evenodd" clip-rule="evenodd" d="M19.165 1.5918C20.956 1.59194 22.4082 3.04483 22.4082 4.83594C22.408 5.8181 21.9706 6.69696 21.2822 7.29102C22.0013 8.70581 22.4082 10.3062 22.4082 12C22.4082 13.6934 22.001 15.2934 21.2822 16.708C21.9711 17.3022 22.4082 18.1822 22.4082 19.165C22.4079 20.9558 20.9559 22.4081 19.165 22.4082C18.1824 22.4081 17.3021 21.971 16.708 21.2822C15.2935 22.001 13.6933 22.4082 12 22.4082C10.3063 22.4081 8.70577 22.0013 7.29102 21.2822C6.69692 21.9705 5.81808 22.4081 4.83594 22.4082C3.04503 22.4081 1.59208 20.9558 1.5918 19.165C1.5918 18.1827 2.02944 17.3031 2.71777 16.709C1.9988 15.2943 1.59184 13.6937 1.5918 12C1.59182 10.306 1.99856 8.70495 2.71777 7.29004C2.02982 6.696 1.592 5.8178 1.5918 4.83594C1.5918 3.04484 3.04487 1.59193 4.83594 1.5918C5.81791 1.59193 6.69595 2.02975 7.29004 2.71777C8.70496 1.99851 10.306 1.59186 12 1.5918C13.6937 1.5918 15.2942 1.9988 16.709 2.71777C17.3031 2.02935 18.1826 1.59187 19.165 1.5918ZM19.165 3.30273C18.5449 3.30283 18.0081 3.67071 17.7666 4.2041C17.6654 4.42726 17.4735 4.597 17.2393 4.66895C17.0048 4.74079 16.7501 4.70831 16.541 4.58008C15.2199 3.76969 13.6657 3.30273 12 3.30273C10.3344 3.3028 8.78004 3.7697 7.45898 4.58008C7.25005 4.70808 6.996 4.7407 6.76172 4.66895C6.52731 4.59699 6.33461 4.42744 6.2334 4.2041C5.99187 3.67076 5.45594 3.30292 4.83594 3.30273C3.98927 3.30287 3.30273 3.98924 3.30273 4.83594C3.30301 5.45579 3.67089 5.99188 4.2041 6.2334C4.42754 6.33462 4.597 6.5272 4.66895 6.76172C4.74067 6.99607 4.7082 7.25004 4.58008 7.45898C3.76977 8.78004 3.30276 10.3344 3.30273 12C3.30278 13.6657 3.7697 15.2199 4.58008 16.541C4.70833 16.7501 4.7409 17.0047 4.66895 17.2393C4.59692 17.4735 4.42732 17.6654 4.2041 17.7666C3.6708 18.0082 3.30273 18.5449 3.30273 19.165C3.30301 20.0115 3.98946 20.6981 4.83594 20.6982C5.45582 20.6981 5.9918 20.3291 6.2334 19.7959L6.27539 19.7148C6.38317 19.5319 6.55665 19.394 6.76172 19.3311C6.99604 19.2593 7.25004 19.2919 7.45898 19.4199C8.78003 20.2303 10.3344 20.6982 12 20.6982C13.6657 20.6982 15.2199 20.2303 16.541 19.4199C16.7501 19.2917 17.0048 19.2592 17.2393 19.3311C17.4736 19.403 17.6654 19.5727 17.7666 19.7959C18.0082 20.3293 18.5449 20.6981 19.165 20.6982C20.0115 20.6981 20.698 20.0114 20.6982 19.165C20.6982 18.5448 20.3294 18.0082 19.7959 17.7666C19.5728 17.6654 19.403 17.4735 19.3311 17.2393C19.2591 17.0048 19.2918 16.7501 19.4199 16.541C20.2304 15.2199 20.6982 13.6657 20.6982 12C20.6982 10.3343 20.2303 8.78008 19.4199 7.45898C19.2919 7.25012 19.2594 6.99598 19.3311 6.76172C19.4029 6.52736 19.5727 6.33468 19.7959 6.2334C20.3292 5.9919 20.698 5.45583 20.6982 4.83594C20.6982 3.98926 20.0117 3.30288 19.165 3.30273Z" fill="black"/>
</svg>
