<svg width="24" height="24" viewBox="0 0 24 24" fill="none" xmlns="http://www.w3.org/2000/svg">
<path fill-rule="evenodd" clip-rule="evenodd" d="M12 0.501953C14.6967 0.501985 17.1798 0.997343 19.0205 1.83398C20.7708 2.62962 22.2589 3.8992 22.2812 5.60449C22.2818 5.6173 22.2842 5.6306 22.2842 5.64355V18.3574C22.2842 18.3699 22.2818 18.3822 22.2812 18.3945C22.2597 20.1005 20.7713 21.3702 19.0205 22.166C17.1798 23.0027 14.6967 23.498 12 23.498C9.30332 23.498 6.82027 23.0026 4.97949 22.166C3.21599 21.3644 1.71606 20.0821 1.71582 18.3574V5.64355C1.71582 3.91863 3.21585 2.63564 4.97949 1.83398C6.82027 0.997382 9.3033 0.501953 12 0.501953ZM19.9746 17.1836C19.4814 17.9637 18.6143 18.5675 17.6865 18.9893C16.187 19.6708 14.1751 20.0693 11.999 20.0693C9.82297 20.0693 7.81105 19.6708 6.31152 18.9893C5.38419 18.5677 4.51604 17.9651 4.02246 17.1855C3.6039 17.6056 3.42676 18.0126 3.42676 18.3574C3.42702 18.9994 4.03806 19.8601 5.68652 20.6094C7.25816 21.3237 9.48974 21.7881 12 21.7881C14.5102 21.7881 16.7419 21.3237 18.3135 20.6094C19.9617 19.8601 20.573 18.9993 20.5732 18.3574C20.5732 18.012 20.3948 17.6044 19.9746 17.1836ZM12 14.9268C9.48977 14.9268 7.25816 15.3901 5.68652 16.1045C5.60183 16.143 5.5197 16.1817 5.44043 16.2207C5.64448 16.5848 6.11495 17.0214 7.01953 17.4326C8.24987 17.9917 10.0098 18.3594 11.999 18.3594C13.9882 18.3594 15.7482 17.9917 16.9785 17.4326C17.8827 17.0216 18.3524 16.5847 18.5566 16.2207C18.4781 16.182 18.3974 16.1426 18.3135 16.1045C16.7419 15.3901 14.5102 14.9268 12 14.9268ZM12 2.21289C9.48972 2.21289 7.25816 2.67626 5.68652 3.39062C4.0377 4.14009 3.42676 5.00154 3.42676 5.64355V15.4492C3.59695 15.322 3.77619 15.2015 3.96191 15.0869C3.99318 15.0647 4.02638 15.0452 4.06055 15.0273C4.35356 14.8522 4.66222 14.6921 4.97949 14.5479C6.82026 13.7113 9.30334 13.2158 12 13.2158C14.6967 13.2159 17.1798 13.7112 19.0205 14.5479C19.5775 14.801 20.108 15.1023 20.5732 15.4502V5.64355C20.5732 5.00159 19.962 4.14005 18.3135 3.39062C16.7419 2.67627 14.5102 2.21292 12 2.21289Z" fill="black"/>
</svg>
