<svg width="24" height="24" viewBox="0 0 24 24" fill="none" xmlns="http://www.w3.org/2000/svg">
<path d="M16.2861 1.71582C18.8436 1.71603 21.3947 3.33636 22.2354 5.71484C22.3926 6.15989 22.1588 6.64812 21.7139 6.80566C21.2688 6.96286 20.7805 6.73011 20.623 6.28516C20.0519 4.66912 18.2066 3.42697 16.2861 3.42676C13.9183 3.42691 11.9993 5.34609 11.999 7.71387V18C11.9991 20.368 13.9182 22.2879 16.2861 22.2881C18.2065 22.2879 20.0517 21.0456 20.623 19.4297C20.7805 18.9848 21.2688 18.751 21.7139 18.9082C22.1587 19.0656 22.3924 19.554 22.2354 19.999C21.3947 22.3776 18.8437 23.9978 16.2861 23.998C12.9738 23.9979 10.2882 21.3125 10.2881 18V7.71387C10.2884 4.40168 12.9739 1.71597 16.2861 1.71582Z" fill="black"/>
<path fill-rule="evenodd" clip-rule="evenodd" d="M5.14258 0.00195312C7.0349 0.00195312 8.56926 1.53641 8.56934 3.42871C8.5692 5.32097 7.03487 6.85547 5.14258 6.85547C3.25047 6.85526 1.71595 5.32084 1.71582 3.42871C1.7159 1.53653 3.25043 0.00216047 5.14258 0.00195312ZM5.14258 1.71289C4.19484 1.7131 3.42683 2.48094 3.42676 3.42871C3.42689 4.37643 4.19487 5.1453 5.14258 5.14551C6.09046 5.14551 6.85924 4.37656 6.85938 3.42871C6.8593 2.48081 6.09049 1.71289 5.14258 1.71289Z" fill="black"/>
</svg>
