<svg width="24" height="24" viewBox="0 0 24 24" fill="none" xmlns="http://www.w3.org/2000/svg">
<path fill-rule="evenodd" clip-rule="evenodd" d="M11.9993 0.644531C13.576 0.644568 14.8547 1.92325 14.8547 3.5C14.8547 4.77862 14.0134 5.86004 12.8547 6.22363V8.22852C14.1179 8.48017 15.1836 9.27861 15.7961 10.3662L17.7044 9.74707C17.6921 8.53274 18.4609 7.39805 19.677 7.00293C21.1766 6.51575 22.7874 7.33735 23.2747 8.83691C23.7617 10.3364 22.9412 11.9473 21.4417 12.4346C20.2256 12.8296 18.9375 12.3636 18.2336 11.374L16.3245 11.9941C16.3437 12.1601 16.3547 12.3289 16.3547 12.5C16.3547 13.639 15.9163 14.675 15.2004 15.4512L16.3811 17.0752C17.5321 16.6884 18.8483 17.0682 19.5999 18.1025C20.5266 19.3781 20.2434 21.164 18.968 22.0908C17.6925 23.0175 15.9066 22.7353 14.9797 21.46C14.2282 20.4255 14.2726 19.0553 14.9963 18.0801L13.8167 16.457C13.2633 16.7116 12.6483 16.8555 11.9993 16.8555C11.3505 16.8555 10.7351 16.7125 10.1819 16.458L9.00318 18.0811C9.72668 19.0562 9.77128 20.4256 9.01978 21.46C8.09292 22.7353 6.30702 23.0185 5.0315 22.0918C3.75586 21.165 3.47286 19.3782 4.39966 18.1025C5.15116 17.0683 6.46745 16.6885 7.61841 17.0752L8.7981 15.4521C8.08188 14.6759 7.6438 13.6393 7.6438 12.5C7.6438 12.3286 7.65382 12.1594 7.6731 11.9932L5.76685 11.374C5.06302 12.3637 3.77393 12.8297 2.55787 12.4346C1.05867 11.9471 0.237828 10.3363 0.724859 8.83691C1.21211 7.33731 2.82389 6.51568 4.32349 7.00293C5.53941 7.3981 6.30742 8.53283 6.29517 9.74707L8.20142 10.3662C8.814 9.27839 9.88047 8.48017 11.1438 8.22852V6.22363C9.98511 5.86006 9.1438 4.77864 9.1438 3.5C9.1438 1.92323 10.4225 0.644531 11.9993 0.644531ZM7.38306 18.8555C6.87156 18.4838 6.15618 18.597 5.78443 19.1084C5.41276 19.62 5.52585 20.3353 6.03736 20.707C6.54895 21.0787 7.26429 20.9657 7.63599 20.4541C8.00764 19.9426 7.89448 19.2272 7.38306 18.8555ZM18.2151 19.1084C17.8434 18.597 17.128 18.4838 16.6165 18.8555C16.1052 19.2272 15.9919 19.9426 16.3635 20.4541C16.7352 20.9656 17.4506 21.0787 17.9622 20.707C18.4738 20.3353 18.5868 19.62 18.2151 19.1084ZM11.9993 9.85547C10.5385 9.85547 9.35474 11.0392 9.35474 12.5C9.35474 13.9608 10.5385 15.1445 11.9993 15.1445C13.46 15.1445 14.6438 13.9608 14.6438 12.5C14.6438 11.0392 13.46 9.85551 11.9993 9.85547ZM3.79419 8.63086C3.19283 8.43553 2.54723 8.76389 2.35181 9.36523C2.1564 9.96665 2.48575 10.6122 3.08716 10.8076C3.68844 11.0029 4.33401 10.6744 4.52955 10.0732C4.72496 9.47183 4.39561 8.82627 3.79419 8.63086ZM21.6477 9.36523C21.4523 8.76383 20.8067 8.43447 20.2053 8.62988C19.6041 8.82534 19.2757 9.47098 19.471 10.0723C19.6664 10.6737 20.3119 11.003 20.9133 10.8076C21.5146 10.6121 21.8431 9.96658 21.6477 9.36523ZM11.9993 2.35547C11.3669 2.35547 10.8547 2.86763 10.8547 3.5C10.8547 4.13237 11.3669 4.64453 11.9993 4.64453C12.6316 4.64449 13.1438 4.13234 13.1438 3.5C13.1438 2.86766 12.6316 2.35551 11.9993 2.35547Z" fill="black"/>
</svg>
