<svg width="24" height="24" viewBox="0 0 24 24" fill="none" xmlns="http://www.w3.org/2000/svg">
<path d="M13.3721 0.858398C13.8441 0.858564 14.2266 1.24274 14.2266 1.71484C14.2263 2.18672 13.844 2.57015 13.3721 2.57031H12.8555V11.7715C12.8555 12.0901 12.9818 12.3957 13.207 12.6211C13.4324 12.8465 13.7389 12.9736 14.0576 12.9736C14.3762 12.9735 14.6819 12.8464 14.9072 12.6211C15.1325 12.3957 15.2598 12.0902 15.2598 11.7715C15.2598 11.2994 15.6422 10.9162 16.1143 10.916C16.5865 10.916 16.9697 11.2993 16.9697 11.7715C16.9697 12.5438 16.6623 13.2849 16.1162 13.8311C15.5702 14.3768 14.8296 14.6835 14.0576 14.6836C13.6385 14.6836 13.2301 14.5898 12.8555 14.4199V18.1543C12.8556 18.1601 12.8564 18.1661 12.8564 18.1719C12.8564 18.1781 12.8555 18.1842 12.8555 18.1904C12.8604 19.0481 13.2028 19.8698 13.8096 20.4766C14.4207 21.0877 15.2499 21.4316 16.1143 21.4316C16.9786 21.4316 17.8077 21.0876 18.4189 20.4766C19.0301 19.8654 19.374 19.0362 19.374 18.1719C19.374 17.6998 19.7565 17.3166 20.2285 17.3164C20.7007 17.3164 21.084 17.6997 21.084 18.1719C21.0839 19.4897 20.5598 20.7537 19.6279 21.6855C18.696 22.6173 17.4321 23.1416 16.1143 23.1416C14.7964 23.1415 13.5324 22.6174 12.6006 21.6855C12.3759 21.4609 12.1756 21.2164 12 20.957C11.8245 21.2162 11.6249 21.461 11.4004 21.6855C10.4686 22.6173 9.20447 23.1415 7.88672 23.1416C6.56896 23.1416 5.30493 22.6172 4.37305 21.6855C3.44119 20.7537 2.91706 19.4897 2.91699 18.1719C2.91699 17.6997 3.30026 17.3164 3.77246 17.3164C4.24444 17.3167 4.62793 17.6998 4.62793 18.1719C4.62799 19.0362 4.97086 19.8654 5.58203 20.4766C6.19322 21.0876 7.02249 21.4316 7.88672 21.4316C8.75095 21.4315 9.58029 21.0877 10.1914 20.4766C10.7873 19.8806 11.1278 19.0773 11.1445 18.2363V14.4209C10.7704 14.5905 10.362 14.6835 9.94336 14.6836C9.17121 14.6835 8.42984 14.377 7.88379 13.8311C7.33773 13.2849 7.03027 12.5438 7.03027 11.7715C7.03027 11.2994 7.41365 10.9161 7.88574 10.916C8.35795 10.916 8.74121 11.2993 8.74121 11.7715C8.74121 12.0901 8.86756 12.3957 9.09277 12.6211C9.31816 12.8465 9.62462 12.9736 9.94336 12.9736C10.262 12.9735 10.5676 12.8464 10.793 12.6211C11.0137 12.4003 11.1394 12.1027 11.1445 11.791V2.57031H10.6289C10.157 2.57018 9.7737 2.18674 9.77344 1.71484C9.77344 1.24272 10.1568 0.85853 10.6289 0.858398H13.3721Z" fill="black"/>
<path fill-rule="evenodd" clip-rule="evenodd" d="M3.77246 10.46C3.95829 10.46 4.09974 10.5183 4.16992 10.5527C4.24674 10.5905 4.30603 10.6328 4.34375 10.6621C4.41877 10.7206 4.47989 10.784 4.52051 10.8291C4.60539 10.9234 4.69004 11.0377 4.76758 11.1494C4.92671 11.3788 5.10917 11.6788 5.28027 11.9951C5.45138 12.3115 5.62254 12.6634 5.75293 12.998C5.87225 13.3043 5.99902 13.6979 5.99902 14.0576C5.99898 14.6479 5.76402 15.2144 5.34668 15.6318C4.92928 16.0491 4.36265 16.2841 3.77246 16.2842C3.18221 16.2841 2.61568 16.0491 2.19824 15.6318C1.7808 15.2143 1.54497 14.648 1.54492 14.0576C1.54492 13.6979 1.67363 13.3043 1.79297 12.998C1.92339 12.6634 2.0945 12.3115 2.26562 11.9951C2.43668 11.6789 2.61826 11.3787 2.77734 11.1494C2.85495 11.0376 2.94046 10.9234 3.02539 10.8291C3.06606 10.784 3.12618 10.7205 3.20117 10.6621C3.23898 10.6327 3.29886 10.5906 3.37598 10.5527C3.44635 10.5182 3.58703 10.46 3.77246 10.46ZM3.76953 12.8086C3.62124 13.0827 3.48332 13.3687 3.38574 13.6191C3.33706 13.7441 3.30221 13.8507 3.28027 13.9355C3.2597 14.0152 3.25727 14.0531 3.25684 14.0576C3.25688 14.1945 3.31047 14.3261 3.40723 14.4229C3.50397 14.5195 3.63573 14.5741 3.77246 14.5742C3.90913 14.5741 4.04099 14.5194 4.1377 14.4229C4.23435 14.3261 4.28902 14.1944 4.28906 14.0576C4.28865 14.0535 4.28532 14.0156 4.26465 13.9355C4.24271 13.8507 4.20786 13.7441 4.15918 13.6191C4.06164 13.3688 3.92461 13.0827 3.77637 12.8086C3.77522 12.8065 3.77363 12.8039 3.77246 12.8018C3.77136 12.8038 3.77061 12.8065 3.76953 12.8086Z" fill="black"/>
<path fill-rule="evenodd" clip-rule="evenodd" d="M20.3418 10.4668C20.5922 10.4992 20.7588 10.6292 20.792 10.6543C20.8702 10.7133 20.9333 10.7771 20.9756 10.8232C21.0635 10.9192 21.1501 11.035 21.2285 11.1475C21.3894 11.3784 21.5717 11.6794 21.7422 11.9961C21.9128 12.3132 22.0826 12.6661 22.2119 13.001C22.3303 13.3077 22.4551 13.6997 22.4551 14.0576C22.455 14.6479 22.2201 15.2144 21.8027 15.6318C21.3853 16.0491 20.8188 16.2841 20.2285 16.2842C19.6382 16.2841 19.0717 16.0492 18.6543 15.6318C18.2368 15.2144 18.002 14.648 18.002 14.0576C18.002 13.6997 18.1277 13.3077 18.2461 13.001C18.3754 12.6661 18.5451 12.3132 18.7158 11.9961C18.8863 11.6794 19.0686 11.3783 19.2295 11.1475C19.3079 11.035 19.3945 10.9192 19.4824 10.8232C19.5247 10.7771 19.5878 10.7133 19.666 10.6543C19.7049 10.625 19.9166 10.4591 20.2285 10.459L20.3418 10.4668ZM20.2217 12.8066C20.0745 13.0802 19.9385 13.3659 19.8418 13.6162C19.7935 13.7412 19.7581 13.8484 19.7363 13.9336C19.715 14.0169 19.7132 14.0551 19.7129 14.0576C19.713 14.1945 19.7665 14.3261 19.8633 14.4229C19.96 14.5195 20.0917 14.5741 20.2285 14.5742C20.3652 14.5742 20.497 14.5194 20.5938 14.4229C20.6905 14.3261 20.745 14.1944 20.7451 14.0576C20.7451 14.0576 20.7422 14.0177 20.7207 13.9336C20.6989 13.8484 20.6645 13.7412 20.6162 13.6162C20.5195 13.3659 20.3835 13.0801 20.2363 12.8066C20.2339 12.8021 20.231 12.7975 20.2285 12.793C20.2261 12.7974 20.2241 12.8022 20.2217 12.8066Z" fill="black"/>
<path fill-rule="evenodd" clip-rule="evenodd" d="M8.0166 4.06836C8.13786 4.08651 8.23057 4.12651 8.2832 4.15234C8.36007 4.19012 8.4193 4.23236 8.45703 4.26172C8.53208 4.3202 8.59316 4.38361 8.63379 4.42871C8.71855 4.52284 8.80339 4.63643 8.88086 4.74805C9.03998 4.97738 9.22243 5.27743 9.39355 5.59375C9.56478 5.91029 9.73574 6.2628 9.86621 6.59766C9.98552 6.90388 10.1122 7.29752 10.1123 7.65723C10.1122 8.24743 9.8772 8.81402 9.45996 9.23145C9.04257 9.64867 8.4759 9.88366 7.88574 9.88379C7.29544 9.8837 6.72897 9.64883 6.31152 9.23145C5.89407 8.81398 5.65926 8.24759 5.65918 7.65723C5.65924 7.29752 5.78694 6.90388 5.90625 6.59766C6.0367 6.26293 6.20775 5.91015 6.37891 5.59375C6.54996 5.27759 6.73158 4.97726 6.89062 4.74805C6.96815 4.63635 7.05385 4.52287 7.13867 4.42871C7.17933 4.3836 7.23953 4.32008 7.31445 4.26172C7.35226 4.23231 7.41219 4.19017 7.48926 4.15234C7.55964 4.11785 7.70034 4.05866 7.88574 4.05859L8.0166 4.06836ZM7.88281 6.4082C7.73458 6.68225 7.59659 6.9684 7.49902 7.21875C7.45041 7.34355 7.41549 7.45033 7.39355 7.53516C7.37318 7.61406 7.37057 7.65223 7.37012 7.65723C7.3702 7.79407 7.42374 7.92569 7.52051 8.02246C7.61727 8.11915 7.74895 8.17374 7.88574 8.17383C8.02238 8.1737 8.15427 8.11899 8.25098 8.02246C8.34752 7.92572 8.40226 7.79391 8.40234 7.65723C8.4019 7.65276 8.39852 7.61485 8.37793 7.53516C8.35598 7.45024 8.32116 7.34376 8.27246 7.21875C8.1749 6.96836 8.03791 6.68233 7.88965 6.4082C7.88848 6.40605 7.88691 6.40352 7.88574 6.40137C7.88469 6.4033 7.88382 6.40619 7.88281 6.4082Z" fill="black"/>
<path fill-rule="evenodd" clip-rule="evenodd" d="M16.2012 4.06348C16.3948 4.08291 16.5298 4.1619 16.5723 4.1875C16.6417 4.22939 16.6933 4.27348 16.7227 4.2998C16.7829 4.35386 16.8331 4.4114 16.8672 4.45215C16.9396 4.53871 17.0174 4.64568 17.0918 4.75488C17.2438 4.97795 17.4248 5.27293 17.5986 5.58789C17.772 5.90202 17.948 6.2534 18.083 6.58789C18.2058 6.89211 18.3408 7.29073 18.3408 7.65723C18.3407 8.24754 18.1059 8.81399 17.6885 9.23145C17.271 9.64878 16.7046 9.88379 16.1143 9.88379C15.5239 9.8837 14.9575 9.6489 14.54 9.23145C14.1227 8.81399 13.8878 8.24754 13.8877 7.65723C13.8878 7.29073 14.0227 6.89211 14.1455 6.58789C14.2805 6.25343 14.4565 5.90203 14.6299 5.58789C14.8038 5.27286 14.9857 4.97796 15.1377 4.75488C15.2121 4.64573 15.2889 4.53868 15.3613 4.45215C15.3954 4.41139 15.4455 4.35394 15.5059 4.2998C15.5352 4.27351 15.5875 4.22956 15.6572 4.1875C15.7059 4.15812 15.8749 4.05869 16.1143 4.05859L16.2012 4.06348ZM16.1143 6.4375C15.9666 6.70667 15.8298 6.9849 15.7314 7.22852C15.681 7.35341 15.6446 7.45916 15.6221 7.54297C15.6032 7.61322 15.5995 7.64942 15.5986 7.65723C15.5987 7.79402 15.6523 7.9257 15.749 8.02246C15.8458 8.11923 15.9774 8.17374 16.1143 8.17383C16.2511 8.17383 16.3827 8.11911 16.4795 8.02246C16.5762 7.92569 16.6308 7.79402 16.6309 7.65723C16.63 7.6495 16.6254 7.61333 16.6064 7.54297C16.5839 7.45921 16.5484 7.35328 16.498 7.22852C16.3997 6.98482 16.262 6.70675 16.1143 6.4375Z" fill="black"/>
</svg>
