<svg width="24" height="24" viewBox="0 0 24 24" fill="none" xmlns="http://www.w3.org/2000/svg">
<path d="M16.333 7.6084C16.6281 7.23998 17.1665 7.17972 17.5352 7.47461C17.9036 7.76955 17.9627 8.30809 17.668 8.67676L10.8115 17.248C10.5232 17.6085 10.0003 17.6751 9.63086 17.3984L6.20215 14.8262C5.82439 14.5428 5.74793 14.0076 6.03125 13.6299C6.31463 13.2524 6.84987 13.1757 7.22754 13.459L9.99219 15.5322L16.333 7.6084Z" fill="black"/>
<path fill-rule="evenodd" clip-rule="evenodd" d="M12 0.00195312C18.626 0.00221703 23.9979 5.37406 23.998 12C23.9979 18.626 18.626 23.9978 12 23.998C5.37398 23.9979 0.00110851 18.6261 0.000976562 12C0.00112757 5.37399 5.37399 0.00210413 12 0.00195312ZM12 1.71289C6.3184 1.71304 1.71304 6.3184 1.71289 12C1.71302 17.6817 6.31838 22.2879 12 22.2881C17.6816 22.2878 22.288 17.6816 22.2881 12C22.2879 6.31846 17.6816 1.71315 12 1.71289Z" fill="black"/>
</svg>
