<svg width="24" height="24" viewBox="0 0 24 24" fill="none" xmlns="http://www.w3.org/2000/svg">
<path fill-rule="evenodd" clip-rule="evenodd" d="M11.9995 0.00390625C13.763 0.00399896 15.401 0.937213 16.3286 2.39258C17.5454 1.70017 19.0232 1.5199 20.3823 1.93848C22.0954 2.46634 23.431 3.88574 23.854 5.62695C24.1812 6.97425 23.9409 8.43017 23.1997 9.60156C22.585 10.5729 21.6455 11.3152 20.5689 11.7012V21.4229C20.5685 22.8284 19.4051 23.992 17.9995 23.9922H5.99952C4.59394 23.992 3.43052 22.8284 3.43018 21.4229V11.7002C2.35391 11.3142 1.4148 10.5725 0.800297 9.60156C0.0590165 8.43004 -0.181038 6.97423 0.146 5.62695C0.323085 4.89761 0.772722 4.11699 1.35205 3.4668C1.93406 2.81362 2.71466 2.21643 3.6167 1.93848C4.9757 1.51987 6.45361 1.70032 7.67041 2.39258C8.59796 0.937069 10.2359 0.00403028 11.9995 0.00390625ZM5.14014 19.541V21.4229C5.1405 21.884 5.53834 22.282 5.99952 22.2822H17.9995C18.4607 22.2821 18.8585 21.884 18.8589 21.4229V19.541H5.14014ZM11.9995 1.71484C10.584 1.715 9.27539 2.63071 8.79151 3.96094C8.69424 4.22816 8.47078 4.43036 8.19483 4.49902C7.91874 4.56757 7.62561 4.49344 7.41455 4.30273C6.53246 3.50527 5.25708 3.22235 4.12061 3.57227C3.59806 3.73325 3.06877 4.11146 2.6294 4.60449C2.18736 5.10059 1.90352 5.63755 1.80811 6.03027C1.59045 6.92703 1.75127 7.90772 2.24463 8.6875C2.73815 9.46723 3.55591 10.0326 4.45948 10.2197C4.85606 10.3022 5.14014 10.6525 5.14014 11.0576V17.8301H18.8589V11.0576C18.8589 10.6523 19.1437 10.302 19.5405 10.2197C20.4441 10.0325 21.2618 9.46742 21.7554 8.6875C22.2487 7.90777 22.4096 6.9269 22.1919 6.03027C21.9109 4.87416 21.0157 3.92247 19.8794 3.57227C18.7427 3.22209 17.4667 3.50497 16.5845 4.30273C16.3735 4.4935 16.0813 4.56746 15.8052 4.49902C15.5291 4.43047 15.3049 4.22824 15.2075 3.96094C14.7236 2.6308 13.415 1.71496 11.9995 1.71484Z" fill="black"/>
</svg>
