<svg width="24" height="24" viewBox="0 0 24 24" fill="none" xmlns="http://www.w3.org/2000/svg">
<path d="M12.001 6.85938C12.473 6.85964 12.8564 7.2428 12.8564 7.71484V11.6846L17.0039 16.5176C17.3109 16.8759 17.2702 17.4163 16.9121 17.7236C16.5539 18.031 16.0136 17.9897 15.7061 17.6318L11.3525 12.5576C11.2197 12.4028 11.1457 12.2049 11.1455 12.001V7.71484C11.1455 7.24264 11.5288 6.85938 12.001 6.85938Z" fill="black"/>
<path fill-rule="evenodd" clip-rule="evenodd" d="M12 0.00195312C18.6262 0.00195312 23.9979 5.3739 23.998 12C23.9979 18.6262 18.6262 23.998 12 23.998C5.37409 23.9978 0.00208507 18.626 0.00195312 12C0.00210413 5.37407 5.3741 0.00223608 12 0.00195312ZM12 1.71289C6.31851 1.71317 1.71304 6.31848 1.71289 12C1.71302 17.6816 6.31849 22.2878 12 22.2881C17.6818 22.2881 22.288 17.6818 22.2881 12C22.2879 6.3183 17.6818 1.71289 12 1.71289Z" fill="black"/>
</svg>
