<svg width="24" height="24" viewBox="0 0 24 24" fill="none" xmlns="http://www.w3.org/2000/svg">
<path d="M23.1445 18.8588C23.6163 18.8593 23.999 19.2424 23.999 19.7143C23.999 20.1862 23.6163 20.5692 23.1445 20.5697H0.858398C0.386195 20.5697 0.00195312 20.1865 0.00195312 19.7143C0.0019655 19.2421 0.386203 18.8588 0.858398 18.8588H23.1445Z" fill="black"/>
<path d="M21.2129 3.73476C21.5257 3.38143 22.0663 3.34802 22.4199 3.66054C22.7734 3.97323 22.8065 4.51386 22.4941 4.86757L13.9258 14.558C12.9032 15.7144 11.0988 15.7144 10.0762 14.558L1.50781 4.86757C1.19504 4.51382 1.22829 3.97332 1.58203 3.66054C1.93579 3.34816 2.4764 3.38115 2.78906 3.73476L11.3574 13.4252C11.6994 13.8119 12.3025 13.8118 12.6445 13.4252L21.2129 3.73476Z" fill="black"/>
</svg>
