<svg width="24" height="24" viewBox="0 0 24 24" fill="none" xmlns="http://www.w3.org/2000/svg">
<path d="M23.1436 17.1448C23.6155 17.1452 23.998 17.5283 23.998 18.0003C23.998 18.4722 23.6154 18.8554 23.1436 18.8558H0.857422C0.385246 18.8558 0.00199803 18.4725 0.00195312 18.0003C0.00195312 17.5281 0.385218 17.1448 0.857422 17.1448H23.1436Z" fill="black"/>
<path d="M22.6953 4.41435C23.0973 4.16754 23.6237 4.29301 23.8711 4.69463C24.1185 5.09666 23.9927 5.62381 23.5908 5.87139L13.3701 12.1604C12.5299 12.6775 11.4701 12.6775 10.6299 12.1604L0.40918 5.87139C0.0070447 5.62391 -0.118529 5.09678 0.128906 4.69463C0.376479 4.29281 0.90365 4.167 1.30566 4.41435L11.5264 10.7044C11.817 10.8832 12.1839 10.8833 12.4746 10.7044L22.6953 4.41435Z" fill="black"/>
</svg>
