<svg width="24" height="24" viewBox="0 0 24 24" fill="none" xmlns="http://www.w3.org/2000/svg">
<path fill-rule="evenodd" clip-rule="evenodd" d="M19.5411 0.00195312C21.7042 0.00225124 22.899 2.51244 21.5353 4.19141L12.8546 14.875V22.2881H17.1427C17.6146 22.2883 17.997 22.6707 17.9972 23.1426C17.9972 23.6146 17.6147 23.9978 17.1427 23.998H6.85655C6.3845 23.9979 6.00108 23.6147 6.00108 23.1426C6.00129 22.6707 6.38463 22.2883 6.85655 22.2881H11.1446V14.875L2.46495 4.19141C1.10097 2.51234 2.29575 0.00195312 4.45909 0.00195312H19.5411ZM6.13585 5.99805L11.9991 13.2148L17.8644 5.99805H6.13585ZM4.45909 1.71289C3.73558 1.71289 3.33595 2.55173 3.7921 3.11328L4.7462 4.28711H19.254L20.2081 3.11328C20.664 2.55183 20.2643 1.71319 19.5411 1.71289H4.45909Z" fill="black"/>
</svg>
