<svg width="24" height="24" viewBox="0 0 24 24" fill="none" xmlns="http://www.w3.org/2000/svg">
<path fill-rule="evenodd" clip-rule="evenodd" d="M16.9772 4.9209C17.2224 4.92091 17.4636 4.95816 17.694 5.02832C17.8477 5.07512 17.9967 5.13621 18.1384 5.21191C18.2088 5.24957 18.2777 5.29049 18.3444 5.33496C18.4787 5.42447 18.6047 5.52782 18.7204 5.64355C18.778 5.70119 18.8323 5.76173 18.8835 5.82422C19.0374 6.01206 19.1625 6.22036 19.2546 6.44238C19.2853 6.51647 19.3123 6.59214 19.3356 6.66895C19.4057 6.89922 19.442 7.14064 19.4421 7.38574C19.4421 8.03932 19.1825 8.66672 18.7204 9.12891C18.5472 9.30214 18.3507 9.44726 18.1384 9.56055C18.0863 9.58834 18.0321 9.61178 17.9782 9.63574C17.8855 9.67706 17.7912 9.71453 17.694 9.74414C17.6174 9.76743 17.5395 9.78697 17.4606 9.80273C17.3027 9.8344 17.1407 9.85155 16.9772 9.85156C16.8957 9.85155 16.8145 9.84688 16.7341 9.83887C16.6532 9.83085 16.5731 9.81859 16.4938 9.80273C16.0994 9.72379 15.7288 9.5494 15.4157 9.29297C15.3824 9.26571 15.352 9.23515 15.32 9.20605C15.2916 9.18019 15.2614 9.15619 15.2341 9.12891C15.1999 9.09475 15.1693 9.05738 15.1374 9.02148C15.0613 8.93587 14.9894 8.84739 14.9265 8.75293C14.882 8.68621 14.8411 8.61736 14.8034 8.54688C14.7655 8.4759 14.7307 8.40335 14.6999 8.3291C14.5771 8.03289 14.5124 7.71244 14.5124 7.38574C14.5124 7.14062 14.5486 6.8992 14.6188 6.66895C14.6423 6.59215 14.6691 6.51645 14.6999 6.44238C14.8225 6.14636 15.0033 5.87449 15.2341 5.64355C15.4651 5.41257 15.7378 5.23202 16.0339 5.10938C16.108 5.07861 16.1836 5.05174 16.2604 5.02832C16.3372 5.00493 16.4149 4.98458 16.4938 4.96875C16.5727 4.95293 16.6526 4.94163 16.7331 4.93359C16.8138 4.92553 16.8954 4.92091 16.9772 4.9209ZM16.8298 6.64648C16.6847 6.67533 16.5502 6.74642 16.444 6.85254C16.3026 6.99394 16.2235 7.18578 16.2233 7.38574C16.2233 7.58585 16.3026 7.77841 16.444 7.91992C16.4608 7.93668 16.4806 7.94986 16.4987 7.96484C16.5488 8.00617 16.6024 8.04139 16.6608 8.06836C16.6702 8.0727 16.6786 8.07905 16.6882 8.08301C16.7338 8.10191 16.7812 8.11629 16.8298 8.12598C16.878 8.13558 16.9274 8.14061 16.9772 8.14062C17.0386 8.14062 17.0983 8.12963 17.1569 8.11523C17.2893 8.08273 17.4123 8.01787 17.5104 7.91992C17.6518 7.77857 17.7319 7.58659 17.7321 7.38672C17.7321 7.28678 17.7121 7.1884 17.6745 7.09766C17.6438 7.02337 17.5989 6.95609 17.5456 6.89453C17.5337 6.88074 17.5234 6.86551 17.5104 6.85254C17.4945 6.83661 17.4758 6.8239 17.4587 6.80957C17.4379 6.7923 17.4185 6.77365 17.3962 6.75879C17.3139 6.70405 17.2217 6.66573 17.1247 6.64648C17.0765 6.63691 17.0271 6.63184 16.9772 6.63184C16.9274 6.63185 16.8779 6.63691 16.8298 6.64648Z" fill="black"/>
<path fill-rule="evenodd" clip-rule="evenodd" d="M16.9763 0.858398C17.8551 0.858421 18.699 1.20437 19.3268 1.81934C19.7656 2.2491 20.0526 2.76623 20.2018 3.31836C21.4197 3.34959 22.581 4.05101 23.1325 5.18848C23.8294 6.62644 23.3776 8.35905 22.1677 9.30957C22.3268 10.3634 21.9692 11.4444 21.2184 12.1953C21.7111 14.0803 21.6026 16.092 20.7438 17.9551C19.7974 20.0081 17.9746 21.8116 15.2058 23.0654C15.0952 23.1154 14.9746 23.1406 14.8532 23.1406H7.85126C7.73022 23.1406 7.61004 23.1152 7.4997 23.0654C3.496 21.2589 1.48303 18.3852 1.22333 15.2598C0.967726 12.1814 2.43109 9.0541 4.96356 6.71191C5.36682 6.33687 5.89724 6.12717 6.44794 6.12695H8.10907L5.59345 3.31152C5.43286 3.15751 5.16552 3.13959 4.98505 3.26855L2.63642 5.59375C2.30079 5.9257 1.75952 5.92235 1.42743 5.58691C1.09567 5.25128 1.09792 4.70996 1.43329 4.37793L3.8288 2.00781C3.84984 1.987 3.87212 1.96676 3.8952 1.94824C4.70444 1.29906 5.8709 1.32051 6.6579 1.9707L6.81024 2.10938L6.84247 2.14355L10.403 6.12695H10.5349C10.569 5.9183 10.622 5.7118 10.696 5.51074C10.9845 4.72747 11.5556 4.07971 12.2966 3.69531C12.7476 3.46143 13.2423 3.33574 13.7419 3.32129C13.8977 2.75349 14.2047 2.23182 14.6257 1.81934C15.2535 1.20449 16.0975 0.858496 16.9763 0.858398ZM6.44892 7.83789L6.36103 7.8457C6.27449 7.86213 6.19397 7.90308 6.1286 7.96387L6.12665 7.96484C3.88517 10.0369 2.72495 12.6791 2.92743 15.1182C3.12321 17.4738 4.60698 19.8299 8.03974 21.4307H14.6618C17.0235 20.3241 18.4606 18.8238 19.1911 17.2393C19.8061 15.9051 19.9424 14.4645 19.6657 13.0664C18.7441 13.2883 17.7549 13.1096 16.9694 12.5732C15.9138 13.2807 14.5003 13.3502 13.3747 12.6758C12.2058 11.9752 11.5979 10.6226 11.7878 9.31152C11.3258 8.95316 10.9596 8.4799 10.736 7.93066C10.7236 7.9002 10.7133 7.86864 10.7018 7.83789H6.44892ZM16.9763 2.57031C16.5448 2.57041 16.1302 2.73912 15.822 3.04102C15.4994 3.35717 15.3212 3.79734 15.3366 4.22852C15.346 4.49914 15.2262 4.75898 15.0143 4.92773C14.8025 5.09614 14.5229 5.15472 14.2614 5.08496C13.8668 4.97961 13.4463 5.02486 13.0837 5.21289C12.7212 5.40101 12.4417 5.71837 12.3005 6.10156C12.209 6.35025 12.1797 6.61612 12.2126 6.875C12.2304 7.01479 12.266 7.1535 12.32 7.28613C12.474 7.66424 12.764 7.97164 13.1325 8.14746C13.5342 8.33901 13.7221 8.80662 13.5641 9.22266C13.2881 9.9502 13.5861 10.8089 14.2536 11.209C14.9211 11.6089 15.8184 11.4663 16.3298 10.8799C16.4929 10.6928 16.73 10.586 16.9782 10.5869C17.2266 10.588 17.4621 10.6971 17.6237 10.8857C18.1325 11.4796 19.0357 11.6261 19.7067 11.2246C19.7274 11.2122 19.7483 11.1988 19.7683 11.1855C20.3963 10.7683 20.664 9.93426 20.3903 9.22949C20.2281 8.81227 20.416 8.34013 20.82 8.14746C21.6201 7.76674 21.9838 6.74027 21.5934 5.93457C21.2592 5.24534 20.4345 4.87672 19.7009 5.08203C19.4435 5.15387 19.1667 5.10185 18.9538 4.94043C18.7408 4.77888 18.6161 4.52608 18.6159 4.25879C18.6159 3.7738 18.4492 3.35318 18.1306 3.04102C17.8223 2.73904 17.4078 2.57034 16.9763 2.57031Z" fill="black"/>
</svg>
