<svg width="24" height="24" viewBox="0 0 24 24" fill="none" xmlns="http://www.w3.org/2000/svg">
<path fill-rule="evenodd" clip-rule="evenodd" d="M14.5723 7.71582C15.6845 7.716 16.6424 8.44582 16.9951 9.44629C18.2895 9.51041 19.6461 9.80456 20.7783 10.9365C21.7425 11.9006 22.2842 13.209 22.2842 14.5723C22.2839 15.9352 21.7424 17.2431 20.7783 18.207C19.6641 19.3207 18.3322 19.622 17.0566 19.6924C16.6605 21.6418 14.9117 23.1406 12.8574 23.1406H7.71484C5.37554 23.1404 3.4309 21.1967 3.43066 18.8574V10.2852C3.43103 8.87979 4.59465 7.71625 6 7.71582H14.5723ZM6 9.42676C5.53904 9.42721 5.14198 9.82418 5.1416 10.2852V18.8574C5.14184 20.2523 6.31994 21.4305 7.71484 21.4307H12.8574C14.2525 21.4307 15.4304 20.2524 15.4307 18.8574V10.2852C15.4303 9.82406 15.0334 9.427 14.5723 9.42676H6ZM17.1416 17.9707C18.1284 17.895 18.9152 17.6517 19.5693 16.998C20.2125 16.3551 20.574 15.4819 20.5742 14.5723C20.5742 13.6625 20.2124 12.7897 19.5693 12.1465C18.9151 11.4923 18.1287 11.2475 17.1416 11.1719V17.9707Z" fill="black"/>
<path d="M7.71484 0.858398C8.18705 0.858398 8.57031 1.24264 8.57031 1.71484V5.14355C8.56997 5.61547 8.18684 5.99805 7.71484 5.99805C7.24296 5.99792 6.85971 5.61539 6.85938 5.14355V1.71484C6.85938 1.24272 7.24275 0.85853 7.71484 0.858398Z" fill="black"/>
<path d="M12.8584 0.858398C13.3304 0.858596 13.7139 1.24276 13.7139 1.71484V5.14355C13.7135 5.61535 13.3302 5.99785 12.8584 5.99805C12.3864 5.99805 12.0033 5.61547 12.0029 5.14355V1.71484C12.0029 1.24264 12.3862 0.858398 12.8584 0.858398Z" fill="black"/>
</svg>
