<svg width="24" height="24" viewBox="0 0 24 24" fill="none" xmlns="http://www.w3.org/2000/svg">
<path d="M23.1436 21.4307C23.6156 21.4309 23.998 21.8141 23.998 22.2861C23.9978 22.758 23.6154 23.1414 23.1436 23.1416H0.857422C0.385381 23.1416 0.00221723 22.7581 0.00195312 22.2861C0.00195312 21.8139 0.385218 21.4307 0.857422 21.4307H23.1436Z" fill="black"/>
<path fill-rule="evenodd" clip-rule="evenodd" d="M18.8574 6.00195C21.223 6.00215 23.1416 7.9205 23.1416 10.2861C23.1414 12.6516 21.2229 14.5691 18.8574 14.5693H17.8076C17.093 17.5202 14.4359 19.7128 11.2656 19.7129H9.30664C5.58849 19.7128 2.57337 16.6976 2.57324 12.9795V6.85742C2.57324 6.38526 2.95656 6.00202 3.42871 6.00195H18.8574ZM4.28418 12.9795C4.28431 15.7532 6.5329 18.0019 9.30664 18.002H11.2656C14.0393 18.0019 16.288 15.7532 16.2881 12.9795V7.71289H4.28418V12.9795ZM17.998 12.8594H18.8574C20.2785 12.8592 21.4314 11.7072 21.4316 10.2861C21.4316 8.86491 20.2786 7.71309 18.8574 7.71289H17.998V12.8594Z" fill="black"/>
<path d="M6 0.858398C6.4722 0.858398 6.85547 1.24264 6.85547 1.71484V3.42871C6.8552 3.90069 6.47204 4.28418 6 4.28418C5.52807 4.28405 5.1448 3.90061 5.14453 3.42871V1.71484C5.14453 1.24272 5.52791 0.85853 6 0.858398Z" fill="black"/>
<path d="M10.2861 0.858398C10.7583 0.858464 11.1416 1.24268 11.1416 1.71484V3.42871C11.1413 3.90065 10.7581 4.28411 10.2861 4.28418C9.81409 4.28418 9.43093 3.90069 9.43066 3.42871V1.71484C9.43066 1.24264 9.81393 0.858398 10.2861 0.858398Z" fill="black"/>
<path d="M14.5713 0.858398C15.0435 0.858398 15.4268 1.24264 15.4268 1.71484V3.42871C15.4265 3.90069 15.0433 4.28418 14.5713 4.28418C14.0994 4.28398 13.7161 3.90057 13.7158 3.42871V1.71484C13.7158 1.24276 14.0993 0.858596 14.5713 0.858398Z" fill="black"/>
</svg>
