<svg width="24" height="24" viewBox="0 0 24 24" fill="none" xmlns="http://www.w3.org/2000/svg">
<path fill-rule="evenodd" clip-rule="evenodd" d="M12.2098 9.12305C12.8803 9.04303 13.5464 9.09409 14.1658 9.28613C14.7867 9.47869 15.3446 9.80779 15.7976 10.2607C16.2507 10.7138 16.5806 11.2717 16.7732 11.8926C16.9654 12.5122 17.0154 13.1789 16.9353 13.8496C16.8552 14.52 16.6463 15.1873 16.3269 15.8154C16.0074 16.4439 15.5805 17.0267 15.073 17.5342C14.5656 18.0416 13.9827 18.4685 13.3543 18.7881C12.7262 19.1074 12.0588 19.3164 11.3885 19.3965C10.7178 19.4765 10.051 19.4265 9.43143 19.2344C8.81057 19.0417 8.25266 18.7119 7.7996 18.2588C7.34665 17.8057 7.01754 17.2478 6.82499 16.627C6.63292 16.0075 6.58188 15.3415 6.6619 14.6709C6.74199 14.0004 6.95182 13.3324 7.27128 12.7041C7.5908 12.0758 8.0169 11.4927 8.52421 10.9854C9.0315 10.4781 9.6147 10.052 10.243 9.73242C10.8712 9.413 11.5393 9.20315 12.2098 9.12305ZM13.7664 12.9736C13.4718 13.0271 13.2028 13.1773 13.0027 13.4004C12.7999 13.6268 12.6793 13.9153 12.6609 14.2188C12.6641 14.9274 12.4219 15.6166 11.9705 16.165C11.5026 16.7332 10.8442 17.1126 10.118 17.2324L10.1101 17.2334L9.3826 17.3457C9.55022 17.4513 9.73564 17.5377 9.93827 17.6006C10.3075 17.7151 10.7302 17.7535 11.1853 17.6992C11.6408 17.6448 12.1154 17.4993 12.5789 17.2637C13.0423 17.028 13.4801 16.7091 13.864 16.3252C14.248 15.9412 14.5669 15.5035 14.8025 15.04C15.0382 14.5765 15.1837 14.102 15.2381 13.6465C15.276 13.3286 15.2674 13.027 15.2205 12.748L13.7664 12.9736ZM13.659 10.9189C13.2898 10.8046 12.867 10.767 12.4119 10.8213C11.9565 10.8757 11.4817 11.0203 11.0183 11.2559C10.555 11.4915 10.1171 11.8104 9.73319 12.1943C9.34925 12.5783 9.03035 13.0161 8.79471 13.4795C8.55912 13.9429 8.41458 14.4176 8.36014 14.873C8.32225 15.1904 8.3304 15.4919 8.37675 15.7705L9.83964 15.5449C10.1573 15.4925 10.4455 15.3267 10.6502 15.0781C10.8547 14.8296 10.9624 14.515 10.9529 14.1934C10.9521 14.1677 10.9524 14.1408 10.9539 14.1152C10.9956 13.4266 11.2697 12.7715 11.7303 12.2578C12.191 11.7443 12.8119 11.4013 13.492 11.2852L13.5057 11.2832L14.2137 11.1729C14.0464 11.0677 13.8608 10.9816 13.659 10.9189Z" fill="black"/>
<path fill-rule="evenodd" clip-rule="evenodd" d="M17.4851 0.858398C18.3953 0.858509 18.9957 1.49629 19.2557 2.1377C19.5156 2.77951 19.5202 3.58594 19.156 4.2793C19.1337 4.32187 19.1081 4.36316 19.0789 4.40137L17.9334 5.89648C19.4546 7.0454 20.3971 9.12421 20.3973 11.3135V20.9141C20.4291 21.4292 20.2732 21.9393 19.9529 22.3467C19.6141 22.7773 19.1209 23.0596 18.5779 23.1328C18.5402 23.1379 18.5017 23.1406 18.4637 23.1406H5.53592C5.49788 23.1406 5.45937 23.1379 5.42167 23.1328C4.87843 23.0598 4.38459 22.7775 4.04569 22.3467C3.72542 21.9393 3.56951 21.4292 3.60135 20.9141V11.3135C3.60153 9.11713 4.54972 7.03134 6.07987 5.88477L4.98319 4.38672C4.96284 4.35894 4.94341 4.32983 4.92655 4.2998C4.53125 3.59391 4.53526 2.77405 4.80546 2.12598C5.07459 1.48089 5.68723 0.858455 6.58671 0.858398H17.4851ZM8.76346 6.68359C7.04004 6.68359 5.31157 8.55515 5.31132 11.3135V20.9141C5.31131 20.9435 5.31046 20.9736 5.30741 21.0029C5.29677 21.1057 5.32658 21.2089 5.39042 21.29C5.44801 21.3631 5.52956 21.4114 5.61991 21.4307H18.3787C18.4693 21.4114 18.5515 21.3633 18.6092 21.29C18.6729 21.2089 18.7028 21.1056 18.6922 21.0029C18.6891 20.9736 18.6873 20.9436 18.6873 20.9141V11.3135C18.687 8.55526 16.9595 6.68374 15.2361 6.68359H8.76346ZM6.58671 2.57031C6.5716 2.57034 6.47078 2.57527 6.38358 2.78418C6.30181 2.98051 6.30302 3.22885 6.40311 3.43164L7.63944 5.11914C7.99741 5.02397 8.37301 4.97266 8.76346 4.97266H15.2361C15.631 4.97267 16.0103 5.02577 16.3719 5.12305L17.6639 3.43457C17.7518 3.23061 17.7511 2.97926 17.6707 2.78027C17.5845 2.56767 17.4916 2.5702 17.4851 2.57031H6.58671Z" fill="black"/>
</svg>
