<svg width="24" height="24" viewBox="0 0 24 24" fill="none" xmlns="http://www.w3.org/2000/svg">
<path fill-rule="evenodd" clip-rule="evenodd" d="M7.69983 12.5941C9.41459 12.5942 10.8052 13.9849 10.8053 15.6996C10.8053 17.4144 9.41464 18.805 7.69983 18.8051C5.98499 18.8051 4.59436 17.4145 4.59436 15.6996C4.59445 13.9848 5.98504 12.5941 7.69983 12.5941ZM7.69983 14.3051C6.92945 14.3051 6.30538 14.9293 6.3053 15.6996C6.3053 16.4701 6.92939 17.0941 7.69983 17.0941C8.47024 17.0941 9.09436 16.47 9.09436 15.6996C9.09428 14.9293 8.47018 14.3051 7.69983 14.3051Z" fill="black"/>
<path fill-rule="evenodd" clip-rule="evenodd" d="M8.18714 7.35099C9.00248 7.3534 9.75781 7.87251 10.0514 8.63321C10.0939 8.74335 10.1278 8.87931 10.1481 8.95743C10.174 9.05749 10.198 9.15255 10.2282 9.25138C10.2913 9.45826 10.3586 9.60849 10.4283 9.70059C10.6066 9.93577 10.7574 10.0649 10.902 10.1479C11.0471 10.2311 11.2361 10.296 11.5319 10.3334C11.6464 10.3479 11.8113 10.3308 12.025 10.2816C12.1275 10.258 12.2228 10.2321 12.3248 10.2045C12.4027 10.1834 12.5423 10.1451 12.6657 10.1283C13.4607 10.0204 14.2676 10.4154 14.6696 11.1098C14.8013 11.3374 15.0047 11.7013 15.1266 11.9086C15.5415 12.6143 15.4764 13.5329 14.9664 14.1733C14.8952 14.2626 14.7985 14.359 14.7418 14.4164C14.6701 14.489 14.6016 14.5584 14.5328 14.6342C14.3891 14.7927 14.2938 14.9277 14.2487 15.0365C14.1343 15.3125 14.0957 15.509 14.0953 15.6762C14.0951 15.8425 14.1326 16.0372 14.2467 16.308C14.2916 16.4143 14.3879 16.5477 14.5367 16.7065C14.6081 16.7825 14.6787 16.8507 14.7535 16.9242C14.8115 16.9812 14.9132 17.0803 14.9889 17.1752C15.4994 17.8158 15.5637 18.7343 15.149 19.4399C15.028 19.6459 14.8234 20.0131 14.693 20.2387C14.2909 20.9338 13.4835 21.3285 12.6891 21.2211C12.5653 21.2044 12.4251 21.166 12.3473 21.1449C12.2453 21.1173 12.1509 21.0904 12.0485 21.0668C11.8347 21.0175 11.6698 21.0006 11.5553 21.015C11.2594 21.0525 11.0696 21.1173 10.9244 21.2006C10.7799 21.2836 10.63 21.4137 10.4518 21.6488C10.382 21.741 10.3147 21.8912 10.2516 22.0981C10.2214 22.1969 10.1965 22.2919 10.1705 22.392C10.1503 22.4702 10.1163 22.6053 10.0739 22.7152C9.7803 23.476 9.02551 23.9956 8.2096 23.9975C7.97689 23.998 7.47362 23.998 7.24085 23.9975C6.42502 23.9956 5.6701 23.4761 5.37659 22.7152C5.33414 22.6052 5.29921 22.4702 5.27893 22.392C5.25295 22.2919 5.22901 22.1969 5.19885 22.0981C5.13576 21.8912 5.06844 21.741 4.99866 21.6488C4.8205 21.4138 4.67055 21.2836 4.526 21.2006C4.38085 21.1173 4.1911 21.0524 3.89514 21.015C3.78066 21.0006 3.61583 21.0175 3.40198 21.0668C3.29945 21.0904 3.20427 21.1173 3.10217 21.1449C3.02425 21.1661 2.88471 21.2044 2.76135 21.2211C1.96695 21.3284 1.15951 20.9338 0.757448 20.2387C0.626912 20.013 0.421504 19.6459 0.300417 19.4399C-0.114083 18.7344 -0.0488407 17.8157 0.46155 17.1752C0.532603 17.0861 0.628478 16.9904 0.685183 16.933C0.756854 16.8605 0.825393 16.791 0.894167 16.7152C1.03809 16.5566 1.13319 16.4209 1.17835 16.3119C1.2927 16.0358 1.33137 15.8395 1.33167 15.6723C1.33194 15.5059 1.29442 15.3122 1.1803 15.0414C1.13547 14.9351 1.03925 14.8018 0.890261 14.643C0.818917 14.5669 0.748298 14.4978 0.673464 14.4242C0.615348 14.3671 0.513615 14.268 0.438112 14.1733C-0.0718715 13.533 -0.13686 12.6143 0.277956 11.9086C0.399858 11.7012 0.603259 11.3374 0.734987 11.1098C1.13691 10.4155 1.94387 10.0205 2.73889 10.1283C2.86139 10.145 3.00068 10.1825 3.07874 10.2035C3.18046 10.2309 3.27503 10.2572 3.37757 10.2807C3.5918 10.3298 3.75871 10.3477 3.87561 10.3334C4.17802 10.2964 4.37237 10.2316 4.52112 10.1479C4.66831 10.0649 4.82005 9.93496 4.99866 9.69962C5.06828 9.60781 5.1358 9.45817 5.19885 9.25138C5.22897 9.15256 5.25298 9.05754 5.27893 8.95743C5.29917 8.87936 5.33407 8.74344 5.37659 8.63321C5.67021 7.87274 6.42473 7.35352 7.23987 7.35099C7.47294 7.35029 7.95389 7.3503 8.18714 7.35099ZM7.24475 9.06095C7.13445 9.06151 7.01099 9.1466 6.97132 9.24942C6.96999 9.25406 6.96028 9.28554 6.93421 9.38614C6.9102 9.47875 6.87713 9.60984 6.8346 9.74942C6.75221 10.0197 6.61411 10.4002 6.36096 10.7338C6.07824 11.1063 5.75874 11.4128 5.36096 11.6371C4.96441 11.8606 4.53802 11.975 4.08264 12.0307C3.66815 12.0812 3.26979 12.0105 2.99573 11.9477C2.85432 11.9152 2.72371 11.8792 2.63342 11.8549C2.55008 11.8324 2.51653 11.8247 2.50842 11.8227C2.40063 11.8081 2.26905 11.872 2.21448 11.9662C2.11798 12.133 1.86519 12.5826 1.75159 12.7758C1.69573 12.8712 1.70704 13.0212 1.776 13.1078C1.77997 13.1118 1.80274 13.1367 1.87268 13.2055C1.94041 13.2721 2.0375 13.3666 2.13733 13.4731C2.33088 13.6794 2.59309 13.9897 2.75647 14.3774C2.93506 14.8011 3.04239 15.2242 3.04163 15.6752C3.04084 16.1252 2.93247 16.5471 2.75842 16.9672C2.60059 17.3479 2.3491 17.6561 2.16077 17.8637C2.06359 17.9708 1.9693 18.066 1.90198 18.1342C1.86651 18.1701 1.84051 18.1965 1.81995 18.2182C1.79818 18.2411 1.79393 18.2463 1.79846 18.2406C1.72961 18.3272 1.71879 18.4779 1.77503 18.5736C1.88949 18.7684 2.14022 19.2143 2.23792 19.3832C2.29233 19.4768 2.42337 19.5413 2.53186 19.5268C2.52167 19.5281 2.54202 19.5251 2.65491 19.4945C2.74507 19.4701 2.87654 19.4334 3.01819 19.4008C3.29271 19.3375 3.69336 19.2661 4.10999 19.3188C4.56361 19.3761 4.98473 19.4933 5.37659 19.7182C5.76898 19.9434 6.08281 20.2487 6.36096 20.6156C6.61373 20.9492 6.75219 21.3288 6.8346 21.599C6.87717 21.7387 6.91017 21.8696 6.93421 21.9623C6.96387 22.0767 6.97207 22.1019 6.97132 22.1C7.01113 22.2032 7.1351 22.2872 7.24475 22.2875C7.47502 22.288 7.97551 22.288 8.20569 22.2875C8.3152 22.2873 8.43813 22.2032 8.47815 22.1C8.47815 22.1 8.48683 22.0719 8.51526 21.9623C8.53929 21.8697 8.57327 21.7387 8.61585 21.599C8.69823 21.3289 8.83588 20.9491 9.0885 20.6156C9.3667 20.2486 9.68138 19.9434 10.0739 19.7182C10.4657 19.4933 10.8868 19.3761 11.3405 19.3188C11.7572 19.2661 12.1577 19.3375 12.4323 19.4008C12.5737 19.4334 12.7044 19.4701 12.7946 19.4945C12.9076 19.5252 12.9286 19.5281 12.9186 19.5268C13.0271 19.5412 13.1581 19.4767 13.2125 19.3832C13.3102 19.2143 13.5609 18.7685 13.6754 18.5736C13.7316 18.478 13.7206 18.3282 13.652 18.2416C13.65 18.2398 13.6284 18.2168 13.5543 18.144C13.4866 18.0774 13.3895 17.9828 13.2897 17.8764C13.0962 17.67 12.8339 17.3596 12.6705 16.9721C12.4919 16.5483 12.3846 16.1242 12.3854 15.6733C12.3862 15.2235 12.4946 14.8022 12.6686 14.3822C12.8264 14.0012 13.0778 13.6924 13.2662 13.4848C13.3635 13.3776 13.4587 13.2824 13.526 13.2143C13.5614 13.1784 13.5875 13.1519 13.608 13.1303C13.6192 13.1185 13.6256 13.1111 13.6285 13.1078C13.6976 13.0211 13.7081 12.8712 13.652 12.7758C13.5383 12.5824 13.2865 12.1329 13.1901 11.9662C13.1355 11.872 13.0039 11.8082 12.8961 11.8227C12.8876 11.8248 12.854 11.8327 12.7721 11.8549C12.6818 11.8794 12.5505 11.916 12.4088 11.9486C12.1343 12.0118 11.7343 12.0823 11.318 12.0297C10.8643 11.9723 10.4424 11.8562 10.0504 11.6313C9.65794 11.406 9.34425 11.0999 9.06604 10.7328C8.81335 10.3993 8.67479 10.0196 8.59241 9.74942C8.54987 9.6099 8.51682 9.47871 8.4928 9.38614C8.46639 9.28435 8.45684 9.25347 8.45569 9.24942C8.41597 9.14649 8.29265 9.06132 8.18225 9.06095C7.95241 9.06027 7.47447 9.06026 7.24475 9.06095Z" fill="black"/>
<path d="M18.9879 4.24747C19.6352 4.31311 20.1401 4.86035 20.1403 5.52481C20.1402 6.23355 19.566 6.80798 18.8571 6.80802L18.7692 6.80411L18.7662 6.80313C18.1431 6.75957 17.6423 6.27324 17.5797 5.65567L17.5729 5.52481L17.5797 5.39298C17.6458 4.74618 18.1926 4.24063 18.8571 4.24063L18.9879 4.24747Z" fill="black"/>
<path fill-rule="evenodd" clip-rule="evenodd" d="M19.1539 0.00137562C19.7548 0.00323656 20.3124 0.360095 20.5699 0.898837L20.6168 1.00919L20.6705 1.16251C20.6854 1.21038 20.6972 1.25506 20.7076 1.29337C20.7324 1.38443 20.7402 1.41886 20.7565 1.47403C20.7799 1.55357 20.7947 1.57794 20.8092 1.59708C20.9018 1.71914 20.9655 1.76717 21.0094 1.79239C21.0539 1.81786 21.1288 1.84897 21.2838 1.86856C21.3042 1.87112 21.3312 1.87169 21.4166 1.85099C21.4837 1.83471 21.5019 1.82778 21.6051 1.80118C21.6848 1.78064 21.79 1.75579 21.9088 1.73966L22.026 1.72891C22.5731 1.69717 23.1086 1.95997 23.4186 2.41153L23.4821 2.51114L23.6295 2.77188C23.6623 2.83057 23.6953 2.88939 23.7653 3.00821C24.0927 3.56429 24.0414 4.28289 23.6403 4.78653C23.5698 4.87489 23.5003 4.9491 23.4459 5.00528C23.3823 5.07109 23.3547 5.09636 23.317 5.13712C23.262 5.19667 23.2475 5.22304 23.2369 5.24845C23.177 5.39328 23.1658 5.47422 23.1657 5.52579C23.1656 5.57631 23.1759 5.65506 23.235 5.79532C23.2436 5.81577 23.2564 5.83953 23.3151 5.90079C23.3581 5.94568 23.3794 5.96561 23.4498 6.03653C23.5071 6.09419 23.5813 6.16977 23.6549 6.26212C24.0562 6.76567 24.1071 7.48431 23.7799 8.04044C23.7102 8.15889 23.677 8.21799 23.6442 8.27677C23.6085 8.3406 23.5707 8.40924 23.4957 8.53848C23.1794 9.08379 22.5496 9.39381 21.9235 9.30899C21.8046 9.29285 21.6995 9.26801 21.6198 9.24747C21.5164 9.22083 21.4984 9.21396 21.4313 9.19766C21.3454 9.17683 21.3179 9.17751 21.2975 9.18009C21.1425 9.19971 21.0675 9.23079 21.0231 9.25626C20.9792 9.28142 20.9163 9.32974 20.8239 9.45157C20.8096 9.47042 20.7946 9.49416 20.7711 9.57364C20.7546 9.62961 20.7472 9.66352 20.7223 9.75528C20.7014 9.83216 20.6722 9.93239 20.6305 10.0404C20.3994 10.6389 19.8095 11.0453 19.1676 11.0473C18.877 11.0481 18.8497 11.0481 18.5592 11.0473C17.9184 11.0452 17.3271 10.6392 17.0963 10.0395C17.0549 9.93179 17.0263 9.83186 17.0055 9.75528C16.9808 9.6643 16.973 9.62994 16.9567 9.57462C16.9332 9.49505 16.9185 9.47072 16.9039 9.45157C16.8115 9.32976 16.7486 9.28145 16.7047 9.25626C16.6603 9.23078 16.5853 9.19971 16.4303 9.18009C16.4099 9.1775 16.3826 9.17679 16.2965 9.19766C16.2293 9.21397 16.2115 9.22081 16.108 9.24747C16.0283 9.26801 15.9232 9.29286 15.8043 9.30899C15.1787 9.39368 14.5483 9.0839 14.2321 8.53751C14.1576 8.40887 14.1192 8.34123 14.0836 8.27774C14.0506 8.21876 14.0169 8.15954 13.9469 8.04044C13.6205 7.48492 13.6713 6.76605 14.0729 6.26212L14.2682 6.04337C14.3315 5.97795 14.3585 5.95223 14.3961 5.91153C14.4512 5.85186 14.4656 5.82572 14.4762 5.8002C14.5362 5.65518 14.5473 5.57439 14.5475 5.52286C14.5475 5.47228 14.5372 5.39346 14.4782 5.25333C14.4695 5.23294 14.4566 5.20892 14.3981 5.14786C14.3552 5.10313 14.3338 5.08304 14.2633 5.01212C14.2061 4.95451 14.1327 4.87866 14.0592 4.78653C13.6577 4.28251 13.6067 3.56365 13.9332 3.00821C14.0031 2.88932 14.036 2.82989 14.069 2.77091C14.1045 2.70746 14.143 2.63975 14.2174 2.51114L14.2799 2.41153C14.5901 1.95954 15.1263 1.69704 15.6735 1.72891L15.7907 1.73966L15.9557 1.76895C16.0065 1.77967 16.0526 1.79098 16.0924 1.80118C16.1955 1.82759 16.2137 1.83378 16.2809 1.85001C16.3677 1.87097 16.397 1.87035 16.4196 1.86759C16.5795 1.84798 16.6573 1.81661 16.7037 1.79044C16.7487 1.76504 16.8129 1.71729 16.9049 1.5961C16.9191 1.57728 16.9334 1.55294 16.9567 1.47403C16.9729 1.41892 16.9808 1.3845 17.0055 1.29337C17.0263 1.21675 17.0549 1.11687 17.0963 1.00919L17.1442 0.898837C17.4018 0.360199 17.9594 0.00315025 18.5602 0.00137562C18.8504 0.000518566 18.8634 0.000517478 19.1539 0.00137562ZM18.5973 1.95841C18.5428 2.14313 18.4535 2.38348 18.2662 2.63028C18.07 2.88877 17.8392 3.11402 17.5436 3.28067C17.2493 3.44654 16.9399 3.52653 16.6266 3.56485C16.3169 3.60272 16.0628 3.55636 15.8795 3.51212C15.7478 3.48031 15.6895 3.46577 15.6471 3.4545C15.6107 3.51812 15.5865 3.5615 15.5612 3.60684C15.5327 3.65764 15.5027 3.70904 15.4576 3.78653C15.4905 3.81925 15.533 3.86037 15.6334 3.96524C15.7661 4.10376 15.9329 4.30119 16.0543 4.58927C16.1779 4.88263 16.258 5.19078 16.2574 5.52579C16.2568 5.85965 16.176 6.16526 16.0563 6.4545C15.9401 6.73485 15.7827 6.93004 15.653 7.07071C15.547 7.18551 15.5063 7.22394 15.4713 7.26016C15.517 7.33874 15.5472 7.39062 15.5758 7.44181C15.601 7.48678 15.625 7.52956 15.6608 7.5922C15.7027 7.58094 15.7615 7.56752 15.8932 7.53556C16.077 7.49095 16.3328 7.44448 16.6442 7.4838C16.9572 7.52337 17.2642 7.60594 17.5553 7.77286C17.847 7.94029 18.0746 8.16532 18.2672 8.41934C18.4539 8.66576 18.5418 8.90572 18.5963 9.09024C18.6389 9.23469 18.6524 9.29128 18.6647 9.33731C18.8327 9.33778 18.8942 9.33778 19.0621 9.33731C19.0744 9.29138 19.089 9.23542 19.1315 9.09122C19.1858 8.90679 19.2735 8.66624 19.4606 8.41934C19.6532 8.16524 19.8808 7.94027 20.1725 7.77286C20.4635 7.60599 20.7707 7.52336 21.0836 7.4838C21.395 7.4445 21.6507 7.49095 21.8346 7.53556C21.9644 7.56706 22.0233 7.58092 22.0651 7.5922C22.101 7.52939 22.1269 7.48774 22.152 7.44278C22.1805 7.39173 22.21 7.33943 22.2555 7.26114C22.2227 7.22857 22.1794 7.18753 22.0797 7.08341C21.947 6.94485 21.7812 6.74741 21.6598 6.45938C21.5361 6.16591 21.4551 5.85801 21.4557 5.52286C21.4564 5.18892 21.538 4.88346 21.6578 4.59415C21.7741 4.31361 21.9313 4.11857 22.0612 3.97794C22.1675 3.86275 22.2067 3.82389 22.2418 3.78751C22.1963 3.70923 22.166 3.6572 22.1373 3.60587C22.112 3.56062 22.0873 3.51842 22.0514 3.45548C22.0096 3.46675 21.9506 3.48138 21.8199 3.51309C21.6361 3.5577 21.3804 3.60421 21.069 3.56485C20.7559 3.52526 20.449 3.44285 20.1578 3.27579C19.8661 3.10832 19.6395 2.8834 19.4469 2.62931C19.26 2.38267 19.1713 2.14301 19.1168 1.95841C19.0742 1.81378 19.0607 1.7574 19.0485 1.71134C18.8835 1.71088 18.8298 1.71088 18.6647 1.71134C18.6525 1.75729 18.6399 1.8139 18.5973 1.95841Z" fill="black"/>
</svg>
