<svg width="24" height="24" viewBox="0 0 24 24" fill="none" xmlns="http://www.w3.org/2000/svg">
<path d="M7.71484 4.28711C8.18697 4.28711 8.57018 4.67049 8.57031 5.14258V6.85938H10.2871C10.7591 6.85964 11.1426 7.2428 11.1426 7.71484C11.1423 8.18666 10.7589 8.57005 10.2871 8.57031H6.00098C5.52674 8.57054 5.1428 8.95447 5.14258 9.42871V18.001C5.14307 18.475 5.5269 18.8591 6.00098 18.8594H14.5732C15.0471 18.8589 15.4312 18.4748 15.4316 18.001V14.5723C15.4316 14.1001 15.8149 13.7168 16.2871 13.7168C16.7591 13.7171 17.1426 14.1002 17.1426 14.5723V15.4307H18.8584C19.3304 15.4309 19.7139 15.8141 19.7139 16.2861C19.7136 16.7579 19.3302 17.1413 18.8584 17.1416H17.1426V18.001C17.1421 19.4192 15.9915 20.5698 14.5732 20.5703H13.7139V22.2861C13.7136 22.7579 13.3302 23.1413 12.8584 23.1416C12.3864 23.1416 12.0032 22.7581 12.0029 22.2861V20.5703H8.57031V22.2861C8.57005 22.7581 8.18688 23.1416 7.71484 23.1416C7.24291 23.1415 6.85964 22.758 6.85938 22.2861V20.5703H6.00098C4.58249 20.5701 3.43213 19.4194 3.43164 18.001V17.1416H1.71484C1.24291 17.1415 0.859639 16.758 0.859375 16.2861C0.859375 15.814 1.24275 15.4308 1.71484 15.4307H3.43164V11.998H1.71484C1.24275 11.9979 0.859375 11.6147 0.859375 11.1426C0.859507 10.6706 1.24283 10.2872 1.71484 10.2871H3.43164V9.42871C3.43187 8.01007 4.58233 6.8596 6.00098 6.85938H6.85938V5.14258C6.85951 4.67057 7.24283 4.28724 7.71484 4.28711Z" fill="black"/>
<path fill-rule="evenodd" clip-rule="evenodd" d="M12.8574 10.2871C13.3295 10.2871 13.7128 10.6705 13.7129 11.1426V16.2852C13.7129 16.7574 13.3296 17.1406 12.8574 17.1406H7.71484C7.24275 17.1405 6.85938 16.7573 6.85938 16.2852V11.1426C6.85951 10.6706 7.24283 10.2872 7.71484 10.2871H12.8574ZM8.57031 15.4307H12.0029V11.998H8.57031V15.4307Z" fill="black"/>
<path fill-rule="evenodd" clip-rule="evenodd" d="M22.2871 0.858398C22.5949 0.858586 22.8796 1.02605 23.0312 1.29395C23.1825 1.56179 23.1778 1.89048 23.0195 2.1543L21.7393 4.28809H22.2871C22.6235 4.28829 22.9285 4.48616 23.0664 4.79297C23.2041 5.1 23.1493 5.4604 22.9258 5.71191L17.4404 11.8828C17.1899 12.1645 16.7835 12.2492 16.4414 12.0908C16.0994 11.9322 15.9021 11.5676 15.9551 11.1943L16.501 7.37012H15.4297C15.1616 7.37012 14.9086 7.24323 14.7471 7.0293C14.5858 6.81535 14.5341 6.53792 14.6074 6.28027L15.9795 1.47949L16.0283 1.34766C16.168 1.05344 16.4669 0.858528 16.8008 0.858398H22.2871ZM16.5635 5.66016H17.4873C17.7349 5.66036 17.9706 5.76801 18.1328 5.95508C18.2948 6.14224 18.368 6.39067 18.333 6.63574L18.0488 8.62305L20.3828 5.99805H20.2295C19.9217 5.99798 19.6372 5.83217 19.4854 5.56445C19.3338 5.29654 19.3378 4.96712 19.4961 4.70312L20.7764 2.57031H17.4463L16.5635 5.66016Z" fill="black"/>
</svg>
