<svg width="24" height="24" viewBox="0 0 24 24" fill="none" xmlns="http://www.w3.org/2000/svg">
<path fill-rule="evenodd" clip-rule="evenodd" d="M20.7041 0.858398C22.0498 0.858685 23.1414 1.95106 23.1416 3.29688V20.7041C23.1412 22.0497 22.0497 23.1413 20.7041 23.1416H3.29688C1.95114 23.1414 0.859794 22.0497 0.859375 20.7041V3.29688C0.859587 1.95104 1.95104 0.85861 3.29688 0.858398H20.7041ZM3.29688 2.57031C2.89545 2.57052 2.57052 2.89545 2.57031 3.29688V20.7041C2.57073 21.1054 2.8956 21.4314 3.29688 21.4316H20.7041C21.1053 21.4314 21.4312 21.1053 21.4316 20.7041V3.29688C21.4314 2.89552 21.1055 2.5706 20.7041 2.57031H3.29688Z" fill="black"/>
</svg>
