<svg width="24" height="24" viewBox="0 0 24 24" fill="none" xmlns="http://www.w3.org/2000/svg">
<path fill-rule="evenodd" clip-rule="evenodd" d="M3.2959 0.858398C3.94233 0.858398 4.56242 1.11711 5.01953 1.57422C5.47641 2.03122 5.73329 2.65068 5.7334 3.29688V16.1533C6.15115 16.3098 6.53987 16.5442 6.87793 16.8477C7.51906 17.4232 7.93001 18.2074 8.04297 19.0566H19.2979C19.8573 19.059 20.396 19.2543 20.8262 19.6045L21.0039 19.7637L21.0117 19.7715L22.8945 21.6865C23.2254 22.0231 23.2211 22.5645 22.8848 22.8955C22.5481 23.2266 22.0059 23.2214 21.6748 22.8848L19.7998 20.9785L19.6895 20.8887C19.6112 20.8367 19.5237 20.7998 19.4316 20.7812L19.291 20.7676H7.85742C7.65642 21.3191 7.32227 21.8189 6.87793 22.2178C6.1825 22.8419 5.27151 23.1721 4.33789 23.1387C3.40424 23.1049 2.51896 22.7107 1.87012 22.0381C1.2214 21.3656 0.858525 20.4666 0.858398 19.5322C0.858502 18.5981 1.22163 17.6998 1.87012 17.0273C2.44555 16.4309 3.20708 16.0534 4.02344 15.9521V3.29688C4.02333 3.10418 3.94672 2.9195 3.81055 2.7832C3.67413 2.64679 3.48882 2.57031 3.2959 2.57031H1.71387C1.24194 2.57018 0.858662 2.18674 0.858398 1.71484C0.858398 1.24272 1.24178 0.85853 1.71387 0.858398H3.2959ZM4.39941 17.6357C3.90817 17.6535 3.4419 17.8611 3.10059 18.2148C2.75972 18.5686 2.56944 19.0412 2.56934 19.5322C2.56946 20.0236 2.75953 20.4969 3.10059 20.8506C3.44182 21.2043 3.90806 21.4119 4.39941 21.4297C4.89054 21.4472 5.36966 21.2734 5.73535 20.9453L5.86621 20.8164C6.15446 20.5024 6.32934 20.0978 6.36035 19.6689C6.36533 19.5784 6.36531 19.487 6.36035 19.3965L6.33887 19.2139C6.27748 18.8536 6.11322 18.5182 5.86621 18.249L5.73535 18.1201C5.36956 17.7917 4.89065 17.6182 4.39941 17.6357Z" fill="black"/>
<path fill-rule="evenodd" clip-rule="evenodd" d="M18.3291 4.02344C19.6749 4.02357 20.7663 5.11514 20.7666 6.46094V13.582C20.7666 14.9281 19.6751 16.0194 18.3291 16.0195H11.208C9.86202 16.0193 8.77051 14.928 8.77051 13.582V6.46094C8.77085 5.11522 9.86223 4.02364 11.208 4.02344H18.3291ZM11.208 5.73438C10.8067 5.73458 10.4818 6.0596 10.4814 6.46094V13.582C10.4814 13.9837 10.8065 14.3094 11.208 14.3096H18.3291C18.7308 14.3094 19.0566 13.9837 19.0566 13.582V6.46094C19.0563 6.0596 18.7305 5.73451 18.3291 5.73438H11.208Z" fill="black"/>
</svg>
