<svg width="24" height="24" viewBox="0 0 24 24" fill="none" xmlns="http://www.w3.org/2000/svg">
<path d="M3.42773 3.43066C3.89994 3.43066 4.2832 3.81393 4.2832 4.28613V23.1436C4.28279 23.6154 3.89968 23.998 3.42773 23.998C2.95579 23.998 2.57268 23.6154 2.57227 23.1436V4.28613C2.57227 3.81393 2.95553 3.43066 3.42773 3.43066Z" fill="black"/>
<path d="M6.85645 3.43066C7.32859 3.43073 7.71191 3.81397 7.71191 4.28613V23.1436C7.7115 23.6154 7.32834 23.998 6.85645 23.998C6.3845 23.998 6.00139 23.6154 6.00098 23.1436V4.28613C6.00098 3.81393 6.38424 3.43066 6.85645 3.43066Z" fill="black"/>
<path d="M22.2852 0.00195312C22.7572 0.00215128 23.1406 0.385341 23.1406 0.857422C23.1405 1.32939 22.7571 1.71269 22.2852 1.71289H1.71387C1.24175 1.71289 0.858531 1.32951 0.858398 0.857422C0.858398 0.385218 1.24166 0.00195312 1.71387 0.00195312H22.2852Z" fill="black"/>
</svg>
