<svg width="24" height="24" viewBox="0 0 24 24" fill="none" xmlns="http://www.w3.org/2000/svg">
<path d="M3.42871 3.43066C3.9008 3.4308 4.28418 3.81401 4.28418 4.28613V23.1436C4.28377 23.6153 3.90055 23.9979 3.42871 23.998C2.95676 23.998 2.57366 23.6154 2.57324 23.1436V4.28613C2.57324 3.81393 2.95651 3.43066 3.42871 3.43066Z" fill="black"/>
<path d="M6.85742 3.43066C7.32951 3.4308 7.71289 3.81401 7.71289 4.28613V23.1436C7.71248 23.6153 7.32926 23.9979 6.85742 23.998C6.38547 23.998 6.00237 23.6154 6.00195 23.1436V4.28613C6.00195 3.81393 6.38522 3.43066 6.85742 3.43066Z" fill="black"/>
<path d="M13.9668 9.68164C14.3007 9.34781 14.8419 9.34777 15.1758 9.68164C15.5095 10.0155 15.5095 10.5568 15.1758 10.8906L13.207 12.8594H19.7148C20.1868 12.8597 20.5693 13.2428 20.5693 13.7148C20.5691 14.1866 20.1866 14.57 19.7148 14.5703H13.207L15.1758 16.5391C15.5093 16.873 15.5096 17.4143 15.1758 17.748C14.842 18.0814 14.3006 18.0815 13.9668 17.748L10.5381 14.3193C10.2043 13.9856 10.2046 13.4443 10.5381 13.1104L13.9668 9.68164Z" fill="black"/>
<path d="M22.2861 0.00195312C22.7581 0.0022173 23.1416 0.385381 23.1416 0.857422C23.1415 1.32935 22.758 1.71263 22.2861 1.71289H1.71484C1.24272 1.71289 0.85853 1.32951 0.858398 0.857422C0.858398 0.385218 1.24264 0.00195312 1.71484 0.00195312H22.2861Z" fill="black"/>
</svg>
