<svg width="24" height="24" viewBox="0 0 24 24" fill="none" xmlns="http://www.w3.org/2000/svg">
<path d="M3.42773 3.43066C3.89994 3.43066 4.2832 3.81393 4.2832 4.28613V23.1436C4.28279 23.6154 3.89968 23.998 3.42773 23.998C2.95579 23.998 2.57268 23.6154 2.57227 23.1436V4.28613C2.57227 3.81393 2.95553 3.43066 3.42773 3.43066Z" fill="black"/>
<path d="M6.85645 3.43066C7.32854 3.4308 7.71191 3.81401 7.71191 4.28613V23.1436C7.7115 23.6153 7.32828 23.9979 6.85645 23.998C6.3845 23.998 6.00139 23.6154 6.00098 23.1436V4.28613C6.00098 3.81393 6.38424 3.43066 6.85645 3.43066Z" fill="black"/>
<path d="M15.6807 9.68164C16.0146 9.34774 16.5558 9.34774 16.8896 9.68164L20.3184 13.1104C20.6518 13.4443 20.6521 13.9856 20.3184 14.3193L16.8896 17.748C16.5559 18.0815 16.0145 18.0814 15.6807 17.748C15.3469 17.4142 15.347 16.873 15.6807 16.5391L17.6494 14.5703H11.1426C10.6705 14.5703 10.2874 14.1868 10.2871 13.7148C10.2871 13.2426 10.6704 12.8594 11.1426 12.8594H17.6494L15.6807 10.8906C15.3468 10.5568 15.3469 10.0155 15.6807 9.68164Z" fill="black"/>
<path d="M22.2852 0.00195312C22.7571 0.0022173 23.1406 0.385381 23.1406 0.857422C23.1405 1.32935 22.7571 1.71263 22.2852 1.71289H1.71387C1.24175 1.71289 0.857554 1.32951 0.857422 0.857422C0.857422 0.385218 1.24166 0.00195312 1.71387 0.00195312H22.2852Z" fill="black"/>
</svg>
