<svg width="24" height="24" viewBox="0 0 24 24" fill="none" xmlns="http://www.w3.org/2000/svg">
<path fill-rule="evenodd" clip-rule="evenodd" d="M7.71484 9.43066C10.4794 9.43076 12.859 11.068 13.9434 13.4238C14.6461 13.0634 15.4428 12.8594 16.2861 12.8594C19.125 12.8595 21.4265 15.1611 21.4268 18C21.4265 20.8388 19.125 23.1415 16.2861 23.1416H7.71484C3.92909 23.1416 0.859639 20.0718 0.859375 16.2861C0.859375 12.5002 3.92893 9.43066 7.71484 9.43066ZM7.71484 11.1416C4.87333 11.1416 2.57031 13.4446 2.57031 16.2861C2.57058 19.1274 4.8735 21.4307 7.71484 21.4307H16.2861C18.1806 21.4305 19.7165 19.8944 19.7168 18C19.7166 16.1055 18.1806 14.5695 16.2861 14.5693C15.4385 14.5694 14.6642 14.8758 14.0654 15.3848C13.8421 15.5745 13.5366 15.637 13.2568 15.5498C12.9773 15.4624 12.7613 15.2371 12.6855 14.9541C12.0987 12.7578 10.0945 11.1417 7.71484 11.1416Z" fill="black"/>
<path fill-rule="evenodd" clip-rule="evenodd" d="M18.8574 0.858398C19.9933 0.858435 21.0825 1.31118 21.8857 2.11426C22.689 2.91757 23.1406 4.00754 23.1406 5.14355C23.1405 6.2794 22.6889 7.3687 21.8857 8.17188C21.0825 8.97494 19.9933 9.42672 18.8574 9.42676C17.7215 9.42669 16.6314 8.97507 15.8281 8.17188C15.0252 7.36873 14.5734 6.27924 14.5732 5.14355C14.5732 4.00765 15.025 2.91755 15.8281 2.11426C16.6314 1.31099 17.7214 0.858463 18.8574 0.858398ZM18.8574 2.57031C18.175 2.57038 17.5197 2.84066 17.0371 3.32324C16.5547 3.80585 16.2842 4.46117 16.2842 5.14355C16.2843 5.82572 16.5548 6.48043 17.0371 6.96289C17.5197 7.4454 18.175 7.71673 18.8574 7.7168C19.5398 7.71676 20.1942 7.44527 20.6768 6.96289C21.1592 6.4804 21.4305 5.82588 21.4307 5.14355C21.4307 4.46106 21.1593 3.80587 20.6768 3.32324C20.1942 2.84085 19.5398 2.57035 18.8574 2.57031Z" fill="black"/>
</svg>
