<svg width="24" height="24" viewBox="0 0 24 24" fill="none" xmlns="http://www.w3.org/2000/svg">
<path d="M22.2861 17.7574C22.616 17.7577 22.9171 17.9486 23.0586 18.2466C23.1998 18.5447 23.1566 18.8982 22.9482 19.1539L20.3906 22.2877H22.2861C22.7579 22.288 23.1404 22.6704 23.1406 23.1421C23.1406 23.6141 22.758 23.9972 22.2861 23.9976H18.5898C18.2598 23.9976 17.959 23.8074 17.8174 23.5093C17.6758 23.2111 17.719 22.8579 17.9277 22.6021L20.4844 19.4683H18.5898C18.1176 19.4683 17.7344 19.085 17.7344 18.6128C17.7344 18.1407 18.1177 17.7574 18.5898 17.7574H22.2861Z" fill="black"/>
<path d="M15.3994 15.7437C15.7295 15.7437 16.0302 15.9349 16.1719 16.233C16.3133 16.5311 16.271 16.8845 16.0625 17.1402L14.082 19.566H15.3994C15.8715 19.566 16.2547 19.9494 16.2549 20.4214C16.2547 20.8935 15.8715 21.2759 15.3994 21.2759H12.2812C11.9511 21.2759 11.6504 21.0859 11.5088 20.7877C11.3675 20.4895 11.4105 20.1361 11.6191 19.8804L13.5977 17.4546H12.2812C11.809 17.4546 11.4258 17.0714 11.4258 16.5992C11.426 16.1271 11.8092 15.7437 12.2812 15.7437H15.3994Z" fill="black"/>
<path d="M9.77441 0.172417C10.099 -0.0704409 10.5557 -0.0536399 10.8613 0.224175L19.7285 8.2857C20.0778 8.60329 20.1036 9.14432 19.7861 9.49371C19.4685 9.84292 18.9275 9.86878 18.5781 9.55132L10.2861 2.01226L1.99414 9.55132C1.81504 9.71414 1.71293 9.945 1.71289 10.1871V17.9996C1.71289 18.474 2.0969 18.8587 2.57129 18.8589H9.42871C9.90076 18.8591 10.2841 19.2423 10.2842 19.7144C10.284 20.1864 9.90071 20.5688 9.42871 20.5689H2.57129C1.15251 20.5687 0.00195312 19.4184 0.00195312 17.9996V10.1871C0.00198884 9.46322 0.308149 8.7726 0.84375 8.2857L9.71094 0.224175L9.77441 0.172417Z" fill="black"/>
<path d="M21.0186 11.1441C21.3486 11.1442 21.6495 11.3352 21.791 11.6334C21.9324 11.9315 21.8902 12.2849 21.6816 12.5406L20.4951 13.9947H21.0186C21.4906 13.9948 21.874 14.378 21.874 14.8502C21.8737 15.322 21.4905 15.7045 21.0186 15.7046H18.6934C18.3633 15.7046 18.0625 15.5145 17.9209 15.2164C17.7793 14.9181 17.8225 14.5649 18.0312 14.3091L19.2178 12.855H18.6934C18.2212 12.855 17.838 12.4717 17.8379 11.9996C17.8379 11.5274 18.2212 11.1441 18.6934 11.1441H21.0186Z" fill="black"/>
</svg>
