<svg width="24" height="24" viewBox="0 0 24 24" fill="none" xmlns="http://www.w3.org/2000/svg">
<path d="M20.8238 1.96746C21.1577 1.63371 21.6989 1.63361 22.0327 1.96746C22.3663 2.30134 22.3664 2.84263 22.0327 3.17645L13.2085 12.0007L22.0327 20.8249C22.3662 21.1588 22.3665 21.7001 22.0327 22.0339C21.699 22.3673 21.1576 22.3673 20.8238 22.0339L11.9995 13.2097L3.17532 22.0339C2.84147 22.3672 2.30011 22.3674 1.96634 22.0339C1.63259 21.7001 1.63288 21.1588 1.96634 20.8249L10.7906 12.0007L1.96634 3.17645C1.63254 2.84265 1.63274 2.30139 1.96634 1.96746C2.30023 1.63357 2.84142 1.63357 3.17532 1.96746L11.9995 10.7917L20.8238 1.96746Z" fill="black"/>
</svg>
