<svg width="24" height="24" viewBox="0 0 24 24" fill="none" xmlns="http://www.w3.org/2000/svg">
<path fill-rule="evenodd" clip-rule="evenodd" d="M11.999 0.00195312C15.3045 0.00195312 18.2997 1.3403 20.4688 3.50195C20.4739 3.50682 20.4794 3.51158 20.4844 3.5166C20.4909 3.52315 20.4966 3.53041 20.5029 3.53711C22.6612 5.70569 23.997 8.69752 23.9971 12C23.9969 18.6261 18.6252 23.998 11.999 23.998C8.68646 23.9979 5.68574 22.6544 3.51562 20.4844C1.34543 18.3142 0.00104261 15.3128 0.000976562 12C0.00112757 5.37407 5.37312 0.00223608 11.999 0.00195312ZM5.35645 19.8525C7.14939 21.371 9.46605 22.288 11.999 22.2881C17.6808 22.2881 22.287 17.6817 22.2871 12C22.287 9.46696 21.3701 7.15042 19.8516 5.35742L5.35645 19.8525ZM11.999 1.71289C6.31753 1.71317 1.71207 6.31848 1.71191 12C1.71197 14.5332 2.62895 16.8495 4.14746 18.6426L18.6426 4.14746C16.8495 2.62888 14.5323 1.71289 11.999 1.71289Z" fill="black"/>
</svg>
