<svg width="24" height="24" viewBox="0 0 24 24" fill="none" xmlns="http://www.w3.org/2000/svg">
<path d="M6.63477 17.7012C7.23947 17.7627 7.71179 18.2736 7.71191 18.8945C7.71179 19.5566 7.17475 20.0934 6.5127 20.0938C5.89153 20.0938 5.38061 19.6216 5.31934 19.0166L5.31738 18.9912C5.3138 18.9595 5.31251 18.9272 5.3125 18.8945C5.3125 18.8596 5.31428 18.8249 5.31836 18.791L5.31934 18.7715C5.38099 18.1669 5.89181 17.6943 6.5127 17.6943L6.63477 17.7012Z" fill="black"/>
<path fill-rule="evenodd" clip-rule="evenodd" d="M6.5127 10.46C7.47027 10.46 8.38929 10.8414 9.06641 11.5186C9.74317 12.1956 10.124 13.114 10.124 14.0713V14.7646C10.9319 15.1009 11.4999 15.8978 11.5 16.8271V20.9609C11.5 22.1942 10.4998 23.1943 9.2666 23.1943H3.75488C2.5218 23.1942 1.52148 22.1941 1.52148 20.9609V16.8271C1.52161 15.8965 2.09179 15.0991 2.90137 14.7637V14.0713C2.9014 13.1137 3.28282 12.1957 3.95996 11.5186C4.6371 10.8414 5.55508 10.46 6.5127 10.46ZM3.75488 16.3047C3.46631 16.3049 3.23259 16.5386 3.23242 16.8271V20.9609C3.23242 21.2497 3.46621 21.4842 3.75488 21.4844H9.2666C9.55542 21.4844 9.79004 21.2498 9.79004 20.9609V16.8271C9.78987 16.5385 9.55531 16.3047 9.2666 16.3047H3.75488ZM6.5127 12.1709C6.00863 12.1709 5.52542 12.3711 5.16895 12.7275C4.81247 13.084 4.61234 13.5672 4.6123 14.0713V14.5938H8.41406V14.0713C8.41403 13.5675 8.21352 13.084 7.85742 12.7275C7.50097 12.3711 7.01672 12.171 6.5127 12.1709Z" fill="black"/>
<path d="M18.2256 0.912109C19.5672 0.912488 20.6551 2.00116 20.6553 3.34277V20.666C20.6551 22.0076 19.5672 23.0953 18.2256 23.0957H14.2881C13.816 23.0956 13.4336 22.7124 13.4336 22.2402C13.4339 21.7684 13.8162 21.3858 14.2881 21.3857H18.2256C18.6228 21.3854 18.9452 21.0632 18.9453 20.666V3.34277C18.9452 2.94555 18.6228 2.62343 18.2256 2.62305H5.62695C5.22948 2.62305 4.90736 2.94533 4.90723 3.34277V8.06738C4.907 8.53923 4.5236 8.92161 4.05176 8.92188C3.57969 8.92188 3.19652 8.53939 3.19629 8.06738V3.34277C3.19642 2.00092 4.28508 0.912109 5.62695 0.912109H18.2256Z" fill="black"/>
<path d="M15.8643 11.9365C16.3361 11.937 16.7188 12.3201 16.7188 12.792C16.7186 13.2638 16.336 13.647 15.8643 13.6475H14.2891C13.8169 13.6475 13.4337 13.2641 13.4336 12.792C13.4336 12.3198 13.8169 11.9365 14.2891 11.9365H15.8643Z" fill="black"/>
</svg>
