<svg width="24" height="24" viewBox="0 0 24 24" fill="none" xmlns="http://www.w3.org/2000/svg">
<path fill-rule="evenodd" clip-rule="evenodd" d="M14.5713 0.00195312C15.9901 0.00195312 17.1404 1.1525 17.1406 2.57129V3.42871C17.1405 3.90076 16.7582 4.2841 16.2861 4.28418C15.8141 4.28405 15.4308 3.90072 15.4307 3.42871V2.57129C15.4304 2.09691 15.0457 1.71289 14.5713 1.71289H6.12793L10.2412 3.08398C11.2904 3.43369 11.998 4.41559 11.998 5.52148V18.8594H14.5713C15.0458 18.8594 15.4305 18.4745 15.4307 18V17.1436C15.4307 16.6714 15.814 16.2882 16.2861 16.2881C16.7583 16.2882 17.1406 16.6714 17.1406 17.1436V18C17.1405 19.4189 15.9902 20.5693 14.5713 20.5693H11.998V21.4287C11.9979 23.1824 10.2797 24.4206 8.61621 23.8662L1.75977 21.5811L1.75879 21.5801C0.710266 21.2301 0.00224818 20.249 0.00195312 19.1436V2.57129C0.00196305 2.49266 0.00673458 2.41471 0.0136719 2.33789C0.0153518 2.31926 0.0174557 2.30074 0.0195312 2.28223C0.0375281 2.12195 0.0700995 1.96633 0.116211 1.81641C0.117877 1.81098 0.118416 1.80521 0.120117 1.7998C0.143027 1.72705 0.169198 1.65573 0.198242 1.58594C0.205241 1.5691 0.213359 1.55278 0.220703 1.53613C0.24412 1.48309 0.269077 1.43096 0.295898 1.37988C0.304297 1.36388 0.312565 1.34784 0.321289 1.33203C0.355064 1.27088 0.391219 1.21128 0.429688 1.15332C0.439676 1.13826 0.449665 1.12323 0.459961 1.1084C0.491572 1.06288 0.52517 1.01889 0.55957 0.975586C0.577574 0.952915 0.595514 0.930242 0.614258 0.908203C0.652514 0.863229 0.692197 0.819553 0.733398 0.777344C0.747392 0.763006 0.762044 0.74936 0.776367 0.735352C0.876115 0.637803 0.983285 0.548044 1.09766 0.467773C1.1224 0.450395 1.14747 0.433509 1.17285 0.416992C1.18072 0.411874 1.18836 0.4064 1.19629 0.401367C1.20669 0.394769 1.21789 0.388931 1.22852 0.382812C1.61949 0.142275 2.07871 0.00207746 2.57129 0.00195312H14.5713ZM1.85938 2.09277C1.79362 2.19045 1.74777 2.30191 1.72656 2.42188C1.71806 2.47034 1.71291 2.52038 1.71289 2.57129V19.1436C1.71319 19.5128 1.94918 19.8408 2.2998 19.958L9.15723 22.2441C9.7136 22.4294 10.2879 22.015 10.2881 21.4287V5.52148C10.2881 5.15162 10.0511 4.82301 9.7002 4.70605L1.85938 2.09277Z" fill="black"/>
<path d="M17.3965 6.25293C17.7304 5.9191 18.2716 5.91905 18.6055 6.25293C18.939 6.58683 18.9392 7.12811 18.6055 7.46191L16.6367 9.43066H23.1436C23.6156 9.43082 23.998 9.81402 23.998 10.2861C23.9978 10.758 23.6155 11.1415 23.1436 11.1416H16.6367L18.6055 13.1104C18.9389 13.4443 18.9392 13.9856 18.6055 14.3193C18.2717 14.653 17.7304 14.6528 17.3965 14.3193L13.9678 10.8906C13.6339 10.5567 13.6339 10.0155 13.9678 9.68164L17.3965 6.25293Z" fill="black"/>
</svg>
