<svg width="24" height="24" viewBox="0 0 24 24" fill="none" xmlns="http://www.w3.org/2000/svg">
<path d="M12.1318 15.8662C12.779 15.932 13.2842 16.4789 13.2842 17.1436C13.2838 17.8522 12.7094 18.4266 12.001 18.4268C11.3365 18.4268 10.7895 17.9216 10.7236 17.2744L10.7168 17.1436L10.7236 17.0117C10.7896 16.3647 11.3365 15.8594 12.001 15.8594L12.1318 15.8662Z" fill="black"/>
<path d="M12.1318 4.72266C12.779 4.78836 13.2841 5.33546 13.2842 6C13.2841 6.70875 12.7096 7.283 12.001 7.2832C11.3363 7.2832 10.7892 6.77823 10.7236 6.13086L10.7168 6L10.7236 5.86816C10.7897 5.22125 11.3366 4.71582 12.001 4.71582L12.1318 4.72266Z" fill="black"/>
<path fill-rule="evenodd" clip-rule="evenodd" d="M18.8584 0.00195312C20.2769 0.00229382 21.4275 1.15271 21.4277 2.57129V19.7148C21.4275 22.0802 19.5089 23.9978 17.1436 23.998H6.8584C4.49282 23.998 2.57352 22.0804 2.57324 19.7148V2.57129C2.57347 1.15264 3.72491 0.00217917 5.14355 0.00195312H18.8584ZM4.28516 12.8555V19.7148C4.28544 21.1359 5.43723 22.2881 6.8584 22.2881H17.1436C18.5645 22.2878 19.7175 21.1358 19.7178 19.7148V12.8555H4.28516ZM5.14355 1.71289C4.66932 1.71312 4.28538 2.09705 4.28516 2.57129V11.1445H19.7178V2.57129C19.7175 2.09712 19.3325 1.71323 18.8584 1.71289H5.14355Z" fill="black"/>
</svg>
