<svg width="24" height="24" viewBox="0 0 24 24" fill="none" xmlns="http://www.w3.org/2000/svg">
<path d="M7.71484 16.2871C8.18697 16.2871 8.57018 16.6705 8.57031 17.1426V18.8564C8.57031 19.3286 8.18705 19.7119 7.71484 19.7119C7.24275 19.7118 6.85938 19.3286 6.85938 18.8564V17.1426C6.85951 16.6706 7.24283 16.2872 7.71484 16.2871Z" fill="black"/>
<path d="M16.2871 16.2871C16.759 16.2874 17.1424 16.6706 17.1426 17.1426V18.8564C17.1426 19.3285 16.7591 19.7116 16.2871 19.7119C15.8149 19.7119 15.4316 19.3286 15.4316 18.8564V17.1426C15.4318 16.6705 15.815 16.2871 16.2871 16.2871Z" fill="black"/>
<path fill-rule="evenodd" clip-rule="evenodd" d="M18.8584 0.00195312C20.2771 0.00216098 21.4275 1.15263 21.4277 2.57129V21.4287C21.4276 22.8474 20.2771 23.9978 18.8584 23.998H5.14355C3.72485 23.9978 2.57435 22.8474 2.57422 21.4287V2.57129C2.57444 1.15264 3.72491 0.00217917 5.14355 0.00195312H18.8584ZM4.28516 21.4287C4.28529 21.903 4.66926 22.2879 5.14355 22.2881H11.1455V13.7129H4.28516V21.4287ZM12.8564 22.2881H18.8584C19.3327 22.2879 19.7176 21.903 19.7178 21.4287V13.7129H12.8564V22.2881ZM4.28516 12.002H19.7178V7.71289H4.28516V12.002ZM5.14355 1.71289C4.66932 1.71312 4.28538 2.09705 4.28516 2.57129V6.00195H19.7178V2.57129C19.7175 2.09704 19.3327 1.7131 18.8584 1.71289H5.14355Z" fill="black"/>
</svg>
