<svg width="24" height="25" viewBox="0 0 24 25" fill="none" xmlns="http://www.w3.org/2000/svg">
<path fill-rule="evenodd" clip-rule="evenodd" d="M15.2679 0.000336232C15.311 -0.00158122 15.3696 0.00480204 15.4348 0.0169378H20.0638C20.3436 0.0170921 20.6062 0.154381 20.7659 0.384125C20.9256 0.614254 20.9624 0.908777 20.8645 1.17123L17.1448 11.1331L21.1731 20.4212C21.9089 22.1177 20.666 24.0129 18.8167 24.013H5.16629C3.32394 24.0126 2.07996 22.1297 2.80301 20.4349L6.76981 11.1361L3.05008 1.17123C2.95226 0.908827 2.98902 0.614197 3.14871 0.384125C3.30835 0.154291 3.57105 0.0171959 3.85086 0.0169378H8.38211C8.3932 0.0130253 8.40377 0.00822867 8.41434 0.00521904C8.5689 -0.00218621 8.80654 0.0420434 8.88895 0.074555C9.00946 0.12988 9.08941 0.201988 9.10086 0.21225C9.14371 0.250335 9.17388 0.286391 9.17899 0.292328C9.19616 0.312084 9.21067 0.329895 9.21414 0.334321C9.21954 0.341277 9.22512 0.348035 9.22879 0.352875C9.2361 0.362582 9.24517 0.37526 9.25321 0.386078C9.2873 0.431933 9.3444 0.508176 9.42215 0.606782C9.57928 0.806045 9.81926 1.09374 10.1136 1.3851C10.4107 1.6792 10.7451 1.95937 11.0872 2.16049C11.433 2.36369 11.7364 2.45645 11.9895 2.45346C12.2286 2.45053 12.5236 2.35395 12.8655 2.14487C13.2022 1.93895 13.5316 1.65617 13.8245 1.36166C14.1147 1.06991 14.3514 0.784806 14.5052 0.589203C14.5815 0.492073 14.6366 0.418281 14.6702 0.373383C14.678 0.362913 14.6873 0.350014 14.6956 0.339203C14.6996 0.333936 14.7071 0.324697 14.7151 0.314789C14.7191 0.309811 14.7256 0.301734 14.7337 0.292328C14.7395 0.285583 14.7584 0.263276 14.7845 0.237641C14.7962 0.226059 14.8261 0.197773 14.8675 0.166352C14.8887 0.150724 14.9426 0.115137 14.9759 0.0960394C15.0282 0.0698913 15.1738 0.0187832 15.2679 0.000336232ZM4.37625 21.1068C4.13486 21.6734 4.55046 22.3027 5.16629 22.3031H18.8167C19.4349 22.3029 19.8506 21.6692 19.6048 21.1019L15.6634 12.013H8.25613L4.37625 21.1068ZM8.28543 10.3031H15.6302L18.8313 1.7269H15.7825C15.6033 1.95058 15.349 2.25441 15.0374 2.56772C14.6884 2.91856 14.2515 3.30205 13.7581 3.60385C13.2698 3.90243 12.67 4.15525 12.011 4.16342C11.3376 4.1716 10.7227 3.92963 10.22 3.63413C9.71376 3.33642 9.26689 2.9528 8.91043 2.59995C8.58186 2.27466 8.31495 1.9577 8.13016 1.7269H5.08328L8.28543 10.3031ZM9.29031 0.457367C9.2889 0.454568 9.28738 0.450532 9.28738 0.450532L9.27371 0.425141C9.27996 0.435331 9.28457 0.446962 9.29031 0.457367Z" fill="black"/>
</svg>
