<svg width="24" height="24" viewBox="0 0 24 24" fill="none" xmlns="http://www.w3.org/2000/svg">
<path fill-rule="evenodd" clip-rule="evenodd" d="M7.0791 0.597656C8.05161 0.597786 8.98518 0.9842 9.67285 1.67188C10.155 2.15416 10.488 2.75756 10.6445 3.41016H17.626C18.9714 3.41029 20.2625 3.94509 21.2139 4.89648C22.1652 5.84797 22.7002 7.13885 22.7002 8.48438C22.7002 9.8299 22.1652 11.1208 21.2139 12.0723C20.2625 13.0237 18.9714 13.5585 17.626 13.5586H7.0791C6.37358 13.5586 5.69718 13.8391 5.19824 14.3379C4.69928 14.8369 4.41895 15.5131 4.41895 16.2188C4.41895 16.9244 4.69928 17.6006 5.19824 18.0996C5.69718 18.5984 6.37358 18.8789 7.0791 18.8789H10.4238C10.8508 17.2712 12.3845 16.0279 14.1387 16.0664C16.0032 16.1075 15.2815 16.0665 16.4844 16.0664C17.7639 16.0664 19.0155 16.4454 20.0801 17.1553C20.5418 17.4632 20.9203 17.7154 21.2344 17.9248C21.5485 18.1342 21.7991 18.301 22.0039 18.4375C22.9205 19.0489 22.9202 20.4187 22.0039 21.0303C21.7992 21.1668 21.5484 21.3336 21.2344 21.543C20.9203 21.7523 20.5418 22.0047 20.0801 22.3125C19.0155 23.0224 17.7639 23.4014 16.4844 23.4014C15.3734 23.4013 15.2212 23.401 13.9697 23.4014C12.3311 23.4019 10.8611 22.2744 10.4307 20.7021C10.4204 20.6648 10.4123 20.6271 10.4033 20.5898H7.0791C5.92005 20.5898 4.80791 20.1291 3.98828 19.3096C3.16863 18.4899 2.70801 17.3779 2.70801 16.2188C2.70801 15.0596 3.16863 13.9476 3.98828 13.1279C4.80791 12.3084 5.92005 11.8477 7.0791 11.8477H17.626L17.793 11.8438C18.6241 11.8023 19.4136 11.4545 20.0049 10.8633C20.6356 10.2325 20.9893 9.37638 20.9893 8.48438C20.9893 7.59237 20.6356 6.73627 20.0049 6.10547C19.3742 5.47476 18.5179 5.12122 17.626 5.12109H10.6455C10.4891 5.77378 10.1551 6.37702 9.67285 6.85938C8.98518 7.54705 8.05161 7.93346 7.0791 7.93359H4.96973C4.49752 7.93359 4.11426 7.55033 4.11426 7.07812V6.52734H2.15723C1.68502 6.52734 1.30078 6.14408 1.30078 5.67188C1.30078 5.19967 1.68502 4.81641 2.15723 4.81641H4.11426V3.71484H2.15723C1.68502 3.71484 1.30078 3.33158 1.30078 2.85938C1.30078 2.38717 1.68502 2.00391 2.15723 2.00391H4.11426V1.45312C4.11426 0.980922 4.49752 0.597656 4.96973 0.597656H7.0791ZM16.4844 17.7764C15.4662 17.7764 15.9365 17.8168 14.1016 17.7764C13.3005 17.7587 12.6073 18.2347 12.2588 18.8789H16.9229C17.3948 18.8792 17.7783 19.2623 17.7783 19.7344C17.7783 20.2064 17.3948 20.5896 16.9229 20.5898H12.2109C12.5359 21.2423 13.226 21.6916 13.9688 21.6914C15.2208 21.691 15.3742 21.6913 16.4844 21.6914C17.4261 21.6914 18.3473 21.413 19.1309 20.8906C19.5929 20.5826 19.9719 20.3296 20.2861 20.1201C20.5091 19.9715 20.6993 19.8434 20.8643 19.7334C20.6994 19.6235 20.5089 19.4962 20.2861 19.3477C19.9719 19.1382 19.5929 18.8862 19.1309 18.5781C18.3472 18.0556 17.4262 17.7764 16.4844 17.7764ZM5.8252 6.22266H7.0791C7.59809 6.22253 8.0959 6.0164 8.46289 5.64941C8.82984 5.28234 9.03613 4.78467 9.03613 4.26562L9.02734 4.07227C8.98289 3.62421 8.784 3.20305 8.46289 2.88184C8.14176 2.5607 7.72045 2.36194 7.27246 2.31738L7.0791 2.30859H5.8252V6.22266Z" fill="black"/>
</svg>
