<svg width="24" height="24" viewBox="0 0 24 24" fill="none" xmlns="http://www.w3.org/2000/svg">
<path d="M14.1099 20.2848C14.5818 20.285 14.9652 20.6684 14.9654 21.1403C14.9654 21.6123 14.5819 21.9955 14.1099 21.9957H12.856V22.5465C12.856 23.0186 12.4726 23.4018 12.0006 23.402C11.5284 23.402 11.1451 23.0187 11.1451 22.5465V21.9957H9.89119C9.41899 21.9957 9.03572 21.6125 9.03572 21.1403C9.03591 20.6682 9.4191 20.2848 9.89119 20.2848H14.1099Z" fill="black"/>
<path fill-rule="evenodd" clip-rule="evenodd" d="M11.8853 3.73304C12.1144 3.62029 12.3831 3.6153 12.6158 3.72035C12.8483 3.82552 13.0216 4.02971 13.0885 4.27601C13.1557 4.52408 13.3538 4.85971 13.7027 5.34828C14.0171 5.78841 14.4568 6.3562 14.8111 6.92445C15.5335 8.08307 16.1666 9.66086 15.107 11.3453C14.5121 12.2986 13.5074 12.5724 12.8189 12.6432C12.6175 12.6639 12.4266 12.6686 12.2574 12.6657C12.3156 13.0748 12.396 13.4813 12.5064 13.8834C12.631 14.3386 12.3629 14.8092 11.9078 14.9342C11.4526 15.059 10.9821 14.7907 10.857 14.3356C10.6951 13.7459 10.5837 13.1529 10.5172 12.5592C9.84495 12.4573 9.24568 12.2171 8.77498 11.8014C8.0052 11.1215 7.75062 10.1321 7.90193 9.06703L7.90584 9.03871C8.10566 7.904 8.57 6.83154 9.26131 5.9098C9.95262 4.98824 10.8521 4.24248 11.8853 3.73304ZM11.8912 5.71351C11.411 6.05168 10.9841 6.46344 10.6295 6.93617C10.1015 7.64011 9.7466 8.45863 9.59236 9.32484C9.50543 9.96429 9.67558 10.3159 9.90681 10.5202C10.0287 10.6277 10.2055 10.7256 10.4478 10.7975C10.4606 10.3369 10.495 9.87687 10.5523 9.41859C10.6111 8.95028 11.038 8.61788 11.5064 8.6764C11.9749 8.73507 12.3072 9.16299 12.2486 9.63148C12.1934 10.0731 12.163 10.5124 12.1549 10.9489C12.296 10.9565 12.4663 10.9603 12.6441 10.942C13.1199 10.8931 13.4739 10.7339 13.6568 10.441L13.6588 10.4371C14.1796 9.61083 13.9798 8.82292 13.3599 7.82874C13.0428 7.32022 12.6836 6.86395 12.3111 6.34242C12.1714 6.14687 12.0261 5.93501 11.8912 5.71351Z" fill="black"/>
<path fill-rule="evenodd" clip-rule="evenodd" d="M11.2095 0.628549C12.8009 0.481417 14.4023 0.780823 15.8326 1.49378C18.7241 2.93531 20.5893 5.95891 20.5894 9.18812C20.5894 12.7689 18.2895 16.0146 14.9644 17.2418V17.6364C14.9533 18.4711 14.2523 19.1723 13.4176 19.1832L13.4068 19.1842L10.5826 19.1832C9.74796 19.1721 9.04684 18.471 9.03572 17.6364V17.2409C6.23346 16.2042 4.11325 13.7237 3.55818 10.7643C2.96297 7.58916 4.24603 4.27376 6.82381 2.32679C8.09912 1.36368 9.61822 0.775728 11.2095 0.628549ZM15.0689 3.02406C13.9234 2.45316 12.6412 2.21284 11.3668 2.3307C10.0922 2.44858 8.87552 2.92059 7.85408 3.69203C5.79441 5.2479 4.76324 7.91176 5.23885 10.4489C5.71463 12.986 7.64106 15.0954 10.1246 15.7994C10.4923 15.9039 10.7457 16.2404 10.7457 16.6227V17.4733H13.2545V16.6227C13.2545 16.2401 13.5093 15.9035 13.8775 15.7994C16.7979 14.9743 18.8794 12.2229 18.8795 9.18812C18.8794 6.60547 17.3787 4.17546 15.0689 3.02406Z" fill="black"/>
</svg>
