<svg width="24" height="25" viewBox="0 0 24 25" fill="none" xmlns="http://www.w3.org/2000/svg">
<path fill-rule="evenodd" clip-rule="evenodd" d="M11.9995 0C12.4717 0 12.855 0.383265 12.855 0.855469V1.66211C13.1556 1.77946 13.4319 1.95785 13.6646 2.19043C14.1062 2.63208 14.355 3.23088 14.355 3.85547V5.24609C14.6761 6.51239 15.0455 7.76395 15.4575 9H16.4995C16.9717 9 17.355 9.38327 17.355 9.85547C17.355 10.3277 16.9717 10.7109 16.4995 10.7109H16.0581C16.5992 12.1669 17.204 13.5977 17.8696 15H19.4995C19.9717 15 20.355 15.3833 20.355 15.8555C20.355 16.3277 19.9717 16.7109 19.4995 16.7109H18.7202C19.6272 18.457 20.6293 20.1552 21.7271 21.7949L22.4185 22.8037L22.4839 22.9131L22.5142 22.9727C22.6466 23.2376 22.6327 23.5527 22.4771 23.8047C22.3212 24.0566 22.0458 24.2109 21.7495 24.2109H17.2495C16.7775 24.2107 16.394 23.8275 16.394 23.3555C16.394 21.4616 14.5547 19.7109 11.9995 19.7109C9.44455 19.7112 7.60498 21.4617 7.60498 23.3555C7.60498 23.8277 7.22172 24.2109 6.74951 24.2109H2.24951C1.95337 24.2108 1.67768 24.0566 1.52197 23.8047C1.36653 23.5528 1.35254 23.2375 1.48486 22.9727L1.51514 22.9131C1.53411 22.8752 1.55619 22.8384 1.58057 22.8037C2.95154 20.8542 4.18654 18.8179 5.28076 16.7109H4.49951C4.02753 16.7107 3.64404 16.3275 3.64404 15.8555C3.64404 15.3834 4.02753 15.0003 4.49951 15H6.12842C6.79405 13.5976 7.39889 12.167 7.93994 10.7109H7.49951C7.02753 10.7107 6.64404 10.3275 6.64404 9.85547C6.64404 9.38342 7.02753 9.00026 7.49951 9H8.54248C8.95447 7.76401 9.32297 6.51231 9.64404 5.24609V3.85547C9.64404 3.231 9.89297 2.63206 10.3345 2.19043C10.5669 1.95805 10.8438 1.78053 11.144 1.66309V0.855469C11.144 0.383425 11.5275 0.000258945 11.9995 0ZM7.1958 16.7109C6.2008 18.7033 5.0865 20.6375 3.854 22.5H5.97119C6.44393 19.8664 9.06566 18.0002 11.9995 18C14.9335 18 17.555 19.8663 18.0278 22.5H20.145C18.9126 20.6376 17.7992 18.7032 16.8042 16.7109H7.1958ZM9.75928 10.7109C9.23757 12.1651 8.65583 13.5961 8.01416 15H15.9858C15.3442 13.5961 14.7624 12.1651 14.2407 10.7109H9.75928ZM11.1587 6.21094C10.9107 7.14836 10.6409 8.0788 10.3442 9H13.6558C13.3591 8.07872 13.0883 7.14844 12.8403 6.21094H11.1587ZM11.9995 3.21094C11.8286 3.21106 11.6643 3.27857 11.5435 3.39941C11.4226 3.52035 11.355 3.68452 11.355 3.85547V4.5H12.644V3.85547C12.644 3.6844 12.5765 3.52037 12.4556 3.39941C12.3346 3.2786 12.1705 3.21094 11.9995 3.21094Z" fill="black"/>
</svg>
