<svg width="24" height="25" viewBox="0 0 24 25" fill="none" xmlns="http://www.w3.org/2000/svg">
<path d="M5.99902 15C6.47123 15 6.85449 15.3833 6.85449 15.8555C6.85449 16.3277 6.47123 16.7109 5.99902 16.7109H4.49902C4.02699 16.7107 3.64355 16.3276 3.64355 15.8555C3.64355 15.3834 4.02699 15.0002 4.49902 15H5.99902Z" fill="black"/>
<path d="M19.499 15C19.9712 15 20.3545 15.3833 20.3545 15.8555C20.3545 16.3277 19.9712 16.7109 19.499 16.7109H17.999C17.527 16.7107 17.1436 16.3276 17.1436 15.8555C17.1436 15.3834 17.527 15.0002 17.999 15H19.499Z" fill="black"/>
<path fill-rule="evenodd" clip-rule="evenodd" d="M17.668 6C18.1621 6.00005 18.644 6.15638 19.0449 6.44531C19.3958 6.69827 19.6694 7.04228 19.8369 7.43848L19.9023 7.61133L19.9238 7.6875L21.0264 12.4238L22.665 14.0615C23.106 14.503 23.3544 15.1026 23.3545 15.7266V18.8555C23.3545 19.4801 23.1057 20.0789 22.6641 20.5205C22.4315 20.753 22.155 20.9304 21.8545 21.0479V21.8555C21.8545 22.4801 21.6057 23.0789 21.1641 23.5205C20.7224 23.962 20.1235 24.2109 19.499 24.2109C18.8746 24.2108 18.2755 23.9621 17.834 23.5205C17.3925 23.0789 17.1436 22.48 17.1436 21.8555V21.2109H6.85449V21.8555C6.85449 22.4801 6.60571 23.0789 6.16406 23.5205C5.72243 23.962 5.12352 24.2109 4.49902 24.2109C3.87457 24.2108 3.27555 23.9621 2.83398 23.5205C2.39245 23.0789 2.14355 22.48 2.14355 21.8555V21.0469C1.84339 20.9294 1.5663 20.7528 1.33398 20.5205C0.892451 20.0789 0.643555 19.48 0.643555 18.8555V15.7266C0.643688 15.1025 0.891923 14.503 1.33301 14.0615L2.9707 12.4238L4.07422 7.6875C4.0802 7.66183 4.08738 7.63633 4.0957 7.61133C4.25188 7.14242 4.55227 6.73441 4.95312 6.44531C5.35397 6.15634 5.83593 6.00012 6.33008 6C6.80222 6.00003 7.18453 6.38331 7.18457 6.85547C7.18457 7.32764 6.80226 7.71089 6.33008 7.71094C6.19492 7.71103 6.06279 7.75304 5.95312 7.83203C5.85057 7.90605 5.77224 8.00905 5.72754 8.12695L4.82617 12H19.1719L18.2695 8.12695C18.2248 8.00915 18.1475 7.90596 18.0449 7.83203C17.9352 7.75308 17.8032 7.71096 17.668 7.71094C17.196 7.7107 16.8135 7.32751 16.8135 6.85547C16.8135 6.38343 17.196 6.00023 17.668 6ZM3.85449 21.8555C3.85449 22.0264 3.92212 22.1906 4.04297 22.3115C4.16384 22.4324 4.32809 22.4999 4.49902 22.5C4.67 22.5 4.83413 22.4324 4.95508 22.3115C5.07604 22.1906 5.14355 22.0265 5.14355 21.8555V21.2109H3.85449V21.8555ZM18.8545 21.8555C18.8545 22.0264 18.9221 22.1906 19.043 22.3115C19.1638 22.4324 19.3281 22.4999 19.499 22.5C19.67 22.5 19.8341 22.4324 19.9551 22.3115C20.076 22.1906 20.1436 22.0265 20.1436 21.8555V21.2109H18.8545V21.8555ZM2.54297 15.2715L2.54199 15.2705C2.42143 15.3914 2.35455 15.5558 2.35449 15.7266V18.8555L2.36621 18.9814C2.39091 19.1055 2.45223 19.2207 2.54297 19.3115C2.66384 19.4324 2.82809 19.4999 2.99902 19.5H20.999C21.17 19.5 21.3341 19.4324 21.4551 19.3115C21.576 19.1906 21.6436 19.0265 21.6436 18.8555V15.7266L21.6318 15.6006C21.6071 15.4766 21.5458 15.3613 21.4551 15.2705L19.8955 13.7109H4.10254L2.54297 15.2715Z" fill="black"/>
<path fill-rule="evenodd" clip-rule="evenodd" d="M13.499 0C13.9712 0 14.3545 0.383265 14.3545 0.855469V3H14.999C15.4712 3 15.8545 3.38327 15.8545 3.85547C15.8545 4.87788 15.4476 5.8581 14.7246 6.58105C14.2069 7.09872 13.5571 7.45312 12.8545 7.61328V9.85547C12.8545 10.3277 12.4712 10.7109 11.999 10.7109C11.527 10.7107 11.1436 10.3276 11.1436 9.85547V7.61328C10.4411 7.45302 9.79103 7.09865 9.27344 6.58105C8.5506 5.85812 8.14355 4.87779 8.14355 3.85547C8.14355 3.38339 8.52699 3.0002 8.99902 3H9.64355V0.855469C9.64355 0.383387 10.027 0.000198096 10.499 0C10.9712 0 11.3545 0.383265 11.3545 0.855469V3H12.6436V0.855469C12.6436 0.383387 13.027 0.000198096 13.499 0ZM10.0342 4.71094C10.1404 4.95495 10.2906 5.18022 10.4824 5.37207C10.8846 5.77425 11.4303 5.9999 11.999 6C12.5678 6 13.1134 5.77422 13.5156 5.37207C13.7075 5.18022 13.8576 4.95497 13.9639 4.71094H10.0342Z" fill="black"/>
</svg>
