<svg width="24" height="24" viewBox="0 0 24 24" fill="none" xmlns="http://www.w3.org/2000/svg">
<path fill-rule="evenodd" clip-rule="evenodd" d="M12.2256 0.00683594C17.4008 0.127297 21.5594 4.35838 21.5596 9.5625C21.5594 14.554 17.7335 18.6492 12.8545 19.082V22.2871H16.2852C16.7571 22.2873 17.1405 22.6706 17.1406 23.1426C17.1406 23.6147 16.7572 23.9978 16.2852 23.998H7.71387C7.24166 23.998 6.8584 23.6148 6.8584 23.1426C6.85853 22.6705 7.24175 22.2871 7.71387 22.2871H11.1436V19.082C6.26453 18.6491 2.4386 14.554 2.43848 9.5625C2.43862 4.28268 6.7192 0.00209949 11.999 0.00195312H12.0596C12.1153 0.0019582 12.1706 0.00453934 12.2256 0.00683594ZM12.4883 11.959C12.349 11.9823 12.2064 11.998 12.0605 11.998C11.9146 11.998 11.7721 11.9824 11.6328 11.959C11.0088 13.0829 11.3321 12.5009 10.3828 14.2109C9.77595 15.3039 8.75826 15.9396 7.6748 16.1133C8.91166 16.9315 10.3928 17.4096 11.9863 17.4121H12.0107C13.6796 17.4096 15.2251 16.8853 16.4961 15.9951C15.3705 15.8575 14.2988 15.2213 13.6689 14.0869C13.1199 13.0978 12.7396 12.4113 12.4961 11.9727C12.4936 11.9682 12.4908 11.9634 12.4883 11.959ZM7.06445 10.2842C5.44522 10.2845 4.45551 12.1211 5.29395 13.4697C6.13377 14.8204 8.11556 14.7712 8.8877 13.3809C9.83717 11.6705 9.51309 12.2529 10.1377 11.1279C9.92138 10.8834 9.75174 10.5982 9.64062 10.2842H7.06445ZM14.5107 10.2422C14.506 10.2423 14.5008 10.2421 14.4961 10.2422C14.3855 10.5732 14.2087 10.8723 13.9824 11.1279C13.9851 11.1328 13.9885 11.1377 13.9912 11.1426C14.2347 11.5812 14.615 12.2678 15.1641 13.2568C15.9402 14.6543 17.9449 14.6714 18.7441 13.2871C19.5434 11.9026 18.5261 10.1755 16.9277 10.2021C15.797 10.2212 15.0124 10.2337 14.5107 10.2422ZM12.0605 8.57031C11.5864 8.5706 11.2024 8.95452 11.2021 9.42871C11.2024 9.90287 11.5864 10.2878 12.0605 10.2881C12.5349 10.2881 12.9197 9.90305 12.9199 9.42871C12.9197 8.95434 12.535 8.57031 12.0605 8.57031ZM8.49902 2.53516C5.92063 3.82177 4.14952 6.4849 4.14941 9.5625C4.14942 9.69314 4.15189 9.82307 4.1582 9.95215C4.82899 9.12796 5.84435 8.57339 7.06445 8.57324H9.64062C9.74212 8.28615 9.88972 8.02102 10.0801 7.79102C9.43276 6.71197 9.8444 7.39759 8.83008 5.70703C8.21126 4.67561 8.15124 3.52848 8.49902 2.53516ZM15.6436 2.60938C15.9632 3.58544 15.8935 4.70105 15.29 5.70703C14.2757 7.39756 14.6859 6.71215 14.0391 7.79004C14.2211 8.00967 14.3644 8.26096 14.4658 8.5332C14.4709 8.53312 14.4763 8.53329 14.4814 8.5332C14.9832 8.52476 15.7682 8.51121 16.8994 8.49219C18.1208 8.47178 19.1557 9.01106 19.8418 9.83008C19.8448 9.74122 19.8496 9.65209 19.8496 9.5625C19.8495 6.54273 18.1436 3.92226 15.6436 2.60938ZM12.0332 1.71289C10.4501 1.7319 9.47827 3.46381 10.2959 4.82715C11.3099 6.51718 10.8993 5.83255 11.5459 6.91016C11.7122 6.87631 11.8843 6.85941 12.0605 6.85938C12.2361 6.85938 12.4076 6.87661 12.5732 6.91016C13.2197 5.83253 12.809 6.51757 13.8232 4.82715C14.6199 3.49928 13.7182 1.82183 12.208 1.71777C12.1499 1.71625 12.0916 1.71314 12.0332 1.71289Z" fill="black"/>
</svg>
