<svg width="24" height="24" viewBox="0 0 24 24" fill="none" xmlns="http://www.w3.org/2000/svg">
<path fill-rule="evenodd" clip-rule="evenodd" d="M11.1416 12.8594C12.5604 12.8594 13.7107 14.0099 13.7109 15.4287C13.7107 16.8475 12.5604 17.998 11.1416 17.998C9.72309 17.9977 8.57253 16.8472 8.57227 15.4287C8.57249 14.0101 9.72307 12.8597 11.1416 12.8594ZM11.1416 14.5703C10.6675 14.5707 10.2834 14.9546 10.2832 15.4287C10.2835 15.9028 10.6675 16.2877 11.1416 16.2881C11.616 16.2881 12.0007 15.9031 12.001 15.4287C12.0008 14.9543 11.616 14.5703 11.1416 14.5703Z" fill="black"/>
<path fill-rule="evenodd" clip-rule="evenodd" d="M17.999 12.8594C19.4179 12.8594 20.5681 14.0099 20.5684 15.4287C20.5681 16.8475 19.4178 17.998 17.999 17.998C16.5804 17.9978 15.43 16.8473 15.4297 15.4287C15.4299 14.0101 16.5804 12.8596 17.999 12.8594ZM17.999 14.5703C17.5248 14.5705 17.1409 14.9545 17.1406 15.4287C17.1409 15.9029 17.5248 16.2879 17.999 16.2881C18.4734 16.2881 18.8581 15.9031 18.8584 15.4287C18.8582 14.9543 18.4735 14.5703 17.999 14.5703Z" fill="black"/>
<path fill-rule="evenodd" clip-rule="evenodd" d="M11.1416 6.00195C12.5604 6.00195 13.7107 7.1525 13.7109 8.57129C13.7108 9.99015 12.5605 11.1406 11.1416 11.1406C9.72301 11.1403 8.5724 9.98993 8.57227 8.57129C8.57249 7.15272 9.72307 6.00231 11.1416 6.00195ZM11.1416 7.71289C10.6675 7.71325 10.2834 8.09713 10.2832 8.57129C10.2833 9.04553 10.6674 9.43031 11.1416 9.43066C11.6161 9.43066 12.0008 9.04575 12.001 8.57129C12.0008 8.09691 11.616 7.71289 11.1416 7.71289Z" fill="black"/>
<path fill-rule="evenodd" clip-rule="evenodd" d="M17.999 6.00195C19.4179 6.00195 20.5681 7.1525 20.5684 8.57129C20.5682 9.99015 19.4179 11.1406 17.999 11.1406C16.5803 11.1404 15.4298 9.99001 15.4297 8.57129C15.4299 7.15264 16.5804 6.00218 17.999 6.00195ZM17.999 7.71289C17.5248 7.71312 17.1409 8.09705 17.1406 8.57129C17.1408 9.04561 17.5247 9.43044 17.999 9.43066C18.4735 9.43066 18.8583 9.04575 18.8584 8.57129C18.8582 8.09691 18.4735 7.71289 17.999 7.71289Z" fill="black"/>
<path fill-rule="evenodd" clip-rule="evenodd" d="M19.7139 1.71582C22.0793 1.71608 23.9979 3.63452 23.998 6V18C23.998 20.3655 22.0793 22.2829 19.7139 22.2832H9.42871C7.06301 22.2832 5.14461 20.3657 5.14453 18V17.9121C3.18867 17.5159 1.71607 15.7875 1.71582 13.7148V8.57129C1.71559 8.09691 1.33088 7.71289 0.856445 7.71289C0.384435 7.71276 0.00110858 7.32943 0.000976562 6.85742C0.000976562 6.3853 0.384354 6.00209 0.856445 6.00195C2.27528 6.00195 3.42556 7.1525 3.42578 8.57129V13.7148C3.426 14.8358 4.14426 15.7859 5.14453 16.1387V6C5.14466 3.63436 7.06304 1.71582 9.42871 1.71582H19.7139ZM9.42871 3.42676C8.00745 3.42676 6.8556 4.57877 6.85547 6V18C6.85554 19.4213 8.00741 20.5732 9.42871 20.5732H19.7139C21.1349 20.573 22.288 19.4211 22.2881 18V6C22.288 4.57893 21.1349 3.42702 19.7139 3.42676H9.42871Z" fill="black"/>
</svg>
