<svg width="24" height="24" viewBox="0 0 24 24" fill="none" xmlns="http://www.w3.org/2000/svg">
<path fill-rule="evenodd" clip-rule="evenodd" d="M21.4287 1.71582C22.8475 1.71582 23.9977 2.86648 23.998 4.28516V19.7139C23.998 21.1329 22.8477 22.2832 21.4287 22.2832H2.57129C1.15262 22.2828 0.00195312 21.1327 0.00195312 19.7139V4.28516C0.00231113 2.86672 1.15283 1.71618 2.57129 1.71582H21.4287ZM13.4629 14.5996C12.5832 15.2084 11.4177 15.2084 10.5381 14.5996L1.71289 8.48926V19.7139C1.71289 20.1882 2.09702 20.5729 2.57129 20.5732H21.4287C21.9033 20.5732 22.2881 20.1885 22.2881 19.7139V8.48926L13.4629 14.5996ZM2.57129 3.42676C2.09725 3.42712 1.71325 3.81112 1.71289 4.28516V6.40918L11.5107 13.1934C11.8049 13.397 12.1951 13.3968 12.4893 13.1934L22.2881 6.40918V4.28516C22.2877 3.81088 21.9031 3.42676 21.4287 3.42676H2.57129Z" fill="black"/>
</svg>
