<svg width="24" height="24" viewBox="0 0 24 24" fill="none" xmlns="http://www.w3.org/2000/svg">
<path fill-rule="evenodd" clip-rule="evenodd" d="M11.4108 0.0154457C12.9669 -0.0518089 14.7869 0.11575 16.3727 0.788883C17.7458 1.37201 17.9478 2.95868 17.361 4.02619L14.3463 9.50666C14.3962 9.55356 14.4449 9.6014 14.4918 9.65119L16.8532 8.35334L17.1276 8.21076C18.514 7.53412 20.0769 7.40055 21.3815 7.86017C22.7287 8.33511 23.7607 9.43934 23.9557 11.0721L23.9831 11.4061V11.41C24.0499 12.9662 23.8818 14.7858 23.2086 16.3719C22.6255 17.7452 21.0398 17.9472 19.9723 17.3602L14.4928 14.3465C14.4456 14.3966 14.3965 14.4448 14.3463 14.492L15.6461 16.8543C16.4446 18.3061 16.6297 19.9912 16.1393 21.3826C15.6327 22.8194 14.4104 23.8975 12.5944 23.9842L12.5905 23.9852C11.0344 24.0525 9.21436 23.8838 7.62857 23.2108C6.25512 22.6277 6.05325 21.041 6.64029 19.9735L9.65298 14.494C9.60267 14.4466 9.55387 14.3978 9.5065 14.3475L7.14615 15.6463C5.69435 16.4447 4.00923 16.6298 2.61783 16.1395C1.18073 15.633 0.101929 14.4109 0.0152866 12.5945C-0.0571136 11.0365 0.1158 9.21319 0.789701 7.62775C1.37329 6.25496 2.95915 6.05218 4.02701 6.63947L9.50552 9.65216C9.55288 9.60186 9.6017 9.55304 9.65201 9.50568L8.35415 7.14533C7.55553 5.69332 7.37029 4.00854 7.86099 2.61701C8.36788 1.18011 9.59062 0.10197 11.4069 0.0154457H11.4108ZM12.8493 15.3182C12.5771 15.3879 12.2926 15.4266 11.9997 15.4266C11.7069 15.4266 11.4222 15.3887 11.1501 15.3192L8.13833 20.7977C8.03266 20.9901 8.01581 21.1935 8.05533 21.3465C8.09184 21.4869 8.17171 21.5831 8.29751 21.6365C9.56768 22.1755 11.1076 22.3365 12.5124 22.2762C13.5876 22.2249 14.2358 21.6401 14.527 20.8143C14.8342 19.9425 14.7445 18.7632 14.1481 17.6785L12.8493 15.3182ZM20.8131 9.47248C19.9958 9.18457 18.9079 9.24555 17.8815 9.74591L17.6774 9.85138L15.318 11.1483C15.388 11.421 15.4264 11.7063 15.4264 11.9998C15.4264 12.2926 15.3885 12.5773 15.319 12.8494L20.7956 15.8621C20.9878 15.9678 21.1913 15.9854 21.3444 15.9461C21.4853 15.9097 21.5819 15.8299 21.6354 15.7039C22.1746 14.4334 22.3351 12.893 22.2751 11.4871L22.2594 11.2899C22.1498 10.332 21.5873 9.7454 20.8131 9.47248ZM2.65396 8.05451C2.51308 8.09096 2.41658 8.17052 2.36294 8.2967C1.82241 9.5685 1.65835 11.1119 1.72329 12.5125C1.77451 13.588 2.36012 14.236 3.18619 14.5272C4.05787 14.8343 5.23645 14.7445 6.32095 14.1483L8.68033 12.8504C8.6105 12.578 8.57292 12.293 8.5729 11.9998C8.57292 11.7068 8.61054 11.4216 8.68033 11.1492L3.20279 8.13752C3.0103 8.03166 2.80716 8.01496 2.65396 8.05451ZM11.9997 10.284C11.6982 10.284 11.4169 10.3602 11.1725 10.4949C10.8877 10.652 10.6518 10.8888 10.4948 11.1736C10.3603 11.4179 10.2839 11.6987 10.2838 11.9998C10.2839 12.3012 10.3601 12.5826 10.4948 12.827C10.6519 13.1119 10.8885 13.3477 11.1735 13.5047C11.4177 13.6392 11.6985 13.7166 11.9997 13.7166C12.3011 13.7166 12.5824 13.6394 12.8268 13.5047C13.1087 13.3493 13.3417 13.1157 13.4987 12.8348C13.5001 12.8321 13.5021 12.8296 13.5036 12.827C13.5048 12.8248 13.5053 12.8223 13.5065 12.8201C13.6391 12.5772 13.7164 12.2987 13.7165 11.9998C13.7164 11.6985 13.6392 11.417 13.5045 11.1727C13.3475 10.888 13.1115 10.6519 12.8268 10.4949C12.5824 10.3602 12.3011 10.284 11.9997 10.284ZM11.4879 1.72248C10.4128 1.77379 9.76565 2.36044 9.47427 3.18634C9.16695 4.05817 9.25572 5.2366 9.8522 6.32111L11.1491 8.67951C11.4214 8.60975 11.7066 8.57307 11.9997 8.57306C12.2927 8.57307 12.5779 8.60973 12.8502 8.67951L15.8629 3.20197C15.9684 3.00983 15.9853 2.80704 15.946 2.65412C15.9095 2.51333 15.8297 2.41662 15.7038 2.3631C14.4334 1.82394 12.893 1.6621 11.4879 1.72248Z" fill="black"/>
</svg>
