<svg width="24" height="24" viewBox="0 0 24 24" fill="none" xmlns="http://www.w3.org/2000/svg">
<path fill-rule="evenodd" clip-rule="evenodd" d="M6.74512 7.30176C7.18604 7.02003 7.81196 6.93685 8.36914 7.29395C8.71126 7.51329 10.8771 9.03616 12.2129 9.97559C12.2132 9.27392 12.2115 8.74736 12.2148 8.60645L12.2334 8.39648C12.3104 7.91793 12.6057 7.52251 12.9736 7.29297C13.3836 7.03742 13.9531 6.94993 14.4775 7.23145L14.582 7.29297L15.4922 7.91895C16.8459 8.86234 19.1897 10.5171 19.459 10.7012C20.3531 11.3129 20.3665 12.6972 19.459 13.3184C19.0871 13.5725 15.0538 16.4035 14.582 16.7061C14.0288 17.0605 13.4053 16.9757 12.9678 16.7012C12.5414 16.4334 12.2119 15.9417 12.2139 15.3496L12.2119 14.0391C10.8761 14.9728 8.71258 16.4869 8.36914 16.707C7.81213 17.0639 7.18597 16.9808 6.74512 16.6992C6.32007 16.4276 5.99899 15.9333 6.00098 15.3496V8.65039C5.99895 8.06672 6.32016 7.57341 6.74512 7.30176ZM13.9238 15.085C14.8513 14.4515 17.6025 12.5254 18.3467 12.0088C17.6 11.4882 14.8501 9.55039 13.9229 8.91406C13.917 10.0349 13.9234 13.9456 13.9238 15.085ZM7.71191 15.084C8.64269 14.4485 11.3891 12.5266 12.1338 12.0098C11.3856 11.4883 8.64198 9.55322 7.71191 8.91504C7.71315 10.0466 7.71315 13.9504 7.71191 15.084Z" fill="black"/>
<path fill-rule="evenodd" clip-rule="evenodd" d="M11.999 0.00195312C15.181 0.00201781 18.2334 1.26662 20.4834 3.5166C22.7331 5.76653 23.997 8.81829 23.9971 12C23.997 15.1819 22.7334 18.2344 20.4834 20.4844C18.2334 22.7344 15.181 23.998 11.999 23.998C8.81731 23.998 5.76555 22.7341 3.51562 20.4844C1.26565 18.2344 0.00104125 15.1819 0.000976562 12C0.00105056 8.81807 1.26566 5.76657 3.51562 3.5166C5.76559 1.26663 8.81709 0.00202712 11.999 0.00195312ZM11.999 1.71289C9.27061 1.71296 6.65389 2.7963 4.72461 4.72559C2.79533 6.65487 1.71199 9.27159 1.71191 12C1.71198 14.7283 2.79549 17.3452 4.72461 19.2744C6.65387 21.2035 9.27073 22.288 11.999 22.2881C14.7274 22.288 17.3441 21.2037 19.2734 19.2744C21.2027 17.3451 22.287 14.7284 22.2871 12C22.287 9.27171 21.2026 6.65484 19.2734 4.72559C17.3442 2.79647 14.7273 1.71296 11.999 1.71289Z" fill="black"/>
</svg>
