<svg width="24" height="24" viewBox="0 0 24 24" fill="none" xmlns="http://www.w3.org/2000/svg">
<path d="M10.2865 4.28711C11.942 4.28719 13.2843 5.62977 13.2846 7.28516V13.0088L16.4936 12.9502C19.6282 12.8924 22.1188 15.5693 21.8354 18.6914L21.4242 23.2197C21.3815 23.6899 20.9648 24.0368 20.4946 23.9941C20.0246 23.9512 19.6785 23.5354 19.7211 23.0654L20.1323 18.5371C20.3238 16.4287 18.6424 14.6212 16.5258 14.6602L12.4457 14.7354C12.2163 14.7396 11.9943 14.651 11.8305 14.4902C11.6669 14.3295 11.5746 14.1093 11.5746 13.8799V7.28516C11.5744 6.57418 10.9976 5.99813 10.2865 5.99805C9.57553 5.99814 8.99875 6.57418 8.99846 7.28516V18C8.99835 18.3456 8.7904 18.6577 8.47112 18.79C8.15173 18.9223 7.78398 18.8488 7.53948 18.6045L5.50237 16.5674C5.0676 16.1332 4.36297 16.1332 3.92815 16.5674C3.54321 16.9523 3.49257 17.5598 3.80901 18.0029L7.12542 22.6455C7.39983 23.0297 7.31026 23.5634 6.9262 23.8379C6.54197 24.1123 6.00829 24.0238 5.73382 23.6396L2.41741 18.9971C1.61524 17.8738 1.74219 16.3344 2.71819 15.3584C3.82093 14.2559 5.60965 14.2558 6.71233 15.3584L7.2885 15.9346V7.28516C7.28879 5.62978 8.63113 4.2872 10.2865 4.28711Z" fill="black"/>
<path d="M10.2865 0.00195312C14.0725 0.00195312 17.142 3.0715 17.142 6.85742C17.142 7.53641 17.0427 8.19409 16.8578 8.81543C16.7231 9.26777 16.2468 9.52609 15.7944 9.3916C15.342 9.25696 15.0839 8.78051 15.2182 8.32812C15.3565 7.86334 15.4311 7.36957 15.4311 6.85742C15.4311 4.01591 13.1281 1.71289 10.2865 1.71289C7.44508 1.71294 5.14202 4.01594 5.14202 6.85742C5.14204 7.36957 5.21658 7.86334 5.35491 8.32812C5.4892 8.78053 5.23112 9.25696 4.77874 9.3916C4.32635 9.52599 3.85 9.26775 3.71526 8.81543C3.53036 8.19409 3.4311 7.53641 3.43108 6.85742C3.43108 3.07154 6.50068 0.00200403 10.2865 0.00195312Z" fill="black"/>
</svg>
