<svg width="24" height="24" viewBox="0 0 24 24" fill="none" xmlns="http://www.w3.org/2000/svg">
<path fill-rule="evenodd" clip-rule="evenodd" d="M21.8711 0.293818C22.9515 0.023928 23.998 0.84121 23.998 1.95495V6.61706C23.9977 7.73063 22.9515 8.54721 21.8711 8.27722L16.7275 6.99206C15.9658 6.80124 15.4307 6.11622 15.4307 5.33093V5.14147H10.2852V6.9198C13.192 7.33536 15.4266 9.83561 15.4268 12.8573V13.6971C15.4269 13.7029 15.4277 13.709 15.4277 13.7147C15.4277 13.7203 15.4269 13.7258 15.4268 13.7313V18.8397C15.4269 18.8454 15.4277 18.8515 15.4277 18.8573C15.4277 18.8628 15.4269 18.8684 15.4268 18.8739V21.4286C15.4266 22.8474 14.2763 23.9979 12.8574 23.9979H6C4.58147 23.9976 3.43086 22.8472 3.43066 21.4286V12.8573C3.4308 9.8352 5.66674 7.33485 8.57422 6.9198V5.14147H4.28613C2.8649 5.14161 1.71289 6.29345 1.71289 7.71472V11.1434C1.71254 11.6153 1.32941 11.9979 0.857422 11.9979C0.385547 11.9978 0.00230349 11.6153 0.00195312 11.1434V7.71472C0.00195312 5.34905 1.92049 3.43067 4.28613 3.43054H15.4307V3.24108C15.4307 2.4557 15.9657 1.77075 16.7275 1.57995L21.8711 0.293818ZM9.42871 8.57019C7.06093 8.57047 5.14175 10.4895 5.1416 12.8573V21.4286C5.1418 21.9028 5.52585 22.2876 6 22.288H12.8574C13.3319 22.288 13.7166 21.903 13.7168 21.4286V19.7128H11.1436C9.72496 19.7125 8.5745 18.5621 8.57422 17.1434V15.4286C8.57444 14.0099 9.72492 12.8595 11.1436 12.8592H13.7168V12.8573C13.7166 10.4893 11.7967 8.57019 9.42871 8.57019ZM11.1436 14.5702C10.6693 14.5704 10.2854 14.9544 10.2852 15.4286V17.1434C10.2854 17.6176 10.6693 18.0026 11.1436 18.0028H13.7168V14.5702H11.1436ZM17.1426 3.23913L17.1416 3.24108V5.33093L17.1426 5.33288L22.2852 6.61901L22.2881 6.61706V1.95397L22.2871 1.953H22.2852L17.1426 3.23913Z" fill="black"/>
</svg>
