<svg width="25" height="24" viewBox="0 0 25 24" fill="none" xmlns="http://www.w3.org/2000/svg">
<path d="M6.84897 14.394C7.32111 14.394 7.70433 14.7773 7.70444 15.2495C7.70444 15.7217 7.32118 16.1049 6.84897 16.1049C6.4791 16.105 6.12419 16.2516 5.86265 16.5131C5.60111 16.7747 5.4545 17.1296 5.45444 17.4995L5.46128 17.6371C5.49295 17.9564 5.63385 18.2569 5.86265 18.4858C6.12419 18.7473 6.4791 18.8939 6.84897 18.894C7.32111 18.894 7.70433 19.2773 7.70444 19.7495C7.70444 20.2217 7.32118 20.6049 6.84897 20.6049C6.02558 20.6048 5.23589 20.277 4.65366 19.6948C4.10798 19.149 3.78555 18.421 3.74741 17.6538L3.74351 17.4995C3.74356 16.676 4.07143 15.8864 4.65366 15.3041C5.23589 14.7219 6.02558 14.3941 6.84897 14.394Z" fill="black"/>
<path fill-rule="evenodd" clip-rule="evenodd" d="M14.141 0.170352C14.5988 0.0556714 15.0631 0.333737 15.1781 0.791446C15.2246 0.977163 15.8227 3.37108 16.5414 6.24555L19.6244 1.29731C19.8741 0.896765 20.4014 0.774333 20.8021 1.02387C21.2027 1.27357 21.3251 1.80088 21.0755 2.2016L17.1175 8.55316C17.6062 10.5078 18.099 12.4759 18.4759 13.9838C19.4809 14.2184 20.2623 14.4014 20.6361 14.4887C22.7056 14.9724 24.2046 16.8615 24.2044 18.9868C24.204 21.5081 22.108 23.6047 19.5863 23.6049C17.5373 23.6049 7.65569 23.6062 6.15757 23.6049C4.41788 23.6035 2.71708 22.8395 1.55991 21.5405C0.402824 20.2413 -0.159651 18.4641 0.0394036 16.7358C0.238473 15.0074 1.19042 13.4039 2.61265 12.4018C4.03474 11.4001 5.86464 11.043 7.55893 11.437C8.16612 11.5782 10.2406 12.0625 12.5775 12.6079L15.2835 8.2641C14.4002 4.73038 13.5755 1.42956 13.5199 1.20746C13.4054 0.749672 13.6833 0.28529 14.141 0.170352ZM7.17124 13.103C5.95153 12.8194 4.62073 13.079 3.59702 13.8002C2.5734 14.5216 1.88101 15.6871 1.73765 16.9311C1.59434 18.1753 2.00421 19.4685 2.83726 20.4038C3.67029 21.3386 4.90733 21.8939 6.15952 21.895C7.65828 21.8962 17.5364 21.895 19.5863 21.895C21.1633 21.8947 22.4942 20.5642 22.4945 18.9868C22.4946 17.6559 21.5423 16.4566 20.2464 16.1538C19.987 16.0932 19.5315 15.9867 18.9417 15.8491C19.0556 16.3047 19.1279 16.5907 19.1429 16.6508C19.3297 17.4001 19.1281 18.2136 18.6136 18.7895C18.099 19.3654 17.3129 19.6569 16.5472 19.5551C16.0578 19.4901 7.9716 18.4121 7.48569 18.3471C7.01785 18.2844 6.68879 17.8541 6.75132 17.3862C6.81397 16.9184 7.24442 16.5894 7.71226 16.6518C8.19687 16.7166 16.2849 17.795 16.7728 17.8598C16.9771 17.8869 17.2009 17.8035 17.3382 17.6498C17.4754 17.4963 17.5334 17.2647 17.4837 17.0649C17.4609 16.9733 17.3063 16.3555 17.0707 15.4125C13.4775 14.5739 8.20303 13.3429 7.17124 13.103ZM14.3363 13.018C15.1093 13.1984 15.8787 13.378 16.6039 13.5473C16.3775 12.6417 16.1228 11.6242 15.8597 10.5717L14.3363 13.018Z" fill="black"/>
</svg>
