<svg width="24" height="24" viewBox="0 0 24 24" fill="none" xmlns="http://www.w3.org/2000/svg">
<path fill-rule="evenodd" clip-rule="evenodd" d="M10.8108 0.527367C11.19 0.437354 11.5883 0.489892 11.9446 0.705101C12.2802 0.907996 12.5237 1.22125 12.7014 1.56448C12.7679 1.69281 12.9254 1.89379 13.2249 2.18264C13.5145 2.46206 13.8864 2.77572 14.3293 3.13674C15.1996 3.84595 16.3232 4.7185 17.4055 5.72952C19.5623 7.74427 21.7627 10.4936 21.7629 14.1397C21.7629 16.7276 20.7344 19.2101 18.9045 21.0401C17.13 22.8145 14.7423 23.8315 12.2395 23.8916C12.1601 23.8958 12.0802 23.8985 12.0002 23.8985C11.9183 23.8985 11.8366 23.895 11.7551 23.8906C9.25801 23.8267 6.8766 22.8108 5.10571 21.0401C3.27584 19.2101 2.24731 16.7276 2.24731 14.1397C2.1995 12.8358 2.52225 11.5445 3.17993 10.417C3.84371 9.27924 4.82061 8.35563 5.99341 7.75588L6.12036 7.69827C6.25605 7.64577 6.41691 7.60985 6.59594 7.61819C6.84591 7.62991 7.06069 7.72534 7.2268 7.85647C7.51431 8.0835 7.64617 8.41062 7.71216 8.59963C7.85018 8.99515 7.9485 9.59588 8.03735 10.0176C8.14252 10.5166 8.25585 10.9116 8.40942 11.1719C8.53857 11.3907 8.62474 11.4101 8.72485 11.4102C8.92192 11.4102 9.03277 11.3489 9.12622 11.2383C9.24414 11.0987 9.37188 10.8289 9.43579 10.3711C9.56379 9.45313 9.39336 8.07194 8.85083 6.44436C8.29554 4.77788 8.65294 2.95905 9.31469 1.81643C9.6297 1.27273 10.1269 0.689857 10.8108 0.527367ZM13.7834 15.3457C13.6365 15.6379 13.4607 15.9051 13.26 16.1485C12.6693 16.8644 11.9051 17.3381 11.2375 17.7022C10.5093 18.0994 9.98376 18.3304 9.55981 18.6387C9.18524 18.9112 9.10669 19.0975 9.10669 19.2949C9.10685 20.0621 9.41091 20.7983 9.95337 21.3408C10.4863 21.8738 11.2067 22.1748 11.9592 22.1856C11.9745 22.1857 11.9898 22.1875 12.0051 22.1875C12.0139 22.1875 12.0227 22.1866 12.0315 22.1865C12.7874 22.1783 13.5109 21.8759 14.0461 21.3408C14.5829 20.8041 14.8853 20.0777 14.8918 19.3194C14.8019 17.9252 14.4225 16.5725 13.7834 15.3457ZM11.1243 2.25002C11.05 2.31304 10.9312 2.43739 10.7942 2.67385C10.3461 3.44748 10.0914 4.75957 10.4729 5.90432C11.0582 7.66021 11.3079 9.32578 11.1291 10.6074C11.0396 11.249 10.8321 11.8681 10.4319 12.3418C10.007 12.8446 9.41505 13.1211 8.72485 13.1211C7.84148 13.121 7.27069 12.6068 6.93677 12.041C6.62731 11.5166 6.47064 10.8747 6.3645 10.3711C6.29989 10.0646 6.25307 9.8166 6.21118 9.6133C5.57842 10.0452 5.04625 10.6129 4.65747 11.2793C4.15862 12.1346 3.91484 13.1153 3.9563 14.1045C3.95678 14.1161 3.95726 14.128 3.95727 14.1397C3.95727 16.274 4.80551 18.3218 6.31469 19.8311C6.73702 20.2534 7.20279 20.622 7.69946 20.9365C7.50107 20.4172 7.39582 19.8615 7.39575 19.2949C7.39575 18.3212 7.96243 17.6862 8.55395 17.2559C9.09619 16.8616 9.85934 16.5065 10.4192 16.2012C11.0399 15.8626 11.5651 15.5157 11.9407 15.0606C12.2956 14.6304 12.55 14.0617 12.55 13.2031C12.55 12.8399 12.7805 12.5166 13.1233 12.3965C13.4663 12.2766 13.848 12.3858 14.0745 12.6699C15.5716 14.5491 16.4539 16.8442 16.6018 19.2422C16.6029 19.2596 16.6038 19.2776 16.6038 19.2949C16.6037 19.865 16.4959 20.4233 16.2952 20.9453C16.7975 20.6287 17.2689 20.2576 17.6956 19.8311C19.2047 18.3218 20.053 16.274 20.053 14.1397C20.0528 11.2263 18.299 8.90527 16.2375 6.97952C15.2108 6.02041 14.1591 5.20437 13.2493 4.46291C12.8024 4.09873 12.3824 3.74597 12.0374 3.41311C11.7024 3.09003 11.3807 2.73271 11.1829 2.35061C11.1613 2.30899 11.1413 2.27574 11.1243 2.25002Z" fill="black"/>
</svg>
