<svg width="24" height="24" viewBox="0 0 24 24" fill="none" xmlns="http://www.w3.org/2000/svg">
<path fill-rule="evenodd" clip-rule="evenodd" d="M12.0021 0.00195312C13.5806 0.00195312 14.7798 1.16177 15.0694 2.55273C16.5346 2.3777 18.0389 3.31742 18.4776 4.76172C18.9341 6.20887 18.2161 7.76174 16.9523 8.45312C17.5395 9.74269 17.2194 11.3747 16.0245 12.2871C16.0189 12.2914 16.0127 12.2957 16.0069 12.2998C15.0823 12.9677 13.8599 13.0381 12.8566 12.5996V14.5732H17.0421C18.0624 14.5732 18.8566 15.4606 18.7442 16.4746C18.6878 16.9846 18.2111 21.2871 18.1642 21.7109C18.0206 23.0069 16.8988 24.0057 15.5948 23.998C15.1702 23.9955 8.82458 23.9955 8.4044 23.998C7.10063 24.0055 5.97857 23.0068 5.83507 21.7109C5.7882 21.2874 5.31142 16.9839 5.25499 16.4746C5.14266 15.4607 5.93714 14.5735 6.95714 14.5732H11.1456V12.6523C11.0386 12.6945 10.9297 12.7311 10.8204 12.7607C9.9367 13.0005 8.89848 12.8773 8.1046 12.3145C6.814 11.4397 6.42424 9.74557 7.01866 8.4043C5.75298 7.70364 5.06789 6.11594 5.53331 4.69336C5.84151 3.75185 6.60658 3.05129 7.46007 2.72949C7.91762 2.55711 8.4319 2.48465 8.94151 2.55469C9.26297 1.20665 10.3148 0.00229544 12.0021 0.00195312ZM6.95518 16.2861C7.01156 16.7949 7.48865 21.1022 7.53526 21.5234C7.58259 21.9491 7.96636 22.2904 8.39464 22.2881C8.82366 22.2855 15.1715 22.2855 15.6046 22.2881C16.033 22.2907 16.4165 21.9493 16.464 21.5234C16.5106 21.1023 16.9877 16.7952 17.0441 16.2861V16.2842H6.95518V16.2861ZM12.0021 1.71289C11.1128 1.71336 10.4251 2.58414 10.5607 3.6748C10.6032 4.01916 10.4335 4.35542 10.131 4.52539C9.82835 4.69512 9.45261 4.66489 9.18077 4.44922C8.88996 4.21875 8.48709 4.17011 8.06261 4.33008C7.62914 4.49369 7.28487 4.83863 7.15831 5.22461C6.87617 6.08736 7.57348 7.06276 8.44542 7.06055C8.80963 7.05965 9.1348 7.28994 9.25499 7.63379C9.37497 7.97753 9.26397 8.35983 8.97862 8.58594C8.24413 9.1678 8.29727 10.3797 9.06358 10.8994C9.07062 10.9042 9.07817 10.9091 9.08507 10.9141C9.41165 11.15 9.91448 11.2344 10.3722 11.1104C10.8071 10.9923 11.0809 10.7257 11.1612 10.3652C11.2258 10.0345 11.4819 9.77264 11.8087 9.69727C11.8107 9.6968 11.8126 9.69576 11.8146 9.69531C11.8746 9.68192 11.937 9.67482 12.0011 9.6748C12.0799 9.6748 12.1562 9.68609 12.2286 9.70605C12.2308 9.70666 12.2333 9.70641 12.2355 9.70703C12.2752 9.71834 12.3135 9.7333 12.3507 9.75C12.3599 9.75411 12.369 9.75827 12.378 9.7627C12.4522 9.79918 12.5201 9.84597 12.5802 9.90137C12.5846 9.90542 12.5895 9.90893 12.5939 9.91309C12.6208 9.93897 12.6457 9.9669 12.6691 9.99609C12.6776 10.0068 12.6854 10.0181 12.6935 10.0293C12.7124 10.0554 12.7303 10.0822 12.7462 10.1104C12.7546 10.1252 12.7611 10.1409 12.7687 10.1562C12.7831 10.1858 12.7967 10.2157 12.8077 10.2471C12.8094 10.2517 12.812 10.2561 12.8136 10.2607C13.0905 11.093 14.2384 11.4553 14.9942 10.9199C15.7052 10.368 15.7112 9.1999 14.9864 8.64648C14.6952 8.42378 14.5788 8.03959 14.6964 7.69238C14.8144 7.34506 15.1412 7.1116 15.5079 7.1123C16.4143 7.11498 17.1211 6.13399 16.8448 5.27051L16.8409 5.25879C16.5694 4.36509 15.4166 3.96383 14.7052 4.47461C14.4121 4.6845 14.0186 4.68804 13.7218 4.4834C13.425 4.27859 13.2887 3.90916 13.381 3.56055C13.6222 2.64936 12.9178 1.71289 12.0021 1.71289Z" fill="black"/>
</svg>
