<svg width="24" height="24" viewBox="0 0 24 24" fill="none" xmlns="http://www.w3.org/2000/svg">
<path fill-rule="evenodd" clip-rule="evenodd" d="M17.5762 0.114929C17.8407 -0.0361216 18.1652 -0.0349503 18.4287 0.117859C18.6923 0.270841 18.8555 0.552345 18.8555 0.857117V6.85712C18.8554 10.3532 16.2375 13.2357 12.8555 13.6569V17.235C13.9444 16.1218 15.4625 15.4304 17.1426 15.4304H20.5713C21.5168 15.4304 22.2832 16.1976 22.2832 17.1432V17.9997C22.283 21.312 19.5984 23.9975 16.2861 23.9977H7.71387C4.40164 23.9975 1.71599 21.312 1.71582 17.9997V17.1432C1.71582 16.1977 2.48318 15.4304 3.42871 15.4304H6.85742C8.53781 15.4305 10.0558 16.1224 11.1445 17.236V13.6569C7.76247 13.2357 5.14456 10.3532 5.14453 6.85712V0.857117C5.14453 0.552345 5.3077 0.270841 5.57129 0.117859C5.83479 -0.0349503 6.15932 -0.0361216 6.42383 0.114929L12 3.30048L17.5762 0.114929ZM3.42578 17.1423L3.42676 17.9997C3.42692 20.3676 5.34603 22.2876 7.71387 22.2878H11.1445V21.4284C11.1444 19.0605 9.22526 17.1415 6.85742 17.1413H3.42871L3.42773 17.1403L3.42578 17.1423ZM20.5713 17.1413H17.1426C14.7747 17.1414 12.8556 19.0604 12.8555 21.4284V22.2878H16.2861C18.654 22.2876 20.5731 20.3676 20.5732 17.9997V17.1432L20.5742 17.1423L20.5723 17.1403L20.5713 17.1413ZM12.4238 5.02802C12.1611 5.17799 11.8389 5.17799 11.5762 5.02802L6.85547 2.32977V6.85712C6.8555 9.6986 9.15851 12.0016 12 12.0016C14.8415 12.0016 17.1445 9.6986 17.1445 6.85712V2.32977L12.4238 5.02802Z" fill="black"/>
</svg>
