<svg width="24" height="24" viewBox="0 0 24 24" fill="none" xmlns="http://www.w3.org/2000/svg">
<path fill-rule="evenodd" clip-rule="evenodd" d="M21.4277 1.71582C22.8464 1.71589 23.9967 2.86652 23.9971 4.28516V21.3584C23.999 21.3815 24.001 21.4051 24.001 21.4287C24.0008 21.9008 23.6176 22.2841 23.1455 22.2842L15.7236 22.2832L15.7188 22.2842L15.7129 22.2832H8.29004C8.28646 22.2832 8.28289 22.2842 8.2793 22.2842C8.27505 22.2842 8.27083 22.2833 8.2666 22.2832H0.855469L0.851562 22.2822C0.796087 22.2819 0.741961 22.277 0.689453 22.2666C0.680208 22.2648 0.671244 22.2619 0.662109 22.2598C0.543088 22.2321 0.434057 22.18 0.339844 22.1084C0.297278 22.0761 0.257461 22.0406 0.22168 22.001C0.194955 21.9714 0.169887 21.9403 0.147461 21.9072C0.0702916 21.7933 0.0194705 21.6598 0.00488281 21.5156C0.00200314 21.4871 0.000985825 21.458 0.000976562 21.4287V4.28516C0.00133446 2.86662 1.15175 1.71605 2.57031 1.71582H21.4277ZM16.5742 20.5732H22.2871V12.8555H20.5703C20.0983 12.8553 19.7148 12.4721 19.7148 12C19.7148 11.5279 20.0983 11.1447 20.5703 11.1445H22.2871V4.28516C22.2868 3.81093 21.902 3.42682 21.4277 3.42676H16.5742V20.5732ZM2.57031 3.42676C2.09616 3.42698 1.71227 3.81103 1.71191 4.28516V20.5732H7.42383V3.42676H2.57031ZM9.13477 20.5732H14.8633V3.42676H9.13477V20.5732Z" fill="black"/>
</svg>
