<svg width="24" height="24" viewBox="0 0 24 24" fill="none" xmlns="http://www.w3.org/2000/svg">
<path fill-rule="evenodd" clip-rule="evenodd" d="M21.4287 1.71582C22.8472 1.71608 23.9977 2.86665 23.998 4.28516V21.3584C23.9999 21.3815 24.002 21.4051 24.002 21.4287C24.0018 21.9006 23.6184 22.2839 23.1465 22.2842L15.7246 22.2832L15.7197 22.2842C15.7175 22.2842 15.7151 22.2832 15.7129 22.2832H8.29102C8.28744 22.2832 8.28386 22.2842 8.28027 22.2842C8.27619 22.2842 8.27164 22.2833 8.26758 22.2832H0.856445L0.852539 22.2822C0.79706 22.2819 0.742943 22.277 0.69043 22.2666C0.681184 22.2648 0.672222 22.2619 0.663086 22.2598C0.394656 22.1975 0.173799 22.0106 0.0683594 21.7617C0.035944 21.6851 0.014671 21.6027 0.00585938 21.5166C0.00291264 21.4878 0.000985934 21.4583 0.000976562 21.4287V4.28516C0.00133437 2.86662 1.15272 1.71605 2.57129 1.71582H21.4287ZM16.5752 20.5732H22.2881V4.28516C22.2877 3.81105 21.9028 3.42702 21.4287 3.42676H16.5752V20.5732ZM2.57129 3.42676C2.09713 3.42698 1.71325 3.81103 1.71289 4.28516V11.1445H3.42871C3.90069 11.1448 4.28418 11.528 4.28418 12C4.28418 12.472 3.90069 12.8552 3.42871 12.8555H1.71289V20.5732H7.4248V3.42676H2.57129ZM9.13574 20.5732H14.8643V3.42676H9.13574V20.5732Z" fill="black"/>
</svg>
