<svg width="24" height="24" viewBox="0 0 24 24" fill="none" xmlns="http://www.w3.org/2000/svg">
<path fill-rule="evenodd" clip-rule="evenodd" d="M21.4277 1.71582C22.8465 1.71582 23.9967 2.86648 23.9971 4.28516V21.4111C23.9972 21.4169 23.998 21.4229 23.998 21.4287C23.998 21.5762 23.9604 21.7149 23.8945 21.8359C23.842 21.9328 23.7709 22.0182 23.6865 22.0879C23.6019 22.1576 23.5038 22.2118 23.3965 22.2451C23.3432 22.2617 23.2877 22.2734 23.2305 22.2793C23.2016 22.2822 23.1722 22.2832 23.1426 22.2832L16.2852 22.2842C16.1377 22.2842 15.9991 22.2464 15.8779 22.1807C15.8052 22.1411 15.7387 22.0913 15.6807 22.0332C15.5258 21.8784 15.4298 21.6648 15.4297 21.4287V3.42676H2.57031C2.09627 3.42712 1.71227 3.81111 1.71191 4.28516V21.4287C1.71176 21.9008 1.32856 22.2832 0.856445 22.2832C0.384446 22.2831 0.00112605 21.9007 0.000976562 21.4287V4.28516C0.00133439 2.8667 1.15186 1.71618 2.57031 1.71582H21.4277ZM17.1406 11.1445H18.8564C19.3286 11.1445 19.7119 11.5278 19.7119 12C19.7119 12.4722 19.3286 12.8555 18.8564 12.8555H17.1406V20.5732H22.2871V4.28516C22.2868 3.81089 21.9021 3.42676 21.4277 3.42676H17.1406V11.1445Z" fill="black"/>
<path d="M8.82324 7.9668C9.15706 7.63298 9.69831 7.63314 10.0322 7.9668L13.4609 11.3955C13.7947 11.7294 13.7948 12.2706 13.4609 12.6045L10.0322 16.0332C9.69836 16.3669 9.15711 16.3669 8.82324 16.0332C8.48963 15.6993 8.48956 15.158 8.82324 14.8242L10.792 12.8555H4.28516C3.81295 12.8555 3.42969 12.4722 3.42969 12C3.42969 11.5278 3.81295 11.1445 4.28516 11.1445H10.792L8.82324 9.17578C8.48959 8.84186 8.48943 8.30061 8.82324 7.9668Z" fill="black"/>
</svg>
