<svg width="24" height="24" viewBox="0 0 24 24" fill="none" xmlns="http://www.w3.org/2000/svg">
<path fill-rule="evenodd" clip-rule="evenodd" d="M21.4277 1.71582C22.8465 1.71582 23.9967 2.86648 23.9971 4.28516V21.4287C23.9969 21.9006 23.6145 22.283 23.1426 22.2832C22.6705 22.2831 22.2873 21.9007 22.2871 21.4287V4.28516C22.2868 3.81089 21.9021 3.42676 21.4277 3.42676H8.56934V21.4287C8.5692 21.9008 8.18593 22.2841 7.71387 22.2842C7.70803 22.2842 7.7021 22.2833 7.69629 22.2832L0.856445 22.2842C0.590826 22.2841 0.352989 22.1629 0.196289 21.9727C0.0742678 21.825 0.00104196 21.6352 0.000976562 21.4287V4.28516C0.00133441 2.86666 1.1518 1.71611 2.57031 1.71582H21.4277ZM2.57031 3.42676C2.09621 3.42705 1.71227 3.81107 1.71191 4.28516V20.5732H6.8584V12.8555H5.14258C4.67037 12.8555 4.28711 12.4722 4.28711 12C4.28711 11.5278 4.67037 11.1445 5.14258 11.1445H6.8584V3.42676H2.57031Z" fill="black"/>
<path d="M15.6807 7.9668C16.0145 7.63306 16.5558 7.63306 16.8896 7.9668L20.3184 11.3955C20.6521 11.7294 20.6521 12.2706 20.3184 12.6045L16.8896 16.0332C16.5558 16.3669 16.0145 16.3669 15.6807 16.0332C15.3469 15.6993 15.3469 15.1581 15.6807 14.8242L17.6494 12.8555H11.1426C10.6704 12.8555 10.2871 12.4722 10.2871 12C10.2871 11.5278 10.6704 11.1445 11.1426 11.1445H17.6494L15.6807 9.17578C15.3469 8.84187 15.3468 8.30065 15.6807 7.9668Z" fill="black"/>
</svg>
