<svg width="24" height="24" viewBox="0 0 24 24" fill="none" xmlns="http://www.w3.org/2000/svg">
<path fill-rule="evenodd" clip-rule="evenodd" d="M7.70508 5.14453C10.1309 5.14453 12.3177 6.60651 13.2461 8.84766L16.6934 17.168C16.983 17.6788 17.1406 18.26 17.1406 18.8574C17.1405 19.766 16.7792 20.6378 16.1367 21.2803C15.4942 21.9227 14.6225 22.2841 13.7139 22.2842C12.8775 22.2841 12.0731 21.9765 11.4492 21.4268H5.0957C4.53574 21.975 3.7835 22.2832 2.99902 22.2832C2.20423 22.2831 1.44195 21.9672 0.879883 21.4053C0.317828 20.8431 0.000976563 20.0801 0.000976562 19.2852C0.00111335 18.5009 0.310276 17.7493 0.858398 17.1895V11.1426C0.858531 10.6705 1.24175 10.2871 1.71387 10.2871H3.42969V6.85742C3.42969 5.91184 4.19699 5.14453 5.14258 5.14453H7.70508ZM13.7139 17.1416C13.2587 17.1416 12.8219 17.3217 12.5 17.6436C12.1782 17.9654 11.9981 18.4023 11.998 18.8574C11.9982 19.3124 12.1783 19.7495 12.5 20.0713C12.8218 20.3929 13.2589 20.5742 13.7139 20.5742C14.1689 20.5742 14.6059 20.393 14.9277 20.0713C15.2495 19.7495 15.4305 19.3125 15.4307 18.8574C15.4306 18.4024 15.2494 17.9654 14.9277 17.6436C14.6059 17.3218 14.1689 17.1417 13.7139 17.1416ZM2.99902 17.998C2.65765 17.9982 2.33026 18.1336 2.08887 18.375C1.84747 18.6164 1.71205 18.9438 1.71191 19.2852C1.71191 19.6266 1.8475 19.9548 2.08887 20.1963C2.33024 20.4376 2.65775 20.5731 2.99902 20.5732C3.34058 20.5732 3.66864 20.4378 3.91016 20.1963C4.15168 19.9548 4.28711 19.6267 4.28711 19.2852C4.28697 18.9439 4.15142 18.6164 3.91016 18.375C3.66866 18.1336 3.34047 17.998 2.99902 17.998ZM2.56934 16.3213C2.71093 16.3007 2.85423 16.2871 2.99902 16.2871C3.79399 16.2871 4.55696 16.604 5.11914 17.166C5.68109 17.7281 5.99693 18.4904 5.99707 19.2852C5.99707 19.4302 5.98349 19.5739 5.96289 19.7158H10.3975C10.3254 19.4377 10.2872 19.1496 10.2871 18.8574C10.2871 18.2494 10.4495 17.6579 10.749 17.1406H9.42773C9.20113 17.1405 8.98349 17.0499 8.82324 16.8896L3.93164 11.998H2.56934V16.3213ZM5.13965 6.85645L5.14062 6.85742V10.7881L9.7832 15.4307H13.7139L13.8838 15.4346C13.9676 15.4387 14.0509 15.4468 14.1338 15.457L11.667 9.50195C11.0033 7.89977 9.4393 6.85547 7.70508 6.85547H5.14258L5.1416 6.85449L5.13965 6.85645Z" fill="black"/>
<path d="M19.7139 1.71582C20.1859 1.71595 20.5692 2.09928 20.5693 2.57129V20.5732H23.1426C23.6145 20.5734 23.9969 20.9567 23.9971 21.4287C23.9969 21.9007 23.6145 22.283 23.1426 22.2832H19.7139C19.2418 22.2832 18.8585 21.9008 18.8584 21.4287V2.57129C18.8585 2.0992 19.2417 1.71582 19.7139 1.71582Z" fill="black"/>
</svg>
