<svg width="24" height="24" viewBox="0 0 24 24" fill="none" xmlns="http://www.w3.org/2000/svg">
<path fill-rule="evenodd" clip-rule="evenodd" d="M10.8169 0.609375C11.3344 0.660841 11.8209 0.889767 12.1919 1.26074C12.6159 1.6848 12.855 2.2597 12.855 2.85938C12.855 3.14312 12.7991 3.42042 12.6978 3.67969C14.9474 4.27949 16.7339 5.87322 17.0659 8.37207C17.0664 8.37528 17.0656 8.37863 17.0659 8.38184C17.068 8.39863 17.0688 8.41554 17.0699 8.43262C17.0707 8.44699 17.0717 8.46125 17.0718 8.47559C17.0718 8.47852 17.0728 8.48144 17.0728 8.48438V9.03516H17.6265C18.9706 9.0382 20.259 9.57396 21.2095 10.5244C22.1599 11.4749 22.6958 12.7633 22.6988 14.1074V14.1113C22.6958 15.4555 22.1599 16.7438 21.2095 17.6943C20.259 18.6448 18.9706 19.1805 17.6265 19.1836H17.0728V21.1406C17.0728 21.7403 16.8346 22.3152 16.4107 22.7393C15.9867 23.1632 15.4116 23.4023 14.812 23.4023H6.37454C6.07513 23.4023 5.77774 23.342 5.50149 23.2266C5.22546 23.1111 4.97437 22.9415 4.76419 22.7285C4.55418 22.5156 4.38863 22.2628 4.27688 21.9854C4.16506 21.7075 4.10883 21.4098 4.11282 21.1104V12.6133C4.11245 12.5341 4.09529 12.4561 4.06301 12.3838C4.03073 12.3115 3.984 12.2465 3.92532 12.1934L1.79837 10.3271C1.78413 10.3147 1.76975 10.3015 1.75637 10.2881C1.53834 10.0691 1.38977 9.78961 1.33059 9.48633C1.27149 9.18311 1.30364 8.86877 1.42337 8.58398C1.54081 8.3014 1.73998 8.05954 1.99466 7.88965L2.09329 7.8291C2.32628 7.69773 2.59019 7.63004 2.85891 7.63086V7.62891H4.27005C4.8271 5.55613 6.46973 4.21793 8.48684 3.67969C8.38569 3.42057 8.33157 3.14292 8.33157 2.85938C8.33157 2.25965 8.57059 1.68481 8.99466 1.26074C9.41871 0.836738 9.99361 0.597656 10.5933 0.597656L10.8169 0.609375ZM5.82278 19.6523V21.1328C5.82181 21.2058 5.83558 21.279 5.86282 21.3467C5.89006 21.4143 5.93079 21.4764 5.98196 21.5283C6.03311 21.5801 6.09453 21.6213 6.16165 21.6494C6.22887 21.6775 6.30169 21.6914 6.37454 21.6914H14.812C14.9581 21.6913 15.0984 21.6335 15.2017 21.5303C15.305 21.4269 15.3628 21.2867 15.3628 21.1406V19.6523H5.82278ZM5.06301 10.917L5.07278 10.9258C5.30756 11.1383 5.49542 11.3974 5.62454 11.6865C5.75367 11.9758 5.82133 12.2887 5.82278 12.6055V17.9414H15.3628V9.33984H11.4488V14.6602H12.7027C13.1748 14.6603 13.5581 15.0435 13.5581 15.5156C13.5581 15.9878 13.1748 16.371 12.7027 16.3711H8.48391C8.01171 16.3711 7.62844 15.9878 7.62844 15.5156C7.62844 15.0434 8.01171 14.6602 8.48391 14.6602H9.73782V9.33984H3.26516L5.06301 10.917ZM17.0728 17.4727H17.6226C18.5145 17.4706 19.3698 17.1161 20.0005 16.4854C20.6303 15.8555 20.9848 15.0019 20.9878 14.1113L20.9839 13.9443C20.9409 13.1132 20.5917 12.3247 20.0005 11.7334C19.4093 11.1422 18.6207 10.793 17.7896 10.75L17.6226 10.7461H17.0728V17.4727ZM10.5933 5.12109C8.40464 5.12109 6.72769 6.07297 6.07571 7.62891H15.1109C14.4589 6.07298 12.7819 5.12115 10.5933 5.12109ZM10.5933 2.30859C10.4471 2.30859 10.307 2.36641 10.2036 2.46973C10.1003 2.57311 10.0425 2.71318 10.0425 2.85938C10.0425 3.00558 10.1003 3.14564 10.2036 3.24902C10.307 3.35234 10.4471 3.41016 10.5933 3.41016C10.7394 3.4101 10.8796 3.35236 10.9829 3.24902C11.0863 3.14565 11.1441 3.00553 11.1441 2.85938C11.1441 2.71322 11.0863 2.5731 10.9829 2.46973C10.9055 2.3923 10.8075 2.3396 10.7017 2.31836L10.5933 2.30859Z" fill="black"/>
</svg>
