<svg width="24" height="24" viewBox="0 0 24 24" fill="none" xmlns="http://www.w3.org/2000/svg">
<path d="M8.80078 15.6826C9.27298 15.6826 9.65625 16.0659 9.65625 16.5381V17.1445H10.2627C10.7348 17.1447 11.1182 17.5279 11.1182 18C11.1179 18.4719 10.7346 18.8553 10.2627 18.8555H9.65625V19.4609C9.65625 19.9331 9.27298 20.3164 8.80078 20.3164C8.32869 20.3163 7.94531 19.9331 7.94531 19.4609V18.8555H7.33984C6.8678 18.8555 6.48464 18.472 6.48438 18C6.48438 17.5278 6.86764 17.1445 7.33984 17.1445H7.94531V16.5381C7.94531 16.066 8.32869 15.6827 8.80078 15.6826Z" fill="black"/>
<path d="M15.4385 16.2871C16.339 16.2921 17.0814 17.0091 17.1348 17.8984C17.1387 17.9318 17.1416 17.9656 17.1416 18C17.1416 18.0341 17.1386 18.0675 17.1348 18.1006C17.0837 18.9619 16.3863 19.6576 15.5244 19.7061C15.4933 19.7095 15.4617 19.7119 15.4297 19.7119C15.4004 19.7119 15.3704 19.7109 15.3418 19.708C15.3391 19.7077 15.3366 19.7063 15.334 19.7061C14.4965 19.6591 13.8118 19.0012 13.7266 18.1738L13.7168 18L13.7266 17.8262C13.8147 16.9695 14.5453 16.2904 15.4229 16.2871H15.4385Z" fill="black"/>
<path fill-rule="evenodd" clip-rule="evenodd" d="M17.1953 3.41797C17.6675 3.41797 18.0508 3.80123 18.0508 4.27344V12.9268C18.0506 13.3988 17.6674 13.7822 17.1953 13.7822H6.80371C6.3317 13.7821 5.94837 13.3988 5.94824 12.9268V4.27344C5.94824 3.80132 6.33162 3.4181 6.80371 3.41797H17.1953ZM7.65918 12.0723H16.3408V5.12891H7.65918V12.0723Z" fill="black"/>
<path fill-rule="evenodd" clip-rule="evenodd" d="M18.75 0.483398C20.1688 0.48353 21.3191 1.63503 21.3193 3.05371V20.9473C21.3189 22.3657 20.1687 23.5165 18.75 23.5166H5.25C3.8314 23.5164 2.68103 22.3656 2.68066 20.9473V3.05371C2.68089 1.63507 3.83136 0.483624 5.25 0.483398H18.75ZM5.25 2.19531C4.77577 2.19554 4.39183 2.57948 4.3916 3.05371V20.9473C4.39197 21.4213 4.7759 21.8064 5.25 21.8066H18.75C19.2241 21.8065 19.6089 21.4215 19.6094 20.9473V3.05371C19.6091 2.57941 19.2243 2.19544 18.75 2.19531H5.25Z" fill="black"/>
</svg>
