<svg width="24" height="24" viewBox="0 0 24 24" fill="none" xmlns="http://www.w3.org/2000/svg">
<path fill-rule="evenodd" clip-rule="evenodd" d="M7.07812 16.0668C7.67776 16.0668 8.25275 16.3059 8.67676 16.7299C9.10063 17.1539 9.33984 17.7289 9.33984 18.3285L9.32812 18.5521C9.27663 19.0696 9.0477 19.5562 8.67676 19.9271C8.25275 20.3511 7.67773 20.5902 7.07812 20.5902C6.47855 20.5902 5.90353 20.351 5.47949 19.9271C5.10856 19.5562 4.87963 19.0696 4.82812 18.5521L4.81641 18.3285C4.81641 17.7288 5.05546 17.1539 5.47949 16.7299C5.90356 16.3058 6.47841 16.0668 7.07812 16.0668ZM7.07812 17.7777C6.93192 17.7777 6.79186 17.8355 6.68848 17.9388C6.58514 18.0422 6.52734 18.1823 6.52734 18.3285C6.52744 18.4746 6.58518 18.6149 6.68848 18.7181C6.79183 18.8213 6.93207 18.8793 7.07812 18.8793C7.22421 18.8792 7.36446 18.8214 7.46777 18.7181C7.57107 18.6149 7.62881 18.4746 7.62891 18.3285L7.61914 18.2201C7.59796 18.1144 7.54508 18.0163 7.46777 17.9388C7.36445 17.8355 7.22424 17.7778 7.07812 17.7777Z" fill="black"/>
<path fill-rule="evenodd" clip-rule="evenodd" d="M16.9219 16.0668C17.5215 16.0668 18.0965 16.3059 18.5205 16.7299C18.9444 17.1539 19.1836 17.7289 19.1836 18.3285C19.1835 18.9281 18.9445 19.5031 18.5205 19.9271C18.0965 20.3511 17.5215 20.5902 16.9219 20.5902C16.3223 20.5902 15.7473 20.351 15.3232 19.9271C14.8993 19.5031 14.6603 18.9281 14.6602 18.3285C14.6602 17.7288 14.8992 17.1539 15.3232 16.7299C15.7473 16.3058 16.3222 16.0668 16.9219 16.0668ZM16.9219 17.7777C16.7757 17.7777 16.6356 17.8355 16.5322 17.9388C16.4289 18.0422 16.3711 18.1823 16.3711 18.3285C16.3712 18.4746 16.4289 18.6149 16.5322 18.7181C16.6356 18.8213 16.7758 18.8793 16.9219 18.8793C17.068 18.8792 17.2082 18.8214 17.3115 18.7181C17.4148 18.6149 17.4726 18.4746 17.4727 18.3285C17.4727 18.1824 17.4147 18.0422 17.3115 17.9388C17.2082 17.8355 17.068 17.7778 16.9219 17.7777Z" fill="black"/>
<path fill-rule="evenodd" clip-rule="evenodd" d="M16.9219 12.7045C17.3938 12.7046 17.7771 13.088 17.7773 13.5599V13.7162H21.4277C22.3733 13.7162 23.1406 14.4835 23.1406 15.4291V21.4291C23.1404 22.3745 22.3732 23.141 21.4277 23.141H2.57129C1.62589 23.1409 0.858615 22.3744 0.858398 21.4291V15.4291C0.858398 14.4835 1.62576 13.7163 2.57129 13.7162H6.22266V13.5599C6.22285 13.0879 6.60604 12.7045 7.07812 12.7045C7.55009 12.7046 7.9334 13.088 7.93359 13.5599V13.7162H16.0664V13.5599C16.0666 13.0879 16.4498 12.7045 16.9219 12.7045ZM21.4277 15.4271H2.57129L2.57031 15.4262L2.56836 15.4281L2.56934 21.4291C2.5697 21.4299 2.56932 21.4304 2.56934 21.4291L2.57031 21.431H21.4287L21.4307 21.4291V15.4281L21.4287 15.4262C21.4296 15.4265 21.4296 15.4271 21.4277 15.4271Z" fill="black"/>
<path fill-rule="evenodd" clip-rule="evenodd" d="M5.2168 0.995489C5.41608 0.68143 5.79544 0.532076 6.15527 0.626349C7.61022 1.00783 8.88412 1.89098 9.75195 3.11951C10.6145 4.3408 11.0202 5.82601 10.9004 7.3158C10.8755 8.40367 10.4342 9.44138 9.66406 10.2113C8.8864 10.9887 7.8358 11.4321 6.73633 11.4486L6.72363 11.4496C5.61561 11.4496 4.55213 11.0084 3.76855 10.225C3.03414 9.49047 2.60113 8.51042 2.5498 7.47791L2.54492 7.27088C2.50929 6.56804 2.66842 5.86867 3.00781 5.25135C3.35627 4.61769 3.87902 4.09702 4.51367 3.75037L4.60742 3.70545C4.83207 3.61623 5.08653 3.62623 5.30566 3.73572C5.55566 3.86093 5.7293 4.10061 5.76953 4.37733C5.7783 4.43732 5.79989 4.4945 5.83105 4.54529C5.92084 4.2231 5.95373 3.88512 5.92383 3.54822C5.87319 2.97979 5.6496 2.43986 5.2832 2.00233C5.04432 1.71706 5.01765 1.30979 5.2168 0.995489ZM7.62695 3.39686C7.70839 4.31378 7.50719 5.23471 7.0498 6.03358C6.90917 6.27892 6.65595 6.43935 6.37402 6.46131C5.82973 6.50323 5.2886 6.33647 4.8623 5.99549C4.79458 5.94128 4.73202 5.88105 4.67188 5.81971C4.61073 5.90031 4.55597 5.98622 4.50684 6.07557C4.31556 6.4235 4.22702 6.81901 4.25293 7.21522C4.25412 7.23356 4.25488 7.2525 4.25488 7.27088C4.25503 7.92525 4.51488 8.55323 4.97754 9.016C5.3826 9.42088 5.91451 9.67088 6.47949 9.72693L6.72363 9.73865C7.37389 9.7255 7.99487 9.46143 8.45508 9.00135C8.91805 8.53833 9.18224 7.91287 9.19238 7.25818L9.19531 7.19861C9.28824 6.10118 8.99079 5.00547 8.35547 4.10584C8.14013 3.80102 7.88949 3.52582 7.6123 3.28358C7.61664 3.32123 7.62359 3.35903 7.62695 3.39686Z" fill="black"/>
<path fill-rule="evenodd" clip-rule="evenodd" d="M15.2227 0.995489C15.4219 0.681433 15.8013 0.532075 16.1611 0.626349C17.6162 1.00779 18.8899 1.89092 19.7578 3.11951C20.6204 4.34082 21.0261 5.82597 20.9062 7.3158C20.8814 8.40367 20.44 9.44138 19.6699 10.2113C18.8922 10.9887 17.8417 11.4321 16.7422 11.4486L16.7295 11.4496C15.6214 11.4496 14.558 11.0084 13.7744 10.225C13.04 9.49046 12.607 8.51042 12.5557 7.47791L12.5508 7.27088C12.5152 6.56808 12.6743 5.86864 13.0137 5.25135C13.3621 4.61771 13.8849 4.09702 14.5195 3.75037L14.6133 3.70545C14.8378 3.61622 15.0915 3.62644 15.3105 3.73572C15.5608 3.86075 15.735 4.10049 15.7754 4.37733C15.7842 4.43664 15.8053 4.493 15.8359 4.54334C15.9257 4.2217 15.9594 3.8846 15.9297 3.54822C15.8793 2.97976 15.6556 2.43975 15.2891 2.00233C15.0502 1.71713 15.0236 1.30977 15.2227 0.995489ZM17.6328 3.39783C17.7139 4.31509 17.5122 5.23595 17.0537 6.03455C16.9126 6.28011 16.6584 6.44007 16.376 6.46131C15.8324 6.50203 15.2926 6.33436 14.8672 5.99354C14.8 5.93967 14.7375 5.88061 14.6777 5.81971C14.6166 5.90028 14.5618 5.98627 14.5127 6.07557C14.3215 6.42348 14.2329 6.81905 14.2588 7.21522C14.26 7.23356 14.2607 7.2525 14.2607 7.27088C14.2609 7.92525 14.5207 8.55323 14.9834 9.016C15.3885 9.42096 15.9203 9.67088 16.4854 9.72693L16.7295 9.73865C17.3798 9.72556 18.0007 9.46141 18.4609 9.00135C18.9239 8.53833 19.1881 7.91287 19.1982 7.25818L19.2012 7.19861C19.2941 6.10113 18.9967 5.0055 18.3613 4.10584C18.146 3.80097 17.8954 3.52585 17.6182 3.28358C17.6225 3.32156 17.6294 3.35967 17.6328 3.39783Z" fill="black"/>
</svg>
