<svg width="24" height="24" viewBox="0 0 24 24" fill="none" xmlns="http://www.w3.org/2000/svg">
<path d="M0.857422 1.71582C1.32943 1.71595 1.71276 2.09928 1.71289 2.57129V21.4287C1.71274 21.9007 1.32942 22.2831 0.857422 22.2832C0.385311 22.2832 0.00210351 21.9008 0.00195312 21.4287V2.57129C0.00208524 2.0992 0.3853 1.71582 0.857422 1.71582Z" fill="black"/>
<path fill-rule="evenodd" clip-rule="evenodd" d="M23.1426 1.71582C23.6147 1.71582 23.9979 2.0992 23.998 2.57129V21.4287C23.9979 21.9008 23.6147 22.2832 23.1426 22.2832C22.6706 22.2831 22.2873 21.9007 22.2871 21.4287V20.5693H19.7139C18.2953 20.5691 17.1458 19.4186 17.1455 18L17.1445 6C17.1448 4.58136 18.2952 3.43089 19.7139 3.43066H22.2871V2.57129C22.2872 2.09928 22.6706 1.71595 23.1426 1.71582ZM19.7139 5.1416C19.2396 5.14183 18.8557 5.52576 18.8555 6V11.1445H20.5713C21.0435 11.1445 21.4268 11.5278 21.4268 12C21.4268 12.4722 21.0435 12.8555 20.5713 12.8555H18.8555V18C18.8557 18.4742 19.2397 18.8591 19.7139 18.8594H22.2871V5.1416H19.7139Z" fill="black"/>
</svg>
