<svg width="24" height="24" viewBox="0 0 24 24" fill="none" xmlns="http://www.w3.org/2000/svg">
<path fill-rule="evenodd" clip-rule="evenodd" d="M0.856445 1.7168C1.3285 1.71686 1.71176 2.09925 1.71191 2.57129V3.43066H17.999C19.4178 3.43073 20.5681 4.58126 20.5684 6V18C20.5681 19.4187 19.4178 20.5693 17.999 20.5693H1.71191V21.4287C1.71178 21.9008 1.32851 22.2841 0.856445 22.2842C0.384323 22.2842 0.00110866 21.9008 0.000976562 21.4287V2.57129C0.00112694 2.09921 0.384335 1.7168 0.856445 1.7168ZM1.71191 18.8594H17.999C18.4734 18.8593 18.8581 18.4743 18.8584 18V12.8555H17.1416C16.6695 12.8554 16.2871 12.4722 16.2871 12C16.2871 11.5278 16.6695 11.1446 17.1416 11.1445H18.8584V6C18.8582 5.52566 18.4734 5.14167 17.999 5.1416H1.71191V18.8594Z" fill="black"/>
<path d="M23.1426 1.7168C23.6145 1.71706 23.9979 2.09938 23.998 2.57129V21.4287C23.9979 21.9006 23.6145 22.2839 23.1426 22.2842C22.6705 22.2842 22.2872 21.9008 22.2871 21.4287V2.57129C22.2873 2.09921 22.6705 1.7168 23.1426 1.7168Z" fill="black"/>
</svg>
