<svg width="24" height="24" viewBox="0 0 24 24" fill="none" xmlns="http://www.w3.org/2000/svg">
<path fill-rule="evenodd" clip-rule="evenodd" d="M21.428 0.00195312C21.6715 0.00203225 21.9035 0.106385 22.0657 0.288086C22.2278 0.470036 22.3044 0.712963 22.2766 0.955078L21.4895 7.77832C21.488 7.79809 21.4854 7.81754 21.4826 7.83691L19.8811 21.7236C19.7313 23.0198 18.6332 23.998 17.3283 23.998H6.67015C5.36537 23.9979 4.26721 23.0198 4.11741 21.7236L1.72093 0.955078C1.69311 0.713093 1.76987 0.469991 1.93186 0.288086C2.09404 0.10616 2.32682 0.00202007 2.57054 0.00195312H21.428ZM4.32151 8.57031L5.81663 21.5273C5.86677 21.9607 6.23387 22.288 6.67015 22.2881H17.3283C17.7647 22.2881 18.1317 21.9608 18.1819 21.5273L19.677 8.57031H4.32151ZM4.12425 6.85938H19.8742L20.468 1.71289H3.5305L4.12425 6.85938Z" fill="black"/>
</svg>
