<svg width="24" height="24" viewBox="0 0 24 24" fill="none" xmlns="http://www.w3.org/2000/svg">
<path fill-rule="evenodd" clip-rule="evenodd" d="M11.999 0.00195312C12.5762 0.00196462 13.1438 0.0422948 13.6992 0.121094C13.7039 0.121017 13.7091 0.121094 13.7139 0.121094C13.8085 0.121147 13.8993 0.137557 13.9844 0.166016C19.5928 1.10018 23.8849 5.92415 23.9941 11.7715C23.9962 11.8013 23.9963 11.8312 23.9951 11.8613C23.9956 11.9074 23.9971 11.9538 23.9971 12C23.9969 18.6261 18.6251 23.9979 11.999 23.998C5.37301 23.9979 0.00110852 18.6261 0.000976562 12C0.00112757 5.37399 5.37301 0.00210413 11.999 0.00195312ZM14.5693 4.71387C14.5693 5.73605 14.1621 6.71657 13.4395 7.43945C12.7166 8.16223 11.7361 8.56823 10.7139 8.56836C10.1451 8.56836 9.59949 8.79523 9.19727 9.19727C8.79511 9.59946 8.5694 10.1451 8.56934 10.7139V13.2852C8.56933 14.3074 8.16219 15.2878 7.43945 16.0107C6.71662 16.7336 5.7361 17.1405 4.71387 17.1406H3.08984C4.86826 20.2165 8.19055 22.288 11.999 22.2881C14.2401 22.288 16.3122 21.5691 18.002 20.3525V19.2852C18.0018 18.944 17.866 18.6163 17.625 18.375C17.3837 18.1337 17.0553 17.9982 16.7139 17.998C15.6915 17.998 14.7112 17.591 13.9883 16.8682C13.2653 16.1452 12.8584 15.165 12.8584 14.1426C12.8585 13.1203 13.2654 12.1399 13.9883 11.417C14.7112 10.6943 15.6916 10.2871 16.7139 10.2871H20.3701C20.9848 10.2906 21.5933 10.3785 22.1816 10.541C21.5942 6.40439 18.5489 3.05857 14.5693 2.03516V4.71387ZM16.7139 11.998C16.1451 11.998 15.5995 12.2239 15.1973 12.626C14.7951 13.0282 14.5694 13.5738 14.5693 14.1426C14.5693 14.7115 14.795 15.2569 15.1973 15.6592C15.5995 16.0614 16.145 16.2871 16.7139 16.2871C17.5087 16.2872 18.2719 16.6039 18.834 17.166C19.291 17.6232 19.5809 18.2139 19.6748 18.8457C21.2212 17.1131 22.189 14.8555 22.2773 12.3721C21.765 12.1677 21.2232 12.0447 20.6719 12.0088L20.3604 11.998H16.7139ZM11.999 1.71289C6.31742 1.71304 1.71207 6.3184 1.71191 12C1.71194 13.2029 1.92044 14.3567 2.2998 15.4297H4.71387C5.28257 15.4296 5.82831 15.2039 6.23047 14.8018C6.63249 14.3996 6.85839 13.8539 6.8584 13.2852V10.7139C6.85846 9.69159 7.26543 8.71118 7.98828 7.98828C8.7112 7.26555 9.69163 6.8584 10.7139 6.8584C11.2825 6.85827 11.8283 6.63257 12.2305 6.23047C12.6325 5.82827 12.8584 5.28253 12.8584 4.71387V1.75C12.575 1.72655 12.2885 1.7129 11.999 1.71289Z" fill="black"/>
</svg>
