<svg width="24" height="24" viewBox="0 0 24 24" fill="none" xmlns="http://www.w3.org/2000/svg">
<path fill-rule="evenodd" clip-rule="evenodd" d="M12.0007 0.00195312C12.4728 0.00209814 12.8562 0.385308 12.8562 0.857422V6.09766C13.7601 6.31363 14.5681 6.82425 15.1511 7.55176C15.7281 8.2718 16.05 9.16101 16.07 10.0801V10.9229C17.5116 11.5896 18.7701 12.6018 19.7322 13.873C20.8133 15.3017 21.4775 17.0019 21.6511 18.7852C21.6521 18.795 21.6534 18.8055 21.654 18.8154C21.668 19.0423 21.6343 19.2698 21.5564 19.4834C21.4784 19.697 21.3578 19.893 21.2009 20.0576C21.044 20.2221 20.8539 20.3524 20.6443 20.4404C20.4385 20.5268 20.217 20.5698 19.9939 20.5684L16.198 20.5693C15.8018 22.5252 14.0736 23.998 12.0007 23.998C9.92779 23.998 8.19885 22.5253 7.80247 20.5693H4.0095C3.7861 20.5708 3.56418 20.527 3.35813 20.4404C3.14866 20.3524 2.95928 20.2221 2.80247 20.0576C2.64555 19.893 2.52396 19.6971 2.44602 19.4834C2.36815 19.2698 2.33533 19.0423 2.34934 18.8154L2.35129 18.7852C2.52487 17.0021 3.18934 15.3016 4.27024 13.873C5.23202 12.602 6.49125 11.5906 7.93235 10.9238V10.0723C7.93223 9.48074 8.06143 8.89601 8.31028 8.35938C8.55925 7.82263 8.92294 7.34592 9.37473 6.96387C9.82649 6.58203 10.357 6.30273 10.9275 6.14648C10.9995 6.12677 11.0724 6.10844 11.1452 6.09277V0.857422C11.1452 0.385218 11.5285 0.00195312 12.0007 0.00195312ZM9.5759 20.5693C9.92858 21.5698 10.8795 22.2881 12.0007 22.2881C13.1219 22.288 14.0728 21.5698 14.4255 20.5693H9.5759ZM12.3835 7.74316C12.0489 7.68829 11.7058 7.70637 11.3786 7.7959C11.048 7.8865 10.7401 8.04819 10.4782 8.26953C10.2164 8.491 10.0054 8.76799 9.86106 9.0791C9.7169 9.39016 9.6422 9.72942 9.64231 10.0723V11.4873C9.64221 11.8394 9.42633 12.1561 9.09836 12.2842C7.72388 12.821 6.52392 13.7286 5.63352 14.9053C4.76196 16.0574 4.2206 17.4244 4.06418 18.8594H19.9382C19.7818 17.4242 19.2406 16.0575 18.3689 14.9053C17.4784 13.7285 16.2787 12.8209 14.904 12.2842C14.5764 12.156 14.3602 11.8392 14.3601 11.4873V10.2266C14.3729 9.64439 14.1812 9.07553 13.8171 8.62109C13.456 8.1705 12.9487 7.85986 12.3835 7.74316Z" fill="black"/>
</svg>
