<svg width="24" height="24" viewBox="0 0 24 24" fill="none" xmlns="http://www.w3.org/2000/svg">
<path fill-rule="evenodd" clip-rule="evenodd" d="M12 0.00195312C12.4722 0.00195312 12.8555 0.385218 12.8555 0.857422V7.75391C18.1346 8.18877 22.2831 12.6088 22.2832 18C22.2831 18.9455 21.5168 19.7119 20.5713 19.7119H17.0693C16.6622 22.1438 14.5484 23.9976 12.001 23.998C9.4531 23.998 7.33793 22.1441 6.93066 19.7119H3.42871C2.48324 19.7118 1.7159 18.9453 1.71582 18C1.71595 12.6089 5.86556 8.18893 11.1445 7.75391V0.857422C11.1445 0.385218 11.5278 0.00195312 12 0.00195312ZM8.67676 19.7119C9.05654 21.1931 10.4013 22.2881 12.001 22.2881C13.6002 22.2877 14.9444 21.1928 15.3242 19.7119H8.67676ZM12 9.42676C7.26513 9.42689 3.42689 13.2651 3.42676 18C3.42714 18.0009 3.42677 18.0017 3.42676 18L3.42773 18.002H20.5723L20.5732 18.001C20.5731 13.2661 16.735 9.42683 12 9.42676Z" fill="black"/>
</svg>
