<svg width="24" height="24" viewBox="0 0 24 24" fill="none" xmlns="http://www.w3.org/2000/svg">
<path fill-rule="evenodd" clip-rule="evenodd" d="M17.1445 13.7164C17.6164 13.7167 17.999 14.0999 17.999 14.5719V18.0006C17.9988 18.4724 17.6163 18.8547 17.1445 18.8551H13.7158C13.2438 18.8551 12.8606 18.4726 12.8604 18.0006V14.5719C12.8604 14.0997 13.2436 13.7164 13.7158 13.7164H17.1445ZM14.5713 17.1451H16.2891V15.4273H14.5713V17.1451Z" fill="black"/>
<path fill-rule="evenodd" clip-rule="evenodd" d="M11.5791 0.971291C11.8839 0.797982 12.2714 0.826224 12.5488 1.05723L16.2891 4.17442V2.57188C16.2891 2.09967 16.6723 1.71641 17.1445 1.71641H20.5732C21.0452 1.71675 21.4277 2.09988 21.4277 2.57188V8.45664L22.835 9.62949C23.1109 9.85997 23.2132 10.2386 23.0908 10.5768C22.9683 10.9151 22.6469 11.141 22.2871 11.1412H21.4277V20.5729H23.1445C23.6164 20.5732 23.9989 20.9564 23.999 21.4283C23.999 21.9003 23.6164 22.2834 23.1445 22.2838H0.858398C0.386195 22.2838 0.00292969 21.9005 0.00292969 21.4283C0.00301639 20.9562 0.386248 20.5729 0.858398 20.5729H2.57422V11.1412H1.71582C1.35593 11.1412 1.03472 10.9151 0.912109 10.5768C0.789619 10.2383 0.892433 9.85992 1.16895 9.62949L11.4541 1.05723L11.5791 0.971291ZM4.28516 20.5729H6.00293V14.5719C6.00293 14.0997 6.38619 13.7164 6.8584 13.7164H10.2871C10.7591 13.7166 11.1416 14.0998 11.1416 14.5719V20.5729H19.7168V11.1412H4.28516V20.5729ZM7.71387 20.5729H9.43164V15.4273H7.71387V20.5729ZM4.07715 9.43125H19.9258L16.6045 6.6627C16.6009 6.65978 16.5973 6.65689 16.5938 6.65391L12.001 2.82774L4.07715 9.43125ZM18 5.6002L19.7178 7.03184V3.42735H18V5.6002Z" fill="black"/>
</svg>
