<svg width="24" height="24" viewBox="0 0 24 24" fill="none" xmlns="http://www.w3.org/2000/svg">
<path fill-rule="evenodd" clip-rule="evenodd" d="M10.3264 10.5929C11.2885 9.76826 12.708 9.76831 13.6702 10.5929L17.9563 14.2657C18.5257 14.7538 18.8537 15.4669 18.8537 16.2169V21.4288C18.8536 22.8475 17.7031 23.9979 16.2844 23.9982H7.71214C6.29349 23.9979 5.14298 22.8475 5.14281 21.4288V16.2169C5.14286 15.4669 5.47084 14.7538 6.04027 14.2657L10.3264 10.5929ZM12.5578 11.8907C12.2361 11.615 11.7605 11.615 11.4387 11.8907L7.15355 15.5646C6.96314 15.7278 6.8538 15.9661 6.85375 16.2169V21.4288C6.85392 21.9031 7.2379 22.2879 7.71214 22.2882H11.1428V18.0001C11.1428 17.5279 11.5261 17.1447 11.9983 17.1446C12.4705 17.1446 12.8537 17.5279 12.8537 18.0001V22.2882H16.2844C16.7587 22.288 17.1426 21.9031 17.1428 21.4288V16.2169C17.1428 15.9661 17.0334 15.7278 16.843 15.5646L12.5578 11.8907Z" fill="black"/>
<path d="M14.0764 0.605577C14.2505 0.591396 14.4255 0.60302 14.594 0.646592L14.7727 0.705186L14.9426 0.783311C15.0526 0.842488 15.1555 0.914544 15.2483 0.998155L15.3791 1.13194L15.4944 1.28038C15.5645 1.38361 15.6216 1.49549 15.6653 1.61241L15.72 1.7921L15.7532 1.97667C15.7747 2.16065 15.7622 2.34754 15.718 2.52843L15.719 2.5294C15.5194 3.35283 15.554 4.21638 15.8176 5.02159C16.0549 5.7461 16.4708 6.397 17.0237 6.91808C17.258 6.92243 17.4919 6.87551 17.7073 6.77843C17.9917 6.65015 18.2322 6.44073 18.3987 6.17687C18.5328 5.9609 18.7181 5.7807 18.9377 5.65245L19.1106 5.56554C19.2881 5.48961 19.479 5.4469 19.6731 5.44054L19.8664 5.4464C20.0589 5.46404 20.2472 5.51681 20.4211 5.60362C20.6502 5.71804 20.8471 5.88811 20.9953 6.09679C21.9259 7.39771 22.4355 8.95441 22.4514 10.5538H22.4494C22.4595 11.183 22.306 11.8653 22.0969 12.4737C21.8844 13.092 21.5954 13.6942 21.2922 14.172C21.0392 14.5707 20.5102 14.6887 20.1116 14.4357C19.7133 14.1826 19.5953 13.6545 19.8479 13.256C20.074 12.8996 20.3074 12.4196 20.4797 11.9181C20.6547 11.4087 20.7478 10.9339 20.7414 10.5773V10.5704C20.7296 9.39188 20.3746 8.24386 19.7239 7.26476C19.3869 7.72938 18.9349 8.10014 18.4094 8.33702C17.8189 8.60314 17.163 8.68992 16.5237 8.58605C16.3712 8.56123 16.2287 8.49514 16.1106 8.39562C15.2195 7.64487 14.5543 6.66114 14.1916 5.55382C13.8499 4.51005 13.789 3.3952 14.0129 2.32237C12.6073 2.44408 11.2823 3.03886 10.2561 4.01183C9.18983 5.02295 8.51454 6.37794 8.34886 7.838C8.30325 8.24054 7.98073 8.55656 7.57738 8.59386C6.93422 8.65297 6.28643 8.53396 5.70628 8.25011C5.1863 7.99562 4.73954 7.61608 4.4016 7.14855C3.8567 7.85743 3.4901 8.68831 3.33812 9.5714C3.27013 9.96662 3.30236 10.5748 3.45726 11.2843C3.60939 11.9807 3.86505 12.7067 4.1848 13.3175C4.40362 13.7357 4.24153 14.2517 3.82347 14.4708C3.40521 14.6897 2.8892 14.5286 2.67015 14.1105C2.27308 13.352 1.96789 12.4806 1.78636 11.6495C1.60777 10.8317 1.5323 9.98055 1.65257 9.28136C1.85287 8.11746 2.33592 7.02139 3.05687 6.08898L3.20433 5.90441C3.36119 5.71417 3.56113 5.56315 3.78734 5.46495C3.95774 5.39103 4.13995 5.34898 4.32445 5.33898L4.51 5.33995L4.69359 5.36241C4.81465 5.38487 4.93272 5.42161 5.04515 5.47179L5.21019 5.55773L5.36253 5.66124C5.50645 5.77228 5.63007 5.90827 5.72777 6.06261C5.90683 6.34252 6.15977 6.56793 6.45824 6.71398C6.56312 6.76529 6.67261 6.805 6.78441 6.83507C7.12446 5.28749 7.92051 3.86947 9.07933 2.77062C10.4379 1.4825 12.2076 0.714485 14.0764 0.602647V0.605577Z" fill="black"/>
</svg>
