<svg width="24" height="24" viewBox="0 0 24 24" fill="none" xmlns="http://www.w3.org/2000/svg">
<path fill-rule="evenodd" clip-rule="evenodd" d="M21.4287 0.858398C21.9006 0.858747 22.2832 1.24286 22.2832 1.71484C22.2829 2.18661 21.9005 2.56996 21.4287 2.57031H18.8545V6.00098C18.8541 8.58363 17.4246 10.8306 15.3145 11.999C17.4252 13.1676 18.8545 15.4167 18.8545 18V21.4307H21.4287C21.9006 21.431 22.2832 21.8141 22.2832 22.2861C22.2829 22.7579 21.9005 23.1413 21.4287 23.1416H2.57129C2.09925 23.1416 1.71608 22.7581 1.71582 22.2861C1.71582 21.8139 2.09909 21.4307 2.57129 21.4307H5.14355V18C5.14356 15.4172 6.57256 13.1679 8.68262 11.999C6.57302 10.8302 5.14372 8.58235 5.14355 6L5.14453 2.57031H2.57129C2.09925 2.57031 1.71608 2.18682 1.71582 1.71484C1.71582 1.24264 2.09909 0.858398 2.57129 0.858398H21.4287ZM11.999 12.8555C9.15769 12.8557 6.85451 15.1586 6.85449 18V21.4307H17.1445V18C17.1445 15.1585 14.8405 12.8555 11.999 12.8555ZM6.85449 6C6.85474 8.83466 9.14729 11.1338 11.9795 11.1445H12.0176C14.8504 11.1347 17.143 8.83598 17.1436 6.00098L17.1445 2.57031H6.85449V6Z" fill="black"/>
</svg>
