<svg width="24" height="24" viewBox="0 0 24 24" fill="none" xmlns="http://www.w3.org/2000/svg">
<path d="M19.7119 17.1441C20.184 17.1441 20.5672 17.5276 20.5674 17.9996V22.2877H22.2842C22.7562 22.2879 23.1396 22.6711 23.1396 23.1432C23.1395 23.615 22.756 23.9984 22.2842 23.9986H17.1416C16.6695 23.9986 16.2863 23.6152 16.2861 23.1432C16.2861 22.6709 16.6694 22.2877 17.1416 22.2877H18.8574V18.8551H17.998C17.526 18.8549 17.1426 18.4717 17.1426 17.9996C17.1428 17.5277 17.5261 17.1443 17.998 17.1441H19.7119Z" fill="black"/>
<path d="M9.77246 0.172449C10.097 -0.0705065 10.5537 -0.0535883 10.8594 0.224207L19.7266 8.28573L19.917 8.47714C20.3341 8.94526 20.5673 9.55366 20.5674 10.1871C20.5672 10.6591 20.1849 11.0414 19.7129 11.0416C19.2408 11.0416 18.8576 10.6592 18.8574 10.1871C18.8574 9.9452 18.7552 9.71426 18.5762 9.55136L10.2842 2.01229L1.99219 9.55136C1.81309 9.71417 1.71098 9.94504 1.71094 10.1871V17.9996C1.71094 18.474 2.09495 18.8587 2.56934 18.859H13.7129C14.1849 18.8591 14.5673 19.2424 14.5674 19.7144C14.5672 20.1864 14.1849 20.5688 13.7129 20.5689H2.56934C1.15056 20.5687 0 19.4185 0 17.9996V10.1871C4.02816e-05 9.46326 0.306199 8.77263 0.841797 8.28573L9.70898 0.224207L9.77246 0.172449Z" fill="black"/>
<path d="M19.7129 12.859C20.4218 12.859 20.9961 13.4343 20.9961 14.1432C20.9959 14.8481 20.4282 15.4193 19.7246 15.4254C19.7209 15.4254 19.7166 15.4264 19.7129 15.4264C19.0486 15.4261 18.5022 14.9211 18.4365 14.274L18.4297 14.1432L18.4365 14.0113C18.4994 13.3939 19 12.9063 19.623 12.8629H19.626L19.7129 12.859Z" fill="black"/>
</svg>
