<svg width="24" height="24" viewBox="0 0 24 24" fill="none" xmlns="http://www.w3.org/2000/svg">
<path d="M18.4297 12.8589C18.9019 12.8589 19.2852 13.2422 19.2852 13.7144V17.5728H23.1445C23.6164 17.5731 23.999 17.9563 23.999 18.4283C23.999 18.9003 23.6164 19.2834 23.1445 19.2837H19.2852V23.1431C19.285 23.6152 18.9018 23.9976 18.4297 23.9976C17.9576 23.9976 17.5744 23.6152 17.5742 23.1431V19.2837H13.7158C13.2436 19.2837 12.8604 18.9005 12.8604 18.4283C12.8604 17.9561 13.2437 17.5728 13.7158 17.5728H17.5742V13.7144C17.5742 13.2422 17.9575 12.8589 18.4297 12.8589Z" fill="black"/>
<path d="M9.77539 0.172417C10.1 -0.0704409 10.5567 -0.0536399 10.8623 0.224175L19.7295 8.2857L19.9199 8.4771C20.337 8.94522 20.5703 9.55364 20.5703 10.1871V10.7144C20.5702 11.1863 20.1877 11.5686 19.7158 11.5689C19.2437 11.5689 18.8605 11.1865 18.8604 10.7144V10.1871C18.8603 9.94519 18.7581 9.71422 18.5791 9.55132L10.2871 2.01226L1.99512 9.55132C1.81601 9.71414 1.7139 9.945 1.71387 10.1871V17.9996C1.71387 18.474 2.09788 18.8587 2.57227 18.8589H10.2871C10.7591 18.8591 11.1415 19.2424 11.1416 19.7144C11.1415 20.1864 10.759 20.5687 10.2871 20.5689H2.57227C1.15349 20.5687 0.00292969 19.4184 0.00292969 17.9996V10.1871C0.0029654 9.46322 0.309125 8.7726 0.844727 8.2857L9.71191 0.224175L9.77539 0.172417Z" fill="black"/>
</svg>
