<svg width="24" height="24" viewBox="0 0 24 24" fill="none" xmlns="http://www.w3.org/2000/svg">
<path d="M22.4756 14.0377C22.7706 13.669 23.309 13.6089 23.6777 13.9039C24.0463 14.1989 24.1055 14.7373 23.8105 15.106L16.9541 23.6773C16.6657 24.0375 16.1427 24.1043 15.7734 23.8277L12.3447 21.2554C11.9671 20.9722 11.8908 20.4369 12.1738 20.0591C12.4572 19.6814 12.9924 19.6049 13.3701 19.8882L16.1348 21.9615L22.4756 14.0377Z" fill="black"/>
<path d="M9.77441 0.172423C10.0989 -0.070551 10.5557 -0.053519 10.8613 0.224181L19.7285 8.2857L19.9189 8.47711C20.336 8.94524 20.5693 9.55363 20.5693 10.1871V11.9996C20.5693 12.4717 20.1869 12.8549 19.7148 12.855C19.2428 12.8549 18.8594 12.4717 18.8594 11.9996V10.1871C18.8593 9.94517 18.7572 9.71423 18.5781 9.55133L10.2861 2.01227L1.99414 9.55133C1.81508 9.71414 1.71293 9.94504 1.71289 10.1871V17.9996C1.71289 18.4739 2.09701 18.8586 2.57129 18.8589H9.42871C9.90087 18.8589 10.2841 19.2423 10.2842 19.7144C10.284 20.1865 9.90082 20.5689 9.42871 20.5689H2.57129C1.15262 20.5685 0.00195312 19.4184 0.00195312 17.9996V10.1871C0.00199199 9.46326 0.308192 8.7726 0.84375 8.2857L9.71094 0.224181L9.77441 0.172423Z" fill="black"/>
</svg>
