<svg width="24" height="24" viewBox="0 0 24 24" fill="none" xmlns="http://www.w3.org/2000/svg">
<path d="M18.042 15.8298C18.4794 15.8416 18.8968 16.0196 19.207 16.3298C19.5056 16.6285 19.6789 17.0266 19.7021 17.446C19.7056 17.4771 19.708 17.5088 19.708 17.5408C19.708 17.5718 19.7064 17.6024 19.7031 17.6326C19.6805 18.0529 19.5061 18.4515 19.207 18.7507C18.9098 19.048 18.514 19.2212 18.0967 19.2459C18.0944 19.2461 18.0921 19.2466 18.0898 19.2468C18.06 19.25 18.0297 19.2527 17.999 19.2527L17.998 19.2517L17.9961 19.2527C17.9617 19.2527 17.9279 19.2498 17.8945 19.2459C17.4787 19.2203 17.0843 19.047 16.7881 18.7507C16.4941 18.4566 16.3195 18.0664 16.292 17.6541C16.2871 17.6169 16.2832 17.5792 16.2832 17.5408C16.2832 17.5017 16.2869 17.4632 16.292 17.4255C16.3199 17.0136 16.4944 16.6236 16.7881 16.3298C17.098 16.0199 17.5151 15.8419 17.9521 15.8298C17.9667 15.8291 17.9813 15.8279 17.9961 15.8279H17.999C18.0134 15.8279 18.0278 15.8291 18.042 15.8298Z" fill="black"/>
<path fill-rule="evenodd" clip-rule="evenodd" d="M18.3555 11.0847C18.7009 11.0859 19.0386 11.1916 19.3232 11.3875C19.6077 11.5833 19.8267 11.8608 19.9512 12.1824L20.2129 12.8572L20.9492 13.281L21.6709 13.1716L21.6846 13.1697C22.0216 13.1241 22.3653 13.1792 22.6709 13.3289C22.9385 13.46 23.1671 13.6584 23.334 13.9031L23.4014 14.0115L23.4033 14.0154L23.7432 14.6091C23.9187 14.9079 24.0001 15.2537 23.9756 15.6003C23.9512 15.9441 23.8228 16.2728 23.6084 16.5437L23.6094 16.5447L23.1631 17.1121V17.9626L23.6201 18.53L23.623 18.5339C23.8391 18.8051 23.9687 19.1359 23.9932 19.4822L23.9971 19.6121C23.9957 19.9106 23.915 20.2039 23.7646 20.4636L23.7656 20.4646L23.4209 21.0681L23.4189 21.072C23.2485 21.3667 22.993 21.603 22.6875 21.7527C22.3816 21.9026 22.0388 21.9584 21.7021 21.9128L21.6885 21.9119L20.9658 21.8005L20.2295 22.2244L19.9688 22.9001C19.8442 23.2223 19.6247 23.5001 19.3398 23.696L19.3389 23.6951C19.0545 23.8905 18.7174 23.9967 18.3721 23.9978H17.6436C17.2977 23.9968 16.9595 23.8909 16.6748 23.6951C16.3906 23.4994 16.1715 23.2225 16.0469 22.9001L15.7852 22.2244L15.0488 21.8005L14.3281 21.9109L14.3135 21.9138C13.9768 21.9594 13.6331 21.9036 13.3271 21.7537C13.0217 21.6039 12.7679 21.366 12.5977 21.072L12.5947 21.0681L12.25 20.4646L12.251 20.4636C12.0789 20.1667 11.9993 19.8256 12.0234 19.4832C12.048 19.137 12.1762 18.8055 12.3926 18.5339L12.8359 17.9685V17.1189L12.3789 16.5525L12.376 16.5486C12.1597 16.2771 12.0304 15.9468 12.0059 15.6003C11.9814 15.2541 12.0623 14.9085 12.2383 14.6091L12.5781 14.0154L12.5801 14.0105C12.7506 13.7162 13.0051 13.4785 13.3105 13.3289C13.5778 13.198 13.8744 13.139 14.1699 13.157L14.2969 13.1697L14.3105 13.1716L15.0342 13.282L15.7861 12.8552L16.0469 12.1824C16.1714 11.8604 16.3905 11.5832 16.6748 11.3875C16.9597 11.1915 17.2979 11.0857 17.6436 11.0847H18.3555ZM17.6445 12.7966C17.6436 12.7973 17.643 12.7985 17.6426 12.7996L17.6416 12.8005L17.2715 13.7576C17.2003 13.941 17.0675 14.0949 16.8965 14.1921L15.6211 14.9158C15.4542 15.0105 15.259 15.0462 15.0693 15.0173L14.0654 14.864L14.0625 14.865C14.0615 14.8655 14.0602 14.8669 14.0596 14.8679L13.7178 15.4666L13.7119 15.4763V15.4822L14.3564 16.281C14.4788 16.4329 14.5459 16.623 14.5459 16.8181V18.2654C14.5459 18.4567 14.4813 18.6432 14.3633 18.7937L13.7344 19.5945L13.7305 19.5994C13.7298 19.6002 13.7287 19.6019 13.7285 19.6033L13.7295 19.6072L13.7354 19.616L14.0781 20.2156L14.0801 20.2175L14.083 20.2185L15.0869 20.0662L15.2305 20.0564C15.3742 20.0589 15.5166 20.0972 15.6426 20.1697L16.9004 20.8933L17.0195 20.9763C17.1312 21.0689 17.2185 21.1892 17.2715 21.3259L17.6416 22.283L17.6426 22.2839C17.643 22.2848 17.6434 22.2861 17.6445 22.2869C17.6456 22.2875 17.6473 22.2878 17.6484 22.2878H18.3672C18.3682 22.2878 18.37 22.2876 18.3711 22.2869L18.374 22.283L18.7441 21.3259C18.8148 21.1437 18.9459 20.9907 19.1152 20.8933L20.374 20.1697L20.5039 20.1091C20.6388 20.0594 20.7851 20.0443 20.9287 20.0662L21.9326 20.2185C21.9337 20.2186 21.935 20.2188 21.9355 20.2185L21.9385 20.2156L22.2812 19.616L22.2861 19.6072C22.2866 19.6063 22.2872 19.6046 22.2871 19.6033L22.2861 19.6003L21.6426 18.8025C21.52 18.6505 21.4531 18.4607 21.4531 18.2654V16.8181C21.4531 16.6267 21.5175 16.4404 21.6357 16.2898L22.2646 15.488L22.2686 15.4832C22.269 15.4824 22.2694 15.4809 22.2695 15.4792C22.2695 15.4784 22.2693 15.4767 22.2686 15.4753L22.2637 15.4666L21.9209 14.8669L21.9189 14.865C21.918 14.8646 21.9153 14.864 21.9141 14.864L20.9121 15.0173C20.7207 15.0465 20.5243 15.0093 20.3564 14.9128L19.0986 14.1892C18.9294 14.0919 18.7982 13.9395 18.7275 13.7576L18.3564 12.8005C18.3559 12.7991 18.3544 12.7972 18.3535 12.7966L18.3496 12.7957H17.6484L17.6445 12.7966Z" fill="black"/>
<path d="M9.77344 0.172609C10.098 -0.0701502 10.5548 -0.0534115 10.8604 0.224367L19.1738 7.78198C19.5227 8.09959 19.5477 8.64073 19.2305 8.98999C18.913 9.33889 18.3727 9.36462 18.0234 9.04761L10.2852 2.01245L1.99316 9.55152C1.81404 9.71435 1.71193 9.94517 1.71191 10.1873V17.9998C1.71191 18.4742 2.09593 18.8589 2.57031 18.8591H9.42773C9.89969 18.8594 10.2832 19.2426 10.2832 19.7146C10.2831 20.1865 9.89962 20.5688 9.42773 20.5691H2.57031C1.15154 20.5689 0 19.4186 0 17.9998V10.1873C1.7609e-05 9.46339 0.307156 8.77281 0.842773 8.28589L9.70996 0.224367L9.77344 0.172609Z" fill="black"/>
</svg>
