<svg width="24" height="24" viewBox="0 0 24 24" fill="none" xmlns="http://www.w3.org/2000/svg">
<path d="M9.77344 0.172622C10.098 -0.0701617 10.5548 -0.0534076 10.8604 0.22438L19.7275 8.2859L19.918 8.47731C20.335 8.94543 20.5683 9.55389 20.5684 10.1873V14.5711C20.5684 15.043 20.1857 15.4261 19.7139 15.4265C19.2417 15.4265 18.8584 15.0433 18.8584 14.5711V10.1873C18.8584 9.94544 18.7561 9.71444 18.5771 9.55153L10.2852 2.01247L1.99316 9.55153C1.81404 9.71437 1.71193 9.94518 1.71191 10.1873V17.9998C1.71191 18.4742 2.09593 18.8589 2.57031 18.8591H10.2852C10.7571 18.8595 11.1396 19.2426 11.1396 19.7146C11.1395 20.1865 10.757 20.5688 10.2852 20.5691H2.57031C1.15154 20.5689 0.000976562 19.4186 0.000976562 17.9998V10.1873C0.000988831 9.46339 0.307151 8.77283 0.842773 8.2859L9.70996 0.22438L9.77344 0.172622Z" fill="black"/>
<path d="M23.1416 17.573C23.6137 17.5731 23.996 17.9564 23.9961 18.4285C23.9961 18.9006 23.6137 19.2839 23.1416 19.284H13.7129C13.2408 19.2838 12.8574 18.9006 12.8574 18.4285C12.8575 17.9564 13.2409 17.5731 13.7129 17.573H23.1416Z" fill="black"/>
</svg>
