<svg width="24" height="24" viewBox="0 0 24 24" fill="none" xmlns="http://www.w3.org/2000/svg">
<path fill-rule="evenodd" clip-rule="evenodd" d="M19.7119 1.71582C19.9385 1.71592 20.1561 1.80654 20.3164 1.9668L23.7451 5.39551C24.0787 5.72932 24.0786 6.27063 23.7451 6.60449C23.4113 6.93833 22.87 6.93819 22.5361 6.60449L19.7119 3.78027L17.0645 6.42773L19.4609 8.82422C19.7944 9.15811 19.7946 9.69942 19.4609 10.0332C19.1272 10.367 18.5859 10.3667 18.252 10.0332L15.8555 7.63672L10.8008 12.6904C11.5519 13.6921 11.997 14.9369 11.9971 16.2852C11.9971 19.5976 9.31131 22.2829 5.99902 22.2832C2.68664 22.2831 0 19.5977 0 16.2852C0.000282924 12.973 2.68681 10.2873 5.99902 10.2871C7.3463 10.2872 8.58953 10.7323 9.59082 11.4824L19.1074 1.9668L19.1699 1.91016C19.322 1.78557 19.5136 1.71582 19.7119 1.71582ZM5.99902 11.998C3.63122 11.9982 1.7122 13.9174 1.71191 16.2852C1.71191 18.6533 3.63103 20.5731 5.99902 20.5732C8.36692 20.573 10.2871 18.6532 10.2871 16.2852C10.287 15.1191 9.81989 14.0628 9.06445 13.29C9.05196 13.2789 9.03932 13.2678 9.02734 13.2559C9.01569 13.2442 9.00498 13.2319 8.99414 13.2197C8.22121 12.4647 7.1649 11.9982 5.99902 11.998Z" fill="black"/>
</svg>
