<svg width="24" height="24" viewBox="0 0 24 24" fill="none" xmlns="http://www.w3.org/2000/svg">
<path fill-rule="evenodd" clip-rule="evenodd" d="M9.42645 0.858398C10.533 0.858398 11.4873 1.58071 11.8444 2.57324H13.7126C15.7579 2.57326 17.7195 3.38671 19.1657 4.83301C20.612 6.27931 21.4245 8.24088 21.4245 10.2861V21.4307H23.1413C23.6133 21.4309 23.9958 21.8141 23.9958 22.2861C23.9955 22.758 23.6131 23.1414 23.1413 23.1416H12.8552C12.3833 23.1414 12 22.758 11.9997 22.2861C11.9997 21.814 12.3831 21.4308 12.8552 21.4307H19.7145V10.2861C19.7145 8.69436 19.0823 7.16758 17.9567 6.04199C16.8312 4.91642 15.3044 4.2842 13.7126 4.28418H11.9958V5.52539C14.1326 6.95711 15.4475 9.41979 15.4245 12.0078C15.42 12.4767 15.0389 12.8553 14.57 12.8555H0.855156C0.386363 12.8552 0.00512082 12.4766 0.000663795 12.0078C-0.0223657 9.41994 1.29275 6.95715 3.42937 5.52539V3.42871C3.42961 2.02308 4.59306 0.858563 5.99871 0.858398H9.42645ZM5.99871 2.57031C5.53746 2.57048 5.13958 2.96747 5.13934 3.42871V6.00098C5.13901 6.3061 4.97589 6.58863 4.7116 6.74121C3.10522 7.66875 2.01478 9.32668 1.76531 11.1455H13.6598C13.4104 9.32653 12.3202 7.66869 10.7136 6.74121C10.4493 6.58863 10.2861 6.30609 10.2858 6.00098V3.42871C10.2856 2.96739 9.88781 2.57031 9.42645 2.57031H5.99871Z" fill="black"/>
</svg>
