<svg width="24" height="24" viewBox="0 0 24 24" fill="none" xmlns="http://www.w3.org/2000/svg">
<path d="M14.5732 22.2871C15.0451 22.2874 15.4286 22.6706 15.4287 23.1426C15.4287 23.6146 15.0452 23.9978 14.5732 23.998H9.43066C8.95846 23.998 8.5752 23.6148 8.5752 23.1426C8.57533 22.6705 8.95854 22.2871 9.43066 22.2871H14.5732Z" fill="black"/>
<path d="M4.73047 18.0625C5.06424 17.7287 5.60552 17.729 5.93945 18.0625C6.27335 18.3964 6.27335 18.9376 5.93945 19.2715L4.72754 20.4834C4.39364 20.8173 3.85245 20.8173 3.51855 20.4834C3.18503 20.1495 3.18478 19.6082 3.51855 19.2744L4.73047 18.0625Z" fill="black"/>
<path d="M18.0635 18.0625C18.3973 17.7288 18.9386 17.7288 19.2725 18.0625L20.4844 19.2744C20.8182 19.6083 20.8182 20.1495 20.4844 20.4834C20.1505 20.8173 19.6093 20.8173 19.2754 20.4834L18.0635 19.2715C17.7297 18.9376 17.7296 18.3964 18.0635 18.0625Z" fill="black"/>
<path fill-rule="evenodd" clip-rule="evenodd" d="M12.002 5.14453C15.7878 5.14466 18.8574 8.21417 18.8574 12C18.8574 14.5385 17.4762 16.7521 15.4287 17.9365V19.7139C15.4287 20.186 15.0453 20.5692 14.5732 20.5693H9.43066C8.95846 20.5693 8.5752 20.1861 8.5752 19.7139V17.9365C6.52757 16.7521 5.14648 14.5386 5.14648 12C5.14648 8.21409 8.21604 5.14453 12.002 5.14453ZM12.002 6.85547C9.16045 6.85547 6.85742 9.15849 6.85742 12C6.85742 14.0511 8.05763 15.8237 9.79785 16.6504C10.0956 16.7921 10.2852 17.093 10.2852 17.4229V18.8594H13.7188V17.4229C13.7188 17.0929 13.9081 16.7921 14.2061 16.6504C15.9462 15.8237 17.1465 14.051 17.1465 12C17.1465 9.15858 14.8433 6.8556 12.002 6.85547Z" fill="black"/>
<path d="M2.57324 11.1445C3.04522 11.1448 3.42871 11.528 3.42871 12C3.42871 12.472 3.04522 12.8552 2.57324 12.8555H0.859375C0.387172 12.8555 0.00292969 12.4722 0.00292969 12C0.00292969 11.5278 0.387172 11.1445 0.859375 11.1445H2.57324Z" fill="black"/>
<path d="M23.1445 11.1445C23.6165 11.1448 24 11.528 24 12C24 12.472 23.6165 12.8552 23.1445 12.8555H21.4307C20.9585 12.8555 20.5752 12.4722 20.5752 12C20.5752 11.5278 20.9585 11.1445 21.4307 11.1445H23.1445Z" fill="black"/>
<path d="M3.51855 3.5166C3.85245 3.1827 4.39364 3.1827 4.72754 3.5166L5.93945 4.72852C6.27335 5.06241 6.27335 5.6036 5.93945 5.9375C5.60554 6.27115 5.06429 6.27132 4.73047 5.9375L3.51855 4.72559C3.18474 4.39177 3.1849 3.85052 3.51855 3.5166Z" fill="black"/>
<path d="M19.2754 3.5166C19.6092 3.18275 20.1505 3.18284 20.4844 3.5166C20.8182 3.85051 20.8182 4.39173 20.4844 4.72559L19.2725 5.9375C18.9386 6.27124 18.3973 6.27124 18.0635 5.9375C17.7298 5.60363 17.7297 5.06238 18.0635 4.72852L19.2754 3.5166Z" fill="black"/>
<path d="M12.002 0.00195312C12.474 0.00208524 12.8574 0.3853 12.8574 0.857422V2.57129C12.8573 3.0433 12.474 3.42663 12.002 3.42676C11.5298 3.42676 11.1466 3.04338 11.1465 2.57129V0.857422C11.1465 0.385218 11.5297 0.00195312 12.002 0.00195312Z" fill="black"/>
</svg>
