<svg width="24" height="24" viewBox="0 0 24 24" fill="none" xmlns="http://www.w3.org/2000/svg">
<path fill-rule="evenodd" clip-rule="evenodd" d="M10.9658 5.25781C11.4337 4.54919 12.537 4.48841 13.0312 5.2373L13.127 5.41016L13.7158 6.60547C13.8741 6.9239 14.0368 7.25518 14.1455 7.47559C14.3843 7.51082 14.7426 7.56394 15.0898 7.61621C15.6684 7.7033 16.2487 7.7897 16.3955 7.80859C17.4298 7.94155 17.8454 9.23363 17.085 9.94531C16.9816 10.0421 16.5673 10.4542 16.1484 10.8721C15.8948 11.1251 15.6335 11.3832 15.4629 11.5527L15.8584 13.833C16.0346 14.8494 14.9518 15.6304 14.043 15.1475L12.001 14.0684L9.95801 15.1484L9.95703 15.1475C9.0475 15.629 7.96788 14.8475 8.14453 13.832L8.53711 11.5303L6.88574 9.93652L6.88672 9.93555C6.13488 9.2139 6.57087 7.93948 7.58984 7.81348V7.81152L9.85742 7.47461C9.96637 7.2545 10.1293 6.92461 10.2871 6.6084C10.5523 6.07698 10.8144 5.54979 10.875 5.41895L10.9658 5.25781ZM11.8174 7.37207C11.6869 7.63364 11.559 7.88888 11.4609 8.08594C11.412 8.18425 11.3712 8.26751 11.3408 8.3291C11.3125 8.38664 11.2995 8.41276 11.2969 8.41797C11.126 8.80305 10.7629 9.07306 10.3467 9.12988L10.3477 9.13184L8.75781 9.36621L9.90234 10.4707C10.1977 10.7529 10.3339 11.1684 10.2646 11.5713L10.2656 11.5723L9.9873 13.1982L11.416 12.4443L11.4385 12.4326C11.7472 12.2812 12.1064 12.2616 12.4277 12.375L12.5635 12.4326L12.5859 12.4443L14.0127 13.1973L13.7373 11.6025C13.6666 11.1944 13.8078 10.7718 14.1104 10.4893C14.1122 10.4875 14.1345 10.4657 14.1865 10.4141C14.2354 10.3656 14.3013 10.3 14.3789 10.2227C14.5345 10.0675 14.7352 9.86789 14.9414 9.66211C15.04 9.56375 15.1421 9.46396 15.2402 9.36621C15.107 9.34622 14.9696 9.32691 14.835 9.30664C14.5489 9.26357 14.2693 9.22166 14.0537 9.18945C13.946 9.17336 13.8547 9.16024 13.7871 9.15039C13.7172 9.1402 13.6881 9.13613 13.6855 9.13574C13.2567 9.08824 12.8801 8.81225 12.7051 8.41797C12.7025 8.4127 12.6897 8.38625 12.6611 8.32812C12.6307 8.26618 12.589 8.18189 12.54 8.08301C12.442 7.88529 12.3149 7.62948 12.1846 7.36719C12.1237 7.24479 12.0623 7.11872 12.002 6.99707C11.9406 7.12027 11.8792 7.24815 11.8174 7.37207Z" fill="black"/>
<path fill-rule="evenodd" clip-rule="evenodd" d="M12.001 0.00195312C17.6363 0.00222189 22.1777 4.65508 22.1777 10.3594C22.1777 13.7655 20.4885 16.7022 18.5889 18.9355C16.6832 21.1759 14.4917 22.7964 13.3145 23.5879C12.5164 24.1244 11.4866 24.1241 10.6885 23.5879C9.51144 22.7966 7.31908 21.1762 5.41309 18.9355C3.51341 16.7022 1.82332 13.7655 1.82324 10.3594C1.82326 4.65497 6.36538 0.00202975 12.001 0.00195312ZM12.001 1.71289C7.34056 1.71297 3.53518 5.5683 3.53516 10.3594C3.53524 13.1918 4.94496 15.7462 6.71582 17.8281C8.48024 19.9022 10.5314 21.422 11.6426 22.1689C11.8638 22.3173 12.1392 22.3176 12.3604 22.1689C13.4717 21.4218 15.5228 19.9023 17.2871 17.8281C19.0579 15.7463 20.4677 13.1917 20.4678 10.3594C20.4678 5.56843 16.6612 1.71316 12.001 1.71289Z" fill="black"/>
</svg>
