<svg width="24" height="24" viewBox="0 0 24 24" fill="none" xmlns="http://www.w3.org/2000/svg">
<path d="M12.001 12.001C13.5365 12.001 14.9395 12.5801 16 13.5293C16.3514 13.8443 16.3812 14.3846 16.0664 14.7363C15.7515 15.0877 15.2111 15.1174 14.8594 14.8027C14.1002 14.1233 13.0996 13.7119 12.001 13.7119C10.9024 13.712 9.90167 14.1234 9.14258 14.8027C8.79085 15.1172 8.25041 15.0877 7.93555 14.7363C7.62082 14.3847 7.6507 13.8443 8.00195 13.5293C9.06247 12.5801 10.4655 12.001 12.001 12.001Z" fill="black"/>
<path fill-rule="evenodd" clip-rule="evenodd" d="M12 4.28613C13.8923 4.28613 15.4267 5.82056 15.4268 7.71289C15.4266 9.60515 13.8923 11.1396 12 11.1396C10.108 11.1393 8.57435 9.60494 8.57422 7.71289C8.57426 5.82077 10.1079 4.28647 12 4.28613ZM12 5.99609C11.0524 5.99643 10.2842 6.76517 10.2842 7.71289C10.2843 8.66053 11.0524 9.42935 12 9.42969C12.9479 9.42969 13.7167 8.66074 13.7168 7.71289C13.7168 6.76496 12.9479 5.99609 12 5.99609Z" fill="black"/>
<path fill-rule="evenodd" clip-rule="evenodd" d="M12.001 0.00195312C17.6883 0.00202909 22.284 4.65714 22.2842 10.3809C22.2841 11.8893 21.7368 13.4861 20.9561 14.9883C20.1694 16.5017 19.1115 17.986 18.0107 19.2871C16.9098 20.5885 15.7474 21.7289 14.7373 22.5518C14.2336 22.962 13.7524 23.3058 13.3242 23.5518C12.9845 23.7468 12.5757 23.9416 12.1729 23.9873C12.1154 23.9938 12.0579 23.998 12.001 23.998C11.9439 23.998 11.8866 23.9938 11.8291 23.9873C11.4262 23.9415 11.0174 23.7468 10.6777 23.5518C10.2495 23.3058 9.76843 22.9621 9.26465 22.5518C8.25451 21.7289 7.09219 20.5885 5.99121 19.2871C4.89045 17.9859 3.83253 16.5017 3.0459 14.9883C2.26515 13.4861 1.71686 11.8893 1.7168 10.3809C1.717 4.65718 6.31367 0.00208635 12.001 0.00195312ZM11.5605 1.72363C7.03763 1.9554 3.42793 5.73519 3.42773 10.3809C3.42779 11.5021 3.84437 12.8167 4.56348 14.2002C5.27682 15.5725 6.25491 16.9509 7.29688 18.1826C8.33857 19.4139 9.42648 20.4776 10.3447 21.2256C10.8051 21.6006 11.2076 21.8845 11.5293 22.0693C11.7097 22.173 11.8349 22.2271 11.9111 22.2559C11.9875 22.2847 12.0148 22.2881 12.001 22.2881C11.9874 22.2881 12.0151 22.2853 12.0908 22.2568C12.167 22.2282 12.2918 22.1732 12.4727 22.0693C12.7943 21.8846 13.197 21.6005 13.6572 21.2256C14.5754 20.4776 15.6634 19.4138 16.7051 18.1826C17.747 16.951 18.7251 15.5725 19.4385 14.2002C20.1576 12.8167 20.5742 11.5021 20.5742 10.3809C20.574 5.73507 16.9645 1.95522 12.4414 1.72363C12.2956 1.71617 12.1486 1.71289 12.001 1.71289C11.8533 1.71289 11.7064 1.71616 11.5605 1.72363Z" fill="black"/>
</svg>
