<svg width="24" height="24" viewBox="0 0 24 24" fill="none" xmlns="http://www.w3.org/2000/svg">
<path d="M12 13.7158C12.4721 13.7158 12.8553 14.0992 12.8555 14.5713V17.1426C12.8555 17.6148 12.4722 17.998 12 17.998C11.5278 17.998 11.1445 17.6148 11.1445 17.1426V14.5713C11.1447 14.0992 11.5279 13.7158 12 13.7158Z" fill="black"/>
<path fill-rule="evenodd" clip-rule="evenodd" d="M14.5723 0.00195312C16.9376 0.00244329 18.8555 1.92068 18.8555 4.28613V10.2861C19.9313 11.7183 20.5693 13.5002 20.5693 15.4287C20.5692 20.1611 16.7324 23.9978 12 23.998C7.26759 23.9978 3.42982 20.1611 3.42969 15.4287C3.42976 10.6962 7.26755 6.8596 12 6.85938C13.9314 6.85948 15.7129 7.50148 17.1455 8.5791V4.28613C17.1455 2.86509 15.9932 1.71338 14.5723 1.71289H9.42871C8.00749 1.71304 6.85547 2.86488 6.85547 4.28613C6.85526 4.758 6.47185 5.14036 6 5.14062C5.52812 5.1404 5.14572 4.75802 5.14551 4.28613C5.14551 1.92047 7.06309 0.00210386 9.42871 0.00195312H14.5723ZM12 8.56934C8.21196 8.56956 5.14168 11.6406 5.1416 15.4287C5.14173 19.2167 8.21199 22.2879 12 22.2881C15.788 22.2878 18.8592 19.2167 18.8594 15.4287C18.8593 13.7946 18.2892 12.2954 17.3359 11.1172C16.0771 9.56166 14.1542 8.56949 12 8.56934Z" fill="black"/>
</svg>
