<svg width="24" height="24" viewBox="0 0 24 24" fill="none" xmlns="http://www.w3.org/2000/svg">
<path d="M19.7148 0.00195312C21.1337 0.00195312 22.284 1.1525 22.2842 2.57129V21.4287C22.284 22.8476 21.1337 23.998 19.7148 23.998H7.71484C6.2962 23.9978 5.14564 22.8474 5.14551 21.4287V19.7148C5.14551 19.2427 5.52883 18.8594 6.00098 18.8594C6.47318 18.8594 6.85645 19.2426 6.85645 19.7148V21.4287C6.85658 21.903 7.2406 22.2878 7.71484 22.2881H19.7148C20.1893 22.2881 20.5741 21.9032 20.5742 21.4287V2.57129C20.574 2.09691 20.1893 1.71289 19.7148 1.71289H7.71484C7.24066 1.71318 6.85667 2.09709 6.85645 2.57129V4.28613C6.85624 4.75816 6.47305 5.14062 6.00098 5.14062C5.52896 5.14056 5.14572 4.75812 5.14551 4.28613V2.57129C5.14573 1.15268 6.29625 0.00224524 7.71484 0.00195312H19.7148Z" fill="black"/>
<path fill-rule="evenodd" clip-rule="evenodd" d="M4.28711 7.71582C6.35969 7.71594 8.08792 9.18879 8.48438 11.1445H16.2871C16.7591 11.1447 17.1426 11.5279 17.1426 12V15.4287C17.1425 15.9007 16.7591 16.283 16.2871 16.2832C15.815 16.2831 15.4327 15.9008 15.4326 15.4287V12.8555H12.8564V15.4287C12.8564 15.9009 12.4731 16.2832 12.001 16.2832C11.5289 16.2831 11.1456 15.9008 11.1455 15.4287V12.8555H8.48438C8.08803 14.8112 6.3598 16.2831 4.28711 16.2832C1.9214 16.2832 0.00300506 14.3657 0.00292969 12C0.00306167 9.63436 1.92144 7.71582 4.28711 7.71582ZM4.28711 9.42676C2.86585 9.42676 1.714 10.5788 1.71387 12C1.71394 13.4213 2.86581 14.5732 4.28711 14.5732C5.70829 14.5731 6.86028 13.4212 6.86035 12C6.86022 10.5789 5.70825 9.4269 4.28711 9.42676Z" fill="black"/>
</svg>
