<svg width="24" height="24" viewBox="0 0 24 24" fill="none" xmlns="http://www.w3.org/2000/svg">
<path d="M23.1422 22.2876C23.6144 22.2876 23.9976 22.6709 23.9976 23.1431C23.9975 23.6152 23.6143 23.9986 23.1422 23.9986H17.9996C17.5277 23.9984 17.1443 23.615 17.1441 23.1431C17.1441 22.671 17.5276 22.2879 17.9996 22.2876H23.1422Z" fill="black"/>
<path fill-rule="evenodd" clip-rule="evenodd" d="M8.81991 0.623582C8.94874 0.169621 9.4215 -0.0936984 9.87557 0.0347152C10.3298 0.16349 10.5941 0.636117 10.4654 1.09038L7.08944 12.9986C8.9276 13.4807 10.2838 15.1539 10.2838 17.1431C10.2838 18.7761 11.0185 20.8891 13.3316 22.4312C13.6451 22.6402 13.7846 23.0306 13.6754 23.3912C13.566 23.7515 13.2336 23.9976 12.857 23.9976H0.857019C0.571104 23.9976 0.303626 23.8547 0.145105 23.6167C-0.013138 23.379 -0.0419107 23.0777 0.0679567 22.814L0.0689332 22.8121C0.0695776 22.8105 0.0705083 22.8075 0.0718629 22.8042C0.0748039 22.7971 0.0795893 22.7855 0.0855348 22.771C0.0974667 22.742 0.115586 22.6983 0.138269 22.6421C0.183792 22.5295 0.249111 22.3654 0.327722 22.1626C0.485354 21.756 0.695581 21.1956 0.904871 20.5787C1.33937 19.2979 1.71632 17.9275 1.71639 17.1431C1.71639 15.0024 3.28686 13.2279 5.33846 12.9097L8.81991 0.623582ZM5.9996 14.5699C4.57845 14.5701 3.42636 15.7219 3.42636 17.1431C3.42629 18.2522 2.94656 19.8819 2.52401 21.1275C2.38065 21.5501 2.2357 21.946 2.108 22.2876H10.5719C9.11929 20.6455 8.57387 18.7505 8.57382 17.1431C8.57382 15.7218 7.42094 14.5699 5.9996 14.5699Z" fill="black"/>
<path d="M21.4283 18.0015C21.9004 18.0016 22.2837 18.3849 22.2838 18.857C22.2838 19.3292 21.9005 19.7124 21.4283 19.7125H16.2857C15.8135 19.7125 15.4303 19.3292 15.4303 18.857C15.4303 18.3849 15.8136 18.0015 16.2857 18.0015H21.4283Z" fill="black"/>
<path d="M18.857 13.7164C19.3292 13.7164 19.7125 14.0996 19.7125 14.5718C19.7123 15.0438 19.3291 15.4272 18.857 15.4273H13.7144C13.2423 15.4273 12.8592 15.0439 12.859 14.5718C12.859 14.0996 13.2422 13.7164 13.7144 13.7164H18.857Z" fill="black"/>
</svg>
