<svg width="24" height="25" viewBox="0 0 24 25" fill="none" xmlns="http://www.w3.org/2000/svg">
<path fill-rule="evenodd" clip-rule="evenodd" d="M16.5029 0C18.3205 0.000232857 20.0643 0.722641 21.3496 2.00781C22.635 3.29335 23.3574 5.03753 23.3574 6.85547V18.1055C23.3574 18.5774 22.9747 18.9605 22.5029 18.9609H19.5527L19.9863 21.4121H19.9844C20.0488 21.7481 20.0409 22.0938 19.958 22.4258C19.8736 22.7638 19.715 23.0792 19.4941 23.3486C19.2733 23.618 18.9955 23.8354 18.6807 23.9844C18.3658 24.1333 18.0212 24.211 17.6729 24.2109H6.33203C5.98383 24.2107 5.63889 24.1325 5.32422 23.9834C5.00975 23.8343 4.73231 23.6169 4.51172 23.3477C4.29107 23.0783 4.13217 22.7636 4.04785 22.4258C3.96354 22.0879 3.95519 21.735 4.02344 21.3936L4.45312 18.9609H1.50195C1.02975 18.9609 0.646484 18.5777 0.646484 18.1055V6.85547C0.646484 5.03741 1.36873 3.29337 2.6543 2.00781C3.93985 0.722327 5.68395 0 7.50195 0H16.5029ZM6.84766 15.2109C6.8458 15.2252 6.84625 15.2398 6.84375 15.2539L5.7041 21.71C5.70299 21.7163 5.70145 21.7232 5.7002 21.7295C5.68162 21.8228 5.68399 21.9194 5.70703 22.0117C5.73012 22.1042 5.77358 22.1909 5.83398 22.2646C5.89435 22.3383 5.97063 22.3977 6.05664 22.4385C6.14277 22.4793 6.2377 22.4999 6.33301 22.5H12.6465V15.2109H6.84766ZM14.3574 15.2109V22.5H17.6729C17.7682 22.5 17.863 22.4792 17.9492 22.4385C18.0353 22.3977 18.1114 22.3383 18.1719 22.2646C18.2324 22.1909 18.2757 22.1043 18.2988 22.0117C18.3219 21.9193 18.3243 21.8229 18.3057 21.7295C18.3044 21.7233 18.3029 21.7162 18.3018 21.71L17.1602 15.2549C17.1576 15.2404 17.158 15.2256 17.1562 15.2109H14.3574ZM7.01855 1.7334C5.83144 1.84539 4.7145 2.36758 3.86426 3.21777C2.89938 4.18265 2.35742 5.49093 2.35742 6.85547V17.25H4.75586L5.14746 15.0283V14.377C5.14728 14.3698 5.14648 14.3627 5.14648 14.3555C5.14648 14.348 5.14727 14.3405 5.14746 14.333V8.35547C5.14746 7.8834 5.52993 7.50021 6.00195 7.5C6.47416 7.5 6.85742 7.88327 6.85742 8.35547V13.5H12.6465V11.5811L11.4004 9.40137C11.3718 9.36011 11.347 9.31673 11.3262 9.27148L7.01855 1.7334ZM13.083 8.89941L14.2441 10.9316C14.3178 11.0608 14.3574 11.2068 14.3574 11.3555V13.5H17.1475V8.35547C17.1475 7.8834 17.5299 7.50021 18.002 7.5C18.4742 7.5 18.8574 7.88327 18.8574 8.35547V15.0332L19.25 17.25H21.6475V6.85547C21.6475 5.49114 21.1052 4.18261 20.1406 3.21777C19.2929 2.37003 18.1793 1.84749 16.9961 1.7334L13.083 8.89941ZM12.0869 7.15723L15.0605 1.71094H8.97559L12.0869 7.15723Z" fill="black"/>
</svg>
