<svg width="24" height="24" viewBox="0 0 24 24" fill="none" xmlns="http://www.w3.org/2000/svg">
<path d="M15.8096 6.22363C16.369 6.33042 16.9471 6.8082 16.9473 7.58594V16.957C16.9473 17.4292 16.5639 17.8124 16.0918 17.8125C15.6196 17.8125 15.2373 17.4292 15.2373 16.957V9.17773C14.4525 11.1096 13.1854 14.2281 13.1035 14.4297C12.703 15.4156 11.294 15.4156 10.8936 14.4297C10.8122 14.2294 9.54582 11.1131 8.76074 9.18066V16.957C8.76074 17.4292 8.37736 17.8124 7.90527 17.8125C7.43307 17.8125 7.0498 17.4292 7.0498 16.957V7.58594C7.04993 6.80812 7.62795 6.33034 8.1875 6.22363C8.70726 6.12465 9.36574 6.31656 9.68555 6.93066L9.74512 7.05957L11.998 12.6064C12.7398 10.7806 14.091 7.45583 14.252 7.05957L14.3115 6.93066C14.6314 6.31655 15.2899 6.12456 15.8096 6.22363Z" fill="black"/>
<path fill-rule="evenodd" clip-rule="evenodd" d="M12 0.698242C13.484 0.698274 14.9541 0.990675 16.3252 1.55859C17.6962 2.12652 18.9419 2.9595 19.9912 4.00879C21.0404 5.05808 21.8735 6.3039 22.4414 7.6748C23.0093 9.04583 23.3017 10.516 23.3018 12C23.3017 13.484 23.0093 14.9541 22.4414 16.3252C21.8735 17.6963 21.0406 18.9418 19.9912 19.9912C18.9418 21.0406 17.6963 21.8735 16.3252 22.4414C14.9541 23.0093 13.484 23.3017 12 23.3018C10.516 23.3017 9.04583 23.0093 7.6748 22.4414C6.3039 21.8735 5.05808 21.0404 4.00879 19.9912C2.9595 18.9419 2.12652 17.6962 1.55859 16.3252C0.990675 14.9541 0.698274 13.484 0.698242 12C0.69826 10.516 0.990695 9.04588 1.55859 7.6748C2.12654 6.30375 2.95942 5.05816 4.00879 4.00879C5.05816 2.95942 6.30375 2.12654 7.6748 1.55859C9.04588 0.990695 10.516 0.69826 12 0.698242ZM12 2.40918C10.7407 2.4092 9.49357 2.65682 8.33008 3.13867C7.16639 3.62069 6.10842 4.32713 5.21777 5.21777C4.32713 6.10842 3.62069 7.16639 3.13867 8.33008C2.65682 9.49357 2.4092 10.7407 2.40918 12C2.40921 13.2595 2.65669 14.5073 3.13867 15.6709C3.62066 16.8343 4.32732 17.8917 5.21777 18.7822C6.10837 19.6728 7.1665 20.3794 8.33008 20.8613C9.49355 21.3432 10.7407 21.5918 12 21.5918C13.2595 21.5918 14.5073 21.3433 15.6709 20.8613C16.8344 20.3793 17.8917 19.6728 18.7822 18.7822C19.6728 17.8917 20.3793 16.8344 20.8613 15.6709C21.3433 14.5073 21.5918 13.2595 21.5918 12C21.5918 10.7407 21.3432 9.49355 20.8613 8.33008C20.3794 7.1665 19.6728 6.10837 18.7822 5.21777C17.8917 4.32732 16.8343 3.62066 15.6709 3.13867C14.5073 2.65669 13.2595 2.40921 12 2.40918Z" fill="black"/>
</svg>
