<svg width="24" height="24" viewBox="0 0 24 24" fill="none" xmlns="http://www.w3.org/2000/svg">
<path d="M18.2705 1.50195C19.2729 1.50233 20.0859 2.31585 20.0859 3.31836V21.6436C20.0856 22.1153 19.7022 22.4978 19.2305 22.498C18.7587 22.4978 18.3763 22.1153 18.376 21.6436V3.31836C18.376 3.2603 18.3285 3.21327 18.2705 3.21289C18.2275 3.21289 18.1889 3.2387 18.1729 3.27832L13.3438 15.1641C13.1215 15.7112 12.5895 16.069 11.999 16.0693C11.4083 16.0693 10.8758 15.7113 10.6533 15.1641L5.8252 3.27832C5.80914 3.2388 5.77016 3.21323 5.72754 3.21289C5.66923 3.21289 5.62207 3.26005 5.62207 3.31836V21.6436C5.62171 22.1153 5.23836 22.4978 4.7666 22.498C4.29462 22.498 3.91051 22.1155 3.91016 21.6436V3.31836C3.91016 2.31566 4.72481 1.50195 5.72754 1.50195C6.46602 1.5023 7.13121 1.95051 7.40918 2.63477L11.998 13.9307L16.5879 2.63477L16.6445 2.50879C16.9495 1.89558 17.578 1.50195 18.2705 1.50195Z" fill="black"/>
</svg>
