<svg width="24" height="24" viewBox="0 0 24 24" fill="none" xmlns="http://www.w3.org/2000/svg">
<path d="M6.85645 20.5731C7.32865 20.5731 7.71191 20.9564 7.71191 21.4286C7.71186 21.9008 7.32862 22.2841 6.85645 22.2841H0.856445C0.384386 22.284 0.00102814 21.9007 0.000976562 21.4286C0.000976562 20.9565 0.384354 20.5733 0.856445 20.5731H6.85645Z" fill="black"/>
<path d="M23.1426 20.5731C23.6147 20.5733 23.998 20.9565 23.998 21.4286C23.998 21.9007 23.6146 22.284 23.1426 22.2841H17.1426C16.6704 22.2841 16.2872 21.9008 16.2871 21.4286C16.2871 20.9564 16.6704 20.5731 17.1426 20.5731H23.1426Z" fill="black"/>
<path d="M12 15.4296C12.0466 15.4296 12.0922 15.4341 12.1367 15.4413C12.1474 15.4431 12.1583 15.444 12.1689 15.4462C12.1795 15.4483 12.1898 15.4515 12.2002 15.454C12.2438 15.4646 12.2868 15.4778 12.3281 15.495C12.376 15.5149 12.4209 15.5404 12.4639 15.5683C12.514 15.6007 12.5616 15.6377 12.6045 15.6806L14.3184 17.3944C14.6522 17.7283 14.6521 18.2705 14.3184 18.6044C13.9846 18.938 13.4432 18.9379 13.1094 18.6044L12.8555 18.3505V21.4276C12.8555 21.8997 12.472 22.2828 12 22.2831C11.5278 22.2831 11.1445 21.8998 11.1445 21.4276V18.3485L10.8896 18.6044C10.5558 18.9379 10.0145 18.9379 9.68066 18.6044C9.34696 18.2705 9.34683 17.7283 9.68066 17.3944L11.3945 15.6806C11.4372 15.6379 11.4843 15.6006 11.5342 15.5683C11.5771 15.5403 11.6221 15.515 11.6699 15.495C11.6753 15.4928 11.6811 15.4913 11.6865 15.4892C11.777 15.4535 11.8751 15.4332 11.9775 15.4306C11.9847 15.4304 11.9928 15.4296 12 15.4296Z" fill="black"/>
<path fill-rule="evenodd" clip-rule="evenodd" d="M11.2451 0.0233396C11.5481 -0.0126692 11.8483 0.114999 12.0312 0.359277C12.2141 0.603473 12.2525 0.927337 12.1328 1.20791C11.8669 1.82973 11.7188 2.51617 11.7188 3.23818C11.719 6.0913 14.0326 8.4042 16.8857 8.4042C17.0957 8.40417 17.3031 8.39131 17.5059 8.36709C17.8088 8.33114 18.1091 8.45976 18.292 8.704C18.4747 8.94825 18.5133 9.27211 18.3936 9.55264C17.3446 12.0054 14.9081 13.7272 12.0684 13.7274C8.27063 13.7274 5.19141 10.6482 5.19141 6.85049C5.19164 3.3313 7.83526 0.430679 11.2451 0.0233396ZM10.1094 2.06728C8.22754 2.83881 6.90254 4.69084 6.90234 6.85049C6.90234 9.70382 9.21503 12.0165 12.0684 12.0165C13.7028 12.0163 15.1594 11.2558 16.1064 10.0692C12.6757 9.68235 10.009 6.77229 10.0088 3.23818C10.0088 2.8396 10.044 2.44789 10.1094 2.06728Z" fill="black"/>
</svg>
