<svg width="24" height="24" viewBox="0 0 24 24" fill="none" xmlns="http://www.w3.org/2000/svg">
<path d="M6.8584 20.5729C7.33049 20.5731 7.71387 20.9563 7.71387 21.4284C7.71384 21.9005 7.33047 22.2838 6.8584 22.2839H0.858398C0.38621 22.2839 0.00295446 21.9006 0.00292969 21.4284C0.00292969 20.9562 0.386195 20.5729 0.858398 20.5729H6.8584Z" fill="black"/>
<path d="M23.1445 20.5729C23.6165 20.5732 24 20.9564 24 21.4284C24 21.9004 23.6165 22.2836 23.1445 22.2839H17.1445C16.6723 22.2839 16.2891 21.9006 16.2891 21.4284C16.2891 20.9562 16.6723 20.5729 17.1445 20.5729H23.1445Z" fill="black"/>
<path d="M12.001 15.4294C12.4732 15.4294 12.8564 15.8127 12.8564 16.2849V19.363L13.1113 19.1091C13.4452 18.7753 13.9864 18.7752 14.3203 19.1091C14.6539 19.443 14.654 19.9843 14.3203 20.3181L12.6064 22.0329C12.5139 22.1254 12.4047 22.1909 12.2891 22.2321C12.2751 22.2371 12.2613 22.2425 12.2471 22.2468C12.2332 22.2509 12.2191 22.2541 12.2051 22.2575C12.1937 22.2603 12.1824 22.263 12.1709 22.2653C12.0587 22.2879 11.9432 22.288 11.8311 22.2653C11.8199 22.2631 11.8089 22.2602 11.7979 22.2575C11.7835 22.254 11.7691 22.251 11.7549 22.2468C11.7383 22.2418 11.7222 22.2352 11.7061 22.2292C11.695 22.2252 11.6837 22.222 11.6729 22.2175C11.6638 22.2137 11.6553 22.2088 11.6465 22.2048C11.5561 22.1636 11.4708 22.1072 11.3965 22.0329L9.68262 20.3181C9.34873 19.9842 9.34874 19.443 9.68262 19.1091C10.0165 18.7752 10.5577 18.7752 10.8916 19.1091L11.1455 19.362V16.2849C11.1455 15.8127 11.5289 15.4295 12.001 15.4294Z" fill="black"/>
<path fill-rule="evenodd" clip-rule="evenodd" d="M11.2461 0.0231427C11.5491 -0.0130582 11.8492 0.11491 12.0322 0.35908C12.2151 0.603341 12.2536 0.927088 12.1338 1.20771C11.8679 1.82952 11.7198 2.51599 11.7197 3.23799C11.72 6.09102 14.0337 8.40387 16.8867 8.404C17.0968 8.40399 17.3039 8.39112 17.5068 8.36689C17.8098 8.33075 18.1099 8.45967 18.293 8.70381C18.4757 8.94811 18.5144 9.27186 18.3945 9.55244C17.3455 12.0054 14.9093 13.7272 12.0693 13.7272C8.27171 13.7271 5.19238 10.6479 5.19238 6.85029C5.19264 3.33119 7.83635 0.430565 11.2461 0.0231427ZM10.1104 2.06709C8.22856 2.83862 6.90353 4.69068 6.90332 6.85029C6.90332 9.70354 9.21612 12.0162 12.0693 12.0163C13.704 12.0163 15.1603 11.2557 16.1074 10.069C12.6768 9.68202 10.01 6.77199 10.0098 3.23799C10.0098 2.83942 10.045 2.44768 10.1104 2.06709Z" fill="black"/>
</svg>
