<svg width="24" height="25" viewBox="0 0 24 25" fill="none" xmlns="http://www.w3.org/2000/svg">
<path fill-rule="evenodd" clip-rule="evenodd" d="M12.2646 0.00683594C13.5881 0.0725702 14.8437 0.62792 15.7852 1.56934C16.7893 2.57358 17.3545 3.93529 17.3545 5.35547V6.11328C17.5452 6.16458 17.7318 6.23275 17.9111 6.31836C18.3527 6.52931 18.7417 6.83698 19.0479 7.21875C19.1202 7.30894 19.187 7.40304 19.249 7.5H22.498C22.9703 7.5 23.3535 7.88327 23.3535 8.35547C23.3535 8.82767 22.9703 9.21094 22.498 9.21094H19.7617C19.7649 9.45243 19.7409 9.69403 19.6904 9.93164C19.6891 9.93946 19.6881 9.94732 19.6865 9.95508C19.6856 9.95932 19.6845 9.96354 19.6836 9.96777L19.6846 9.96875L17.6846 19.0791L17.6836 19.083C17.5466 19.693 17.2036 20.2376 16.7129 20.625C16.2251 21.0099 15.6201 21.2147 14.999 21.209V21.2109H14.3545V21.8555C14.3545 22.48 14.1056 23.0789 13.6641 23.5205C13.2225 23.9621 12.6235 24.2109 11.999 24.2109C11.3745 24.2109 10.7756 23.9621 10.334 23.5205C9.89234 23.0789 9.64355 22.4801 9.64355 21.8555V21.2109H8.99707V21.209C8.37601 21.2147 7.77093 21.0099 7.2832 20.625C6.79248 20.2376 6.44953 19.693 6.3125 19.083V19.0791L4.31348 9.97461L4.27734 9.79492C4.24487 9.60167 4.2315 9.4062 4.23438 9.21094H1.49902C1.02682 9.21094 0.643555 8.82767 0.643555 8.35547C0.643555 7.88327 1.02682 7.5 1.49902 7.5H4.74707C4.80908 7.40303 4.87592 7.30894 4.94824 7.21875C5.25442 6.837 5.6434 6.52931 6.08496 6.31836C6.26481 6.23249 6.45218 6.16463 6.64355 6.11328V5.35547C6.64355 3.93523 7.20863 2.57359 8.21289 1.56934C9.21714 0.565155 10.5788 0 11.999 0L12.2646 0.00683594ZM11.999 15.2109C11.828 15.2109 11.6639 15.2785 11.543 15.3994C11.422 15.5204 11.3545 15.6844 11.3545 15.8555V21.8555L11.3662 21.9814C11.3909 22.1056 11.4521 22.2207 11.543 22.3115C11.6639 22.4324 11.828 22.5 11.999 22.5C12.17 22.4999 12.3342 22.4324 12.4551 22.3115C12.5459 22.2207 12.6071 22.1056 12.6318 21.9814L12.6436 21.8555V15.8555C12.6436 15.6845 12.576 15.5204 12.4551 15.3994C12.3643 15.3086 12.2491 15.2474 12.125 15.2227L11.999 15.2109ZM16.499 7.71094H7.49902L7.49609 7.70996L7.49414 7.71094C7.26186 7.71008 7.03188 7.76125 6.82227 7.86133C6.61264 7.96146 6.42758 8.10784 6.28223 8.28906C6.19849 8.39356 6.13098 8.50913 6.07715 8.63086C6.06472 8.66735 6.04927 8.70224 6.03223 8.73633C6.01225 8.7924 5.99586 8.84993 5.98242 8.9082C5.96911 8.96595 5.95973 9.02438 5.95312 9.08301L9.17676 9.76953C9.63843 9.86799 9.93324 10.3225 9.83496 10.7842C9.73639 11.2457 9.28197 11.5407 8.82031 11.4424L6.2666 10.8975L7.98145 18.708L8.0332 18.873C8.09914 19.0328 8.20566 19.1739 8.34277 19.2822C8.5255 19.4264 8.7526 19.5041 8.98535 19.501L8.99707 19.5H9.64355V15.8555C9.64355 15.2309 9.89234 14.6321 10.334 14.1904C10.7756 13.7489 11.3745 13.5 11.999 13.5L12.2314 13.5117C12.7706 13.5652 13.2776 13.804 13.6641 14.1904C14.1056 14.6321 14.3545 15.2309 14.3545 15.8555V19.5H15.0107C15.2435 19.5031 15.4706 19.4264 15.6533 19.2822C15.836 19.1379 15.9636 18.9351 16.0146 18.708L17.7285 10.8984L15.1768 11.4424C14.7152 11.5405 14.2617 11.2456 14.1631 10.7842C14.0647 10.3223 14.3594 9.8679 14.8213 9.76953L18.043 9.08301C18.0364 9.02438 18.027 8.96596 18.0137 8.9082C17.9991 8.84497 17.9793 8.78326 17.957 8.72266C17.9454 8.69821 17.9351 8.67312 17.9258 8.64746C17.871 8.51959 17.8014 8.39826 17.7139 8.28906C17.5685 8.10784 17.3835 7.96146 17.1738 7.86133C16.9642 7.76127 16.7342 7.71008 16.502 7.71094L16.5 7.70996L16.499 7.71094ZM11.999 1.71094C11.0324 1.71094 10.1054 2.09483 9.42188 2.77832C8.7383 3.46189 8.35449 4.38875 8.35449 5.35547V6H15.6436V5.35547C15.6436 4.38881 15.2597 3.46188 14.5762 2.77832C13.9354 2.13751 13.0805 1.75957 12.1797 1.71484L11.999 1.71094Z" fill="black"/>
</svg>
