<svg width="24" height="24" viewBox="0 0 24 24" fill="none" xmlns="http://www.w3.org/2000/svg">
<path fill-rule="evenodd" clip-rule="evenodd" d="M7.35352 6.94043C7.65369 6.79999 8.00796 6.84565 8.2627 7.05762L13.4062 11.3438C13.601 11.5062 13.7139 11.7473 13.7139 12.001C13.7136 12.2543 13.6008 12.495 13.4062 12.6572L8.2627 16.9434C8.00797 17.1551 7.65358 17.201 7.35352 17.0605C7.05324 16.9199 6.86054 16.6177 6.86035 16.2861V7.71484C6.86035 7.38323 7.0533 7.08122 7.35352 6.94043ZM8.57129 14.4609L11.5234 12L8.57129 9.54004V14.4609Z" fill="black"/>
<path d="M16.2871 7.71582C16.7592 7.71582 17.1424 8.0992 17.1426 8.57129V15.4287C17.1424 15.9008 16.7592 16.2832 16.2871 16.2832C15.8151 16.2831 15.4318 15.9007 15.4316 15.4287V8.57129C15.4318 8.09928 15.8151 7.71595 16.2871 7.71582Z" fill="black"/>
<path fill-rule="evenodd" clip-rule="evenodd" d="M12.002 0.00195312C18.628 0.00221703 23.9998 5.37406 24 12C23.9999 18.626 18.628 23.9978 12.002 23.998C5.37594 23.9979 0.00306164 18.6261 0.00292969 12C0.00308069 5.37399 5.37594 0.00210413 12.002 0.00195312ZM12.002 1.71289C6.32035 1.71304 1.71499 6.3184 1.71484 12C1.71498 17.6817 6.32033 22.2879 12.002 22.2881C17.6836 22.2878 22.2899 17.6816 22.29 12C22.2899 6.31846 17.6835 1.71315 12.002 1.71289Z" fill="black"/>
</svg>
