<svg width="24" height="24" viewBox="0 0 24 24" fill="none" xmlns="http://www.w3.org/2000/svg">
<path fill-rule="evenodd" clip-rule="evenodd" d="M10.2852 3.43066C10.8753 3.43067 11.4545 3.48134 12.0186 3.57715C12.3705 3.63695 12.6489 3.90909 12.7158 4.25977C12.7823 4.6101 12.6242 4.96528 12.3193 5.15039C10.5832 6.20411 9.42581 8.11069 9.42578 10.2861C9.42605 13.6007 12.1132 16.2878 15.4277 16.2881C16.7468 16.2881 17.9652 15.8636 18.9551 15.1436L19.0527 15.082C19.2899 14.9545 19.5758 14.9454 19.8232 15.0625C20.1059 15.1964 20.2937 15.4738 20.3115 15.7861C20.3187 15.9121 20.3055 16.0368 20.2764 16.1562C19.1799 20.6564 15.1239 23.998 10.2852 23.998C4.60602 23.9979 0.00131571 19.3939 0.000976562 13.7148C0.000976562 8.03547 4.60581 3.4308 10.2852 3.43066ZM9.66113 5.16602C5.21755 5.48581 1.71191 9.18975 1.71191 13.7148C1.71225 18.4495 5.55043 22.288 10.2852 22.2881C13.6289 22.288 16.5241 20.3715 17.9375 17.5781C17.1504 17.849 16.306 17.998 15.4277 17.998C11.1688 17.9978 7.71608 14.5451 7.71582 10.2861C7.71584 8.32075 8.45183 6.52733 9.66113 5.16602Z" fill="black"/>
<path d="M21.4277 6.8584C21.8999 6.8584 22.2832 7.24166 22.2832 7.71387V8.57324H23.1426C23.6146 8.57345 23.9971 8.95663 23.9971 9.42871C23.9968 9.90056 23.6144 10.284 23.1426 10.2842H22.2832V11.1426C22.2831 11.6147 21.8999 11.9971 21.4277 11.9971C20.9557 11.9969 20.5723 11.6146 20.5723 11.1426V10.2842H19.7139C19.2418 10.2842 18.8587 9.90069 18.8584 9.42871C18.8584 8.95651 19.2417 8.57324 19.7139 8.57324H20.5723V7.71387C20.5723 7.24175 20.9556 6.85853 21.4277 6.8584Z" fill="black"/>
<path d="M18.8564 0.000976562C19.3286 0.000976562 19.7118 0.384354 19.7119 0.856445V1.71582H20.5713C21.0433 1.71603 21.4258 2.09921 21.4258 2.57129C21.4256 3.04325 21.0432 3.42655 20.5713 3.42676H19.7119V4.28516C19.7118 4.7573 19.3286 5.13965 18.8564 5.13965C18.3844 5.13952 18.0011 4.75721 18.001 4.28516V3.42676H17.1426C16.6705 3.42676 16.2872 3.04338 16.2871 2.57129C16.2871 2.09909 16.6704 1.71582 17.1426 1.71582H18.001V0.856445C18.0011 0.384435 18.3844 0.00110858 18.8564 0.000976562Z" fill="black"/>
</svg>
