<svg width="24" height="24" viewBox="0 0 24 24" fill="none" xmlns="http://www.w3.org/2000/svg">
<path d="M13.7155 22.29C14.1873 22.2905 14.5699 22.6727 14.57 23.1445C14.5699 23.6164 14.1873 23.9996 13.7155 24H10.2868C9.81468 24 9.43146 23.6166 9.43133 23.1445C9.43146 22.6724 9.81468 22.29 10.2868 22.29H13.7155Z" fill="black"/>
<path fill-rule="evenodd" clip-rule="evenodd" d="M11.9997 0C14.2464 0.000156829 16.4045 0.89493 17.9899 2.48145C19.575 4.06559 20.4704 6.22496 20.4704 8.47168V16.0371C20.4705 16.5676 20.6815 17.0761 21.0563 17.4512C21.4819 17.8766 21.8169 18.038 22.2848 18.0381C22.7568 18.0383 23.1402 18.4206 23.1403 18.8926C23.1403 19.3351 22.8036 19.6992 22.3727 19.7432L22.2848 19.748H20.9587L23.7487 22.5381C24.0822 22.872 24.0824 23.4143 23.7487 23.748C23.4149 24.0818 22.8727 24.0816 22.5388 23.748L4.57196 5.78027C4.55516 5.76503 4.5395 5.74882 4.52411 5.73242L0.253598 1.46191C-0.0803007 1.12802 -0.0803007 0.586828 0.253598 0.25293C0.587503 -0.0808752 1.12871 -0.0809375 1.46258 0.25293L4.96356 3.75391C5.26784 3.30011 5.61752 2.87339 6.00946 2.48145C7.59805 0.892963 9.75314 0 11.9997 0ZM11.9997 1.71094C10.2067 1.71094 8.48635 2.42263 7.21844 3.69043C6.82442 4.08446 6.4837 4.52218 6.20184 4.99219L19.2487 18.0381H19.3473C18.9677 17.4453 18.7605 16.752 18.7604 16.0371V8.47168C18.7604 6.67882 18.0442 4.95493 16.78 3.69141C15.5153 2.42597 13.7927 1.71109 11.9997 1.71094Z" fill="black"/>
<path d="M4.38446 7.81445C4.85654 7.8146 5.23895 8.19781 5.23895 8.66992V16.0371C5.2389 16.7524 5.0317 17.4454 4.65204 18.0381H14.6071C15.0793 18.0381 15.4626 18.4214 15.4626 18.8936C15.4622 19.3654 15.0791 19.748 14.6071 19.748H1.71453C1.2427 19.7479 0.859434 19.3653 0.859066 18.8936C0.859066 18.4215 1.24247 18.0382 1.71453 18.0381C2.18194 18.0381 2.51554 17.8782 2.94403 17.4512C3.31902 17.0751 3.52892 16.5669 3.52899 16.0371V8.66992C3.52899 8.19782 3.91239 7.81462 4.38446 7.81445Z" fill="black"/>
</svg>
