<svg width="24" height="24" viewBox="0 0 24 24" fill="none" xmlns="http://www.w3.org/2000/svg">
<path d="M23.1426 18.8593C23.6144 18.8597 23.9971 19.2428 23.9971 19.7147C23.9969 20.1865 23.6143 20.5698 23.1426 20.5702H0.856445C0.384347 20.5702 0.00114791 20.1868 0.000976562 19.7147C0.000976562 19.2425 0.384242 18.8593 0.856445 18.8593H23.1426Z" fill="black"/>
<path d="M10.0732 4.31433C11.0959 3.15797 12.9003 3.15787 13.9229 4.31433L22.4912 14.0048C22.8037 14.3585 22.7705 14.8991 22.417 15.2118C22.0633 15.5242 21.5227 15.491 21.21 15.1376L12.6416 5.44714C12.2996 5.0604 11.6965 5.0605 11.3545 5.44714L2.78613 15.1376C2.47345 15.491 1.93281 15.5241 1.5791 15.2118C1.22542 14.8991 1.19229 14.3585 1.50488 14.0048L10.0732 4.31433Z" fill="black"/>
</svg>
