<svg width="24" height="24" viewBox="0 0 24 24" fill="none" xmlns="http://www.w3.org/2000/svg">
<path fill-rule="evenodd" clip-rule="evenodd" d="M12.9951 7.64355C13.6737 7.71097 14.3115 8.01165 14.7979 8.49805C15.3537 9.05396 15.667 9.80761 15.667 10.5938C15.667 11.3799 15.3537 12.1335 14.7979 12.6895C14.242 13.2453 13.4883 13.5585 12.7021 13.5586H11.4482V16.9219C11.4482 17.394 11.0649 17.7772 10.5928 17.7773C10.1206 17.7773 9.7373 17.3941 9.7373 16.9219V8.48438C9.7373 8.01217 10.1206 7.62891 10.5928 7.62891H12.7021L12.9951 7.64355ZM11.4482 11.8477H12.7021C13.0347 11.8476 13.3537 11.7157 13.5889 11.4805C13.824 11.2452 13.9561 10.9264 13.9561 10.5938L13.9502 10.4697C13.9217 10.1827 13.7946 9.91284 13.5889 9.70703C13.3537 9.47185 13.0347 9.33991 12.7021 9.33984H11.4482V11.8477Z" fill="black"/>
<path fill-rule="evenodd" clip-rule="evenodd" d="M11.999 0.00195312C13.5744 0.0020174 15.1353 0.313129 16.5908 0.916016C18.0462 1.51896 19.3695 2.40268 20.4834 3.5166C21.5972 4.63059 22.4811 5.95378 23.084 7.40918C23.6867 8.86455 23.997 10.4248 23.9971 12C23.997 13.5755 23.6869 15.1362 23.084 16.5918C22.4811 18.0473 21.5974 19.3703 20.4834 20.4844C19.3694 21.5984 18.0463 22.482 16.5908 23.085C15.1353 23.6878 13.5744 23.998 11.999 23.998C10.4238 23.998 8.86354 23.6877 7.4082 23.085C5.95281 22.4821 4.62961 21.5982 3.51562 20.4844C2.40168 19.3704 1.51798 18.0472 0.915039 16.5918C0.312121 15.1362 3.21123e-05 13.5755 0 12C3.6623e-05 10.4246 0.312171 8.86469 0.915039 7.40918C1.51799 5.95353 2.40152 4.63071 3.51562 3.5166C4.6297 2.40255 5.95261 1.51894 7.4082 0.916016C8.86363 0.313228 10.4237 0.00198977 11.999 0.00195312ZM11.999 1.71289C10.6483 1.71293 9.31041 1.97831 8.0625 2.49512C6.81437 3.01211 5.6799 3.77033 4.72461 4.72559C3.76929 5.6809 3.01115 6.8153 2.49414 8.06348C1.97726 9.31147 1.71195 10.6492 1.71191 12C1.71195 13.3509 1.97716 14.6894 2.49414 15.9375C3.0111 17.1854 3.76953 18.3193 4.72461 19.2744C5.67985 20.2296 6.81448 20.9879 8.0625 21.5049C9.31042 22.0217 10.6483 22.288 11.999 22.2881C13.3499 22.288 14.6885 22.0218 15.9365 21.5049C17.1845 20.9879 18.3183 20.2296 19.2734 19.2744C20.2286 18.3192 20.9869 17.1855 21.5039 15.9375C22.0209 14.6894 22.2871 13.3509 22.2871 12C22.2871 10.6493 22.0207 9.31143 21.5039 8.06348C20.987 6.81546 20.2286 5.68083 19.2734 4.72559C18.3183 3.77054 17.1844 3.01207 15.9365 2.49512C14.6885 1.97817 13.3499 1.71295 11.999 1.71289Z" fill="black"/>
</svg>
