<svg width="24" height="24" viewBox="0 0 24 24" fill="none" xmlns="http://www.w3.org/2000/svg">
<path fill-rule="evenodd" clip-rule="evenodd" d="M12.002 4.28711C14.8408 4.28734 17.1424 6.58983 17.1426 9.42871C17.1424 12.2675 14.8408 14.5691 12.002 14.5693C9.16307 14.5692 6.86058 12.2676 6.86035 9.42871C6.86048 6.58977 9.16301 4.28724 12.002 4.28711ZM12.002 5.99805C10.1074 5.99818 8.57142 7.53418 8.57129 9.42871C8.57152 11.3232 10.1075 12.8592 12.002 12.8594C13.8963 12.8591 15.4324 11.3231 15.4326 9.42871C15.4325 7.53423 13.8964 5.99827 12.002 5.99805Z" fill="black"/>
<path fill-rule="evenodd" clip-rule="evenodd" d="M12.002 0.00195312C18.628 0.00221703 23.9998 5.37406 24 12C23.9999 15.5879 22.4221 18.8053 19.9258 21.0039C19.8974 21.0322 19.8668 21.0585 19.834 21.083C17.7319 22.8972 14.9965 23.9979 12.002 23.998C8.98665 23.998 6.23283 22.8827 4.125 21.0459C4.11287 21.0355 4.1003 21.0257 4.08887 21.0146C1.58565 18.8158 0.00300125 15.5936 0.00292969 12C0.00308053 5.37399 5.37594 0.00210397 12.002 0.00195312ZM12.0029 17.1436C10.6793 17.1436 9.37762 17.4836 8.22363 18.1318C7.286 18.6585 6.47012 19.3733 5.82812 20.2295C7.54763 21.5216 9.68542 22.288 12.002 22.2881C14.3188 22.288 16.4561 21.5209 18.1758 20.2285C17.534 19.3729 16.7193 18.6582 15.7822 18.1318C14.6283 17.4836 13.3264 17.1437 12.0029 17.1436ZM12.002 1.71289C6.32035 1.71304 1.71499 6.3184 1.71484 12C1.71491 14.7482 2.79423 17.2425 4.5498 19.0879C5.31984 18.0935 6.28305 17.2599 7.38574 16.6406C8.79554 15.8486 10.386 15.4326 12.0029 15.4326C13.6194 15.4327 15.2088 15.8491 16.6182 16.6406C17.7205 17.2598 18.6832 18.0939 19.4531 19.0879C21.209 17.2425 22.29 14.7484 22.29 12C22.2899 6.31846 17.6835 1.71315 12.002 1.71289Z" fill="black"/>
</svg>
