<svg width="24" height="24" viewBox="0 0 24 24" fill="none" xmlns="http://www.w3.org/2000/svg">
<path d="M15.6602 20.2973C16.0978 20.1204 16.5963 20.3324 16.7734 20.77C16.9501 21.2074 16.739 21.706 16.3018 21.8833C15.4644 22.2222 14.5489 22.4086 13.5928 22.4086H10.4092C9.45317 22.4086 8.53755 22.222 7.7002 21.8833C7.26269 21.7062 7.0508 21.2075 7.22754 20.77C7.40463 20.3325 7.90325 20.1206 8.34082 20.2973C8.97806 20.5552 9.67668 20.6987 10.4092 20.6987H13.5928C14.3253 20.6986 15.0229 20.5552 15.6602 20.2973Z" fill="black"/>
<path d="M6.78613 17.6352C7.19099 17.3926 7.71709 17.5244 7.95996 17.9291C8.20228 18.3338 8.07041 18.8591 7.66602 19.102L3.68555 21.4897C3.28073 21.7324 2.75566 21.6014 2.5127 21.1967C2.26983 20.7918 2.40176 20.2668 2.80664 20.0239L6.78613 17.6352Z" fill="black"/>
<path d="M16.0459 17.9291C16.2888 17.5245 16.8139 17.3926 17.2188 17.6352L21.1992 20.0239C21.6039 20.2668 21.7359 20.7919 21.4932 21.1967C21.2503 21.6016 20.7242 21.7325 20.3193 21.4897L16.3398 19.102C15.9351 18.8591 15.8033 18.334 16.0459 17.9291Z" fill="black"/>
<path d="M13.1943 15.1245C13.5707 15.1247 13.9024 15.3718 14.0117 15.7319C14.1209 16.0925 13.9814 16.4819 13.668 16.6909L12.4736 17.4877C12.1865 17.6789 11.8124 17.679 11.5254 17.4877L10.3311 16.6909C10.0181 16.4818 9.87821 16.0922 9.9873 15.7319C10.0966 15.3716 10.4291 15.1246 10.8057 15.1245H13.1943Z" fill="black"/>
<path d="M7.22559 15.1245C7.69748 15.1247 8.08091 15.508 8.08105 15.9799C8.08105 16.452 7.69757 16.8351 7.22559 16.8354H2.44922C1.97702 16.8354 1.59277 16.4521 1.59277 15.9799C1.59291 15.5078 1.9771 15.1245 2.44922 15.1245H7.22559Z" fill="black"/>
<path d="M21.5557 15.1245C22.0277 15.1246 22.411 15.5079 22.4111 15.9799C22.4111 16.4521 22.0278 16.8353 21.5557 16.8354H16.7793C16.3071 16.8354 15.9238 16.4521 15.9238 15.9799C15.924 15.5078 16.3072 15.1245 16.7793 15.1245H21.5557Z" fill="black"/>
<path d="M19.5127 1.71919C19.7762 1.55678 20.1075 1.54899 20.3779 1.69966C20.6484 1.85066 20.8163 2.13694 20.8164 2.44673V12.7954C20.8164 13.2673 20.4338 13.6505 19.9619 13.6508C19.4897 13.6508 19.1064 13.2676 19.1064 12.7954V3.97993L15.4365 6.24556C16.1297 6.53652 16.759 6.91307 17.2969 7.36372C17.6585 7.66698 17.7063 8.20696 17.4033 8.5688C17.1001 8.93056 16.5601 8.97727 16.1982 8.67427C15.203 7.84052 13.709 7.2828 12.001 7.28267C10.2926 7.28267 8.79807 7.84036 7.80273 8.67427C7.44095 8.97743 6.90199 8.93032 6.59863 8.5688C6.29535 8.20687 6.34315 7.66701 6.70508 7.36372C7.24523 6.91121 7.87653 6.5321 8.57324 6.24067L4.89453 3.977V12.7954C4.89453 13.2676 4.51127 13.6508 4.03906 13.6508C3.56686 13.6508 3.18359 13.2676 3.18359 12.7954V2.44673C3.18369 2.1371 3.35178 1.8517 3.62207 1.70063C3.89239 1.54966 4.22358 1.55601 4.4873 1.71821L10.8594 5.64106C11.2321 5.59525 11.6138 5.57173 12.001 5.57173C12.3934 5.57175 12.7797 5.59595 13.1572 5.64302L19.5127 1.71919Z" fill="black"/>
<path d="M8.94531 10.7534C9.57698 10.8178 10.0703 11.3518 10.0703 12.0004C10.0701 12.6921 9.50905 13.2531 8.81738 13.2534L8.69629 13.2475C8.10304 13.1908 7.63056 12.7205 7.57031 12.1284L7.56348 12.0004L7.57031 11.8715C7.63468 11.2399 8.16872 10.7465 8.81738 10.7465L8.94531 10.7534Z" fill="black"/>
<path d="M15.3135 10.7534C15.9453 10.8177 16.4385 11.3517 16.4385 12.0004C16.4383 12.6922 15.8773 13.2532 15.1855 13.2534L15.0654 13.2475C14.4719 13.1911 13.9987 12.7207 13.9385 12.1284L13.9316 12.0004L13.9385 11.8715C14.0028 11.2399 14.5369 10.7465 15.1855 10.7465L15.3135 10.7534Z" fill="black"/>
</svg>
