<svg width="24" height="24" viewBox="0 0 24 24" fill="none" xmlns="http://www.w3.org/2000/svg">
<path fill-rule="evenodd" clip-rule="evenodd" d="M14.5693 15.4307C15.9882 15.4307 17.1384 16.5812 17.1387 18C17.1384 19.4188 15.9882 20.5693 14.5693 20.5693H13.7109V23.1436C13.7105 23.6154 13.3274 23.998 12.8555 23.998C12.3835 23.998 12.0004 23.6154 12 23.1436V16.2861C12 15.8139 12.3833 15.4307 12.8555 15.4307H14.5693ZM13.7109 18.8594H14.5693C15.0437 18.8594 15.4284 18.4743 15.4287 18C15.4285 17.5256 15.0438 17.1416 14.5693 17.1416H13.7109V18.8594Z" fill="black"/>
<path d="M12.1289 0.802734C12.434 0.830482 12.7158 0.948822 12.9424 1.07031C13.2174 1.21776 13.5016 1.41888 13.7842 1.65039C14.3507 2.11452 14.9813 2.75777 15.6191 3.50684C16.8964 5.00679 18.2682 7.00994 19.2783 9.0498C19.4875 9.47282 19.3145 9.98579 18.8916 10.1953C18.4687 10.4045 17.9558 10.2313 17.7461 9.80859C16.8037 7.90546 15.512 6.01918 14.3174 4.61621C13.7193 3.91389 13.1616 3.35162 12.7002 2.97363C12.4689 2.78411 12.2786 2.65477 12.1338 2.57715C12.0654 2.54052 12.0194 2.52353 11.9941 2.51465C11.9519 2.53077 11.8389 2.57782 11.6426 2.71094C11.3674 2.89755 11.0236 3.18708 10.6318 3.57617C9.85094 4.3517 8.94268 5.45336 8.07812 6.71289C7.21442 7.97127 6.41005 9.36616 5.82422 10.7227C5.23305 12.0916 4.8916 13.3613 4.8916 14.3887C4.89178 17.5082 6.90244 20.1603 9.70117 21.1152C10.1481 21.2677 10.3868 21.7543 10.2344 22.2012C10.0817 22.6476 9.59606 22.8866 9.14941 22.7344C5.67922 21.5506 3.18084 18.2621 3.18066 14.3887C3.18066 13.028 3.62049 11.5107 4.25391 10.0439C4.8927 8.56487 5.75706 7.07365 6.66895 5.74512C7.5801 4.41769 8.5554 3.22961 9.42773 2.36328C9.86224 1.9318 10.2883 1.56227 10.6826 1.29492C11.0391 1.05326 11.509 0.795984 11.9971 0.795898L12.1289 0.802734Z" fill="black"/>
<path d="M23.1416 12.002C23.6136 12.0022 23.9971 12.3854 23.9971 12.8574V19.7148C23.9968 20.1866 23.6134 20.5691 23.1416 20.5693C22.6696 20.5693 22.2864 20.1868 22.2861 19.7148V17.1416H20.5684V19.7148C20.5681 20.1867 20.1848 20.5692 19.7129 20.5693C19.2409 20.5693 18.8577 20.1868 18.8574 19.7148V12.8574C18.8574 12.3852 19.2407 12.002 19.7129 12.002C20.185 12.0021 20.5684 12.3853 20.5684 12.8574V15.4307H22.2861V12.8574C22.2861 12.3852 22.6694 12.002 23.1416 12.002Z" fill="black"/>
</svg>
