<svg width="24" height="24" viewBox="0 0 24 24" fill="none" xmlns="http://www.w3.org/2000/svg">
<path fill-rule="evenodd" clip-rule="evenodd" d="M19.4736 0.00195312C20.0919 0.00196342 20.6883 0.214575 21.166 0.598633L21.3633 0.773438L21.377 0.787109L22.1191 1.54785L22.3076 1.74219C23.2301 2.7357 23.8103 4.00248 23.959 5.35547C24.1174 6.79827 23.7751 8.25177 22.9893 9.47168C22.9858 9.47706 22.9821 9.48299 22.9785 9.48828C19.3764 14.8051 14.7927 19.3843 9.47461 22.9785C9.46994 22.9817 9.46469 22.9852 9.45996 22.9883C8.24147 23.7753 6.78841 24.1188 5.34668 23.96C3.91014 23.8016 2.57175 23.1544 1.55469 22.127L0.785156 21.373C0.780748 21.3687 0.775798 21.3648 0.771484 21.3604C0.27786 20.8549 0.00104033 20.175 0.000976562 19.4688C0.00106232 18.7624 0.278228 18.0836 0.771484 17.5781C0.774616 17.5749 0.778066 17.5715 0.78125 17.5684L4.04883 14.3301L4.05078 14.3281C4.55285 13.834 5.22912 13.5567 5.93359 13.5566C6.63726 13.5567 7.31256 13.8331 7.81445 14.3262C7.99988 14.5077 8.24902 14.6093 8.50781 14.6094C8.76662 14.6094 9.01566 14.5077 9.20117 14.3262L14.3271 9.19336L14.3311 9.18848C14.4215 9.09919 14.4938 8.99245 14.543 8.875C14.592 8.75754 14.6171 8.63122 14.6172 8.50391C14.6172 8.37638 14.5921 8.24947 14.543 8.13184C14.4938 8.01431 14.4216 7.90769 14.3311 7.81836L14.3213 7.80859C13.8281 7.30584 13.5518 6.62906 13.5518 5.9248C13.5518 5.22055 13.8281 4.54377 14.3213 4.04102L17.584 0.773438C18.0888 0.279336 18.7672 0.00201701 19.4736 0.00195312ZM19.4736 1.71289C19.2149 1.71295 18.9659 1.8144 18.7803 1.99609L15.541 5.23828L15.542 5.23926C15.3629 5.42199 15.2618 5.66816 15.2617 5.9248C15.2618 6.18164 15.3626 6.42854 15.542 6.61133C15.7894 6.85792 15.9854 7.15026 16.1201 7.47266C16.2565 7.79913 16.3271 8.15005 16.3271 8.50391C16.3271 8.85763 16.2565 9.20785 16.1201 9.53418C15.9845 9.85862 15.7858 10.1528 15.5361 10.4004L10.3975 15.5479C9.89262 16.042 9.21429 16.3193 8.50781 16.3193C7.80138 16.3192 7.12293 16.0421 6.61816 15.5479L6.61621 15.5469C6.43376 15.3673 6.18885 15.2667 5.93359 15.2666C5.67832 15.2667 5.43247 15.3673 5.25 15.5469L1.99512 18.7725L1.93066 18.8457C1.78986 19.0215 1.71199 19.241 1.71191 19.4688C1.71198 19.7248 1.81066 19.9707 1.98633 20.1553L2.75098 20.9053C2.75454 20.9088 2.75822 20.9125 2.76172 20.916C3.50434 21.6698 4.48363 22.1449 5.53418 22.2607C6.58242 22.3762 7.63816 22.126 8.52539 21.5547C13.6568 18.085 18.0803 13.6668 21.5576 8.53613C22.1266 7.64809 22.375 6.59124 22.2598 5.54199C22.144 4.48873 21.6696 3.50754 20.917 2.76367C20.9134 2.76013 20.9098 2.75654 20.9062 2.75293L20.167 1.99609L20.0947 1.93164C19.9192 1.7904 19.7004 1.7129 19.4736 1.71289Z" fill="black"/>
</svg>
