<svg width="24" height="24" viewBox="0 0 24 24" fill="none" xmlns="http://www.w3.org/2000/svg">
<path d="M3.42773 15.4307C3.89983 15.4308 4.2832 15.814 4.2832 16.2861V21.4287C4.28294 21.9006 3.89966 22.284 3.42773 22.2842C2.95569 22.2842 2.57253 21.9007 2.57227 21.4287V16.2861C2.57227 15.8139 2.95553 15.4307 3.42773 15.4307Z" fill="black"/>
<path d="M7.71289 12.002C8.18509 12.002 8.56836 12.3852 8.56836 12.8574V21.4287C8.56823 21.9008 8.18501 22.2842 7.71289 22.2842C7.24088 22.284 6.85755 21.9007 6.85742 21.4287V12.8574C6.85742 12.3853 7.2408 12.0021 7.71289 12.002Z" fill="black"/>
<path d="M11.999 8.57324C12.4711 8.57337 12.8545 8.95659 12.8545 9.42871V21.4287C12.8544 21.9007 12.471 22.284 11.999 22.2842C11.5269 22.2842 11.1437 21.9008 11.1436 21.4287V9.42871C11.1436 8.95651 11.5268 8.57324 11.999 8.57324Z" fill="black"/>
<path d="M20.5703 18.8594C21.0425 18.8594 21.4258 19.2426 21.4258 19.7148V21.4287C21.4255 21.9007 21.0424 22.2842 20.5703 22.2842C20.0983 22.2842 19.7151 21.9007 19.7148 21.4287V19.7148C19.7148 19.2426 20.0981 18.8594 20.5703 18.8594Z" fill="black"/>
<path d="M16.2852 5.14453C16.7571 5.1448 17.1406 5.52796 17.1406 6V21.4287C17.1405 21.9007 16.7571 22.2829 16.2852 22.2832C15.813 22.2832 15.4298 21.9009 15.4297 21.4287V6C15.4297 5.5278 15.813 5.14453 16.2852 5.14453Z" fill="black"/>
</svg>
