<svg width="24" height="24" viewBox="0 0 24 24" fill="none" xmlns="http://www.w3.org/2000/svg">
<path fill-rule="evenodd" clip-rule="evenodd" d="M9.01465 6.9668C9.28642 6.81636 9.6184 6.82559 9.88184 6.99023L16.7393 11.2754C16.9889 11.4317 17.1406 11.7064 17.1406 12.001C17.1403 12.2954 16.9889 12.5695 16.7393 12.7256L9.88184 17.0117C9.61855 17.1762 9.28628 17.1844 9.01465 17.0342C8.74294 16.8836 8.57342 16.5968 8.57324 16.2861V7.71484C8.57324 7.40404 8.74281 7.11747 9.01465 6.9668ZM10.2842 14.7432L14.6729 12L10.2842 9.25684V14.7432Z" fill="black"/>
<path fill-rule="evenodd" clip-rule="evenodd" d="M12 0.00195312C18.6261 0.00208508 23.9979 5.37398 23.998 12C23.9979 18.6261 18.6261 23.9979 12 23.998C5.37398 23.9979 0.00208508 18.6261 0.00195312 12C0.00210413 5.37399 5.37399 0.00210413 12 0.00195312ZM12 1.71289C6.3184 1.71304 1.71304 6.3184 1.71289 12C1.71302 17.6817 6.31838 22.2879 12 22.2881C17.6817 22.288 22.288 17.6817 22.2881 12C22.2879 6.31838 17.6817 1.71302 12 1.71289Z" fill="black"/>
</svg>
