<svg width="24" height="24" viewBox="0 0 24 24" fill="none" xmlns="http://www.w3.org/2000/svg">
<path d="M15.2324 7.14453C15.7045 7.14453 16.0878 7.52791 16.0879 8V16.3076C16.0879 16.7798 15.7046 17.1631 15.2324 17.1631C14.7603 17.163 14.377 16.7797 14.377 16.3076V8C14.3771 7.52799 14.7604 7.14466 15.2324 7.14453Z" fill="black"/>
<path d="M18.002 7.14453C18.474 7.14466 18.8573 7.52799 18.8574 8V16.3076C18.8574 16.7797 18.474 17.163 18.002 17.1631C17.5297 17.1631 17.1465 16.7798 17.1465 16.3076V8C17.1466 7.52791 17.5298 7.14453 18.002 7.14453Z" fill="black"/>
<path fill-rule="evenodd" clip-rule="evenodd" d="M5.14648 9.13867C5.14259 8.02854 6.30959 7.32981 7.26855 7.73438L7.45703 7.83008L8.32812 8.39062C9.63318 9.24123 11.9077 10.7417 12.167 10.9072C13.0833 11.4927 13.0833 12.8534 12.167 13.4385C11.8126 13.6648 7.89653 16.2336 7.45703 16.4971C6.47017 17.0885 5.14234 16.3715 5.14648 15.1875V9.13867ZM6.85742 14.8506C7.7244 14.2957 10.1212 12.7286 10.9766 12.1719C10.119 11.6109 7.72417 10.0332 6.85742 9.47559C6.85856 10.5785 6.85856 13.7471 6.85742 14.8506Z" fill="black"/>
<path fill-rule="evenodd" clip-rule="evenodd" d="M12.002 0.00195312C18.628 0.00221703 23.9998 5.37406 24 12C23.9999 18.626 18.628 23.9978 12.002 23.998C5.37594 23.9979 0.00306164 18.6261 0.00292969 12C0.00308069 5.37399 5.37594 0.00210413 12.002 0.00195312ZM12.002 1.71289C6.32035 1.71304 1.71499 6.3184 1.71484 12C1.71498 17.6817 6.32033 22.2879 12.002 22.2881C17.6836 22.2878 22.2899 17.6816 22.29 12C22.2899 6.31846 17.6835 1.71315 12.002 1.71289Z" fill="black"/>
</svg>
