<svg width="24" height="24" viewBox="0 0 24 24" fill="none" xmlns="http://www.w3.org/2000/svg">
<path d="M13.1836 13.6992C13.6557 13.6994 14.0391 14.0826 14.0391 14.5547C14.0391 15.3567 14.689 16.0067 15.4912 16.0068C15.8979 16.0068 16.2648 15.8413 16.5293 15.5713C16.8598 15.2342 17.401 15.2283 17.7383 15.5586C18.0753 15.8889 18.0809 16.4303 17.751 16.7676C17.178 17.3525 16.3759 17.7167 15.4912 17.7168C14.5797 17.7167 13.7607 17.3289 13.1836 16.7119C12.6065 17.3289 11.7874 17.7167 10.876 17.7168C9.96446 17.7168 9.14551 17.3289 8.56836 16.7119C7.99124 17.3289 7.17224 17.7167 6.26074 17.7168C5.376 17.7168 4.575 17.3523 4.00195 16.7676C3.67149 16.4303 3.67642 15.8891 4.01367 15.5586C4.35092 15.2283 4.8922 15.2342 5.22266 15.5713C5.48731 15.8413 5.8541 16.0068 6.26074 16.0068C7.06298 16.0067 7.71387 15.3567 7.71387 14.5547C7.71387 14.0825 8.09618 13.6992 8.56836 13.6992C9.04045 13.6994 9.42383 14.0826 9.42383 14.5547C9.42383 15.3568 10.0737 16.0068 10.876 16.0068C11.6782 16.0067 12.3291 15.3567 12.3291 14.5547C12.3291 14.0826 12.7115 13.6993 13.1836 13.6992Z" fill="black"/>
<path d="M14.8975 6.8418C15.3696 6.8418 15.7528 7.22517 15.7529 7.69727C15.7529 8.49923 16.403 9.14913 17.2051 9.14941C17.6118 9.14941 17.9786 8.98391 18.2432 8.71387C18.5735 8.37672 19.1148 8.37104 19.4521 8.70117C19.7893 9.03151 19.7949 9.57283 19.4648 9.91016C18.8918 10.4951 18.0898 10.8594 17.2051 10.8594C16.2936 10.8592 15.4745 10.4715 14.8975 9.85449C14.3203 10.4715 13.5014 10.8594 12.5898 10.8594C11.6784 10.8593 10.8593 10.4715 10.2822 9.85449C9.70505 10.4716 8.88621 10.8594 7.97461 10.8594C7.0899 10.8593 6.28882 10.4949 5.71582 9.91016C5.38561 9.57287 5.39037 9.03158 5.72754 8.70117C6.0647 8.37081 6.60601 8.37694 6.93652 8.71387C7.20113 8.98389 7.568 9.14935 7.97461 9.14941C8.77696 9.1494 9.42773 8.4994 9.42773 7.69727C9.42787 7.22527 9.81024 6.84196 10.2822 6.8418C10.7543 6.8418 11.1376 7.22517 11.1377 7.69727C11.1377 8.49928 11.7876 9.14921 12.5898 9.14941C13.3922 9.14941 14.043 8.4994 14.043 7.69727C14.0431 7.22532 14.4255 6.84204 14.8975 6.8418Z" fill="black"/>
<path fill-rule="evenodd" clip-rule="evenodd" d="M21.4268 2.57324C22.8456 2.57324 23.9959 3.72379 23.9961 5.14258V18.8574C23.9959 20.2762 22.8456 21.4268 21.4268 21.4268H2.56934C1.15068 21.4265 0.000207848 20.2761 0 18.8574V5.14258C0.00022461 3.72393 1.15069 2.57347 2.56934 2.57324H21.4268ZM2.56934 4.28418C2.09509 4.28441 1.71116 4.66834 1.71094 5.14258V18.8574C1.71115 19.3317 2.09509 19.7166 2.56934 19.7168H21.4268C21.9012 19.7168 22.2859 19.3318 22.2861 18.8574V5.14258C22.2859 4.6682 21.9012 4.28418 21.4268 4.28418H2.56934Z" fill="black"/>
</svg>
