<svg width="24" height="24" viewBox="0 0 24 24" fill="none" xmlns="http://www.w3.org/2000/svg">
<path fill-rule="evenodd" clip-rule="evenodd" d="M21.4307 2.57324C22.8493 2.57351 23.9998 3.72396 24 5.14258V18.8574C23.9998 20.2761 22.8493 21.4265 21.4307 21.4268H2.57324C1.15459 21.4265 0.0031375 20.2761 0.00292969 18.8574V5.14258C0.0031543 3.72393 1.1546 2.57347 2.57324 2.57324H21.4307ZM2.57324 4.28418C2.099 4.28441 1.71507 4.66834 1.71484 5.14258V18.8574C1.71505 19.3317 2.09899 19.7166 2.57324 19.7168H4.45996V4.28418H2.57324ZM6.1709 19.7168H8.91602V4.28418H6.1709V19.7168ZM15.0869 19.7168H17.833V4.28418H15.0869V19.7168ZM19.5439 19.7168H21.4307C21.9049 19.7165 22.2898 19.3317 22.29 18.8574V5.14258C22.2898 4.66836 21.9049 4.28444 21.4307 4.28418H19.5439V19.7168ZM10.627 19.7168H13.376V4.28418H10.627V19.7168Z" fill="black"/>
</svg>
