<svg width="24" height="24" viewBox="0 0 24 24" fill="none" xmlns="http://www.w3.org/2000/svg">
<path d="M13.1836 13.6992C13.6557 13.6994 14.0391 14.0826 14.0391 14.5547C14.0393 15.3565 14.6891 16.0067 15.4912 16.0068C15.8978 16.0068 16.2648 15.8412 16.5293 15.5713C16.8597 15.2341 17.401 15.2282 17.7383 15.5586C18.0751 15.889 18.081 16.4304 17.751 16.7676C17.178 17.3524 16.3758 17.7167 15.4912 17.7168C14.5798 17.7167 13.7607 17.3288 13.1836 16.7119C12.6065 17.3288 11.7874 17.7167 10.876 17.7168C9.96458 17.7168 9.14549 17.3288 8.56836 16.7119C7.99124 17.3289 7.17217 17.7167 6.26074 17.7168C5.37613 17.7168 4.57498 17.3522 4.00195 16.7676C3.67153 16.4303 3.67654 15.8891 4.01367 15.5586C4.35091 15.2282 4.89216 15.2341 5.22266 15.5713C5.48729 15.8412 5.85423 16.0068 6.26074 16.0068C7.06282 16.0067 7.7136 15.3565 7.71387 14.5547C7.71387 14.0825 8.09618 13.6992 8.56836 13.6992C9.04045 13.6994 9.42383 14.0826 9.42383 14.5547C9.42409 15.3566 10.0738 16.0068 10.876 16.0068C11.6781 16.0067 12.3288 15.3565 12.3291 14.5547C12.3291 14.0826 12.7115 13.6993 13.1836 13.6992Z" fill="black"/>
<path d="M14.8975 6.8418C15.3697 6.8418 15.7529 7.22506 15.7529 7.69727C15.7531 8.49912 16.403 9.14913 17.2051 9.14941C17.6117 9.14941 17.9786 8.98376 18.2432 8.71387C18.5736 8.37664 19.1149 8.37079 19.4521 8.70117C19.7893 9.03151 19.7949 9.57283 19.4648 9.91016C18.8918 10.4949 18.0897 10.8594 17.2051 10.8594C16.2936 10.8592 15.4745 10.4715 14.8975 9.85449C14.3203 10.4714 13.5013 10.8594 12.5898 10.8594C11.6784 10.8593 10.8593 10.4715 10.2822 9.85449C9.70507 10.4714 8.88608 10.8594 7.97461 10.8594C7.0899 10.8593 6.28882 10.4949 5.71582 9.91016C5.38544 9.57297 5.39053 9.03168 5.72754 8.70117C6.06478 8.37073 6.60603 8.37669 6.93652 8.71387C7.20113 8.98389 7.568 9.14935 7.97461 9.14941C8.77688 9.1494 9.4276 8.49928 9.42773 7.69727C9.42773 7.22516 9.81016 6.84196 10.2822 6.8418C10.7544 6.8418 11.1377 7.22506 11.1377 7.69727C11.1378 8.49917 11.7877 9.14921 12.5898 9.14941C13.3921 9.14941 14.0428 8.49929 14.043 7.69727C14.043 7.22521 14.4255 6.84204 14.8975 6.8418Z" fill="black"/>
<path fill-rule="evenodd" clip-rule="evenodd" d="M11.998 0.00195312C12.8185 0.00195312 13.6209 0.0847896 14.3965 0.242188C16.1706 0.602305 17.8025 1.3538 19.1973 2.40137C22.1094 4.58877 23.996 8.07429 23.9961 12C23.996 15.9257 22.1094 19.4112 19.1973 21.5986C17.8025 22.6462 16.1706 23.3977 14.3965 23.7578C13.6209 23.9152 12.8185 23.998 11.998 23.998C11.1775 23.998 10.3753 23.9153 9.59961 23.7578C7.82551 23.3977 6.19356 22.6462 4.79883 21.5986C1.88687 19.4112 7.8228e-05 15.9255 0 12C8.95062e-05 8.0744 1.8868 4.58878 4.79883 2.40137C6.19359 1.35372 7.82545 0.602338 9.59961 0.242188C10.3753 0.0847367 11.1775 0.00197185 11.998 0.00195312ZM11.998 1.71289C11.2924 1.71291 10.6038 1.78311 9.93945 1.91797C8.42058 2.22634 7.02268 2.86986 5.82617 3.76855C3.32557 5.64689 1.71103 8.63491 1.71094 12C1.71102 15.3651 3.32555 18.3531 5.82617 20.2314C7.02268 21.1301 8.42058 21.7736 9.93945 22.082C10.6038 22.2169 11.2924 22.2881 11.998 22.2881C12.7038 22.2881 13.3923 22.2169 14.0566 22.082C15.5757 21.7737 16.9743 21.1302 18.1709 20.2314C20.6714 18.3531 22.2861 15.365 22.2861 12C22.286 8.63495 20.6714 5.64689 18.1709 3.76855C16.9743 2.86976 15.5757 2.22632 14.0566 1.91797C13.3923 1.78313 12.7037 1.71289 11.998 1.71289Z" fill="black"/>
</svg>
