<svg width="24" height="24" viewBox="0 0 24 24" fill="none" xmlns="http://www.w3.org/2000/svg">
<path d="M13.8613 8.9541C14.1233 8.56142 14.6541 8.4559 15.0469 8.71777C15.4394 8.97981 15.546 9.51057 15.2842 9.90332L13.8857 12L15.2842 14.0977C15.5456 14.4905 15.4395 15.0214 15.0469 15.2832C14.6541 15.5449 14.1233 15.4385 13.8613 15.0459L12.1475 12.4746C11.956 12.1874 11.956 11.8126 12.1475 11.5254L13.8613 8.9541Z" fill="black"/>
<path d="M17.5264 8.71777C17.9191 8.45594 18.4499 8.56157 18.7119 8.9541L20.4268 11.5254C20.6182 11.8126 20.6182 12.1874 20.4268 12.4746L18.7119 15.0459C18.4499 15.4384 17.9191 15.545 17.5264 15.2832C17.1337 15.0213 17.0284 14.4905 17.29 14.0977L18.6875 12L17.29 9.90332C17.0283 9.51067 17.1341 8.97988 17.5264 8.71777Z" fill="black"/>
<path fill-rule="evenodd" clip-rule="evenodd" d="M21.4297 2.57324C22.8484 2.57337 23.9988 3.72387 23.999 5.14258V18.8574C23.9988 20.2761 22.8484 21.4266 21.4297 21.4268H2.57227C1.15361 21.4265 0.00313755 20.2761 0.00292969 18.8574V5.14258C0.0031543 3.72393 1.15362 2.57347 2.57227 2.57324H21.4297ZM2.57227 4.28418C2.09802 4.28441 1.71409 4.66834 1.71387 5.14258V18.8574C1.71407 19.3317 2.09802 19.7166 2.57227 19.7168H4.45898V4.28418H2.57227ZM10.627 19.7168H21.4297C21.904 19.7167 22.2889 19.3317 22.2891 18.8574V5.14258C22.2888 4.66828 21.904 4.28431 21.4297 4.28418H10.627V19.7168ZM6.16992 19.7168H8.91602V4.28418H6.16992V19.7168Z" fill="black"/>
</svg>
