<svg width="24" height="24" viewBox="0 0 24 24" fill="none" xmlns="http://www.w3.org/2000/svg">
<path d="M13.8613 8.9541C14.1233 8.56142 14.6541 8.4559 15.0469 8.71777C15.4394 8.97981 15.546 9.51057 15.2842 9.90332L13.8857 12L15.2842 14.0967C15.546 14.4895 15.4396 15.0213 15.0469 15.2832C14.6541 15.5449 14.1233 15.4385 13.8613 15.0459L12.1475 12.4746C12.1004 12.4039 12.0641 12.3273 12.04 12.2471C12.0362 12.2345 12.0335 12.2217 12.0303 12.209C12.0199 12.1678 12.011 12.1263 12.0068 12.084C12.0059 12.0749 12.0065 12.0657 12.0059 12.0566C12.0011 11.9846 12.0039 11.9117 12.0176 11.8398C12.0204 11.825 12.0247 11.8105 12.0283 11.7959C12.0447 11.7291 12.0692 11.6635 12.1025 11.6006C12.1154 11.5763 12.1293 11.5524 12.1445 11.5293L13.8613 8.9541Z" fill="black"/>
<path d="M17.5264 8.71777C17.9191 8.45594 18.4499 8.56157 18.7119 8.9541L20.4258 11.5244C20.4423 11.5492 20.4579 11.5745 20.4717 11.6006C20.534 11.7185 20.5645 11.8457 20.5684 11.9727C20.5715 12.0645 20.5613 12.1571 20.5342 12.2471C20.51 12.3274 20.473 12.4038 20.4258 12.4746L18.7119 15.0459C18.4499 15.4384 17.9191 15.545 17.5264 15.2832C17.1337 15.0212 17.0283 14.4895 17.29 14.0967L18.6875 12L17.29 9.90332C17.0283 9.51067 17.1341 8.97988 17.5264 8.71777Z" fill="black"/>
<path fill-rule="evenodd" clip-rule="evenodd" d="M12.001 0.00195312C12.8214 0.00196956 13.6239 0.0848053 14.3994 0.242188C16.1734 0.602323 17.8055 1.35384 19.2002 2.40137C22.1123 4.58878 23.9989 8.07436 23.999 12C23.9989 15.9257 22.1123 19.4112 19.2002 21.5986C17.8055 22.6462 16.1735 23.3977 14.3994 23.7578C13.6239 23.9152 12.8214 23.998 12.001 23.998C11.1942 23.998 10.4051 23.917 9.6416 23.7646C9.6178 23.761 9.5944 23.7565 9.57129 23.751C7.80927 23.3884 6.18831 22.6401 4.80176 21.5986C4.79758 21.5955 4.79324 21.592 4.78906 21.5889C4.7812 21.5827 4.77326 21.5767 4.76562 21.5703C1.87434 19.3812 0.00300759 15.9092 0.00292969 12C0.00301882 8.09061 1.87407 4.61775 4.76562 2.42871C4.77326 2.42232 4.78121 2.41629 4.78906 2.41016C4.79316 2.40707 4.79766 2.40445 4.80176 2.40137C6.19018 1.35849 7.81333 0.609117 9.57812 0.24707C9.59263 0.243717 9.60729 0.240885 9.62207 0.238281C10.3916 0.0834185 11.1874 0.0019717 12.001 0.00195312ZM12.001 1.71289C11.5348 1.7129 11.0762 1.74598 10.627 1.80566V22.1934C11.0762 22.2533 11.5347 22.2881 12.001 22.2881C12.7066 22.2881 13.3953 22.2169 14.0596 22.082C15.5786 21.7737 16.9772 21.1302 18.1738 20.2314C20.6743 18.3531 22.289 15.365 22.2891 12C22.289 8.63502 20.6743 5.6469 18.1738 3.76855C16.9773 2.86981 15.5785 2.22633 14.0596 1.91797C13.3953 1.78315 12.7066 1.71291 12.001 1.71289ZM8.91602 2.18262C7.92839 2.49268 7.00483 2.94789 6.16992 3.52344V20.4746C7.0049 21.0503 7.92827 21.5053 8.91602 21.8154V2.18262ZM4.45898 5.00391C2.75478 6.8403 1.71394 9.29847 1.71387 12C1.71393 14.7014 2.75494 17.1588 4.45898 18.9951V5.00391Z" fill="black"/>
</svg>
