<svg width="24" height="24" viewBox="0 0 24 24" fill="none" xmlns="http://www.w3.org/2000/svg">
<path fill-rule="evenodd" clip-rule="evenodd" d="M12.002 0.00195312C12.8152 0.0019857 13.6107 0.0835308 14.3799 0.238281C14.3947 0.240869 14.4093 0.243733 14.4238 0.24707C16.1887 0.60907 17.8127 1.35851 19.2012 2.40137C19.2049 2.40414 19.2082 2.40738 19.2119 2.41016C19.2204 2.41672 19.2291 2.42282 19.2373 2.42969C22.1285 4.61876 23.9999 8.09093 24 12C23.9999 15.9089 22.1283 19.3802 19.2373 21.5693C19.2291 21.5762 19.2204 21.5823 19.2119 21.5889C19.2081 21.5918 19.205 21.5957 19.2012 21.5986C17.8148 22.64 16.1935 23.3874 14.4316 23.75C14.4078 23.7557 14.3839 23.761 14.3594 23.7646C13.5964 23.9168 12.8081 23.998 12.002 23.998C11.1953 23.998 10.406 23.917 9.64258 23.7646C9.61877 23.761 9.59538 23.7565 9.57227 23.751C7.82583 23.3917 6.21825 22.653 4.83984 21.626C4.81371 21.6085 4.78864 21.5895 4.76465 21.5693C1.87425 19.3802 0.00300757 15.9085 0.00292969 12C0.00301882 8.09082 1.87433 4.61777 4.76562 2.42871C4.78894 2.40916 4.81353 2.39104 4.83887 2.37402C6.21928 1.34531 7.82963 0.605936 9.5791 0.24707C9.59361 0.243725 9.60827 0.240877 9.62305 0.238281C10.3925 0.0834492 11.1884 0.00197169 12.002 0.00195312ZM12.002 1.71289C11.5355 1.7129 11.0764 1.74592 10.627 1.80566V22.1934C11.0764 22.2534 11.5355 22.2881 12.002 22.2881C12.4683 22.2881 12.9267 22.2534 13.376 22.1934V1.80566C12.9267 1.74594 12.4682 1.71291 12.002 1.71289ZM8.91602 2.18359C7.92882 2.49363 7.0055 2.94813 6.1709 3.52344V20.4746C7.00564 21.0501 7.92859 21.5053 8.91602 21.8154V2.18359ZM15.0869 21.8154C16.0746 21.5053 16.9981 21.0502 17.833 20.4746V3.52344C16.9981 2.94798 16.0745 2.49264 15.0869 2.18262V21.8154ZM19.5439 18.9951C21.248 17.1588 22.29 14.7013 22.29 12C22.29 9.29845 21.2482 6.84032 19.5439 5.00391V18.9951ZM4.45996 5.00391C2.75569 6.84031 1.71492 9.29841 1.71484 12C1.71491 14.7014 2.75585 17.1588 4.45996 18.9951V5.00391Z" fill="black"/>
</svg>
