<svg width="24" height="24" viewBox="0 0 24 24" fill="none" xmlns="http://www.w3.org/2000/svg">
<path d="M23.1426 22.2881C23.6144 22.2886 23.9971 22.6717 23.9971 23.1436C23.9967 23.6152 23.6142 23.9976 23.1426 23.998H0.856445C0.384451 23.998 0.000339178 23.6155 0 23.1436C0 22.6714 0.384242 22.2881 0.856445 22.2881H23.1426Z" fill="black"/>
<path fill-rule="evenodd" clip-rule="evenodd" d="M14.7695 0.00195312C15.404 0.00210455 16.0166 0.237639 16.4883 0.662109L21.25 4.94727C22.9546 6.48178 21.9411 9.27533 19.7109 9.41895V18.8594H21.4277C21.8997 18.8596 22.2832 19.2428 22.2832 19.7148C22.2829 20.1867 21.8996 20.57 21.4277 20.5703H2.57031C2.09846 20.5701 1.71608 20.1867 1.71582 19.7148C1.71582 19.2428 2.0983 18.8596 2.57031 18.8594H4.28613V9.41895C2.05545 9.27584 1.04194 6.48189 2.74707 4.94727L7.50879 0.662109C7.98054 0.237544 8.59288 0.00198924 9.22754 0.00195312H14.7695ZM5.99707 18.8594H8.57227V13.7148C8.57227 13.2426 8.95553 12.8594 9.42773 12.8594H14.5703C15.0424 12.8595 15.4258 13.2427 15.4258 13.7148V18.8594H18.001V9.42676H5.99707V18.8594ZM10.2832 18.8594H13.7158V14.5703H10.2832V18.8594ZM9.22754 1.71289C9.01552 1.71293 8.81101 1.79091 8.65332 1.93262L3.89062 6.21875C3.30554 6.74561 3.67839 7.7168 4.46582 7.7168H5.12402C5.12987 7.71668 5.13572 7.71582 5.1416 7.71582H18.8555C18.8613 7.71582 18.8673 7.71668 18.873 7.7168H19.5312C20.3184 7.71645 20.6904 6.74553 20.1055 6.21875L15.3438 1.93262C15.1862 1.79093 14.9814 1.71304 14.7695 1.71289H9.22754Z" fill="black"/>
</svg>
