<svg width="24" height="24" viewBox="0 0 24 24" fill="none" xmlns="http://www.w3.org/2000/svg">
<path fill-rule="evenodd" clip-rule="evenodd" d="M13 0.0146484C13.325 0.0694369 13.5956 0.308335 13.6836 0.634766L14.667 4.28711H17.1436C17.6155 4.28734 17.9979 4.67063 17.998 5.14258C17.998 5.61464 17.6156 5.99782 17.1436 5.99805H15.1279L15.5898 7.71582H18.8574C19.3294 7.71595 19.7128 8.09928 19.7129 8.57129C19.7129 9.04341 19.3295 9.42663 18.8574 9.42676H16.0508L19.6836 22.9209C19.686 22.9299 19.6873 22.9392 19.6895 22.9482C19.6922 22.9599 19.695 22.9716 19.6973 22.9834C19.7002 22.999 19.702 23.0147 19.7041 23.0303C19.7062 23.0462 19.7078 23.0621 19.709 23.0781C19.7096 23.0863 19.7105 23.0944 19.7109 23.1025C19.7118 23.1211 19.7113 23.1396 19.7109 23.1582C19.7102 23.2012 19.7063 23.2434 19.6992 23.2852C19.6973 23.2962 19.6957 23.3073 19.6934 23.3184C19.6903 23.3329 19.6864 23.3471 19.6826 23.3613C19.6795 23.3731 19.6765 23.3848 19.6729 23.3965C19.6681 23.4117 19.6628 23.4265 19.6572 23.4414C19.6444 23.4755 19.6308 23.5099 19.6133 23.543C19.6107 23.5478 19.6071 23.5519 19.6045 23.5566C19.5964 23.5712 19.588 23.5855 19.5791 23.5996C19.5741 23.6076 19.5687 23.6153 19.5635 23.623C19.5234 23.682 19.4759 23.7356 19.4219 23.7832C19.4115 23.7924 19.4014 23.8019 19.3906 23.8105C19.3318 23.8575 19.2659 23.8961 19.1943 23.9268C19.1897 23.9288 19.1854 23.9317 19.1807 23.9336C19.1647 23.9401 19.1483 23.9456 19.1318 23.9512C19.1201 23.9551 19.1085 23.9594 19.0967 23.9629C19.0911 23.9645 19.0857 23.9672 19.0801 23.9688C19.0695 23.9716 19.0585 23.9732 19.0479 23.9756C19.0371 23.978 19.0264 23.9804 19.0156 23.9824C19 23.9854 18.9843 23.9872 18.9688 23.9893C18.9535 23.9913 18.9382 23.9929 18.9229 23.9941C18.914 23.9948 18.9053 23.9957 18.8965 23.9961C18.878 23.997 18.8594 23.9964 18.8408 23.9961C18.8258 23.9958 18.8108 23.9952 18.7959 23.9941C18.7884 23.9936 18.7809 23.9929 18.7734 23.9922C18.7541 23.9903 18.7349 23.9886 18.7158 23.9854C18.7038 23.9833 18.6917 23.9811 18.6797 23.9785C18.6655 23.9755 18.6516 23.9715 18.6377 23.9678C18.6264 23.9647 18.6148 23.9625 18.6035 23.959C18.5867 23.9537 18.5702 23.9477 18.5537 23.9414C18.5422 23.937 18.531 23.9317 18.5195 23.9268C18.5051 23.9205 18.4907 23.9143 18.4766 23.9072C18.4705 23.9042 18.4641 23.9016 18.458 23.8984L12 20.4795L5.54395 23.8984C5.50902 23.9169 5.47263 23.9311 5.43652 23.9443C5.42482 23.9486 5.41326 23.9532 5.40137 23.957C5.38646 23.9618 5.37147 23.9658 5.35645 23.9697C5.34574 23.9725 5.33505 23.9752 5.32422 23.9775C5.31056 23.9805 5.29691 23.9831 5.2832 23.9854C5.26478 23.9884 5.24623 23.9903 5.22754 23.9922C5.21939 23.993 5.21127 23.9936 5.20312 23.9941C5.18851 23.9952 5.17392 23.9958 5.15918 23.9961C5.14057 23.9964 5.12204 23.997 5.10352 23.9961C5.09472 23.9957 5.08597 23.9948 5.07715 23.9941C5.0621 23.993 5.04717 23.9912 5.03223 23.9893C5.01531 23.987 4.99838 23.9847 4.98145 23.9814C4.97228 23.9797 4.9632 23.9777 4.9541 23.9756C4.94313 23.9731 4.93186 23.9717 4.9209 23.9688C4.91502 23.9672 4.90913 23.9646 4.90332 23.9629C4.89146 23.9594 4.87987 23.9551 4.86816 23.9512C4.85167 23.9456 4.83528 23.9401 4.81934 23.9336C4.81463 23.9317 4.81034 23.9288 4.80566 23.9268C4.73417 23.8961 4.6681 23.8576 4.60938 23.8105C4.57714 23.7848 4.5471 23.7562 4.51855 23.7256C4.50803 23.7143 4.49718 23.7033 4.4873 23.6914C4.48239 23.6855 4.4784 23.6789 4.47363 23.6729C4.46078 23.6566 4.44814 23.6402 4.43652 23.623C4.43127 23.6153 4.42593 23.6076 4.4209 23.5996C4.41202 23.5855 4.40356 23.5712 4.39551 23.5566C4.39297 23.5521 4.39016 23.5476 4.3877 23.543C4.35594 23.483 4.33282 23.4204 4.31641 23.3574C4.31305 23.3445 4.31037 23.3315 4.30762 23.3184C4.29817 23.2735 4.2912 23.2287 4.28906 23.1836C4.28867 23.1752 4.28921 23.1667 4.28906 23.1582C4.28874 23.1396 4.28818 23.1211 4.28906 23.1025C4.28941 23.0954 4.29049 23.0882 4.29102 23.0811C4.29586 23.0146 4.30728 22.949 4.32715 22.8857L6.02441 16.582C6.02732 16.5703 6.02978 16.5585 6.0332 16.5469C6.03416 16.5436 6.03514 16.5404 6.03613 16.5371L7.95117 9.42676H5.14355C4.67135 9.42676 4.28809 9.04349 4.28809 8.57129C4.28822 8.0992 4.67143 7.71582 5.14355 7.71582H8.41211L8.87402 5.99805H6.85742C6.38533 5.99791 6.00195 5.6147 6.00195 5.14258C6.00209 4.67057 6.38541 4.28724 6.85742 4.28711H9.33496L10.3184 0.634766L10.3662 0.500977C10.5036 0.2011 10.8052 0.00195347 11.1436 0.00195312H12.8574L13 0.0146484ZM6.47852 21.4668L10.1719 19.5117L7.40039 18.0449L6.47852 21.4668ZM13.8281 19.5117L17.5205 21.4668L16.5986 18.0449L13.8281 19.5117ZM8.50195 16.6924L12 18.5439L15.498 16.6924L12 14.29L8.50195 16.6924ZM8.28223 14.7695L10.4941 13.25L8.97461 12.1982L8.28223 14.7695ZM13.5059 13.25L15.7178 14.7695L15.0254 12.1982L13.5059 13.25ZM9.44629 10.4453L12 12.2129L14.5537 10.4453L14.2793 9.42676H9.72168L9.44629 10.4453ZM10.1816 7.71582H13.8193L13.3564 5.99805H10.6445L10.1816 7.71582ZM11.1055 4.28711H12.8955L12.2021 1.71289H11.7988L11.1055 4.28711Z" fill="black"/>
</svg>
