<svg width="24" height="24" viewBox="0 0 24 24" fill="none" xmlns="http://www.w3.org/2000/svg">
<path fill-rule="evenodd" clip-rule="evenodd" d="M20.5713 0.858398C21.99 0.858549 23.1404 2.01004 23.1406 3.42871V15.4287C23.1404 16.8474 21.99 17.9979 20.5713 17.998H16.6348L20.3184 21.6816C20.6521 22.0156 20.6522 22.5568 20.3184 22.8906C19.9845 23.2242 19.4432 23.2242 19.1094 22.8906L14.2168 17.998H12.8555V22.2861C12.8552 22.7581 12.472 23.1416 12 23.1416C11.528 23.1416 11.1448 22.7581 11.1445 22.2861V17.998H9.7832L4.89062 22.8906C4.55686 23.2243 4.01555 23.2241 3.68164 22.8906C3.3479 22.5567 3.34785 22.0155 3.68164 21.6816L7.36523 17.998H3.42773C2.00929 17.9976 0.858662 16.8472 0.858398 15.4287V3.42871C0.858625 2.0102 2.00927 0.858822 3.42773 0.858398H20.5713ZM2.56934 6.85547V15.4287C2.5696 15.9028 2.95369 16.2877 3.42773 16.2881H20.5713C21.0456 16.2879 21.4304 15.903 21.4307 15.4287V6.85547H2.56934ZM3.42773 2.57031C2.95367 2.57074 2.56956 2.9546 2.56934 3.42871V5.14453H21.4307V3.42871C21.4304 2.95442 21.0456 2.57046 20.5713 2.57031H3.42773Z" fill="black"/>
</svg>
