<svg width="24" height="24" viewBox="0 0 24 24" fill="none" xmlns="http://www.w3.org/2000/svg">
<path d="M11.998 8.57324C12.2391 8.57324 12.4568 8.67344 12.6123 8.83398L15.1738 11.3955C15.5077 11.7294 15.5077 12.2706 15.1738 12.6045C14.8399 12.9383 14.2987 12.9383 13.9648 12.6045L12.8535 11.4932V15.4287C12.8535 15.9009 12.4703 16.2842 11.998 16.2842C11.526 16.284 11.1426 15.9008 11.1426 15.4287V11.4932L10.0312 12.6045C9.69734 12.9383 9.15612 12.9383 8.82227 12.6045C8.4886 12.2706 8.48855 11.7294 8.82227 11.3955L11.3936 8.82422C11.5484 8.66936 11.762 8.57331 11.998 8.57324Z" fill="black"/>
<path fill-rule="evenodd" clip-rule="evenodd" d="M21.2559 0.858398C22.296 0.858591 23.1395 1.70316 23.1396 2.74316V4.97168C23.1394 5.95462 22.3857 6.76104 21.4248 6.84668V18.002H22.2842C22.7563 18.0021 23.1396 18.3853 23.1396 18.8574C23.1394 19.3293 22.7561 19.7128 22.2842 19.7129H12.8535V22.2861C12.8532 22.758 12.47 23.1406 11.998 23.1406C11.5262 23.1405 11.1429 22.758 11.1426 22.2861V19.7129H1.71289C1.24085 19.7129 0.857686 19.3294 0.857422 18.8574C0.857422 18.3852 1.24069 18.002 1.71289 18.002H2.57129V6.84668C1.61079 6.76075 0.857671 5.95443 0.857422 4.97168V2.74316C0.857558 1.7031 1.70114 0.858534 2.74121 0.858398H21.2559ZM4.28223 18.002H19.7148V6.85547H4.28223V18.002ZM2.74121 2.57031C2.64555 2.57045 2.5685 2.6475 2.56836 2.74316V4.97168C2.56862 5.06723 2.64563 5.14537 2.74121 5.14551H3.40918C3.41503 5.14539 3.42088 5.14453 3.42676 5.14453H20.5693C20.5751 5.14453 20.5811 5.14539 20.5869 5.14551H21.2559C21.3514 5.14532 21.4294 5.06722 21.4297 4.97168V2.74316C21.4296 2.64751 21.3515 2.5705 21.2559 2.57031H2.74121Z" fill="black"/>
</svg>
