<svg width="24" height="24" viewBox="0 0 24 24" fill="none" xmlns="http://www.w3.org/2000/svg">
<path d="M12 8.57324C12.4722 8.57324 12.8555 8.95651 12.8555 9.42871V13.3643L13.9668 12.2529C14.3007 11.9191 14.8419 11.9191 15.1758 12.2529C15.5094 12.5868 15.5096 13.1281 15.1758 13.4619L12.6045 16.0332C12.4497 16.188 12.2361 16.2842 12 16.2842C11.7639 16.2842 11.5503 16.188 11.3955 16.0332L8.82422 13.4619C8.49036 13.1281 8.49044 12.5868 8.82422 12.2529C9.15812 11.919 9.6993 11.919 10.0332 12.2529L11.1445 13.3643V9.42871C11.1445 8.95651 11.5278 8.57324 12 8.57324Z" fill="black"/>
<path fill-rule="evenodd" clip-rule="evenodd" d="M21.2578 0.858398C22.2978 0.858723 23.1415 1.70324 23.1416 2.74316V4.97168C23.1414 5.95454 22.3875 6.76093 21.4268 6.84668V18.002H22.2861C22.7581 18.0022 23.1416 18.3854 23.1416 18.8574C23.1413 19.3292 22.7579 19.7126 22.2861 19.7129H12.8555V22.2861C12.8551 22.758 12.472 23.1406 12 23.1406C11.528 23.1406 11.1449 22.758 11.1445 22.2861V19.7129H1.71484C1.2428 19.7129 0.858662 19.3294 0.858398 18.8574C0.858398 18.3852 1.24264 18.002 1.71484 18.002H2.57324V6.84668C1.61263 6.76086 0.858648 5.95451 0.858398 4.97168V2.74316C0.858534 1.7031 1.7031 0.858534 2.74316 0.858398H21.2578ZM4.28418 18.002H19.7168V6.85547H4.28418V18.002ZM2.74316 2.57031C2.6475 2.57045 2.57045 2.6475 2.57031 2.74316V4.97168C2.57057 5.06723 2.64758 5.14537 2.74316 5.14551H3.41113C3.4169 5.14539 3.42291 5.14453 3.42871 5.14453H20.5713C20.5772 5.14453 20.583 5.14539 20.5889 5.14551H21.2578C21.3533 5.14518 21.4314 5.06714 21.4316 4.97168V2.74316C21.4315 2.64759 21.3533 2.57064 21.2578 2.57031H2.74316Z" fill="black"/>
</svg>
