<svg width="24" height="24" viewBox="0 0 24 24" fill="none" xmlns="http://www.w3.org/2000/svg">
<path fill-rule="evenodd" clip-rule="evenodd" d="M21.2578 0.858398C22.298 0.858459 23.1415 1.70308 23.1416 2.74316V4.97168C23.1414 5.95437 22.3882 6.7607 21.4277 6.84668V18.002H22.2861C22.7583 18.002 23.1416 18.3852 23.1416 18.8574C23.1413 19.3294 22.7582 19.7129 22.2861 19.7129H12.8564V22.2861C12.8561 22.7579 12.4727 23.1404 12.001 23.1406C11.529 23.1406 11.1458 22.758 11.1455 22.2861V19.7129H1.71484C1.2428 19.7129 0.859639 19.3294 0.859375 18.8574C0.859375 18.3852 1.24264 18.002 1.71484 18.002H2.57422V6.84668C1.61337 6.76109 0.859625 5.95468 0.859375 4.97168V2.74316C0.859511 1.7031 1.7031 0.858534 2.74316 0.858398H21.2578ZM4.28516 18.002H19.7178V6.85547H4.28516V18.002ZM2.74316 2.57031C2.6475 2.57045 2.57045 2.6475 2.57031 2.74316V4.97168C2.57057 5.06723 2.64758 5.14537 2.74316 5.14551H3.41211C3.4178 5.1454 3.42397 5.14453 3.42969 5.14453H20.5723C20.5781 5.14453 20.584 5.14539 20.5898 5.14551H21.2578C21.3535 5.14545 21.4314 5.0673 21.4316 4.97168V2.74316C21.4315 2.64743 21.3536 2.57037 21.2578 2.57031H2.74316Z" fill="black"/>
</svg>
