<svg width="24" height="24" viewBox="0 0 24 24" fill="none" xmlns="http://www.w3.org/2000/svg">
<path fill-rule="evenodd" clip-rule="evenodd" d="M18.8584 0.000976562C20.2772 0.000976562 21.4275 1.1525 21.4277 2.57129V5.14453H22.2891C22.2891 4.67233 22.6723 4.28809 23.1445 4.28809C23.6167 4.28809 24 4.67135 24 5.14355V6.85742C23.9997 7.3294 23.6166 7.71289 23.1445 7.71289C22.6725 7.71289 22.2893 7.3294 22.2891 6.85742V6.85547H21.4277V17.1445H22.2871C22.7592 17.1447 23.1426 17.5279 23.1426 18C23.1426 18.4721 22.7592 18.8553 22.2871 18.8555H21.4277V21.4287C21.4275 22.8475 20.2772 23.998 18.8584 23.998C17.4398 23.9978 16.2893 22.8473 16.2891 21.4287V18.8555H14.5703V21.4287C14.57 22.8475 13.4198 23.998 12.001 23.998C10.5825 23.9977 9.4319 22.8472 9.43164 21.4287V18.8555H7.71387V21.4287C7.7136 22.8473 6.56312 23.9978 5.14453 23.998C3.72591 23.9978 2.57546 22.8473 2.5752 21.4287V18.8555H1.71582C1.24373 18.8553 0.860352 18.4721 0.860352 18C0.860352 17.5279 1.24373 17.1447 1.71582 17.1445H2.5752V6.85547H1.71582C1.24373 6.85534 0.860352 6.47212 0.860352 6C0.860352 5.52788 1.24373 5.14466 1.71582 5.14453H2.5752V2.57129C2.57542 1.15264 3.72589 0.00120267 5.14453 0.000976562C6.56314 0.00124045 7.71364 1.15267 7.71387 2.57129V5.14453H9.43164V2.57129C9.43187 1.15272 10.5824 0.00133455 12.001 0.000976562C13.4198 0.000976562 14.5701 1.1525 14.5703 2.57129V5.14453H16.2891V2.57129C16.2893 1.15264 17.4398 0.00120267 18.8584 0.000976562ZM5.14453 1.71289C4.67029 1.71312 4.28636 2.09705 4.28613 2.57129V21.4287C4.2864 21.9029 4.67032 22.2879 5.14453 22.2881C5.61871 22.2878 6.00364 21.9029 6.00391 21.4287V2.57129C6.00368 2.09707 5.61874 1.71315 5.14453 1.71289ZM12.001 1.71289C11.5269 1.71325 11.1428 2.09713 11.1426 2.57129V21.4287C11.1428 21.9028 11.5269 22.2877 12.001 22.2881C12.4754 22.2881 12.8601 21.9031 12.8604 21.4287V2.57129C12.8601 2.09691 12.4754 1.71289 12.001 1.71289ZM18.8584 1.71289C18.3842 1.71312 18.0002 2.09705 18 2.57129V21.4287C18.0003 21.9029 18.3842 22.2879 18.8584 22.2881C19.3328 22.2881 19.7175 21.9031 19.7178 21.4287V2.57129C19.7175 2.09691 19.3328 1.71289 18.8584 1.71289ZM7.71387 17.1445H9.43164V6.85547H7.71387V17.1445ZM14.5703 17.1445H16.2891V6.85547H14.5703V17.1445Z" fill="black"/>
</svg>
