<svg width="24" height="24" viewBox="0 0 24 24" fill="none" xmlns="http://www.w3.org/2000/svg">
<path d="M23.1445 22.2881C23.6164 22.2884 23.999 22.6716 23.999 23.1436C23.9988 23.6153 23.6163 23.9987 23.1445 23.999H7.71582C7.24378 23.999 6.86062 23.6155 6.86035 23.1436C6.86035 22.6714 7.24362 22.2881 7.71582 22.2881H23.1445Z" fill="black"/>
<path fill-rule="evenodd" clip-rule="evenodd" d="M17.1445 7.71582C17.6164 7.71616 17.999 8.09929 17.999 8.57129C17.999 9.04328 17.6164 9.42642 17.1445 9.42676H16.2852V11.1865C20.6159 11.616 23.9988 15.2702 23.999 19.7139C23.999 20.1859 23.6164 20.569 23.1445 20.5693H7.71582C7.24362 20.5693 6.86035 20.1861 6.86035 19.7139C6.86056 15.2697 10.2437 11.6153 14.5752 11.1865V9.42676H13.7158C13.2436 9.42676 12.8604 9.04349 12.8604 8.57129C12.8604 8.09909 13.2436 7.71582 13.7158 7.71582H17.1445ZM15.4297 12.8555C11.9312 12.8557 9.04694 15.4749 8.62598 18.8594H22.2344C21.8135 15.4748 18.9282 12.8557 15.4297 12.8555Z" fill="black"/>
<path d="M18.2871 0.000976562C19.5481 0.00115262 20.5703 1.02509 20.5703 2.28613C20.57 4.33593 18.9082 5.99791 16.8584 5.99805H11.1016C11.4178 6.93141 11.2067 8.00416 10.4629 8.74805L8.4668 10.7432C7.66358 11.5463 6.57436 11.9979 5.43848 11.998H0.858398C0.386195 11.998 0.00292969 11.6148 0.00292969 11.1426C0.00318306 10.6706 0.386351 10.2881 0.858398 10.2881H5.43848C6.12083 10.288 6.77528 10.0167 7.25781 9.53418L9.25391 7.53809C9.62968 7.16193 9.62986 6.55187 9.25391 6.17578C8.87784 5.79989 8.26775 5.80002 7.8916 6.17578L6.60547 7.46191C6.2716 7.79559 5.73033 7.79563 5.39648 7.46191C5.06274 7.12807 5.0628 6.58681 5.39648 6.25293L6.68262 4.9668C7.39408 4.2556 8.40631 4.02987 9.30957 4.28809H16.8584C17.9638 4.28795 18.86 3.39152 18.8604 2.28613C18.8604 1.96946 18.6037 1.71307 18.2871 1.71289H7.24219C6.64027 1.71298 6.05714 1.92325 5.59473 2.30859L1.40527 5.7998C1.04266 6.10171 0.503449 6.05271 0.201172 5.69043C-0.100884 5.32771 -0.0510687 4.78858 0.311523 4.48633L4.5 0.995117C5.26973 0.353679 6.24025 0.00106597 7.24219 0.000976562H18.2871Z" fill="black"/>
</svg>
