<svg width="24" height="24" viewBox="0 0 24 24" fill="none" xmlns="http://www.w3.org/2000/svg">
<path fill-rule="evenodd" clip-rule="evenodd" d="M15.4307 12.002C16.8493 12.0022 17.9998 13.1526 18 14.5713V21.4287C17.9997 22.8473 16.8493 23.9978 15.4307 23.998H13.7158C12.2972 23.9978 11.1467 22.8473 11.1465 21.4287V14.5713C11.1467 13.1526 12.2972 12.0022 13.7158 12.002H15.4307ZM13.7158 13.7129C13.2416 13.7131 12.8576 14.0971 12.8574 14.5713V21.4287C12.8577 21.9029 13.2416 22.2879 13.7158 22.2881H15.4307C15.9049 22.2879 16.2898 21.9029 16.29 21.4287V14.5713C16.2898 14.097 15.9049 13.7131 15.4307 13.7129H13.7158Z" fill="black"/>
<path d="M19.7168 0.000976562C22.0822 0.00139092 24 1.92064 24 4.28613V12C23.9998 13.5861 23.137 14.9706 21.8594 15.71C21.4508 15.9463 20.927 15.8067 20.6904 15.3984C20.454 14.9897 20.5942 14.4669 21.0029 14.2305C21.7742 13.7842 22.2899 12.9512 22.29 12V4.28613C22.29 2.86504 21.1378 1.7133 19.7168 1.71289H4.28809C2.86674 1.71289 1.71484 2.86479 1.71484 4.28613V12C1.71511 13.4211 2.8669 14.5742 4.28809 14.5742H7.7168C8.1886 14.5746 8.57121 14.9568 8.57129 15.4287C8.57103 15.9004 8.18849 16.2838 7.7168 16.2842H4.28809C1.9225 16.2842 0.00319361 14.3655 0.00292969 12V4.28613C0.00292969 1.92038 1.92233 0.000976562 4.28809 0.000976562H19.7168Z" fill="black"/>
<path d="M14.5742 7.7168C15.799 7.71687 16.9403 8.0851 17.8906 8.7168C18.2837 8.97821 18.3911 9.50916 18.1299 9.90234C17.8684 10.2951 17.3374 10.4027 16.9443 10.1416C16.2658 9.69045 15.452 9.42683 14.5742 9.42676C13.6964 9.42681 12.8817 9.69043 12.2031 10.1416C11.8101 10.4023 11.2789 10.2951 11.0176 9.90234C10.7565 9.50929 10.8641 8.97826 11.2568 8.7168C12.2072 8.085 13.3494 7.71685 14.5742 7.7168Z" fill="black"/>
<path d="M14.5742 3.85938C16.4306 3.85944 18.1694 4.37441 19.6533 5.26855C20.0576 5.51224 20.1878 6.03701 19.9443 6.44141C19.7005 6.84548 19.1748 6.97601 18.7705 6.73242C17.5456 5.99448 16.1108 5.57038 14.5742 5.57031C13.0375 5.57036 11.6019 5.99438 10.377 6.73242C9.97264 6.97576 9.44682 6.84553 9.20312 6.44141C8.95983 6.03721 9.09031 5.51236 9.49414 5.26855C10.9781 4.37439 12.7178 3.85942 14.5742 3.85938Z" fill="black"/>
</svg>
