<svg width="24" height="24" viewBox="0 0 24 24" fill="none" xmlns="http://www.w3.org/2000/svg">
<path d="M12.1298 15.4368C12.7769 15.5025 13.2819 16.0497 13.2822 16.7141C13.2821 17.3787 12.777 17.9258 12.1298 17.9915L11.999 17.9973L11.8759 17.9924C11.2678 17.9347 10.7831 17.452 10.7216 16.845L10.7148 16.7141L10.7216 16.5823C10.7878 15.9355 11.3347 15.4299 11.999 15.4299L12.1298 15.4368Z" fill="black"/>
<path d="M11.999 6.00122C12.4709 6.00139 12.8542 6.38481 12.8544 6.85669V12.428C12.8544 12.9001 12.471 13.2833 11.999 13.2834C11.5268 13.2834 11.1435 12.9002 11.1435 12.428V6.85669C11.1438 6.38471 11.5269 6.00122 11.999 6.00122Z" fill="black"/>
<path fill-rule="evenodd" clip-rule="evenodd" d="M9.34566 1.6145C10.8108 0.150101 13.1863 0.149868 14.6513 1.6145L22.3828 9.34692C23.8478 10.812 23.8475 13.1874 22.3828 14.6526L14.6513 22.384C13.1862 23.8492 10.8108 23.8492 9.34566 22.384L1.61323 14.6526C0.148468 13.1875 0.148439 10.812 1.61323 9.34692L9.34566 1.6145ZM13.4423 2.82446C12.6451 2.02731 11.352 2.02752 10.5546 2.82446L2.82319 10.5559C2.02585 11.3532 2.02591 12.6462 2.82319 13.4436L10.5546 21.175C11.352 21.9724 12.645 21.9724 13.4423 21.175L21.1738 13.4436C21.9708 12.6462 21.971 11.3531 21.1738 10.5559L13.4423 2.82446Z" fill="black"/>
</svg>
