<svg width="24" height="24" viewBox="0 0 24 24" fill="none" xmlns="http://www.w3.org/2000/svg">
<path fill-rule="evenodd" clip-rule="evenodd" d="M12.4297 0.000976562C13.974 0.000976562 15.414 0.366244 16.4971 0.998047C17.5591 1.61761 18.4277 2.59867 18.4277 3.85742C18.4276 4.88294 17.8506 5.72347 17.0625 6.33496C18.0565 6.57066 18.9627 6.92434 19.7305 7.37598C21.1817 8.22986 22.2861 9.53361 22.2861 11.1436C22.2857 12.7532 21.1816 14.0564 19.7305 14.9102C19.106 15.2775 18.3896 15.5785 17.6094 15.8057C17.8704 15.927 18.1218 16.0555 18.3613 16.1924C20.1168 17.1956 21.4286 18.712 21.4287 20.5713C21.4287 21.2225 21.2637 21.8427 20.9717 22.4121C20.3459 23.6312 19.0024 23.998 17.9609 23.998H5.18555C4.14415 23.998 2.80065 23.6313 2.1748 22.4121C1.88253 21.8425 1.71777 21.2225 1.71777 20.5713C1.7179 18.712 3.02956 17.1956 4.78516 16.1924C5.83295 15.5937 7.09651 15.1401 8.49023 14.8672C7.07348 14.013 6.00431 12.7274 6.00391 11.1436C6.00391 9.53344 7.10812 8.22986 8.55957 7.37598C8.73429 7.27321 8.91608 7.17546 9.10449 7.08301C8.84265 6.9733 8.59395 6.85192 8.3623 6.7168C7.30054 6.0973 6.43187 5.11579 6.43164 3.85742C6.43164 2.59898 7.30058 1.61763 8.3623 0.998047C9.44527 0.366316 10.8856 0.00105871 12.4297 0.000976562ZM11.5732 16.2842C9.20932 16.2842 7.11127 16.8335 5.63379 17.6777C4.13226 18.5357 3.42884 19.5904 3.42871 20.5713C3.42871 20.9269 3.51668 21.2807 3.69629 21.6309C3.89429 22.0165 4.42296 22.2881 5.18555 22.2881H17.9609C18.7234 22.288 19.2522 22.0165 19.4502 21.6309C19.6297 21.2806 19.7178 20.9268 19.7178 20.5713C19.7176 19.5904 19.0141 18.5357 17.5127 17.6777C16.0353 16.8335 13.9372 16.2842 11.5732 16.2842ZM14.1455 7.71289C12.2591 7.71289 10.5923 8.16404 9.42676 8.84961C8.24146 9.54685 7.71484 10.3869 7.71484 11.1436C7.71526 11.9 8.24198 12.7396 9.42676 13.4365C10.5923 14.122 12.2593 14.5742 14.1455 14.5742C16.0316 14.5741 17.6979 14.122 18.8633 13.4365C20.048 12.7396 20.5758 11.9 20.5762 11.1436C20.5762 10.387 20.0482 9.54679 18.8633 8.84961C17.6979 8.16412 16.0316 7.71304 14.1455 7.71289ZM12.4297 1.71289C11.1341 1.71297 10.0028 2.02078 9.22461 2.47461C8.42566 2.94078 8.14258 3.4594 8.14258 3.85742C8.14281 4.25544 8.42569 4.7742 9.22461 5.24023C10.0028 5.69405 11.1341 6.00187 12.4297 6.00195C13.7255 6.00195 14.8575 5.69409 15.6357 5.24023C16.4346 4.7742 16.7175 4.25544 16.7178 3.85742C16.7178 3.45935 16.435 2.94083 15.6357 2.47461C14.8575 2.02063 13.7257 1.71289 12.4297 1.71289Z" fill="black"/>
</svg>
