<svg width="24" height="24" viewBox="0 0 24 24" fill="none" xmlns="http://www.w3.org/2000/svg">
<path d="M12.9443 15.4346C13.0593 15.4462 13.1677 15.4805 13.2646 15.5332L13.3281 15.5713C13.3533 15.5879 13.3776 15.6064 13.4014 15.626C13.4264 15.6467 13.4501 15.669 13.4727 15.6924L15.1758 17.3955C15.5096 17.7294 15.5096 18.2716 15.1758 18.6055C14.842 18.9386 14.3005 18.9387 13.9668 18.6055L13.7129 18.3516V18.8574C13.7132 20.7519 15.249 22.2881 17.1436 22.2881C17.6155 22.2884 17.998 22.6716 17.998 23.1436C17.9976 23.6152 17.6152 23.9977 17.1436 23.998C14.3046 23.998 12.0022 21.6963 12.002 18.8574V18.3496L11.7471 18.6055C11.4133 18.9386 10.8718 18.9388 10.5381 18.6055C10.2043 18.2717 10.2046 17.7294 10.5381 17.3955L12.2422 15.6904C12.2645 15.6674 12.2887 15.6464 12.3135 15.626C12.3303 15.6121 12.3477 15.5993 12.3652 15.5869C12.5045 15.4886 12.6741 15.4307 12.8574 15.4307L12.9443 15.4346Z" fill="black"/>
<path d="M17.1426 13.7158C19.9817 13.7158 22.2832 16.0183 22.2832 18.8574V19.3643L22.5381 19.1104C22.872 18.7765 23.4132 18.7765 23.7471 19.1104C24.0808 19.4442 24.0809 19.9855 23.7471 20.3193L22.0332 22.0342C21.6993 22.3676 21.157 22.3678 20.8232 22.0342L19.1094 20.3193C18.7756 19.9856 18.7759 19.4443 19.1094 19.1104C19.4433 18.7765 19.9845 18.7765 20.3184 19.1104L20.5732 19.3643V18.8574C20.5732 16.9627 19.0373 15.4268 17.1426 15.4268C16.6705 15.4266 16.2871 15.0434 16.2871 14.5713C16.2871 14.0992 16.6705 13.716 17.1426 13.7158Z" fill="black"/>
<path fill-rule="evenodd" clip-rule="evenodd" d="M10.2861 0.000976562C12.9673 0.00101639 15.4338 0.419805 17.2607 1.12402C18.1712 1.47503 18.9672 1.91439 19.5498 2.44531C20.1325 2.97658 20.5693 3.66765 20.5693 4.49219V11.5723C20.569 12.0442 20.1859 12.4268 19.7139 12.4268C19.242 12.4266 18.8587 12.0441 18.8584 11.5723V7.06348C18.3916 7.36592 17.8507 7.63195 17.2607 7.85938C15.4338 8.56359 12.9673 8.98141 10.2861 8.98145C7.60502 8.98145 5.13855 8.56353 3.31152 7.85938C2.72115 7.63181 2.17989 7.36516 1.71289 7.0625V10.2861L1.7168 10.3564C1.73904 10.5316 1.84921 10.7724 2.17383 11.0684C2.54536 11.4068 3.1315 11.7521 3.92676 12.0586C5.51212 12.6695 7.76059 13.0654 10.2861 13.0654C10.7582 13.0656 11.1406 13.4488 11.1406 13.9209C11.1401 14.3925 10.7578 14.7752 10.2861 14.7754C7.60499 14.7754 5.13855 14.3575 3.31152 13.6533C2.7211 13.4257 2.17999 13.1589 1.71289 12.8564V16.0811C1.71342 16.3915 2.02375 16.9538 3.22949 17.5488C4.35939 18.1064 6.00626 18.5453 7.95996 18.7441C8.42959 18.7921 8.7724 19.212 8.72461 19.6816C8.6766 20.1511 8.25658 20.4929 7.78711 20.4453C5.70286 20.2332 3.8411 19.7582 2.47266 19.083C1.18134 18.4457 0.00241107 17.456 0.00195312 16.0811V4.49219C0.00195312 3.66745 0.439509 2.97663 1.02246 2.44531C1.60517 1.91428 2.40081 1.47506 3.31152 1.12402C5.13858 0.419798 7.60487 0.000976562 10.2861 0.000976562ZM10.2861 1.71289C7.76033 1.71289 5.51215 2.10868 3.92676 2.71973C3.13123 3.02637 2.54534 3.37042 2.17383 3.70898C1.80293 4.0471 1.71289 4.31349 1.71289 4.49219C1.71322 4.67089 1.80352 4.93687 2.17383 5.27441C2.54536 5.61287 3.1315 5.95714 3.92676 6.26367C5.51213 6.87465 7.7605 7.27051 10.2861 7.27051C12.8119 7.27047 15.0602 6.87474 16.6455 6.26367C17.4408 5.95711 18.0259 5.61289 18.3975 5.27441C18.7586 4.94528 18.8535 4.68434 18.8584 4.50586V4.4834C18.8556 4.30481 18.7626 4.04187 18.3975 3.70898C18.026 3.37052 17.4407 3.02628 16.6455 2.71973C15.0602 2.10866 12.8119 1.71293 10.2861 1.71289Z" fill="black"/>
</svg>
