<svg width="24" height="24" viewBox="0 0 24 24" fill="none" xmlns="http://www.w3.org/2000/svg">
<path fill-rule="evenodd" clip-rule="evenodd" d="M11.998 0.598633C13.4266 0.598633 14.8451 0.711516 16.1738 0.931641C17.5009 1.15152 18.7255 1.47638 19.7734 1.89551C20.8147 2.31201 21.6997 2.82906 22.3359 3.44336C22.9756 4.06104 23.4004 4.81784 23.4004 5.67285V18.3281C23.4004 19.2214 22.9439 19.9864 22.3037 20.5918C21.6654 21.1953 20.7871 21.699 19.7734 22.1045C17.7409 22.9175 14.9912 23.4023 11.998 23.4023C9.00485 23.4023 6.2552 22.9175 4.22266 22.1045C3.20901 21.699 2.33068 21.1954 1.69238 20.5918C1.05225 19.9864 0.595703 19.2214 0.595703 18.3281V5.67285C0.595703 4.8179 1.0206 4.06102 1.66016 3.44336C2.29632 2.82904 3.18143 2.31202 4.22266 1.89551C5.27054 1.47636 6.4952 1.15153 7.82227 0.931641C9.15095 0.711503 10.5694 0.598646 11.998 0.598633ZM2.30664 18.3281C2.30664 18.5996 2.4403 18.9448 2.86719 19.3486C3.29613 19.7543 3.96298 20.1597 4.85742 20.5176C6.64204 21.2314 9.16675 21.6914 11.998 21.6914C14.8293 21.6914 17.354 21.2314 19.1387 20.5176C20.0331 20.1598 20.6999 19.7543 21.1289 19.3486C21.5559 18.9447 21.6895 18.5996 21.6895 18.3281V14.7627C21.1438 15.1504 20.4932 15.4895 19.7734 15.7773C17.7408 16.5902 14.9912 17.0742 11.998 17.0742C9.00487 17.0742 6.2552 16.5904 4.22266 15.7773C3.50265 15.4893 2.85244 15.1496 2.30664 14.7617V18.3281ZM2.30664 12C2.30664 12.2714 2.44031 12.6167 2.86719 13.0205C3.29612 13.4261 3.96298 13.8316 4.85742 14.1895C6.64204 14.9033 9.16675 15.3642 11.998 15.3643C14.8294 15.3643 17.354 14.9032 19.1387 14.1895C20.0331 13.8317 20.7 13.4271 21.1289 13.0215C21.556 12.6175 21.6895 12.2718 21.6895 12V8.43262C21.1471 8.81918 20.4988 9.16006 19.7734 9.4502C18.7255 9.86933 17.5009 10.1942 16.1738 10.4141C15.0112 10.6067 13.7799 10.7167 12.5332 10.7412L11.998 10.7471C10.5694 10.7471 9.15095 10.6342 7.82227 10.4141C6.4952 10.1942 5.27054 9.86934 4.22266 9.4502C3.49705 9.15994 2.84913 8.8184 2.30664 8.43164V12ZM11.998 2.30957C10.6568 2.30958 9.33191 2.41529 8.10156 2.61914C6.86971 2.82327 5.7681 3.11913 4.85742 3.4834C3.94028 3.85031 3.27143 4.26459 2.84766 4.67383C2.4276 5.07963 2.30664 5.41993 2.30664 5.67285L2.3125 5.77148C2.34139 6.01163 2.47999 6.31668 2.84766 6.67188C3.27143 7.08111 3.94028 7.4954 4.85742 7.8623C5.7681 8.22657 6.86971 8.52244 8.10156 8.72656C9.33191 8.93041 10.6568 9.03612 11.998 9.03613C13.3393 9.03613 14.6642 8.9304 15.8945 8.72656C17.1264 8.52245 18.228 8.22656 19.1387 7.8623C20.0558 7.49541 20.7246 7.0811 21.1484 6.67188C21.5686 6.26602 21.6895 5.9258 21.6895 5.67285L21.6836 5.57422C21.6547 5.33405 21.5162 5.02906 21.1484 4.67383C20.7246 4.2646 20.0558 3.85029 19.1387 3.4834C18.228 3.11914 17.1264 2.82325 15.8945 2.61914C14.6642 2.4153 13.3393 2.30957 11.998 2.30957Z" fill="black"/>
</svg>
