<svg width="24" height="24" viewBox="0 0 24 24" fill="none" xmlns="http://www.w3.org/2000/svg">
<path d="M14.999 11.1445C16.181 11.1447 17.1394 12.1032 17.1396 13.2851C17.1396 14.4672 16.1811 15.4255 14.999 15.4257H14.5703C14.0982 15.4256 13.7148 15.0424 13.7148 14.5703C13.7153 14.0986 14.0985 13.7159 14.5703 13.7158H14.999C15.2367 13.7156 15.4296 13.5228 15.4297 13.2851C15.4294 13.0476 15.2366 12.8547 14.999 12.8545H7.71289C7.2408 12.8543 6.85742 12.4711 6.85742 11.999C6.85782 11.5272 7.24104 11.1446 7.71289 11.1445H14.999Z" fill="black"/>
<path d="M12.4268 6.00094C13.6089 6.00094 14.5681 6.96047 14.5684 8.14254C14.5681 9.32463 13.6089 10.2832 12.4268 10.2832H7.71289C7.2408 10.283 6.85742 9.89982 6.85742 9.4277C6.85774 8.95585 7.241 8.57334 7.71289 8.57321H12.4268C12.6645 8.57321 12.8572 8.38023 12.8574 8.14254C12.8572 7.90487 12.6645 7.71188 12.4268 7.71188H11.999C11.5269 7.71175 11.1436 7.32853 11.1436 6.85641C11.1438 6.3845 11.5271 6.00107 11.999 6.00094H12.4268Z" fill="black"/>
<path fill-rule="evenodd" clip-rule="evenodd" d="M11.9912 0.597621C14.9645 0.570656 17.9496 1.12235 20.6816 2.37301C21.476 2.73676 22.001 3.5599 21.9951 4.43356C21.9916 4.96767 21.9951 9.30471 21.9951 11.5654C21.9951 13.9943 21.2588 16.3669 19.8838 18.3691C18.5088 20.3713 16.5588 21.91 14.292 22.7822C13.2571 23.1803 12.5039 23.3824 11.7686 23.3496C11.0493 23.3174 10.4182 23.0561 9.70605 22.7822C7.43917 21.9101 5.4893 20.3713 4.11426 18.3691C2.73925 16.3668 2.00296 13.9943 2.00293 11.5654C2.00291 9.30439 2.00747 4.9694 2.00391 4.43551C1.99808 3.5638 2.52012 2.73755 3.31641 2.37301C6.05664 1.11864 9.04043 0.624417 11.9912 0.597621ZM12.0068 2.30758C9.22961 2.3328 6.49653 2.79879 4.02832 3.92868C3.84772 4.01136 3.71261 4.22113 3.71387 4.42379C3.71749 4.96492 3.71385 9.31391 3.71387 11.5654C3.71389 13.6488 4.34497 15.6839 5.52441 17.4013C6.70386 19.1186 8.37594 20.4385 10.3203 21.1865C11.1218 21.4948 11.4638 21.6234 11.8447 21.6406C12.2097 21.6569 12.6864 21.5678 13.6777 21.1865C15.6221 20.4385 17.2942 19.1186 18.4736 17.4013C19.653 15.6839 20.2842 13.6488 20.2842 11.5654C20.2842 9.31365 20.2806 4.96296 20.2842 4.42184C20.2855 4.22126 20.1521 4.01227 19.9697 3.92868C17.4934 2.79501 14.7615 2.28261 12.0068 2.30758Z" fill="black"/>
</svg>
