<svg width="24" height="24" viewBox="0 0 24 24" fill="none" xmlns="http://www.w3.org/2000/svg">
<path fill-rule="evenodd" clip-rule="evenodd" d="M13.7129 6.00094C14.1848 6.00107 14.5681 6.3845 14.5684 6.85641V8.57321H16.2842C16.7561 8.57334 17.1393 8.95585 17.1396 9.4277V12.8564C17.1396 13.3285 16.7563 13.7117 16.2842 13.7119H14.5684V15.4277C14.5684 15.8998 14.185 16.283 13.7129 16.2832H10.2842C9.81204 16.2831 9.42969 15.8999 9.42969 15.4277V13.7119H7.71289C7.24069 13.7119 6.85742 13.3286 6.85742 12.8564V9.4277C6.85774 8.95577 7.24089 8.57321 7.71289 8.57321H9.42969V6.85641C9.42993 6.38446 9.81219 6.00102 10.2842 6.00094H13.7129ZM11.1396 9.4277C11.1396 9.89982 10.7563 10.283 10.2842 10.2832H8.56836V12.0009H10.2842C10.7561 12.0011 11.1394 12.3845 11.1396 12.8564V14.5732H12.8574V12.8564C12.8577 12.3844 13.2408 12.0009 13.7129 12.0009H15.4297V10.2832H13.7129C13.2407 10.2832 12.8574 9.8999 12.8574 9.4277V7.71188H11.1396V9.4277Z" fill="black"/>
<path fill-rule="evenodd" clip-rule="evenodd" d="M11.9902 0.597623C14.9635 0.570626 17.9486 1.12238 20.6807 2.37301C21.4751 2.73671 22 3.55983 21.9941 4.43356C21.9906 4.96767 21.9942 9.30471 21.9941 11.5654C21.9941 13.9943 21.2578 16.3668 19.8828 18.3691C18.5078 20.3713 16.5579 21.9101 14.291 22.7822C13.2561 23.1803 12.5029 23.3825 11.7676 23.3496C11.0484 23.3173 10.4173 23.0562 9.70508 22.7822C7.43823 21.9101 5.48829 20.3713 4.11328 18.3691C2.73832 16.3669 2.00198 13.9943 2.00195 11.5654C2.00193 9.30438 2.0065 4.96938 2.00293 4.43551C1.9971 3.56388 2.51926 2.7376 3.31543 2.37301C6.05564 1.11861 9.03946 0.624445 11.9902 0.597623ZM12.0059 2.30758C9.22865 2.33283 6.49553 2.79876 4.02734 3.92868C3.84685 4.01143 3.71163 4.22121 3.71289 4.42379C3.71651 4.9649 3.71287 9.3139 3.71289 11.5654C3.71292 13.6488 4.34403 15.6839 5.52344 17.4013C6.70284 19.1186 8.375 20.4385 10.3193 21.1865C11.1208 21.4948 11.4629 21.6234 11.8438 21.6406C12.2087 21.6569 12.6853 21.5679 13.6768 21.1865C15.6211 20.4385 17.2932 19.1186 18.4727 17.4013C19.6521 15.6839 20.2832 13.6488 20.2832 11.5654C20.2832 9.31366 20.2796 4.96297 20.2832 4.42184C20.2845 4.22118 20.1512 4.0122 19.9688 3.92868C17.4924 2.79504 14.7606 2.28258 12.0059 2.30758Z" fill="black"/>
</svg>
