<svg width="24" height="24" viewBox="0 0 24 24" fill="none" xmlns="http://www.w3.org/2000/svg">
<path fill-rule="evenodd" clip-rule="evenodd" d="M11.9922 0.597618C14.9654 0.570686 17.9507 1.12239 20.6826 2.37301C21.4768 2.73681 22.0019 3.55998 21.9961 4.43356C21.9925 4.96767 21.9961 9.30471 21.9961 11.5654C21.9961 13.9942 21.2597 16.3669 19.8848 18.3691C18.5098 20.3712 16.5597 21.91 14.293 22.7822C13.2582 23.1802 12.5048 23.3824 11.7695 23.3496C11.0504 23.3174 10.4191 23.0561 9.70703 22.7822C7.44019 21.9101 5.49027 20.3712 4.11523 18.3691C2.74023 16.3668 2.00393 13.9943 2.00391 11.5654C2.00389 9.30439 2.00845 4.96941 2.00488 4.43551C1.99905 3.56379 2.52109 2.73755 3.31738 2.37301C6.05756 1.11871 9.04148 0.624414 11.9922 0.597618ZM12.0078 2.30758C9.23066 2.33279 6.49746 2.79885 4.0293 3.92867C3.84869 4.01135 3.71358 4.22113 3.71484 4.42379C3.71846 4.96493 3.71483 9.31391 3.71484 11.5654C3.71487 13.6488 4.34594 15.6839 5.52539 17.4013C6.70483 19.1185 8.37696 20.4385 10.3213 21.1865C11.1226 21.4947 11.4648 21.6234 11.8457 21.6406C12.2107 21.6568 12.6876 21.5678 13.6787 21.1865C15.623 20.4385 17.2952 19.1185 18.4746 17.4013C19.654 15.684 20.2851 13.6487 20.2852 11.5654C20.2852 9.31365 20.2815 4.96296 20.2852 4.42184C20.2864 4.22133 20.1529 4.01233 19.9707 3.92867C17.4944 2.79504 14.7624 2.28264 12.0078 2.30758Z" fill="black"/>
</svg>
