<svg width="24" height="24" viewBox="0 0 24 24" fill="none" xmlns="http://www.w3.org/2000/svg">
<path d="M10.2217 0.672852C10.6921 0.637336 11.1026 0.989559 11.1387 1.45996C11.1743 1.93042 10.822 2.34178 10.3516 2.37793C8.14918 2.546 6.00477 3.02486 4.03027 3.92871C3.84961 4.01142 3.71446 4.22208 3.71582 4.4248C3.71943 4.96982 3.7158 9.31627 3.71582 11.5664C3.71598 13.6496 4.34705 15.6842 5.52637 17.4014C6.70578 19.1185 8.37801 20.4386 10.3223 21.1865C11.1235 21.4947 11.4658 21.6245 11.8467 21.6416C12.2116 21.6578 12.6886 21.5678 13.6797 21.1865C15.624 20.4385 17.2962 19.1186 18.4756 17.4014C19.1208 16.4618 19.6027 15.4273 19.9062 14.3418C20.0334 13.887 20.5052 13.6209 20.96 13.748C21.4142 13.8755 21.6798 14.3473 21.5527 14.8018C21.1989 16.0672 20.638 17.2737 19.8857 18.3691C18.5108 20.3712 16.5607 21.9101 14.2939 22.7822C13.2592 23.1803 12.5058 23.3824 11.7705 23.3496C11.0514 23.3174 10.42 23.0561 9.70801 22.7822C7.44133 21.9102 5.49122 20.3711 4.11621 18.3691C2.74143 16.3671 2.00504 13.995 2.00488 11.5664C2.00486 9.30606 2.00942 4.97116 2.00586 4.43555C2.00013 3.56393 2.52215 2.73853 3.31836 2.37402C5.5114 1.3701 7.86034 0.853049 10.2217 0.672852Z" fill="black"/>
<path d="M19.1104 3.68164C19.4443 3.34781 19.9855 3.34777 20.3193 3.68164C20.653 4.01553 20.6531 4.55679 20.3193 4.89062L19.209 6L20.3193 7.11035C20.653 7.44427 20.6531 7.98552 20.3193 8.31934C19.9855 8.65278 19.4441 8.65285 19.1104 8.31934L18 7.20898L16.8906 8.31934C16.5568 8.65273 16.0154 8.6529 15.6816 8.31934C15.3479 7.98558 15.3482 7.44428 15.6816 7.11035L16.791 6L15.6816 4.89062C15.3479 4.55685 15.3481 4.01557 15.6816 3.68164C16.0155 3.34774 16.5567 3.34774 16.8906 3.68164L18 4.79102L19.1104 3.68164Z" fill="black"/>
<path fill-rule="evenodd" clip-rule="evenodd" d="M18 0.000976562C21.3124 0.000976562 23.9979 2.6876 23.998 6C23.9978 9.3123 21.3124 11.998 18 11.998C14.6879 11.9978 12.0022 9.31213 12.002 6C12.0021 2.68778 14.6878 0.00125923 18 0.000976562ZM18 1.71289C15.6322 1.71317 13.713 3.63218 13.7129 6C13.7132 8.36772 15.6323 10.2878 18 10.2881C20.368 10.2881 22.2878 8.36789 22.2881 6C22.2879 3.63201 20.368 1.71289 18 1.71289Z" fill="black"/>
</svg>
