<svg width="24" height="24" viewBox="0 0 24 24" fill="none" xmlns="http://www.w3.org/2000/svg">
<path d="M14.8232 7.10934C15.1571 6.77588 15.6984 6.77579 16.0322 7.10934C16.3659 7.44313 16.3657 7.98444 16.0322 8.31832L13.208 11.1425L16.0322 13.9668C16.3658 14.3006 16.3658 14.8419 16.0322 15.1757C15.6984 15.5096 15.1572 15.5094 14.8232 15.1757L11.999 12.3515L9.1748 15.1757C8.84094 15.5095 8.29968 15.5095 7.96582 15.1757C7.63219 14.8419 7.63214 14.3006 7.96582 13.9668L10.79 11.1425L7.96582 8.31832C7.63215 7.98441 7.632 7.44316 7.96582 7.10934C8.29966 6.77574 8.84096 6.77574 9.1748 7.10934L11.999 9.93356L14.8232 7.10934Z" fill="black"/>
<path fill-rule="evenodd" clip-rule="evenodd" d="M11.9912 0.597621C14.9645 0.570656 17.9496 1.12235 20.6816 2.37301C21.476 2.73676 22.001 3.5599 21.9951 4.43356C21.9916 4.96767 21.9951 9.30471 21.9951 11.5654C21.9951 13.9943 21.2588 16.3669 19.8838 18.3691C18.5088 20.3713 16.5588 21.91 14.292 22.7822C13.2571 23.1803 12.5039 23.3824 11.7686 23.3496C11.0493 23.3174 10.4182 23.0561 9.70605 22.7822C7.43917 21.9101 5.4893 20.3713 4.11426 18.3691C2.73925 16.3668 2.00296 13.9943 2.00293 11.5654C2.00291 9.30439 2.00747 4.9694 2.00391 4.43551C1.99808 3.5638 2.52012 2.73755 3.31641 2.37301C6.05664 1.11864 9.04043 0.624417 11.9912 0.597621ZM12.0068 2.30758C9.22961 2.3328 6.49653 2.79879 4.02832 3.92868C3.84772 4.01136 3.71261 4.22113 3.71387 4.42379C3.71749 4.96492 3.71385 9.31391 3.71387 11.5654C3.71389 13.6488 4.34497 15.6839 5.52441 17.4013C6.70386 19.1186 8.37594 20.4385 10.3203 21.1865C11.1218 21.4948 11.4638 21.6234 11.8447 21.6406C12.2097 21.6569 12.6864 21.5678 13.6777 21.1865C15.6221 20.4385 17.2942 19.1186 18.4736 17.4013C19.653 15.6839 20.2842 13.6488 20.2842 11.5654C20.2842 9.31365 20.2806 4.96296 20.2842 4.42184C20.2855 4.22126 20.1521 4.01227 19.9697 3.92868C17.4934 2.79501 14.7615 2.28261 12.0068 2.30758Z" fill="black"/>
</svg>
