<svg width="24" height="24" viewBox="0 0 24 24" fill="none" xmlns="http://www.w3.org/2000/svg">
<path fill-rule="evenodd" clip-rule="evenodd" d="M6.45967 2.00879C6.65549 2.02816 6.83981 2.11453 6.98018 2.25488C7.84823 3.123 9.95243 5.87768 11.8288 8.3916C13.7462 10.9605 15.4569 13.321 15.6345 13.5547C15.8223 13.8017 16.1347 13.9555 16.445 13.9561C16.557 13.9557 16.7353 13.8854 17.0935 13.4814C17.1743 13.3902 17.2554 13.2928 17.3435 13.1865C17.4286 13.0838 17.5228 12.9688 17.6179 12.8594C17.8019 12.6474 18.0403 12.3934 18.3278 12.2041L18.3425 12.1953C18.812 11.9003 19.3934 11.841 19.9235 11.9189C20.4696 11.9993 21.0415 12.2332 21.5583 12.625C22.6148 13.4262 23.403 14.8508 23.403 16.9219V19.7344C23.403 20.9724 22.3793 21.9959 21.1413 21.9961H14.1101C12.872 21.996 11.8493 20.9725 11.8493 19.7344V19.0312C11.8493 17.5798 11.2721 16.1875 10.2458 15.1611C9.25542 14.1708 7.92425 13.6004 6.52803 13.5615C6.52479 14.485 6.52803 19.0142 6.52803 19.7344C6.52803 20.9724 5.50433 21.9959 4.26631 21.9961C3.02822 21.996 2.00557 20.9725 2.00557 19.7344V11.5527C0.593449 9.91006 0.208746 7.55352 1.0544 5.54199C1.94696 3.41949 4.07217 2.00589 6.37471 2.00391L6.45967 2.00879ZM6.02217 3.73242C4.54491 3.8673 3.21045 4.82589 2.63057 6.20508C2.0047 7.69382 2.34254 9.46915 3.47139 10.624C3.62743 10.7837 3.71548 10.9984 3.71553 11.2217V19.7344C3.71553 20.0281 3.97262 20.2851 4.26631 20.2852C4.55993 20.285 4.81807 20.028 4.81807 19.7344C4.81807 18.9772 4.81313 13.7779 4.81807 13.3955L4.82784 13.2402C4.91693 12.4753 5.58224 11.8589 6.36495 11.8486L6.37569 11.8477C8.28065 11.8477 10.1078 12.6052 11.4548 13.9521C12.8018 15.2992 13.5593 17.1262 13.5593 19.0312V19.7344C13.5593 20.0281 13.8164 20.2851 14.1101 20.2852H21.1413C21.4349 20.285 21.6931 20.028 21.6931 19.7344V16.9219C21.6931 15.309 21.0974 14.4224 20.5251 13.9883C20.2278 13.7628 19.9236 13.648 19.6745 13.6113C19.422 13.5742 19.2883 13.6235 19.2565 13.6406C19.1751 13.6969 19.0662 13.8005 18.9099 13.9805C18.8311 14.0712 18.7515 14.1679 18.6608 14.2773C18.5731 14.3833 18.4755 14.5004 18.3737 14.6152C18.0017 15.035 17.3733 15.6676 16.445 15.668H16.4431C15.599 15.6668 14.7839 15.2609 14.2732 14.5889C14.1004 14.3615 12.3349 11.9291 10.4577 9.41406C8.7231 7.09007 6.913 4.72463 6.02217 3.73242Z" fill="black"/>
</svg>
