<svg width="25" height="24" viewBox="0 0 25 24" fill="none" xmlns="http://www.w3.org/2000/svg">
<path fill-rule="evenodd" clip-rule="evenodd" d="M10.1562 5.52225C10.4082 5.36707 10.7236 5.35281 10.9883 5.48514C11.2212 5.60187 12.8922 6.58229 14.8291 7.72342C15.7371 8.25836 16.7172 8.83622 17.6602 9.39335C19.8963 10.7145 21.9235 11.9153 22.3096 12.1424C23.3498 12.7543 24.0492 13.8547 24.1846 15.0457C24.2007 15.1112 24.2109 15.1794 24.2109 15.2498C24.2109 15.2777 24.2087 15.3056 24.2061 15.3328C24.2076 15.377 24.2109 15.4212 24.2109 15.4656C24.2109 16.5106 24.2109 15.9329 24.2109 16.7498C24.2109 18.0388 23.1445 19.105 21.8555 19.1053H2.35547C1.06627 19.1053 0 18.039 0 16.7498V7.45878C0.000169688 6.25682 0.921193 5.5615 1.79883 5.4451C2.67995 5.32866 3.75091 5.76641 4.04395 6.94315C4.39116 8.33854 5.77671 9.29251 7.2041 9.11893C8.63129 8.94487 9.74763 7.68659 9.75 6.24881C9.75056 5.95294 9.9045 5.67769 10.1562 5.52225ZM1.71094 16.7498C1.71094 17.0946 2.01067 17.3943 2.35547 17.3943H21.8555C22.2001 17.394 22.5 17.0944 22.5 16.7498C22.5 16.2283 22.5 16.2756 22.5 16.1053H1.71094V16.7498ZM2.02344 7.14042C1.91704 7.15453 1.83366 7.20017 1.78516 7.24881C1.74729 7.28701 1.71101 7.34464 1.71094 7.45878V14.3943H22.2051C22.0212 14.0764 21.7596 13.8031 21.4434 13.617C21.09 13.4092 19.3603 12.3849 17.3604 11.2029L16.46 12.1043C16.1261 12.4379 15.5848 12.4379 15.251 12.1043C14.9171 11.7704 14.9172 11.2292 15.251 10.8953L15.8398 10.3055C15.4 10.0457 14.9606 9.78525 14.5312 9.53202L13.46 10.6043C13.1261 10.938 12.5849 10.9379 12.251 10.6043C11.9171 10.2704 11.9172 9.72921 12.251 9.3953L13.0088 8.63651C12.4029 8.28047 11.8551 7.95878 11.4053 7.69608C11.3519 7.6649 11.2995 7.63471 11.249 7.60526C10.7171 9.28971 9.23049 10.5944 7.41113 10.8162C5.12648 11.0944 2.94051 9.58966 2.38477 7.35624C2.35711 7.24526 2.3095 7.20365 2.27051 7.18045C2.21773 7.14919 2.13002 7.12643 2.02344 7.14042Z" fill="black"/>
</svg>
