<svg width="24" height="24" viewBox="0 0 24 24" fill="none" xmlns="http://www.w3.org/2000/svg">
<path fill-rule="evenodd" clip-rule="evenodd" d="M9.42773 10.2881C9.89994 10.2881 10.2832 10.6714 10.2832 11.1436C10.2832 11.5798 10.2832 14.6467 9.73242 17.6211C9.45838 19.1006 9.03523 20.6311 8.3623 21.8125C7.68994 22.9925 6.65703 23.9988 5.14258 23.999C3.62789 23.999 2.59428 22.9927 1.92188 21.8125C1.24893 20.6311 0.825802 19.1006 0.551758 17.6211C0.000947118 14.6467 0.000976464 11.5798 0.000976563 11.1436C0.000976563 10.6714 0.384298 10.2882 0.856445 10.2881H9.42773ZM1.72266 11.999C1.75122 13.1605 1.85431 15.2678 2.23242 17.3096C2.49408 18.7223 2.87507 20.0315 3.40723 20.9658C3.94008 21.9011 4.51486 22.288 5.14258 22.2881C5.77016 22.2879 6.3442 21.9009 6.87695 20.9658C7.40912 20.0315 7.79009 18.7223 8.05176 17.3096C8.42987 15.2678 8.53296 13.1605 8.56152 11.999H1.72266Z" fill="black"/>
<path fill-rule="evenodd" clip-rule="evenodd" d="M18.8574 10.2881C20.3718 10.2885 21.4049 11.2945 22.0771 12.4746C22.75 13.656 23.1733 15.1866 23.4473 16.666C23.9982 19.6413 23.998 22.7091 23.998 23.1436C23.9978 23.6154 23.6144 23.9988 23.1426 23.999H14.5713C14.0992 23.999 13.7161 23.6155 13.7158 23.1436C13.7158 22.7091 13.7157 19.6414 14.2666 16.666C14.5406 15.1864 14.9638 13.6561 15.6367 12.4746C16.3091 11.2943 17.3425 10.2881 18.8574 10.2881ZM18.8574 11.999C18.2296 11.999 17.655 12.3857 17.1221 13.3213C16.5899 14.2557 16.2089 15.5647 15.9473 16.9775C15.5692 19.0195 15.466 21.1268 15.4375 22.2881H22.2764C22.2478 21.1268 22.1447 19.0194 21.7666 16.9775C21.505 15.5649 21.1239 14.2556 20.5918 13.3213C20.0591 12.3861 19.4849 11.9994 18.8574 11.999Z" fill="black"/>
<path fill-rule="evenodd" clip-rule="evenodd" d="M5.14258 0.000976562C7.50821 0.00111803 9.42578 1.92047 9.42578 4.28613C9.42544 6.65151 7.508 8.56919 5.14258 8.56934C2.77704 8.56934 0.858738 6.6516 0.858398 4.28613C0.858398 1.92038 2.77683 0.000976562 5.14258 0.000976562ZM5.14258 1.71289C3.72123 1.71289 2.56934 2.86479 2.56934 4.28613C2.56968 5.70719 3.72144 6.85938 5.14258 6.85938C6.56359 6.85923 7.71548 5.7071 7.71582 4.28613C7.71582 2.86487 6.5638 1.71303 5.14258 1.71289Z" fill="black"/>
<path fill-rule="evenodd" clip-rule="evenodd" d="M18.8564 0.000976562C21.2222 0.00105158 23.1396 1.92044 23.1396 4.28613C23.1393 6.65154 21.222 8.56926 18.8564 8.56934C16.491 8.5692 14.5726 6.65152 14.5723 4.28613C14.5723 1.92046 16.4908 0.00110853 18.8564 0.000976562ZM18.8564 1.71289C17.4352 1.71302 16.2832 2.86487 16.2832 4.28613C16.2835 5.70711 17.4354 6.85924 18.8564 6.85938C20.2776 6.8593 21.4293 5.70715 21.4297 4.28613C21.4297 2.86483 20.2778 1.71297 18.8564 1.71289Z" fill="black"/>
</svg>
