<svg width="24" height="24" viewBox="0 0 24 24" fill="none" xmlns="http://www.w3.org/2000/svg">
<path fill-rule="evenodd" clip-rule="evenodd" d="M5.14422 0.858398C7.03654 0.858398 8.5709 2.39383 8.57098 4.28613C8.57085 5.22434 8.19279 6.0736 7.58172 6.69238C8.7757 7.42978 9.61643 8.69577 9.76531 10.1836L10.2809 15.3438C10.3048 15.5839 10.2261 15.824 10.0641 16.0029C9.90214 16.1817 9.67159 16.2841 9.43035 16.2842H8.47039L7.70672 22.3916C7.65324 22.8193 7.29007 23.1404 6.85906 23.1406H3.43035C2.99923 23.1405 2.6352 22.8194 2.58172 22.3916L1.81805 16.2842H0.859063C0.617818 16.2842 0.387329 16.1816 0.225273 16.0029C0.0632855 15.8239 -0.0154159 15.584 0.00847659 15.3438L0.524102 10.1836C0.672925 8.69628 1.51225 7.42989 2.70574 6.69238C2.09504 6.07366 1.71759 5.22399 1.71746 4.28613C1.71754 2.39394 3.25204 0.858565 5.14422 0.858398ZM3.54168 16.2842L4.18426 21.4307H6.10418L6.74773 16.2842H3.54168ZM5.1452 7.71289C3.63809 7.71289 2.37621 8.85487 2.22625 10.3545L1.8034 14.5742H2.54168C2.55541 14.5737 2.56907 14.5741 2.5827 14.5742H7.70672C7.72034 14.5741 7.734 14.5737 7.74773 14.5742H8.48602L8.06414 10.3545C7.9142 8.85511 6.65197 7.71326 5.1452 7.71289ZM5.14422 2.57031C4.19645 2.57048 3.42847 3.33834 3.4284 4.28613C3.42866 5.22953 4.18972 5.99496 5.13152 6.00195H5.15691C6.09895 5.99522 6.86075 5.22969 6.86102 4.28613C6.86094 3.33824 6.09213 2.57031 5.14422 2.57031Z" fill="black"/>
<path fill-rule="evenodd" clip-rule="evenodd" d="M18.0016 0.858398C19.8939 0.858439 21.4283 2.39386 21.4284 4.28613C21.4283 5.25011 21.0293 6.12055 20.3884 6.74316C21.0994 7.23105 21.6604 7.9337 21.9675 8.77539L22.0749 9.11328L22.0807 9.13672L23.9753 16.9414C24.0369 17.1961 23.9791 17.4659 23.8171 17.6719C23.6551 17.8777 23.4071 17.9978 23.1452 17.998H20.9313L20.568 22.3574C20.5307 22.7999 20.1606 23.1403 19.7165 23.1406H16.2878C15.8434 23.1406 15.4726 22.8001 15.4352 22.3574L15.0729 17.998H12.8591C12.5971 17.998 12.3493 17.8776 12.1872 17.6719C12.0252 17.4658 11.9663 17.1961 12.028 16.9414L13.9235 9.13672L13.9294 9.11328C14.1998 8.12175 14.8117 7.29597 15.6159 6.74414C14.9743 6.12146 14.575 5.25063 14.5749 4.28613C14.575 2.39388 16.1094 0.858474 18.0016 0.858398ZM18.0016 7.71289C16.8691 7.71302 15.8768 8.47085 15.5788 9.56348L13.947 16.2881H15.8591C16.3036 16.2882 16.6737 16.6292 16.7106 17.0723L17.0739 21.4307H18.9294L19.2927 17.0723L19.3034 16.9902C19.3762 16.5877 19.7283 16.2881 20.1452 16.2881H22.0573L20.4206 9.54785C20.1175 8.46353 19.1288 7.71303 18.0016 7.71289ZM18.0016 2.57031C17.0538 2.57039 16.2859 3.33829 16.2858 4.28613C16.2861 5.23026 17.0481 5.99614 17.9909 6.00195H18.0114C18.9547 5.99665 19.7182 5.23058 19.7184 4.28613C19.7184 3.33826 18.9495 2.57035 18.0016 2.57031Z" fill="black"/>
</svg>
