<svg width="24" height="24" viewBox="0 0 24 24" fill="none" xmlns="http://www.w3.org/2000/svg">
<path fill-rule="evenodd" clip-rule="evenodd" d="M11.3658 1.77417C13.7294 -0.589416 17.5618 -0.589458 19.9254 1.77417C22.2884 4.13783 22.2888 7.97027 19.9254 10.3337C18.7248 11.5342 17.1438 12.1232 15.5718 12.1042L8.35993 17.5857C7.44417 18.2816 6.1961 18.2743 5.29255 17.614L4.72029 18.1873C3.78237 19.1254 3.78239 20.6463 4.72029 21.5847C5.65861 22.523 7.1804 22.523 8.11872 21.5847L11.7349 17.9675C13.2147 16.4879 15.6144 16.4882 17.0943 17.9675C18.5743 19.4474 18.5743 21.847 17.0943 23.3269L16.6978 23.7234C16.3639 24.0572 15.8227 24.0572 15.4888 23.7234C15.1553 23.3895 15.1551 22.8482 15.4888 22.5144L15.8853 22.1179C16.6974 21.3059 16.6973 19.9896 15.8853 19.1775C15.0732 18.3656 13.7569 18.3655 12.9449 19.1775L9.32771 22.7937C7.7718 24.3495 5.27908 24.3987 3.66462 22.9402L3.5113 22.7937C1.90558 21.1875 1.90524 18.5833 3.5113 16.9773L4.08259 16.405C3.42108 15.5013 3.41372 14.2519 4.10993 13.3357L9.59333 6.1189C9.57661 4.54964 10.1673 2.97268 11.3658 1.77417ZM5.47126 14.3699C5.21128 14.712 5.2437 15.194 5.54743 15.4978L5.84333 15.7937C5.85405 15.8034 5.86523 15.8127 5.87556 15.823C5.88416 15.8316 5.89181 15.8415 5.89997 15.8503L6.19783 16.1482C6.50174 16.4521 6.98372 16.4843 7.32576 16.2244L13.9996 11.1511L10.5435 7.69507L5.47126 14.3699ZM18.7164 2.98316C17.0206 1.28734 14.2706 1.28736 12.5748 2.98316C11.7317 3.82624 11.3089 4.92857 11.3043 6.03491L15.6636 10.3943C16.6945 10.39 17.7222 10.0231 18.5396 9.29077L18.7164 9.12378C20.4115 7.42806 20.4115 4.67886 18.7164 2.98316Z" fill="black"/>
</svg>
