<svg width="24" height="24" viewBox="0 0 24 24" fill="none" xmlns="http://www.w3.org/2000/svg">
<g clip-path="url(#clip0_7418_3869)">
<path d="M18.8574 10.2881C19.3295 10.2882 19.7129 10.6714 19.7129 11.1436V12.8574C19.7126 13.3293 19.3294 13.7128 18.8574 13.7129C18.3854 13.7129 18.0022 13.3294 18.002 12.8574V11.1436C18.002 10.6714 18.3852 10.2881 18.8574 10.2881Z" fill="black"/>
<path fill-rule="evenodd" clip-rule="evenodd" d="M20.5762 0.858398C21.9925 0.858683 23.1416 2.00839 23.1416 3.4248V20.5762C23.1413 21.9924 21.9924 23.1413 20.5762 23.1416H3.4248C2.00836 23.1416 0.858662 21.9926 0.858398 20.5762V3.4248C0.85842 2.00821 2.00821 0.858398 3.4248 0.858398H20.5762ZM3.4248 2.57031C2.95261 2.57031 2.56936 2.95262 2.56934 3.4248V20.5762C2.5696 21.0482 2.95277 21.4316 3.4248 21.4316H11.2949C11.2 21.1637 11.1456 20.8766 11.1455 20.5762V3.4248C11.1455 3.12501 11.1994 2.83777 11.2939 2.57031H3.4248ZM13.71 2.57031C13.238 2.57056 12.8555 2.95278 12.8555 3.4248V20.5762C12.8557 21.048 13.2381 21.4314 13.71 21.4316H20.5762C21.048 21.4314 21.4304 21.048 21.4307 20.5762V3.4248C21.4306 2.95279 21.0481 2.5706 20.5762 2.57031H13.71Z" fill="black"/>
</g>
<defs>
<clipPath id="clip0_7418_3869">
<rect width="24" height="24" fill="white"/>
</clipPath>
</defs>
</svg>
