<svg width="24" height="24" viewBox="0 0 24 24" fill="none" xmlns="http://www.w3.org/2000/svg">
<path d="M9.43066 5.14453C9.90264 5.1448 10.2861 5.52796 10.2861 6V9.42871C10.2861 9.90069 9.9026 10.2829 9.43066 10.2832C8.95851 10.2832 8.57527 9.90085 8.5752 9.42871V6C8.5752 5.5278 8.95846 5.14453 9.43066 5.14453Z" fill="black"/>
<path d="M14.5732 5.14453C15.0453 5.14466 15.4287 5.52788 15.4287 6V9.42871C15.4286 9.90077 15.0453 10.2831 14.5732 10.2832C14.1011 10.2832 13.7178 9.90085 13.7178 9.42871V6C13.7178 5.5278 14.101 5.14453 14.5732 5.14453Z" fill="black"/>
<path fill-rule="evenodd" clip-rule="evenodd" d="M15.5527 0.858398C19.2709 0.85853 22.2852 3.87457 22.2852 7.59277V8.72168C23.2833 9.0743 23.9998 10.0238 24 11.1426V16.7754C24 18.7472 22.4949 20.3667 20.5713 20.5508V22.2861C20.571 22.7581 20.1879 23.1416 19.7158 23.1416C19.2439 23.1415 18.8606 22.758 18.8604 22.2861V20.5693H5.14258V22.2861C5.14231 22.7581 4.75915 23.1416 4.28711 23.1416C3.81518 23.1415 3.4319 22.758 3.43164 22.2861V20.5508C1.50813 20.3666 0.00292969 18.7471 0.00292969 16.7754V11.1426C0.00310801 10.024 0.719726 9.07439 1.71777 8.72168V7.59277C1.71777 3.87449 4.73289 0.858398 8.45117 0.858398H15.5527ZM21.4307 10.2842C20.9563 10.2843 20.5715 10.6682 20.5713 11.1426V12C20.5713 13.8921 19.0375 15.4263 17.1455 15.4268H6.85938C4.96701 15.4268 3.43262 13.8924 3.43262 12V11.1426C3.43239 10.6684 3.04745 10.2844 2.57324 10.2842C2.099 10.2844 1.71507 10.6683 1.71484 11.1426V16.7754C1.71484 17.9261 2.64715 18.8592 3.79785 18.8594H20.2061C21.3567 18.8591 22.29 17.9261 22.29 16.7754V11.1426C22.2898 10.6684 21.9049 10.2844 21.4307 10.2842ZM8.45117 2.57031C5.67729 2.57031 3.42871 4.8189 3.42871 7.59277V8.72168C4.42637 9.07454 5.1424 10.0242 5.14258 11.1426V12C5.14258 12.948 5.91142 13.7168 6.85938 13.7168H17.1455C18.093 13.7163 18.8613 12.9477 18.8613 12V11.1426C18.8615 10.0239 19.5771 9.07433 20.5752 8.72168V7.59277C20.5752 4.81898 18.3265 2.57044 15.5527 2.57031H8.45117Z" fill="black"/>
</svg>
