<svg width="24" height="24" viewBox="0 0 24 24" fill="none" xmlns="http://www.w3.org/2000/svg">
<path fill-rule="evenodd" clip-rule="evenodd" d="M16.9424 13.7158C17.9156 13.7158 18.805 14.2663 19.2402 15.1367L21.8115 20.2793C22.6657 21.9876 21.4236 23.998 19.5137 23.998H4.49023C2.58027 23.998 1.33822 21.9876 2.19238 20.2793L3.08203 18.499C3.09153 18.4785 3.10126 18.4581 3.1123 18.4385L4.76367 15.1367C5.19889 14.2663 6.08835 13.7158 7.06152 13.7158H16.9424ZM3.72168 21.0439C3.43601 21.6153 3.85146 22.2881 4.49023 22.2881H7.0791L7.85254 19.7129H4.3877L3.72168 21.0439ZM8.86523 22.2881H15.1387L14.3652 19.7129H9.6377L8.86523 22.2881ZM16.9238 22.2881H19.5137C20.1524 22.2881 20.5679 21.6153 20.2822 21.0439L19.6162 19.7129H16.1514L16.9238 22.2881ZM7.06152 15.4268C6.73605 15.4268 6.43853 15.6103 6.29297 15.9014L5.24316 18.002H8.36523L9.13867 15.4268H7.06152ZM10.1514 18.002H13.8525L13.0791 15.4268H10.9238L10.1514 18.002ZM15.6377 18.002H18.7607L17.7109 15.9014C17.5654 15.6103 17.2679 15.4268 16.9424 15.4268H14.8652L15.6377 18.002Z" fill="black"/>
<path d="M3.42969 10.2881C3.90167 10.2884 4.28516 10.6715 4.28516 11.1436C4.28489 11.6154 3.9015 11.9988 3.42969 11.999H1.71582C1.24378 11.999 0.859639 11.6155 0.859375 11.1436C0.859375 10.6714 1.24362 10.2881 1.71582 10.2881H3.42969Z" fill="black"/>
<path d="M22.2861 10.2881C22.7583 10.2881 23.1416 10.6714 23.1416 11.1436C23.1413 11.6155 22.7582 11.999 22.2861 11.999H20.5723C20.1003 11.9989 19.7171 11.6155 19.7168 11.1436C19.7168 10.6714 20.1002 10.2882 20.5723 10.2881H22.2861Z" fill="black"/>
<path d="M12.001 5.14453C15.3133 5.14466 17.9989 7.83027 17.999 11.1426C17.999 11.6146 17.6164 11.9977 17.1445 11.998C16.6723 11.998 16.2891 11.6148 16.2891 11.1426C16.2889 8.77468 14.3689 6.8556 12.001 6.85547C9.63309 6.85562 7.71402 8.77469 7.71387 11.1426C7.71387 11.6147 7.33049 11.9979 6.8584 11.998C6.38619 11.998 6.00293 11.6148 6.00293 11.1426C6.00308 7.83028 8.68868 5.14468 12.001 5.14453Z" fill="black"/>
<path d="M4.12402 3.26562C4.45792 2.93173 4.99911 2.93173 5.33301 3.26562L6.54492 4.47754C6.8787 4.81145 6.87878 5.35267 6.54492 5.68652C6.21103 6.02001 5.66972 6.02018 5.33594 5.68652L4.12402 4.47461C3.79025 4.14083 3.79049 3.59955 4.12402 3.26562Z" fill="black"/>
<path d="M18.6689 3.26562C19.0028 2.93177 19.544 2.93185 19.8779 3.26562C20.2115 3.59955 20.2117 4.14083 19.8779 4.47461L18.666 5.68652C18.3322 6.02018 17.7909 6.02001 17.457 5.68652C17.1233 5.35266 17.1233 4.8114 17.457 4.47754L18.6689 3.26562Z" fill="black"/>
<path d="M12.001 0.000976562C12.4732 0.000976562 12.8564 0.385218 12.8564 0.857422V2.57129C12.8562 3.04327 12.473 3.42676 12.001 3.42676C11.529 3.42663 11.1458 3.04319 11.1455 2.57129V0.857422C11.1455 0.3853 11.5289 0.00110857 12.001 0.000976562Z" fill="black"/>
</svg>
