<svg width="24" height="24" viewBox="0 0 24 24" fill="none" xmlns="http://www.w3.org/2000/svg">
<path d="M4.75586 13.3633C5.1764 13.149 5.69171 13.3159 5.90625 13.7363C6.12062 14.1568 5.95341 14.672 5.5332 14.8867C3.92931 15.7051 3.25684 16.6681 3.25684 17.4844C3.257 18.3117 3.94953 19.2908 5.5957 20.1143C7.19121 20.9122 9.45572 21.4306 12.0029 21.4307C14.5503 21.4306 16.8142 20.9127 18.4092 20.1152C20.0549 19.2923 20.7478 18.3137 20.748 17.4863C20.748 16.6711 20.0746 15.7071 18.4717 14.8887C18.0512 14.674 17.8841 14.1588 18.0986 13.7383C18.3134 13.3178 18.8285 13.1506 19.249 13.3652C21.0377 14.2784 22.458 15.6868 22.458 17.4863C22.4578 19.31 21.0018 20.7305 19.1738 21.6445C17.2947 22.5841 14.7581 23.1406 12.0029 23.1406C9.24768 23.1406 6.71061 22.5835 4.83105 21.6436C3.00283 20.7291 1.54606 19.3081 1.5459 17.4844C1.5459 15.6839 2.96593 14.2766 4.75586 13.3633Z" fill="black"/>
<path fill-rule="evenodd" clip-rule="evenodd" d="M11.0186 8.72559C11.7401 8.57996 12.4858 8.59698 13.2002 8.77441C14.9949 9.22056 16.3804 10.6618 16.8223 12.4033C17.0322 13.2313 16.9717 14.1216 16.9717 14.7412C16.9714 15.5767 16.2662 16.2819 15.4307 16.2822H14.9141V18.8555C14.9138 19.691 14.2086 20.3962 13.373 20.3965H10.6309C9.79509 20.3965 9.09012 19.6912 9.08984 18.8555V16.2822H8.57324C7.73759 16.2821 7.03348 15.5768 7.0332 14.7412C7.03319 14.109 6.97886 13.2268 7.20215 12.3926C7.68021 10.6073 9.12798 9.14604 11.002 8.72949L11.0186 8.72559ZM12.7881 10.4336C12.321 10.3176 11.8332 10.3068 11.3613 10.4014C10.1394 10.6777 9.17221 11.6447 8.85352 12.835C8.7161 13.3485 8.73923 13.8693 8.74316 14.5723H9.94531C10.417 14.5727 10.7996 14.955 10.7998 15.4268C10.7998 15.6366 10.7998 17.9708 10.7998 18.6865H13.2041V15.4268C13.2043 14.9547 13.5875 14.5723 14.0596 14.5723H15.2627C15.2675 13.8635 15.2952 13.3416 15.1641 12.8242C14.8715 11.6709 13.9487 10.7223 12.7881 10.4336Z" fill="black"/>
<path d="M4.55176 2.46875C4.89243 2.14192 5.4338 2.15354 5.76074 2.49414C6.08756 2.83481 6.07692 3.37618 5.73633 3.70312C5.59702 3.83684 5.48697 3.99796 5.41406 4.17676C5.34115 4.35563 5.30637 4.54815 5.3125 4.74121C5.31278 4.75021 5.31348 4.75955 5.31348 4.76855C5.3136 4.97627 5.42626 5.164 5.80664 5.63086C6.10871 6.0016 6.67178 6.64677 6.68262 7.54785H6.68457C6.69781 7.97994 6.62028 8.41026 6.45703 8.81055C6.29378 9.21083 6.04797 9.57248 5.73633 9.87207C5.39591 10.1992 4.85455 10.188 4.52734 9.84766C4.20037 9.50723 4.21144 8.96583 4.55176 8.63867C4.69074 8.50494 4.80015 8.34361 4.87305 8.16504C4.94599 7.98618 4.98049 7.79365 4.97461 7.60059C4.97434 7.59188 4.97461 7.58293 4.97461 7.57422C4.97461 7.36634 4.86214 7.17818 4.48145 6.71094C4.17931 6.34011 3.61509 5.69533 3.60449 4.79395L3.60352 4.79492C3.58984 4.36253 3.66679 3.93186 3.83008 3.53125C3.99342 3.13053 4.23957 2.76842 4.55176 2.46875Z" fill="black"/>
<path d="M19.6357 2.46875C19.9764 2.14204 20.5178 2.15358 20.8447 2.49414C21.1714 2.83477 21.1607 3.37621 20.8203 3.70312C20.681 3.83682 20.571 3.99799 20.498 4.17676C20.4251 4.35563 20.3904 4.54815 20.3965 4.74121C20.3968 4.75021 20.3975 4.75955 20.3975 4.76855C20.3976 4.97624 20.5103 5.16427 20.8906 5.63086C21.1924 6.001 21.7557 6.64567 21.7666 7.5459H21.7686C21.7821 7.97822 21.7042 8.40899 21.541 8.80957C21.3778 9.21014 21.1321 9.57229 20.8203 9.87207C20.4799 10.1992 19.9385 10.1879 19.6113 9.84766C19.2843 9.50722 19.2954 8.96583 19.6357 8.63867C19.7749 8.50473 19.8851 8.34296 19.958 8.16406C20.0308 7.98514 20.0646 7.79269 20.0586 7.59961C20.0583 7.59066 20.0586 7.58122 20.0586 7.57227C20.0586 7.36566 19.9464 7.17824 19.5654 6.71094C19.2632 6.34015 18.6991 5.69537 18.6885 4.79395L18.6875 4.79492C18.6738 4.36254 18.7508 3.93186 18.9141 3.53125C19.0774 3.13056 19.3236 2.7684 19.6357 2.46875Z" fill="black"/>
<path fill-rule="evenodd" clip-rule="evenodd" d="M12.002 0.858398C13.9683 0.858849 15.5996 2.51198 15.5996 4.45801C15.5992 6.42405 13.9476 8.05521 12.002 8.05566C10.0355 8.05566 8.40377 6.40395 8.40332 4.45801C8.40332 2.49133 10.0557 0.858398 12.002 0.858398ZM12.002 2.57031C10.9942 2.57031 10.1143 3.44159 10.1143 4.45801C10.1147 5.46541 10.9858 6.3457 12.002 6.3457C13.0091 6.34524 13.8892 5.47381 13.8896 4.45801C13.8896 3.45053 13.018 2.57078 12.002 2.57031Z" fill="black"/>
</svg>
