<svg width="24" height="24" viewBox="0 0 24 24" fill="none" xmlns="http://www.w3.org/2000/svg">
<path fill-rule="evenodd" clip-rule="evenodd" d="M12 11.7383C13.7829 11.7385 15.2285 13.1848 15.2285 14.9678C15.228 16.7504 13.7826 18.1961 12 18.1963C10.2173 18.1962 8.77099 16.7504 8.77051 14.9678C8.77051 13.1847 10.217 11.7384 12 11.7383ZM12 13.4492C11.1614 13.4494 10.4814 14.1291 10.4814 14.9678C10.4819 15.806 11.1617 16.4862 12 16.4863C12.8382 16.4861 13.5181 15.8059 13.5186 14.9678C13.5186 14.1292 12.8385 13.4494 12 13.4492Z" fill="black"/>
<path d="M12 6.47559C12.7089 6.47559 13.2832 7.05087 13.2832 7.75977C13.2831 8.4686 12.7088 9.04297 12 9.04297C11.3354 9.04285 10.7883 8.53792 10.7227 7.89062L10.7158 7.75977L10.7227 7.62793C10.7886 6.98097 11.3357 6.47571 12 6.47559Z" fill="black"/>
<path fill-rule="evenodd" clip-rule="evenodd" d="M21.4287 2.57324C22.8474 2.57337 23.9978 3.72387 23.998 5.14258V18.8574C23.998 20.2763 22.8475 21.4266 21.4287 21.4268H2.57129C1.15255 21.4265 0.00202757 20.2762 0.00195312 18.8574V5.14258C0.0021792 3.72393 1.15264 2.57347 2.57129 2.57324H21.4287ZM18.8555 12.8555V19.7168H21.4287C21.9031 19.7167 22.288 19.3318 22.2881 18.8574V12.8555H18.8555ZM6.85547 19.7168H17.1445V4.28418H6.85547V19.7168ZM1.71289 18.8574C1.71297 19.3318 2.09696 19.7166 2.57129 19.7168H5.14453V12.8555H1.71289V18.8574ZM18.8555 11.1445H22.2881V5.14258C22.2879 4.66828 21.903 4.28431 21.4287 4.28418H18.8555V11.1445ZM2.57129 4.28418C2.09705 4.28441 1.71312 4.66834 1.71289 5.14258V11.1445H5.14453V4.28418H2.57129Z" fill="black"/>
</svg>
