<svg width="24" height="24" viewBox="0 0 24 24" fill="none" xmlns="http://www.w3.org/2000/svg">
<path fill-rule="evenodd" clip-rule="evenodd" d="M23.1445 4.28784C23.3807 4.28799 23.5944 4.38382 23.749 4.53882C23.7874 4.5773 23.822 4.6196 23.8525 4.66479C23.9448 4.8014 23.999 4.9661 23.999 5.14331V23.1433C23.999 23.6153 23.6164 23.9985 23.1445 23.9988H0.858398C0.386237 23.9988 0.00299768 23.6155 0.00292969 23.1433C0.00292969 22.6711 0.386195 22.2878 0.858398 22.2878H5.14551V18.8572C5.14573 18.3852 5.52897 18.0027 6.00098 18.0027H8.57422V15.4294C8.57422 14.9573 8.95754 14.574 9.42969 14.574H12.0029V12.0007C12.0029 11.5286 12.3863 11.1453 12.8584 11.1453H15.4316V8.57202C15.4316 8.09986 15.815 7.71662 16.2871 7.71655H18.8604V5.14331C18.8604 4.67129 19.2429 4.28813 19.7148 4.28784H23.1445ZM20.5703 8.57202C20.5702 9.0441 20.187 9.42651 19.7148 9.42651H17.1416V12.0007C17.1414 12.4726 16.759 12.855 16.2871 12.8552H13.7129V15.4294C13.7126 15.9013 13.3303 16.2838 12.8584 16.2839H10.2842V18.8572C10.2841 19.3293 9.90178 19.7126 9.42969 19.7126H6.85645V22.2878H22.2891V5.99878H20.5703V8.57202Z" fill="black"/>
<path d="M13.9678 1.96655C14.3016 1.63281 14.8429 1.63298 15.1768 1.96655C15.5106 2.30043 15.5106 2.84163 15.1768 3.17554L3.17676 15.1755C2.84286 15.5094 2.30167 15.5094 1.96777 15.1755C1.63418 14.8416 1.63398 14.3003 1.96777 13.9666L13.9678 1.96655Z" fill="black"/>
</svg>
