<svg width="24" height="24" viewBox="0 0 24 24" fill="none" xmlns="http://www.w3.org/2000/svg">
<path d="M23.1406 15.4307C23.6128 15.4307 23.9961 15.8139 23.9961 16.2861C23.9958 16.7581 23.6127 17.1416 23.1406 17.1416H21.4248V18.8574C21.4245 19.3294 21.0414 19.7129 20.5693 19.7129H18.8535V21.4287C18.8533 21.9007 18.4701 22.2842 17.998 22.2842H15.4268C14.9548 22.284 14.5716 21.9006 14.5713 21.4287C14.5714 20.9567 14.9548 20.5744 15.4268 20.5742H17.1436V18.8574C17.1436 18.3854 17.5261 18.0031 17.998 18.0029H19.7148V16.2861C19.7148 15.8141 20.0974 15.4309 20.5693 15.4307H23.1406Z" fill="black"/>
<path d="M7.85352 8.24316C8.98005 8.24318 10.0773 8.60923 10.9785 9.28516L12.1387 10.1553C12.7192 10.5907 13.0615 11.2744 13.0615 12V14.9004C13.0615 15.3725 12.6781 15.7557 12.2061 15.7559C11.7339 15.7559 11.3506 15.3726 11.3506 14.9004V12C11.3506 11.8127 11.2629 11.6359 11.1133 11.5234L9.95215 10.6533C9.57895 10.3734 9.15575 10.1732 8.70898 10.0605V13.5977C8.70898 14.6704 8.24985 15.6925 7.44824 16.4053L6.13184 17.5752C5.69511 17.9634 5.44439 18.5202 5.44434 19.1045V21.4287C5.44412 21.9006 5.06177 22.283 4.58984 22.2832C4.11778 22.2832 3.7346 21.9007 3.73438 21.4287V19.1045C3.73442 18.0318 4.19324 17.0096 4.99512 16.2969L6.31152 15.127C6.74823 14.7387 6.99805 14.182 6.99805 13.5977V10.2148C6.88622 10.2894 6.78262 10.3774 6.69238 10.4805L5.7373 11.5723C5.02421 12.3871 3.99392 12.8543 2.91113 12.8545H1.45801C0.985894 12.8545 0.602684 12.4721 0.602539 12C0.602539 11.5278 0.985804 11.1445 1.45801 11.1445H2.91113C3.50076 11.1443 4.06182 10.8899 4.4502 10.4463L5.40527 9.35449C6.02289 8.64871 6.91568 8.24316 7.85352 8.24316Z" fill="black"/>
<path d="M9.02637 16.4609C9.42414 16.2065 9.95357 16.3229 10.208 16.7207C10.717 17.5165 10.8974 17.8595 11.459 18.1191C11.7036 18.2319 12.1623 18.2594 12.6885 18.207C12.9277 18.1832 13.1438 18.1464 13.2998 18.1162C13.3772 18.1012 13.4388 18.0883 13.4795 18.0791C13.4997 18.0745 13.5152 18.0706 13.5244 18.0684L13.5332 18.0664L13.6191 18.0488C14.0476 17.9853 14.4633 18.2557 14.5723 18.6846C14.6881 19.1421 14.4106 19.6074 13.9531 19.7236L13.9521 19.7246H13.9502C13.9502 19.7246 13.9467 19.726 13.9443 19.7266C13.9395 19.7278 13.9328 19.7295 13.9248 19.7314C13.9086 19.7354 13.8855 19.7407 13.8574 19.7471C13.8012 19.7598 13.7219 19.7771 13.625 19.7959C13.4319 19.8333 13.1625 19.8779 12.8584 19.9082C12.2976 19.964 11.4339 19.9909 10.7412 19.6709C9.63507 19.1595 9.19344 18.3099 8.7666 17.6426C8.51221 17.2448 8.62864 16.7154 9.02637 16.4609Z" fill="black"/>
<path fill-rule="evenodd" clip-rule="evenodd" d="M7.71289 0.515625C9.60499 0.515889 11.1396 2.05122 11.1396 3.94336C11.1394 5.83534 9.60487 7.36985 7.71289 7.37012C5.82075 7.37004 4.2864 5.83546 4.28613 3.94336C4.28621 2.0511 5.82063 0.5157 7.71289 0.515625ZM7.71289 2.22754C6.76504 2.22761 5.99715 2.99551 5.99707 3.94336C5.99733 4.89105 6.76516 5.66008 7.71289 5.66016C8.66047 5.65989 9.42942 4.89093 9.42969 3.94336C9.42961 2.99562 8.66058 2.2278 7.71289 2.22754Z" fill="black"/>
</svg>
