<svg width="24" height="24" viewBox="0 0 24 24" fill="none" xmlns="http://www.w3.org/2000/svg">
<path d="M23.144 15.4307C23.6162 15.4307 23.9994 15.8139 23.9994 16.2861C23.9992 16.7581 23.616 17.1416 23.144 17.1416H21.4282V18.8574C21.4279 19.3294 21.0447 19.7129 20.5727 19.7129H18.8569V21.4287C18.8566 21.9007 18.4734 22.2842 18.0014 22.2842H15.4301C14.9581 22.2841 14.5749 21.9007 14.5746 21.4287C14.5748 20.9567 14.958 20.5743 15.4301 20.5742H17.1469V18.8574C17.147 18.3854 17.5293 18.003 18.0014 18.0029H19.7182V16.2861C19.7182 15.814 20.1007 15.4309 20.5727 15.4307H23.144Z" fill="black"/>
<path d="M4.77093 16.8066C4.92025 16.3587 5.405 16.1163 5.85296 16.2656C6.30075 16.4151 6.54326 16.8998 6.39398 17.3477L5.9223 18.7607C5.707 19.4062 5.31997 19.9818 4.80316 20.4248L2.87542 22.0781C2.51702 22.3852 1.97669 22.3435 1.66937 21.9854C1.36215 21.6269 1.40378 21.0866 1.76214 20.7793L3.69085 19.127C3.97219 18.8858 4.1829 18.5721 4.30023 18.2207L4.77093 16.8066Z" fill="black"/>
<path d="M7.13128 8.24316C8.06493 8.24643 8.9527 8.6516 9.56781 9.35449L10.5229 10.4463C10.9112 10.8899 11.4724 11.1443 12.0619 11.1445H13.5151C13.9873 11.1445 14.3705 11.5278 14.3705 12C14.3704 12.4721 13.9872 12.8545 13.5151 12.8545H12.0619C10.9792 12.8543 9.94885 12.3871 9.23578 11.5723L8.2807 10.4805C8.19045 10.3774 8.08687 10.2894 7.97503 10.2148V13.5977C7.97503 14.182 8.22488 14.7387 8.66156 15.127L9.97796 16.2969C10.7798 17.0096 11.2387 18.0318 11.2387 19.1045V21.4287C11.2385 21.9007 10.8553 22.2832 10.3832 22.2832C9.91135 22.283 9.52897 21.9006 9.52874 21.4287V19.1045C9.52869 18.5202 9.27797 17.9634 8.84124 17.5752L7.52484 16.4053C6.72326 15.6925 6.2641 14.6703 6.2641 13.5977V10.0625C5.81982 10.1755 5.39909 10.3748 5.02777 10.6533L3.86664 11.5234C3.71693 11.6359 3.62933 11.8127 3.62933 12V14.9004C3.62933 15.3726 3.24607 15.7559 2.77386 15.7559C2.3017 15.7558 1.91839 15.3726 1.91839 14.9004V12C1.91839 11.2743 2.2607 10.5907 2.84124 10.1553L4.0014 9.28516C4.90027 8.611 5.99322 8.2451 7.11664 8.24316H7.13128Z" fill="black"/>
<path fill-rule="evenodd" clip-rule="evenodd" d="M7.71624 0.515625C9.60838 0.515846 11.1429 2.05119 11.143 3.94336C11.1427 5.83537 9.60826 7.3699 7.71624 7.37012C5.8241 7.37004 4.28975 5.83546 4.28949 3.94336C4.28956 2.0511 5.82399 0.5157 7.71624 0.515625ZM7.71624 2.22754C6.76839 2.22761 6.0005 2.99551 6.00042 3.94336C6.00069 4.89105 6.76851 5.66008 7.71624 5.66016C8.66386 5.65994 9.43278 4.89096 9.43304 3.94336C9.43297 2.9956 8.66397 2.22776 7.71624 2.22754Z" fill="black"/>
</svg>
