<svg width="24" height="24" viewBox="0 0 24 24" fill="none" xmlns="http://www.w3.org/2000/svg">
<path d="M18 18.002C18.4722 18.002 18.8555 18.3852 18.8555 18.8574C18.8555 19.3296 18.4722 19.7129 18 19.7129H6C5.5278 19.7129 5.14453 19.3296 5.14453 18.8574C5.14453 18.3852 5.5278 18.002 6 18.002H18Z" fill="black"/>
<path fill-rule="evenodd" clip-rule="evenodd" d="M18.4893 0.859375C20.5844 0.859375 22.283 2.55821 22.2832 4.65332V22.2861C22.2832 22.7582 21.9008 23.1415 21.4287 23.1416H2.57129C2.09914 23.1415 1.71582 22.7583 1.71582 22.2861V4.65332C1.71598 2.55835 3.41481 0.859602 5.50977 0.859375H18.4893ZM5.50977 2.57031C4.35922 2.57054 3.42692 3.50276 3.42676 4.65332V21.4316H20.5732V4.65332C20.5731 3.50262 19.64 2.57031 18.4893 2.57031H5.50977Z" fill="black"/>
</svg>
