<svg width="24" height="24" viewBox="0 0 24 24" fill="none" xmlns="http://www.w3.org/2000/svg">
<path fill-rule="evenodd" clip-rule="evenodd" d="M7.71484 13.7158C9.13368 13.7158 10.284 14.8664 10.2842 16.2852C10.2842 17.7041 9.13382 18.8545 7.71484 18.8545C6.29617 18.8541 5.14551 17.7039 5.14551 16.2852C5.14573 14.8666 6.29631 13.7162 7.71484 13.7158ZM7.71484 15.4268C7.24072 15.4271 6.85667 15.811 6.85645 16.2852C6.85645 16.7595 7.24058 17.1442 7.71484 17.1445C8.18941 17.1445 8.57422 16.7597 8.57422 16.2852C8.57399 15.8108 8.18927 15.4268 7.71484 15.4268Z" fill="black"/>
<path fill-rule="evenodd" clip-rule="evenodd" d="M16.2861 13.7158C17.705 13.7158 18.8552 14.8664 18.8555 16.2852C18.8555 17.7041 17.7051 18.8545 16.2861 18.8545C14.8675 18.8541 13.7168 17.7039 13.7168 16.2852C13.717 14.8666 14.8676 13.7162 16.2861 13.7158ZM16.2861 15.4268C15.812 15.4271 15.428 15.811 15.4277 16.2852C15.4277 16.7595 15.8119 17.1442 16.2861 17.1445C16.7607 17.1445 17.1455 16.7597 17.1455 16.2852C17.1453 15.8108 16.7606 15.4268 16.2861 15.4268Z" fill="black"/>
<path fill-rule="evenodd" clip-rule="evenodd" d="M8.57324 5.14453C9.99179 5.14487 11.1424 6.29529 11.1426 7.71387C11.1426 9.13264 9.99193 10.2829 8.57324 10.2832H6.8584C5.43961 10.283 4.28906 9.1327 4.28906 7.71387C4.28929 6.29522 5.43975 5.14476 6.8584 5.14453H8.57324ZM6.8584 6.85547C6.38416 6.85569 6.00023 7.23963 6 7.71387C6 8.1883 6.38402 8.57302 6.8584 8.57324H8.57324C9.04752 8.5729 9.43262 8.18823 9.43262 7.71387C9.43239 7.2397 9.04738 6.85581 8.57324 6.85547H6.8584Z" fill="black"/>
<path fill-rule="evenodd" clip-rule="evenodd" d="M16.2861 5.14453C17.705 5.14453 18.8552 6.29508 18.8555 7.71387C18.8555 9.13284 17.7051 10.2832 16.2861 10.2832C14.8675 10.2828 13.7168 9.13262 13.7168 7.71387C13.717 6.2953 14.8676 5.14489 16.2861 5.14453ZM16.2861 6.85547C15.812 6.85583 15.428 7.23971 15.4277 7.71387C15.4277 8.18822 15.8119 8.57288 16.2861 8.57324C16.7607 8.57324 17.1455 8.18844 17.1455 7.71387C17.1453 7.23949 16.7606 6.85547 16.2861 6.85547Z" fill="black"/>
<path fill-rule="evenodd" clip-rule="evenodd" d="M20.5732 0.858398C21.9917 0.858814 23.1424 2.01018 23.1426 3.42871V20.5723C23.1422 21.9906 21.9916 23.1412 20.5732 23.1416H3.42969C2.01116 23.1414 0.859791 21.9908 0.859375 20.5723V3.42871C0.859601 2.01006 2.01104 0.858625 3.42969 0.858398H20.5732ZM3.42969 2.57031C2.95545 2.57054 2.57151 2.95447 2.57129 3.42871V20.5723C2.5717 21.0463 2.95557 21.4314 3.42969 21.4316H20.5732C21.0472 21.4312 21.4322 21.0462 21.4326 20.5723V3.42871C21.4324 2.95459 21.0473 2.57073 20.5732 2.57031H3.42969Z" fill="black"/>
</svg>
