<svg width="24" height="24" viewBox="0 0 24 24" fill="none" xmlns="http://www.w3.org/2000/svg">
<path fill-rule="evenodd" clip-rule="evenodd" d="M18.2383 11.1153C19.6354 10.152 21.5925 10.5107 22.5566 11.9073C23.5204 13.3037 23.1609 15.2593 21.7666 16.2237L16.7842 19.7559C16.7173 19.8146 16.6473 19.8695 16.5762 19.9219L17.7598 22.2881C17.9705 22.7103 17.7998 23.2244 17.3779 23.4356C16.9559 23.6466 16.4419 23.4755 16.2305 23.0538L14.9609 20.5157C14.8919 20.5205 14.8226 20.5253 14.7529 20.5254H5.66211L5.07422 22.878C4.9596 23.3357 4.4959 23.6142 4.03809 23.5001C3.58017 23.3856 3.30186 22.9218 3.41602 22.4639L3.90527 20.504C2.36688 20.3283 1.14663 19.0015 1.14648 17.421C1.14652 15.7233 2.55427 14.3155 4.25195 14.3155H13.7295L18.2295 11.1211L18.2383 11.1153ZM21.1494 12.878C20.7216 12.2585 19.8288 12.0952 19.209 12.5225L14.4971 15.8682C14.3525 15.9708 14.1792 16.0254 14.002 16.0254H4.25195C3.49868 16.0254 2.85746 16.6677 2.85742 17.421C2.85758 18.1741 3.49875 18.8155 4.25195 18.8155H14.751C15.0995 18.815 15.4355 18.683 15.6904 18.4454L15.7783 18.3731L20.7852 14.8233L20.7939 14.8174C21.4132 14.3891 21.5764 13.4966 21.1494 12.878Z" fill="black"/>
</svg>
