<svg width="24" height="24" viewBox="0 0 24 24" fill="none" xmlns="http://www.w3.org/2000/svg">
<path d="M12 20.5732C12.4722 20.5732 12.8555 20.9565 12.8555 21.4287V23.1426C12.8555 23.6148 12.4722 23.998 12 23.998C11.5278 23.998 11.1445 23.6148 11.1445 23.1426V21.4287C11.1445 20.9565 11.5278 20.5732 12 20.5732Z" fill="black"/>
<path d="M4.72363 18.0645C5.05743 17.7307 5.5987 17.7309 5.93262 18.0645C6.26652 18.3984 6.26652 18.9395 5.93262 19.2734L4.71582 20.4902C4.38191 20.824 3.84069 20.8241 3.50684 20.4902C3.17327 20.1564 3.17316 19.6151 3.50684 19.2812L4.72363 18.0645Z" fill="black"/>
<path d="M18.0654 18.0645C18.3993 17.7307 18.9406 17.7306 19.2744 18.0645L20.4912 19.2812C20.8249 19.6151 20.8249 20.1564 20.4912 20.4902C20.1574 20.8241 19.6161 20.824 19.2822 20.4902L18.0654 19.2734C17.7315 18.9395 17.7315 18.3984 18.0654 18.0645Z" fill="black"/>
<path fill-rule="evenodd" clip-rule="evenodd" d="M12 5.57324C15.5491 5.57337 18.4267 8.45092 18.4268 12C18.4268 15.5491 15.5491 18.4266 12 18.4268C8.45084 18.4267 5.57324 15.5492 5.57324 12C5.57332 8.45088 8.45088 5.57332 12 5.57324ZM12 7.28418C9.39529 7.28426 7.28426 9.39529 7.28418 12C7.28418 14.6048 9.39524 16.7167 12 16.7168C14.6047 16.7167 16.7168 14.6047 16.7168 12C16.7167 9.39533 14.6047 7.28431 12 7.28418Z" fill="black"/>
<path d="M2.57129 11.1445C3.04338 11.1447 3.42676 11.5279 3.42676 12C3.42676 12.4721 3.04338 12.8553 2.57129 12.8555H0.857422C0.385218 12.8555 0.00195312 12.4722 0.00195312 12C0.00195312 11.5278 0.385218 11.1445 0.857422 11.1445H2.57129Z" fill="black"/>
<path d="M23.1426 11.1445C23.6147 11.1447 23.998 11.5279 23.998 12C23.998 12.4721 23.6147 12.8553 23.1426 12.8555H21.4287C20.9565 12.8555 20.5732 12.4722 20.5732 12C20.5732 11.5278 20.9565 11.1445 21.4287 11.1445H23.1426Z" fill="black"/>
<path d="M3.50684 3.50977C3.84069 3.17591 4.38191 3.17599 4.71582 3.50977L5.93262 4.72656C6.26652 5.06046 6.26652 5.60165 5.93262 5.93555C5.59871 6.26932 5.05749 6.2694 4.72363 5.93555L3.50684 4.71875C3.1731 4.38488 3.1731 3.84363 3.50684 3.50977Z" fill="black"/>
<path d="M19.2822 3.50977C19.6161 3.17605 20.1573 3.17608 20.4912 3.50977C20.8249 3.84363 20.8249 4.38488 20.4912 4.71875L19.2744 5.93555C18.9406 6.2694 18.3993 6.26932 18.0654 5.93555C17.7317 5.60163 17.7316 5.0604 18.0654 4.72656L19.2822 3.50977Z" fill="black"/>
<path d="M12 0.000976562C12.4722 0.000976562 12.8555 0.385218 12.8555 0.857422V2.57129C12.8552 3.04327 12.472 3.42676 12 3.42676C11.528 3.42676 11.1448 3.04327 11.1445 2.57129V0.857422C11.1445 0.385218 11.5278 0.000976562 12 0.000976562Z" fill="black"/>
</svg>
