<svg width="24" height="24" viewBox="0 0 24 24" fill="none" xmlns="http://www.w3.org/2000/svg">
<path d="M6.8584 20.5732C7.33049 20.5734 7.71387 20.9566 7.71387 21.4287C7.71387 21.9008 7.33049 22.284 6.8584 22.2842H0.858398C0.386195 22.2842 0.00292969 21.9009 0.00292969 21.4287C0.00292969 20.9565 0.386195 20.5732 0.858398 20.5732H6.8584Z" fill="black"/>
<path d="M12.0889 12.8633C12.251 12.8798 12.3989 12.9428 12.5215 13.0371C12.5294 13.0432 12.5382 13.0483 12.5459 13.0547C12.5669 13.072 12.5872 13.0901 12.6064 13.1094L14.3203 14.8242C14.6538 15.1581 14.6541 15.7004 14.3203 16.0342C13.9866 16.3675 13.4452 16.3673 13.1113 16.0342L12.8564 15.7793V21.4287C12.8562 21.9007 12.473 22.2842 12.001 22.2842C11.529 22.284 11.1458 21.9006 11.1455 21.4287V15.7793L10.8916 16.0342C10.5579 16.3675 10.0164 16.3673 9.68262 16.0342C9.34876 15.7003 9.34884 15.1581 9.68262 14.8242L11.3965 13.1094C11.4155 13.0903 11.4353 13.0719 11.4561 13.0547C11.4815 13.0337 11.5086 13.0149 11.5361 12.9971C11.67 12.91 11.8295 12.8594 12.001 12.8594L12.0889 12.8633Z" fill="black"/>
<path d="M23.1445 20.5732C23.6165 20.5735 24 20.9567 24 21.4287C24 21.9008 23.6165 22.2839 23.1445 22.2842H17.1445C16.6723 22.2842 16.2891 21.9009 16.2891 21.4287C16.2891 20.9565 16.6723 20.5732 17.1445 20.5732H23.1445Z" fill="black"/>
<path d="M12.001 6.85938C15.7869 6.85938 18.8564 9.92893 18.8564 13.7148C18.8563 15.5821 18.1081 17.2773 16.8975 18.5127C16.567 18.8495 16.0256 18.8546 15.6885 18.5244C15.3514 18.1941 15.3457 17.6527 15.6758 17.3154C16.5859 16.3867 17.1454 15.1168 17.1455 13.7148C17.1455 10.8733 14.8425 8.57031 12.001 8.57031C9.15958 8.57044 6.85645 10.8734 6.85645 13.7148C6.85658 15.1168 7.41609 16.3867 8.32617 17.3154C8.65649 17.6527 8.65066 18.194 8.31348 18.5244C7.97626 18.8545 7.43488 18.8496 7.10449 18.5127C5.89391 17.2773 5.14564 15.5822 5.14551 13.7148C5.14551 9.92901 8.21517 6.85951 12.001 6.85938Z" fill="black"/>
<path d="M2.57227 12.8594C3.04436 12.8595 3.42773 13.2427 3.42773 13.7148C3.42747 14.1867 3.04419 14.5702 2.57227 14.5703H0.858398C0.386358 14.5703 0.00319386 14.1868 0.00292969 13.7148C0.00292969 13.2426 0.386195 12.8594 0.858398 12.8594H2.57227Z" fill="black"/>
<path d="M23.1436 12.8594C23.6158 12.8594 23.999 13.2426 23.999 13.7148C23.9988 14.1868 23.6156 14.5703 23.1436 14.5703H21.4297C20.9576 14.5703 20.5745 14.1868 20.5742 13.7148C20.5742 13.2426 20.9575 12.8594 21.4297 12.8594H23.1436Z" fill="black"/>
<path d="M3.50879 5.22461C3.84269 4.89071 4.38388 4.89071 4.71777 5.22461L5.93457 6.44141C6.26798 6.77534 6.26831 7.31666 5.93457 7.65039C5.60083 7.98413 5.05952 7.9838 4.72559 7.65039L3.50879 6.43359C3.17489 6.0997 3.17489 5.55851 3.50879 5.22461Z" fill="black"/>
<path d="M19.2832 5.22461C19.617 4.89077 20.1583 4.89088 20.4922 5.22461C20.8257 5.55854 20.826 6.09982 20.4922 6.43359L19.2754 7.65039C18.9416 7.98405 18.4003 7.98388 18.0664 7.65039C17.7327 7.31652 17.7327 6.77526 18.0664 6.44141L19.2832 5.22461Z" fill="black"/>
<path d="M12.001 1.71582C12.4732 1.71582 12.8564 2.09909 12.8564 2.57129V4.28516C12.8564 4.75736 12.4732 5.14062 12.001 5.14062C11.5289 5.14049 11.1455 4.75728 11.1455 4.28516V2.57129C11.1455 2.09917 11.5289 1.71595 12.001 1.71582Z" fill="black"/>
</svg>
