<svg width="24" height="24" viewBox="0 0 24 24" fill="none" xmlns="http://www.w3.org/2000/svg">
<path d="M6.85742 20.5732C7.32963 20.5732 7.71289 20.9565 7.71289 21.4287C7.71289 21.9009 7.32963 22.2842 6.85742 22.2842H0.857422C0.38533 22.284 0.00195312 21.9008 0.00195312 21.4287C0.00195312 20.9566 0.38533 20.5734 0.857422 20.5732H6.85742Z" fill="black"/>
<path d="M12.001 12.8594C12.473 12.8596 12.8564 13.2428 12.8564 13.7148V19.3643L13.1104 19.1104C13.4442 18.7765 13.9864 18.7765 14.3203 19.1104C14.6533 19.4442 14.6537 19.9857 14.3203 20.3193L12.6055 22.0342C12.2718 22.3675 11.7304 22.3672 11.3965 22.0342L9.68164 20.3193C9.34811 19.9855 9.34811 19.4442 9.68164 19.1104C10.0155 18.7765 10.5577 18.7765 10.8916 19.1104L11.1455 19.3643V13.7148C11.1455 13.2426 11.5288 12.8594 12.001 12.8594Z" fill="black"/>
<path d="M23.1436 20.5732C23.6156 20.5734 23.999 20.9566 23.999 21.4287C23.999 21.9008 23.6156 22.284 23.1436 22.2842H17.1436C16.6714 22.2842 16.2881 21.9009 16.2881 21.4287C16.2881 20.9565 16.6714 20.5732 17.1436 20.5732H23.1436Z" fill="black"/>
<path d="M12.001 6.85938C15.7867 6.85964 18.8564 9.92909 18.8564 13.7148C18.8563 15.5821 18.1081 17.2773 16.8975 18.5127C16.5671 18.8497 16.0257 18.8544 15.6885 18.5244C15.3512 18.1939 15.3453 17.6527 15.6758 17.3154C16.5859 16.3867 17.1454 15.1168 17.1455 13.7148C17.1455 10.8735 14.8423 8.57058 12.001 8.57031C9.15947 8.57031 6.85645 10.8733 6.85645 13.7148C6.85658 15.1168 7.41609 16.3867 8.32617 17.3154C8.65613 17.6527 8.65054 18.1941 8.31348 18.5244C7.97641 18.8547 7.43504 18.8494 7.10449 18.5127C5.89391 17.2773 5.14564 15.5822 5.14551 13.7148C5.14551 9.92893 8.21506 6.85938 12.001 6.85938Z" fill="black"/>
<path d="M2.57129 12.8594C3.04349 12.8594 3.42676 13.2426 3.42676 13.7148C3.42649 14.1868 3.04333 14.5703 2.57129 14.5703H0.857422C0.385493 14.5702 0.00221711 14.1867 0.00195312 13.7148C0.00195312 13.2427 0.38533 12.8595 0.857422 12.8594H2.57129Z" fill="black"/>
<path d="M23.1436 12.8594C23.6155 12.8596 23.999 13.2428 23.999 13.7148C23.9988 14.1867 23.6154 14.57 23.1436 14.5703H21.4297C20.9576 14.5703 20.5745 14.1868 20.5742 13.7148C20.5742 13.2426 20.9575 12.8594 21.4297 12.8594H23.1436Z" fill="black"/>
<path d="M3.50781 5.22461C3.84171 4.89071 4.3829 4.89071 4.7168 5.22461L5.93359 6.44141C6.26713 6.77533 6.26737 7.31661 5.93359 7.65039C5.59981 7.98404 5.0585 7.98388 4.72461 7.65039L3.50781 6.43359C3.17395 6.09974 3.17404 5.55852 3.50781 5.22461Z" fill="black"/>
<path d="M19.2822 5.22461C19.6161 4.89077 20.1573 4.89088 20.4912 5.22461C20.825 5.55852 20.8251 6.09974 20.4912 6.43359L19.2744 7.65039C18.9405 7.98388 18.3992 7.98404 18.0654 7.65039C17.7318 7.3166 17.732 6.77528 18.0654 6.44141L19.2822 5.22461Z" fill="black"/>
<path d="M12.001 1.71582C12.473 1.71608 12.8564 2.09925 12.8564 2.57129V4.28516C12.8564 4.7572 12.473 5.14036 12.001 5.14062C11.5288 5.14062 11.1455 4.75736 11.1455 4.28516V2.57129C11.1455 2.09909 11.5288 1.71582 12.001 1.71582Z" fill="black"/>
</svg>
