<svg width="24" height="24" viewBox="0 0 24 24" fill="none" xmlns="http://www.w3.org/2000/svg">
<path fill-rule="evenodd" clip-rule="evenodd" d="M16.2861 3.43066C16.7581 3.43093 17.1416 3.81409 17.1416 4.28613V12.8574C17.1413 13.3292 16.7579 13.7126 16.2861 13.7129H7.71484C7.2428 13.7129 6.85964 13.3294 6.85938 12.8574V4.28613C6.85938 3.81393 7.24264 3.43066 7.71484 3.43066H16.2861ZM8.57031 12.0029H15.4316V5.1416H8.57031V12.0029Z" fill="black"/>
<path fill-rule="evenodd" clip-rule="evenodd" d="M18 0.000976562C19.4186 0.00124045 20.5691 1.15267 20.5693 2.57129V21.4287C20.5691 22.8473 19.4186 23.9978 18 23.998H6C4.58138 23.9978 3.42995 22.8473 3.42969 21.4287V2.57129C3.42991 1.15264 4.58135 0.00120267 6 0.000976562H18ZM6 1.71289C5.52576 1.71312 5.14183 2.09705 5.1416 2.57129V21.4287C5.14187 21.9029 5.52579 22.2879 6 22.2881H18C18.4742 22.2878 18.8591 21.9029 18.8594 21.4287V2.57129C18.8591 2.09707 18.4742 1.71315 18 1.71289H6Z" fill="black"/>
</svg>
