<svg width="24" height="24" viewBox="0 0 24 24" fill="none" xmlns="http://www.w3.org/2000/svg">
<path fill-rule="evenodd" clip-rule="evenodd" d="M8.23047 1.72461C8.50577 1.76362 8.74822 1.9354 8.875 2.18848C9.44961 3.33585 10.6351 4.12103 12.002 4.12109C13.3687 4.12091 14.5544 3.33586 15.1289 2.18848L15.1904 2.08496C15.3486 1.85638 15.6105 1.71582 15.8936 1.71582H17.292C17.9732 1.71595 18.6277 1.98696 19.1094 2.46875L23.75 7.10938C24.0834 7.4431 24.0832 7.98452 23.75 8.31836L20.3213 11.7471C19.9875 12.0809 19.4462 12.0807 19.1123 11.7471L18.8574 11.4922V19.7139C18.8574 20.3952 18.5861 21.0495 18.1045 21.5312C17.6229 22.0127 16.9692 22.283 16.2881 22.2832H7.7168C7.0354 22.2832 6.38114 22.0127 5.89941 21.5312C5.41754 21.0494 5.14746 20.3952 5.14746 19.7139V11.4922L4.89258 11.7471C4.55876 12.0809 4.01751 12.0807 3.68359 11.7471L0.254883 8.31836C0.0946265 8.15803 0.00292969 7.94056 0.00292969 7.71387C0.00300349 7.48721 0.0946049 7.26965 0.254883 7.10938L4.89551 2.46875C5.37722 1.98717 6.03077 1.71592 6.71191 1.71582H8.11035L8.23047 1.72461ZM6.71191 3.42676C6.48429 3.42686 6.26551 3.51685 6.10449 3.67773L2.06836 7.71387L4.28809 9.93359L5.39746 8.82422C5.64193 8.57994 6.00977 8.5065 6.3291 8.63867C6.64836 8.77111 6.85742 9.08305 6.85742 9.42871V19.7139C6.85742 19.9416 6.94761 20.1603 7.1084 20.3213C7.26962 20.4823 7.4891 20.5732 7.7168 20.5732H16.2881C16.5157 20.5731 16.7345 20.4823 16.8955 20.3213C17.0563 20.1602 17.1475 19.9415 17.1475 19.7139V9.42871C17.1475 9.08299 17.3555 8.77107 17.6748 8.63867C17.9942 8.50657 18.362 8.5798 18.6064 8.82422L19.7158 9.93359L21.9355 7.71387L17.8994 3.67773C17.7385 3.51694 17.5196 3.42689 17.292 3.42676H16.3857C15.4619 4.87009 13.8455 5.83089 12.002 5.83105C10.1583 5.831 8.54203 4.87013 7.61816 3.42676H6.71191Z" fill="black"/>
</svg>
