<svg width="24" height="24" viewBox="0 0 24 24" fill="none" xmlns="http://www.w3.org/2000/svg">
<path fill-rule="evenodd" clip-rule="evenodd" d="M9.03027 0.000976562C9.40098 0.00107845 9.75873 0.131314 10.043 0.364258L10.1602 0.470703L10.2656 0.587891C10.4984 0.872165 10.6279 1.22993 10.6279 1.60059V3.08594C10.6281 3.45006 10.7728 3.80014 11.0303 4.05762C11.2878 4.31486 11.6379 4.45996 12.002 4.45996C12.3658 4.45978 12.7153 4.31482 12.9727 4.05762C13.2301 3.80014 13.3749 3.45006 13.375 3.08594V1.60059C13.375 1.177 13.5434 0.770319 13.8428 0.470703C14.1424 0.171113 14.549 0.00105042 14.9727 0.000976562H16.459C16.8297 0.00111071 17.1875 0.1313 17.4717 0.364258L17.5889 0.470703L17.6943 0.587891C17.9271 0.872156 18.0566 1.22996 18.0566 1.60059V6.80078C18.0567 7.23811 18.1919 7.66531 18.4443 8.02246C18.697 8.37968 19.0552 8.65005 19.4678 8.7959C19.9241 8.95736 20.3193 9.25703 20.5986 9.65234C20.8778 10.0476 21.0285 10.52 21.0283 11.0039V22.4004C21.0282 22.824 20.8591 23.2308 20.5596 23.5303C20.26 23.8296 19.8532 23.998 19.4297 23.998H4.57324C4.14974 23.998 3.74296 23.8296 3.44336 23.5303C3.14384 23.2308 2.97477 22.824 2.97461 22.4004V11.0039C2.97444 10.5199 3.12503 10.0476 3.4043 9.65234C3.68373 9.25695 4.0787 8.95734 4.53516 8.7959C4.94775 8.65001 5.30592 8.37977 5.55859 8.02246C5.81101 7.6653 5.9462 7.23812 5.94629 6.80078V1.60059C5.94629 1.17704 6.11471 0.770313 6.41406 0.470703C6.71362 0.171145 7.12032 0.00108739 7.54395 0.000976562H9.03027ZM7.65625 6.7998C7.6563 7.59104 7.41087 8.36367 6.9541 9.00977C6.49727 9.65575 5.85142 10.1445 5.10547 10.4082C4.98256 10.4517 4.87608 10.5323 4.80078 10.6387C4.72566 10.7451 4.68558 10.8727 4.68555 11.0029V22.2881H19.3184V11.0029C19.3183 10.8728 19.2772 10.745 19.2021 10.6387C19.1269 10.5324 19.0202 10.4517 18.8975 10.4082C18.1516 10.1445 17.5056 9.65566 17.0488 9.00977C16.5921 8.36367 16.3466 7.59104 16.3467 6.7998V1.71289H15.085V3.08594C15.0848 3.90358 14.7598 4.68844 14.1816 5.2666C13.6036 5.8445 12.8193 6.16974 12.002 6.16992C11.1844 6.16992 10.3995 5.84453 9.82129 5.2666C9.24312 4.68844 8.9181 3.90358 8.91797 3.08594V1.71289H7.65625V6.7998Z" fill="black"/>
</svg>
