<svg width="24" height="24" viewBox="0 0 24 24" fill="none" xmlns="http://www.w3.org/2000/svg">
<path d="M9.58887 3.80078C11.1989 3.8011 12.5047 5.10674 12.5049 6.7168V13.0205H15.4805C18.3886 13.0208 20.7461 15.378 20.7461 18.2861V23.1426C20.7461 23.6146 20.3635 23.9977 19.8916 23.998C19.4194 23.998 19.0361 23.6148 19.0361 23.1426V18.2861C19.0361 16.3223 17.4441 14.7307 15.4805 14.7305H11.6494C11.1773 14.7304 10.7949 14.3471 10.7949 13.875V6.7168C10.7948 6.05116 10.2545 5.51204 9.58887 5.51172C8.92299 5.51172 8.38296 6.05096 8.38281 6.7168V16.1006C8.38262 16.5113 8.09005 16.864 7.68652 16.9404L6.99902 17.0693C5.517 17.3482 4.81196 19.0597 5.66699 20.3018L5.94336 20.7051L7.28711 22.6582C7.55431 23.0471 7.45599 23.5801 7.06738 23.8477C6.67834 24.1151 6.1455 24.0159 5.87793 23.627L4.53516 21.6738L4.25781 21.2715C2.70367 19.0137 3.98252 15.9049 6.67285 15.3916V6.7168C6.67299 5.10655 7.97859 3.80078 9.58887 3.80078Z" fill="black"/>
<path d="M4.42578 5.5459C4.89776 5.54617 5.28125 5.92933 5.28125 6.40137C5.28099 6.87318 4.89759 7.25657 4.42578 7.25684H3.92578C3.45374 7.25684 3.0696 6.87335 3.06934 6.40137C3.06934 5.92916 3.45358 5.5459 3.92578 5.5459H4.42578Z" fill="black"/>
<path d="M14.9258 5.5459C15.3978 5.54617 15.7812 5.92933 15.7812 6.40137C15.781 6.87318 15.3976 7.25657 14.9258 7.25684H14.4258C13.9537 7.25684 13.5706 6.87335 13.5703 6.40137C13.5703 5.92916 13.9536 5.5459 14.4258 5.5459H14.9258Z" fill="black"/>
<path d="M4.93457 1.9082C5.26847 1.5743 5.80966 1.5743 6.14355 1.9082L6.49707 2.26172C6.83072 2.59564 6.83089 3.13689 6.49707 3.4707C6.16323 3.80428 5.62192 3.80428 5.28809 3.4707L4.93457 3.11719C4.60075 2.78337 4.60092 2.24212 4.93457 1.9082Z" fill="black"/>
<path d="M12.708 1.90723C13.0419 1.57346 13.5831 1.57339 13.917 1.90723C14.2507 2.24109 14.2507 2.78234 13.917 3.11621L13.5635 3.46973C13.2296 3.80358 12.6884 3.8035 12.3545 3.46973C12.0206 3.13583 12.0206 2.59463 12.3545 2.26074L12.708 1.90723Z" fill="black"/>
<path d="M9.42285 0.0458984C9.89506 0.0458984 10.2783 0.429164 10.2783 0.901367V1.40137C10.2783 1.87357 9.89506 2.25684 9.42285 2.25684C8.95076 2.2567 8.56738 1.87349 8.56738 1.40137V0.901367C8.56738 0.429245 8.95076 0.0460305 9.42285 0.0458984Z" fill="black"/>
</svg>
