<svg width="24" height="24" viewBox="0 0 24 24" fill="none" xmlns="http://www.w3.org/2000/svg">
<path d="M13.2861 16.2881C13.6626 16.2883 13.9953 16.5352 14.1045 16.8955C14.2133 17.2558 14.0737 17.6455 13.7607 17.8545L12.4746 18.7119C12.1876 18.9032 11.8135 18.903 11.5264 18.7119L10.2402 17.8545C9.92715 17.6455 9.78753 17.2559 9.89648 16.8955C10.0057 16.535 10.3382 16.2881 10.7148 16.2881H13.2861Z" fill="black"/>
<path d="M8.1543 8.57324C8.82572 8.57913 9.37118 9.10132 9.41992 9.76172C9.42343 9.79318 9.42676 9.82503 9.42676 9.85742C9.42676 9.88948 9.42336 9.921 9.41992 9.95215C9.37132 10.6164 8.82014 11.1402 8.14355 11.1406C7.47889 11.1406 6.93184 10.6356 6.86621 9.98828L6.86426 9.95215C6.86082 9.92104 6.85938 9.88944 6.85938 9.85742C6.85938 9.8254 6.86082 9.79381 6.86426 9.7627L6.86621 9.72559C6.93195 9.08063 7.47516 8.57645 8.13672 8.57324H8.1543Z" fill="black"/>
<path d="M15.9883 8.58008C16.6355 8.64583 17.1406 9.1928 17.1406 9.85742C17.1405 10.5662 16.5662 11.1405 15.8574 11.1406L15.7344 11.1348C15.1262 11.0771 14.6416 10.5953 14.5801 9.98828L14.5732 9.85742L14.5801 9.72559C14.646 9.07856 15.193 8.57324 15.8574 8.57324L15.9883 8.58008Z" fill="black"/>
<path fill-rule="evenodd" clip-rule="evenodd" d="M18.8574 0.000976562C21.6964 0.00110854 23.998 2.3045 23.998 5.14355C23.9978 6.60809 23.3827 7.92799 22.4014 8.86328C22.8781 10.1041 23.1406 11.4511 23.1406 12.8574C23.1404 19.0099 18.1526 23.9979 12 23.998C5.84744 23.9979 0.859639 19.0099 0.859375 12.8574C0.859375 11.4509 1.12083 10.1033 1.59766 8.8623C0.61705 7.92708 0.00220653 6.60745 0.00195312 5.14355C0.00195312 2.30442 2.30442 0.000976562 5.14355 0.000976562C6.82552 0.00118885 8.31698 0.81106 9.25391 2.05762C9.35002 2.03323 9.44686 2.01113 9.54395 1.98926C9.57097 1.98317 9.5979 1.9766 9.625 1.9707C9.72027 1.94999 9.81595 1.93036 9.91211 1.91211C9.92766 1.90915 9.94341 1.90719 9.95898 1.9043C10.0576 1.88601 10.1564 1.86723 10.2559 1.85156C10.3702 1.83354 10.4852 1.81823 10.6006 1.80371C10.6707 1.79491 10.741 1.78776 10.8115 1.78027C10.88 1.77297 10.9487 1.76582 11.0176 1.75977C11.0767 1.75459 11.1359 1.75034 11.1953 1.74609C11.2707 1.74069 11.3461 1.73534 11.4219 1.73145C11.4843 1.72825 11.5467 1.72482 11.6094 1.72266C11.6815 1.72016 11.7538 1.71987 11.8262 1.71875C11.884 1.71786 11.9419 1.71582 12 1.71582C12.0577 1.71582 12.1153 1.71787 12.1729 1.71875C12.2453 1.71986 12.3176 1.72015 12.3896 1.72266C12.4529 1.72484 12.5161 1.72821 12.5791 1.73145C12.6529 1.73526 12.7264 1.73987 12.7998 1.74512C12.8618 1.74952 12.9236 1.75435 12.9854 1.75977C13.0497 1.76544 13.1137 1.77253 13.1777 1.7793C13.5911 1.8228 13.9978 1.88809 14.3965 1.97559C14.4073 1.97796 14.4179 1.981 14.4287 1.9834C14.5344 2.00692 14.6396 2.03112 14.7441 2.05762C15.6812 0.81034 17.1748 0.00097662 18.8574 0.000976562ZM12 13.7129C11.437 13.7129 10.8795 13.8236 10.3594 14.0391C9.83919 14.2545 9.36689 14.5706 8.96875 14.9688C8.57067 15.3669 8.25452 15.8392 8.03906 16.3594C7.8237 16.8794 7.71293 17.4371 7.71289 18C7.71295 18.5629 7.82364 19.1215 8.03906 19.6416C8.25454 20.1615 8.57083 20.6343 8.96875 21.0322C9.36679 21.4301 9.8394 21.7465 10.3594 21.9619C10.8794 22.1772 11.4372 22.288 12 22.2881C12.563 22.2881 13.1215 22.1774 13.6416 21.9619C14.1616 21.7465 14.6342 21.4302 15.0322 21.0322C15.4302 20.6342 15.7464 20.1616 15.9619 19.6416C16.1773 19.1215 16.288 18.5629 16.2881 18C16.288 17.4372 16.1772 16.8794 15.9619 16.3594C15.7465 15.8394 15.4301 15.3668 15.0322 14.9688C14.6343 14.5708 14.1615 14.2545 13.6416 14.0391C13.1215 13.8236 12.563 13.7129 12 13.7129ZM18.8574 1.71289C17.9402 1.71289 17.1065 2.07263 16.4902 2.66016C17.2018 2.97402 17.8749 3.35868 18.499 3.80762C18.8823 4.08334 18.97 4.61766 18.6943 5.00098C18.4186 5.3843 17.8843 5.47107 17.501 5.19531C16.678 4.60326 15.7555 4.14213 14.7637 3.83887C14.465 3.7475 14.1603 3.66919 13.8496 3.60742C13.6443 3.56667 13.4364 3.53404 13.2266 3.50684C13.0711 3.48665 12.9146 3.46858 12.7568 3.45605C12.5072 3.43628 12.2548 3.42676 12 3.42676C11.7449 3.42676 11.4921 3.43623 11.2422 3.45605C11.0844 3.4686 10.9279 3.48662 10.7725 3.50684C10.5626 3.53406 10.3547 3.56665 10.1494 3.60742C9.82993 3.67099 9.5167 3.75182 9.20996 3.84668C8.22812 4.15004 7.31476 4.6085 6.49902 5.19531C6.1157 5.47107 5.58142 5.3843 5.30566 5.00098C5.03001 4.61766 5.11769 4.08334 5.50098 3.80762C6.12483 3.35885 6.79756 2.97395 7.50879 2.66016C6.89283 2.07296 6.06039 1.71306 5.14355 1.71289C3.24883 1.71289 1.71289 3.24883 1.71289 5.14355C1.71319 6.28497 2.26935 7.29704 3.12988 7.92188C3.45816 8.16047 3.57389 8.59716 3.40625 8.9668C2.86893 10.1518 2.56934 11.4687 2.56934 12.8574C2.5695 16.0487 4.15594 18.8679 6.58203 20.5742C6.53854 20.4827 6.49786 20.3897 6.45898 20.2959C6.15763 19.5684 6.00202 18.7875 6.00195 18C6.00199 17.2126 6.15771 16.4326 6.45898 15.7051C6.76038 14.9774 7.20189 14.3157 7.75879 13.7588C8.31574 13.2018 8.97738 12.7604 9.70508 12.459C10.4327 12.1576 11.2125 12.002 12 12.002C12.7876 12.002 13.5683 12.1576 14.2959 12.459C15.0232 12.7603 15.6845 13.2021 16.2412 13.7588C16.798 14.3157 17.2406 14.9775 17.542 15.7051C17.8432 16.4325 17.998 17.2127 17.998 18C17.998 18.7875 17.8434 19.5684 17.542 20.2959C17.5031 20.3897 17.4605 20.4817 17.417 20.5732C19.843 18.8669 21.4305 16.0487 21.4307 12.8574C21.4307 11.4687 21.1311 10.1517 20.5938 8.9668C20.4261 8.59708 20.5417 8.16043 20.8701 7.92188C21.7308 7.29705 22.2878 6.28508 22.2881 5.14355C22.2881 3.24891 20.752 1.71302 18.8574 1.71289Z" fill="black"/>
</svg>
