<svg width="24" height="24" viewBox="0 0 24 24" fill="none" xmlns="http://www.w3.org/2000/svg">
<path d="M17.1406 16.2871C17.1706 16.2871 17.2003 16.289 17.2295 16.292C18.1289 16.3379 18.8545 17.091 18.8545 18.001C18.8541 18.9103 18.1292 19.6607 17.2305 19.707C17.2019 19.71 17.1729 19.7129 17.1436 19.7129C17.1367 19.7129 17.1289 19.7111 17.1221 19.7109C16.2513 19.7002 15.5284 19.0263 15.4404 18.1748L15.4365 18.1182C15.4312 18.0795 15.4277 18.0401 15.4277 18C15.4277 17.9592 15.431 17.9191 15.4365 17.8799L15.4404 17.8271C15.5256 16.9979 16.2128 16.3367 17.0527 16.292C17.0816 16.289 17.1109 16.2871 17.1406 16.2871Z" fill="black"/>
<path fill-rule="evenodd" clip-rule="evenodd" d="M17.1426 0.000976562C19.0348 0.000976562 20.5693 1.53639 20.5693 3.42871V13.0801C22.1213 14.1629 23.1405 15.9612 23.1406 18C23.1404 21.3124 20.455 23.998 17.1426 23.998C13.8304 23.9979 11.1448 21.3123 11.1445 18C11.1446 15.9609 12.1645 14.1619 13.7168 13.0791V3.42871C13.7169 1.5365 15.2504 0.00112728 17.1426 0.000976562ZM17.1426 1.71289C16.1948 1.71304 15.4268 2.48091 15.4268 3.42871V13.5459C15.4264 13.8506 15.2636 14.1324 15 14.2852C13.7163 15.0278 12.8556 16.4142 12.8555 18C12.8557 20.3679 14.7747 22.2879 17.1426 22.2881C19.5106 22.2881 21.4304 20.368 21.4307 18C21.4306 16.4142 20.5698 15.0278 19.2861 14.2852C19.0223 14.1325 18.8597 13.8507 18.8594 13.5459V3.42871C18.8593 2.48082 18.0905 1.71289 17.1426 1.71289Z" fill="black"/>
<path d="M5.57129 0.000976562C6.04349 0.000976562 6.42676 0.385218 6.42676 0.857422V4.71582H10.2861C10.7582 4.71603 11.1406 5.09921 11.1406 5.57129C11.1406 6.04336 10.7582 6.42655 10.2861 6.42676H6.42676V10.2861C6.42642 10.758 6.04328 11.1406 5.57129 11.1406C5.09935 11.1406 4.71616 10.758 4.71582 10.2861V6.42676H0.857422C0.385218 6.42676 0.00195312 6.04349 0.00195312 5.57129C0.00195312 5.09909 0.385218 4.71582 0.857422 4.71582H4.71582V0.857422C4.71582 0.385259 5.09914 0.00104257 5.57129 0.000976562Z" fill="black"/>
</svg>
