<svg width="24" height="24" viewBox="0 0 24 24" fill="none" xmlns="http://www.w3.org/2000/svg">
<path d="M0.858398 11.0076C1.33049 11.0077 1.71387 11.3909 1.71387 11.863C1.71401 17.4493 6.46767 22.151 12.001 22.1511C12.473 22.1512 12.8563 22.5336 12.8564 23.0056C12.8563 23.4776 12.473 23.8609 12.001 23.8611C5.52909 23.8609 0.00307374 18.3995 0.00292969 11.863C0.00292969 11.3908 0.386195 11.0076 0.858398 11.0076Z" fill="black"/>
<path fill-rule="evenodd" clip-rule="evenodd" d="M23.1553 11.0085C23.6271 11.0131 24.007 11.3989 24.0029 11.8708C23.9872 13.667 23.6211 15.4401 22.9326 17.0945C23.589 17.7188 23.999 18.5997 23.999 19.5769C23.9989 21.4691 22.4645 23.0037 20.5723 23.0037C18.6802 23.0034 17.1456 21.469 17.1455 19.5769C17.1456 17.6848 18.6802 16.1503 20.5723 16.1501C20.8675 16.1501 21.1544 16.1864 21.4277 16.2566C21.9838 14.8573 22.2798 13.3655 22.293 11.8552C22.2973 11.3832 22.6832 11.0044 23.1553 11.0085ZM20.5723 17.8611C19.6246 17.8613 18.8565 18.6292 18.8564 19.5769C18.8566 20.5246 19.6246 21.2935 20.5723 21.2937C21.5201 21.2937 22.2889 20.5247 22.2891 19.5769C22.289 18.9479 21.95 18.3991 21.4453 18.1003C21.4381 18.0961 21.4309 18.0921 21.4238 18.0876C21.1728 17.9439 20.8822 17.8611 20.5723 17.8611Z" fill="black"/>
<path d="M12.001 5.14428C12.4731 5.14428 12.8563 5.52765 12.8564 5.99974V11.1443H16.2871C16.759 11.1445 17.1415 11.5278 17.1416 11.9997C17.1416 12.4718 16.7591 12.855 16.2871 12.8552H12.001C11.5289 12.8551 11.1455 12.4719 11.1455 11.9997V5.99974C11.1456 5.52773 11.529 5.14441 12.001 5.14428Z" fill="black"/>
<path d="M2.39746 4.61986C2.68661 4.24668 3.22341 4.17851 3.59668 4.46752C3.96958 4.75675 4.03802 5.29358 3.74902 5.66674C3.18189 6.39889 2.72004 7.20728 2.37598 8.06713C2.20049 8.50502 1.70275 8.71758 1.26465 8.54271C0.826278 8.3673 0.612738 7.86977 0.788086 7.43138C1.1912 6.42397 1.73299 5.47768 2.39746 4.61986Z" fill="black"/>
<path d="M20.4111 4.46752C20.7844 4.17855 21.3212 4.24667 21.6104 4.61986C22.2748 5.47762 22.8167 6.42411 23.2197 7.43138C23.3948 7.8696 23.1812 8.36724 22.7432 8.54271C22.305 8.71783 21.8073 8.5042 21.6318 8.06615C21.2879 7.20664 20.8258 6.39862 20.2588 5.66674C19.9697 5.29346 20.0379 4.7567 20.4111 4.46752Z" fill="black"/>
<path d="M9.29688 0.1599C9.75827 0.0594382 10.214 0.351828 10.3145 0.813221C10.4146 1.27429 10.1221 1.72919 9.66113 1.82982C8.65754 2.04837 7.69321 2.42169 6.80371 2.93529C6.39498 3.17109 5.87194 3.03126 5.63574 2.62279C5.39973 2.21407 5.53978 1.69111 5.94824 1.45482C6.9907 0.852881 8.12069 0.416045 9.29688 0.1599Z" fill="black"/>
<path d="M13.6846 0.813221C13.785 0.351878 14.2398 0.0595364 14.7012 0.1599C15.8773 0.416049 17.0073 0.852906 18.0498 1.45482C18.4583 1.69108 18.5993 2.21404 18.3633 2.62279C18.1273 3.03136 17.6041 3.17076 17.1953 2.93529C16.3058 2.42171 15.3414 2.04839 14.3379 1.82982C13.8766 1.72938 13.5843 1.27451 13.6846 0.813221Z" fill="black"/>
</svg>
