<svg width="24" height="24" viewBox="0 0 24 24" fill="none" xmlns="http://www.w3.org/2000/svg">
<path d="M12.3086 0.00585938C18.7914 0.17033 23.9969 5.47756 23.9971 12C23.9968 18.6258 18.6249 23.9978 11.999 23.998C5.37308 23.9979 0.000263893 18.6259 0 12C7.55602e-05 8.68723 1.34544 5.68679 3.51562 3.5166C3.84952 3.1827 4.39071 3.1827 4.72461 3.5166C5.05801 3.85054 5.05834 4.39185 4.72461 4.72559C2.862 6.5882 1.71199 9.15896 1.71191 12C1.71218 17.6815 6.31749 22.2879 11.999 22.2881C17.6805 22.2878 22.2868 17.6814 22.2871 12C22.287 6.60661 18.1357 2.18505 12.8545 1.75V6C12.8542 6.4719 12.471 6.85534 11.999 6.85547C11.527 6.85547 11.1438 6.47198 11.1436 6V0.857422C11.1436 0.385218 11.5268 0.000976562 11.999 0.000976562L12.3086 0.00585938Z" fill="black"/>
<path d="M6.25195 6.25293C6.58585 5.91903 7.12704 5.91903 7.46094 6.25293L12.6035 11.3955C12.9369 11.7294 12.9373 12.2708 12.6035 12.6045C12.2698 12.9382 11.7285 12.9379 11.3945 12.6045L6.25195 7.46191C5.91805 7.12802 5.91805 6.58683 6.25195 6.25293Z" fill="black"/>
</svg>
