<svg width="24" height="24" viewBox="0 0 24 24" fill="none" xmlns="http://www.w3.org/2000/svg">
<path d="M9.62305 11.9355C10.0952 11.9356 10.4775 12.3188 10.4775 12.791C10.4775 13.2632 10.0952 13.6465 9.62305 13.6465H8.04102C7.56881 13.6465 7.18555 13.2632 7.18555 12.791C7.18555 12.3188 7.56881 11.9355 8.04102 11.9355H9.62305Z" fill="black"/>
<path d="M19.1152 5.60645C19.5873 5.60658 19.9707 5.98979 19.9707 6.46191V8.04395C19.9704 8.51584 19.5872 8.89928 19.1152 8.89941C18.6432 8.89941 18.26 8.51592 18.2598 8.04395V6.46191C18.2598 5.98971 18.643 5.60645 19.1152 5.60645Z" fill="black"/>
<path fill-rule="evenodd" clip-rule="evenodd" d="M19.1172 0.859375L19.1191 0.858398C20.4322 0.858495 21.4544 1.78388 22.0996 2.91309C22.7584 4.06638 23.1386 5.60275 23.1387 7.25293C23.1386 8.90327 22.7586 10.4404 22.0996 11.5938C21.4543 12.7227 20.4321 13.6464 19.1191 13.6465C18.1935 13.6464 17.4139 13.1859 16.8076 12.5195V22.2861C16.8074 22.758 16.425 23.1414 15.9531 23.1416H1.71094C1.2389 23.1416 0.855733 22.7581 0.855469 22.2861V7.25293C0.855527 5.60401 1.23883 4.06742 1.89844 2.91406C2.54365 1.78614 3.56528 0.858398 4.87598 0.858398L19.1172 0.859375ZM4.87598 2.57031C4.44607 2.57031 3.88486 2.88595 3.38281 3.76367C2.89558 4.6158 2.56646 5.8486 2.56641 7.25293V11.9355H4.08496C4.55698 11.9358 4.93945 12.3189 4.93945 12.791C4.93945 13.2631 4.55698 13.6463 4.08496 13.6465H2.56641V21.4316H15.0977V13.6465H13.5791C13.1069 13.6465 12.7236 13.2632 12.7236 12.791C12.7236 12.3188 13.1069 11.9355 13.5791 11.9355H15.0977V7.25293C15.0977 7.24459 15.0984 7.23582 15.0986 7.22754C15.1025 5.58683 15.4832 4.06057 16.1387 2.91309C16.2054 2.79624 16.2778 2.68198 16.3525 2.57031H4.87598ZM19.1191 2.57031C18.6845 2.57043 18.1231 2.88581 17.623 3.76074C17.1369 4.61173 16.8096 5.84516 16.8096 7.25293C16.8096 8.66072 17.1369 9.89415 17.623 10.7451C18.1231 11.62 18.6845 11.9364 19.1191 11.9365C19.5538 11.9364 20.1143 11.6199 20.6143 10.7451C21.1005 9.89414 21.4286 8.66085 21.4287 7.25293C21.4287 5.84504 21.1005 4.61173 20.6143 3.76074C20.1143 2.88597 19.5538 2.57041 19.1191 2.57031Z" fill="black"/>
</svg>
