<svg width="24" height="24" viewBox="0 0 24 24" fill="none" xmlns="http://www.w3.org/2000/svg">
<path fill-rule="evenodd" clip-rule="evenodd" d="M17.9971 0.000976562C19.4159 0.000976562 20.5662 1.1525 20.5664 2.57129C20.5663 3.34121 20.2261 4.03016 19.6895 4.50098L18.9648 10.293C20.3326 10.3507 21.4246 11.4755 21.4248 12.8574C21.4246 15.251 20.0215 17.3151 17.9961 18.2773V21.4287C17.9958 22.8473 16.8454 23.9968 15.4268 23.9971H8.56934C7.15071 23.9968 6.00025 22.8473 6 21.4287V18.2773C3.97412 17.3152 2.5705 15.2513 2.57031 12.8574C2.57053 11.476 3.66211 10.3513 5.0293 10.293L4.30469 4.50098C3.7682 4.03017 3.42788 3.34102 3.42773 2.57129C3.42796 1.15272 4.57854 0.00133549 5.99707 0.000976562H17.9971ZM16.2861 18.792C16.0051 18.8323 15.7183 18.8554 15.4268 18.8555H8.56934C8.2783 18.8555 7.99145 18.8331 7.71094 18.793V21.4287C7.71119 21.9029 8.09511 22.2869 8.56934 22.2871H15.4268C15.9009 22.2868 16.2859 21.9029 16.2861 21.4287V18.792ZM5.14062 11.999C4.66639 11.9992 4.28245 12.3832 4.28223 12.8574C4.28243 14.7101 5.45788 16.2902 7.10645 16.8887C7.12472 16.8943 7.14242 16.9014 7.16016 16.9082C7.60031 17.0613 8.07436 17.1455 8.56934 17.1455H15.4268C15.9182 17.1455 16.3887 17.0621 16.8262 16.9111C16.8473 16.9027 16.8687 16.8944 16.8906 16.8877C18.5385 16.2888 19.7146 14.7096 19.7148 12.8574C19.7146 12.3833 19.3296 11.9994 18.8555 11.999H5.14062ZM6.75195 10.2881H17.2432L17.8867 5.1416H6.10938L6.75195 10.2881ZM5.99707 1.71289C5.52294 1.71325 5.1389 2.09713 5.13867 2.57129C5.13894 3.04541 5.52297 3.43031 5.99707 3.43066H17.9971C18.4715 3.43066 18.8562 3.04563 18.8564 2.57129C18.8562 2.09691 18.4715 1.71289 17.9971 1.71289H5.99707Z" fill="black"/>
</svg>
