<svg width="24" height="24" viewBox="0 0 24 24" fill="none" xmlns="http://www.w3.org/2000/svg">
<path d="M8.82227 12.2529C9.15614 11.9191 9.69735 11.9191 10.0312 12.2529C10.3647 12.5869 10.365 13.1282 10.0312 13.4619L8.91992 14.5732H17.1416C17.6134 14.5737 17.9961 14.9568 17.9961 15.4287C17.9961 15.9006 17.6134 16.2837 17.1416 16.2842H8.91992L10.0312 17.3955C10.3646 17.7294 10.3649 18.2708 10.0312 18.6045C9.69751 18.9382 9.1562 18.9379 8.82227 18.6045L6.26172 16.0439C6.10037 15.8883 6 15.6704 6 15.4287C6 15.1868 6.10009 14.9682 6.26172 14.8125L8.82227 12.2529Z" fill="black"/>
<path d="M13.9648 5.39551C14.2988 5.06173 14.84 5.06165 15.1738 5.39551L17.7451 7.9668C17.8998 8.12163 17.9961 8.33524 17.9961 8.57129C17.9961 8.80734 17.8998 9.02095 17.7451 9.17578L15.1738 11.7471C14.84 12.0809 14.2988 12.0808 13.9648 11.7471C13.6311 11.4132 13.631 10.8719 13.9648 10.5381L15.0762 9.42676H6.85547C6.38327 9.42676 6 9.04349 6 8.57129C6 8.09909 6.38327 7.71582 6.85547 7.71582H15.0762L13.9648 6.60449C13.6309 6.27059 13.6309 5.72941 13.9648 5.39551Z" fill="black"/>
<path fill-rule="evenodd" clip-rule="evenodd" d="M11.998 0.000976562C18.6241 0.00124045 23.9959 5.37406 23.9961 12C23.9958 18.6259 18.624 23.9978 11.998 23.998C5.37211 23.9979 0.000263911 18.626 0 12C0.000151007 5.37399 5.37204 0.00112757 11.998 0.000976562ZM11.998 1.71289C6.31644 1.71304 1.71109 6.3184 1.71094 12C1.7112 17.6816 6.31651 22.2879 11.998 22.2881C17.6796 22.2878 22.2859 17.6815 22.2861 12C22.286 6.31846 17.6796 1.71315 11.998 1.71289Z" fill="black"/>
</svg>
