<svg width="24" height="24" viewBox="0 0 24 24" fill="none" xmlns="http://www.w3.org/2000/svg">
<path fill-rule="evenodd" clip-rule="evenodd" d="M12.8574 3.14453C14.2631 3.14467 15.4265 4.30821 15.4268 5.71387V6.57324H19.7139C20.8499 6.57324 21.9398 7.02484 22.7432 7.82812C23.5465 8.63145 23.998 9.72142 23.998 10.8574V17.7148C23.9976 18.1866 23.6145 18.5693 23.1426 18.5693H21.4033C21.1909 20.4976 19.5561 21.998 17.5713 21.998C15.5863 21.9979 13.9522 20.497 13.7402 18.5684C13.7318 18.5686 13.7233 18.5703 13.7148 18.5703H9.83203C9.61918 20.4981 7.98449 21.998 6 21.998C4.01518 21.998 2.38038 20.4976 2.16797 18.5693H0.857422C0.385218 18.5693 0.00195312 18.1861 0.00195312 17.7139V5.71387C0.00218401 4.30827 1.16569 3.14476 2.57129 3.14453H12.8574ZM6 15.998C4.81535 15.998 3.85547 16.9579 3.85547 18.1426C3.85547 19.3272 4.81535 20.2871 6 20.2871C7.18465 20.2871 8.14453 19.3272 8.14453 18.1426C8.14453 16.9579 7.18465 15.998 6 15.998ZM17.5713 15.998C16.3867 15.9982 15.4268 16.958 15.4268 18.1426C15.4268 19.3272 16.3867 20.287 17.5713 20.2871C18.7559 20.2871 19.7158 19.3272 19.7158 18.1426C19.7158 16.9579 18.7559 15.998 17.5713 15.998ZM2.57129 4.85547C2.11009 4.85571 1.71313 5.25267 1.71289 5.71387V16.8594H2.36426C2.89315 15.3612 4.32093 14.2871 6 14.2871C7.67907 14.2871 9.10685 15.3612 9.63574 16.8594H13.7168V7.44531C13.7167 7.43979 13.7158 7.43426 13.7158 7.42871C13.7158 7.423 13.7167 7.41682 13.7168 7.41113V5.71387C13.7166 5.25261 13.3187 4.85561 12.8574 4.85547H2.57129ZM15.4268 14.9375C16.0398 14.5264 16.7778 14.2872 17.5713 14.2871C19.2504 14.2871 20.6792 15.3611 21.208 16.8594H22.2881V10.8574C22.2881 10.1749 22.0168 9.51971 21.5342 9.03711C21.0515 8.55448 20.3963 8.28418 19.7139 8.28418H15.4268V14.9375Z" fill="black"/>
</svg>
