<svg width="24" height="24" viewBox="0 0 24 24" fill="none" xmlns="http://www.w3.org/2000/svg">
<path d="M9.60547 5.14453C13.56 5.14453 16.9442 7.58014 18.3438 11.0293C18.5211 11.4667 18.3103 11.9649 17.873 12.1426C17.4356 12.3199 16.9363 12.1093 16.7588 11.6719C15.6119 8.84571 12.8401 6.85547 9.60547 6.85547C5.34407 6.85575 1.88972 10.3099 1.88965 14.5713C1.88965 18.8327 5.34403 22.2878 9.60547 22.2881C11.7087 22.2881 13.6141 21.4472 15.0068 20.082C15.3439 19.7517 15.8852 19.7571 16.2158 20.0938C16.5463 20.4309 16.5411 20.9722 16.2041 21.3027C14.5047 22.9685 12.1742 23.998 9.60547 23.998C4.39962 23.9978 0.178711 19.7771 0.178711 14.5713C0.178786 9.36546 4.39967 5.14481 9.60547 5.14453Z" fill="black"/>
<path fill-rule="evenodd" clip-rule="evenodd" d="M22.9727 0.000976562C23.4446 0.00124979 23.8271 0.385387 23.8271 0.857422V6C23.8269 6.47181 23.4445 6.8552 22.9727 6.85547H22.1133V13.7139C22.1133 14.0376 21.9302 14.3346 21.6406 14.4795L16.498 17.0508C16.0757 17.2619 15.5618 17.0902 15.3506 16.668C15.1395 16.2457 15.3102 15.7317 15.7324 15.5205L20.4033 13.1846V6.85547H19.5439C19.0719 6.85547 18.6887 6.47198 18.6885 6V0.857422C18.6885 0.385218 19.0717 0.000976562 19.5439 0.000976562H22.9727ZM20.3994 5.14551H21.2402C21.246 5.14539 21.252 5.14453 21.2578 5.14453C21.2637 5.14453 21.2695 5.14539 21.2754 5.14551H22.1172V1.71289H20.3994V5.14551Z" fill="black"/>
<path d="M9.76758 12.9746C10.5652 13.0587 11.2119 13.7557 11.2119 14.5713C11.2119 15.3869 10.5652 16.0839 9.76758 16.168L9.60645 16.1768L9.45508 16.1689C8.70586 16.0952 8.08836 15.4804 8.00977 14.7324L8.00098 14.5713L8.00977 14.4102C8.09358 13.6124 8.79071 12.9658 9.60645 12.9658L9.76758 12.9746Z" fill="black"/>
</svg>
