<svg width="24" height="24" viewBox="0 0 24 24" fill="none" xmlns="http://www.w3.org/2000/svg">
<path d="M19.7158 20.5732C20.1878 20.5734 20.5703 20.9566 20.5703 21.4287C20.5703 21.9008 20.1878 22.284 19.7158 22.2842H4.28711C3.81491 22.2842 3.43164 21.9009 3.43164 21.4287C3.43164 20.9565 3.81491 20.5732 4.28711 20.5732H19.7158Z" fill="black"/>
<path fill-rule="evenodd" clip-rule="evenodd" d="M20.2051 1.71582C22.3002 1.71589 23.9989 3.4147 23.999 5.50977V15.0615C23.9988 17.1565 22.3001 18.8544 20.2051 18.8545H3.79688C1.70192 18.8543 0.00316638 17.1565 0.00292969 15.0615V5.50977C0.00309264 3.41476 1.70187 1.71598 3.79688 1.71582H20.2051ZM3.79688 3.42676C2.64628 3.42692 1.71403 4.35917 1.71387 5.50977V15.0615C1.7141 16.2121 2.64632 17.1444 3.79688 17.1445H20.2051C21.3557 17.1445 22.2888 16.2121 22.2891 15.0615V5.50977C22.2889 4.35911 21.3558 3.42682 20.2051 3.42676H3.79688Z" fill="black"/>
</svg>
