<svg width="24" height="24" viewBox="0 0 24 24" fill="none" xmlns="http://www.w3.org/2000/svg">
<path fill-rule="evenodd" clip-rule="evenodd" d="M20.2021 1.71582C22.2973 1.71582 23.9959 3.41466 23.9961 5.50977V14.2041C23.996 16.2993 22.2973 17.998 20.2021 17.998H15.6133L16.1279 20.5732H17.999C18.4711 20.5734 18.8545 20.9566 18.8545 21.4287C18.8545 21.9008 18.4711 22.284 17.999 22.2842H5.99902C5.52682 22.2842 5.14355 21.9009 5.14355 21.4287C5.14355 20.9565 5.52682 20.5732 5.99902 20.5732H7.86914L8.38477 17.998H3.79395C1.699 17.9978 8.66388e-05 16.2991 0 14.2041V5.50977C0.000160458 3.41484 1.69905 1.71611 3.79395 1.71582H20.2021ZM10.1279 17.998L9.61328 20.5732H14.3838L13.8691 17.998H10.1279ZM3.79395 3.42676C2.64346 3.42705 1.7111 4.35925 1.71094 5.50977V14.2041C1.71102 15.3547 2.64341 16.2878 3.79395 16.2881H9.40527C9.41793 16.2878 9.43062 16.2878 9.44336 16.2881H14.5527C14.5655 16.2878 14.5782 16.2878 14.5908 16.2881H20.2021C21.3529 16.2881 22.286 15.3549 22.2861 14.2041V5.50977C22.286 4.35907 21.3529 3.42676 20.2021 3.42676H3.79395Z" fill="black"/>
</svg>
