<svg width="24" height="24" viewBox="0 0 24 24" fill="none" xmlns="http://www.w3.org/2000/svg">
<path d="M13.2892 10.2881C13.7612 10.2883 14.1446 10.6715 14.1446 11.1436C14.1444 11.6154 13.761 11.9988 13.2892 11.999H10.7179C10.2458 11.999 9.86268 11.6155 9.86241 11.1436C9.86241 10.6714 10.2457 10.2881 10.7179 10.2881H13.2892Z" fill="black"/>
<path d="M12.8605 3.43066C13.3325 3.43087 13.7159 3.81406 13.7159 4.28613C13.7157 4.75799 13.3323 5.1414 12.8605 5.1416H11.1466C10.6746 5.1416 10.2914 4.75811 10.2911 4.28613C10.2911 3.81393 10.6744 3.43066 11.1466 3.43066H12.8605Z" fill="black"/>
<path fill-rule="evenodd" clip-rule="evenodd" d="M14.5753 0.000976562C15.9938 0.00133182 17.1444 1.15272 17.1446 2.57129V6.85938H17.1466C18.0857 6.85938 18.8585 7.63317 18.8585 8.57227C18.8585 9.03932 18.8604 12.5638 18.8585 13.0156C18.8555 13.6896 18.5877 14.3361 18.1134 14.8145C17.8595 15.0705 17.1933 15.7361 16.5392 16.3896C16.3786 16.5504 16.2873 16.7685 16.2872 16.9961V18.001C16.2867 19.4065 15.1235 20.5703 13.7179 20.5703H12.8585V23.1436C12.8582 23.6155 12.475 23.998 12.003 23.998C11.5312 23.9979 11.1479 23.6154 11.1476 23.1436V20.5703H10.2892C8.88391 20.5699 7.72034 19.4062 7.71984 18.001V16.9961C7.71976 16.7683 7.62962 16.5503 7.46886 16.3896C6.8775 15.7989 6.13561 15.0584 5.89366 14.8145C5.41916 14.336 5.15151 13.6895 5.14855 13.0156C5.14665 12.5638 5.14855 9.03928 5.14855 8.57227C5.14855 7.63333 5.92254 6.85957 6.86144 6.85938L6.86241 2.57129C6.86264 1.15264 8.01311 0.00120261 9.43175 0.000976562H14.5753ZM6.86241 8.57324C6.86119 8.57425 6.85917 8.57522 6.85851 8.57617C6.8585 9.06412 6.85664 12.5629 6.85851 13.0088C6.85968 13.2339 6.94995 13.4505 7.10851 13.6104C7.34724 13.851 8.08426 14.5867 8.67784 15.1797C9.15996 15.6615 9.4307 16.315 9.43077 16.9961V18.001C9.43129 18.4618 9.82831 18.8589 10.2892 18.8594H13.7179C14.1791 18.8594 14.5767 18.4621 14.5773 18.001V16.9961C14.5773 16.3151 14.8484 15.6614 15.3302 15.1797C15.9875 14.523 16.6495 13.8625 16.8995 13.6104C17.0581 13.4504 17.1474 13.2338 17.1485 13.0088C17.1504 12.5629 17.1486 9.06416 17.1485 8.57617L17.1427 8.57031H6.86437C6.86385 8.57103 6.86313 8.57254 6.86241 8.57324ZM9.43175 1.71289C8.95751 1.71312 8.57358 2.09705 8.57335 2.57129V6.85938H15.4347V2.57129C15.4345 2.09713 15.0494 1.71325 14.5753 1.71289H9.43175Z" fill="black"/>
</svg>
