<svg width="24" height="24" viewBox="0 0 24 24" fill="none" xmlns="http://www.w3.org/2000/svg">
<path fill-rule="evenodd" clip-rule="evenodd" d="M7.54343 0.858398C8.31548 0.858612 9.05609 1.16696 9.60203 1.71289C10.1479 2.25898 10.4555 3.00031 10.4555 3.77246V13.3721C10.4557 13.6906 10.5819 13.9964 10.8071 14.2217C10.9918 14.4062 11.2312 14.5228 11.4868 14.5596V11.3174C11.4868 9.99961 12.0111 8.7356 12.9428 7.80371C13.8747 6.87183 15.1386 6.3477 16.4565 6.34766C17.7744 6.34766 19.0383 6.87181 19.9702 7.80371C20.902 8.73561 21.4262 9.99953 21.4262 11.3174V16.7148C21.5384 16.803 21.6457 16.8981 21.7475 17C22.422 17.6747 22.8012 18.5899 22.8012 19.5439C22.801 20.4979 22.4221 21.4133 21.7475 22.0879C21.0729 22.7623 20.1575 23.1415 19.2036 23.1416C18.2497 23.1415 17.3342 22.7623 16.6596 22.0879C16.5591 21.9873 16.4666 21.8801 16.3794 21.7695H13.0278C12.6195 21.7694 12.2278 21.607 11.9389 21.3184C11.6501 21.0295 11.4869 20.637 11.4868 20.2285V16.2754C10.7769 16.2337 10.1038 15.937 9.59812 15.4316C9.05212 14.8856 8.74573 14.1442 8.74558 13.3721V3.77246C8.74558 3.45383 8.61823 3.14728 8.39304 2.92188C8.16779 2.69663 7.86196 2.57053 7.54343 2.57031C7.22461 2.57031 6.91829 2.69643 6.69285 2.92188C6.46745 3.14731 6.34128 3.45367 6.34128 3.77246V18.6875H7.54246L7.66257 18.6963C7.93788 18.7353 8.18034 18.9071 8.30711 19.1602L9.67918 21.9033C9.81141 22.1683 9.79677 22.4834 9.64109 22.7354C9.48536 22.987 9.21045 23.1404 8.91453 23.1406H2.05711C1.76098 23.1406 1.48541 22.9871 1.32957 22.7354C1.17388 22.4834 1.16009 22.1683 1.29246 21.9033L2.66355 19.1602L2.72507 19.0566C2.88316 18.8279 3.14512 18.6876 3.4282 18.6875H4.63035V3.77246C4.63035 3.00015 4.93778 2.25902 5.48386 1.71289C6.03 1.16676 6.77108 0.858398 7.54343 0.858398ZM19.2036 17.6562C18.703 17.6564 18.2226 17.855 17.8686 18.209C17.5149 18.563 17.3159 19.0435 17.3159 19.5439C17.3161 20.0444 17.5148 20.5251 17.8686 20.8789C18.2225 21.2326 18.7032 21.4315 19.2036 21.4316C19.704 21.4316 20.1846 21.2326 20.5386 20.8789C20.8924 20.5251 21.0911 20.0443 21.0913 19.5439C21.0913 19.0434 20.8924 18.563 20.5386 18.209C20.1846 17.855 19.7042 17.6563 19.2036 17.6562ZM3.44089 21.4307H7.53074L7.01414 20.3984H3.95652L3.44089 21.4307ZM16.4565 8.05859C15.5922 8.05864 14.763 8.4015 14.1518 9.0127C13.5408 9.62389 13.1977 10.4531 13.1977 11.3174V20.0596H15.643C15.6184 19.8898 15.605 19.7175 15.605 19.5439C15.605 18.5899 15.9852 17.6747 16.6596 17C17.3343 16.3254 18.2495 15.9454 19.2036 15.9453C19.376 15.9453 19.5476 15.9571 19.7163 15.9814V11.3174C19.7163 10.4531 19.3723 9.62391 18.7612 9.0127C18.15 8.40148 17.3209 8.05859 16.4565 8.05859Z" fill="black"/>
</svg>
