<svg width="24" height="24" viewBox="0 0 24 24" fill="none" xmlns="http://www.w3.org/2000/svg">
<path d="M9.42559 5.14453C9.8977 5.14464 10.2811 5.52786 10.2811 6V12C10.2811 12.4721 9.8977 12.8554 9.42559 12.8555C8.95338 12.8555 8.57012 12.4722 8.57012 12V6C8.57012 5.5278 8.95338 5.14453 9.42559 5.14453Z" fill="black"/>
<path d="M14.5682 5.14453C15.0404 5.14453 15.4236 5.5278 15.4236 6V12C15.4236 12.4722 15.0404 12.8555 14.5682 12.8555C14.096 12.8554 13.7127 12.4722 13.7127 12V6C13.7127 5.52781 14.096 5.14456 14.5682 5.14453Z" fill="black"/>
<path fill-rule="evenodd" clip-rule="evenodd" d="M17.2137 0.000976562C18.0989 0.00129941 18.8386 0.677891 18.9187 1.55957L20.242 16.1318C20.2511 16.1818 20.2576 16.2335 20.2576 16.2861C20.2576 16.2878 20.2567 16.2894 20.2566 16.291L20.4764 18.7021C20.5672 19.7045 19.7778 20.5692 18.7713 20.5693H18.5262L17.4539 22.7139C17.0602 23.5009 16.2549 23.9978 15.3748 23.998H8.61895C7.73888 23.9979 6.93363 23.5009 6.53984 22.7139L5.46758 20.5693H5.22051C4.21387 20.5693 3.42457 19.7046 3.51543 18.7021L5.07402 1.55957C5.1542 0.677691 5.89358 0.000976562 6.7791 0.000976562H17.2137ZM8.07012 21.9492C8.17431 22.1567 8.38672 22.288 8.61895 22.2881H15.3748C15.607 22.2879 15.8195 22.1567 15.9236 21.9492L16.6131 20.5693H7.38066L8.07012 21.9492ZM5.21855 18.8574L5.21953 18.8594H18.7723L18.7742 18.8574L18.618 17.1416H5.3748L5.21855 18.8574ZM17.2137 1.71289H6.7791L6.77813 1.71191L6.77617 1.71387L5.53008 15.4307H18.4627L17.2156 1.71484L17.2137 1.71289Z" fill="black"/>
</svg>
