<svg width="24" height="24" viewBox="0 0 24 24" fill="none" xmlns="http://www.w3.org/2000/svg">
<path fill-rule="evenodd" clip-rule="evenodd" d="M14.5742 1.71582C15.9928 1.7161 17.1433 2.86655 17.1436 4.28516V4.4375C17.4122 4.34215 17.7007 4.28813 18.002 4.28809H19.7168C20.1888 4.28829 20.5713 4.67148 20.5713 5.14355V8.57227C20.571 9.04405 20.1886 9.42655 19.7168 9.42676H18.002C17.7006 9.42671 17.4123 9.37078 17.1436 9.27539V10.2881H17.1455C20.9312 10.2884 24 13.3578 24 17.1436C23.9997 18.0888 23.2333 18.8553 22.2881 18.8555H21.4258C21.4256 20.7486 19.8905 22.2832 17.9971 22.2832C16.104 22.2831 14.5686 20.7485 14.5684 18.8555H9.42578C9.42557 20.7486 7.89034 22.2832 5.99707 22.2832C4.10392 22.2831 2.56857 20.7485 2.56836 18.8555C1.15199 18.8526 0.00416987 17.7032 0.00390625 16.2861V13.7148C0.00390625 11.3491 1.92233 9.43066 4.28809 9.43066H7.7168C10.0824 9.43081 12 11.3492 12 13.7148V14.5723C12.0005 15.9931 13.1524 17.1453 14.5732 17.1455H15.4326V11.1436C15.4326 11.1342 15.4333 11.1245 15.4336 11.1152V6.87695C15.4335 6.87045 15.4326 6.86394 15.4326 6.85742C15.4326 6.85074 15.4335 6.84358 15.4336 6.83691V4.28516C15.4334 3.81096 15.0484 3.42704 14.5742 3.42676H13.7168C13.2446 3.42676 12.8613 3.04349 12.8613 2.57129C12.8613 2.09909 13.2446 1.71582 13.7168 1.71582H14.5742ZM4.2793 18.8555C4.2795 19.8042 5.04839 20.5731 5.99707 20.5732C6.94587 20.5732 7.71464 19.8043 7.71484 18.8555H4.2793ZM16.2793 18.8555C16.2795 19.8042 17.0485 20.5731 17.9971 20.5732C18.946 20.5732 19.7146 19.8042 19.7148 18.8555H16.2793ZM4.28809 11.1416C2.86674 11.1416 1.71484 12.2935 1.71484 13.7148V16.2861C1.71511 16.7604 2.09902 17.1453 2.57324 17.1455H3.55469C3.55957 17.1454 3.56444 17.1445 3.56934 17.1445H8.4248L8.43652 17.1455H11.1494C10.6102 16.4292 10.2902 15.5379 10.29 14.5723V13.7148C10.29 12.2936 9.13801 11.1418 7.7168 11.1416H4.28809ZM17.1436 17.1445H20.4248L20.4365 17.1455H22.29V17.1436C22.29 14.3022 19.9868 11.9993 17.1455 11.999H17.1436V17.1445ZM18.002 5.99902C17.5277 5.99925 17.1438 6.38319 17.1436 6.85742C17.1438 7.33162 17.5277 7.71657 18.002 7.7168H18.8613V5.99902H18.002Z" fill="black"/>
<path d="M9.43164 6.00195C9.90349 6.00237 10.2861 6.38547 10.2861 6.85742C10.2859 7.32915 9.90333 7.71248 9.43164 7.71289H2.57422C2.10218 7.71289 1.71901 7.3294 1.71875 6.85742C1.71875 6.38522 2.10202 6.00195 2.57422 6.00195H9.43164Z" fill="black"/>
</svg>
