<svg width="24" height="24" viewBox="0 0 24 24" fill="none" xmlns="http://www.w3.org/2000/svg">
<path fill-rule="evenodd" clip-rule="evenodd" d="M15.4287 3.42969C16.8474 3.42982 17.9978 4.5813 17.998 6V7.27539L21.6113 5.72656C22.7411 5.24239 23.998 6.07162 23.998 7.30078V16.7002C23.9977 17.929 22.7409 18.7582 21.6113 18.2744L17.998 16.7246V18C17.9978 19.4187 16.8474 20.5692 15.4287 20.5693H2.57129C1.15267 20.5691 0.00221708 19.4186 0.00195312 18V6C0.00217923 4.58135 1.15264 3.42991 2.57129 3.42969H15.4287ZM2.57129 5.1416C2.09705 5.14183 1.71312 5.52576 1.71289 6V18C1.71315 18.4742 2.09707 18.8591 2.57129 18.8594H15.4287C15.903 18.8592 16.2878 18.4743 16.2881 18V15.4287C16.2882 15.1414 16.433 14.873 16.6729 14.7148C16.9127 14.5569 17.2155 14.5305 17.4795 14.6436L22.2852 16.7021H22.2871L22.2881 16.7012V7.29883L22.2852 7.29688L17.4795 9.35742C17.2156 9.47043 16.9126 9.44306 16.6729 9.28516C16.4332 9.12711 16.2884 8.85932 16.2881 8.57227V6C16.2879 5.5257 15.903 5.14173 15.4287 5.1416H2.57129Z" fill="black"/>
</svg>
