<svg width="24" height="24" viewBox="0 0 24 24" fill="none" xmlns="http://www.w3.org/2000/svg">
<path fill-rule="evenodd" clip-rule="evenodd" d="M10.6533 2.16694C12.3369 0.998871 14.6005 2.22905 14.5674 4.26265V19.7568C14.5224 21.7883 12.1666 22.99 10.499 21.833C10.4605 21.8062 10.4242 21.7758 10.3906 21.7431L4.79395 16.2939H2.56934C1.16119 16.2937 3.83319e-05 15.1258 0 13.7197V10.2812C0 8.87503 1.16117 7.70624 2.56934 7.70601H4.80078L10.5527 2.24995C10.5842 2.22015 10.6177 2.19164 10.6533 2.16694ZM12.8574 4.24214C12.8726 3.59772 12.192 3.22424 11.667 3.54878L5.72949 9.18159C5.57086 9.33206 5.36023 9.41573 5.1416 9.41597H2.56934C2.11044 9.41621 1.71094 9.81456 1.71094 10.2812V13.7197C1.71098 14.1863 2.11046 14.5837 2.56934 14.5839H5.1416L5.22461 14.5888C5.41667 14.6078 5.59784 14.6913 5.7373 14.8271L11.5146 20.4521C12.0589 20.7846 12.8428 20.375 12.8574 19.7187V4.24214Z" fill="black"/>
<path d="M20.1406 8.14448C20.6128 8.14448 20.9961 8.52775 20.9961 8.99995V11.1445H23.1406C23.6128 11.1445 23.9961 11.5277 23.9961 12C23.9961 12.4721 23.6128 12.8554 23.1406 12.8554H20.9961V15C20.9961 15.4721 20.6128 15.8554 20.1406 15.8554C19.6684 15.8554 19.2852 15.4721 19.2852 15V12.8554H17.1406C16.6684 12.8554 16.2852 12.4721 16.2852 12C16.2852 11.5277 16.6684 11.1445 17.1406 11.1445H19.2852V8.99995C19.2852 8.52775 19.6684 8.14448 20.1406 8.14448Z" fill="black"/>
</svg>
