<svg width="24" height="24" viewBox="0 0 24 24" fill="none" xmlns="http://www.w3.org/2000/svg">
<path fill-rule="evenodd" clip-rule="evenodd" d="M10.6553 2.16701C12.3388 0.998798 14.6025 2.22908 14.5693 4.26271V19.7568C14.5244 21.7885 12.1685 22.9903 10.501 21.833C10.4624 21.8062 10.4262 21.7759 10.3926 21.7432L4.7959 16.294H2.57129C1.16312 16.2937 0.00195312 15.1259 0.00195312 13.7197V10.2813C0.00196707 8.8751 1.16313 7.7063 2.57129 7.70607H4.80273L10.5547 2.25001C10.5861 2.22018 10.6197 2.19173 10.6553 2.16701ZM12.8594 4.2422C12.8745 3.59774 12.1939 3.22417 11.6689 3.54884L5.73145 9.18165C5.57275 9.33218 5.36227 9.41586 5.14355 9.41603H2.57129C2.1124 9.41627 1.71291 9.81463 1.71289 10.2813V13.7197C1.71289 14.1864 2.11239 14.5838 2.57129 14.584H5.14355L5.22656 14.5889C5.41872 14.6078 5.59973 14.6913 5.73926 14.8272L11.5166 20.4522C12.0609 20.7849 12.8448 20.3752 12.8594 19.7188V4.2422Z" fill="black"/>
<path d="M22.5381 8.82423C22.8719 8.4904 23.4132 8.49049 23.7471 8.82423C24.081 9.15813 24.081 9.69932 23.7471 10.0332L21.7803 12L23.7471 13.9668C24.081 14.3007 24.081 14.8419 23.7471 15.1758C23.4132 15.5097 22.872 15.5097 22.5381 15.1758L20.5713 13.209L18.6045 15.1758C18.2706 15.5097 17.7294 15.5097 17.3955 15.1758C17.0618 14.8419 17.0617 14.3007 17.3955 13.9668L19.3623 12L17.3955 10.0332C17.0616 9.69932 17.0616 9.15813 17.3955 8.82423C17.7294 8.49035 18.2706 8.49035 18.6045 8.82423L20.5713 10.791L22.5381 8.82423Z" fill="black"/>
</svg>
