<svg width="24" height="24" viewBox="0 0 24 24" fill="none" xmlns="http://www.w3.org/2000/svg">
<path fill-rule="evenodd" clip-rule="evenodd" d="M11.999 0.000976562C12.2257 0.00104159 12.4432 0.0926871 12.6035 0.25293L11.999 0.857422C12.6036 0.252846 12.6034 0.252776 12.6035 0.25293L12.6064 0.254883C12.6076 0.256208 12.6093 0.258698 12.6113 0.260742C12.6159 0.265287 12.6227 0.272012 12.6309 0.280273C12.6481 0.297644 12.6739 0.323598 12.7061 0.356445C12.7708 0.42253 12.8653 0.519388 12.9844 0.643555C13.2233 0.892712 13.5634 1.25415 13.9707 1.70215C14.7848 2.59768 15.8733 3.84821 16.9629 5.26465C18.0501 6.67813 19.1535 8.2753 19.9883 9.86133C20.8126 11.4278 21.4257 13.0769 21.4258 14.5713C21.4255 19.777 17.2048 23.9979 11.999 23.998C6.79318 23.998 2.57253 19.777 2.57227 14.5713C2.57238 13.0767 3.18627 11.4279 4.01074 9.86133C4.84557 8.27516 5.94878 6.67822 7.03613 5.26465C8.12572 3.8482 9.21326 2.59765 10.0273 1.70215C10.4348 1.25397 10.7747 0.892735 11.0137 0.643555C11.1329 0.519255 11.2272 0.422557 11.292 0.356445C11.3243 0.323444 11.35 0.297648 11.3672 0.280273L11.3945 0.25293C11.5548 0.0926189 11.7723 0.00101341 11.999 0.000976562ZM11.293 2.85254C10.5 3.72482 9.44467 4.93863 8.3916 6.30762C7.33621 7.67964 6.29568 9.18999 5.52344 10.6572C4.74115 12.1436 4.28332 13.4948 4.2832 14.5713C4.28347 18.8326 7.73759 22.288 11.999 22.2881C16.2604 22.288 19.7156 18.8326 19.7158 14.5713C19.7157 13.4948 19.2568 12.1436 18.4746 10.6572C17.7025 9.19022 16.6626 7.67946 15.6074 6.30762C14.5546 4.93891 13.499 3.72479 12.7061 2.85254C12.4364 2.55594 12.1965 2.29905 11.999 2.08984C11.8015 2.29906 11.5626 2.5559 11.293 2.85254Z" fill="black"/>
</svg>
