<svg width="24" height="24" viewBox="0 0 24 24" fill="none" xmlns="http://www.w3.org/2000/svg">
<path fill-rule="evenodd" clip-rule="evenodd" d="M20.1748 16.1797C20.4323 16.2049 20.6444 16.3114 20.7891 16.4023C20.9648 16.5129 21.1241 16.6537 21.2607 16.7949C21.5352 17.0786 21.7995 17.4448 22.0264 17.8232C22.2554 18.2055 22.4645 18.6302 22.6182 19.0439C22.7666 19.4437 22.8877 19.8959 22.8877 20.3154C22.8875 21.0647 22.5893 21.7836 22.0596 22.3135C21.5298 22.8433 20.8107 23.1413 20.0615 23.1416C19.3122 23.1416 18.5925 22.8432 18.0625 22.3135C17.5327 21.7836 17.2345 21.0647 17.2344 20.3154C17.2344 19.8963 17.3555 19.4445 17.5039 19.0449C17.6576 18.6313 17.8666 18.2066 18.0957 17.8242C18.3227 17.4455 18.5868 17.0789 18.8613 16.7949C18.998 16.6536 19.1563 16.513 19.332 16.4023C19.4976 16.2982 19.7521 16.1738 20.0615 16.1738L20.1748 16.1797ZM20.0615 18.0166C19.9113 18.1787 19.7345 18.416 19.5625 18.7031C19.381 19.006 19.2196 19.3362 19.1064 19.6406C18.9883 19.9588 18.9453 20.1904 18.9453 20.3154C18.9455 20.6112 19.0624 20.8953 19.2715 21.1045C19.4808 21.3135 19.7657 21.4316 20.0615 21.4316C20.3572 21.4314 20.6415 21.3136 20.8506 21.1045C21.0597 20.8953 21.1776 20.6112 21.1777 20.3154C21.1777 20.1895 21.1338 19.9568 21.0156 19.6387C20.9026 19.3344 20.7408 19.0046 20.5596 18.7021C20.3879 18.4159 20.2115 18.1784 20.0615 18.0166Z" fill="black"/>
<path fill-rule="evenodd" clip-rule="evenodd" d="M14.916 0.858398C15.3882 0.858398 15.7715 1.24264 15.7715 1.71484C15.7712 2.18682 15.3881 2.57031 14.916 2.57031H11.6592V4.36328C12.6578 4.53888 13.5868 5.01744 14.3135 5.74414C14.5009 5.93163 14.6717 6.13264 14.8252 6.34473H17.6572C18.9751 6.34479 20.24 6.86891 21.1719 7.80078C22.1034 8.73264 22.6269 9.99682 22.627 11.3145V14.0576C22.6266 14.5293 22.2441 14.9117 21.7725 14.9121H18.3457C17.8739 14.9119 17.4916 14.5294 17.4912 14.0576V12.6855C17.4911 12.5489 17.4364 12.417 17.3398 12.3203C17.2431 12.2237 17.1114 12.17 16.9746 12.1699H14.8252C14.6716 12.3821 14.5011 12.5839 14.3135 12.7715C13.3816 13.7033 12.1176 14.2275 10.7998 14.2275C9.48205 14.2275 8.21801 13.7032 7.28613 12.7715C7.09861 12.584 6.92797 12.3821 6.77441 12.1699H3.42969V16.8008C3.42937 17.2725 3.046 17.655 2.57422 17.6553C2.10221 17.6553 1.71809 17.2727 1.71777 16.8008V1.71484C1.71777 1.24264 2.10202 0.858398 2.57422 0.858398C3.0462 0.858662 3.42969 1.2428 3.42969 1.71484V6.34473H6.77441C6.92793 6.13263 7.09866 5.93163 7.28613 5.74414C8.01488 5.01539 8.9464 4.53572 9.94824 4.36133V2.57031H6.85938C6.38733 2.57031 6.00417 2.18682 6.00391 1.71484C6.00391 1.24264 6.38717 0.858398 6.85938 0.858398H14.916ZM15.6211 8.05566C15.7184 8.44555 15.7695 8.84926 15.7695 9.25781C15.7695 9.66653 15.7185 10.07 15.6211 10.46H16.9746C17.5649 10.46 18.1314 10.694 18.5488 11.1113C18.966 11.5287 19.2011 12.0954 19.2012 12.6855V13.2021H20.917V11.3145C20.917 10.4502 20.5729 9.62096 19.9619 9.00977C19.3508 8.39874 18.5214 8.05573 17.6572 8.05566H15.6211ZM10.7998 5.99902C9.9354 5.99904 9.10634 6.3419 8.49512 6.95312C8.30417 7.14409 8.13922 7.35606 8.00293 7.58398C7.99504 7.59964 7.98634 7.61479 7.97754 7.62988C7.69462 8.12081 7.54103 8.68131 7.54102 9.25781C7.5411 9.82567 7.68994 10.3777 7.96484 10.8633C7.97845 10.8852 7.9913 10.9075 8.00293 10.9307C8.13925 11.1586 8.30412 11.3715 8.49512 11.5625C9.10631 12.1735 9.93557 12.5176 10.7998 12.5176C11.6641 12.5175 12.4933 12.1736 13.1045 11.5625C13.7156 10.9514 14.0594 10.1221 14.0596 9.25781C14.0596 8.39358 13.7155 7.56432 13.1045 6.95312C12.4933 6.34198 11.6641 5.99909 10.7998 5.99902ZM3.42969 10.459H5.97754C5.88032 10.0693 5.83012 9.66616 5.83008 9.25781C5.83008 8.8493 5.88028 8.44551 5.97754 8.05566H3.42969V10.459Z" fill="black"/>
</svg>
