<svg width="24" height="24" viewBox="0 0 24 24" fill="none" xmlns="http://www.w3.org/2000/svg">
<path d="M18.0005 17.5732C18.4727 17.5732 18.856 17.9565 18.856 18.4287C18.856 19.6132 19.8162 20.5729 21.0005 20.5732C21.6009 20.5732 22.1426 20.3279 22.5328 19.9297C22.863 19.5926 23.4044 19.5871 23.7417 19.917C24.0791 20.2474 24.0849 20.7896 23.7544 21.127C23.0558 21.84 22.0789 22.2842 21.0005 22.2842C19.7884 22.284 18.7071 21.7235 18.0005 20.8486C17.2938 21.7234 16.2127 22.2842 15.0005 22.2842C13.7884 22.284 12.7071 21.7235 12.0005 20.8486C11.2938 21.7234 10.2127 22.2842 9.00053 22.2842C7.7884 22.284 6.7071 21.7235 6.00053 20.8486C5.29384 21.7234 4.21271 22.2842 3.00053 22.2842C1.92249 22.284 0.946174 21.8398 0.2476 21.127C-0.082646 20.7897 -0.0777602 20.2474 0.259319 19.917C0.59648 19.5868 1.13783 19.5928 1.4683 19.9297C1.85845 20.3279 2.40039 20.5731 3.00053 20.5732C4.18518 20.5732 5.14604 19.6134 5.14604 18.4287C5.14604 17.9567 5.5286 17.5736 6.00053 17.5732C6.47273 17.5732 6.856 17.9565 6.856 18.4287C6.856 19.6132 7.81616 20.5729 9.00053 20.5732C10.1852 20.5732 11.146 19.6134 11.146 18.4287C11.146 17.9567 11.5286 17.5736 12.0005 17.5732C12.4727 17.5732 12.856 17.9565 12.856 18.4287C12.856 19.6132 13.8162 20.5729 15.0005 20.5732C16.1852 20.5732 17.146 19.6134 17.146 18.4287C17.146 17.9567 17.5286 17.5736 18.0005 17.5732Z" fill="black"/>
<path d="M18.0005 10.7158C18.4727 10.7158 18.856 11.0991 18.856 11.5713C18.856 12.7557 19.8162 13.7155 21.0005 13.7158C21.6009 13.7158 22.1426 13.4705 22.5328 13.0723C22.863 12.7351 23.4044 12.7296 23.7417 13.0596C24.0791 13.39 24.0849 13.9322 23.7544 14.2695C23.0558 14.9825 22.0789 15.4268 21.0005 15.4268C19.7884 15.4266 18.7071 14.8661 18.0005 13.9912C17.2938 14.866 16.2127 15.4268 15.0005 15.4268C13.7884 15.4266 12.7071 14.8661 12.0005 13.9912C11.2938 14.866 10.2127 15.4268 9.00053 15.4268C7.7884 15.4266 6.7071 14.8661 6.00053 13.9912C5.29384 14.866 4.21271 15.4268 3.00053 15.4268C1.92249 15.4266 0.946174 14.9824 0.2476 14.2695C-0.082646 13.9323 -0.0777602 13.39 0.259319 13.0596C0.59648 12.7293 1.13783 12.7354 1.4683 13.0723C1.85845 13.4705 2.40039 13.7157 3.00053 13.7158C4.18518 13.7158 5.14604 12.7559 5.14604 11.5713C5.14604 11.0993 5.5286 10.7161 6.00053 10.7158C6.47273 10.7158 6.856 11.0991 6.856 11.5713C6.856 12.7557 7.81616 13.7155 9.00053 13.7158C10.1852 13.7158 11.146 12.7559 11.146 11.5713C11.146 11.0993 11.5286 10.7161 12.0005 10.7158C12.4727 10.7158 12.856 11.0991 12.856 11.5713C12.856 12.7557 13.8162 13.7155 15.0005 13.7158C16.1852 13.7158 17.146 12.7559 17.146 11.5713C17.146 11.0993 17.5286 10.7161 18.0005 10.7158Z" fill="black"/>
<path d="M12.0015 0.000976562C12.4735 0.00119568 12.857 0.385353 12.857 0.857422V5.64941L13.9673 4.53906C14.3012 4.20521 14.8424 4.2053 15.1763 4.53906C15.5102 4.87296 15.5102 5.41416 15.1763 5.74805L12.606 8.31836C12.5856 8.33874 12.5639 8.35773 12.5415 8.37598C12.4346 8.46358 12.3115 8.52092 12.1831 8.54883C12.1789 8.54975 12.1747 8.5509 12.1705 8.55176C12.1163 8.56267 12.0614 8.56801 12.0064 8.56836L12.0005 8.56934C11.9436 8.56931 11.8867 8.56311 11.8306 8.55176C11.8263 8.5509 11.8222 8.54975 11.8179 8.54883C11.6635 8.51511 11.5161 8.43938 11.396 8.31934L8.82475 5.74805C8.49101 5.4143 8.49132 4.873 8.82475 4.53906C9.15865 4.20516 9.69984 4.20516 10.0337 4.53906L11.146 5.65137V0.857422C11.146 0.385218 11.5293 0.000976562 12.0015 0.000976562Z" fill="black"/>
</svg>
