<svg width="24" height="24" viewBox="0 0 24 24" fill="none" xmlns="http://www.w3.org/2000/svg">
<path fill-rule="evenodd" clip-rule="evenodd" d="M13.1133 0.000976562C15.309 0.00369726 17.4142 0.879012 18.9668 2.43164C20.5192 3.98431 21.3929 6.08951 21.3955 8.28516V9.0293C21.3953 9.64965 21.1486 10.2449 20.71 10.6836C20.271 11.1224 19.6753 11.3691 19.0547 11.3691C18.4341 11.3691 17.8383 11.1224 17.3994 10.6836C16.9609 10.2449 16.7141 9.64961 16.7139 9.0293V8.28613C16.7139 7.331 16.3344 6.41475 15.6592 5.73926C14.9837 5.06382 14.0675 4.6837 13.1123 4.68359C12.157 4.68363 11.24 5.06375 10.5645 5.73926C9.88934 6.41473 9.50977 7.3311 9.50977 8.28613V16.3447H11.623C12.0951 16.3449 12.4775 16.7281 12.4775 17.2002C12.4775 17.6723 12.0951 18.0555 11.623 18.0557H9.50977V18.374C10.3042 18.764 10.9921 19.3482 11.5068 20.0762C12.1408 20.9731 12.4815 22.0452 12.4814 23.1436C12.481 23.6153 12.0979 23.998 11.626 23.998H2.71191C2.24007 23.998 1.85694 23.6153 1.85645 23.1436C1.85636 22.0451 2.19797 20.9731 2.83203 20.0762C3.34663 19.3484 4.03387 18.764 4.82812 18.374V8.28516C4.83075 6.08961 5.70454 3.98429 7.25684 2.43164C8.80952 0.87896 10.9155 0.00363896 13.1113 0.000976562H13.1133ZM13.1113 1.71289C11.3689 1.71544 9.69794 2.40851 8.46582 3.64062C7.23371 4.87308 6.54017 6.54437 6.53809 8.28711V18.9404C6.53788 19.3025 6.31008 19.6263 5.96875 19.7471C5.26651 19.9954 4.65756 20.4553 4.22754 21.0635C3.96509 21.4349 3.77864 21.8513 3.67188 22.2881H10.667C10.5602 21.8511 10.3729 21.435 10.1104 21.0635C9.68038 20.4553 9.07226 19.9954 8.37012 19.7471C8.02866 19.6263 7.80001 19.3026 7.7998 18.9404V17.2705C7.79791 17.2473 7.7959 17.2239 7.7959 17.2002C7.7959 17.1765 7.79791 17.1531 7.7998 17.1299V8.28613C7.7998 6.87741 8.35944 5.52549 9.35547 4.5293C10.3516 3.53318 11.7035 2.97367 13.1123 2.97363C14.5209 2.97374 15.8721 3.53331 16.8682 4.5293C17.8643 5.5255 18.4238 6.87735 18.4238 8.28613V9.0293C18.4241 9.19609 18.4905 9.35658 18.6084 9.47461C18.7266 9.59273 18.8876 9.65913 19.0547 9.65918C19.2218 9.65918 19.3827 9.5927 19.501 9.47461C19.6189 9.35657 19.6853 9.19613 19.6855 9.0293V8.28711L19.6768 7.96094C19.5943 6.33689 18.913 4.79602 17.7578 3.64062C16.5254 2.4082 14.8542 1.71509 13.1113 1.71289Z" fill="black"/>
<path fill-rule="evenodd" clip-rule="evenodd" d="M19.1855 12.6455C19.3305 12.6719 19.4344 12.7277 19.4785 12.7529C19.5543 12.7962 19.6128 12.8435 19.6494 12.875C19.7239 12.9392 19.7901 13.0113 19.8408 13.0703C19.9465 13.1933 20.0639 13.3519 20.1826 13.5234C20.4237 13.8717 20.7137 14.3378 20.9922 14.8379C21.2704 15.3375 21.5475 15.8898 21.7578 16.4072C21.9556 16.8938 22.1406 17.4584 22.1406 17.9434C22.1403 19.5434 20.7488 21.0273 19.0518 21.0273C17.3484 21.0273 16.001 19.6218 15.9736 17.957C15.9735 17.9517 15.9727 17.9458 15.9727 17.9404C15.9746 17.4623 16.1533 16.9021 16.3457 16.415C16.5498 15.8985 16.8188 15.3472 17.0889 14.8477C17.3592 14.3477 17.6401 13.881 17.875 13.5322C17.9907 13.3605 18.106 13.201 18.21 13.0771C18.2598 13.0178 18.3259 12.9452 18.4004 12.8799C18.4371 12.8477 18.4957 12.7991 18.5723 12.7549C18.6328 12.72 18.7986 12.6308 19.0273 12.6309L19.1855 12.6455ZM19.0352 14.8916C18.8949 15.1207 18.743 15.3833 18.5928 15.6611C18.3435 16.1221 18.1071 16.6089 17.9355 17.043C17.7524 17.5064 17.6841 17.8116 17.6836 17.9473C17.7056 18.7105 18.3273 19.3174 19.0518 19.3174C19.7759 19.3174 20.4304 18.6278 20.4307 17.9434C20.4307 17.8145 20.3623 17.5145 20.1738 17.0508C19.9978 16.6177 19.7547 16.1309 19.498 15.6699C19.3412 15.3883 19.1813 15.1231 19.0352 14.8916Z" fill="black"/>
</svg>
