<svg width="24" height="24" viewBox="0 0 24 24" fill="none" xmlns="http://www.w3.org/2000/svg">
<path d="M17.9986 17.5732C18.4708 17.5732 18.854 17.9565 18.854 18.4287C18.854 19.6132 19.8141 20.573 20.9986 20.5732C21.599 20.5732 22.1406 20.328 22.5308 19.9297C22.8611 19.5925 23.4025 19.5869 23.7398 19.917C24.0771 20.2474 24.0829 20.7896 23.7525 21.127C23.0538 21.84 22.077 22.2842 20.9986 22.2842C19.7863 22.2841 18.7052 21.7236 17.9986 20.8486C17.2919 21.7235 16.2108 22.2842 14.9986 22.2842C13.7863 22.2841 12.7052 21.7236 11.9986 20.8486C11.2919 21.7235 10.2108 22.2842 8.99858 22.2842C7.78635 22.2841 6.70519 21.7236 5.99858 20.8486C5.29189 21.7235 4.21081 22.2842 2.99858 22.2842C1.92044 22.2841 0.944273 21.8398 0.245647 21.127C-0.0847606 20.7897 -0.0798774 20.2474 0.257366 19.917C0.594568 19.5867 1.13589 19.5927 1.46635 19.9297C1.85655 20.328 2.39834 20.5731 2.99858 20.5732C4.18323 20.5732 5.14408 19.6134 5.14408 18.4287C5.14408 17.9566 5.52654 17.5734 5.99858 17.5732C6.47078 17.5732 6.85405 17.9565 6.85405 18.4287C6.85405 19.6132 7.81409 20.573 8.99858 20.5732C10.1832 20.5732 11.1441 19.6134 11.1441 18.4287C11.1441 17.9566 11.5265 17.5734 11.9986 17.5732C12.4708 17.5732 12.854 17.9565 12.854 18.4287C12.854 19.6132 13.8141 20.573 14.9986 20.5732C16.1832 20.5732 17.1441 19.6134 17.1441 18.4287C17.1441 17.9566 17.5265 17.5734 17.9986 17.5732Z" fill="black"/>
<path d="M17.9986 10.7158C18.4708 10.7158 18.854 11.0991 18.854 11.5713C18.854 12.7558 19.8141 13.7156 20.9986 13.7158C21.599 13.7158 22.1406 13.4706 22.5308 13.0723C22.8611 12.7351 23.4025 12.7295 23.7398 13.0596C24.0771 13.39 24.0829 13.9322 23.7525 14.2695C23.0538 14.9826 22.077 15.4268 20.9986 15.4268C19.7863 15.4266 18.7052 14.8662 17.9986 13.9912C17.2919 14.8661 16.2108 15.4268 14.9986 15.4268C13.7863 15.4266 12.7052 14.8662 11.9986 13.9912C11.2919 14.8661 10.2108 15.4268 8.99858 15.4268C7.78635 15.4266 6.70519 14.8662 5.99858 13.9912C5.29189 14.8661 4.21081 15.4268 2.99858 15.4268C1.92044 15.4267 0.944273 14.9824 0.245647 14.2695C-0.0847606 13.9322 -0.0798774 13.39 0.257366 13.0596C0.594568 12.7293 1.13589 12.7353 1.46635 13.0723C1.85655 13.4705 2.39834 13.7157 2.99858 13.7158C4.18323 13.7158 5.14408 12.7559 5.14408 11.5713C5.14408 11.0992 5.52654 10.716 5.99858 10.7158C6.47078 10.7158 6.85405 11.0991 6.85405 11.5713C6.85405 12.7558 7.81409 13.7156 8.99858 13.7158C10.1832 13.7158 11.1441 12.7559 11.1441 11.5713C11.1441 11.0992 11.5265 10.716 11.9986 10.7158C12.4708 10.7158 12.854 11.0991 12.854 11.5713C12.854 12.7558 13.8141 13.7156 14.9986 13.7158C16.1832 13.7158 17.1441 12.7559 17.1441 11.5713C17.1441 11.0992 17.5265 10.716 17.9986 10.7158Z" fill="black"/>
<path d="M11.9986 0.000976562C12.1884 0.000976562 12.3635 0.0642343 12.5054 0.168945C12.5179 0.178147 12.5305 0.187301 12.5425 0.197266C12.5705 0.220324 12.5968 0.245115 12.6216 0.271484L15.1744 2.82422C15.5081 3.15813 15.5082 3.69935 15.1744 4.0332C14.8405 4.36664 14.2991 4.36682 13.9654 4.0332L12.854 2.92188V7.71484C12.8536 8.18669 12.4705 8.56934 11.9986 8.56934C11.5268 8.56916 11.1435 8.18659 11.1431 7.71484V2.92188L10.0318 4.0332C9.6979 4.36671 9.15659 4.36684 8.8228 4.0332C8.48908 3.69941 8.48927 3.15812 8.8228 2.82422L11.3824 0.263672C11.538 0.102017 11.7567 0.00106718 11.9986 0.000976562Z" fill="black"/>
</svg>
