<svg width="24" height="24" viewBox="0 0 24 24" fill="none" xmlns="http://www.w3.org/2000/svg">
<path fill-rule="evenodd" clip-rule="evenodd" d="M17.9395 0.373047C18.7572 0.373101 19.5419 0.69911 20.1201 1.27734C20.4918 1.6491 20.7574 2.10628 20.9004 2.60254H22.3965C22.8687 2.60254 23.252 2.9858 23.252 3.45801C23.2517 3.92999 22.8685 4.31348 22.3965 4.31348H21.0225V10.8867C21.0223 12.6893 20.3068 14.4187 19.0322 15.6934C17.9618 16.7637 16.5699 17.4375 15.084 17.627V18.9453H21.0752L19.5635 17.4336C19.2297 17.0997 19.2297 16.5585 19.5635 16.2246C19.8973 15.8908 20.4386 15.8908 20.7725 16.2246L23.7061 19.1582C23.8845 19.315 23.998 19.5448 23.998 19.8008C23.9979 20.0514 23.8888 20.2762 23.7168 20.4326L20.7725 23.377C20.4386 23.7104 19.8973 23.7105 19.5635 23.377C19.2297 23.0431 19.2297 22.5009 19.5635 22.167L21.0732 20.6562H15.084V22.7715C15.084 23.2437 14.7007 23.627 14.2285 23.627C13.7563 23.627 13.373 23.2437 13.373 22.7715V20.6562H2.34277C1.87073 20.6562 1.48757 20.2728 1.4873 19.8008C1.4873 19.3286 1.87057 18.9453 2.34277 18.9453H13.373V17.6279C11.8845 17.4398 10.4902 16.7655 9.41797 15.6934C8.34675 14.6221 7.67128 13.2293 7.48242 11.7422H0.855469C0.628854 11.7421 0.411251 11.6514 0.250977 11.4912C0.0907829 11.331 0.000130034 11.1133 0 10.8867C2.95509e-05 9.47806 0.560676 8.12702 1.55664 7.13086C2.55278 6.13472 3.90376 5.57431 5.3125 5.57422C6.72137 5.57422 8.07312 6.13464 9.06934 7.13086C9.79098 7.85269 10.2825 8.76081 10.499 9.74219C12.2758 9.09523 13.2971 8.35259 13.9023 7.50977C14.6109 6.52283 14.8554 5.25778 14.8555 3.45801C14.8555 2.6403 15.1806 1.85559 15.7588 1.27734C16.3371 0.699106 17.1217 0.373047 17.9395 0.373047ZM17.9395 2.08496C17.5752 2.08496 17.2254 2.22878 16.9678 2.48633C16.7103 2.74389 16.5654 3.09382 16.5654 3.45801C16.5654 5.37206 16.3156 7.07969 15.291 8.50684C14.2661 9.9341 12.5715 10.9387 10.0137 11.7061C10.0064 11.7082 9.99849 11.708 9.99121 11.71C9.96474 11.7171 9.93828 11.7239 9.91113 11.7285C9.90234 11.73 9.89355 11.7312 9.88477 11.7324C9.8468 11.7376 9.80828 11.7422 9.76953 11.7422H9.21191C9.38788 12.7738 9.8772 13.7345 10.627 14.4844C11.5787 15.436 12.8693 15.971 14.2148 15.9736H14.2383C15.5825 15.97 16.8714 15.435 17.8223 14.4844C18.7763 13.5304 19.3123 12.2359 19.3125 10.8867V3.45801C19.3125 3.09388 19.1675 2.74388 18.9102 2.48633C18.6527 2.22908 18.3034 2.08502 17.9395 2.08496ZM5.3125 7.28516C4.35728 7.28525 3.44107 7.66439 2.76562 8.33984C2.29568 8.80993 1.96965 9.39703 1.81445 10.0322H8.26074C8.26785 10.0321 8.27508 10.0312 8.28223 10.0312C8.28713 10.0313 8.29199 10.0321 8.29688 10.0322H8.81055C8.65532 9.39694 8.32944 8.80996 7.85938 8.33984C7.18385 7.66438 6.26779 7.28516 5.3125 7.28516Z" fill="black"/>
</svg>
