<svg width="24" height="24" viewBox="0 0 24 24" fill="none" xmlns="http://www.w3.org/2000/svg">
<path d="M6 15.4307C6.4722 15.4307 6.85547 15.8139 6.85547 16.2861V18C6.85521 18.472 6.47204 18.8555 6 18.8555C5.52796 18.8555 5.14479 18.472 5.14453 18V16.2861C5.14453 15.8139 5.5278 15.4307 6 15.4307Z" fill="black"/>
<path d="M18 16.2881C18.472 16.2884 18.8555 16.6715 18.8555 17.1436C18.8552 17.6154 18.4718 17.9988 18 17.999H10.2861C9.81409 17.999 9.43093 17.6155 9.43066 17.1436C9.43066 16.6714 9.81393 16.2881 10.2861 16.2881H18Z" fill="black"/>
<path fill-rule="evenodd" clip-rule="evenodd" d="M18.0215 0.00195429C18.4935 0.00274499 18.8755 0.386406 18.875 0.8584L18.8564 12.002H21.4287C22.8474 12.0021 23.9978 13.1526 23.998 14.5713V19.7148C23.9976 21.1334 22.8473 22.284 21.4287 22.2842H19.7129V23.1426C19.7129 23.6147 19.3295 23.9979 18.8574 23.998C18.3852 23.998 18.002 23.6148 18.002 23.1426V22.2842H5.99805V23.1426C5.99805 23.6148 5.61478 23.998 5.14258 23.998C4.67049 23.9979 4.28711 23.6147 4.28711 23.1426V22.2842H2.57129C1.15276 22.284 0.0023675 21.1333 0.00195312 19.7148V14.5713C0.00217911 13.1526 1.15264 12.0022 2.57129 12.002H6.00195V6C6.00195 5.5278 6.38522 5.14453 6.85742 5.14453C7.32951 5.14466 7.71289 5.52788 7.71289 6V12.002H17.1455L17.165 0.856446C17.1658 0.384256 17.5493 0.00118381 18.0215 0.00195429ZM2.57129 13.7129C2.09705 13.7131 1.71312 14.0971 1.71289 14.5713V19.7148C1.7133 20.1889 2.09717 20.574 2.57129 20.5742H5.125C5.13085 20.5741 5.1367 20.5732 5.14258 20.5732C5.14838 20.5732 5.15439 20.5741 5.16016 20.5742H18.8398C18.8456 20.5741 18.8516 20.5732 18.8574 20.5732C18.8633 20.5732 18.8691 20.5741 18.875 20.5742H21.4287C21.9029 20.5741 22.2877 20.189 22.2881 19.7148V14.5713C22.2879 14.097 21.903 13.713 21.4287 13.7129H2.57129Z" fill="black"/>
</svg>
