<svg width="24" height="24" viewBox="0 0 24 24" fill="none" xmlns="http://www.w3.org/2000/svg">
<path fill-rule="evenodd" clip-rule="evenodd" d="M0.856201 0.000976562C1.32827 0.00113698 1.71167 0.385317 1.71167 0.857422V7.43066L5.16577 5.12793C5.60281 4.70036 6.18944 4.45908 6.80151 4.45898H18.6873C20.096 4.45906 21.4479 5.01947 22.4441 6.01562C23.44 7.01178 23.9997 8.36285 23.9998 9.77148C23.9998 11.1803 23.4402 12.5321 22.4441 13.5283C21.448 14.5244 20.096 15.0839 18.6873 15.084H6.80151C6.18824 15.0839 5.60016 14.8422 5.16284 14.4131L1.71167 12.1123V23.1436C1.71118 23.6152 1.32797 23.9979 0.856201 23.998C0.3843 23.998 0.00122176 23.6153 0.000732422 23.1436V0.857422C0.000732422 0.385218 0.383998 0.000976562 0.856201 0.000976562ZM6.80151 6.16992C6.63444 6.17002 6.47438 6.23639 6.3562 6.35449C6.23801 6.47269 6.17173 6.63266 6.17163 6.7998V12.7432C6.17167 12.9104 6.23795 13.0712 6.3562 13.1895C6.47435 13.3073 6.63462 13.3739 6.80151 13.374H8.91382V6.16992H6.80151ZM10.6248 13.374H13.3728V6.16992H10.6248V13.374ZM15.0837 13.374H17.8259V6.16992H15.0837V13.374ZM19.5369 13.2715C20.1744 13.1166 20.7637 12.7897 21.2351 12.3184C21.9103 11.6429 22.2898 10.7266 22.2898 9.77148C22.2898 8.81637 21.9104 7.90008 21.2351 7.22461C20.7637 6.7532 20.1744 6.42611 19.5369 6.27148V13.2715ZM1.71167 9.48535V10.0566L4.46069 11.8887V7.65234L1.71167 9.48535Z" fill="black"/>
</svg>
