<svg width="24" height="24" viewBox="0 0 24 24" fill="none" xmlns="http://www.w3.org/2000/svg">
<path fill-rule="evenodd" clip-rule="evenodd" d="M19.7109 0.000976562C21.1297 0.00110851 22.28 1.15259 22.2803 2.57129V21.4287C22.28 22.8474 21.1296 23.9979 19.7109 23.998H4.28223C2.8636 23.9978 1.71315 22.8473 1.71289 21.4287V2.57129C1.71312 1.15264 2.86358 0.00120267 4.28223 0.000976562H19.7109ZM12.8525 12.8555V22.2881H19.7109C20.1852 22.288 20.57 21.903 20.5703 21.4287V12.8555H12.8525ZM3.42383 21.4287C3.42409 21.9029 3.80801 22.2879 4.28223 22.2881H11.1416V12.8555H3.42383V21.4287ZM12.8525 11.1445H20.5703V2.57129C20.5701 2.09699 20.1853 1.71302 19.7109 1.71289H12.8525V11.1445ZM4.28223 1.71289C3.80799 1.71312 3.42405 2.09705 3.42383 2.57129V11.1445H11.1416V1.71289H4.28223Z" fill="black"/>
</svg>
