<svg width="24" height="24" viewBox="0 0 24 24" fill="none" xmlns="http://www.w3.org/2000/svg">
<path d="M19.7146 20.5732C20.1866 20.5734 20.5691 20.9566 20.5691 21.4287C20.5691 22.8476 19.4186 23.9979 17.9998 23.998H5.99977C4.58099 23.9978 3.43044 22.8475 3.43044 21.4287C3.43044 20.9565 3.8137 20.5732 4.28591 20.5732C4.758 20.5734 5.14137 20.9566 5.14137 21.4287C5.14137 21.9031 5.52539 22.2879 5.99977 22.2881H17.9998C18.4742 22.288 18.8591 21.9032 18.8591 21.4287C18.8591 20.9565 19.2424 20.5732 19.7146 20.5732Z" fill="black"/>
<path fill-rule="evenodd" clip-rule="evenodd" d="M18.1648 0.000976562C19.4844 0.00145793 20.5892 1.0033 20.7205 2.31641L22.0925 16.0303C22.2434 17.5423 21.0555 18.8551 19.5359 18.8555H4.46755C2.94765 18.8555 1.75993 17.5426 1.91091 16.0303L3.282 2.31641C3.41334 1.00298 4.51867 0.000976562 5.83864 0.000976562H18.1648ZM5.83864 1.71289C5.39718 1.71289 5.0271 2.04706 4.98317 2.48633L3.61208 16.2002C3.56177 16.7059 3.95932 17.1455 4.46755 17.1455H19.5359C20.0438 17.1452 20.4406 16.7056 20.3904 16.2002L19.0193 2.48633C18.9754 2.04738 18.6058 1.71337 18.1648 1.71289H5.83864Z" fill="black"/>
</svg>
