<svg width="24" height="24" viewBox="0 0 24 24" fill="none" xmlns="http://www.w3.org/2000/svg">
<path fill-rule="evenodd" clip-rule="evenodd" d="M21.4316 1.71582C22.8505 1.71582 24.0008 2.86638 24.001 4.28516V19.7139C24.001 21.1329 22.8506 22.2832 21.4316 22.2832H2.57422C1.15555 22.2828 0.00488281 21.1327 0.00488281 19.7139V4.28516C0.00510878 2.86659 1.15568 1.71618 2.57422 1.71582H21.4316ZM1.71582 8.55957V19.7139C1.71582 20.1882 2.09994 20.5729 2.57422 20.5732H21.4316C21.9062 20.5732 22.291 20.1885 22.291 19.7139V8.55957H1.71582ZM2.57422 3.42676C2.10009 3.42712 1.71605 3.811 1.71582 4.28516V6.84863H22.291V4.28516C22.2908 3.81077 21.9061 3.42676 21.4316 3.42676H2.57422Z" fill="black"/>
</svg>
