<svg width="24" height="24" viewBox="0 0 24 24" fill="none" xmlns="http://www.w3.org/2000/svg">
<path d="M9.8877 0.601562C10.3008 0.601627 10.6972 0.767473 10.9893 1.05957C11.2811 1.35168 11.4453 1.74818 11.4453 2.16113V2.26465C11.4453 3.66285 11.5765 5.05869 11.8359 6.43262C11.9232 6.89632 11.6179 7.3439 11.1543 7.43164C10.6905 7.51922 10.2431 7.21371 10.1553 6.75C9.87911 5.28736 9.7393 3.80189 9.73633 2.31348H8.63281C8.62697 5.1177 8.13504 7.90046 7.17676 10.5361C7.09351 10.7651 7.01414 10.9953 6.93848 11.2266C7.61106 11.6357 8.38716 11.8531 9.18164 11.8486L9.1875 11.8477C9.60249 11.848 10.0161 11.7902 10.415 11.6758C10.8687 11.5459 11.3423 11.8082 11.4727 12.2617C11.6028 12.7154 11.3403 13.1889 10.8867 13.3193C10.3354 13.4775 9.76397 13.5577 9.19043 13.5576L9.19141 13.5586L9.18848 13.5576L9.18555 13.5586C8.23236 13.563 7.29813 13.3389 6.45801 12.9141C6.03689 14.649 5.82335 16.4314 5.82324 18.2227V21.1377C5.8233 21.2098 5.83671 21.282 5.86426 21.3486C5.89193 21.4153 5.93337 21.4763 5.98438 21.5273C6.03541 21.5783 6.09648 21.6189 6.16309 21.6465C6.22961 21.674 6.30108 21.6884 6.37305 21.6885H11.2939C11.7658 21.6889 12.1484 22.072 12.1484 22.5439C12.1481 23.0156 11.7656 23.3981 11.2939 23.3984H6.37305C6.07658 23.3984 5.78273 23.3399 5.50879 23.2266C5.23472 23.113 4.98522 22.946 4.77539 22.7363C4.56559 22.5265 4.39876 22.277 4.28516 22.0029C4.17163 21.7288 4.11237 21.4344 4.1123 21.1377V18.2227C4.11247 15.402 4.60653 12.6021 5.57031 9.95117C6.46593 7.48768 6.92362 4.88589 6.92383 2.26465V2.16113C6.92383 1.74802 7.08878 1.35171 7.38086 1.05957L7.49512 0.956055C7.77232 0.728967 8.12094 0.601563 8.48242 0.601562H9.8877Z" fill="black"/>
<path fill-rule="evenodd" clip-rule="evenodd" d="M17.7607 7.63086C18.0867 7.62855 18.4025 7.74371 18.6494 7.95703C18.9004 8.17391 19.0626 8.47563 19.1045 8.80469C19.1053 8.81073 19.1068 8.81719 19.1074 8.82324L19.4951 12.5078C19.5098 12.5706 19.5186 12.6359 19.5186 12.7031C19.5186 12.709 19.5167 12.7148 19.5166 12.7207L19.8555 15.9316L19.876 16.1787C19.9019 16.7563 19.7831 17.3326 19.5303 17.8555C19.2424 18.4508 18.791 18.9517 18.2295 19.3008C17.8721 19.5261 17.4806 19.6868 17.0732 19.7822V21.6875H17.623C18.0951 21.6877 18.4775 22.0709 18.4775 22.543C18.4773 23.0148 18.0949 23.3983 17.623 23.3984H14.8115C14.3395 23.3984 13.9563 23.0149 13.9561 22.543C13.9561 22.0708 14.3393 21.6875 14.8115 21.6875H15.3623V19.7842C14.9545 19.6896 14.5629 19.5294 14.2051 19.3047C13.641 18.9555 13.1873 18.4527 12.8984 17.8555C12.6096 17.2581 12.4966 16.5907 12.5732 15.9316L13.3242 8.80469C13.3661 8.4757 13.5284 8.17392 13.7793 7.95703C14.0261 7.74385 14.3422 7.62865 14.668 7.63086H17.7607ZM14.543 13.5586L14.2734 16.1201L14.2725 16.1289C14.2333 16.4655 14.291 16.8063 14.4385 17.1113C14.5676 17.3783 14.7606 17.6085 15 17.7812L15.1113 17.8555C15.4416 18.0636 15.8245 18.1738 16.2148 18.1738C16.6052 18.1738 16.9881 18.0637 17.3184 17.8555L17.4297 17.7812C17.669 17.6085 17.8621 17.3782 17.9912 17.1113C18.1387 16.8064 18.1964 16.4654 18.1572 16.1289L18.1562 16.1201L17.8857 13.5586H14.543ZM14.7236 11.8477H17.7061L17.4414 9.33984H14.9873L14.7236 11.8477Z" fill="black"/>
<path fill-rule="evenodd" clip-rule="evenodd" d="M9.18555 15.3623C9.78504 15.3624 10.3603 15.6015 10.7842 16.0254C11.2078 16.4492 11.4462 17.0238 11.4463 17.623C11.4462 17.9197 11.3879 18.2142 11.2744 18.4883C11.1608 18.7624 10.994 19.0118 10.7842 19.2217C10.5743 19.4315 10.325 19.5983 10.0508 19.7119C9.77664 19.8254 9.48227 19.8838 9.18555 19.8838C8.88906 19.8837 8.59524 19.8253 8.32129 19.7119C8.04719 19.5984 7.79773 19.4314 7.58789 19.2217C7.37809 19.0119 7.21126 18.7624 7.09766 18.4883C6.98416 18.2142 6.92487 17.9197 6.9248 17.623C6.92492 17.0237 7.1641 16.4492 7.58789 16.0254C8.01175 15.6015 8.58613 15.3624 9.18555 15.3623ZM9.18555 17.0732C9.03965 17.0734 8.90005 17.1312 8.79688 17.2344C8.69378 17.3375 8.63586 17.4772 8.63574 17.623C8.6358 17.6951 8.64924 17.7674 8.67676 17.834C8.70443 17.9006 8.74587 17.9617 8.79688 18.0127C8.84793 18.0636 8.90895 18.1042 8.97559 18.1318C9.04212 18.1593 9.11356 18.1738 9.18555 18.1738C9.25776 18.1738 9.32976 18.1595 9.39648 18.1318C9.46323 18.1042 9.52409 18.0638 9.5752 18.0127C9.62625 17.9616 9.66666 17.9007 9.69434 17.834C9.72193 17.7673 9.73626 17.6952 9.73633 17.623C9.73621 17.4773 9.67811 17.3375 9.5752 17.2344C9.47197 17.1312 9.33152 17.0733 9.18555 17.0732Z" fill="black"/>
</svg>
